<svg xmlns="http://www.w3.org/2000/svg" xmlns:xlink="http://www.w3.org/1999/xlink" width="237.134" height="237.138" viewBox="0 0 237.134 237.138"><defs><style>.a{fill:url(#a);}.b{fill:url(#b);}.c{fill:url(#c);}.d{fill:url(#d);}.e{fill:url(#e);}.f{fill:url(#f);}.g{fill:url(#g);}.h{fill:url(#h);}.i{fill:url(#i);}.j{fill:url(#j);}.k{fill:url(#k);}.l{fill:url(#l);}.m{fill:url(#m);}.n{fill:url(#n);}.o{fill:url(#o);}.p{fill:url(#p);}.q{fill:url(#q);}.r{fill:url(#r);}.s{fill:url(#s);}.t{fill:url(#t);}.u{fill:url(#u);}.v{fill:url(#v);}</style><linearGradient id="a" y1="0.5" x2="1" y2="0.5" gradientUnits="objectBoundingBox"><stop offset="0" stop-color="#7ac943"/><stop offset="0.33" stop-color="#1da8eb"/><stop offset="0.67" stop-color="#f11370"/><stop offset="1" stop-color="#fb8a00"/></linearGradient><linearGradient id="b" x1="0" y1="0.499" x2="1.001" y2="0.499" xlink:href="#a"/><linearGradient id="c" x1="0" y1="0.525" x2="1" y2="0.525" xlink:href="#a"/><linearGradient id="d" x1="0" y1="0.267" x2="1" y2="0.267" xlink:href="#a"/><linearGradient id="e" x1="-0.29" y1="0.461" x2="1.131" y2="0.461" xlink:href="#a"/><linearGradient id="f" x1="0.015" y1="0.454" x2="0.969" y2="0.454" xlink:href="#a"/><linearGradient id="g" x1="-0.062" y1="0.474" x2="0.95" y2="0.474" xlink:href="#a"/><linearGradient id="h" x1="-0.001" y1="0.498" x2="0.999" y2="0.498" xlink:href="#a"/><linearGradient id="i" x1="-0.005" y1="0.497" x2="0.999" y2="0.497" xlink:href="#a"/><linearGradient id="j" x1="0" y1="0.499" x2="1" y2="0.499" xlink:href="#a"/><linearGradient id="k" x1="-0.003" y1="0.494" x2="1.025" y2="0.494" xlink:href="#a"/><linearGradient id="l" x1="0" y1="0.502" x2="0.999" y2="0.502" xlink:href="#a"/><linearGradient id="m" x1="0.014" y1="0.494" x2="1.043" y2="0.494" xlink:href="#a"/><linearGradient id="n" x1="-0.028" y1="0.493" x2="1.015" y2="0.493" xlink:href="#a"/><linearGradient id="o" x1="-0.023" y1="0.493" x2="0.991" y2="0.493" xlink:href="#a"/><linearGradient id="p" x1="-0.02" y1="0.478" x2="0.978" y2="0.478" xlink:href="#a"/><linearGradient id="q" x1="-0.092" y1="0.495" x2="0.892" y2="0.495" xlink:href="#a"/><linearGradient id="r" x1="-0.074" y1="0.496" x2="1.018" y2="0.496" xlink:href="#a"/><linearGradient id="s" x1="-0.019" y1="0.44" x2="0.963" y2="0.44" xlink:href="#a"/><linearGradient id="t" x1="0.004" y1="0.503" x2="0.991" y2="0.503" xlink:href="#a"/><linearGradient id="u" x1="-0.007" y1="0.501" x2="0.995" y2="0.501" xlink:href="#a"/><linearGradient id="v" x1="-0.015" y1="0.499" x2="1" y2="0.499" xlink:href="#a"/></defs><g transform="translate(0 0)"><path class="a" d="M227.374,177.415c-5.768-14.8-8.754-30.206-14.225-45-1.163-3.192-4.559-10.555-8.914-11.672,1.254-4.377-3.465-10.943-5.654-13.541-10.076-12.151-21.931-22.432-31.916-34.834-12.4-9.94-22.683-21.794-34.834-31.916-2.6-2.28-9.119-6.839-13.541-5.654-1.117-4.423-8.48-7.751-11.672-8.914-14.75-5.426-30.16-8.412-44.956-14.18-15.707-2.28-30.548-7.523-46.1-10.167C12.216.989,4.169.123,1,3.406V20.161C3.28,26.2,7.7,34.865,12.034,44.3A18.42,18.42,0,0,0,1,39.425H1v2.85a5.54,5.54,0,0,1,1.5.319A24.621,24.621,0,0,1,15.636,52.51c1.527,3.693,2.986,7.432,4.217,11.148A24.119,24.119,0,0,0,1,54.266H1V56.91a16.8,16.8,0,0,1,3.26.638c9.119,2.781,15.456,8.161,18.4,15.958a47.668,47.668,0,0,1,1.254,12.607C20.605,78.681,8.181,73.94,1,74.236H1v2.69H1c5.7.205,13.473,2.622,17.508,6.839a12.538,12.538,0,0,1,3.306,10.874,17.075,17.075,0,0,1-7.865,7.8,23.387,23.387,0,0,1-2.28.684,5.266,5.266,0,0,0,.73-2.964A12.242,12.242,0,0,0,1,89.9H1v2.736a3.579,3.579,0,0,1,.684.114c2.872.707,10.441,4.559,7.523,8.936a6.839,6.839,0,0,1-3.328,2.622A43.772,43.772,0,0,1,1,104.579v3.556a26.7,26.7,0,0,0,3.534-.16h0a135.071,135.071,0,0,1,17.394,18.853,43.313,43.313,0,0,0-5.768,1.824A91.963,91.963,0,0,0,1.935,114.313a1.459,1.459,0,0,0-.935-.3v3.237H1a84.943,84.943,0,0,1,12.607,12.675c-1.869.866-3.648,1.847-5.38,2.85-2.28-2.28-4.012-5.266-6.292-7.637a1.3,1.3,0,0,0-.935-.5v3.442H1c1.687,1.983,3.146,4.24,4.947,6.11A38.961,38.961,0,0,0,1,138.341H1V142.7a1.755,1.755,0,0,0,1.277-.524,38.755,38.755,0,0,1,14.02-9.666c3.967-1.55,9.233-3.442,13.519-2.006,4.445.889,8.047,5.175,10.715,8.5a38.755,38.755,0,0,1,7.318,15.365,1.733,1.733,0,0,0,.843,1.117,1.8,1.8,0,0,0,1.368.182,38.276,38.276,0,0,1,17.052-1.345c4.195.638,9.712,1.619,12.7,5.015,3.4,2.986,4.377,8.5,5.015,12.7a38.276,38.276,0,0,1-1.345,16.984,1.8,1.8,0,0,0,.182,1.368,1.732,1.732,0,0,0,1.117.843,38.755,38.755,0,0,1,15.365,7.318c3.328,2.667,7.614,6.269,8.5,10.715,1.436,4.286-.456,9.552-2.006,13.519a38.755,38.755,0,0,1-9.666,14.02,1.755,1.755,0,0,0-.524,1.277h4.354a38.96,38.96,0,0,0,4.172-4.947c1.869,1.8,4.126,3.26,6.11,4.947h3.42a1.3,1.3,0,0,0-.388-.935c-2.28-2.28-5.357-4.012-7.637-6.292,1-1.733,1.983-3.511,2.85-5.38a84.943,84.943,0,0,1,12.607,12.607h3.123a1.459,1.459,0,0,0-.388-.935,91.963,91.963,0,0,0-14.248-14.225,43.314,43.314,0,0,0,1.755-5.836,135.075,135.075,0,0,1,18.762,17.394h0c0,1.185-.16,2.28-.16,3.534h3.625a43.769,43.769,0,0,1,.3-4.879,6.839,6.839,0,0,1,2.622-3.328c4.331-2.918,8.23,4.559,8.936,7.523a3.582,3.582,0,0,1,0,.684h2.918a12.242,12.242,0,0,0-10.281-11.4,5.266,5.266,0,0,0-2.964.752,23.38,23.38,0,0,1,.684-2.28,17.075,17.075,0,0,1,7.819-7.865,12.539,12.539,0,0,1,10.874,3.306c4.195,4.035,6.611,11.809,6.839,17.508h2.69c.228-7.181-4.559-19.605-11.946-22.8a47.667,47.667,0,0,1,12.607,1.254c7.865,2.941,13.245,9.347,15.958,18.4a16.8,16.8,0,0,1,.638,3.26h2.644a24.119,24.119,0,0,0-9.392-18.853c3.716,1.231,7.455,2.69,11.148,4.217a24.621,24.621,0,0,1,9.917,13.131,5.54,5.54,0,0,1,.319,1.5h2.85a18.42,18.42,0,0,0-4.81-11.1c9.484,4.331,18.238,8.731,24.188,11.034h16.756c3.283-3.169,2.462-11.216,1.869-14.567C234.9,207.963,229.768,193.122,227.374,177.415Zm3.442,28.382.889,3.967a13.267,13.267,0,0,0-5.448-.684c-7.409.274-11.854,5.95-19.377,4.149-.98-1.71-1.938-3.465-2.964-5.152a15.593,15.593,0,0,0,7.591-1.436c3.078-1.3,17.143-8.754,19.013-1.413a1.915,1.915,0,0,0,.3.57Zm-2.576-10.4c.456,1.664.889,3.4,1.345,5.2a16.778,16.778,0,0,0-6.839-.866c-7.432.365-13.154,7.113-20.677,5.334a58.048,58.048,0,0,0-3.488-4.924A19.4,19.4,0,0,0,206.971,198c5.813-2.758,15.5-9.187,21.27-2.6Zm-2.28-8.8c.388,1.459.8,3.055,1.231,4.742a21.247,21.247,0,0,0-9.438-1.14c-8.412.41-12.972,8.64-21.748,6.839a27.357,27.357,0,0,0-5.585-4.286,19.173,19.173,0,0,0,8.686-1.5,59.093,59.093,0,0,0,9.119-5.882c4.012-2.394,14.636-4.445,17.691,1.231Zm-40.738,1.961c5.38-5.631,10.441-6.383,18.808-6.041,1.163,0,2.439.16,3.739.16a34.91,34.91,0,0,0-3.169,2.006c-7.067,4.559-11.809,6.36-19.286,4.195V188.7c0-.182-.091-.114-.137-.137Zm38.755-10.236h0c.137.821.433,2.143.821,3.739a18.238,18.238,0,0,0-7.341-1.869l.41-.251h-.479a17.85,17.85,0,0,0,5.4-5.289c.41,1.619.821,2.9,1.094,3.67Zm-2.28-8.139c.205,6.474-10.031,10.008-14.772,9.8a57.656,57.656,0,0,0-10.829-.524,18.739,18.739,0,0,0-8.275,3.032,27.858,27.858,0,0,0,2.394-6.5c6.839-5.859,14.841-1.026,22.341-4.879a20.655,20.655,0,0,0,7.569-5.654c.547,1.687,1,3.283,1.391,4.719Zm-86.059,14.18a17.121,17.121,0,0,1-10.692-2.9c-.638-.547-1.185-1.071-1.733-1.641a5.152,5.152,0,0,0,2.941-.821,12.2,12.2,0,0,0,3.192-15.023h0a12.242,12.242,0,0,0-14.613-4.742,5.106,5.106,0,0,0-2.28,2.143c-.205-.752-.388-1.5-.547-2.28a17.1,17.1,0,0,1,2.827-10.715,12.538,12.538,0,0,1,11.079-2.576c5.654,1.391,11.649,6.839,14.636,11.74h0c2.667,5.015,4.559,12.972,2.85,18.557A12.447,12.447,0,0,1,135.639,184.368Zm9.119,15.16a50.832,50.832,0,0,1,1.254,6.269c-1.641-1.664-3.283-3.328-4.993-4.879a.479.479,0,0,1-.16-.342.5.5,0,0,1,0-.388c.73-2.28,1.3-4.559,1.915-6.725a54.077,54.077,0,0,1,2.1,6.064Zm-25.441-24.142a40.56,40.56,0,0,1-2.713-4.058,43.313,43.313,0,0,1-2.28-4.377,6.7,6.7,0,0,1,.661-4.1c2.28-4.7,9.438,0,11.4,2.052a3.124,3.124,0,0,1,.433.524,3.922,3.922,0,0,1,.251.661c.821,2.85,1.231,11.4-3.989,10.965a6.565,6.565,0,0,1-3.761-1.664ZM79.855,124.344a12.242,12.242,0,0,0-4.742-14.613h0a12.2,12.2,0,0,0-15.023,3.192,5.152,5.152,0,0,0-.821,2.941c-.57-.547-1.094-1.094-1.641-1.733a17.121,17.121,0,0,1-2.9-10.692,12.447,12.447,0,0,1,8.3-7.774c5.585-1.619,13.541.182,18.557,2.85h0l.912.616a31.916,31.916,0,0,1,8.3,8.48h0a21.957,21.957,0,0,1,1.391,2.576c.137.274.274.57.388.866a12.857,12.857,0,0,1,.707,2.12,12.538,12.538,0,0,1-2.576,11.079,17.1,17.1,0,0,1-10.715,2.827c-.821-.16-1.573-.342-2.28-.547A5.107,5.107,0,0,0,79.855,124.344Zm-3.625-.251a6.839,6.839,0,0,1-4.195.616,43.315,43.315,0,0,1-4.377-2.28,40.558,40.558,0,0,1-3.967-2.667,6.566,6.566,0,0,1-1.573-3.921c-.365-5.221,8.116-4.81,10.965-3.989a3.921,3.921,0,0,1,.661.251,3.122,3.122,0,0,1,.524.433C76.413,114.587,81.018,121.813,76.23,124.093Zm54.713-15.958a1.436,1.436,0,0,0,1.3.342c16.368-3.6,29.636,7.3,43.314,13.4-7.341-2.28-14.727-4.559-22.25-6.155s-18.58-2.28-25.077,2.28a35.381,35.381,0,0,0-7.067-7.067c4.719-6.611,3.9-17.759,2.28-25.077s-3.9-14.978-6.178-22.318c6.11,13.678,17.007,26.923,13.4,43.314a1.436,1.436,0,0,0,.274,1.277Zm4.787-5.038c1.869-7.569,5.859-10.737,13.291-14.613,1.049-.524,2.166-1.094,3.306-1.733-.638,1.14-1.231,2.28-1.733,3.306-3.876,7.432-7.044,11.4-14.613,13.291v-.182Zm24.461,43.086h0a24.188,24.188,0,0,0-17.577-11.626c3.83-.775,7.8-1.391,11.786-1.915a24.621,24.621,0,0,1,15.137,6.406,6.247,6.247,0,0,1,1.026,1.163,5.222,5.222,0,0,1,.479,1.459,24.416,24.416,0,0,1-2.029,16.323c-2.439,3.169-4.947,6.315-7.523,9.119A24.233,24.233,0,0,0,160.192,146.183Zm-25.738-13.678a31.48,31.48,0,0,0-1.117-4.309c11.946-7,27.151-3.328,41.171-1.231-12.584,1.14-27.607,2.211-40.054,5.54Zm-2.075-6.839a33.831,33.831,0,0,0-2.736-5.357c11.6-8.23,31.528-.98,46.825,4.354-14.727-2.075-31.027-6.36-44.089.957Zm-23.527,4.559A55.511,55.511,0,0,0,98.617,122.2a36.113,36.113,0,0,0,3.67-5.882A31.574,31.574,0,0,1,122.8,136.837a36.111,36.111,0,0,0-5.882,3.67,55.513,55.513,0,0,0-8.07-10.281Zm1.687,7.318c-2.28-.593-4.559-1.231-6.839-1.71a1.436,1.436,0,0,1-.524-.524c-.479-2.28-1.117-4.559-1.71-6.839a50.5,50.5,0,0,1,9,9ZM82.933,96.189h0c-6.11-3.784-19.2-5.95-25.783-1.117a47.737,47.737,0,0,1,7.363-10.3c6.5-5.312,14.727-6.839,23.937-4.559a16.663,16.663,0,0,1,3.169,1.049,17.282,17.282,0,0,1,2.485,2.28c6.452,6.839,9.3,14.772,7.933,23.071a47.554,47.554,0,0,1-5.289,11.376C97.682,109.845,89.247,99.586,82.933,96.189ZM63.806,79.912a37.522,37.522,0,0,0-3.146-3.169C67.5,64.707,82.522,60.284,95.7,55.109,85.349,62.359,72.947,70.794,63.806,79.912Zm17.3-9.848a24.416,24.416,0,0,1,16.323-2.029,5.221,5.221,0,0,1,1.459.479,6.247,6.247,0,0,1,1.163,1.026,24.621,24.621,0,0,1,6.406,15.137c-.524,3.989-1.14,7.956-1.915,11.786a6.976,6.976,0,0,0-.251-1.345q-.274-1.3-.684-2.6-.389-1.161-.889-2.28A23.116,23.116,0,0,0,92.918,79h0A24.233,24.233,0,0,0,71.9,77.7C74.794,75.011,77.94,72.5,81.109,70.064ZM116.9,122.178a35.176,35.176,0,0,0-13.473-8.321,61.756,61.756,0,0,0,2.28-6.657,32.531,32.531,0,0,1,26.171,26.011,61.758,61.758,0,0,0-6.657,2.28,35.176,35.176,0,0,0-8.321-13.313Zm1.915-12.744a33.83,33.83,0,0,0-5.357-2.736c7.318-13.063,3.032-29.363,1-44.089C119.8,77.906,127.045,97.831,118.815,109.434Zm-7.933-3.579a31.48,31.48,0,0,0-4.309-1.117c3.328-12.516,4.4-27.47,5.54-40.054C114.21,78.5,117.88,93.773,110.882,105.855Zm-3.465-30.024a18.648,18.648,0,0,0-7.067-9.8h0a18.534,18.534,0,0,0-12.06-1.208c8.5-6.041,16.642-11.4,21.657-15.434C108.944,55.7,108.4,65.459,107.417,75.832Zm-48.854-.821a32.533,32.533,0,0,0-5.129-3.351c5.95-12.926,26.809-16.6,42.722-19.628C82.454,57.708,66.2,62.131,58.562,75.011ZM71.671,55.975c-7.227,2.28-17.28,7.2-20.654,14.613A33.968,33.968,0,0,0,46.3,68.947a36.132,36.132,0,0,0-4.924-.957c.8-8.07-5.494-17.3-10.578-22.957S19.944,34.068,14.336,28.824c12.128,8.754,28.2,14.818,33.261,30.8a1.345,1.345,0,0,0,2.28.593c12.356-11.4,29.317-8.5,44.2-10.031C86.58,51.918,79.034,53.6,71.671,55.975ZM38.706,67.762a33.488,33.488,0,0,0-6.018.3C32.505,53.1,20.651,41.135,11.509,29.3,23.8,39.972,40.029,53.582,38.706,67.762Zm6.839,3.784A32.212,32.212,0,0,1,61.868,81.873a58.5,58.5,0,0,0-4.559,5.38A34.332,34.332,0,0,0,27.673,79.3,60.982,60.982,0,0,0,26.4,72.321a32.258,32.258,0,0,1,19.218-.661ZM26.783,92.5h2.28l.114.182a108.1,108.1,0,0,1,7.751,8.093,1.482,1.482,0,0,0,.616.342,1.231,1.231,0,0,0,.707,0A109.172,109.172,0,0,1,48.988,97.99h.205c.684.342,1.391.707,2.075,1.094a20.517,20.517,0,0,0-.638,5.517c-4.856,1.094-9.575,3.716-14.271,5.266a1.778,1.778,0,0,1-1.14,0,2.12,2.12,0,0,1-.98-.57c-3.283-3.716-6.064-8.344-9.734-11.718A20.221,20.221,0,0,0,26.852,92.5Zm6.429.456a50.84,50.84,0,0,1,6.269,1.254,54.073,54.073,0,0,1,6.064,2.029c-2.28.616-4.559,1.185-6.725,1.915a.5.5,0,0,1-.388,0,.479.479,0,0,1-.342-.16c-1.482-1.755-3.146-3.4-4.81-5.038Zm7.2-2.28a57.358,57.358,0,0,0-12.88-1.847,36.27,36.27,0,0,0,.228-6.839,31.688,31.688,0,0,1,27.949,7.5,34.423,34.423,0,0,0-3.26,6.11,55.441,55.441,0,0,0-11.968-4.856Zm48.9,38.664c1.55,5.175,1.71,11.4,2.85,16.619a1.117,1.117,0,0,0,.957.957c5.129,1.14,11.4,1.3,16.619,2.85a20.517,20.517,0,0,0-1.322,6.155c-6.839-1.208-13.883-2.781-20.9-3.511-.16,0-.3-.16-.456-.388s-.365-.3-.388-.456c-.73-7.022-2.28-13.952-3.511-20.9a20.518,20.518,0,0,0,6.155-1.322Zm6.543,15.434a2.029,2.029,0,0,1-1.55-1.55c-1-4.833-1.094-10.236-2.576-15a20.131,20.131,0,0,0,4.559-3.306l2.006,1.254v.228a106.071,106.071,0,0,1,2.667,10.851,1.436,1.436,0,0,0,.98.98,106.078,106.078,0,0,1,10.76,2.667h.228c.433.661.843,1.322,1.231,2.006a20.745,20.745,0,0,0-3.283,4.559C106.094,145.864,100.691,145.773,95.858,144.77Zm47.03,11.4h0c-3.4-6.315-13.678-14.75-21.794-13.861a46.691,46.691,0,0,1,11.535-5.221c8.3-1.368,16.14,1.482,23.071,7.933a17.28,17.28,0,0,1,2.28,2.485,16.668,16.668,0,0,1,1.049,3.169c2.143,9.119.661,17.44-4.559,23.937a47.737,47.737,0,0,1-10.3,7.363C148.839,175.364,146.673,162.278,142.889,156.168Zm41.035-12.789c-5.107,13.177-9.552,28.177-21.589,35.039a37.519,37.519,0,0,0-3.169-3.146c9.119-9.142,17.554-21.543,24.8-31.893Zm3.009-.524c-2.986,15.912-6.657,36.772-19.514,42.79a32.531,32.531,0,0,0-3.283-5.061c12.812-7.705,17.235-23.96,22.843-37.729Zm-12.675,7.933a18.534,18.534,0,0,0-1.231-12.037h0a18.648,18.648,0,0,0-9.8-7.067c10.373-.98,20.084-1.527,26.467-2.53C185.656,134.146,180.321,142.331,174.257,150.788Zm43.314,5.471c.5,1.778.98,3.488,1.436,5.175-1.573,8.572-13.177,7.842-19.674,8.253a19.423,19.423,0,0,0-8.321,2.28,58.439,58.439,0,0,0,.547-6.018c5.631-5.289,13.952-2.28,20.517-5.7a16.984,16.984,0,0,0,5.631-3.989Zm-2.736-9.119c.388,1.277.8,2.6,1.208,3.875a2.052,2.052,0,0,0,0,.638c2.029,7.272-13.861,7.865-17.166,8.275a15.684,15.684,0,0,0-7.3,2.553v-5.95c5.608-5.312,12.31-2.6,18.853-6.087a13.473,13.473,0,0,0,4.537-3.192Zm-1.527-4.81a1.481,1.481,0,0,0,0,.775c1.915,5.973-11.285,6.338-14.089,6.839a15.958,15.958,0,0,0-7.569,3.169v-6.976c2.28-3.534,15.958-2.28,20.517-6.429A16.041,16.041,0,0,1,213.309,142.331Zm-4.742-11.216a55.717,55.717,0,0,1,2.485,5.312c-.661,3.875-11.4,3.967-13.4,4.24a15.707,15.707,0,0,0-5.54,1.368,32.441,32.441,0,0,1,1.869-7.728c2.872-3.556,8.845-.638,12.835-2.28a6.976,6.976,0,0,0,1.755-.821Zm-1.368-2.28c-.912,1.71-7.933,1-8.64.98a14.426,14.426,0,0,0-2.508.228,23.686,23.686,0,0,1,5.562-5.836c1.938.182,3.784,1.915,5.585,4.719Zm-8.572-14.841c1.527,2.941,2.1,5.426,1.322,7.135a23.481,23.481,0,0,1-7.933,1.892,12.86,12.86,0,0,0,1.459-2.029c.319-.547,3.214-6.976,5.152-6.908Zm-4.559-7.135c1.277,1.687,2.28,3.283,3.328,4.81a6.224,6.224,0,0,0-1.755,1c-3.306,2.713-3.784,9.324-8.3,10.031a32.167,32.167,0,0,1-7.637-2.28,15.957,15.957,0,0,0,3.989-4.1c1.185-1.573,6.52-10.737,10.3-9.37Zm-4.559-5.312a1.641,1.641,0,0,0,.661.41,26.951,26.951,0,0,1,1.869,2.28c-5.859,1.961-11.695,14.453-15.958,14.613-2.029-1.026-4.035-2.28-6.064-3.4a15.616,15.616,0,0,0,6.52-5.038c1.664-2.166,8.572-13.4,12.789-8.777Zm-5.973-6.839a1.711,1.711,0,0,0,.524.342l2.758,2.986a13.382,13.382,0,0,0-5.061,2.143c-6.269,3.921-7.295,11.079-14.7,13.291-1.687-1-3.42-2.052-5.129-3.009a15.685,15.685,0,0,0,5.859-5.015c1.915-2.508,10.281-15.981,15.593-10.578Zm-3.146-3.556a17.007,17.007,0,0,0-6.315,2.667c-6.269,4.058-7.842,12.744-15.251,14.978a51.452,51.452,0,0,0-5.471-2.53,19.764,19.764,0,0,0,6.2-6.041c3.625-5.289,8.8-15.707,17.075-12.9Zm-6.839-6.839a20.631,20.631,0,0,0-8.686,3.716c-7.09,4.559-6.839,13.975-15.365,16.915a27.927,27.927,0,0,0-6.976-.935,18.876,18.876,0,0,0,6.839-5.654,59.113,59.113,0,0,0,4.947-9.643c2.28-4.195,10.373-11.285,15.958-7.911a22.984,22.984,0,0,0,3.214,3.739ZM161.4,72.093c1.208,1.117,2.28,2.029,2.827,2.576h0c.547.638,1.459,1.619,2.576,2.827a18.238,18.238,0,0,0-7.272,2.052l.228-.433-.433.228a18.238,18.238,0,0,0,2.006-7.021Zm-3.283-3.283c3.374,5.494-3.716,13.678-7.911,15.958a59.112,59.112,0,0,0-9.712,5.129,18.876,18.876,0,0,0-5.654,6.839,27.928,27.928,0,0,0-.935-6.976c2.941-8.458,12.356-8.275,16.915-15.365a20.631,20.631,0,0,0,3.716-8.686c1.231,1.117,2.417,2.257,3.511,3.328Zm-6.52-6.269c2.8,8.275-7.614,13.45-12.9,17.075a19.765,19.765,0,0,0-6.041,6.2,51.454,51.454,0,0,0-2.53-5.471c2.28-7.409,10.92-8.982,14.978-15.251a17.007,17.007,0,0,0,2.667-6.315Zm-10.715-10.19,2.986,2.758a1.709,1.709,0,0,0,.342.524c5.4,5.289-8.07,13.678-10.737,15.753a15.685,15.685,0,0,0-5.015,5.859c-.957-1.71-2.006-3.442-3.009-5.129,2.28-7.409,9.37-8.435,13.291-14.7a13.382,13.382,0,0,0,2.143-4.97Zm-3.853-3.26a1.846,1.846,0,0,0,.388.661c4.559,4.217-6.588,11.125-8.822,12.9a15.616,15.616,0,0,0-4.97,6.5c-1.208-2.029-2.28-4.035-3.4-6.064.16-4.172,12.652-10.008,14.613-15.958C135.5,47.814,136.323,48.452,137.03,49.091Zm-10.646-5.585a6.223,6.223,0,0,0,1-1.755c1.527.935,3.123,2.052,4.81,3.328,1.368,3.693-7.8,9.119-9.484,10.373a15.958,15.958,0,0,0-4.1,3.989,32.167,32.167,0,0,1-2.28-7.637C116.991,47.29,123.6,46.811,126.384,43.505Zm-8.458-4.377c1.71-.775,4.195-.205,7.135,1.322,0,1.938-6.36,4.833-7,5.152a12.857,12.857,0,0,0-2.029,1.459,23.481,23.481,0,0,1,1.824-7.933Zm-7.705-7.249c2.8,1.8,4.559,3.648,4.719,5.517a23.686,23.686,0,0,1-5.927,5.631,14.43,14.43,0,0,0,.228-2.508c-.091-.775-.8-7.614.912-8.64Zm-7.591-3.853a55.716,55.716,0,0,1,5.243,2.6,6.976,6.976,0,0,0-1.026,1.755c-1.527,3.989,1.391,9.962-2.28,12.835a32.44,32.44,0,0,1-7.728,1.869,15.707,15.707,0,0,0,1.368-5.54c.388-2.211.479-12.858,4.354-13.519Zm-6.68-2.28a1.482,1.482,0,0,0,.775,0c.912.319,1.847.638,2.713.98-4.081,4.559-2.9,18.352-6.429,20.517-2.28.114-4.559.114-6.976,0A15.958,15.958,0,0,0,89.2,39.676c.342-2.622.707-15.89,6.68-13.906Zm-8.64-2.872a2.052,2.052,0,0,0,.638,0l3.875,1.208a13.473,13.473,0,0,0-3.306,4.4c-3.488,6.543-.775,13.245-6.087,18.853h-5.95a15.685,15.685,0,0,0,2.553-7.3C79.445,36.735,80.037,20.845,87.31,22.874Zm-4.559-1.5A16.984,16.984,0,0,0,78.6,26.841c-3.4,6.634-.41,14.955-5.7,20.517a52.706,52.706,0,0,0-6.018.547,19.423,19.423,0,0,0,2.508-8.161c.5-6.406-.228-18.01,8.344-19.719Zm-9.119-2.508a20.654,20.654,0,0,0-5.654,7.569c-3.853,7.5.98,15.57-4.879,22.341a27.858,27.858,0,0,0-6.5,2.667,18.739,18.739,0,0,0,3.032-8.275,57.654,57.654,0,0,0-.524-10.829c-.205-4.742,3.328-14.978,9.8-14.772ZM60.705,15.169h0c.775.274,2.052.684,3.648,1.163a17.85,17.85,0,0,0-5.289,5.4,3.375,3.375,0,0,0,0-.479l-.251.41a18.238,18.238,0,0,0-1.869-7.341C58.562,14.667,59.885,15.032,60.705,15.169ZM56.556,35.185c.342,8.367-.41,13.427-6.041,18.808l-.137-.114H50.2c-2.166-7.477-.3-12.219,4.195-19.286.661-.98,1.345-2.029,2.006-3.169C56.4,32.654,56.465,33.931,56.556,35.185ZM52.476,13.163c5.676,3.055,3.625,13.678,1.094,17.69a59.091,59.091,0,0,0-5.882,9.119,19.172,19.172,0,0,0-1.5,8.686A27.356,27.356,0,0,0,41.9,43.072c-1.687-8.777,6.543-13.336,6.839-21.748a21.247,21.247,0,0,0-1-9.392Zm-8.8-2.28c6.588,5.768.16,15.456-2.6,21.247a19.4,19.4,0,0,0-2.143,8.389,58.042,58.042,0,0,0-4.924-3.488c-1.778-7.523,4.97-13.245,5.334-20.677a16.779,16.779,0,0,0-.866-6.839c1.8.433,3.556.866,5.2,1.322Zm-10.4-2.622a1.915,1.915,0,0,0,.57.3c7.341,1.869-.114,15.958-1.413,19.013A15.593,15.593,0,0,0,31,35.185c-1.687-1.026-3.442-1.983-5.152-2.964C24.048,24.7,29.724,20.253,30,12.843a13.268,13.268,0,0,0-.684-5.448ZM24.321,6.392a1.391,1.391,0,0,0,.661.365C31.115,8.1,24.846,19.705,23.8,22.35a15.434,15.434,0,0,0-1.049,8.139c-2.075-1.163-4.081-2.28-6-3.556-1.938-3.716,5.95-15,4.765-21.064C22.406,6,23.387,6.21,24.321,6.392ZM5.058,15.169a23.276,23.276,0,0,1-2.28-7.8c1.071-1.55,3.511-2.28,6.839-2.439.957,1.641-3.146,7.455-3.511,7.956a13.313,13.313,0,0,0-1.049,2.28ZM7.7,19.227c-1.641-4.263,3.853-7.979,4.559-12.2a6.064,6.064,0,0,0,0-2.029,57.177,57.177,0,0,1,5.836.5c2.986,2.325-2.234,11.649-3.055,13.724a15.388,15.388,0,0,0-1.573,5.494A32.235,32.235,0,0,1,7.7,19.227Zm2.758,13.154C19.306,43.46,30.066,54.79,30,68.628a32.8,32.8,0,0,0-4.309,1.208c-3.351-12.607-9.917-26.125-15.228-37.57ZM23.113,99.86c3.921,3.716,7.227,9.119,10.783,12.972a1.049,1.049,0,0,0,.593.388,1.072,1.072,0,0,0,.707,0c5.015-1.6,10.555-4.559,15.821-5.859a20.517,20.517,0,0,0,1.938,6c-6.634,2.439-13.4,4.559-19.879,7.409h-.57c-.251,0-.479,0-.57-.182-4.149-5.722-8.982-10.943-13.5-16.345a21.019,21.019,0,0,0,4.673-4.491ZM35.971,129.5h0a15.525,15.525,0,0,0-10.9-2.918h0a175.537,175.537,0,0,0-17.007-18.83,48.441,48.441,0,0,0,7.09-1.892l.182-.16a.456.456,0,0,0,.228,0l.547-.319c4.947,5.95,10.669,11.558,14.59,18.238a1.322,1.322,0,0,0,.821.616,1.3,1.3,0,0,0,1,0c6.839-3.853,14.5-5.836,21.748-8.526l.319.57a.615.615,0,0,0,.182.16s0,.137,0,.205a46.186,46.186,0,0,0,5.243,5.107,179.392,179.392,0,0,0-24.051,7.637ZM50.88,151.837h0a37.183,37.183,0,0,0-2.28-6.087c2.508-.73,4.879-1.938,7.341-2.8h0c.479,2.553.616,5.221,1.231,7.751a35.863,35.863,0,0,0-6.292,1.026ZM60,150.515c-.843-3.123-.843-6.566-1.641-9.757a1.208,1.208,0,0,0-.616-.8,1.231,1.231,0,0,0-1.026-.137c-3.146.889-6.132,2.622-9.256,3.465-.98-1.733-2.052-3.465-3.237-5.152a85.1,85.1,0,0,1,17.257-4.559h0a87.426,87.426,0,0,1,4.559,17.28,28.843,28.843,0,0,0-6.064-.456Zm8.822.57a90.938,90.938,0,0,0-5.152-19.514,1.368,1.368,0,0,0-.616-.821,1.527,1.527,0,0,0-1.026-.137,92.533,92.533,0,0,0-19.469,5.312,44.863,44.863,0,0,0-4.172-4.559,138.446,138.446,0,0,1,24.484-7.637h.114c.957.684,1.961,1.3,2.986,1.892s2.052,1.14,3.123,1.641h0a135.778,135.778,0,0,1,5.631,25.077,46.438,46.438,0,0,0-5.927-1.368ZM85.6,161.571a15.616,15.616,0,0,0-7.956-7.956h0a175.9,175.9,0,0,0-5.335-24.963,46.418,46.418,0,0,0,7.067,2.006H79.6a.41.41,0,0,0,.205,0h.661c1.3,7.637,3.465,15.342,3.511,23.116A1.322,1.322,0,0,0,85.3,155.1c7.774,0,15.479,2.28,23.116,3.511v.661a.411.411,0,0,0,0,.205s0,.16,0,.228a46.417,46.417,0,0,0,2.006,7.067,175.9,175.9,0,0,0-24.8-5.334Zm1.8,26.764h0a35.859,35.859,0,0,0,1.163-6.36c2.53.616,5.2.752,7.751,1.231h0c-.866,2.462-2.075,4.833-2.8,7.341a37.184,37.184,0,0,0-6.132-2.325Zm8.526,3.42c.843-3.123,2.576-6.11,3.465-9.278a1.185,1.185,0,0,0-.137-1,1.208,1.208,0,0,0-.8-.616c-3.192-.8-6.634-.8-9.757-1.641a54.942,54.942,0,0,0-.228-6.087,87.426,87.426,0,0,1,17.28,4.559h0a85.1,85.1,0,0,1-4.559,17.257c-1.824-1.254-3.556-2.325-5.289-3.306Zm11.809,9.119a44.873,44.873,0,0,0-4.559-4.172,93.924,93.924,0,0,0,5.312-19.469,1.527,1.527,0,0,0-.137-1.026,1.368,1.368,0,0,0-.821-.616,90.938,90.938,0,0,0-19.514-5.152,46.44,46.44,0,0,0-1.391-5.927,135.781,135.781,0,0,1,25.077,5.631h0c.5,1.071,1.049,2.12,1.641,3.123s1.208,2.006,1.892,2.986v.114a138.445,138.445,0,0,1-7.523,24.347Zm25.715,22.8a.456.456,0,0,0,0,.228s0,.114-.16.182a48.443,48.443,0,0,0-1.778,7.113,175.538,175.538,0,0,0-18.808-17.166h0a15.525,15.525,0,0,0-2.918-10.9h0a179.388,179.388,0,0,0,7.705-24.165,46.183,46.183,0,0,0,5.107,5.243h.205a.615.615,0,0,0,.16.182l.57.319c-2.69,7.249-4.559,15-8.526,21.748a1.3,1.3,0,0,0,0,1,1.322,1.322,0,0,0,.616.821c6.68,3.921,12.288,9.643,18.238,14.59Zm1.664-2.872c-5.4-4.559-10.623-9.347-16.345-13.5a1.528,1.528,0,0,1-.182-.57c-.023-.3-.182-.456,0-.57,2.872-6.474,4.97-13.245,7.409-19.879a20.517,20.517,0,0,0,6,1.938c-1.254,5.266-4.263,10.806-5.859,15.821a1.071,1.071,0,0,0,0,.707,1.14,1.14,0,0,0,.365.593c3.9,3.556,9.278,6.839,12.994,10.783a21.018,21.018,0,0,0-4.4,4.514Zm6.406-6.2c-3.374-3.67-8-6.452-11.718-9.734a2.12,2.12,0,0,1-.57-.98,1.778,1.778,0,0,1,0-1.14c1.55-4.7,4.172-9.415,5.266-14.271a20.517,20.517,0,0,0,5.562-.8c.388.684.752,1.391,1.094,2.075v.205a109.176,109.176,0,0,1-3.123,10.737,1.231,1.231,0,0,0,0,.707,1.482,1.482,0,0,0,.342.616,108.1,108.1,0,0,1,8.093,7.751h.182v2.28a20.22,20.22,0,0,0-5.152,2.394Zm15.593-3.192a36.274,36.274,0,0,0-6.839.228,57.357,57.357,0,0,0-1.847-12.88,55.441,55.441,0,0,0-4.856-12.06,34.423,34.423,0,0,0,6.018-3.328,31.688,31.688,0,0,1,7.5,27.972Zm9.666,1.5a60.98,60.98,0,0,0-6.976-1.277A34.332,34.332,0,0,0,151.848,182a58.492,58.492,0,0,0,5.38-4.559,32.44,32.44,0,0,1,9.552,35.609Zm2.6.638a32.809,32.809,0,0,0,1.208-4.309c13.838,0,25.077,10.692,36.247,19.537-11.467-5.471-24.986-12.037-37.478-15.388Zm1.664-7a33.49,33.49,0,0,0,.3-6.018c14.18-1.322,27.79,14.909,38.367,27.2-11.763-9.3-23.732-21.156-38.687-21.338Zm23.025,1.869c-5.654-5.084-14.886-11.4-22.957-10.578a36.136,36.136,0,0,0-.957-4.924,33.971,33.971,0,0,0-1.641-4.719c7.409-3.374,12.265-13.427,14.613-20.654s4.058-14.886,5.79-22.364c-1.527,14.886,1.277,31.916-10.031,44.2a1.345,1.345,0,0,0,.593,2.28c15.958,5.061,22.045,21.133,30.8,33.261a229.094,229.094,0,0,0-16.231-16.665Zm18.1,14.066c-1.231-1.915-2.394-3.921-3.556-6a15.433,15.433,0,0,0,8.116-1.208c2.644-1.049,14.248-7.318,15.593-1.185a1.39,1.39,0,0,0,.365.661c.182.935.388,1.915.524,2.85-6.064-1.231-17.349,6.657-21.064,4.719Zm19.56,14.02a23.276,23.276,0,0,1-7.8-2.28,13.313,13.313,0,0,0,2.28-1.049c.593-.365,6.315-4.559,7.956-3.465-.16,3.123-.912,5.562-2.462,6.634Zm.456-9.506c-4.217.684-7.933,6.178-12.2,4.559a32.235,32.235,0,0,1-5.494-5.768,15.389,15.389,0,0,0,5.494-1.573c1.961-.821,11.239-6.041,13.678-3.032a57.174,57.174,0,0,1,.5,5.836,6.062,6.062,0,0,0-2.006-.182Z" transform="translate(-1 -1.009)"/><path class="b" d="M26.6,116.128c2.28-2.28,3.784-6.452,2.28-9.119h0c-1.573-2.736-5.859-3.488-9.119-2.69a10.669,10.669,0,0,0,.228-1.231,12.4,12.4,0,0,0,0-1.3,7.363,7.363,0,0,0-3.032-6.611h0c-2.736-1.573-6.839,0-9.119,2.28-.912-3.169-3.716-6.5-6.839-6.5H1v2.758h.205A6.474,6.474,0,0,1,5.559,99.44,29.41,29.41,0,0,0,1,99.167v6.611H1a39.872,39.872,0,0,0,2.508,4.195,1.322,1.322,0,0,0,.821.593,1.3,1.3,0,0,0,1,0,33.787,33.787,0,0,0,4.263-2.28h0a39.237,39.237,0,0,0,0,4.879,1.413,1.413,0,0,0,1.345,1.345,39.232,39.232,0,0,0,4.879,0h0a33.786,33.786,0,0,0-2.28,4.263,1.391,1.391,0,0,0,.479,1.824,39.875,39.875,0,0,0,4.195,2.371H24.8a29.408,29.408,0,0,0-.274-4.559,6.474,6.474,0,0,1,5.768,4.263.661.661,0,0,1,0,.205h2.758C33.1,119.821,29.77,117.017,26.6,116.128Zm-16.345-11.9c-2.28,1.938-3.716,2.781-4.9,2.462s-2.052-1.8-3.009-4.559a.752.752,0,0,0,0-.342,23.867,23.867,0,0,1,4.172.661h0a25.9,25.9,0,0,1,3.944,1.619,1.186,1.186,0,0,0-.205.16Zm-1.345-3.875a6.429,6.429,0,0,1,6.566-2.85h.205l.137.137a6.5,6.5,0,0,1,.821,7.09,31.119,31.119,0,0,0-3.739-2.28,29.637,29.637,0,0,0-3.989-2.1ZM12.9,111.067c-.866-.889-.866-2.622-.3-5.471a.98.98,0,0,0,0-.319,23.049,23.049,0,0,1,3.374,2.6h0a23.048,23.048,0,0,1,2.6,3.374.98.98,0,0,0-.319,0C15.5,111.933,13.789,111.933,12.9,111.067Zm8.936,10.555c-2.758-.957-4.24-1.824-4.559-3.009s.524-2.69,2.462-4.9a1.185,1.185,0,0,0,.251-.228,25.9,25.9,0,0,1,1.619,3.944h0a23.869,23.869,0,0,1,.57,4.24.752.752,0,0,0-.342-.046Zm1.778-6.566a29.637,29.637,0,0,0-2.1-3.989,31.116,31.116,0,0,0-2.28-3.739,6.5,6.5,0,0,1,7.135.821l.137.137a.661.661,0,0,1,0,.205,6.429,6.429,0,0,1-2.9,6.566Z" transform="translate(-1 114.103)"/><path class="c" d="M8.956,108.422c.251-.616.524-1.163.73-1.8a1.3,1.3,0,0,0-.137-1,1.277,1.277,0,0,0-.821-.638c-.638-.137-1.254-.16-1.915-.251a4.989,4.989,0,0,0-.251-1.915,1.277,1.277,0,0,0-.638-.821,1.3,1.3,0,0,0-1-.137c-.638.205-1.185.479-1.8.729a14.931,14.931,0,0,0-1.185-1.5,1.163,1.163,0,0,0-.935-.41v7h.228a.616.616,0,0,0,.342,0h.3a.479.479,0,0,0,.319,0h.251a.821.821,0,0,0,.16.228,3.345,3.345,0,0,0,.251.228v.114h0s.114.205.228.251l.228.16a.935.935,0,0,0,0,.251.479.479,0,0,0,0,.319v.3a.616.616,0,0,0,0,.342v.228h7.569a1.163,1.163,0,0,0-.41-.935,14.933,14.933,0,0,0-1.5-.729Z" transform="translate(-1 126.528)"/><path class="d" d="M2.368,104.938h0a2.106,2.106,0,0,0-.205-.182.538.538,0,0,1-.182-.205H1v1.026H2.5a1.6,1.6,0,0,1,0-.274,1.026,1.026,0,0,1-.137-.365Z" transform="translate(-1 131.494)"/><path class="e" d="M3.493,100.011H3.31a.342.342,0,0,0-.228,0,.365.365,0,0,0-.205,0H2.695a1.345,1.345,0,0,0-.365,2.28,1.345,1.345,0,0,0,1.163-2.28Z" transform="translate(0.086 125.66)"/><path class="f" d="M6.392,101.89h0a.776.776,0,0,1-.137-.137.365.365,0,0,0-.16-.16.365.365,0,0,0-.16-.16A.776.776,0,0,1,5.8,101.3h0a1.366,1.366,0,1,0-1.5,2.28,1.346,1.346,0,1,0,2.1-1.687Z" transform="translate(2.431 127.041)"/><path class="g" d="M7.48,104.165a.3.3,0,0,0,0-.205s0-.114,0-.182h0a1.368,1.368,0,1,0,.251.957h0v-.182a.5.5,0,0,0-.251-.388Z" transform="translate(4.124 129.781)"/><path class="h" d="M26.946,61.156h-.114a1.139,1.139,0,0,0-.3,0h0a.707.707,0,0,0-.3,0h0C-7.249,59.765,2.667,111.195,6.429,129.638a1.664,1.664,0,0,0,1.277,1.254,1.664,1.664,0,0,0,1.755-.433C21.908,116.347,56.195,76.794,26.946,61.156ZM9.21,125.261c-.752-3.579-1.619-8.025-2.28-12.9a15.8,15.8,0,0,1,5.654.365h0a15.752,15.752,0,0,1,5.084,2.508C14.613,119.128,11.649,122.525,9.21,125.261ZM19.286,113.27a40.327,40.327,0,0,0-6.018-3.123,41.307,41.307,0,0,0-6.839-.41c-.274-2.12-.524-4.331-.707-6.543,3.055-.137,6.246-1.117,9.278,0h0c3.192.524,5.471,2.941,8.047,4.559C21.908,109.668,20.586,111.446,19.286,113.27ZM13.268,93.254a3.123,3.123,0,0,0-5.175.228c-1.482,1.892-1.185,4.787-1.185,7.067H6.132c0-4.172-1.619-13.678,3.693-13.519a6.52,6.52,0,0,1,5.882,4.947c.433,2.872-.843,5.768-1.436,8.526H13.61a16.437,16.437,0,0,0,.3-2.667,8.138,8.138,0,0,0-.638-4.582Zm-2.28,6.839a.684.684,0,0,0-.205.3H9.62a11.4,11.4,0,0,1,.365-4.9c.616-1.026,1.094-1.163,1.208,0a21.748,21.748,0,0,1,0,2.986,7.637,7.637,0,0,1-.182,1.231c-.023.319-.3.57-.023.433Zm10.327,3.4-.98-.547a.661.661,0,0,0,0-.365c.137.251,0,0,.137-.342a4.742,4.742,0,0,1,.456-1.163,18.535,18.535,0,0,1,1.459-2.553c.684-.957,1.026-.57,1.049.593s-1.482,3.237-2.166,4.423Zm2.941,1.847a6.632,6.632,0,0,1-.684-.388c1.14-1.983,2.85-4.331,2.508-6.839a3.1,3.1,0,0,0-4.354-2.781c-1.3.593-2.166,2.28-2.827,3.6a17.737,17.737,0,0,0-1.071,2.622,5.04,5.04,0,0,0-.616-.274c.866-2.713,1.208-5.836,3.032-8.093a6.452,6.452,0,0,1,7.569-1.345c4.673,2.417-1.6,10.031-3.6,13.541Zm7.774-12.88a5.654,5.654,0,0,0-3.784-3.442,9.6,9.6,0,0,0-8.686,1.117,7.5,7.5,0,0,0-1.185,1.049,6.839,6.839,0,0,0-.547-1.459,9.552,9.552,0,0,0-6.839-5.312A5.676,5.676,0,0,0,5.973,85.5C7.432,73.648,12.63,64.347,25.6,64.552,36.817,70.844,36.658,81.513,31.984,92.5Z" transform="translate(0.41 75.926)"/><path class="i" d="M84.183,100.315V100.2a.707.707,0,0,0,0-.3h0a1.14,1.14,0,0,0,0-.3c-15.616-29.34-55.192,4.947-69.3,17.417a1.847,1.847,0,0,0,.821,3.032C33.824,123.614,85.254,133.531,84.183,100.315ZM32.662,119.4c-4.879-.707-9.324-1.573-12.9-2.28,2.736-2.439,6.132-5.4,10.008-8.458a15.753,15.753,0,0,1,2.508,5.084h0A15.8,15.8,0,0,1,32.662,119.4Zm9.119,1.071c-2.28-.182-4.423-.433-6.543-.707a41.307,41.307,0,0,0-.365-6.748,39.258,39.258,0,0,0-3.009-6.041c1.71-1.3,3.488-2.622,5.312-3.9,1.664,2.576,4.081,4.856,4.559,8.047h0c1.208,3.1.228,6.292.091,9.347Zm.57-14.453a.661.661,0,0,0-.365,0l-.547-.98c1.185-.684,3.032-2.143,4.423-2.12s1.55.365.593,1.049a18.532,18.532,0,0,1-2.6,1.482,4.742,4.742,0,0,1-1.163.456c-.205.046-.547-.023-.3.114Zm1.117,2.439a17.735,17.735,0,0,0,2.462-1.071c1.208-.661,3.009-1.527,3.6-2.827A3.1,3.1,0,0,0,46.75,100.2c-2.28-.342-4.742,1.368-6.725,2.508a6.638,6.638,0,0,1-.388-.684c3.625-2.006,11.125-8.275,13.541-3.556a6.452,6.452,0,0,1-1.345,7.705c-2.28,1.824-5.38,2.28-8.093,3.032a5.039,5.039,0,0,0-.274-.752Zm1,11.626v-.775c2.28,0,5.175.3,7.067-1.185a3.123,3.123,0,0,0,.228-5.175,8.138,8.138,0,0,0-4.559-.638,16.437,16.437,0,0,0-2.667.3v-.661c2.758-.593,5.654-1.869,8.526-1.436a6.52,6.52,0,0,1,4.947,5.882c.228,5.357-9.37,3.67-13.541,3.739Zm.8-4.856a7.638,7.638,0,0,1,1.231-.182,21.752,21.752,0,0,1,2.986,0c1.163,0,1.026.593,0,1.185a10.965,10.965,0,0,1-4.9.388V115.5a.684.684,0,0,0,.3-.205c-.137.274.114,0,.388,0ZM59.517,120.4a5.677,5.677,0,0,0,1.094-5.015,9.552,9.552,0,0,0-5.312-6.839,6.839,6.839,0,0,0-1.5-.524,7.5,7.5,0,0,0,1.049-1.185A9.6,9.6,0,0,0,55.96,98.15a5.654,5.654,0,0,0-3.442-3.784c10.988-4.673,21.657-4.833,27.949,6.52.205,12.9-9.1,18.1-20.95,19.56Z" transform="translate(16.124 110.378)"/><path class="j" d="M11.017,126.2a1.71,1.71,0,0,0,1.733.479c17.85-5.973,67.32-23.116,49.72-51.293h0a.729.729,0,0,0-.228-.228h0a.729.729,0,0,0-.228-.228h0c-28.36-17.782-45.5,31.688-51.476,49.538A1.71,1.71,0,0,0,11.017,126.2Zm25.327-18.443a7.5,7.5,0,0,1,.957-.775,20.862,20.862,0,0,1,2.6-1.5c1.071-.479,1.185,0,.593,1.049s-2.85,2.075-4.058,2.758l-.547-.957a1.049,1.049,0,0,0,.16-.319C36.026,108.283,36.14,107.941,36.345,107.759Zm1.733,4.559c0-.228-.274-.433-.388-.684,1.983-1.14,4.559-2.28,5.54-4.559a3.123,3.123,0,0,0-2.394-4.559,8.23,8.23,0,0,0-4.24,1.733,12.835,12.835,0,0,0-2.143,1.573c-.16-.182-.274-.365-.41-.547,2.1-1.892,3.967-4.559,6.68-5.494a6.474,6.474,0,0,1,7.2,2.622c2.9,4.468-6.269,7.819-9.848,9.962ZM59.552,77.667c6.657,11.125,1.208,20.289-8.344,27.356a5.631,5.631,0,0,0-1.55-4.879,9.575,9.575,0,0,0-8.093-3.374,8.229,8.229,0,0,0-1.527.3,8.23,8.23,0,0,0,.3-1.527,9.575,9.575,0,0,0-3.374-8.093A5.631,5.631,0,0,0,32.2,85.965C39.308,76.413,48.473,70.964,59.552,77.667ZM34.817,89.293a6.474,6.474,0,0,1,2.622,7.2c-1.049,2.713-3.6,4.559-5.494,6.68l-.547-.433a12.835,12.835,0,0,0,1.573-2.143A8.23,8.23,0,0,0,34.7,96.36a3.123,3.123,0,0,0-4.559-2.28c-2.28.912-3.442,3.556-4.559,5.54-.251,0-.456-.274-.684-.388C27,95.562,30.349,86.4,34.817,89.293ZM29.209,101.17a1.049,1.049,0,0,0-.319.16l-.957-.547c.684-1.208,1.55-3.374,2.758-4.058s1.527-.479,1.049.593a20.859,20.859,0,0,1-1.5,2.6,7.5,7.5,0,0,1-.775.957c-.182.205-.524.319-.251.3Zm-5.973,0c2.736,1.413,5.973,2.143,8.025,4.673h0c2.53,2.052,3.26,5.289,4.559,8.025-2.006.935-4.058,1.824-6.018,2.644a39.984,39.984,0,0,0-3.739-5.608,39.989,39.989,0,0,0-5.471-3.6c.821-1.983,1.71-4.035,2.644-6.041Zm-3.648,8.481a15.525,15.525,0,0,1,4.719,3.146h0a15.525,15.525,0,0,1,3.146,4.719c-4.559,1.824-8.845,3.306-12.333,4.559,1.117-3.374,2.644-7.751,4.468-12.333Z" transform="translate(11.119 88.732)"/><path class="k" d="M25.1,100.152l-.228.114a1.413,1.413,0,0,0-.547,1.573,1.277,1.277,0,0,0,1.6,1.459H26.1a1.3,1.3,0,0,0,.912-.98.958.958,0,0,0,0-.274h0a1.5,1.5,0,0,0,0-.889,1.322,1.322,0,0,0-1.915-1Z" transform="translate(28.77 125.679)"/><path class="l" d="M19.154,89.286l-.137.205a1.436,1.436,0,0,0,.3,1.641,1.277,1.277,0,0,0,2.12.456.273.273,0,0,0,.16-.114,1.277,1.277,0,0,0,.274-1.3.547.547,0,0,0,0-.274h0a1.391,1.391,0,0,0-.5-.752,1.345,1.345,0,0,0-2.211.137Z" transform="translate(21.881 111.126)"/><path class="m" d="M9.614,84.291a1.277,1.277,0,0,0,2.052-.661.251.251,0,0,0,0-.182,1.208,1.208,0,0,0-.388-1.254.593.593,0,0,0-.205-.205h0a1.277,1.277,0,0,0-.8-.388A1.322,1.322,0,0,0,8.52,82.832s0,.182,0,.251a1.436,1.436,0,0,0,1.094,1.208Z" transform="translate(8.623 102.032)"/><path class="n" d="M6.759,80.558a1.5,1.5,0,0,0-.889,0h0a.958.958,0,0,0-.274,0,1.3,1.3,0,0,0-.98.912.5.5,0,0,0,0,.182,1.277,1.277,0,0,0,1.459,1.6A1.413,1.413,0,0,0,7.648,82.7v-.228a1.322,1.322,0,0,0-.889-1.915Z" transform="translate(3.568 100.705)"/><path class="o" d="M26.146,97.486a1.277,1.277,0,0,0-.388-.8h0a.592.592,0,0,0-.205-.205A1.208,1.208,0,0,0,24.3,96.1a.251.251,0,0,0-.182,0,1.277,1.277,0,0,0-.661,2.052,1.436,1.436,0,0,0,1.277,1.094h.251a1.322,1.322,0,0,0,1.163-1.755Z" transform="translate(27.359 120.616)"/><path class="p" d="M18.006,85.881h0a.547.547,0,0,0-.274,0,1.277,1.277,0,0,0-1.3.274.274.274,0,0,0-.114.16,1.277,1.277,0,0,0,.456,2.12,1.436,1.436,0,0,0,1.641.3l.205-.137a1.345,1.345,0,0,0,.205-2.143,1.391,1.391,0,0,0-.821-.57Z" transform="translate(18.105 107.51)"/><path class="q" d="M8.772,80.54H8.407a1.3,1.3,0,0,0-.661.182A1.368,1.368,0,0,0,7.131,83c.16,0,.274.274.41.388s0,0,.16,0h.182a.3.3,0,0,0,.251,0,.41.41,0,0,0,.3,0h.935a1.368,1.368,0,0,0,.616-2.28,1.5,1.5,0,0,0-.5-.5Z" transform="translate(6.342 100.768)"/><path class="r" d="M17.8,88.885v.182a.251.251,0,0,0,.114.182.8.8,0,0,0,.388.388.251.251,0,0,0,.182,0h.182a4.769,4.769,0,0,1,.524.182,1.368,1.368,0,0,0,1.641-1.641,1.436,1.436,0,0,0-.16-.684l-.137-.114h0l-.3-.251a1.436,1.436,0,0,0-.684-.16,1.368,1.368,0,0,0-1.641,1.641q-.053.139-.114.274Z" transform="translate(20.499 108.951)"/><path class="s" d="M27.218,99.177h0l-.114-.365a1.5,1.5,0,0,0-.5-.5,1.368,1.368,0,0,0-2.28.616.99.99,0,0,1-.114.547c-.114.205,0,0,0,.182v.205a.479.479,0,0,0,0,.274.41.41,0,0,0,.114.274l.114.182c.114.182,0,.114.114.16a1.355,1.355,0,0,1,.388.41,1.368,1.368,0,0,0,2.28-.615,1.3,1.3,0,0,0,.182-.661,2.143,2.143,0,0,0,0-.365A1.692,1.692,0,0,0,27.218,99.177Z" transform="translate(28.635 123.006)"/><path class="t" d="M46.946,97.266l-.137-.342A7.25,7.25,0,0,0,39.377,92.5a6.839,6.839,0,0,0-4.833,7.705.616.616,0,0,0,0,.342h0a.616.616,0,0,0,0,.342,6.976,6.976,0,0,0,8.23,4.195,7.249,7.249,0,0,0,4.331-7.455A1.778,1.778,0,0,0,46.946,97.266Zm-4.81,5.243c-1.824,1.163-3.989-1-4.9-2.6h0c0-1.847.775-4.81,2.941-4.719a4.787,4.787,0,0,1,4.149,2.736h0A4.719,4.719,0,0,1,42.135,102.509Z" transform="translate(41.803 116.026)"/><path class="u" d="M26.5,86.455h0a.524.524,0,0,0,.228.274,6.976,6.976,0,0,0,9.119-.342,7.3,7.3,0,0,0,0-8.663l-.228-.274-.274-.228a7.3,7.3,0,0,0-8.663-.114,6.976,6.976,0,0,0-.342,9.119A.524.524,0,0,0,26.5,86.455ZM28.551,79a4.765,4.765,0,0,1,4.947.319h0a4.765,4.765,0,0,1,.319,4.947c-1.026,1.915-3.989,1.14-5.562.182h0c-.729-1.459-1.619-4.423.3-5.449Z" transform="translate(29.467 94.625)"/><path class="v" d="M16.26,66.234l-.342-.137h-.365A7.3,7.3,0,0,0,8.1,70.269a6.976,6.976,0,0,0,4.263,8.047.615.615,0,0,0,.342,0h0a.616.616,0,0,0,.342.114A6.839,6.839,0,0,0,20.751,73.6a7.249,7.249,0,0,0-4.491-7.363Zm-2.918,9.6h0c-1.6-.912-3.762-3.078-2.6-4.9a4.719,4.719,0,0,1,4.445-2.28h.205A4.787,4.787,0,0,1,18.129,72.8C18.152,75.057,15.188,75.854,13.342,75.832Z" transform="translate(7.86 82.223)"/></g></svg>