<svg xmlns="http://www.w3.org/2000/svg" xmlns:xlink="http://www.w3.org/1999/xlink" width="237.215" height="237.147" viewBox="0 0 237.215 237.147"><defs><style>.a{fill:url(#a);}.b{fill:url(#b);}.c{fill:url(#c);}.d{fill:url(#d);}.e{fill:url(#e);}.f{fill:url(#f);}.g{fill:url(#g);}.h{fill:url(#h);}.i{fill:url(#i);}.j{fill:url(#j);}.k{fill:url(#k);}.l{fill:url(#l);}.m{fill:url(#m);}.n{fill:url(#n);}.o{fill:url(#o);}.p{fill:url(#p);}.q{fill:url(#q);}.r{fill:url(#r);}.s{fill:url(#s);}.t{fill:url(#t);}.u{fill:url(#u);}.v{fill:url(#v);}</style><linearGradient id="a" y1="0.5" x2="1" y2="0.5" gradientUnits="objectBoundingBox"><stop offset="0" stop-color="#7ac943"/><stop offset="0.33" stop-color="#1da8eb"/><stop offset="0.67" stop-color="#f11370"/><stop offset="1" stop-color="#fb8a00"/></linearGradient><linearGradient id="b" x1="-6.397" y1="6.906" x2="-5.395" y2="6.906" xlink:href="#a"/><linearGradient id="c" x1="-24.488" y1="23.517" x2="-23.427" y2="23.517" xlink:href="#a"/><linearGradient id="d" x1="-156.355" y1="207.34" x2="-155.355" y2="207.34" xlink:href="#a"/><linearGradient id="e" x1="-86.033" y1="80.749" x2="-84.957" y2="80.749" xlink:href="#a"/><linearGradient id="f" x1="-73.739" y1="74.315" x2="-72.784" y2="74.315" xlink:href="#a"/><linearGradient id="g" x1="-79.001" y1="80.965" x2="-77.994" y2="80.965" xlink:href="#a"/><linearGradient id="h" x1="-5.422" y1="2.026" x2="-4.415" y2="2.026" xlink:href="#a"/><linearGradient id="i" x1="-1.526" y1="5.913" x2="-0.523" y2="5.913" xlink:href="#a"/><linearGradient id="j" x1="-2.488" y1="2.989" x2="-1.484" y2="2.989" xlink:href="#a"/><linearGradient id="k" x1="-45.488" y1="67.784" x2="-44.461" y2="67.784" xlink:href="#a"/><linearGradient id="l" x1="-49.841" y1="50.082" x2="-48.843" y2="50.082" xlink:href="#a"/><linearGradient id="m" x1="-62.533" y1="44.027" x2="-61.504" y2="44.027" xlink:href="#a"/><linearGradient id="n" x1="-67.32" y1="45.964" x2="-66.276" y2="45.964" xlink:href="#a"/><linearGradient id="o" x1="-43.502" y1="63.001" x2="-42.488" y2="63.001" xlink:href="#a"/><linearGradient id="p" x1="-49.63" y1="50.363" x2="-48.632" y2="50.363" xlink:href="#a"/><linearGradient id="q" x1="-57.096" y1="41.897" x2="-56.112" y2="41.897" xlink:href="#a"/><linearGradient id="r" x1="-50.852" y1="51.312" x2="-49.772" y2="51.312" xlink:href="#a"/><linearGradient id="s" x1="-41.82" y1="57.759" x2="-40.781" y2="57.759" xlink:href="#a"/><linearGradient id="t" x1="-5.707" y1="15.512" x2="-4.712" y2="15.512" xlink:href="#a"/><linearGradient id="u" x1="-9.32" y1="9.827" x2="-8.318" y2="9.827" xlink:href="#a"/><linearGradient id="v" x1="-15.011" y1="6.315" x2="-13.996" y2="6.315" xlink:href="#a"/></defs><g transform="translate(0 0)"><path class="a" d="M506.741,61.666c5.768,14.8,8.754,30.208,14.226,45,1.163,3.192,4.56,10.556,8.914,11.673-1.254,4.377,3.465,10.943,5.654,13.542,10.077,12.151,21.932,22.433,31.917,34.836,12.4,9.94,22.8,21.8,34.836,31.917,2.6,2.28,9.12,6.839,13.542,5.654,1.117,4.423,8.481,7.751,11.672,8.914,14.8,5.472,30.208,8.458,45,14.226,15.708,2.28,30.55,7.523,46.1,10.168,3.351.593,11.4,1.413,14.568-1.869v-16.8c-2.28-6.042-6.7-14.7-11.034-24.189a18.42,18.42,0,0,0,10.989,4.924h0v-2.85a5.537,5.537,0,0,1-1.5-.319,24.622,24.622,0,0,1-13.132-9.917c-1.527-3.693-2.987-7.432-4.217-11.148a24.12,24.12,0,0,0,18.854,9.393h0v-2.645a16.8,16.8,0,0,1-3.26-.638c-9.119-2.781-15.457-8.162-18.4-15.959a47.668,47.668,0,0,1-1.254-12.607c3.306,7.5,15.731,12.174,22.8,11.946h0v-2.759h0c-5.7-.205-13.474-2.622-17.509-6.839a12.54,12.54,0,0,1-3.306-10.875,17.076,17.076,0,0,1,7.865-7.82,23.392,23.392,0,0,1,2.28-.684,5.268,5.268,0,0,0-.753,2.964,12.243,12.243,0,0,0,11.536,10.282h0v-2.736a3.583,3.583,0,0,1-.684,0c-2.872-.707-10.442-4.56-7.523-8.937a6.84,6.84,0,0,1,3.328-2.622,43.779,43.779,0,0,1,4.879-.3V130.95a26.7,26.7,0,0,0-3.534.16h0a135.088,135.088,0,0,1-17.4-18.854,43.323,43.323,0,0,0,5.836-1.755,91.972,91.972,0,0,0,14.226,14.34,1.459,1.459,0,0,0,.935.388v-3.283h0a84.946,84.946,0,0,1-12.608-12.676c1.87-.866,3.648-1.847,5.38-2.85,2.28,2.28,4.013,5.266,6.292,7.637a1.3,1.3,0,0,0,.935.388V111h0c-1.687-1.983-3.146-4.24-4.947-6.11a38.94,38.94,0,0,0,4.879-4.149h0V96.388a1.755,1.755,0,0,0-1.277.524,38.759,38.759,0,0,1-14.021,9.666c-3.967,1.55-9.119,3.443-13.519,2.006-4.56-.889-8.048-5.175-10.715-8.5a38.756,38.756,0,0,1-7.319-15.366,1.733,1.733,0,0,0-.843-1.117,1.8,1.8,0,0,0-1.368-.182,38.279,38.279,0,0,1-16.985,1.345c-4.195-.638-9.712-1.619-12.7-5.016-3.4-2.987-4.377-8.5-5.016-12.7a38.28,38.28,0,0,1,1.345-16.985,1.8,1.8,0,0,0-.182-1.368,1.733,1.733,0,0,0-1.117-.844,38.76,38.76,0,0,1-15.366-7.318c-3.328-2.667-7.614-6.27-8.5-10.715-1.436-4.286.456-9.552,2.006-13.519a38.755,38.755,0,0,1,9.667-14.021A1.755,1.755,0,0,0,637.739,1h-4.354a38.962,38.962,0,0,0-4.172,4.947c-1.87-1.8-4.126-3.26-6.11-4.947h-3.42a1.3,1.3,0,0,0,.388.935c2.28,2.28,5.358,4.012,7.637,6.292-1,1.733-1.983,3.511-2.85,5.38A84.945,84.945,0,0,1,612.3,1h-3.123a1.458,1.458,0,0,0,.387.935A91.962,91.962,0,0,0,623.7,16.161,43.3,43.3,0,0,0,621.94,22,135.063,135.063,0,0,1,603.177,4.6h0c0-1.186.159-2.28.159-3.534h-3.625a43.679,43.679,0,0,1-.3,4.879,6.837,6.837,0,0,1-2.622,3.329c-4.332,2.918-8.23-4.56-8.937-7.523a3.547,3.547,0,0,1,0-.684h-2.918a12.242,12.242,0,0,0,10.282,11.4,5.267,5.267,0,0,0,2.964-.752,23.455,23.455,0,0,1-.684,2.28,17.077,17.077,0,0,1-7.82,7.865,12.539,12.539,0,0,1-10.875-3.306c-4.195-4.035-6.612-11.809-6.84-17.509h-2.69c-.228,7.181,4.56,19.606,11.946,22.912A47.673,47.673,0,0,1,568.615,22.7c-7.865-2.941-13.246-9.347-15.958-18.4A16.809,16.809,0,0,1,551.949,1H549.3A24.121,24.121,0,0,0,558.7,19.854c-3.717-1.231-7.455-2.69-11.149-4.218A24.622,24.622,0,0,1,537.632,2.5a5.546,5.546,0,0,1-.319-1.5h-2.85a18.421,18.421,0,0,0,4.879,11.034C529.858,7.7,521.1,3.3,515.153,1H498.4c-3.283,3.169-2.462,11.217-1.869,14.568C499.217,31.116,504.347,45.958,506.741,61.666ZM503.3,33.282l-.889-3.967a13.268,13.268,0,0,0,5.449.684c7.41-.274,11.855-5.95,19.378-4.149.98,1.71,1.938,3.465,2.964,5.152a15.594,15.594,0,0,0-7.592,1.436c-3.078,1.3-17.144,8.754-19.014,1.413a1.917,1.917,0,0,0-.3-.57Zm2.576,10.4c-.456-1.664-.889-3.4-1.345-5.2a16.78,16.78,0,0,0,6.84.866c7.432-.365,13.154-7.113,20.678-5.335a58.018,58.018,0,0,0,3.488,4.924,19.4,19.4,0,0,0-8.39,2.143c-5.813,2.759-15.5,9.188-21.271,2.6Zm2.28,8.8c-.388-1.459-.8-3.055-1.231-4.742a21.248,21.248,0,0,0,9.393,1.117c8.412-.41,12.972-8.641,21.75-6.839a27.35,27.35,0,0,0,5.585,4.286,19.173,19.173,0,0,0-8.686,1.5,59.1,59.1,0,0,0-9.12,5.882c-3.967,2.417-14.591,4.468-17.646-1.208Zm40.74-1.961c-5.38,5.631-10.441,6.383-18.808,6.042-1.163,0-2.439-.16-3.739-.16a34.927,34.927,0,0,0,3.169-2.006c7.068-4.56,11.809-6.361,19.287-4.195v.182c0,.068.091.114.137.137ZM510.137,60.754h0c-.137-.821-.433-2.143-.821-3.739a18.237,18.237,0,0,0,7.341,1.869l-.41.251h.479a17.846,17.846,0,0,0-5.4,5.289c-.41-1.619-.821-2.9-1.094-3.67Zm2.28,8.139c-.205-6.475,10.031-10.008,14.773-9.8a57.661,57.661,0,0,0,10.829.524,18.743,18.743,0,0,0,8.276-3.032,27.837,27.837,0,0,0-2.394,6.5c-6.84,5.859-14.842,1.026-22.342,4.879a20.654,20.654,0,0,0-7.569,5.654c-.547-1.687-1-3.283-1.391-4.719ZM598.3,54.713a17.122,17.122,0,0,1,10.692,2.9c.638.547,1.186,1.071,1.733,1.641a5.152,5.152,0,0,0-2.941.821,12.2,12.2,0,0,0-3.192,15.024h0A12.243,12.243,0,0,0,619.2,79.836a5.107,5.107,0,0,0,2.28-2.143c.205.752.388,1.5.547,2.28A17.1,17.1,0,0,1,619.2,90.688a12.54,12.54,0,0,1-11.08,2.576c-5.654-1.391-11.65-6.839-14.636-11.741h0c-2.667-5.016-4.56-12.972-2.85-18.558a12.447,12.447,0,0,1,7.843-8.253Zm-9.233-15.161a50.821,50.821,0,0,1-1.254-6.27c1.641,1.664,3.283,3.329,4.993,4.879a.478.478,0,0,1,.16.342.5.5,0,0,1,0,.388c-.729,2.28-1.3,4.56-1.915,6.725a54.021,54.021,0,0,1-1.8-6.064ZM614.8,63.7a40.555,40.555,0,0,1,2.713,4.058,43.369,43.369,0,0,1,2.28,4.377,6.7,6.7,0,0,1-.661,4.1c-2.28,4.7-9.439,0-11.4-2.052a3.127,3.127,0,0,1-.433-.524,3.913,3.913,0,0,1-.251-.661c-.82-2.85-1.231-11.4,3.99-10.966A6.564,6.564,0,0,1,614.8,63.7Zm39.464,51.045a12.242,12.242,0,0,0,4.742,14.614h0a12.2,12.2,0,0,0,15.024-3.192,5.153,5.153,0,0,0,.821-2.941c.57.547,1.094,1.094,1.641,1.733a17.12,17.12,0,0,1,2.9,10.692,12.448,12.448,0,0,1-8.3,7.774c-5.586,1.619-13.542-.182-18.558-2.85h0l-.912-.616a31.912,31.912,0,0,1-8.3-8.481h0a21.938,21.938,0,0,1-1.391-2.576c-.137-.274-.274-.57-.388-.866a12.849,12.849,0,0,1-.707-2.12,12.538,12.538,0,0,1,2.576-11.08A17.1,17.1,0,0,1,654.131,112c.821.16,1.573.342,2.28.547A5.107,5.107,0,0,0,654.268,114.74Zm3.625.251a6.839,6.839,0,0,1,4.195-.616,43.285,43.285,0,0,1,4.377,2.28,40.559,40.559,0,0,1,4.058,2.713,6.565,6.565,0,0,1,1.573,3.921c.365,5.221-8.116,4.81-10.966,3.99a3.915,3.915,0,0,1-.661-.251,3.128,3.128,0,0,1-.524-.433C657.71,124.5,653.1,117.271,657.893,114.991ZM603.177,130.95a1.436,1.436,0,0,0-1.3-.342c-16.369,3.6-29.637-7.3-43.317-13.405,7.341,2.28,14.728,4.56,22.251,6.156s18.58,2.28,25.078-2.28a35.38,35.38,0,0,0,7.067,7.067c-4.719,6.612-3.9,17.76-2.28,25.078s3.921,14.91,6.156,22.251c-6.11-13.679-17.008-26.925-13.405-43.317a1.437,1.437,0,0,0-.251-1.208Zm-4.788,5.038c-1.87,7.569-5.859,10.738-13.292,14.614-1.049.524-2.28,1.094-3.306,1.733.639-1.14,1.231-2.28,1.733-3.306,3.875-7.432,7.045-11.4,14.613-13.291v.182ZM573.927,92.9h0A24.189,24.189,0,0,0,591.5,104.527c-3.83.775-7.8,1.391-11.787,1.915a24.622,24.622,0,0,1-15.138-6.406,6.262,6.262,0,0,1-1.026-1.163,5.214,5.214,0,0,1-.479-1.459A24.419,24.419,0,0,1,565.1,81.09c2.44-3.169,4.947-6.315,7.523-9.119a24.236,24.236,0,0,0,1.3,20.929Zm25.739,13.679a31.5,31.5,0,0,0,1.231,4.309c-11.946,7-27.152,3.329-41.174,1.231,12.471-1.14,27.495-2.211,39.943-5.54Zm2.074,6.839a33.807,33.807,0,0,0,2.736,5.358c-11.6,8.23-31.53.98-46.828-4.354,14.728,2.075,31.029,6.361,44.092-.958Zm23.528-4.56a55.518,55.518,0,0,0,10.236,8.025,36.11,36.11,0,0,0-3.67,5.882,31.575,31.575,0,0,1-20.519-20.518,36.1,36.1,0,0,0,5.882-3.67A55.529,55.529,0,0,0,625.268,108.858ZM623.7,101.54c2.28.593,4.56,1.231,6.839,1.71a1.436,1.436,0,0,1,.524.524c.479,2.28,1.118,4.56,1.71,6.839a50.492,50.492,0,0,1-9.074-9.074ZM651.3,142.9h0c6.11,3.785,19.2,5.95,25.785,1.117a47.737,47.737,0,0,1-7.364,10.3c-6.5,5.312-14.728,6.839-23.938,4.56a16.66,16.66,0,0,1-3.169-1.049,17.264,17.264,0,0,1-2.485-2.28c-6.452-6.84-9.3-14.773-7.933-23.072a47.55,47.55,0,0,1,5.175-11.376c-.935,8.139,7.5,18.4,13.816,21.8Zm19.128,16.278a37.56,37.56,0,0,0,3.146,3.169c-6.84,12.037-21.864,16.46-35.041,21.636,10.236-7.25,22.639-15.685,31.781-24.8Zm-17.3,9.849a24.417,24.417,0,0,1-16.323,2.029,5.221,5.221,0,0,1-1.459-.479,6.246,6.246,0,0,1-1.163-1.026,24.62,24.62,0,0,1-6.406-15.138c.524-3.99,1.14-7.957,1.915-11.787a6.969,6.969,0,0,0,.251,1.345q.274,1.3.684,2.6a25.422,25.422,0,0,0,.889,2.394,23.12,23.12,0,0,0,9.8,11.24h0a24.235,24.235,0,0,0,21.02,1.3c-3.009,2.576-6.156,5.084-9.325,7.523Zm-35.793-52.117a35.175,35.175,0,0,0,13.473,8.321,61.818,61.818,0,0,0-2.553,6.657,32.533,32.533,0,0,1-26.013-26.013,61.756,61.756,0,0,0,6.657-2.28,35.176,35.176,0,0,0,8.321,13.314Zm-1.915,12.744a33.826,33.826,0,0,0,5.357,2.736c-7.318,13.063-3.032,29.364-1,44.092-5.449-15.3-12.7-35.223-4.468-46.828Zm7.934,3.693a31.474,31.474,0,0,0,4.309,1.117c-3.329,12.516-4.4,27.472-5.54,40.056-2.211-13.93-5.882-29.2,1.117-41.174Zm3.465,29.911a18.65,18.65,0,0,0,7.068,9.8h0a18.535,18.535,0,0,0,12.037,1.231c-8.5,6.042-16.643,11.4-21.658,15.434.912-6.338,1.459-16.1,2.44-26.469Zm48.857.821a32.522,32.522,0,0,0,5.015,3.351c-5.95,12.927-26.81,16.6-42.724,19.629,13.7-5.677,29.957-10.1,37.594-22.981Zm-13.223,19.036c7.227-2.28,17.281-7.2,20.655-14.614a33.955,33.955,0,0,0,4.719,1.641,36.144,36.144,0,0,0,4.924.957c-.8,8.071,5.494,17.3,10.578,22.958s10.852,10.966,16.46,16.209c-12.129-8.755-28.2-14.819-33.263-30.8a1.345,1.345,0,0,0-2.28-.593c-12.357,11.4-29.319,8.5-44.206,10.031C647.542,187.17,655.088,185.483,662.452,183.112Zm32.989-11.787a33.485,33.485,0,0,0,6.018-.3c.183,14.956,12.038,26.925,21.18,38.757-12.311-10.67-28.543-24.28-27.221-38.461Zm-6.839-3.785a32.214,32.214,0,0,1-16.323-10.328,58.475,58.475,0,0,0,4.56-5.38,34.334,34.334,0,0,0,29.752,7.957,60.911,60.911,0,0,0,1.276,6.976,32.26,32.26,0,0,1-19.356.775Zm18.763-20.952h-2.28v-.182a108.073,108.073,0,0,1-7.752-8.093,1.481,1.481,0,0,0-.616-.342,1.23,1.23,0,0,0-.706,0,109.206,109.206,0,0,1-10.738,3.123h-.205c-.684-.342-1.391-.707-2.074-1.094a20.527,20.527,0,0,0,.638-5.517c4.856-1.094,9.575-3.716,14.271-5.266a1.778,1.778,0,0,1,1.14,0,2.119,2.119,0,0,1,.98.57c3.283,3.716,6.065,8.344,9.735,11.718a20.212,20.212,0,0,0-2.485,5.084Zm-6.429-.456a50.842,50.842,0,0,1-6.27-1.254,54.1,54.1,0,0,1-6.064-2.029c2.28-.616,4.559-1.186,6.839-1.915a.5.5,0,0,1,.388,0,.478.478,0,0,1,.342.16,50.613,50.613,0,0,0,4.674,5.038Zm-7.2,2.28a57.358,57.358,0,0,0,12.881,1.847,36.276,36.276,0,0,0-.228,6.839,31.689,31.689,0,0,1-27.973-7.5,34.422,34.422,0,0,0,3.26-6.11,55.445,55.445,0,0,0,11.969,4.856Zm-48.925-38.666c-1.55-5.175-1.71-11.4-2.85-16.62A1.117,1.117,0,0,0,641,92.17c-5.129-1.14-11.4-1.3-16.62-2.85a20.531,20.531,0,0,0,1.322-6.156c6.839,1.208,13.884,2.781,20.906,3.511.16,0,.3.16.456.388s.365.3.387.456c.729,7.022,2.28,13.953,3.511,20.906A20.516,20.516,0,0,0,644.807,109.747Zm-6.543-15.434a2.029,2.029,0,0,1,1.55,1.55c1,4.833,1.094,10.236,2.576,15a20.129,20.129,0,0,0-4.56,3.306l-2.006-1.254v-.228a106.043,106.043,0,0,1-2.667-10.852,1.436,1.436,0,0,0-.98-.98,106.053,106.053,0,0,1-10.761-2.667h-.228c-.433-.661-.843-1.322-1.231-2.006a20.756,20.756,0,0,0,3.283-4.56C628.027,93.219,633.43,93.31,638.263,94.313Zm-47.033-11.4h0c3.4,6.315,13.679,14.75,21.8,13.861A46.7,46.7,0,0,1,601.49,102c-8.3,1.368-16.141-1.482-23.072-7.934a17.3,17.3,0,0,1-2.28-2.485,16.654,16.654,0,0,1-1.049-3.169c-2.143-9.119-.661-17.441,4.559-23.938a47.735,47.735,0,0,1,10.3-7.364C585.28,63.718,587.446,76.8,591.231,82.914ZM550.194,95.7c5.175-13.177,9.6-28.179,21.635-35.041A37.466,37.466,0,0,0,575,63.809c-9.165,9.142-17.6,21.544-24.85,31.895Zm-3.009.524c3.032-15.959,6.7-36.774,19.629-42.724a32.542,32.542,0,0,0,3.283,5.061C557.17,66.2,552.747,82.458,547.139,96.228Zm12.676-7.934a18.536,18.536,0,0,0,1.231,12.037h0a18.648,18.648,0,0,0,9.8,7.067c-10.373.98-20.085,1.527-26.469,2.531C548.461,104.937,553.8,96.752,559.86,88.294Zm-43.43-5.472c-.5-1.778-.98-3.488-1.436-5.175,1.71-8.572,13.314-7.843,19.72-8.344a19.423,19.423,0,0,0,8.322-2.28,52.68,52.68,0,0,0-.547,6.019c-5.631,5.289-13.952,2.28-20.518,5.7a16.985,16.985,0,0,0-5.563,4.081Zm2.736,9.119c-.387-1.277-.8-2.6-1.208-3.876a2.058,2.058,0,0,0,0-.638c-2.029-7.273,13.861-7.865,17.167-8.276a15.684,15.684,0,0,0,7.3-2.553v5.95c-5.608,5.312-12.311,2.6-18.854,6.087a13.473,13.473,0,0,0-4.423,3.192Zm1.664,4.833a1.48,1.48,0,0,0,0-.775c-1.915-5.973,11.285-6.338,14.09-6.839a15.958,15.958,0,0,0,7.569-3.169c0,2.28,0,4.7,0,6.976-2.28,3.534-15.959,2.28-20.518,6.429a15.344,15.344,0,0,1-1.163-2.645Zm4.833,11.1a55.713,55.713,0,0,1-2.485-5.312c.661-3.876,11.4-3.967,13.406-4.24a15.708,15.708,0,0,0,5.54-1.368,32.443,32.443,0,0,1-1.87,7.729c-2.873,3.556-8.846.638-12.835,2.28a6.976,6.976,0,0,0-1.755.912Zm1.368,2.28c.912-1.71,7.934-1,8.64-.98a14.436,14.436,0,0,0,2.508-.228,23.689,23.689,0,0,1-5.677,6.041c-1.937-.3-3.784-2.029-5.585-4.833ZM535.6,125c-1.527-2.941-2.1-5.426-1.322-7.136a23.483,23.483,0,0,1,7.934-1.892A12.831,12.831,0,0,0,540.755,118c-.433.638-3.328,7.067-5.266,7Zm4.56,7.136c-1.277-1.687-2.394-3.283-3.329-4.81a6.225,6.225,0,0,0,1.756-1c3.306-2.713,3.784-9.325,8.3-10.031a32.164,32.164,0,0,1,7.637,2.28,15.964,15.964,0,0,0-3.99,4.1c-1.3,1.664-6.634,10.829-10.419,9.461Zm4.56,5.312a1.644,1.644,0,0,0-.661-.41,26.874,26.874,0,0,1-1.87-2.28c5.859-1.961,11.7-14.454,15.959-14.614,2.029,1.026,4.035,2.28,6.064,3.4a15.618,15.618,0,0,0-6.52,5.13c-1.778,2.28-8.686,13.405-12.9,8.777Zm5.973,6.839a1.711,1.711,0,0,0-.524-.342l-2.759-2.987a13.381,13.381,0,0,0,5.061-2.143c6.27-3.921,7.3-11.08,14.7-13.291,1.687,1,3.42,2.052,5.13,3.009a15.687,15.687,0,0,0-5.859,5.016c-2.029,2.6-10.4,16.073-15.708,10.67Zm3.146,3.557a17.007,17.007,0,0,0,6.315-2.667c6.27-4.058,7.843-12.744,15.252-14.978a51.446,51.446,0,0,0,5.472,2.531,19.763,19.763,0,0,0-6.2,6.041c-3.625,5.289-8.8,15.708-17.076,12.9Zm6.839,6.839a20.633,20.633,0,0,0,8.687-3.716c7.09-4.56,6.839-13.975,15.366-16.916a27.923,27.923,0,0,0,6.976.935,18.877,18.877,0,0,0-6.839,5.654,59.091,59.091,0,0,0-4.948,9.644c-2.28,4.195-10.373,11.4-15.959,7.911a40.206,40.206,0,0,0-3.328-3.648Zm12.151,12.22c-1.208-1.117-2.279-2.029-2.827-2.576h0c-.547-.638-1.459-1.619-2.576-2.827a18.24,18.24,0,0,0,7.273-2.052l-.228.433.433-.228a18.243,18.243,0,0,0-2.12,7.113Zm3.283,3.283c-3.374-5.494,3.716-13.679,7.911-15.959a59.111,59.111,0,0,0,9.6-5.038,18.878,18.878,0,0,0,5.654-6.839,27.907,27.907,0,0,0,.935,6.976c-2.941,8.458-12.356,8.276-16.916,15.366a20.629,20.629,0,0,0-3.716,8.686c-1.231-1.117-2.417-2.257-3.511-3.329Zm6.406,6.361c-2.8-8.276,7.615-13.451,12.9-17.076a19.768,19.768,0,0,0,6.042-6.2A51.454,51.454,0,0,0,604,158.741c-2.28,7.409-10.921,8.982-14.979,15.252a17.005,17.005,0,0,0-2.667,6.315Zm10.715,10.191-2.987-2.759a1.7,1.7,0,0,0-.342-.524c-5.4-5.289,8.07-13.679,10.738-15.754a15.681,15.681,0,0,0,5.016-5.859c.958,1.71,2.006,3.443,3.01,5.13-2.28,7.409-9.37,8.435-13.292,14.7a13.386,13.386,0,0,0-2.143,4.97Zm3.853,3.351a1.844,1.844,0,0,0-.387-.661c-4.559-4.218,6.589-11.125,8.823-12.9a15.613,15.613,0,0,0,4.97-6.5c1.208,2.029,2.28,4.035,3.4,6.064-.159,4.172-12.653,10.008-14.613,15.959A22.908,22.908,0,0,0,597.09,190Zm10.715,5.586a6.228,6.228,0,0,0-1,1.755c-1.527-.935-3.123-2.052-4.81-3.329-1.368-3.693,7.8-9.119,9.484-10.373a15.961,15.961,0,0,0,4.1-3.99,32.188,32.188,0,0,1,2.28,7.637c-.73,4.423-7.341,4.9-10.123,8.207Zm8.458,4.377c-1.71.775-4.2.205-7.136-1.322,0-1.938,6.36-4.833,7-5.152a12.855,12.855,0,0,0,2.029-1.459,23.481,23.481,0,0,1-1.892,7.843Zm7.706,7.25c-2.8-1.8-4.56-3.648-4.719-5.517a23.679,23.679,0,0,1,5.927-5.631,14.422,14.422,0,0,0-.228,2.508c.023.684.729,7.637-.98,8.549Zm7.592,3.853a55.716,55.716,0,0,1-5.312-2.485,6.974,6.974,0,0,0,1.026-1.755c1.528-3.99-1.39-9.963,2.166-12.835a32.448,32.448,0,0,1,7.728-1.869,15.717,15.717,0,0,0-1.367,5.54c-.274,2.006-.365,12.653-4.241,13.314Zm6.68,2.28a1.482,1.482,0,0,0-.775,0c-.912-.319-1.847-.638-2.713-.98,4.081-4.56,2.9-18.239,6.429-20.518h6.976a15.956,15.956,0,0,0-3.169,7.409c-.411,2.69-.775,15.959-6.749,13.975Zm8.572,2.9a2.051,2.051,0,0,0-.638,0l-3.876-1.208a13.477,13.477,0,0,0,3.306-4.4c3.488-6.543.775-13.246,6.087-18.854h5.95a15.686,15.686,0,0,0-2.553,7.3c-.41,3.192-1,19.082-8.276,17.053Zm4.56,1.5a16.99,16.99,0,0,0,4.149-5.472c3.4-6.634.41-14.956,5.7-20.518a52.7,52.7,0,0,0,6.019-.547,19.429,19.429,0,0,0-2.508,8.048c-.5,6.406.228,18.011-8.344,19.72Zm9.119,2.508a20.656,20.656,0,0,0,5.654-7.569c3.853-7.5-.98-15.571,4.879-22.342a27.857,27.857,0,0,0,6.5-2.667,18.742,18.742,0,0,0-3.032,8.276,57.645,57.645,0,0,0,.524,10.829c.205,4.742-3.329,14.978-9.8,14.773Zm12.9,3.693h0c-.775-.274-2.052-.684-3.648-1.163a17.854,17.854,0,0,0,5.289-5.4,3.334,3.334,0,0,0,0,.479l.251-.41a18.24,18.24,0,0,0,1.869,7.341c-1.6-.456-2.918-.821-3.739-.958Zm4.172-20.131c-.342-8.367.41-13.428,6.041-18.809h.319c2.28,7.478.3,12.22-4.2,19.287-.661.98-1.345,2.029-2.006,3.169C677.727,206.435,677.659,205.158,677.568,203.9Zm4.08,21.932c-5.677-3.055-3.625-13.679-1.094-17.691a59.079,59.079,0,0,0,5.882-9.119,19.176,19.176,0,0,0,1.5-8.686,27.362,27.362,0,0,0,4.286,5.586c1.687,8.777-6.543,13.337-6.839,21.749a21.245,21.245,0,0,0,1.117,9.393Zm8.8,2.28c-6.589-5.768-.159-15.457,2.6-21.248a19.4,19.4,0,0,0,2.143-8.39,58.073,58.073,0,0,0,4.924,3.488c1.779,7.523-4.97,13.246-5.334,20.678a16.782,16.782,0,0,0,.866,6.839c-1.8-.342-3.556-.775-5.2-1.231Zm10.4,2.576a1.917,1.917,0,0,0-.57-.3c-7.341-1.869,0-15.959,1.413-19.014a15.594,15.594,0,0,0,1.436-7.592c1.687,1.026,3.443,1.983,5.153,2.964,1.8,7.523-3.876,11.969-4.149,19.378a13.261,13.261,0,0,0,.684,5.449Zm8.96,1.869a1.392,1.392,0,0,0-.661-.365c-6.133-1.345.137-12.949,1.185-15.594a15.432,15.432,0,0,0,1.049-8.139c2.075,1.163,4.081,2.28,6,3.557,1.938,3.716-5.95,15-4.719,21.066a15.284,15.284,0,0,1-2.85-.388Zm19.264-8.777a23.273,23.273,0,0,1,2.28,7.8c-1.071,1.55-3.511,2.28-6.839,2.439-1-1.641,3.1-7.364,3.465-7.957a13.314,13.314,0,0,0,1.094-2.143Zm-2.645-3.944c1.641,4.263-3.853,7.979-4.56,12.2a6.074,6.074,0,0,0,0,2.029,57.186,57.186,0,0,1-5.836-.5c-3.009-2.485,2.28-11.764,3.032-13.679a15.383,15.383,0,0,0,1.573-5.494,32.229,32.229,0,0,1,5.791,5.586Zm-2.759-13.155c-8.846-11.08-19.606-22.411-19.538-36.249a32.811,32.811,0,0,0,4.309-1.208c3.351,12.63,9.917,26.15,15.229,37.594ZM711.013,139.2c-3.921-3.716-7.227-9.119-10.784-12.972a1.049,1.049,0,0,0-.593-.388,1.072,1.072,0,0,0-.707,0c-5.015,1.6-10.555,4.56-15.822,5.859a20.519,20.519,0,0,0-1.938-6c6.634-2.439,13.406-4.56,19.88-7.409h.57c.25,0,.479,0,.57.182,4.149,5.722,8.982,10.943,13.5,16.346a21.015,21.015,0,0,0-4.674,4.514Zm-12.859-29.638h0a15.526,15.526,0,0,0,10.9,2.918h0a175.552,175.552,0,0,0,17.008,18.831,48.45,48.45,0,0,0-7.113,1.778l-.182.16a.456.456,0,0,0-.228,0l-.547.319c-4.947-5.95-10.67-11.559-14.591-18.239a1.322,1.322,0,0,0-.821-.616,1.3,1.3,0,0,0-1,0c-6.839,3.853-14.5,5.836-21.75,8.527l-.319-.57a.617.617,0,0,0-.182-.16s0-.137,0-.205a46.184,46.184,0,0,0-5.243-5.107,179.4,179.4,0,0,0,24.075-7.5Zm-14.91-22.342h0a37.163,37.163,0,0,0,2.28,6.087c-2.508.73-4.879,1.938-7.341,2.8h0c-.479-2.553-.615-5.221-1.231-7.751a35.861,35.861,0,0,0,6.292-1Zm-9.119,1.322c.843,3.123.843,6.566,1.641,9.758a1.208,1.208,0,0,0,.616.8,1.231,1.231,0,0,0,1.026.137c3.146-.889,6.133-2.622,9.256-3.465.98,1.733,2.052,3.465,3.237,5.152a85.1,85.1,0,0,1-17.258,4.56h0a87.41,87.41,0,0,1-4.56-17.281,27.438,27.438,0,0,0,6.065.479Zm-8.823-.57a90.927,90.927,0,0,0,5.152,19.515,1.367,1.367,0,0,0,.616.821,1.527,1.527,0,0,0,1.026.137,92.539,92.539,0,0,0,19.47-5.312,44.9,44.9,0,0,0,4.172,4.56,138.459,138.459,0,0,1-24.485,7.637h0c-.958-.684-1.961-1.3-2.987-1.892s-2.052-1.14-3.123-1.641h0a135.8,135.8,0,0,1-5.631-25.078,46.45,46.45,0,0,0,5.814,1.391Zm-16.78-10.487a15.616,15.616,0,0,0,7.957,7.957h0a175.913,175.913,0,0,0,5.335,24.987,46.408,46.408,0,0,0-7.067-2.006h-.228a.41.41,0,0,0-.205,0h-.661c-1.3-7.637-3.465-15.343-3.511-23.117a1.322,1.322,0,0,0-1.323-1.322c-7.774,0-15.48-2.28-23.117-3.511v-.661a.416.416,0,0,0,0-.205s0-.16,0-.228a46.465,46.465,0,0,0-2.006-7.067,175.9,175.9,0,0,0,24.8,5.335Zm-1.8-26.765h0a35.862,35.862,0,0,0-1.163,6.361c-2.531-.616-5.2-.752-7.751-1.231h0c.866-2.462,2.074-4.833,2.8-7.341a37.187,37.187,0,0,0,6.133,2.348Zm-8.526-3.42c-.843,3.123-2.576,6.11-3.465,9.279a1.186,1.186,0,0,0,.137,1,1.208,1.208,0,0,0,.8.616c3.192.8,6.634.8,9.758,1.641a54.991,54.991,0,0,0,.228,6.087,87.433,87.433,0,0,1-17.281-4.56h0a85.116,85.116,0,0,1,4.7-17.053c1.687,1.072,3.42,2.143,5.152,3.123Zm-11.809-9.119a44.876,44.876,0,0,0,4.446,4.172,93.929,93.929,0,0,0-5.312,19.47,1.529,1.529,0,0,0,.137,1.026,1.368,1.368,0,0,0,.821.616,90.945,90.945,0,0,0,19.515,5.152,46.426,46.426,0,0,0,1.391,5.928A135.782,135.782,0,0,1,622.3,68.916h0c-.5-1.072-1.049-2.12-1.642-3.123s-1.208-2.006-1.892-2.987v-.114a138.437,138.437,0,0,1,7.637-24.326Zm-25.716-22.8a.459.459,0,0,0,0-.228s.114,0,.16-.182a48.458,48.458,0,0,0,1.778-7.113,175.506,175.506,0,0,0,18.808,17.19h0a15.526,15.526,0,0,0,2.918,10.9h0a179.421,179.421,0,0,0-7.8,24.143,46.19,46.19,0,0,0-5.107-5.244h-.206a.608.608,0,0,0-.159-.182l-.57-.319c2.69-7.25,4.56-15,8.526-21.749a1.3,1.3,0,0,0,0-1,1.322,1.322,0,0,0-.615-.821c-6.68-3.921-12.288-9.644-18.239-14.591Zm-1.664,2.873c5.4,4.56,10.624,9.347,16.346,13.5a1.532,1.532,0,0,1,.183.57c.023.3.182.456.114.57-2.873,6.475-4.97,13.246-7.409,19.88a20.521,20.521,0,0,0-6-1.938c1.254-5.266,4.263-10.806,5.859-15.822a1.073,1.073,0,0,0,0-.707,1.049,1.049,0,0,0-.387-.593c-3.876-3.556-9.256-6.839-12.972-10.784a21.024,21.024,0,0,0,4.286-4.491Zm-6.406,6.2c3.374,3.671,8,6.452,11.718,9.735a2.119,2.119,0,0,1,.57.98,1.778,1.778,0,0,1,0,1.14c-1.55,4.7-4.172,9.416-5.266,14.272a20.517,20.517,0,0,0-5.517.638c-.388-.684-.753-1.391-1.094-2.075v-.205a109.241,109.241,0,0,1,3.328-10.556,1.231,1.231,0,0,0,0-.707,1.478,1.478,0,0,0-.342-.616,108.07,108.07,0,0,1-8.093-7.751.2.2,0,0,1-.183-.114v-2.28a20.228,20.228,0,0,0,4.9-2.28ZM577,27.651a36.273,36.273,0,0,0,6.839-.228A57.348,57.348,0,0,0,585.691,40.3a55.445,55.445,0,0,0,4.856,12.06,34.429,34.429,0,0,0-6.019,3.351,31.689,31.689,0,0,1-7.5-27.973Zm-9.667-1.5a60.987,60.987,0,0,0,6.976,1.277,34.334,34.334,0,0,0,7.956,29.752,58.488,58.488,0,0,0-5.38,4.56,32.442,32.442,0,0,1-9.552-35.611Zm-2.6-.638a32.842,32.842,0,0,0-1.208,4.309c-13.839,0-25.078-10.692-36.249-19.538,11.468,5.494,24.987,12.06,37.48,15.412Zm-1.664,7a33.527,33.527,0,0,0-.3,6.019c-14.18,1.322-27.791-14.91-38.369-27.2,11.764,9.324,23.733,21.18,38.688,21.362Zm-23.026-1.869c5.631,5.084,14.887,11.4,22.958,10.578a36.063,36.063,0,0,0,.958,4.924,33.921,33.921,0,0,0,1.641,4.719c-7.41,3.374-12.266,13.428-14.614,20.655S546.934,86.4,545.2,93.88c1.527-14.887-1.277-31.917,10.031-44.206a1.345,1.345,0,0,0-.593-2.28c-15.959-5.061-22.046-21.134-30.8-33.263A224.861,224.861,0,0,0,540.072,30.82Zm-18.1-14.066c1.231,1.915,2.394,3.921,3.534,6a15.388,15.388,0,0,0-8.116,1.049c-2.645,1.049-14.249,7.318-15.594,1.186a1.389,1.389,0,0,0-.365-.661c-.182-.935-.387-1.915-.524-2.85,6.087,1.413,17.372-6.475,21.088-4.537ZM502.409,2.733a23.276,23.276,0,0,1,7.8,2.28,13.317,13.317,0,0,0-2.28,1.049c-.593.365-6.315,4.56-7.957,3.465C500.106,6.244,500.859,3.8,502.409,2.733Zm-.456,9.507c4.218-.684,7.934-6.178,12.2-4.56a32.223,32.223,0,0,1,5.494,5.768,15.39,15.39,0,0,0-5.494,1.573c-1.961.821-11.24,6.042-13.679,3.032a57.154,57.154,0,0,1-.5-5.836A6.063,6.063,0,0,0,501.953,12.24Z" transform="translate(-495.98 -1)"/><path class="b" d="M591.959,7.381c-2.127,2.127-3.53,6.019-2.127,8.508h0c1.468,2.552,5.466,3.254,8.508,2.51a9.911,9.911,0,0,0-.213,1.149,11.508,11.508,0,0,0,0,1.212,6.869,6.869,0,0,0,2.829,6.168h0c2.552,1.468,6.381,0,8.507-2.127.851,2.956,3.467,6.062,6.381,6.062h0V28.373h-.192a6.04,6.04,0,0,1-4.062-5.424,27.438,27.438,0,0,0,4.254.255V17.037h0a37.2,37.2,0,0,0-2.339-3.914,1.3,1.3,0,0,0-1.7-.447,31.509,31.509,0,0,0-3.977,2.127h0a36.626,36.626,0,0,0,0-4.552A1.319,1.319,0,0,0,606.571,9a36.606,36.606,0,0,0-4.552,0h0a31.57,31.57,0,0,0,2.127-3.977,1.212,1.212,0,0,0,0-.936,1.234,1.234,0,0,0-.553-.766A37.222,37.222,0,0,0,599.786,1h-6.147a27.457,27.457,0,0,0,.255,4.254,6.041,6.041,0,0,1-5.381-3.977.621.621,0,0,1,0-.191H585.94C585.9,3.935,589,6.551,591.959,7.381Zm15.25,11.081c2.127-1.808,3.467-2.595,4.573-2.3s1.914,1.68,2.807,4.254a.7.7,0,0,0,0,.319,22.267,22.267,0,0,1-3.956-.532h0a24.176,24.176,0,0,1-3.68-1.51,1.106,1.106,0,0,0,.255-.213Zm1.255,3.616a6,6,0,0,1-6.125,2.659h-.191l-.128-.128a6.061,6.061,0,0,1-.766-6.593,29.051,29.051,0,0,0,3.488,2.127,27.654,27.654,0,0,0,3.722,1.957Zm-3.722-10c.808.829.808,2.446.277,5.1a.916.916,0,0,0,0,.3,21.5,21.5,0,0,1-3.148-2.425h0a21.491,21.491,0,0,1-2.425-3.148.914.914,0,0,0,.3,0c2.574-.617,4.169-.617,5,.191ZM596.4,2.234c2.573.893,3.956,1.7,4.254,2.807s-.489,2.51-2.3,4.573a1.112,1.112,0,0,0-.234.213A24.161,24.161,0,0,1,596.7,6.168h0a22.276,22.276,0,0,1-.532-3.956.7.7,0,0,0,.234.043Zm-1.659,6.125A27.673,27.673,0,0,0,596.7,12.1a29.079,29.079,0,0,0,2.127,3.488,6.062,6.062,0,0,1-6.657-.766l-.127-.128a.61.61,0,0,1,0-.191,6,6,0,0,1,2.7-6.125Z" transform="translate(-378.693 -1)"/><path class="c" d="M597.175,2.978c-.234.574-.489,1.085-.681,1.68a1.212,1.212,0,0,0,.128.936,1.192,1.192,0,0,0,.766.6c.6.128,1.17.149,1.786.234a4.653,4.653,0,0,0,.234,1.787,1.191,1.191,0,0,0,.6.766,1.212,1.212,0,0,0,.936.128c.6-.191,1.106-.447,1.68-.681a13.971,13.971,0,0,0,1.106,1.4,1.084,1.084,0,0,0,.872.383V3.68h-.213a.574.574,0,0,0-.319,0h-.277a.446.446,0,0,0-.3,0h-.234a.77.77,0,0,0-.149-.213c0-.106-.149-.149-.234-.213h0s-.106-.191-.213-.234l-.213-.149a.868.868,0,0,0,0-.234.45.45,0,0,0,0-.3V1.532a.575.575,0,0,0,0-.319V1h-6.53a1.086,1.086,0,0,0,.383.872,13.948,13.948,0,0,0,.872,1.106Z" transform="translate(-367.447 -1)"/><path class="d" d="M599.637,1.6V1.7h0a1.963,1.963,0,0,0,.191.17.5.5,0,0,1,.17.191h.6V1h-1.4v.106a1.523,1.523,0,0,1,0,.255.958.958,0,0,1,.447.234Z" transform="translate(-363.762 -1)"/><path class="e" d="M598.78,7.325h.17a.319.319,0,0,0,.213,0,.34.34,0,0,0,.191,0h.17a1.255,1.255,0,1,0-.893-.234Z" transform="translate(-364.968 3.309)"/><path class="f" d="M596.277,5.652h0l.128.128a.34.34,0,0,0,.149.149.34.34,0,0,0,.149.149l.128.128h0a1.274,1.274,0,1,0,1.4-2.127,1.256,1.256,0,0,0-1.957,1.574Z" transform="translate(-367.357 1.941)"/><path class="g" d="M595.034,3.288a.276.276,0,0,0,0,.191v.17h0a1.255,1.255,0,0,0,2.255-1.063,1.255,1.255,0,0,0-2.489.17h0v.17a.468.468,0,0,0,.234.362Z" transform="translate(-368.709 -0.374)"/><path class="h" d="M593.688,79.477h.106a1.063,1.063,0,0,0,.276,0h0a.66.66,0,0,0,.277,0h0c30.989,1.085,21.737-46.791,18.249-64.1a1.723,1.723,0,0,0-2.829-.766C598.389,27.985,566.4,64.886,593.688,79.477ZM610.15,19.669c.7,3.339,1.51,7.487,2.127,12.038a14.739,14.739,0,0,1-5.275-.34h0a14.7,14.7,0,0,1-4.743-2.34c2.935-3.637,5.7-6.806,7.976-9.358Zm-9.4,11.294a37.628,37.628,0,0,0,5.7,2.808,38.543,38.543,0,0,0,6.381.383c.255,1.978.489,4.041.659,6.1-2.85.128-5.828,1.042-8.656,0h0c-2.978-.489-5.1-2.744-7.508-4.254a54.382,54.382,0,0,1,3.509-5.041Zm5.7,18.568a2.914,2.914,0,0,0,4.828-.213c1.383-1.765,1.106-4.466,1.106-6.593h.723c0,3.892,1.51,12.761-3.446,12.612a6.083,6.083,0,0,1-5.487-4.615c-.4-2.68.787-5.381,1.34-7.955h.617a13.3,13.3,0,0,0-.276,2.488,7.594,7.594,0,0,0,.6,4.275Zm2.127-6.381a.638.638,0,0,0,.192-.276h1.042a10.23,10.23,0,0,1-.361,4.573c-.553.957-1,1.085-1.106,0a20.309,20.309,0,0,1,0-2.786,7.179,7.179,0,0,1,.17-1.149c.064-.3.319-.532.064-.4Zm-9.635-3.169.914.51a.618.618,0,0,0,0,.34c-.128-.234,0,0-.128.319a4.422,4.422,0,0,1-.425,1.085,17.3,17.3,0,0,1-1.383,2.425c-.638.893-.957.532-.978-.553s1.4-3.063,2.042-4.169ZM596.2,38.258a6.2,6.2,0,0,1,.638.362c-1.064,1.85-2.659,4.041-2.34,6.274a2.893,2.893,0,0,0,4.062,2.595c1.212-.553,2.127-2.233,2.637-3.36a16.531,16.531,0,0,0,1-2.3,4.707,4.707,0,0,0,.574.255c-.808,2.531-1.127,5.445-2.829,7.55a6.019,6.019,0,0,1-7.061,1.255c-4.36-2.3,1.489-9.294,3.361-12.676Zm-7.253,12.017a5.275,5.275,0,0,0,3.531,3.212,8.954,8.954,0,0,0,8.1-1.042,7,7,0,0,0,1.106-.978,6.375,6.375,0,0,0,.489,1.4,8.911,8.911,0,0,0,6.38,4.956,5.3,5.3,0,0,0,4.679-1.021c-1.361,11.06-6.21,19.737-18.312,19.546-10.443-5.913-10.294-15.867-5.934-26.118Z" transform="translate(-382.06 13.809)"/><path class="i" d="M556.008,24.4h0a.656.656,0,0,0,0,.276h0a1.07,1.07,0,0,0,0,.277.149.149,0,0,1,0,.106C570.577,52.428,607.5,20.44,620.665,8.806a1.552,1.552,0,0,0,.4-1.638,1.552,1.552,0,0,0-1.17-1.191C602.991,2.659,555.009-6.593,556.008,24.4Zm48.068-17.8c4.552.659,8.7,1.468,12.038,2.127-2.552,2.276-5.721,5.041-9.337,7.891a14.692,14.692,0,0,1-2.339-4.743h0a14.744,14.744,0,0,1-.361-5.275Zm-8.507-1c2.127.17,4.126.4,6.1.659a38.544,38.544,0,0,0,.383,6.381,36.649,36.649,0,0,0,2.871,5.53c-1.6,1.212-3.254,2.446-4.956,3.637-1.553-2.4-3.807-4.53-4.254-7.508h0c-1.233-2.871-.319-5.849-.191-8.7Zm-.532,13.484a.616.616,0,0,0,.34,0l.51.915c-1.106.638-2.829,2-4.126,1.978s-1.446-.34-.553-.978a17.286,17.286,0,0,1,2.425-1.382,4.423,4.423,0,0,1,1.085-.425c.192-.043.51.021.277-.106ZM593.994,16.8a16.555,16.555,0,0,0-2.3,1c-1.127.617-2.807,1.425-3.361,2.637a2.893,2.893,0,0,0,2.595,4.062c2.233.319,4.424-1.276,6.381-2.34a6.241,6.241,0,0,1,.362.638c-3.382,1.872-10.379,7.721-12.634,3.318a6.019,6.019,0,0,1,1.255-7.061c2.127-1.7,5.019-2.021,7.55-2.829a4.692,4.692,0,0,0,.149.574Zm-.936-10.847v.723c-2.127,0-4.828-.276-6.593,1.106a2.914,2.914,0,0,0-.213,4.828,7.593,7.593,0,0,0,4.254.6,15.336,15.336,0,0,0,2.488-.276v.617c-2.574.553-5.275,1.744-7.955,1.34A6.083,6.083,0,0,1,580.425,9.4c-.213-5,8.742-3.424,12.634-3.488Zm-.744,4.466a7.128,7.128,0,0,1-1.149.17,20.291,20.291,0,0,1-2.786,0c-1.085,0-.957-.553,0-1.106a10.23,10.23,0,0,1,4.573-.362v1.042a.639.639,0,0,0-.276.191C592.8,10.167,592.569,10.422,592.314,10.422ZM579.021,5.594A5.3,5.3,0,0,0,578,10.273a8.912,8.912,0,0,0,4.956,6.53,6.381,6.381,0,0,0,1.4.489,7,7,0,0,0-.978,1.106,8.954,8.954,0,0,0-1.042,8.1,5.274,5.274,0,0,0,3.212,3.531c-10.252,4.36-20.205,4.509-26.076-6.083-.191-12.123,8.486-16.973,19.546-18.334Z" transform="translate(-412.44 0.212)"/><path class="j" d="M617.566,10.981a1.6,1.6,0,0,0-1.616-.447C599.3,16.106,553.143,32.1,569.562,58.389h0a.677.677,0,0,0,.213.213h0a.679.679,0,0,0,.213.213h0c26.288,16.441,42.282-29.776,47.855-46.387a1.6,1.6,0,0,0-.276-1.446Zm-23.63,17.206a7.01,7.01,0,0,1-.893.723,19.47,19.47,0,0,1-2.424,1.4c-1,.447-1.106,0-.553-.978s2.659-1.935,3.786-2.574l.51.893a.976.976,0,0,0-.149.3C594.234,27.7,594.128,28.017,593.936,28.187Zm-1.617-4.254c.106.213.255.4.362.638-1.85,1.063-4.254,2.127-5.168,4.254a2.914,2.914,0,0,0,2.233,4.254,7.679,7.679,0,0,0,3.956-1.616,11.982,11.982,0,0,0,2-1.468c.149.17.255.34.383.51-1.957,1.765-3.7,4.147-6.232,5.126a6.04,6.04,0,0,1-6.721-2.446c-2.7-4.169,5.849-7.3,9.188-9.294ZM572.285,56.262c-6.211-10.379-1.127-18.929,7.784-25.629a5.254,5.254,0,0,0,1.446,4.552,8.934,8.934,0,0,0,7.551,3.148,7.676,7.676,0,0,0,1.425-.277,7.666,7.666,0,0,0-.276,1.425,8.933,8.933,0,0,0,3.148,7.55,5.254,5.254,0,0,0,4.552,1.446C591.171,57.432,582.621,62.515,572.285,56.262ZM595.4,45.372a6.04,6.04,0,0,1-2.446-6.721c.978-2.531,3.36-4.254,5.126-6.232l.51.383a11.969,11.969,0,0,0-1.467,2,7.678,7.678,0,0,0-1.616,3.956,2.914,2.914,0,0,0,4.254,2.233c2.127-.851,3.212-3.318,4.254-5.168.234.106.425.255.638.362-2,3.382-5.126,11.932-9.294,9.231Zm5.232-11.081a.978.978,0,0,0,.3-.149l.893.51c-.638,1.127-1.446,3.148-2.574,3.786s-1.425.447-.978-.553a19.461,19.461,0,0,1,1.4-2.425,7,7,0,0,1,.723-.893c.128-.149.447-.255.191-.234Zm5.572,0c-2.552-1.319-5.572-2-7.487-4.254h0c-2.361-1.914-3.041-4.934-4.254-7.487,1.872-.872,3.786-1.7,5.615-2.467a37.3,37.3,0,0,0,3.488,5.232,37.29,37.29,0,0,0,5.062,3.3c-.766,1.85-1.6,3.765-2.467,5.636Zm3.4-7.912a14.486,14.486,0,0,1-4.4-2.935h0a14.483,14.483,0,0,1-2.935-4.4c4.254-1.7,8.252-3.084,11.506-4.254-1.084,3.3-2.51,7.274-4.211,11.549Z" transform="translate(-401.067 9.672)"/><path class="k" d="M577.35,7.452h.213a1.318,1.318,0,0,0,.51-1.468,1.191,1.191,0,0,0-1.489-1.361h-.17a1.212,1.212,0,0,0-.851.915.885.885,0,0,0,0,.255h0a1.4,1.4,0,0,0,0,.829,1.234,1.234,0,0,0,1.787.83Z" transform="translate(-390.457 3.034)"/><path class="l" d="M583.377,18.411l.128-.191a1.34,1.34,0,0,0-.276-1.531,1.191,1.191,0,0,0-1.978-.425.255.255,0,0,0-.149.106,1.191,1.191,0,0,0-.255,1.212.51.51,0,0,0,0,.255h0a1.3,1.3,0,0,0,.468.7,1.255,1.255,0,0,0,2.063-.128Z" transform="translate(-384.51 15.789)"/><path class="m" d="M593.036,23.406a1.191,1.191,0,0,0-1.914.617.233.233,0,0,0,0,.17,1.127,1.127,0,0,0,.362,1.17.554.554,0,0,0,.192.191h0a1.192,1.192,0,0,0,.744.362,1.234,1.234,0,0,0,1.638-1.149s0-.17,0-.234a1.34,1.34,0,0,0-1.021-1.127Z" transform="translate(-372.9 23.939)"/><path class="n" d="M595.986,26.84a1.4,1.4,0,0,0,.83,0h.255a1.212,1.212,0,0,0,.914-.851.47.47,0,0,0,0-.17,1.191,1.191,0,0,0-1.361-1.489,1.319,1.319,0,0,0-1.467.51v.213a1.234,1.234,0,0,0,.829,1.787Z" transform="translate(-368.47 25.226)"/><path class="o" d="M576.566,10.188a1.191,1.191,0,0,0,.362.744h0a.554.554,0,0,0,.192.191,1.127,1.127,0,0,0,1.17.362.234.234,0,0,0,.17,0,1.191,1.191,0,0,0,.617-1.914,1.34,1.34,0,0,0-1.191-1.021h-.234a1.234,1.234,0,0,0-1.085,1.638Z" transform="translate(-389.333 7.508)"/><path class="p" d="M584.839,21.637h0a.51.51,0,0,0,.255,0,1.191,1.191,0,0,0,1.212-.255.254.254,0,0,0,0-.149,1.191,1.191,0,0,0-.426-1.978,1.34,1.34,0,0,0-1.531-.276l-.192.128a1.255,1.255,0,0,0-.192,2,1.3,1.3,0,0,0,.872.532Z" transform="translate(-381.378 19.115)"/><path class="q" d="M594.162,27h.34a1.213,1.213,0,0,0,.617-.17,1.276,1.276,0,0,0,.574-2.127c-.149,0-.255-.255-.383-.362s0,0-.149-.106,0-.106-.17-.106a.277.277,0,0,0-.234,0,.383.383,0,0,0-.276,0h-.362l-.51.106a1.276,1.276,0,0,0-.574,2.127,1.4,1.4,0,0,0,.468.468Z" transform="translate(-371.112 25.029)"/><path class="r" d="M584.66,18.746v-.17a.235.235,0,0,0,0-.17.744.744,0,0,0-.362-.362.234.234,0,0,0-.17-.106h-.17a4.436,4.436,0,0,1-.489-.17,1.276,1.276,0,0,0-1.531,1.531,1.341,1.341,0,0,0,.149.638l.234.277h0l.276.234a1.339,1.339,0,0,0,.638.149,1.276,1.276,0,0,0,1.531-1.531q-.06-.157-.106-.319Z" transform="translate(-383.24 17.858)"/><path class="s" d="M575.506,8.7h0l.106.34a1.4,1.4,0,0,0,.468.468,1.276,1.276,0,0,0,2.127-.574.924.924,0,0,1,.106-.51c.106-.191,0,0,0-.17V8.067a.447.447,0,0,0,0-.255.383.383,0,0,0-.106-.255V7.237c0-.149-.255-.234-.362-.383a1.276,1.276,0,0,0-2.127.574,1.212,1.212,0,0,0-.17.617,1.992,1.992,0,0,0,0,.34S575.464,8.684,575.506,8.7Z" transform="translate(-390.464 5.184)"/><path class="t" d="M561.122,15.4l.128.319a6.764,6.764,0,0,0,6.934,4.126,6.381,6.381,0,0,0,4.509-7.189.572.572,0,0,0,0-.319h0a.572.572,0,0,0,0-.319,6.508,6.508,0,0,0-7.678-3.913,6.763,6.763,0,0,0-3.935,7.04,1.664,1.664,0,0,0,.042.255Zm4.488-4.892c1.7-1.085,3.722.936,4.573,2.425h0c0,1.723-.723,4.488-2.744,4.4a4.466,4.466,0,0,1-3.871-2.552v-.106a4.4,4.4,0,0,1,2.042-4.169Z" transform="translate(-406.771 6.779)"/><path class="u" d="M580.775,26.452h0a.489.489,0,0,0-.213-.255,6.508,6.508,0,0,0-8.508.319,6.806,6.806,0,0,0,0,8.082l.212.255.255.213a6.806,6.806,0,0,0,8.082,0,6.508,6.508,0,0,0,.319-8.508A.489.489,0,0,0,580.775,26.452Zm-1.914,6.955a4.445,4.445,0,0,1-4.615-.3h0a4.446,4.446,0,0,1-.3-4.615c.957-1.787,3.722-1.063,5.19-.17h0C579.924,29.685,580.647,32.45,578.86,33.407Z" transform="translate(-395.838 25.784)"/><path class="v" d="M591.65,45.89l.319.128h.34a6.806,6.806,0,0,0,6.955-3.892,6.508,6.508,0,0,0-3.977-7.508.574.574,0,0,0-.319,0h0a.574.574,0,0,0-.319,0,6.381,6.381,0,0,0-7.189,4.509,6.764,6.764,0,0,0,4.19,6.764Zm2.722-8.954h0c1.489.851,3.509,2.871,2.425,4.573a4.4,4.4,0,0,1-4.254,2.127h-.192a4.466,4.466,0,0,1-2.552-3.871C589.885,37.659,592.65,36.915,594.372,36.936Z" transform="translate(-377.001 36.782)"/></g></svg>