<svg xmlns="http://www.w3.org/2000/svg" xmlns:xlink="http://www.w3.org/1999/xlink" width="262.679" height="76.4" viewBox="0 0 262.679 76.4"><defs><style>.a,.b{fill:none;}.a{clip-rule:evenodd;}.c{fill:#6178ae;font-size:12px;font-family:MyriadPro-Semibold, Myriad Pro;font-weight:600;opacity:0.87;}.d{clip-path:url(#a);}.e{clip-path:url(#b);}.f{fill:#eee128;}.g{clip-path:url(#c);}.h{clip-path:url(#e);}.i{fill:#6891f3;}.j{clip-path:url(#g);}.k{clip-path:url(#i);}.l{clip-path:url(#k);}.m{clip-path:url(#m);}.n{clip-path:url(#o);}.o{clip-path:url(#q);}.p{clip-path:url(#s);}.q{clip-path:url(#u);}.r{clip-path:url(#w);}.s{clip-path:url(#y);}.t{clip-path:url(#aa);}.u{clip-path:url(#ac);}.v{clip-path:url(#ae);}.w{clip-path:url(#ag);}.x{clip-path:url(#ah);}.y{fill:#969696;}.z{clip-path:url(#ai);}.aa{fill:#85a8ff;}.ab{clip-path:url(#ak);}.ac{fill:#7095ee;}.ad{clip-path:url(#am);}.ae{fill:#789dfa;}.af{clip-path:url(#ao);}.ag{clip-path:url(#aq);}.ah{fill:#5577cd;}.ai{clip-path:url(#as);}.aj{fill:#4767b3;}.ak{clip-path:url(#au);}.al{fill:#2e4274;}.am{clip-path:url(#aw);}.an{fill:#3e5a9d;}.ao{clip-path:url(#ay);}.ap{fill:#364f8a;}.aq{clip-path:url(#ba);}.ar{clip-path:url(#bc);}.as{clip-path:url(#be);}.at{clip-path:url(#bf);}.au{clip-path:url(#bg);}.av{clip-path:url(#bi);}.aw{clip-path:url(#bk);}.ax{clip-path:url(#bm);}.ay{clip-path:url(#bo);}.az{clip-path:url(#bq);}.ba{clip-path:url(#bs);}.bb{clip-path:url(#bu);}.bc{clip-path:url(#bw);}.bd{clip-path:url(#by);}.be{clip-path:url(#ca);}.bf{clip-path:url(#cd);}.bg{clip-path:url(#ce);}.bh{clip-path:url(#cg);}.bi{clip-path:url(#ci);}.bj{clip-path:url(#ck);}.bk{clip-path:url(#cm);}.bl{clip-path:url(#co);}.bm{clip-path:url(#cq);}.bn{clip-path:url(#cs);}.bo{clip-path:url(#cu);}.bp{clip-path:url(#cw);}.bq{clip-path:url(#cy);}.br{clip-path:url(#cz);}.bs{clip-path:url(#da);}.bt{fill:#2e4374;}.bu{clip-path:url(#dc);}.bv{fill:#92b0fa;}.bw{clip-path:url(#de);}.bx{fill:#4f74ce;}.by{clip-path:url(#dg);}.bz{clip-path:url(#di);}.ca{clip-path:url(#dj);}.cb{clip-path:url(#dk);}.cc{clip-path:url(#dm);}.cd{clip-path:url(#do);}.ce{clip-path:url(#dq);}.cf{clip-path:url(#ds);}.cg{clip-path:url(#dt);}.ch{clip-path:url(#du);}.ci{clip-path:url(#dw);}.cj{clip-path:url(#dy);}.ck{fill:#87a5ed;}.cl{clip-path:url(#ea);}.cm{clip-path:url(#ec);}.cn{clip-path:url(#ee);}.co{clip-path:url(#eg);}.cp{clip-path:url(#ei);}.cq{clip-path:url(#ej);}.cr{clip-path:url(#ek);}.cs{clip-path:url(#em);}.ct{clip-path:url(#eo);}.cu{clip-path:url(#eq);}.cv{clip-path:url(#es);}.cw{clip-path:url(#eu);}.cx{clip-path:url(#ew);}.cy{clip-path:url(#ex);}.cz{clip-path:url(#ey);}.da{clip-path:url(#fa);}.db{clip-path:url(#fc);}.dc{clip-path:url(#fe);}.dd{clip-path:url(#fg);}.de{clip-path:url(#fi);}.df{clip-path:url(#fk);}.dg{clip-path:url(#fl);}.dh{clip-path:url(#fm);}.di{clip-path:url(#fo);}.dj{fill:#98b2f0;}.dk{clip-path:url(#fq);}.dl{clip-path:url(#fs);}.dm{clip-path:url(#fu);}.dn{fill:#3f5b9e;font-size:15px;font-family:MyriadPro-Regular, Myriad Pro;}</style><clipPath id="a"><path class="a" d="M866.037-161.056l.488-.829a.268.268,0,0,1,.367-.095.267.267,0,0,1,.095.095l.488.829a.267.267,0,0,1,.037.136v3.231a.268.268,0,0,1-.268.268h-.976a.268.268,0,0,1-.268-.268v-3.231A.269.269,0,0,1,866.037-161.056Z" transform="translate(-866 162.017)"/></clipPath><clipPath id="b"><path class="b" d="M-72-222.185H209.426V-383H-72Z" transform="translate(72 383)"/></clipPath><clipPath id="c"><path class="a" d="M867.475-142.345l-.488.829a.268.268,0,0,1-.367.095.268.268,0,0,1-.095-.095l-.488-.829a.268.268,0,0,1-.037-.136v-3.231a.268.268,0,0,1,.268-.268h.976a.268.268,0,0,1,.268.268v3.231A.267.267,0,0,1,867.475-142.345Z" transform="translate(-866 145.98)"/></clipPath><clipPath id="e"><path class="a" d="M901.395-161.056l.488-.829a.268.268,0,0,1,.367-.095.268.268,0,0,1,.1.095l.488.829a.268.268,0,0,1,.037.136v3.231a.268.268,0,0,1-.268.268h-.976a.268.268,0,0,1-.268-.268v-3.231A.27.27,0,0,1,901.395-161.056Z" transform="translate(-901.358 162.017)"/></clipPath><clipPath id="g"><path class="a" d="M902.833-142.345l-.488.829a.268.268,0,0,1-.367.095.269.269,0,0,1-.095-.095l-.488-.829a.27.27,0,0,1-.037-.136v-3.231a.268.268,0,0,1,.268-.268h.976a.268.268,0,0,1,.268.268v3.231A.268.268,0,0,1,902.833-142.345Z" transform="translate(-901.358 145.98)"/></clipPath><clipPath id="i"><path class="a" d="M889.883-165.818l.829.488a.268.268,0,0,1,.095.367.268.268,0,0,1-.095.095l-.829.488a.267.267,0,0,1-.136.037h-3.231a.268.268,0,0,1-.268-.268v-.976a.268.268,0,0,1,.268-.268h3.231A.267.267,0,0,1,889.883-165.818Z" transform="translate(-886.248 165.855)"/></clipPath><clipPath id="k"><path class="a" d="M870.564-164.38l-.829-.488a.268.268,0,0,1-.095-.367.268.268,0,0,1,.095-.095l.829-.488a.268.268,0,0,1,.136-.037h3.231a.268.268,0,0,1,.268.268v.976a.268.268,0,0,1-.268.268H870.7A.268.268,0,0,1,870.564-164.38Z" transform="translate(-869.604 165.855)"/></clipPath><clipPath id="m"><path class="a" d="M889.883-130.6l.829.488a.268.268,0,0,1,.095.367.268.268,0,0,1-.095.095l-.829.488a.267.267,0,0,1-.136.037h-3.231a.268.268,0,0,1-.268-.268v-.976a.268.268,0,0,1,.268-.268h3.231A.267.267,0,0,1,889.883-130.6Z" transform="translate(-886.248 130.636)"/></clipPath><clipPath id="o"><path class="a" d="M870.564-129.161l-.829-.488a.268.268,0,0,1-.095-.367.268.268,0,0,1,.095-.095l.829-.488a.268.268,0,0,1,.136-.037h3.231a.268.268,0,0,1,.268.268v.976a.268.268,0,0,1-.268.268H870.7A.268.268,0,0,1,870.564-129.161Z" transform="translate(-869.604 130.636)"/></clipPath><clipPath id="q"><path class="a" d="M889.883-95.75l.829.488a.268.268,0,0,1,.095.367.268.268,0,0,1-.095.095l-.829.488a.267.267,0,0,1-.136.037h-3.231a.268.268,0,0,1-.268-.268v-.976a.268.268,0,0,1,.268-.268h3.231A.267.267,0,0,1,889.883-95.75Z" transform="translate(-886.248 95.787)"/></clipPath><clipPath id="s"><path class="a" d="M870.564-94.312l-.829-.488a.268.268,0,0,1-.095-.367.268.268,0,0,1,.095-.095l.829-.488a.268.268,0,0,1,.136-.037h3.231a.268.268,0,0,1,.268.268v.976a.268.268,0,0,1-.268.268H870.7A.268.268,0,0,1,870.564-94.312Z" transform="translate(-869.604 95.787)"/></clipPath><clipPath id="u"><path class="a" d="M901.395-126.207l.488-.829a.268.268,0,0,1,.367-.1.268.268,0,0,1,.1.1l.488.829a.268.268,0,0,1,.037.136v3.231a.268.268,0,0,1-.268.268h-.976a.268.268,0,0,1-.268-.268v-3.231A.27.27,0,0,1,901.395-126.207Z" transform="translate(-901.358 127.168)"/></clipPath><clipPath id="w"><path class="a" d="M902.833-107.126l-.488.829a.268.268,0,0,1-.367.095.27.27,0,0,1-.095-.095l-.488-.829a.27.27,0,0,1-.037-.136v-3.231a.268.268,0,0,1,.268-.268h.976a.268.268,0,0,1,.268.268v3.231A.268.268,0,0,1,902.833-107.126Z" transform="translate(-901.358 110.761)"/></clipPath><clipPath id="y"><path class="a" d="M866.037-126.207l.488-.829a.268.268,0,0,1,.367-.1.266.266,0,0,1,.095.1l.488.829a.267.267,0,0,1,.037.136v3.231a.268.268,0,0,1-.268.268h-.976a.268.268,0,0,1-.268-.268v-3.231A.268.268,0,0,1,866.037-126.207Z" transform="translate(-866 127.168)"/></clipPath><clipPath id="aa"><path class="a" d="M867.475-107.126l-.488.829a.268.268,0,0,1-.367.095.269.269,0,0,1-.095-.095l-.488-.829a.268.268,0,0,1-.037-.136v-3.231a.268.268,0,0,1,.268-.268h.976a.268.268,0,0,1,.268.268v3.231A.267.267,0,0,1,867.475-107.126Z" transform="translate(-866 110.761)"/></clipPath><clipPath id="ac"><path class="a" d="M146.345-68.448l-3.323,5.438a.268.268,0,0,1-.368.089.268.268,0,0,1-.089-.089l-3.323-5.438a.268.268,0,0,1-.039-.14V-84.593a.268.268,0,0,1,.268-.268h6.646a.268.268,0,0,1,.268.268v16.005A.268.268,0,0,1,146.345-68.448Z" transform="translate(-139.202 84.861)"/></clipPath><clipPath id="ae"><path class="b" d="M21.3-165.959a22.928,22.928,0,0,1-.69,2.812,27.365,27.365,0,0,1-2.705,5.227A14.837,14.837,0,0,0,7.415-143.732,14.831,14.831,0,0,0,22.246-128.9a14.831,14.831,0,0,0,14.831-14.831,14.837,14.837,0,0,0-10.44-14.17,17.839,17.839,0,0,1-3.1-5.244,20.079,20.079,0,0,1-.688-2.824,22.246,22.246,0,0,1,21.648,22.238,22.246,22.246,0,0,1-22.246,22.246A22.246,22.246,0,0,1,0-143.732,22.247,22.247,0,0,1,21.3-165.959Z" transform="translate(0 165.971)"/></clipPath><clipPath id="ag"><rect class="b" width="56.821" height="56.285" transform="translate(0)"/></clipPath><clipPath id="ah"><path class="b" d="M0-121.508H44.76V-166H0Z" transform="translate(0 166)"/></clipPath><clipPath id="ai"><path class="a" d="M96.518-56.532a9.393,9.393,0,0,0,9.424-9.361,9.393,9.393,0,0,0-9.424-9.361,9.393,9.393,0,0,0-9.424,9.361A9.393,9.393,0,0,0,96.518-56.532Z" transform="translate(-87.094 75.253)"/></clipPath><clipPath id="ak"><path class="a" d="M61.991-29.418a9.393,9.393,0,0,0,9.424-9.361,9.393,9.393,0,0,0-9.424-9.361,9.393,9.393,0,0,0-9.424,9.361A9.393,9.393,0,0,0,61.991-29.418Z" transform="translate(-52.567 48.14)"/></clipPath><clipPath id="am"><path class="a" d="M22.151-44.912a9.393,9.393,0,0,0,9.424-9.361,9.393,9.393,0,0,0-9.424-9.361,9.393,9.393,0,0,0-9.424,9.361A9.393,9.393,0,0,0,22.151-44.912Z" transform="translate(-12.727 63.633)"/></clipPath><clipPath id="ao"><path class="a" d="M-12.986-69.812a9.392,9.392,0,0,0,9.424-9.361,9.393,9.393,0,0,0-9.424-9.361,9.393,9.393,0,0,0-9.424,9.361A9.392,9.392,0,0,0-12.986-69.812Z" transform="translate(22.41 88.533)"/></clipPath><clipPath id="aq"><path class="a" d="M127.561-95.265a9.393,9.393,0,0,0,9.424-9.361,9.393,9.393,0,0,0-9.424-9.361,9.393,9.393,0,0,0-9.424,9.361A9.393,9.393,0,0,0,127.561-95.265Z" transform="translate(-118.137 113.987)"/></clipPath><clipPath id="as"><path class="a" d="M126.731-145.895a9.392,9.392,0,0,0,9.424-9.361,9.392,9.392,0,0,0-9.424-9.361,9.393,9.393,0,0,0-9.424,9.361A9.392,9.392,0,0,0,126.731-145.895Z" transform="translate(-117.307 164.617)"/></clipPath><clipPath id="au"><path class="a" d="M-3.579-125.7a9.392,9.392,0,0,0,9.424-9.361,9.392,9.392,0,0,0-9.424-9.361A9.392,9.392,0,0,0-13-135.059,9.392,9.392,0,0,0-3.579-125.7Z" transform="translate(13.003 144.42)"/></clipPath><clipPath id="aw"><path class="a" d="M73.887-169.135a9.393,9.393,0,0,0,9.424-9.361,9.393,9.393,0,0,0-9.424-9.361,9.393,9.393,0,0,0-9.424,9.361A9.393,9.393,0,0,0,73.887-169.135Z" transform="translate(-64.463 187.857)"/></clipPath><clipPath id="ay"><path class="a" d="M22.151-160.558a9.393,9.393,0,0,0,9.424-9.361,9.393,9.393,0,0,0-9.424-9.361,9.393,9.393,0,0,0-9.424,9.361A9.393,9.393,0,0,0,22.151-160.558Z" transform="translate(-12.727 179.28)"/></clipPath><clipPath id="ba"><path class="a" d="M406.231-63.923l-1.88,3.116a.268.268,0,0,1-.368.091.268.268,0,0,1-.091-.091l-1.88-3.116a.269.269,0,0,1-.039-.138v-9.563a.268.268,0,0,1,.268-.268H406a.268.268,0,0,1,.268.268v9.563A.268.268,0,0,1,406.231-63.923Z" transform="translate(-401.974 73.893)"/></clipPath><clipPath id="bc"><path class="b" d="M329.963-97.871a13.917,13.917,0,0,0-.42-1.709,16.626,16.626,0,0,0-1.646-3.177,9.02,9.02,0,0,1-6.385-8.623,9.019,9.019,0,0,1,9.023-9.015,9.019,9.019,0,0,1,9.023,9.015,9.02,9.02,0,0,1-6.352,8.613,10.841,10.841,0,0,0-1.889,3.188,12.2,12.2,0,0,0-.419,1.717,13.529,13.529,0,0,0,13.171-13.517A13.529,13.529,0,0,0,330.535-124.9,13.529,13.529,0,0,0,317-111.381,13.528,13.528,0,0,0,329.963-97.871Z" transform="translate(-317 124.903)"/></clipPath><clipPath id="be"><rect class="b" width="34.575" height="34.575" transform="translate(0 0)"/></clipPath><clipPath id="bf"><path class="b" d="M317-97.93h27.07V-125H317Z" transform="translate(-317 125)"/></clipPath><clipPath id="bg"><path class="a" d="M375.47-121.619a5.712,5.712,0,0,1,5.734,5.69,5.712,5.712,0,0,1-5.734,5.69,5.712,5.712,0,0,1-5.734-5.69A5.712,5.712,0,0,1,375.47-121.619Z" transform="translate(-369.736 121.619)"/></clipPath><clipPath id="bi"><path class="a" d="M354.717-138.1a5.712,5.712,0,0,1,5.734,5.69,5.712,5.712,0,0,1-5.734,5.69,5.712,5.712,0,0,1-5.734-5.69A5.712,5.712,0,0,1,354.717-138.1Z" transform="translate(-348.983 138.1)"/></clipPath><clipPath id="bk"><path class="a" d="M330.477-128.683a5.712,5.712,0,0,1,5.734,5.69,5.712,5.712,0,0,1-5.734,5.69,5.712,5.712,0,0,1-5.734-5.69A5.712,5.712,0,0,1,330.477-128.683Z" transform="translate(-324.743 128.683)"/></clipPath><clipPath id="bm"><path class="a" d="M309.1-113.547a5.712,5.712,0,0,1,5.734,5.69,5.712,5.712,0,0,1-5.734,5.69,5.712,5.712,0,0,1-5.734-5.69A5.712,5.712,0,0,1,309.1-113.547Z" transform="translate(-303.365 113.547)"/></clipPath><clipPath id="bo"><path class="a" d="M394.612-98.075a5.712,5.712,0,0,1,5.734,5.69,5.712,5.712,0,0,1-5.734,5.69,5.712,5.712,0,0,1-5.734-5.69A5.712,5.712,0,0,1,394.612-98.075Z" transform="translate(-388.878 98.075)"/></clipPath><clipPath id="bq"><path class="a" d="M394.107-67.3a5.712,5.712,0,0,1,5.734,5.69,5.712,5.712,0,0,1-5.734,5.69,5.712,5.712,0,0,1-5.734-5.69A5.712,5.712,0,0,1,394.107-67.3Z" transform="translate(-388.373 67.3)"/></clipPath><clipPath id="bs"><path class="a" d="M314.822-79.576a5.712,5.712,0,0,1,5.734,5.69,5.712,5.712,0,0,1-5.734,5.69,5.712,5.712,0,0,1-5.734-5.69A5.712,5.712,0,0,1,314.822-79.576Z" transform="translate(-309.088 79.576)"/></clipPath><clipPath id="bu"><path class="a" d="M361.956-53.173a5.712,5.712,0,0,1,5.734,5.69,5.712,5.712,0,0,1-5.734,5.69,5.712,5.712,0,0,1-5.734-5.69A5.712,5.712,0,0,1,361.956-53.173Z" transform="translate(-356.222 53.173)"/></clipPath><clipPath id="bw"><path class="a" d="M330.477-58.387a5.712,5.712,0,0,1,5.734,5.69,5.712,5.712,0,0,1-5.734,5.69,5.712,5.712,0,0,1-5.734-5.69A5.712,5.712,0,0,1,330.477-58.387Z" transform="translate(-324.743 58.387)"/></clipPath><clipPath id="by"><path class="a" d="M840.231-63.923l-1.88,3.116a.268.268,0,0,1-.368.091.269.269,0,0,1-.091-.091l-1.88-3.116a.268.268,0,0,1-.039-.138v-9.563a.268.268,0,0,1,.268-.268H840a.268.268,0,0,1,.268.268v9.563A.268.268,0,0,1,840.231-63.923Z" transform="translate(-835.974 73.893)"/></clipPath><clipPath id="ca"><path class="b" d="M765.108-97.871a13.888,13.888,0,0,1,.42-1.709,16.606,16.606,0,0,1,1.646-3.177,9.02,9.02,0,0,0,6.385-8.623,9.019,9.019,0,0,0-9.024-9.015,9.019,9.019,0,0,0-9.023,9.015,9.02,9.02,0,0,0,6.352,8.613,10.839,10.839,0,0,1,1.889,3.188,12.214,12.214,0,0,1,.419,1.717A13.529,13.529,0,0,1,751-111.381,13.529,13.529,0,0,1,764.535-124.9a13.529,13.529,0,0,1,13.535,13.522A13.528,13.528,0,0,1,765.108-97.871Z" transform="translate(-751 124.903)"/></clipPath><clipPath id="cd"><path class="b" d="M751-97.93h27.339V-125H751Z" transform="translate(-751 125)"/></clipPath><clipPath id="ce"><path class="a" d="M762.212-121.619a5.712,5.712,0,0,0-5.734,5.69,5.712,5.712,0,0,0,5.734,5.69,5.712,5.712,0,0,0,5.734-5.69A5.712,5.712,0,0,0,762.212-121.619Z" transform="translate(-756.478 121.619)"/></clipPath><clipPath id="cg"><path class="a" d="M782.965-138.1a5.712,5.712,0,0,0-5.734,5.69,5.712,5.712,0,0,0,5.734,5.69,5.712,5.712,0,0,0,5.734-5.69A5.712,5.712,0,0,0,782.965-138.1Z" transform="translate(-777.231 138.1)"/></clipPath><clipPath id="ci"><path class="a" d="M807.2-128.683a5.712,5.712,0,0,0-5.734,5.69,5.712,5.712,0,0,0,5.734,5.69,5.712,5.712,0,0,0,5.734-5.69A5.712,5.712,0,0,0,807.2-128.683Z" transform="translate(-801.471 128.683)"/></clipPath><clipPath id="ck"><path class="a" d="M828.583-113.547a5.712,5.712,0,0,0-5.734,5.69,5.712,5.712,0,0,0,5.734,5.69,5.712,5.712,0,0,0,5.734-5.69A5.712,5.712,0,0,0,828.583-113.547Z" transform="translate(-822.85 113.547)"/></clipPath><clipPath id="cm"><path class="a" d="M743.07-98.075a5.712,5.712,0,0,0-5.734,5.69,5.712,5.712,0,0,0,5.734,5.69,5.712,5.712,0,0,0,5.734-5.69A5.712,5.712,0,0,0,743.07-98.075Z" transform="translate(-737.336 98.075)"/></clipPath><clipPath id="co"><path class="a" d="M743.575-67.3a5.712,5.712,0,0,0-5.734,5.69,5.712,5.712,0,0,0,5.734,5.69,5.712,5.712,0,0,0,5.734-5.69A5.712,5.712,0,0,0,743.575-67.3Z" transform="translate(-737.841 67.3)"/></clipPath><clipPath id="cq"><path class="a" d="M822.86-79.576a5.712,5.712,0,0,0-5.734,5.69,5.712,5.712,0,0,0,5.734,5.69,5.712,5.712,0,0,0,5.734-5.69A5.712,5.712,0,0,0,822.86-79.576Z" transform="translate(-817.126 79.576)"/></clipPath><clipPath id="cs"><path class="a" d="M775.727-53.173a5.712,5.712,0,0,0-5.734,5.69,5.712,5.712,0,0,0,5.734,5.69,5.712,5.712,0,0,0,5.734-5.69A5.712,5.712,0,0,0,775.727-53.173Z" transform="translate(-769.993 53.173)"/></clipPath><clipPath id="cu"><path class="a" d="M807.2-58.387a5.712,5.712,0,0,0-5.734,5.69,5.712,5.712,0,0,0,5.734,5.69,5.712,5.712,0,0,0,5.734-5.69A5.712,5.712,0,0,0,807.2-58.387Z" transform="translate(-801.471 58.387)"/></clipPath><clipPath id="cw"><path class="b" d="M244.572-152.219h-7.464v-2.965h7.464V-166h2.965v10.817h8.811v2.965h-8.811v21.289h3.953v2.989h-4.151a2.779,2.779,0,0,1-2.767-2.79Z" transform="translate(-237.108 166)"/></clipPath><clipPath id="cy"><rect class="b" width="31.091" height="45.832" transform="translate(0)"/></clipPath><clipPath id="cz"><path class="b" d="M237-127.673h19.3V-166H237Z" transform="translate(-237 166)"/></clipPath><clipPath id="da"><path class="a" d="M266.754-163.521a12.568,12.568,0,0,0,12.56-12.577,12.568,12.568,0,0,0-12.56-12.577,12.568,12.568,0,0,0-12.56,12.577A12.568,12.568,0,0,0,266.754-163.521Z" transform="translate(-254.195 188.675)"/></clipPath><clipPath id="dc"><path class="a" d="M253.3-88.134a7.375,7.375,0,0,0,7.219-7.522,7.375,7.375,0,0,0-7.219-7.522,7.375,7.375,0,0,0-7.219,7.522A7.375,7.375,0,0,0,253.3-88.134Z" transform="translate(-246.083 103.178)"/></clipPath><clipPath id="de"><path class="a" d="M261.912-46.04a4.032,4.032,0,0,0,4.029-4.035,4.032,4.032,0,0,0-4.029-4.035,4.032,4.032,0,0,0-4.029,4.035A4.032,4.032,0,0,0,261.912-46.04Z" transform="translate(-257.882 54.11)"/></clipPath><clipPath id="dg"><path class="b" d="M684.572-152.219h-7.464v-2.965h7.464V-166h2.965v10.817h8.811v2.965h-8.811v21.289h3.953v2.989h-4.151a2.779,2.779,0,0,1-2.767-2.79Z" transform="translate(-677.108 166)"/></clipPath><clipPath id="di"><rect class="b" width="31.091" height="45.832"/></clipPath><clipPath id="dj"><path class="b" d="M677-127.673h19.3V-166H677Z" transform="translate(-677 166)"/></clipPath><clipPath id="dk"><path class="a" d="M706.755-163.521A12.568,12.568,0,0,0,719.314-176.1a12.568,12.568,0,0,0-12.559-12.577,12.569,12.569,0,0,0-12.56,12.577A12.569,12.569,0,0,0,706.755-163.521Z" transform="translate(-694.195 188.675)"/></clipPath><clipPath id="dm"><path class="a" d="M693.3-88.134a7.375,7.375,0,0,0,7.219-7.522,7.375,7.375,0,0,0-7.219-7.522,7.375,7.375,0,0,0-7.219,7.522A7.375,7.375,0,0,0,693.3-88.134Z" transform="translate(-686.083 103.178)"/></clipPath><clipPath id="do"><path class="a" d="M701.911-46.04a4.032,4.032,0,0,0,4.03-4.035,4.032,4.032,0,0,0-4.03-4.035,4.032,4.032,0,0,0-4.029,4.035A4.032,4.032,0,0,0,701.911-46.04Z" transform="translate(-697.882 54.11)"/></clipPath><clipPath id="dq"><path class="b" d="M433.176-140.069v12.095h-2.99V-166h2.99v20.1l11.168-9.209H449l.021.026-14.607,12.044,15.523,15.078-.023.024h-4.248Z" transform="translate(-430.186 166)"/></clipPath><clipPath id="ds"><rect class="b" width="46.904" height="52.265"/></clipPath><clipPath id="dt"><path class="b" d="M430-127.673h19.834V-166H430Z" transform="translate(-430 166)"/></clipPath><clipPath id="du"><path class="a" d="M449.36-102.391A12.638,12.638,0,0,0,462.026-115a12.638,12.638,0,0,0-12.666-12.61A12.638,12.638,0,0,0,436.694-115,12.638,12.638,0,0,0,449.36-102.391Z" transform="translate(-436.694 127.612)"/></clipPath><clipPath id="dw"><path class="a" d="M404.521-113.834a10.976,10.976,0,0,0,10.963-10.988,10.976,10.976,0,0,0-10.963-10.988,10.976,10.976,0,0,0-10.963,10.988A10.976,10.976,0,0,0,404.521-113.834Z" transform="translate(-393.558 135.811)"/></clipPath><clipPath id="dy"><path class="a" d="M446.653-41.417c4.884,0,8.843-4.528,8.843-10.113s-3.959-10.113-8.843-10.113-8.844,4.528-8.844,10.113S441.768-41.417,446.653-41.417Z" transform="translate(-437.809 61.643)"/></clipPath><clipPath id="ea"><path class="a" d="M434.612-111.286a4.989,4.989,0,0,0,4.983-4.995,4.989,4.989,0,0,0-4.983-4.995,4.989,4.989,0,0,0-4.983,4.995A4.989,4.989,0,0,0,434.612-111.286Z" transform="translate(-429.628 121.276)"/></clipPath><clipPath id="ec"><path class="a" d="M370.526-61.766a12.638,12.638,0,0,0,12.666-12.61,12.638,12.638,0,0,0-12.666-12.61,12.638,12.638,0,0,0-12.666,12.61A12.638,12.638,0,0,0,370.526-61.766Z" transform="translate(-357.859 86.987)"/></clipPath><clipPath id="ee"><path class="a" d="M406.605-166.03a7.082,7.082,0,0,0,7.1-7.066,7.082,7.082,0,0,0-7.1-7.066,7.082,7.082,0,0,0-7.1,7.066A7.082,7.082,0,0,0,406.605-166.03Z" transform="translate(-399.508 180.163)"/></clipPath><clipPath id="eg"><path class="b" d="M178.354-100.219l-1.237-.747,1.5-2.471,1.237.747c4.241,2.563,6.087,2,7.5.515a4.543,4.543,0,0,0,1.269-4.364c-.582-1.524-2.224-2.738-4.86-3.261a7.957,7.957,0,0,1-6.616-6.306,7.223,7.223,0,0,1,2.846-7.447c2.968-1.925,5.744-2.057,9.744.384l1.233.753-1.507,2.464-1.233-.753c-3.135-1.913-4.751-1.667-6.663-.426a4.371,4.371,0,0,0-1.583,4.478,5.08,5.08,0,0,0,4.341,4.021c3.553.7,6.034,2.539,7,5.065a7.191,7.191,0,0,1-1.587,7.349,6.56,6.56,0,0,1-5.366,2.257A13.485,13.485,0,0,1,178.354-100.219Z" transform="translate(-177 125)"/></clipPath><clipPath id="ei"><rect class="b" width="39.4" height="49.584"/></clipPath><clipPath id="ej"><path class="b" d="M175-99.857h15.813V-128H175Z" transform="translate(-175 128)"/></clipPath><clipPath id="ek"><path class="a" d="M152.832-32.8a12.219,12.219,0,0,0,12.251-12.187A12.219,12.219,0,0,0,152.832-57.17a12.219,12.219,0,0,0-12.251,12.187A12.219,12.219,0,0,0,152.832-32.8Z" transform="translate(-140.581 57.17)"/></clipPath><clipPath id="em"><path class="a" d="M151.189-101.96A10.6,10.6,0,0,0,161.8-112.548a10.6,10.6,0,0,0-10.608-10.588,10.6,10.6,0,0,0-10.608,10.588A10.6,10.6,0,0,0,151.189-101.96Z" transform="translate(-140.581 123.137)"/></clipPath><clipPath id="eo"><path class="a" d="M177-115.783a4.813,4.813,0,0,0,4.831-4.795A4.813,4.813,0,0,0,177-125.373a4.813,4.813,0,0,0-4.831,4.795A4.813,4.813,0,0,0,177-115.783Z" transform="translate(-172.169 125.373)"/></clipPath><clipPath id="eq"><path class="a" d="M207.089-65.221A12.219,12.219,0,0,0,219.34-77.407a12.219,12.219,0,0,0-12.251-12.187,12.219,12.219,0,0,0-12.251,12.187A12.219,12.219,0,0,0,207.089-65.221Z" transform="translate(-194.838 89.594)"/></clipPath><clipPath id="es"><path class="a" d="M201.71-137.131a6.833,6.833,0,0,0,6.873-6.793,6.833,6.833,0,0,0-6.873-6.793,6.833,6.833,0,0,0-6.873,6.793A6.833,6.833,0,0,0,201.71-137.131Z" transform="translate(-194.838 150.716)"/></clipPath><clipPath id="eu"><path class="b" d="M505.263-125h3.377l8.332,15.71L524.325-125h3.3L511.94-91.5h-3.295l6.744-14.411Z" transform="translate(-505.263 125)"/></clipPath><clipPath id="ew"><rect class="b" width="43.152" height="48.512"/></clipPath><clipPath id="ex"><path class="b" d="M505-91.5h22.514V-125H505Z" transform="translate(-505 125)"/></clipPath><clipPath id="ey"><path class="a" d="M465.253-121.8a12.569,12.569,0,0,0,12.66-12.476,12.569,12.569,0,0,0-12.66-12.476,12.569,12.569,0,0,0-12.66,12.476A12.569,12.569,0,0,0,465.253-121.8Z" transform="translate(-452.593 146.755)"/></clipPath><clipPath id="fa"><path class="a" d="M494.772-26.193a10.915,10.915,0,0,0,10.958-10.871,10.915,10.915,0,0,0-10.958-10.871,10.915,10.915,0,0,0-10.958,10.871A10.915,10.915,0,0,0,494.772-26.193Z" transform="translate(-483.814 47.935)"/></clipPath><clipPath id="fc"><path class="a" d="M551.981-89.306a4.961,4.961,0,0,0,4.981-4.941,4.961,4.961,0,0,0-4.981-4.941A4.961,4.961,0,0,0,547-94.247,4.961,4.961,0,0,0,551.981-89.306Z" transform="translate(-547 99.189)"/></clipPath><clipPath id="fe"><path class="a" d="M531.041-62.806A12.569,12.569,0,0,0,543.7-75.282a12.569,12.569,0,0,0-12.66-12.476,12.569,12.569,0,0,0-12.66,12.476A12.569,12.569,0,0,0,531.041-62.806Z" transform="translate(-518.38 87.758)"/></clipPath><clipPath id="fg"><path class="a" d="M554.094-126.874a7.043,7.043,0,0,0,7.094-6.991,7.043,7.043,0,0,0-7.094-6.991A7.043,7.043,0,0,0,547-133.865,7.043,7.043,0,0,0,554.094-126.874Z" transform="translate(-547 140.856)"/></clipPath><clipPath id="fi"><path class="b" d="M591-125h3.006v18.287c0,.9.9,2.356,2.369,3.576a9.177,9.177,0,0,0,5.762,2.222c3.362-.019,7.3-3.176,7.3-5.8V-125h3.006v18.287c0,4.425-5.4,8.756-10.288,8.783a12.163,12.163,0,0,1-7.706-2.916c-2.089-1.733-3.448-3.935-3.448-5.867Z" transform="translate(-591 125)"/></clipPath><clipPath id="fk"><rect class="b" width="43.42" height="43.42"/></clipPath><clipPath id="fl"><path class="b" d="M591-97.662h21.442V-125H591Z" transform="translate(-591 125)"/></clipPath><clipPath id="fm"><path class="a" d="M640-78.708a12.649,12.649,0,0,0,12.733-12.564A12.649,12.649,0,0,0,640-103.835a12.649,12.649,0,0,0-12.733,12.564A12.649,12.649,0,0,0,640-78.708Z" transform="translate(-627.262 103.835)"/></clipPath><clipPath id="fo"><path class="a" d="M569.984-91.853c4.91,0,8.89-4.511,8.89-10.075S574.894-112,569.984-112s-8.891,4.511-8.891,10.075S565.074-91.853,569.984-91.853Z" transform="translate(-561.094 112.004)"/></clipPath><clipPath id="fq"><path class="a" d="M657.318-123.588a4.993,4.993,0,0,0,5.01-4.976,4.993,4.993,0,0,0-5.01-4.976,4.993,4.993,0,0,0-5.01,4.976A4.993,4.993,0,0,0,657.318-123.588Z" transform="translate(-652.308 133.54)"/></clipPath><clipPath id="fs"><path class="a" d="M588.78-49.373a12.649,12.649,0,0,0,12.733-12.564A12.649,12.649,0,0,0,588.78-74.5a12.649,12.649,0,0,0-12.734,12.564A12.649,12.649,0,0,0,588.78-49.373Z" transform="translate(-576.047 74.5)"/></clipPath><clipPath id="fu"><path class="a" d="M571.593-127.258a7.088,7.088,0,0,0,7.135-7.04,7.088,7.088,0,0,0-7.135-7.04,7.088,7.088,0,0,0-7.135,7.04A7.088,7.088,0,0,0,571.593-127.258Z" transform="translate(-564.458 141.338)"/></clipPath></defs><g transform="translate(-39.321 -1)"><text class="c" transform="translate(188 74.4)"><tspan x="0" y="0" xml:space="preserve">Under supervision of  </tspan></text><g transform="translate(39.321 19.39)"><g class="d" transform="translate(232.109 1.068)"><g class="e" transform="translate(-251.407 -59.229)"><path class="f" d="M861-167.017h4.192v7.276H861Z" transform="translate(-610.933 224.905)"/></g></g><g class="g" transform="translate(232.109 5.366)"><g class="e" transform="translate(-251.407 -63.527)"><path class="f" d="M865.193-143.7H861v-7.276h4.192Z" transform="translate(-610.933 213.167)"/></g></g><g class="h" transform="translate(241.586 1.068)"><g class="e" transform="translate(-260.884 -59.229)"><path class="i" d="M896.358-167.017h4.193v7.276h-4.193Z" transform="translate(-636.814 224.905)"/></g></g><g class="j" transform="translate(241.586 5.366)"><g class="e" transform="translate(-260.884 -63.527)"><path class="i" d="M900.55-143.7h-4.193v-7.276h4.193Z" transform="translate(-636.814 213.167)"/></g></g><g class="k" transform="translate(237.536 0.039)"><g class="e" transform="translate(-256.834 -58.2)"><path class="i" d="M888.525-170.855v4.192h-7.276v-4.192Z" transform="translate(-625.755 227.715)"/></g></g><g class="l" transform="translate(233.075 0.039)"><g class="e" transform="translate(-252.373 -58.2)"><path class="i" d="M864.6-166.663v-4.192h7.276v4.192Z" transform="translate(-613.571 227.715)"/></g></g><g class="m" transform="translate(237.536 9.479)"><g class="e" transform="translate(-256.834 -67.64)"><path class="f" d="M888.525-135.636v4.193h-7.276v-4.193Z" transform="translate(-625.755 201.935)"/></g></g><g class="n" transform="translate(233.075 9.479)"><g class="e" transform="translate(-252.373 -67.64)"><path class="f" d="M864.6-131.443v-4.193h7.276v4.193Z" transform="translate(-613.571 201.935)"/></g></g><g class="o" transform="translate(237.536 18.819)"><g class="e" transform="translate(-256.834 -76.98)"><path class="f" d="M888.525-100.787v4.193h-7.276v-4.193Z" transform="translate(-625.755 176.427)"/></g></g><g class="p" transform="translate(233.075 18.819)"><g class="e" transform="translate(-252.373 -76.98)"><path class="f" d="M864.6-96.594v-4.193h7.276v4.193Z" transform="translate(-613.571 176.427)"/></g></g><g class="q" transform="translate(241.586 10.408)"><g class="e" transform="translate(-260.884 -68.569)"><path class="f" d="M896.358-132.168h4.193v7.276h-4.193Z" transform="translate(-636.814 199.397)"/></g></g><g class="r" transform="translate(241.586 14.805)"><g class="e" transform="translate(-260.884 -72.967)"><path class="f" d="M900.55-108.485h-4.193v-7.276h4.193Z" transform="translate(-636.814 187.388)"/></g></g><g class="s" transform="translate(232.109 10.408)"><g class="e" transform="translate(-251.407 -68.569)"><path class="f" d="M861-132.168h4.192v7.276H861Z" transform="translate(-610.933 199.397)"/></g></g><g class="t" transform="translate(232.109 14.805)"><g class="e" transform="translate(-251.407 -72.967)"><path class="f" d="M865.193-108.485H861v-7.276h4.192Z" transform="translate(-610.933 187.388)"/></g></g><g class="u" transform="translate(37.309 21.747)"><g class="e" transform="translate(-56.607 -79.908)"><path class="i" d="M144.065-65.2H134.2V-89.861h9.863Z" transform="translate(-78.935 168.429)"/></g></g><g class="v" transform="translate(0 0.008)"><g class="e" transform="translate(-19.298 -58.169)"><g class="w" transform="translate(13.133 52.265)"><g class="x" transform="translate(6.165 5.897)"><path class="y" d="M-5-170.971H42.172v47.164H-5Z" transform="translate(3.66 169.638)"/></g><g class="z" transform="translate(29.508 30.219)"><g class="x" transform="translate(-23.343 -24.322)"><path class="aa" d="M82.094-80.253h21.528v21.4H82.094Z" transform="translate(-60.091 103.236)"/></g></g><g class="ab" transform="translate(20.254 37.486)"><g class="x" transform="translate(-14.089 -31.589)"><path class="ac" d="M47.567-53.14H69.095v21.4H47.567Z" transform="translate(-34.818 83.389)"/></g></g><g class="ad" transform="translate(9.576 33.333)"><g class="x" transform="translate(-3.411 -27.437)"><path class="ae" d="M7.727-68.633H29.255v21.4H7.727Z" transform="translate(-5.656 94.73)"/></g></g><g class="af" transform="translate(0.158 26.659)"><g class="x" transform="translate(6.006 -20.763)"><path class="i" d="M-27.41-93.533H-5.882v21.4H-27.41Z" transform="translate(20.063 112.956)"/></g></g><g class="ag" transform="translate(37.828 19.837)"><g class="x" transform="translate(-31.664 -13.941)"><path class="ah" d="M113.137-118.987h21.528v21.4H113.137Z" transform="translate(-82.813 131.587)"/></g></g><g class="ai" transform="translate(37.606 6.267)"><g class="x" transform="translate(-31.441 -0.371)"><path class="aj" d="M112.307-169.617h21.528v21.4H112.307Z" transform="translate(-82.206 168.647)"/></g></g><g class="ak" transform="translate(2.679 11.68)"><g class="x" transform="translate(3.485 -5.784)"><path class="al" d="M-18-149.42H3.525v21.4H-18Z" transform="translate(13.178 153.864)"/></g></g><g class="am" transform="translate(23.442 0.038)"><g class="x" transform="translate(-17.278 5.858)"><path class="an" d="M59.463-192.857H80.991v21.4H59.463Z" transform="translate(-43.526 185.658)"/></g></g><g class="ao" transform="translate(9.576 2.337)"><g class="x" transform="translate(-3.411 3.559)"><path class="ap" d="M7.727-184.28H29.255v21.4H7.727Z" transform="translate(-5.656 179.381)"/></g></g></g></g></g><g class="aq" transform="translate(107.739 24.687)"><g class="e" transform="translate(-127.037 -82.848)"><path class="i" d="M403.95-63h-6.976v-15.9h6.976Z" transform="translate(-271.278 160.401)"/></g></g><g class="ar" transform="translate(84.964 11.015)"><g class="e" transform="translate(-104.261 -69.176)"><g class="as" transform="translate(100.509 65.398)"><g class="at" transform="translate(3.752 3.752)"><path class="y" d="M312-100.183h29.751V-129.9H312Z" transform="translate(-313.34 128.589)"/></g><g class="au" transform="translate(17.887 4.658)"><g class="at" transform="translate(-14.135 -0.906)"><path class="aa" d="M364.736-112.559h14.148v-14.06H364.736Z" transform="translate(-351.942 126.185)"/></g></g><g class="av" transform="translate(12.325 0.241)"><g class="at" transform="translate(-8.572 3.511)"><path class="ac" d="M343.983-129.04h14.148V-143.1H343.983Z" transform="translate(-336.751 138.249)"/></g></g><g class="aw" transform="translate(5.828 2.765)"><g class="at" transform="translate(-2.075 0.987)"><path class="ae" d="M319.743-119.622h14.148v-14.06H319.743Z" transform="translate(-319.008 131.355)"/></g></g><g class="ax" transform="translate(0.098 6.822)"><g class="at" transform="translate(3.655 -3.07)"><path class="i" d="M298.365-104.487h14.148v-14.06H298.365Z" transform="translate(-303.36 120.277)"/></g></g><g class="ay" transform="translate(23.017 10.969)"><g class="at" transform="translate(-19.265 -7.216)"><path class="ah" d="M383.878-89.015h14.148v-14.06H383.878Z" transform="translate(-365.953 108.952)"/></g></g><g class="az" transform="translate(22.882 19.217)"><g class="at" transform="translate(-19.13 -15.465)"><path class="aj" d="M383.373-58.24h14.148V-72.3H383.373Z" transform="translate(-365.584 86.425)"/></g></g><g class="ba" transform="translate(1.632 15.927)"><g class="at" transform="translate(2.121 -12.175)"><path class="al" d="M304.088-70.516h14.148v-14.06H304.088Z" transform="translate(-307.549 95.411)"/></g></g><g class="bb" transform="translate(14.265 23.004)"><g class="at" transform="translate(-10.512 -19.251)"><path class="an" d="M351.222-44.113H365.37v-14.06H351.222Z" transform="translate(-342.05 76.085)"/></g></g><g class="bc" transform="translate(5.828 21.606)"><g class="at" transform="translate(-2.075 -17.854)"><path class="ap" d="M319.743-49.326h14.148v-14.06H319.743Z" transform="translate(-319.008 79.901)"/></g></g></g></g></g><g class="bd" transform="translate(224.061 24.687)"><g class="e" transform="translate(-243.359 -82.848)"><path class="i" d="M837.95-63h-6.976v-15.9h6.976Z" transform="translate(-588.955 160.401)"/></g></g><g class="be" transform="translate(201.286 11.015)"><g class="e" transform="translate(-220.584 -69.176)"><g class="as" transform="translate(216.832 65.398)"><g class="bf" transform="translate(3.752 3.752)"><path class="y" d="M775.751-100.183H746V-129.9h29.751Z" transform="translate(-747.34 128.589)"/></g><g class="bg" transform="translate(5.221 4.658)"><g class="bf" transform="translate(-1.468 -0.906)"><path class="aa" d="M765.626-112.559H751.478v-14.06h14.148Z" transform="translate(-751.35 126.185)"/></g></g><g class="bh" transform="translate(10.783 0.241)"><g class="bf" transform="translate(-7.031 3.511)"><path class="ac" d="M786.379-129.04H772.231V-143.1h14.148Z" transform="translate(-766.541 138.249)"/></g></g><g class="bi" transform="translate(17.28 2.765)"><g class="bf" transform="translate(-13.527 0.987)"><path class="ae" d="M810.619-119.622H796.471v-14.06h14.148Z" transform="translate(-784.284 131.355)"/></g></g><g class="bj" transform="translate(23.01 6.822)"><g class="bf" transform="translate(-19.257 -3.07)"><path class="i" d="M832-104.487H817.85v-14.06H832Z" transform="translate(-799.932 120.277)"/></g></g><g class="bk" transform="translate(0.09 10.969)"><g class="bf" transform="translate(3.662 -7.216)"><path class="ah" d="M746.484-89.015H732.336v-14.06h14.148Z" transform="translate(-737.338 108.952)"/></g></g><g class="bl" transform="translate(0.225 19.217)"><g class="bf" transform="translate(3.527 -15.465)"><path class="aj" d="M746.989-58.24H732.841V-72.3h14.148Z" transform="translate(-737.708 86.425)"/></g></g><g class="bm" transform="translate(21.476 15.927)"><g class="bf" transform="translate(-17.723 -12.175)"><path class="al" d="M826.274-70.516H812.126v-14.06h14.148Z" transform="translate(-795.743 95.411)"/></g></g><g class="bn" transform="translate(8.843 23.004)"><g class="bf" transform="translate(-5.091 -19.251)"><path class="an" d="M779.141-44.113H764.993v-14.06h14.148Z" transform="translate(-761.242 76.085)"/></g></g><g class="bo" transform="translate(17.28 21.606)"><g class="bf" transform="translate(-13.527 -17.854)"><path class="ap" d="M810.619-49.326H796.471v-14.06h14.148Z" transform="translate(-784.284 79.901)"/></g></g></g></g></g><g class="bp" transform="translate(63.551)"><g class="e" transform="translate(-82.848 -58.161)"><g class="bq" transform="translate(81.479 51.997)"><g class="br" transform="translate(1.34 6.165)"><path class="i" d="M232.108-171h21.92v40.74h-21.92Z" transform="translate(-233.419 169.66)"/></g><g class="bs" transform="translate(5.949 0.087)"><g class="br" transform="translate(-4.609 6.078)"><path class="bt" d="M249.195-193.675h27.8v27.835h-27.8Z" transform="translate(-245.926 186.258)"/></g></g><g class="bu" transform="translate(3.775 23.002)"><g class="br" transform="translate(-2.434 -16.838)"><path class="bv" d="M241.083-108.178H258.2v17.725H241.083Z" transform="translate(-239.988 123.676)"/></g></g><g class="bw" transform="translate(6.937 36.154)"><g class="br" transform="translate(-5.597 -29.989)"><path class="bx" d="M252.882-59.11h10.739v10.75H252.882Z" transform="translate(-248.625 87.759)"/></g></g></g></g></g><g class="by" transform="translate(181.481)"><g class="e" transform="translate(-200.779 -58.161)"><g class="bz" transform="translate(199.41 51.997)"><g class="ca" transform="translate(1.34 6.165)"><path class="i" d="M672.108-171h21.92v40.74h-21.92Z" transform="translate(-673.419 169.66)"/></g><g class="cb" transform="translate(5.949 0.087)"><g class="ca" transform="translate(-4.609 6.078)"><path class="bt" d="M689.195-193.675h27.8v27.835h-27.8Z" transform="translate(-685.927 186.258)"/></g></g><g class="cc" transform="translate(3.775 23.002)"><g class="ca" transform="translate(-2.434 -16.838)"><path class="bv" d="M681.083-108.178H698.2v17.725H681.083Z" transform="translate(-679.988 123.676)"/></g></g><g class="cd" transform="translate(6.937 36.154)"><g class="ca" transform="translate(-5.597 -29.989)"><path class="bx" d="M692.882-59.11h10.739v10.75H692.882Z" transform="translate(-688.625 87.759)"/></g></g></g></g></g><g class="ce" transform="translate(115.3)"><g class="e" transform="translate(-134.598 -58.161)"><g class="cf" transform="translate(114.982 54.141)"><g class="cg" transform="translate(19.566 4.02)"><path class="i" d="M425.186-171h22.429v40.74H425.186Z" transform="translate(-426.476 169.66)"/></g><g class="ch" transform="translate(21.36 14.309)"><g class="cg" transform="translate(-1.794 -10.289)"><path class="an" d="M431.694-132.611h28.013v27.9H431.694Z" transform="translate(-431.24 141.56)"/></g></g><g class="ci" transform="translate(9.798 12.112)"><g class="cg" transform="translate(9.767 -8.091)"><path class="aj" d="M388.558-140.811h24.607v24.657H388.558Z" transform="translate(-399.665 147.562)"/></g></g><g class="cj" transform="translate(21.659 31.991)"><g class="cg" transform="translate(-2.093 -27.97)"><path class="ck" d="M432.809-66.643h20.367v22.906H432.809Z" transform="translate(-432.056 93.273)"/></g></g><g class="cl" transform="translate(19.466 16.008)"><g class="cg" transform="translate(0.1 -11.987)"><path class="ck" d="M424.628-126.276h12.647v12.67H424.628Z" transform="translate(-426.068 136.923)"/></g></g><g class="cm" transform="translate(0.23 25.198)"><g class="cg" transform="translate(19.335 -21.177)"><path class="ae" d="M352.859-91.987h28.013v27.9H352.859Z" transform="translate(-373.535 111.824)"/></g></g><g class="cn" transform="translate(11.393 0.224)"><g class="cg" transform="translate(8.173 3.796)"><path class="al" d="M394.508-185.163h16.875v16.813H394.508Z" transform="translate(-404.02 180.027)"/></g></g></g></g></g><g class="co" transform="translate(47.44 10.989)"><g class="e" transform="translate(-66.738 -69.15)"><g class="cp" transform="translate(56.821 62.182)"><g class="cq" transform="translate(9.381 6.165)"><path class="i" d="M172-130h17.422v29.751H172Z" transform="translate(-172.804 129.464)"/></g><g class="cr" transform="translate(0.156 25.149)"><g class="cq" transform="translate(9.225 -18.984)"><path class="an" d="M135.581-62.17h27.183v27.054H135.581Z" transform="translate(-146.146 79.814)"/></g></g><g class="cs" transform="translate(0.156 7.468)"><g class="cq" transform="translate(9.225 -1.304)"><path class="aj" d="M135.581-128.137h23.9v23.857h-23.9Z" transform="translate(-146.146 128.1)"/></g></g><g class="ct" transform="translate(8.622 6.869)"><g class="cq" transform="translate(0.759 -0.704)"><path class="ck" d="M167.169-130.373h12.342v12.27H167.169Z" transform="translate(-169.268 129.737)"/></g></g><g class="cu" transform="translate(14.698 16.458)"><g class="cq" transform="translate(-5.317 -10.294)"><path class="ae" d="M189.838-94.594h27.183V-67.54H189.838Z" transform="translate(-185.861 103.548)"/></g></g><g class="cv" transform="translate(14.698 0.076)"><g class="cq" transform="translate(-5.317 6.088)"><path class="al" d="M189.838-155.716h16.426v16.265H189.838Z" transform="translate(-185.861 148.287)"/></g></g></g></g></g><g class="cw" transform="translate(135.423 10.989)"><g class="e" transform="translate(-154.721 -69.15)"><g class="cx" transform="translate(140.445 63.254)"><g class="cy" transform="translate(14.205 5.897)"><path class="i" d="M500.263-130H525.3v36.183H500.263Z" transform="translate(-501.533 128.66)"/></g><g class="cz" transform="translate(0.159 0.066)"><g class="cy" transform="translate(14.046 5.831)"><path class="an" d="M447.593-151.755h28v27.632h-28Z" transform="translate(-462.979 144.584)"/></g></g><g class="da" transform="translate(8.527 26.552)"><g class="cy" transform="translate(5.678 -20.655)"><path class="aj" d="M478.814-52.935h24.6v24.423h-24.6Z" transform="translate(-485.833 72.25)"/></g></g><g class="db" transform="translate(25.462 12.815)"><g class="cy" transform="translate(-11.257 -6.918)"><path class="ck" d="M542-104.189h12.642v12.563H542Z" transform="translate(-532.083 109.767)"/></g></g><g class="dc" transform="translate(17.792 15.878)"><g class="cy" transform="translate(-3.586 -9.982)"><path class="ae" d="M513.381-92.758h28v27.632h-28Z" transform="translate(-511.134 101.4)"/></g></g><g class="dd" transform="translate(25.462 1.647)"><g class="cy" transform="translate(-11.257 4.25)"><path class="al" d="M542-145.856h16.869v16.662H542Z" transform="translate(-532.083 140.266)"/></g></g></g></g></g><g class="de" transform="translate(158.402 10.989)"><g class="e" transform="translate(-177.7 -69.15)"><g class="df" transform="translate(169.659 64.594)"><g class="dg" transform="translate(8.041 4.556)"><path class="i" d="M586-130h24.122v29.751H586Z" transform="translate(-587.34 128.66)"/></g><g class="dh" transform="translate(17.76 10.229)"><g class="dg" transform="translate(-9.719 -5.673)"><path class="an" d="M622.262-108.835h28.147v27.807H622.262Z" transform="translate(-613.883 113.167)"/></g></g><g class="di" transform="translate(0.025 8.04)"><g class="dg" transform="translate(8.016 -3.483)"><path class="dj" d="M556.094-117h20.461v22.831H556.094Z" transform="translate(-565.449 119.147)"/></g></g><g class="dk" transform="translate(24.473 2.267)"><g class="dg" transform="translate(-16.432 2.289)"><path class="ck" d="M647.308-138.54h12.7v12.633h-12.7Z" transform="translate(-632.216 134.911)"/></g></g><g class="dl" transform="translate(4.033 18.092)"><g class="dg" transform="translate(4.008 -13.535)"><path class="ae" d="M571.047-79.5h28.147v27.807H571.047Z" transform="translate(-576.395 91.695)"/></g></g><g class="dm" transform="translate(0.927 0.177)"><g class="dg" transform="translate(7.114 4.379)"><path class="al" d="M559.458-146.338h16.951v16.76H559.458Z" transform="translate(-567.912 140.619)"/></g></g></g></g></g></g><text class="dn" transform="translate(39.56 12)"><tspan x="0" y="0">Crafted With Love by</tspan></text></g></svg>