<svg xmlns="http://www.w3.org/2000/svg" xmlns:xlink="http://www.w3.org/1999/xlink" width="739.269" height="528.962" viewBox="0 0 739.269 528.962">
  <defs>
    <linearGradient id="linear-gradient" y1="0.5" x2="1" y2="0.5" gradientUnits="objectBoundingBox">
      <stop offset="0" stop-color="#0080ff"/>
      <stop offset="0" stop-color="#50a8ff"/>
      <stop offset="0.402" stop-color="#61b0ff"/>
      <stop offset="0.741" stop-color="#97cbff"/>
      <stop offset="1" stop-color="#fff"/>
    </linearGradient>
    <linearGradient id="linear-gradient-2" x1="-0.254" x2="1.764" y2="1" gradientUnits="objectBoundingBox">
      <stop offset="0" stop-color="#0080ff"/>
      <stop offset="1" stop-color="#fff"/>
    </linearGradient>
  </defs>
  <g id="FAQ" transform="translate(-0.032 0.173)">
    <g id="Layer_2" data-name="Layer 2" transform="translate(0.032 -3.948)">
      <g id="Isolation_Mode" data-name="Isolation Mode" transform="translate(0 0)">
        <path id="Path_2737" data-name="Path 2737" d="M123.719,445.539S59.242,453.9,95.791,463.345s193.726-11.7,214.256-5.62-40.84,15.981-24.372,21.142S768.8,471.316,741.923,444.01Z" transform="translate(-3.771 -15.864)" fill="#517793" opacity="0.15"/>
        <ellipse id="Ellipse_72" data-name="Ellipse 72" cx="29.065" cy="5.524" rx="29.065" ry="5.524" transform="translate(348.177 521.688)" fill="#517793" opacity="0.15"/>
        <ellipse id="Ellipse_73" data-name="Ellipse 73" cx="70.689" cy="13.476" rx="70.689" ry="13.476" transform="translate(505.574 488.914)" fill="#517793" opacity="0.15"/>
        <path id="Path_2738" data-name="Path 2738" d="M119.98,425.9S4.666,380.5,2.152,303.487C-.142,233.094,58.084,238.6,71.015,210.146,93.954,159.643,16.689,142.812,2.2,97.671-10.914,57.088,36.2-6.289,123.8.507c88.753,6.882,162.2,94.87,213.472,102.526s120.112-85.695,218.815-49.7c63.081,22.939,99.334,95.874,49.28,198.658S734.4,373.144,738.222,424.411Z" transform="translate(-0.032 3.773)" fill="url(#linear-gradient)"/>
        <path id="Path_2739" data-name="Path 2739" d="M165,160.91H559.677A9.089,9.089,0,0,1,568.766,170V417.918a1.281,1.281,0,0,1-1.281,1.281H157.2a1.281,1.281,0,0,1-1.281-1.281V170A9.089,9.089,0,0,1,165,160.91Z" transform="translate(-6.926 -3.343)" fill="#f5f5f8" stroke="#dddeea" stroke-miterlimit="10" stroke-width="1.34"/>
        <path id="Path_2740" data-name="Path 2740" d="M170.82,188.53H555.615v226.9a1.281,1.281,0,0,1-1.281,1.281H172.11a1.281,1.281,0,0,1-1.281-1.281V188.53Z" transform="translate(-7.585 -4.565)" fill="#f0faff"/>
        <rect id="Rectangle_184" data-name="Rectangle 184" width="272.721" height="12.76" transform="translate(266.172 195.129)" fill="#f63"/>
        <rect id="Rectangle_185" data-name="Rectangle 185" width="181.721" height="3.231" transform="translate(532.871 222.492) rotate(180)" fill="gray"/>
        <rect id="Rectangle_186" data-name="Rectangle 186" width="181.721" height="3.231" transform="translate(532.871 232.337) rotate(180)" fill="gray"/>
        <rect id="Rectangle_187" data-name="Rectangle 187" width="153.564" height="3.231" transform="translate(532.871 241.312) rotate(180)" fill="gray"/>
        <rect id="Rectangle_188" data-name="Rectangle 188" width="181.721" height="3.231" transform="translate(532.871 292.904) rotate(180)" fill="gray"/>
        <rect id="Rectangle_189" data-name="Rectangle 189" width="181.721" height="3.231" transform="translate(532.871 302.749) rotate(180)" fill="gray"/>
        <rect id="Rectangle_190" data-name="Rectangle 190" width="153.564" height="3.231" transform="translate(532.871 311.724) rotate(180)" fill="gray"/>
        <rect id="Rectangle_191" data-name="Rectangle 191" width="181.721" height="3.231" transform="translate(532.871 369.089) rotate(180)" fill="gray"/>
        <rect id="Rectangle_192" data-name="Rectangle 192" width="181.721" height="3.231" transform="translate(532.871 378.943) rotate(180)" fill="gray"/>
        <rect id="Rectangle_193" data-name="Rectangle 193" width="153.564" height="3.231" transform="translate(532.871 387.908) rotate(180)" fill="gray"/>
        <rect id="Rectangle_194" data-name="Rectangle 194" width="272.721" height="14.289" transform="translate(266.439 265.13)" fill="#01b289"/>
        <rect id="Rectangle_195" data-name="Rectangle 195" width="272.721" height="14.748" transform="translate(266.86 338.581)" fill="#3ea3ff"/>
        <path id="Path_2741" data-name="Path 2741" d="M131.7,427.23H590.557s3.823,15.292-40.487,15.292H150.338S136.2,441.347,131.7,427.23Z" transform="translate(-5.855 -15.121)" fill="#edeef4"/>
        <path id="Path_2742" data-name="Path 2742" d="M403.675,431.9H326.544c-4.014,0-7.264-1.978-7.264-4.425h91.659C410.939,429.888,407.689,431.9,403.675,431.9Z" transform="translate(-14.151 -15.132)" fill="#c8cbd6"/>
        <path id="Path_2743" data-name="Path 2743" d="M566.732,439.324H154.909c-11.68,0-21.352-5.19-23.235-11.985h-.354v2.542c0,7.943,10.514,14.337,23.589,14.337H566.751c13.027,0,23.589-6.442,23.589-14.337V427.3h-.354C588.084,434.134,578.412,439.324,566.732,439.324Z" transform="translate(-5.838 -15.125)" fill="#dfe1e8"/>
        <circle id="Ellipse_74" data-name="Ellipse 74" cx="25.032" cy="25.032" r="25.032" transform="translate(192.778 204.495)" fill="#c8cbd6"/>
        <circle id="Ellipse_75" data-name="Ellipse 75" cx="2.896" cy="2.896" r="2.896" transform="translate(204.333 226.545)" fill="#fff"/>
        <circle id="Ellipse_76" data-name="Ellipse 76" cx="2.896" cy="2.896" r="2.896" transform="translate(215.64 226.545)" fill="#fff"/>
        <circle id="Ellipse_77" data-name="Ellipse 77" cx="2.896" cy="2.896" r="2.896" transform="translate(226.956 226.545)" fill="#fff"/>
        <circle id="Ellipse_78" data-name="Ellipse 78" cx="25.032" cy="25.032" r="25.032" transform="translate(192.778 280.957)" fill="#c8cbd6"/>
        <circle id="Ellipse_79" data-name="Ellipse 79" cx="2.896" cy="2.896" r="2.896" transform="translate(204.333 303.016)" fill="#fff"/>
        <circle id="Ellipse_80" data-name="Ellipse 80" cx="2.896" cy="2.896" r="2.896" transform="translate(215.64 303.016)" fill="#fff"/>
        <circle id="Ellipse_81" data-name="Ellipse 81" cx="2.896" cy="2.896" r="2.896" transform="translate(226.956 303.016)" fill="#fff"/>
        <circle id="Ellipse_82" data-name="Ellipse 82" cx="25.032" cy="25.032" r="25.032" transform="translate(192.778 355.66)" fill="#c8cbd6"/>
        <circle id="Ellipse_83" data-name="Ellipse 83" cx="2.896" cy="2.896" r="2.896" transform="translate(204.333 377.72)" fill="#fff"/>
        <circle id="Ellipse_84" data-name="Ellipse 84" cx="2.896" cy="2.896" r="2.896" transform="translate(215.64 377.72)" fill="#fff"/>
        <circle id="Ellipse_85" data-name="Ellipse 85" cx="2.896" cy="2.896" r="2.896" transform="translate(226.956 377.72)" fill="#fff"/>
        <ellipse id="Ellipse_86" data-name="Ellipse 86" cx="39.54" cy="5.802" rx="39.54" ry="5.802" transform="translate(55.003 426.206)" fill="#517793" opacity="0.15"/>
        <path id="Path_2744" data-name="Path 2744" d="M66.142,358.75l.535.21a7.572,7.572,0,0,1-1.137.382.669.669,0,0,1,.6-.593Z" transform="translate(-2.929 -12.093)" fill="#005600"/>
        <path id="Path_2745" data-name="Path 2745" d="M44.272,360.043c3.211,1.615,5.142,1.787,8.6,1.959,2.867.124,6.232.3,8.334,2.5,1.673,1.73,1.912,4.655,3.9,6.05,1.281.889,4.081,1,5.362,2.342a11.966,11.966,0,0,0,.64,1.912,2.4,2.4,0,0,0-.64-1.912c-1.319-4.54-3.288-13.9-5.582-14.04l-.363-.115A33.1,33.1,0,0,1,69.3,356.63c-2.15,3.431,2.647,11.03,3.345,14.738,1.109,5.735.373,11.469-3.594,15.742C62,394.68,52.2,390.15,44.808,385.3c-4.186-2.753-5.878-5.735-9-9.175-1.281-1.434-2.867-2.246-4.186-3.823-.956-1.128-1.759-3.259-2.953-4.072-2.571-1.806-4.779,1.137-7.532.65a6.209,6.209,0,0,1-3.823-2.867V353.993C26.571,353.132,35.938,355.828,44.272,360.043Z" transform="translate(-0.796 -11.875)" fill="#005600"/>
        <path id="Path_2746" data-name="Path 2746" d="M73,373.78a2.4,2.4,0,0,1,.64,1.912A11.969,11.969,0,0,1,73,373.78Z" transform="translate(-3.259 -12.758)" fill="#005600"/>
        <path id="Path_2747" data-name="Path 2747" d="M89.41,367.723c1.682-3.823,4.559-6.853,6.356-10.514,1.185-2.5,1.118-5.582,2.428-8.009,1.558-2.867,5.735-4.244,8.057-6.633s5.553-7.474,9.1-7.187c4.32.354,8.841,5.888,11.269,9.194,2.17,3.039,6.968,8.516,6.576,12.588-3.135-.411-6.346-5.219-9.347-6.69a31.054,31.054,0,0,0-5.735-2.466c-2.867-.726-4.349,4.358-4.865,7.293-.793,4.483-.43,9-2.389,13.027-1.2,2.456-2.867,4.205-4.349,6.528-1.233,2-2.753,3.078-3.689,5.3-1.587,3.823-1.491,8.353-3.03,12.253a37.457,37.457,0,0,1-7.35,11.727,16.248,16.248,0,0,0-3.058,4.148H81.075c-1.195-3.508-.64-8.086-.487-11.527C81.047,386.829,85.462,376.621,89.41,367.723Z" transform="translate(-3.583 -11.059)" fill="#007500"/>
        <path id="Path_2748" data-name="Path 2748" d="M87.713,330.969c1.587,1.023,2.447,2.638,4.205,3.3.956.354,4.158.832,3.9,2.2h-.593c-.315-1.577-2.17-.487-3.039-.143-1.195.421-2.657.382-3.728,1.032.191-1.912-1.453-3.708-2.418-5.113C84.531,330.061,85.974,329.832,87.713,330.969Z" transform="translate(-3.808 -10.835)" fill="#3bd33b"/>
        <path id="Path_2749" data-name="Path 2749" d="M32.819,289.917l-.3-.468c1.319-.229,1.912.86,2.7,1.74a28.159,28.159,0,0,0,4.043,2.963,69.239,69.239,0,0,1,9.768,7.551c5.343,5.3,9.319,11.852,14.872,16.917,2.256,2.036,2.867,5.276,4.435,7.742s3.489,4.339,5.152,6.537a11.617,11.617,0,0,1,2.867,6.471c.21,2.867-1.4,4.139-3.145,5.964-1.176,1.195-1.912,4.4-3.6,4.4-2.227,0-3.68-5.591-4.616-7.35-3.508-6.6-5.84-13.887-9.94-20.071a196.665,196.665,0,0,0-13.515-18.437c-1.787-2.112-3.422-4.416-5.123-6.576-1.147-1.443-2.762-2.485-3.823-3.928A4.779,4.779,0,0,1,31.51,291C31.529,290.242,32.332,289.171,32.819,289.917Z" transform="translate(-1.424 -9.027)" fill="#048c04"/>
        <path id="Path_2750" data-name="Path 2750" d="M87,330.83a2.928,2.928,0,0,1,.812.277Z" transform="translate(-3.878 -10.858)" fill="#2a992f"/>
        <path id="Path_2751" data-name="Path 2751" d="M74.626,343.516c.363-2.265.392-4.368,1.338-6.557,1.128-2.59,2.944-5.505,5.735-6.308,1.6-.459,4.2-.765,5.515.478l-.1-.048a2.928,2.928,0,0,0-.812-.277,2.928,2.928,0,0,1,.812.277c1.166.66,2.112,2.227,3.393,2.686s3.88.306,4.549,1.74c.354.784-.325.956-.325,1.453,0,1.08.268.956.736,1.73a11.211,11.211,0,0,1,1.491,4.483c.64,5.63.5,11.2-2.867,15.942-.956,1.376-2.064,2.867-1.309,4.664s2.437,2.915,3.058,5.027c1.462,4.779,1.4,15.063-4.119,17.261-4.5,1.816-5.649-5.735-10.093-5.018-3.154.487-6.05,6.528-7.77.468-.765-2.7.745-5.008.573-7.551-.086-1.309-1.023-2.5-1.5-3.756a29.629,29.629,0,0,1-1.195-4.511c-1.166-5.429-1.357-10.437.6-15.742C73.154,347.875,74.282,345.734,74.626,343.516Z" transform="translate(-3.165 -10.832)" fill="#37bc37"/>
        <path id="Path_2752" data-name="Path 2752" d="M88.77,337.84v-.373a.182.182,0,0,0,0-.067Z" transform="translate(-3.957 -11.149)" fill="#138913" opacity="0.4"/>
        <path id="Path_2753" data-name="Path 2753" d="M77.795,333.939c1.262-1.816,4.3-4.215,6.595-3.594,1.09.3,1.6,2.313,2.265,3.469a7.14,7.14,0,0,1,1.319,3.336c-2.15,3.594-3.183,9.424-3.546,13.639-.459,5.362-.793,10.686-.793,16.076,0,4.635-.449,10.829,1.223,15.063-1.912-1.74-5.324-.593-7.063.879-.956.793-1.654,1.912-3.011,1.07s-1.357-2.867-1.233-4.138c.162-1.606,1.338-2.867,1.348-4.5s-1.176-3.5-1.72-5.19A34.332,34.332,0,0,1,71.2,358.9c0-6.193,3.88-10.905,4.2-16.955C75.549,338.718,75.912,336.7,77.795,333.939Z" transform="translate(-3.18 -10.832)" fill="#138913" opacity="0.4"/>
        <path id="Path_2754" data-name="Path 2754" d="M32.368,290.28a6.184,6.184,0,0,0,2.093,3.4,46.059,46.059,0,0,1,3.116,4.148c1.539,1.969,3.622,3.422,5.228,5.343a144.434,144.434,0,0,1,11.469,16.621c3.307,5.266,5.524,11.345,7.933,17.089,1.032,2.485,1.663,5.18,3.03,7.551s3.058,4.291,4.5,6.423l.44-1.09c.115.153.239.1.277.277-1.281,2.59-2.944,5.62-5.974,6.356-5.381,1.309-10.638-2.944-13.505-7.216a17.328,17.328,0,0,1-2.4-9.109c0-3.823-1.587-5.974-3.336-9.2-.784-1.376-1.912-2.982-2.084-4.616-.162-1.424.382-2.867.143-4.282-.421-2.561-3.144-4.33-3.3-6.786,0-.956.583-1.816.3-2.791a16.151,16.151,0,0,0-1.653-2.628c-1.185-2.189-1.854-4.855-3.183-6.939-1.491-2.323-3.278-4.253-4.062-7.025C31,294.371,30.5,290.863,32.368,290.28Z" transform="translate(-1.403 -9.065)" fill="#007200"/>
        <path id="Path_2755" data-name="Path 2755" d="M38.55,296.085c1.376,1.443,1.845,3.536,3.144,5.027,2.867,3.278,5.926,6.174,8.449,9.864a75.69,75.69,0,0,1,7.942,14.184c1.912,4.635,3.584,9.386,5.974,13.754a58.234,58.234,0,0,0,3.011,5.056c.956,1.5,1.8,3.384,2.982,1.1a28.052,28.052,0,0,0,2.131-6.079c.373-1.634.717-3.89,2.37-4.7.105,1.73-.717,3.823-.851,5.61a17.624,17.624,0,0,1-1.118,5.142c-.841,2.256-1.3,4.922-2.628,6.968a12.664,12.664,0,0,1-4.836,4.406c-1.654.774-5.974.631-7.035-1.109,2.5-.459,4.655.717,7.187-.822,2.332-1.424,2.418-3.374,1.367-5.735-2.456-5.41-5.448-10.265-7.321-15.942A87.758,87.758,0,0,0,45.2,307.373c-2.561-3.307-5.324-6.289-7.7-9.73-.832-1.2-5.429-5.209-4.435-7.063C34.535,292.893,36.715,294.174,38.55,296.085Z" transform="translate(-1.487 -9.078)" fill="#37bc37"/>
        <path id="Path_2756" data-name="Path 2756" d="M33.081,290.585c-.057-.115-.124-.2-.2-.325h.449A1.177,1.177,0,0,0,33.081,290.585Z" transform="translate(-1.485 -9.064)" fill="#44c644"/>
        <path id="Path_2757" data-name="Path 2757" d="M36.492,352.019a15.16,15.16,0,0,0,4.473,3.116c3.154,1.606,4.272,3.364,5,6.872.765,3.718,1.453,6.423,3.909,9.338,3.106,3.718,6.432,7.13,9.271,11.106,1.8,2.542,2.867,5.276,4.32,7.971,1.07,1.988,2.953,3.345,4.11,5.219.86,1.4,3.116,5.735,1.156,7.073-.115,0-.134-.057-.134-.1a1.53,1.53,0,0,1,.287-.22h-.306c.067.076,0,.163,0,.22-.717.593-1.156,1.529-1.959,2.084a5.113,5.113,0,0,1-5.094.363c-2.8-1.252-3.728-3.336-4.779-6.012-1.185-2.992-4.081-4.091-6.06-6.385a54.608,54.608,0,0,1-6.136-9.711c-1.51-2.743-3.183-5.916-3.613-9.1-.287-2.16-.239-4.435-.449-6.585a30.9,30.9,0,0,0-.746-5.381c-.65-2.3-1.912-2.7-3.565-4.091s-5.1-8.162-2.714-9.911C34.638,348.951,35.345,350.862,36.492,352.019Z" transform="translate(-1.474 -11.613)" fill="#007200"/>
        <path id="Path_2758" data-name="Path 2758" d="M70.547,404.92a1.53,1.53,0,0,0-.287.22v-.22Z" transform="translate(-3.138 -14.135)" fill="#007200"/>
        <path id="Path_2759" data-name="Path 2759" d="M35.119,342.691l-.679-.841C34.622,341.888,34.87,342.232,35.119,342.691Z" transform="translate(-1.554 -11.346)" fill="#2a992f"/>
        <path id="Path_2760" data-name="Path 2760" d="M32.267,335.036a12.443,12.443,0,0,1,1.176-.736,11.708,11.708,0,0,0-.124,4.855c.306,1.176,1.539,2.141,1.653,3.3l-.076-.1c-.249-.459-.5-.8-.679-.841l.679.841c.373.64.736,1.434,1.032,1.816A22.64,22.64,0,0,0,39.655,348,27.718,27.718,0,0,1,44.31,352.8c1.118,1.673,1.692,3.613,2.867,5.219,2.141,2.963,5.266,4.874,7.522,7.713,1.415,1.759,2.485,3.823,4.291,5.171,1.367.956,3,1.176,4.559,1.634a17.443,17.443,0,0,1,6.088,3.345c3.2,2.686,4.1,6.834,6.471,10.083,2.246,3.039,4.6,8.6,3.431,12.53a7.388,7.388,0,0,1-5.123,4.683c-3.145.64-5.983-2.16-7.895-4.4-2.447-2.867-4.253-6.26-6.69-9.089-1.835-2.093-4.559-2.934-6.3-5.047a17.127,17.127,0,0,1-3.374-8.936c-.325-2.485-.535-4.349-2.953-5.133-3-.956-1.625-1.051-2.409-3.775-.468-1.606-2.456-1.128-2.867-3.211-.354-1.816.573-3.651-.105-5.486-.956-2.647-3.5-2.953-5.6-4.2a10.839,10.839,0,0,1-4.98-5.3c-.631-1.7-1-3.536-1.587-5.219A8.287,8.287,0,0,1,32.267,335.036Z" transform="translate(-1.331 -11.012)" fill="#37bc37"/>
        <path id="Path_2761" data-name="Path 2761" d="M78.9,339.4a12.711,12.711,0,0,0,.411,2.055A6.825,6.825,0,0,1,78.9,339.4Z" transform="translate(-3.52 -11.237)" fill="#007200"/>
        <path id="Path_2762" data-name="Path 2762" d="M78.869,338.61a5.085,5.085,0,0,0,0,.755A4.311,4.311,0,0,1,78.869,338.61Z" transform="translate(-3.518 -11.202)" fill="#007200"/>
        <path id="Path_2763" data-name="Path 2763" d="M88.593,337.25a1.09,1.09,0,0,1-.143.382v-.076Z" transform="translate(-3.942 -11.142)" fill="#007200"/>
        <path id="Path_2764" data-name="Path 2764" d="M82.949,378.29c.143-2.141-.191-4.282-.086-6.442.115-2.428-.746-2.571-2.323-4.387a24.372,24.372,0,0,1-4.014-7.063,19.058,19.058,0,0,1-1.8-6.595c.153,2.992,2.925,6.442,4.32,8.745,1.223,2.045,2.428,4.655,4.2,6.165.287-2.867-.3-6.193-.44-9.08-1.912-.363-3.479-5-4.186-6.624-.956-2.284-2.256-4.9-2.093-7.493.956,4.779,3.708,8.755,6.27,12.521.287-1.653,0-3.326.21-4.989.162-1.166.841-2.342.851-3.46-1.74,0-3.909-4.98-4.779-8.468a19.861,19.861,0,0,0,5.247,7.331,32.495,32.495,0,0,1,.172-3.479c.143-.908,1.09-2.456,1.023-3.3-.1-1.281-2.141-3.565-2.552-5.142-.315-1.109-.956-3.823-.143-4.7.688,3.24,1.424,6.5,3.622,9.042a5.009,5.009,0,0,1,.182-2.112c.277-.593.86-.8,1.166-1.367-.1,2.361-1.634,5.018-2.236,7.312a35.488,35.488,0,0,0-1.051,7.847c-.134,3.718-.6,7.34-.6,11.144,0,5.735-.545,12.081.306,17.691-.086-1.806-2.208-1.415-3.173-2.3-.487-.478-.487-1.137-.765-1.73a9.434,9.434,0,0,0-1.912-2.686A23.827,23.827,0,0,1,73.2,365.11c1.988,2.762,3.976,5.735,5.792,8.6C80.062,375.509,81.009,377.306,82.949,378.29Z" transform="translate(-3.268 -10.902)" fill="#007200"/>
        <path id="Path_2765" data-name="Path 2765" d="M74.8,354.21v.583C74.79,354.6,74.79,354.392,74.8,354.21Z" transform="translate(-3.338 -11.892)" fill="#007200"/>
        <path id="Path_2766" data-name="Path 2766" d="M59.343,371.661a3.2,3.2,0,0,0,1.663,1.09,26.086,26.086,0,0,0,3.422,1.128c2.619.841,5.878,2.16,7.828,4.358,4.062,4.569,8.277,12.263,8.889,18.532a7.082,7.082,0,0,1-7.207,7.512,8.841,8.841,0,0,1-3.154-.507c-1.73-.65-.841-.9-1.7.5-1.787,2.867-4.158,2.561-7.159,1.567.841-2.514,6.4-1.061,3.7-5.152-1.233-1.864-5.113-5.563-4.607-8,1.281.669,2.447,2.867,3.622,3.88,1.606,1.443,1.606,1.52,2.657,0,2.743-3.823,2.217-8.927.153-13.027-1.912-3.919-6.031-4.779-8.21-8.162-.487-.765-.659-4.2-1.128-5.649C58.741,370.151,58.846,371.039,59.343,371.661Z" transform="translate(-2.601 -12.578)" fill="#007200" opacity="0.5"/>
        <path id="Path_2767" data-name="Path 2767" d="M58.084,369.74a1.2,1.2,0,0,0-.421-.163l-.143-.468C57.759,369,57.921,369.281,58.084,369.74Z" transform="translate(-2.575 -12.55)" fill="#007200" opacity="0.5"/>
        <path id="Path_2768" data-name="Path 2768" d="M54.049,347.008c2.2,1.912,5.935,2.934,8.707,1.845,4.636-1.8,4.349-8.526,4.349-12.712a54.222,54.222,0,0,0-.841-10.016c-.239-1.29-.65-4.683-1.654-5.5l-.306-.459c2.8.726,3.708,5.008,4.913,7.407a24.086,24.086,0,0,0,4.97,6.279c1.692,1.711.765,4.96.44,7.187a77.809,77.809,0,0,1-1.759,8.009c-1.367,5.477-6.193,10.045-11.746,8.124-4.722-1.663-13.1-8.229-10.169-14.4C52.1,343.9,52.739,345.813,54.049,347.008Z" transform="translate(-2.257 -10.387)" fill="#007200" opacity="0.5"/>
        <path id="Path_2769" data-name="Path 2769" d="M76.791,337.51c-.239,0,0-.182-.124-.3l-.3-.793h.057a3.527,3.527,0,0,1,.363,1.09Z" transform="translate(-3.408 -11.105)" fill="#007200" opacity="0.5"/>
        <path id="Path_2770" data-name="Path 2770" d="M67.7,356.023c2.667-2.1.21-3.527.593-6.241.564.631,1.128,1.912,2.237,1.568s.516-1.147.745-2.036a22.333,22.333,0,0,1,1.195-2.523c.306-.784.44-1.682.774-2.542a7.847,7.847,0,0,0,.459-5.735,27.662,27.662,0,0,1-1.214-5.343c1.042,0,2.533,1.73,3.192,3.116h-.057l.3.793c.1.115-.115.258.124.3a3.527,3.527,0,0,0-.363-1.09,1.561,1.561,0,0,1,.363,0c.516,1.73-.335,2.714-.726,4.244-.325,1.233.162,2.676-.143,3.89s-1.319,2.514-1.644,3.909a30.182,30.182,0,0,1-1.128,4.119c-.832,2.217-2.332,4.54-4.569,5.391-1.912.717-6.843,1.309-8.382-.535C62.489,357.265,65.032,358.135,67.7,356.023Z" transform="translate(-2.66 -10.962)" fill="#007200" opacity="0.5"/>
        <path id="Path_2771" data-name="Path 2771" d="M49.217,273.46c2.093.1,3,1.692,4.406,2.867a26.715,26.715,0,0,1,4.158,3.6c.573.7,1.032,1.682,1.644,2.3s1.481.793,1.912,1.281c.774.86.535,2.045,1.032,2.867.392.65,1.166.851,1.615,1.472.736.956.6,2.17,1.137,3.125s1.376.956,1.912,1.673a33.834,33.834,0,0,1,2.179,4.368c.9,1.854,2.131,3.364,3.02,5.219,1.023,2.179.956,3.756,2.4,5.735a25.606,25.606,0,0,1,3.345,7.532c1.663,5.314,1.481,9.4.248,14.662l.4-1.042a2.4,2.4,0,0,0,.526,0,19.575,19.575,0,0,0-2.571,4.406c-.449,1.386-.478,3.928-2.16,4.569-3.24,1.252-7.895-4.874-9.414-7.082-5.916-8.554-8.086-19.66-11.641-29.447-.879-2.389-1.912-4.483-2.867-6.767-.87-2.007-.822-4.272-1.577-6.279-1.013-2.609-2.256-3.364-2.475-6.337a23.99,23.99,0,0,0-.44-3.957c-.143-.573-1.051-1.969-.956-2.485C45.231,274.31,47.993,273.383,49.217,273.46Z" transform="translate(-2.023 -8.321)" fill="#37bc37"/>
        <path id="Path_2772" data-name="Path 2772" d="M48.935,276.041l-1.4-.831a1.759,1.759,0,0,1,1.262.4A2.084,2.084,0,0,1,48.935,276.041Z" transform="translate(-2.133 -8.398)" fill="#007500" opacity="0.3"/>
        <path id="Path_2773" data-name="Path 2773" d="M48.735,275.6a1.759,1.759,0,0,0-1.262-.4l1.4.832a2.084,2.084,0,0,0-.134-.43c2.131,1.462,4.855,6.308,5.735,7.713a94.931,94.931,0,0,1,6.04,11.928,160.166,160.166,0,0,1,7.321,19.9c1.252,4.721,2.867,9.29,4.1,14.031.707,2.772,2.5,6.127,2.122,8.956-3.67.851-8.659-7.876-10.408-10.628-2.8-4.4-4.311-9.462-5.926-14.461A86.975,86.975,0,0,0,54.068,302.8c-.86-1.912-1.185-3.928-1.912-5.868a30.516,30.516,0,0,1-1.806-4.664c-.373-1.988-.287-2.867-1.3-4.712a11.116,11.116,0,0,1-1.74-4.645,22.938,22.938,0,0,0-.956-4.827C45.734,276.008,47.989,273.7,48.735,275.6Z" transform="translate(-2.076 -8.384)" fill="#007500" opacity="0.3"/>
        <path id="Path_2774" data-name="Path 2774" d="M91.727,387.878c1.8-1.826,3.756-2.189,5.391-4.406a12.425,12.425,0,0,0,2.628-7.226c.076-2.609-1.654-5.782-1.223-8.181.487-2.657,3.947-4.244,4.836-6.9s0-5.285,1.424-7.818,4.014-4.282,5.83-6.6,3.823-4.626,6.853-4.712c4.177-.143,16.965,10.676,15,14.451v-.325c-1.09.889-9.261-6.346-11.708-7.455-6.576-3.011-6.451,3.766-7.178,8.774-.755,5.314-1.835,11.928-4.884,16.516s-6.222,6.6-7.073,12.616c-.9,6.318-2.313,11-6.9,15.378-1.682,1.606-3.766,3.441-4.884,5.649a7.8,7.8,0,0,0-.382.956H85.868a34.7,34.7,0,0,1,1.481-11.928C88.219,393.862,89.672,389.924,91.727,387.878Z" transform="translate(-3.826 -11.353)" fill="#007200" opacity="0.5"/>
        <path id="Path_2775" data-name="Path 2775" d="M38.55,361.788l-.306-.3c0,2.151-.411,6.241-.306,9.166.115,2.619,1.223,4.941,1.2,7.379-.65-1.835-2.676-2.867-3.355-4.54-.8-1.826-.191-2.112.354-4.473.459-1.912,1.481-10.16-1.749-9.357-.516,2.609.335,6.566-1.806,8.373-.143-2.485,1.233-9.1-.526-10.838C35.759,357.965,39.429,359.226,38.55,361.788Z" transform="translate(-1.449 -12.024)" fill="#005600" opacity="0.4"/>
        <path id="Path_2776" data-name="Path 2776" d="M25,356.111c.9.248,3.546.478,6.2.956-3.555,3.5-1.768,8.784-7,11.469,2.361-2.332,3.88-7.541,3.431-10.9-4.129-.306-6.155,7.895-6.021,11.163-2.045-4.846,1.443-7.933,1.816-12.425-4.225,1.233-6.26,5.859-5.1,10.227a7.005,7.005,0,0,1-1.061-2.284v-3.336a23.321,23.321,0,0,0,1.061-5.219,3.976,3.976,0,0,0-1.061.191v-.64a23.215,23.215,0,0,1,7.732.793Z" transform="translate(-0.794 -11.939)" fill="#005600" opacity="0.4"/>
        <path id="Path_2777" data-name="Path 2777" d="M32.051,357.225h-.2l.076-.105Z" transform="translate(-1.439 -12.021)" fill="#005600" opacity="0.4"/>
        <path id="Path_2778" data-name="Path 2778" d="M87.814,337.087A52.071,52.071,0,0,1,95,336.2c-1.042,2.686.679,3.766,1.73,5.983a12.855,12.855,0,0,1,.956,6.786c-.956-3.584-1.8-7.885-6.251-8.363-4.674-.516-4.779,4.072-6.232,7.187a40.3,40.3,0,0,0-.956-7.522c-.669-2.15-4.081-3.775-3.909-5.954C80.732,328.571,90.05,332.337,87.814,337.087Z" transform="translate(-3.583 -10.884)" fill="#007200" opacity="0.5"/>
        <path id="Path_2779" data-name="Path 2779" d="M107.208,375.48c2.265-3.479,3.823-6.27,7.847-7.79,6.757-2.561,15.522-6.442,22.757-6.05a12.932,12.932,0,0,0,4.779-.545c1.233-.315,5.018-1.912,4.779.879-.115,1.3-5.974,4.024-7.187,5.018-3.221,2.647-4.3,5.171-4.521,9.338-.277,5.572.287,13.295-6.9,13.266-2.437,0-4.874-2.17-7.207-1.567-2.475.612-4.693,4.731-6,6.824-3.049,4.846-5.974,10.122-9.73,14.537H84.7c1.09-5.735,4.989-11.345,7.713-15.952C96.561,386.472,102.86,382,107.208,375.48Z" transform="translate(-3.777 -12.164)" fill="#37bc37"/>
        <path id="Path_2780" data-name="Path 2780" d="M150,362.374h-.067l.124-.134Z" transform="translate(-6.661 -12.247)" fill="#007200" opacity="0.5"/>
        <path id="Path_2781" data-name="Path 2781" d="M103.9,391.185a35.182,35.182,0,0,1,9.606-11.307,85.282,85.282,0,0,1,17.137-10.915c5.1-2.389,10.838-7.092,16.716-6.585-1.128.908-2.992,1-4.454,1.558-2.017.765-3.928,2.045-5.993,3.078-4.846,2.428-9.634,3.823-14.021,7.359a165.357,165.357,0,0,0-12.979,11.861c-5.18,5.1-4.779,11.7-8.478,17.615-.688,1.09-2.647,3.374-4.186,5.63H91.87c2.227-2.963,5.171-5.371,7.541-8.181C101.963,398.334,102.145,394.693,103.9,391.185Z" transform="translate(-4.094 -12.252)" fill="#007200" opacity="0.5"/>
        <path id="Path_2782" data-name="Path 2782" d="M150.06,362.159l.851-1.759A2.676,2.676,0,0,1,150.06,362.159Z" transform="translate(-6.667 -12.166)" fill="#007200" opacity="0.5"/>
        <path id="Path_2783" data-name="Path 2783" d="M106.889,377.13l.315-.65c-2.093,4.722-5.419,12.683-1.8,17.529,1.912,2.638,6.968,4.55,9.93,3.011-2.992,4.263-5.974,9.061-9.481,13.085H84.61c2.179-7.646,9.2-17.768,11.116-20.425C99.109,384.977,103.009,381.479,106.889,377.13Z" transform="translate(-3.773 -12.877)" fill="#007200" opacity="0.5"/>
        <path id="Path_2784" data-name="Path 2784" d="M56.631,404.749h55.435a1.653,1.653,0,1,1,0,3.259h-.793v8.6c0,12.941-6,24.124-14.786,29.677H71.56c-8.774-5.553-14.786-16.736-14.786-29.677v-8.6h-.143a1.653,1.653,0,1,1,0-3.259Z" transform="translate(-2.45 -14.126)" fill="#5e3601"/>
        <path id="Path_2785" data-name="Path 2785" d="M112.028,404.747h-9.864c-2.275,11.785-11.355,19.756-22.69,23.426a113,113,0,0,1-18.8,4.072H60.54a31.206,31.206,0,0,0,11.6,13.993H97.089c8.774-5.553,14.8-16.736,14.8-29.677v-8.6h.134a1.653,1.653,0,1,0,0-3.259Z" transform="translate(-2.708 -14.124)" fill="#c8a000" opacity="0.14"/>
        <path id="Path_2786" data-name="Path 2786" d="M55.761,406.47h56.582a.851.851,0,1,1,0,1.7H55.761a.851.851,0,0,1,0-1.7Z" transform="translate(-2.459 -14.203)" fill="#c8a000" opacity="0.14"/>
        <ellipse id="Ellipse_87" data-name="Ellipse 87" cx="39.54" cy="5.802" rx="39.54" ry="5.802" transform="translate(602.843 428.118)" fill="#517793" opacity="0.15"/>
        <path id="Path_2787" data-name="Path 2787" d="M675.215,360.75l-.535.21a7.234,7.234,0,0,0,1.137.382A.688.688,0,0,0,675.215,360.75Z" transform="translate(-29.869 -12.181)" fill="#005600"/>
        <path id="Path_2788" data-name="Path 2788" d="M694.556,362.043c-3.211,1.615-5.142,1.787-8.6,1.959-2.867.124-6.232.3-8.334,2.5-1.682,1.73-1.912,4.655-3.9,6.05-1.281.889-4.081,1-5.362,2.342a11.972,11.972,0,0,1-.64,1.912,2.4,2.4,0,0,1,.64-1.912c1.319-4.54,3.288-13.9,5.582-14.04l.363-.115a33.68,33.68,0,0,0-4.779-2.112c2.16,3.431-2.638,11.03-3.336,14.738-1.109,5.735-.373,11.469,3.594,15.742,7.054,7.57,16.85,3.039,24.248-1.806,4.186-2.753,5.878-5.735,9-9.175,1.281-1.434,2.867-2.246,4.186-3.823.956-1.128,1.749-3.259,2.953-4.072,2.571-1.806,4.779,1.137,7.531.65a6.209,6.209,0,0,0,3.823-2.867V355.993C712.247,355.132,702.88,357.828,694.556,362.043Z" transform="translate(-29.473 -11.964)" fill="#005600"/>
        <path id="Path_2789" data-name="Path 2789" d="M668.43,375.78a2.4,2.4,0,0,0-.64,1.912,11.973,11.973,0,0,0,.64-1.912Z" transform="translate(-29.564 -12.846)" fill="#005600"/>
        <path id="Path_2790" data-name="Path 2790" d="M649.553,369.723c-1.682-3.823-4.559-6.853-6.356-10.513-1.185-2.5-1.118-5.582-2.437-8.009-1.548-2.867-5.735-4.244-8.048-6.633s-5.553-7.474-9.109-7.187c-4.311.354-8.831,5.888-11.259,9.195-2.179,3.039-6.968,8.516-6.576,12.588,3.135-.411,6.346-5.219,9.347-6.69a31.047,31.047,0,0,1,5.735-2.466c2.867-.726,4.349,4.358,4.865,7.293.793,4.483.43,9,2.389,13.027,1.2,2.456,2.867,4.205,4.349,6.528,1.233,2,2.753,3.078,3.689,5.3,1.587,3.823,1.482,8.353,3.03,12.253a37.457,37.457,0,0,0,7.359,11.718,16.15,16.15,0,0,1,3.049,4.148h8.268c1.195-3.508.64-8.086.487-11.527C657.916,388.829,653.5,378.621,649.553,369.723Z" transform="translate(-26.82 -11.147)" fill="#007500"/>
        <path id="Path_2791" data-name="Path 2791" d="M653.214,332.969c-1.587,1.023-2.447,2.638-4.215,3.3-.956.354-4.148.832-3.89,2.2h.583c.325-1.577,2.17-.487,3.049-.143,1.185.421,2.657.382,3.728,1.032-.191-1.912,1.453-3.708,2.418-5.113C656.4,332.061,654.954,331.832,653.214,332.969Z" transform="translate(-28.561 -10.923)" fill="#3bd33b"/>
        <path id="Path_2792" data-name="Path 2792" d="M706.515,291.917l.3-.468c-1.319-.229-1.912.86-2.7,1.74a28.658,28.658,0,0,1-4.043,2.963A69.235,69.235,0,0,0,690.3,303.7c-5.352,5.3-9.319,11.852-14.872,16.917-2.256,2.036-2.867,5.276-4.435,7.742s-3.489,4.339-5.152,6.537c-1.5,1.969-2.686,3.823-2.867,6.471-.21,2.867,1.386,4.138,3.144,5.964,1.176,1.195,1.912,4.4,3.6,4.4,2.227,0,3.68-5.591,4.616-7.35,3.5-6.6,5.84-13.887,9.94-20.071a198.3,198.3,0,0,1,13.476-18.4c1.8-2.112,3.431-4.416,5.133-6.576,1.147-1.443,2.762-2.485,3.871-3.928a4.779,4.779,0,0,0,1.08-2.37C707.8,292.242,706.964,291.171,706.515,291.917Z" transform="translate(-29.351 -9.115)" fill="#048c04"/>
        <path id="Path_2793" data-name="Path 2793" d="M654.332,332.83a2.867,2.867,0,0,0-.812.277Z" transform="translate(-28.933 -10.947)" fill="#2a992f"/>
        <path id="Path_2794" data-name="Path 2794" d="M665.562,345.516c-.363-2.265-.392-4.368-1.338-6.557-1.128-2.59-2.944-5.505-5.735-6.308-1.6-.459-4.205-.765-5.515.478l.1-.048a2.867,2.867,0,0,1,.812-.277,2.868,2.868,0,0,0-.812.277c-1.166.659-2.112,2.227-3.393,2.686s-3.88.306-4.549,1.74c-.354.784.325.956.325,1.453,0,1.08-.268.956-.736,1.73a11.373,11.373,0,0,0-1.5,4.483c-.64,5.63-.5,11.2,2.867,15.942.956,1.376,2.064,2.867,1.309,4.664s-2.437,2.915-3.059,5.027c-1.462,4.779-1.4,15.063,4.11,17.261,4.511,1.816,5.649-5.735,10.1-5.018,3.154.487,6.05,6.528,7.771.468.755-2.7-.746-5.008-.573-7.551.086-1.309,1.023-2.5,1.5-3.756a30.739,30.739,0,0,0,1.195-4.511c1.166-5.429,1.357-10.437-.6-15.742A34.652,34.652,0,0,1,665.562,345.516Z" transform="translate(-28.464 -10.921)" fill="#37bc37"/>
        <path id="Path_2795" data-name="Path 2795" d="M652.63,339.84v0Z" transform="translate(-28.894 -11.237)" fill="#138913" opacity="0.4"/>
        <path id="Path_2796" data-name="Path 2796" d="M662.839,335.939c-1.262-1.816-4.311-4.215-6.595-3.594-1.09.3-1.6,2.313-2.265,3.469a7.14,7.14,0,0,0-1.319,3.336c2.15,3.594,3.183,9.424,3.546,13.639.459,5.362.793,10.686.793,16.076,0,4.636.44,10.829-1.224,15.063,1.912-1.74,5.314-.593,7.063.879.956.793,1.654,1.912,3.011,1.07s1.357-2.867,1.233-4.138c-.162-1.606-1.338-2.867-1.348-4.5s1.176-3.5,1.72-5.19a34.334,34.334,0,0,0,1.978-11.144c0-6.193-3.88-10.905-4.206-16.955C665.085,340.718,664.722,338.7,662.839,335.939Z" transform="translate(-28.895 -10.921)" fill="#138913" opacity="0.4"/>
        <path id="Path_2797" data-name="Path 2797" d="M707.238,292.28a6.232,6.232,0,0,1-2.093,3.4,48.058,48.058,0,0,0-3.125,4.148c-1.529,1.969-3.613,3.422-5.219,5.343-4.377,5.209-7.837,10.819-11.469,16.621-3.307,5.266-5.524,11.345-7.933,17.089-1.042,2.485-1.673,5.18-3.03,7.551s-3.068,4.291-4.5,6.423l-.449-1.09c-.105.153-.229.1-.268.277,1.271,2.59,2.944,5.62,5.974,6.356,5.371,1.309,10.628-2.944,13.505-7.216a17.319,17.319,0,0,0,2.389-9.109c0-3.823,1.587-5.974,3.336-9.2.793-1.376,1.912-2.982,2.084-4.616.172-1.424-.373-2.867-.134-4.282.421-2.561,3.144-4.33,3.3-6.786,0-.956-.583-1.816-.3-2.791a16.155,16.155,0,0,1,1.587-2.628c1.185-2.189,1.854-4.855,3.183-6.939,1.491-2.323,3.269-4.253,4.062-7.025C708.557,296.371,709.073,292.863,707.238,292.28Z" transform="translate(-29.624 -9.153)" fill="#007200"/>
        <path id="Path_2798" data-name="Path 2798" d="M700.933,298.085c-1.376,1.443-1.845,3.536-3.154,5.027-2.867,3.278-5.916,6.174-8.44,9.864A75.688,75.688,0,0,0,681.4,327.16c-1.912,4.636-3.584,9.386-5.974,13.754a58.23,58.23,0,0,1-3.011,5.056c-.956,1.5-1.8,3.383-2.982,1.1a28.056,28.056,0,0,1-2.151-6.079c-.373-1.634-.717-3.89-2.37-4.7-.105,1.73.717,3.823.841,5.61a17.947,17.947,0,0,0,1.128,5.142c.841,2.256,1.29,4.922,2.619,6.968a12.759,12.759,0,0,0,4.846,4.406c1.644.774,5.964.631,7.035-1.109-2.5-.459-4.655.717-7.187-.822-2.342-1.424-2.418-3.374-1.367-5.735,2.456-5.41,5.448-10.265,7.321-15.942a87.757,87.757,0,0,1,14.117-25.433c2.561-3.307,5.324-6.289,7.7-9.73.822-1.2,5.429-5.209,4.425-7.063C704.947,294.893,702.768,296.174,700.933,298.085Z" transform="translate(-29.436 -9.166)" fill="#37bc37"/>
        <path id="Path_2799" data-name="Path 2799" d="M708.3,292.585c.067-.115.134-.2.21-.325h-.449a1.146,1.146,0,0,1,.239.325Z" transform="translate(-31.345 -9.152)" fill="#44c644"/>
        <path id="Path_2800" data-name="Path 2800" d="M703.212,354.019a15.158,15.158,0,0,1-4.473,3.116c-3.154,1.606-4.272,3.364-5,6.872-.765,3.718-1.453,6.423-3.909,9.338-3.106,3.718-6.432,7.13-9.271,11.106-1.8,2.542-2.867,5.276-4.33,7.971-1.061,1.988-2.944,3.345-4.1,5.219-.86,1.4-3.116,5.735-1.156,7.073.115,0,.124-.057.124-.1a1.223,1.223,0,0,0-.277-.22h.3c-.057.076,0,.162,0,.22.726.593,1.166,1.529,1.969,2.084a5.1,5.1,0,0,0,5.085.363c2.81-1.252,3.728-3.336,4.779-6.012,1.185-2.992,4.081-4.091,6.06-6.385a55.157,55.157,0,0,0,6.136-9.711c1.5-2.743,3.183-5.916,3.613-9.1.287-2.16.239-4.435.449-6.585a30.891,30.891,0,0,1,.745-5.381c.65-2.3,1.912-2.7,3.565-4.091s5.133-8.162,2.743-9.911C705.066,350.951,704.359,352.862,703.212,354.019Z" transform="translate(-29.671 -11.701)" fill="#007200"/>
        <path id="Path_2801" data-name="Path 2801" d="M670.85,406.92a1.222,1.222,0,0,1,.277.22v-.22Z" transform="translate(-29.7 -14.223)" fill="#007200"/>
        <path id="Path_2802" data-name="Path 2802" d="M706.25,344.691l.679-.841C706.757,343.888,706.508,344.232,706.25,344.691Z" transform="translate(-31.265 -11.434)" fill="#2a992f"/>
        <path id="Path_2803" data-name="Path 2803" d="M706.8,337.036a12.433,12.433,0,0,0-1.176-.736,11.708,11.708,0,0,1,.124,4.855c-.315,1.176-1.539,2.141-1.653,3.3l.067-.1c.258-.459.507-.8.679-.841l-.679.841c-.363.64-.736,1.434-1.023,1.816A23.01,23.01,0,0,1,699.412,350a26.994,26.994,0,0,0-4.626,4.827c-1.118,1.673-1.7,3.613-2.867,5.218-2.131,2.963-5.257,4.874-7.512,7.713-1.415,1.759-2.485,3.823-4.3,5.171a14.7,14.7,0,0,1-4.559,1.634,17.492,17.492,0,0,0-6.079,3.345c-3.2,2.686-4.1,6.834-6.48,10.083-2.237,3.039-4.588,8.6-3.431,12.53a7.407,7.407,0,0,0,5.123,4.683c3.154.64,5.993-2.16,7.9-4.4,2.447-2.867,4.244-6.26,6.69-9.089,1.835-2.093,4.559-2.934,6.3-5.046a17.119,17.119,0,0,0,3.364-8.937c.335-2.485.545-4.349,2.963-5.133,2.992-.956,1.625-1.051,2.409-3.775.468-1.606,2.456-1.128,2.867-3.211.354-1.816-.573-3.651.105-5.486.956-2.647,3.5-2.953,5.6-4.2a10.839,10.839,0,0,0,4.98-5.3c.631-1.7,1-3.536,1.577-5.219A8.258,8.258,0,0,0,706.8,337.036Z" transform="translate(-29.187 -11.1)" fill="#37bc37"/>
        <path id="Path_2804" data-name="Path 2804" d="M662.491,341.4a13.855,13.855,0,0,1-.411,2.055A6.822,6.822,0,0,0,662.491,341.4Z" transform="translate(-29.312 -11.326)" fill="#007200"/>
        <path id="Path_2805" data-name="Path 2805" d="M662.54,340.61a6.8,6.8,0,0,1,0,.755,4.316,4.316,0,0,0,0-.755Z" transform="translate(-29.332 -11.291)" fill="#007200"/>
        <path id="Path_2806" data-name="Path 2806" d="M652.81,339.25a.955.955,0,0,0,.143.382v-.076Z" transform="translate(-28.902 -11.23)" fill="#007200"/>
        <path id="Path_2807" data-name="Path 2807" d="M657.776,380.29c-.143-2.141.191-4.282.086-6.442-.115-2.428.746-2.571,2.323-4.387A24.594,24.594,0,0,0,664.2,362.4,19.057,19.057,0,0,0,666,355.8c-.153,2.992-2.925,6.442-4.32,8.745-1.223,2.045-2.428,4.655-4.2,6.165-.287-2.867.3-6.193.44-9.08,1.911-.363,3.479-5,4.186-6.624.956-2.284,2.256-4.9,2.093-7.493-1,4.779-3.708,8.755-6.27,12.521-.287-1.654,0-3.326-.21-4.989-.162-1.166-.841-2.342-.851-3.46,1.74,0,3.909-4.98,4.779-8.468a19.766,19.766,0,0,1-5.257,7.331,32.51,32.51,0,0,0-.162-3.479c-.143-.908-1.09-2.456-1.023-3.3.1-1.281,2.131-3.565,2.552-5.142.306-1.109.956-3.823.143-4.7-.688,3.24-1.424,6.5-3.622,9.042a5.161,5.161,0,0,0-.182-2.112c-.277-.593-.86-.8-1.166-1.367.1,2.361,1.634,5.018,2.237,7.312a35.493,35.493,0,0,1,1.051,7.847c.134,3.718.6,7.34.6,11.144,0,5.735.545,12.081-.315,17.691.1-1.806,2.208-1.415,3.183-2.3.487-.478.487-1.137.765-1.73a9.251,9.251,0,0,1,1.911-2.686,23.827,23.827,0,0,0,5.161-9.558c-1.988,2.762-3.976,5.735-5.792,8.6C660.643,377.509,659.687,379.306,657.776,380.29Z" transform="translate(-28.907 -10.991)" fill="#007200"/>
        <path id="Path_2808" data-name="Path 2808" d="M666.61,356.21v.583C666.62,356.6,666.62,356.392,666.61,356.21Z" transform="translate(-29.512 -11.981)" fill="#007200"/>
        <path id="Path_2809" data-name="Path 2809" d="M680.991,373.661a3.24,3.24,0,0,1-1.663,1.09,26.558,26.558,0,0,1-3.422,1.128c-2.628.841-5.878,2.16-7.828,4.358-4.062,4.569-8.286,12.263-8.889,18.532a7.082,7.082,0,0,0,7.207,7.512,8.841,8.841,0,0,0,3.154-.507c1.73-.65.841-.9,1.7.5,1.787,2.867,4.158,2.561,7.159,1.568-.841-2.514-6.4-1.061-3.7-5.152,1.233-1.864,5.113-5.563,4.6-8-1.271.669-2.437,2.867-3.613,3.88-1.606,1.443-1.606,1.52-2.657,0-2.743-3.823-2.217-8.927-.162-13.027,1.912-3.919,6.041-4.779,8.22-8.162.487-.765.659-4.2,1.118-5.649C681.6,372.151,681.488,373.039,680.991,373.661Z" transform="translate(-29.183 -12.667)" fill="#007200" opacity="0.5"/>
        <path id="Path_2810" data-name="Path 2810" d="M683.29,371.74a1.346,1.346,0,0,1,.43-.162l.143-.468C683.625,371,683.462,371.281,683.29,371.74Z" transform="translate(-30.25 -12.638)" fill="#007200" opacity="0.5"/>
        <path id="Path_2811" data-name="Path 2811" d="M686.215,349.008c-2.208,1.912-5.935,2.934-8.707,1.845-4.635-1.8-4.358-8.526-4.358-12.712a54.226,54.226,0,0,1,.9-10.016c.239-1.29.65-4.683,1.654-5.5l.3-.459c-2.8.726-3.7,5.008-4.9,7.407a23.9,23.9,0,0,1-4.98,6.279c-1.682,1.711-.755,4.96-.44,7.187.382,2.647,1.109,5.4,1.759,8.009,1.376,5.477,6.193,10.045,11.756,8.124,4.722-1.663,13.1-8.229,10.169-14.4C688.164,345.9,687.514,347.813,686.215,349.008Z" transform="translate(-29.447 -10.475)" fill="#007200" opacity="0.5"/>
        <path id="Path_2812" data-name="Path 2812" d="M664.6,339.51c.239,0,0-.182.124-.3l.287-.793h-.029a3.74,3.74,0,0,0-.382,1.09Z" transform="translate(-29.423 -11.194)" fill="#007200" opacity="0.5"/>
        <path id="Path_2813" data-name="Path 2813" d="M672.935,358.023c-2.667-2.1-.21-3.527-.593-6.241-.564.631-1.128,1.912-2.237,1.567s-.516-1.147-.746-2.036a22.346,22.346,0,0,0-1.195-2.523c-.306-.784-.44-1.682-.774-2.542a7.9,7.9,0,0,1-.468-5.735,27.715,27.715,0,0,0,1.223-5.343c-1.042,0-2.533,1.73-3.2,3.116h.029l-.287.793c-.1.115.115.258-.124.3a3.737,3.737,0,0,1,.354-1.09,1.511,1.511,0,0,0-.354,0c-.516,1.73.334,2.714.726,4.244.315,1.233-.162,2.676.143,3.89s1.319,2.514,1.644,3.909a30.2,30.2,0,0,0,1.109,4.1c.822,2.217,2.332,4.54,4.559,5.391,1.912.717,6.843,1.309,8.392-.535C678.144,359.265,675.6,360.135,672.935,358.023Z" transform="translate(-29.415 -11.05)" fill="#007200" opacity="0.5"/>
        <path id="Path_2814" data-name="Path 2814" d="M690.612,275.46c-2.084.1-3,1.692-4.4,2.867a27.159,27.159,0,0,0-4.158,3.6c-.573.7-1.032,1.682-1.644,2.3s-1.481.793-1.959,1.281c-.765.86-.535,2.045-1.032,2.867-.382.65-1.166.851-1.615,1.472-.726.956-.593,2.17-1.128,3.125s-1.376.956-1.912,1.673a33.828,33.828,0,0,0-2.179,4.368c-.956,1.854-2.141,3.364-3.02,5.219-1.032,2.179-.956,3.756-2.409,5.735a26.114,26.114,0,0,0-3.345,7.531c-1.653,5.314-1.481,9.4-.248,14.662l-.392-1.042a2.515,2.515,0,0,1-.535,0,19.612,19.612,0,0,1,2.581,4.406c.449,1.386.478,3.928,2.16,4.569,3.24,1.252,7.895-4.874,9.414-7.082,5.916-8.554,8.086-19.66,11.641-29.447.879-2.389,1.912-4.483,2.867-6.767.87-2.007.822-4.272,1.577-6.279,1.013-2.609,2.256-3.364,2.466-6.337a25.079,25.079,0,0,1,.449-3.957c.134-.573,1.051-1.969.956-2.485C694.588,276.31,691.835,275.383,690.612,275.46Z" transform="translate(-29.247 -8.409)" fill="#37bc37"/>
        <path id="Path_2815" data-name="Path 2815" d="M692.42,278.041l1.4-.832a1.768,1.768,0,0,0-1.271.4A2.968,2.968,0,0,0,692.42,278.041Z" transform="translate(-30.654 -8.486)" fill="#007500" opacity="0.3"/>
        <path id="Path_2816" data-name="Path 2816" d="M691.374,277.6a1.768,1.768,0,0,1,1.271-.4l-1.4.832a2.96,2.96,0,0,1,.124-.43c-2.122,1.462-4.846,6.308-5.735,7.713a96.277,96.277,0,0,0-6.05,11.928,160.109,160.109,0,0,0-7.34,19.937c-1.262,4.722-2.867,9.29-4.1,14.031-.717,2.772-2.5,6.127-2.131,8.956,3.68.851,8.659-7.876,10.418-10.628,2.8-4.4,4.311-9.462,5.926-14.461a86.985,86.985,0,0,1,3.708-10.236c.851-1.912,1.185-3.928,1.912-5.868A29.645,29.645,0,0,0,689.8,294.3c.373-1.988.287-2.867,1.3-4.712a11.115,11.115,0,0,0,1.74-4.645,22.937,22.937,0,0,1,.956-4.827C694.385,278.008,692.129,275.7,691.374,277.6Z" transform="translate(-29.484 -8.473)" fill="#007500" opacity="0.3"/>
        <path id="Path_2817" data-name="Path 2817" d="M647.526,389.878c-1.8-1.826-3.756-2.189-5.4-4.406a12.425,12.425,0,0,1-2.619-7.226c-.076-2.609,1.644-5.782,1.223-8.181-.487-2.657-3.957-4.244-4.836-6.9s0-5.285-1.424-7.818-4.014-4.282-5.83-6.6-3.823-4.626-6.853-4.712c-4.177-.143-16.965,10.676-15,14.451v-.325c1.09.889,9.261-6.346,11.708-7.455,6.576-3.011,6.451,3.766,7.178,8.774.755,5.314,1.835,11.928,4.884,16.516s6.213,6.6,7.073,12.616c.9,6.318,2.313,11,6.9,15.378,1.682,1.606,3.766,3.441,4.884,5.649a9.687,9.687,0,0,1,.382.956h3.575a34.7,34.7,0,0,0-1.472-11.938C651.024,395.862,649.561,391.924,647.526,389.878Z" transform="translate(-26.858 -11.442)" fill="#007200" opacity="0.5"/>
        <path id="Path_2818" data-name="Path 2818" d="M702.532,363.788l.306-.3c0,2.15.411,6.241.306,9.166-.115,2.619-1.223,4.941-1.214,7.379.659-1.835,2.686-2.867,3.364-4.54.8-1.826.191-2.112-.354-4.473-.459-1.912-1.491-10.16,1.749-9.357.516,2.609-.344,6.566,1.806,8.373.143-2.485-1.233-9.1.516-10.838C705.313,359.965,701.653,361.226,702.532,363.788Z" transform="translate(-31.074 -12.113)" fill="#005600" opacity="0.4"/>
        <path id="Path_2819" data-name="Path 2819" d="M715.763,358.111c-.908.248-3.546.478-6.2.956,3.555,3.5,1.768,8.784,7,11.469-2.361-2.332-3.88-7.541-3.431-10.9,4.129-.306,6.146,7.895,6.021,11.163,2.045-4.846-1.443-7.933-1.816-12.425,4.215,1.233,6.26,5.859,5.094,10.227a6.853,6.853,0,0,0,1.07-2.284v-3.336a23.306,23.306,0,0,1-1.07-5.219,3.987,3.987,0,0,1,1.07.191v-.64A23.215,23.215,0,0,0,715.763,358.111Z" transform="translate(-31.412 -12.027)" fill="#005600" opacity="0.4"/>
        <path id="Path_2820" data-name="Path 2820" d="M709.34,359.225h.21l-.076-.105C709.426,359.13,709.388,359.187,709.34,359.225Z" transform="translate(-31.402 -12.109)" fill="#005600" opacity="0.4"/>
        <path id="Path_2821" data-name="Path 2821" d="M652.78,339.087a51.9,51.9,0,0,0-7.187-.889c1.051,2.686-.669,3.766-1.72,5.983a12.854,12.854,0,0,0-.908,6.786c.956-3.584,1.8-7.885,6.251-8.363,4.674-.516,4.779,4.072,6.222,7.187a41.1,41.1,0,0,1,.956-7.522c.659-2.15,4.081-3.775,3.909-5.954C659.863,330.571,650.553,334.337,652.78,339.087Z" transform="translate(-28.461 -10.972)" fill="#007200" opacity="0.5"/>
        <path id="Path_2822" data-name="Path 2822" d="M631.3,377.48c-2.265-3.479-3.823-6.27-7.856-7.79-6.748-2.561-15.512-6.442-22.747-6.05a12.932,12.932,0,0,1-4.779-.545c-1.233-.315-5.018-1.912-4.779.879.124,1.3,5.983,4.024,7.2,5.018,3.221,2.647,4.3,5.171,4.521,9.338.277,5.572-.287,13.295,6.9,13.266,2.437,0,4.874-2.17,7.207-1.568s4.693,4.731,6,6.824c3.049,4.846,5.974,10.122,9.73,14.537h21.1c-1.09-5.735-4.98-11.345-7.7-15.952C641.948,388.472,635.65,384,631.3,377.48Z" transform="translate(-26.174 -12.252)" fill="#37bc37"/>
        <path id="Path_2823" data-name="Path 2823" d="M591.407,364.374h.067l-.124-.134Z" transform="translate(-26.184 -12.336)" fill="#007200" opacity="0.5"/>
        <path id="Path_2824" data-name="Path 2824" d="M634.988,393.185a35.421,35.421,0,0,0-9.605-11.307,85.284,85.284,0,0,0-17.156-10.915c-5.1-2.389-10.839-7.092-16.716-6.585,1.128.908,2.992,1,4.454,1.558,2.017.765,3.928,2.045,5.983,3.078,4.855,2.428,9.644,3.823,14.031,7.359a165.334,165.334,0,0,1,12.979,11.861c5.18,5.1,4.779,11.7,8.478,17.615.688,1.09,2.638,3.374,4.186,5.63h5.371c-2.217-2.963-5.161-5.371-7.531-8.181C636.9,400.334,636.7,396.693,634.988,393.185Z" transform="translate(-26.191 -12.34)" fill="#007200" opacity="0.5"/>
        <path id="Path_2825" data-name="Path 2825" d="M591.311,364.159l-.851-1.759a2.637,2.637,0,0,0,.851,1.759Z" transform="translate(-26.144 -12.254)" fill="#007200" opacity="0.5"/>
        <path id="Path_2826" data-name="Path 2826" d="M633.1,379.13l-.315-.65c2.093,4.721,5.419,12.683,1.8,17.529-1.912,2.638-6.968,4.549-9.931,3.011,2.992,4.263,5.974,9.061,9.481,13.085h21.247c-2.179-7.646-9.2-17.768-11.125-20.425C640.869,386.977,636.979,383.479,633.1,379.13Z" transform="translate(-27.656 -12.965)" fill="#007200" opacity="0.5"/>
        <path id="Path_2827" data-name="Path 2827" d="M629.831,406.749h55.435a1.653,1.653,0,1,1,0,3.259h-.8v8.6c0,12.941-6,24.124-14.786,29.677H644.75c-8.774-5.553-14.776-16.736-14.776-29.677v-8.6h-.143a1.653,1.653,0,1,1,0-3.259Z" transform="translate(-27.8 -14.215)" fill="#5e3601"/>
        <path id="Path_2828" data-name="Path 2828" d="M685.218,406.747h-9.864C673.08,418.531,664,426.5,652.664,430.173a113,113,0,0,1-18.8,4.072h-.124a31.13,31.13,0,0,0,11.594,13.993h24.974c8.784-5.553,14.8-16.736,14.8-29.677v-8.6h.134a1.653,1.653,0,1,0,0-3.259Z" transform="translate(-28.058 -14.212)" fill="#c8a000" opacity="0.14"/>
        <path id="Path_2829" data-name="Path 2829" d="M628.961,408.47h56.61a.851.851,0,1,1,0,1.7h-56.61a.851.851,0,1,1,0-1.7Z" transform="translate(-27.809 -14.292)" fill="#c8a000" opacity="0.14"/>
        <path id="Path_2830" data-name="Path 2830" d="M574.079,193.7a80.232,80.232,0,0,0,9.749-6.04c4.444,1.912,10.58,1.759,19.832-.172,22.939-4.779,39.454-41.442,7.13-55.292-53.151-22.767-68.328,13.849-60.539,31.12s23.13,20.941,23.13,20.941C576.459,186.444,574.079,193.7,574.079,193.7Z" transform="translate(-24.281 -1.753)" fill="#3ea3ff"/>
        <path id="Path_2831" data-name="Path 2831" d="M150.159,151.874a80.631,80.631,0,0,1-10.963-3.326c-3.823,2.953-9.778,4.416-19.221,4.922-23.407,1.271-48.744-29.916-21.084-51.612,45.514-35.65,69.59-4.167,66.493,14.528s-16.975,26.207-16.975,26.207C146,145.48,150.159,151.874,150.159,151.874Z" transform="translate(-3.87 -0.014)" fill="#fff"/>
        <path id="Path_2832" data-name="Path 2832" d="M351.18,89.9c5.916-4.779,3.3-9.013,3.3-9.013a43.067,43.067,0,0,1-19.259-2.064c-20.779-7.694-21.887-56.18,11.708-59.44,20.549-1.988,40.467-1.5,55.072,8.946,14.079,10.064,10.714,38.1-.631,46.537-11.641,8.659-34.236,6.843-34.236,6.843C361.626,89.866,351.18,89.9,351.18,89.9Z" transform="translate(-14.204 2.957)" fill="url(#linear-gradient-2)"/>
        <rect id="Rectangle_196" data-name="Rectangle 196" width="3.814" height="12.712" transform="translate(547.867 496.303)" fill="#00556b"/>
        <rect id="Rectangle_197" data-name="Rectangle 197" width="3.814" height="12.712" transform="translate(581.367 498.491)" fill="#00556b"/>
        <rect id="Rectangle_198" data-name="Rectangle 198" width="3.814" height="12.702" transform="translate(613.882 494.716)" fill="#00556b"/>
        <rect id="Rectangle_199" data-name="Rectangle 199" width="78.249" height="66.608" transform="translate(542.237 428.815)" fill="#359fbc"/>
        <path id="Path_2833" data-name="Path 2833" d="M567.36,444.629c0,.956,17.519,1.749,39.129,1.749s39.129-.784,39.129-1.749-17.519-1.759-39.129-1.759S567.36,443.663,567.36,444.629Z" transform="translate(-25.123 -15.813)" fill="#00556b"/>
        <path id="Path_2834" data-name="Path 2834" d="M606.489,508.78c-21.61,0-39.129,2.093-39.129,4.664s17.519,4.655,39.129,4.655,39.129-2.093,39.129-4.655S628.1,508.78,606.489,508.78Z" transform="translate(-25.123 -18.728)" fill="#1688a3"/>
        <path id="Path_2835" data-name="Path 2835" d="M571.537,448.14a2.428,2.428,0,0,0-2.179,2.638v55.865a2.217,2.217,0,1,0,4.358,0V450.778a2.447,2.447,0,0,0-2.179-2.638Z" transform="translate(-25.209 -16.046)" fill="#0c84a5"/>
        <path id="Path_2836" data-name="Path 2836" d="M567.36,503.975V511.3h.507c2.867,2.237,19.049,3.947,38.623,3.947s35.736-1.711,38.623-3.947h.507V444.689c0-.162-.535-.315-1.434-.459C632.869,482.241,600.822,501.481,567.36,503.975Z" transform="translate(-25.123 -15.873)" fill="#1688a3"/>
        <path id="Path_2837" data-name="Path 2837" d="M563.127,530.772s-22.136,9.023-33.452,10.447l-22.528,2.867L487.85,524.7l25.5-3.823,19.211-6.929Z" transform="translate(-21.606 -18.957)" fill="#eff4f3"/>
        <line id="Line_61" data-name="Line 61" x1="22.031" y1="11.603" transform="translate(508.909 498.931)" fill="none" stroke="gray" stroke-miterlimit="10" stroke-width="0.93"/>
        <line id="Line_62" data-name="Line 62" x1="21.218" y1="12.186" transform="translate(504.045 500.001)" fill="none" stroke="gray" stroke-miterlimit="10" stroke-width="0.93"/>
        <line id="Line_63" data-name="Line 63" x2="20.186" y2="13.419" transform="translate(498.119 501.139)" fill="none" stroke="gray" stroke-miterlimit="10" stroke-width="0.93"/>
        <line id="Line_64" data-name="Line 64" x1="19.154" y1="14.069" transform="translate(493.751 502.649)" fill="none" stroke="gray" stroke-miterlimit="10" stroke-width="0.93"/>
        <line id="Line_65" data-name="Line 65" x1="18.045" y1="13.887" transform="translate(486.525 504.274)" fill="none" stroke="gray" stroke-miterlimit="10" stroke-width="0.93"/>
        <line id="Line_66" data-name="Line 66" x1="16.42" y1="15.378" transform="translate(480.494 503.633)" fill="none" stroke="gray" stroke-miterlimit="10" stroke-width="0.93"/>
        <line id="Line_67" data-name="Line 67" x1="15.13" y1="14.987" transform="translate(474.368 504.914)" fill="none" stroke="gray" stroke-miterlimit="10" stroke-width="0.93"/>
        <path id="Path_2838" data-name="Path 2838" d="M425.14,497.223s22.136,9.032,33.4,10.456l22.528,2.867,19.345-19.374-25.5-3.823L455.7,480.43Z" transform="translate(-18.833 -17.474)" fill="#eff4f3"/>
        <line id="Line_68" data-name="Line 68" y1="11.613" x2="22.031" transform="translate(416.888 466.884)" fill="none" stroke="gray" stroke-miterlimit="10" stroke-width="0.93"/>
        <line id="Line_69" data-name="Line 69" y1="12.177" x2="21.228" transform="translate(422.555 467.964)" fill="none" stroke="gray" stroke-miterlimit="10" stroke-width="0.93"/>
        <line id="Line_70" data-name="Line 70" x1="20.186" y2="13.41" transform="translate(429.523 469.101)" fill="none" stroke="gray" stroke-miterlimit="10" stroke-width="0.93"/>
        <line id="Line_71" data-name="Line 71" y1="14.069" x2="19.154" transform="translate(434.923 470.611)" fill="none" stroke="gray" stroke-miterlimit="10" stroke-width="0.93"/>
        <line id="Line_72" data-name="Line 72" y1="13.887" x2="18.045" transform="translate(443.257 472.236)" fill="none" stroke="gray" stroke-miterlimit="10" stroke-width="0.93"/>
        <line id="Line_73" data-name="Line 73" y1="15.378" x2="16.42" transform="translate(450.913 471.596)" fill="none" stroke="gray" stroke-miterlimit="10" stroke-width="0.93"/>
        <line id="Line_74" data-name="Line 74" y1="14.996" x2="15.13" transform="translate(458.33 472.867)" fill="none" stroke="gray" stroke-miterlimit="10" stroke-width="0.93"/>
        <path id="Path_2839" data-name="Path 2839" d="M631.518,527.784s-20.377,12.5-31.254,15.751l-21.773,6.48L556.26,534.035l24.544-7.866,17.835-9.959Z" transform="translate(-24.632 -19.057)" fill="#eff4f3"/>
        <line id="Line_75" data-name="Line 75" x1="23.617" y1="7.876" transform="translate(572.621 501.32)" fill="none" stroke="gray" stroke-miterlimit="10" stroke-width="0.93"/>
        <line id="Line_76" data-name="Line 76" x1="22.929" y1="8.564" transform="translate(567.986 503.175)" fill="none" stroke="gray" stroke-miterlimit="10" stroke-width="0.93"/>
        <line id="Line_77" data-name="Line 77" x2="22.097" y2="9.959" transform="translate(562.328 505.258)" fill="none" stroke="gray" stroke-miterlimit="10" stroke-width="0.93"/>
        <line id="Line_78" data-name="Line 78" x1="21.19" y1="10.772" transform="translate(558.256 507.457)" fill="none" stroke="gray" stroke-miterlimit="10" stroke-width="0.93"/>
        <line id="Line_79" data-name="Line 79" x1="20.062" y1="10.762" transform="translate(551.394 510.238)" fill="none" stroke="gray" stroke-miterlimit="10" stroke-width="0.93"/>
        <line id="Line_80" data-name="Line 80" x1="18.704" y1="12.502" transform="translate(545.344 510.582)" fill="none" stroke="gray" stroke-miterlimit="10" stroke-width="0.93"/>
        <line id="Line_81" data-name="Line 81" x1="17.366" y1="12.329" transform="translate(539.504 512.838)" fill="none" stroke="gray" stroke-miterlimit="10" stroke-width="0.93"/>
        <path id="Path_2840" data-name="Path 2840" d="M412.73,460.187s18.36-4.626,26.217-8.994l15.722-8.745L457.909,421l-18.045,9.558-15.5,4.588Z" transform="translate(-18.284 -14.846)" fill="#eff4f3"/>
        <line id="Line_82" data-name="Line 82" y1="17.739" x2="8.612" transform="translate(400.601 421.848)" fill="none" stroke="gray" stroke-miterlimit="10" stroke-width="0.74"/>
        <line id="Line_83" data-name="Line 83" y1="17.72" x2="7.828" transform="translate(404.998 420.252)" fill="none" stroke="gray" stroke-miterlimit="10" stroke-width="0.74"/>
        <line id="Line_84" data-name="Line 84" x1="6.585" y2="18.026" transform="translate(410.551 418.197)" fill="none" stroke="gray" stroke-miterlimit="10" stroke-width="0.74"/>
        <line id="Line_85" data-name="Line 85" y1="17.959" x2="5.62" transform="translate(415.014 417.107)" fill="none" stroke="gray" stroke-miterlimit="10" stroke-width="0.74"/>
        <line id="Line_86" data-name="Line 86" y1="17.328" x2="4.999" transform="translate(421.007 414.756)" fill="none" stroke="gray" stroke-miterlimit="10" stroke-width="0.74"/>
        <line id="Line_87" data-name="Line 87" y1="17.51" x2="3.269" transform="translate(426.283 411.525)" fill="none" stroke="gray" stroke-miterlimit="10" stroke-width="0.74"/>
        <line id="Line_88" data-name="Line 88" y1="16.669" x2="2.619" transform="translate(431.444 409.461)" fill="none" stroke="gray" stroke-miterlimit="10" stroke-width="0.74"/>
        <path id="Path_2841" data-name="Path 2841" d="M677.719,482.831s-11.469-15.044-18.618-20.54L644.86,451.3l-20.97,5.448,15.895,12.8,10.341,12.425Z" transform="translate(-27.623 -16.186)" fill="#eff4f3"/>
        <line id="Line_89" data-name="Line 89" x1="19.689" y1="0.908" transform="translate(622.666 462.363)" fill="none" stroke="gray" stroke-miterlimit="10" stroke-width="0.74"/>
        <line id="Line_90" data-name="Line 90" x1="19.374" y1="0.191" transform="translate(619.77 459.677)" fill="none" stroke="gray" stroke-miterlimit="10" stroke-width="0.74"/>
        <line id="Line_91" data-name="Line 91" y1="1.07" x2="19.163" transform="translate(616.176 455.453)" fill="none" stroke="gray" stroke-miterlimit="10" stroke-width="0.74"/>
        <line id="Line_92" data-name="Line 92" x1="18.724" y2="1.931" transform="translate(613.796 451.811)" fill="none" stroke="gray" stroke-miterlimit="10" stroke-width="0.74"/>
        <line id="Line_93" data-name="Line 93" x1="17.892" y2="2.246" transform="translate(609.514 447.482)" fill="none" stroke="gray" stroke-miterlimit="10" stroke-width="0.74"/>
        <line id="Line_94" data-name="Line 94" x1="17.386" y2="3.909" transform="translate(605.146 443.84)" fill="none" stroke="gray" stroke-miterlimit="10" stroke-width="0.74"/>
        <line id="Line_95" data-name="Line 95" x1="16.344" y2="4.167" transform="translate(601.476 440.256)" fill="none" stroke="gray" stroke-miterlimit="10" stroke-width="0.74"/>
        <path id="Path_2842" data-name="Path 2842" d="M529.906,356.35l-8.525-12.329a1.109,1.109,0,0,1,.268-1.529h0a1.109,1.109,0,0,1,1.539.277l8.525,12.33a1.1,1.1,0,0,1-.268,1.529h0a1.118,1.118,0,0,1-1.539-.277Z" transform="translate(-23.081 -11.365)" fill="#414042"/>
        <rect id="Rectangle_200" data-name="Rectangle 200" width="3.097" height="5.247" rx="1.36" transform="translate(496.483 330.361) rotate(-33.7)" fill="#fbb040"/>
        <circle id="Ellipse_88" data-name="Ellipse 88" cx="8.373" cy="8.373" r="8.373" transform="translate(481.724 326.833) rotate(-68.17)" fill="#9ce8ef" opacity="0.69"/>
        <g id="Group_134" data-name="Group 134" transform="translate(486.175 317.729)" opacity="0.69">
          <path id="Path_2843" data-name="Path 2843" d="M518.4,340a9.72,9.72,0,0,1-4.559-.593,7.435,7.435,0,0,1-2.791-2.179,6.9,6.9,0,0,1-1.023-5.926,6.175,6.175,0,0,1,.593-1.357c.1-.163.3-.4.411-.621s.134-.736-.258-.822c-.6-.143-1.023.746-1.262,1.185a6.693,6.693,0,0,0-.583,1.52,7.207,7.207,0,0,0,1.319,6.251,6.538,6.538,0,0,0,2.772,2.1,11.048,11.048,0,0,0,4.129.6,7.975,7.975,0,0,0,1.262-.153Z" transform="translate(-508.703 -328.484)" fill="#fff"/>
        </g>
        <g id="Group_135" data-name="Group 135" transform="translate(488.772 316.271)" opacity="0.69">
          <path id="Path_2844" data-name="Path 2844" d="M512.538,327.275a.593.593,0,1,0-.363.7.593.593,0,0,0,.363-.7Z" transform="translate(-511.421 -326.958)" fill="#fff"/>
        </g>
        <g id="Group_136" data-name="Group 136" transform="translate(490.522 315.797)" opacity="0.69">
          <path id="Path_2845" data-name="Path 2845" d="M513.556,326.565a.163.163,0,0,0-.2-.1.172.172,0,0,0-.1.21.162.162,0,0,0,.21.086.143.143,0,0,0,.086-.2Z" transform="translate(-513.251 -326.462)" fill="#fff"/>
        </g>
        <path id="Path_2846" data-name="Path 2846" d="M510.55,325.789c-.22.153-.43.315-.64.478a8.373,8.373,0,0,1,9.252,13.859,7.127,7.127,0,0,0,.679-.411,8.373,8.373,0,1,0-9.29-13.926Z" transform="translate(-22.582 -10.568)" fill="#9ce8ef" opacity="0.85"/>
        <path id="Path_2847" data-name="Path 2847" d="M509.78,323.457a10.7,10.7,0,1,0,14.853,2.963,10.7,10.7,0,0,0-14.853-2.963Zm10.59,15.866a6.031,6.031,0,1,0-.01,0Z" transform="translate(-22.366 -10.452)" fill="#414042"/>
        <path id="Path_2848" data-name="Path 2848" d="M520.7,339.43A8.363,8.363,0,0,0,512.72,324.8a8.363,8.363,0,0,1,7.245,14.91,7.925,7.925,0,0,1-1.3.717,8.191,8.191,0,0,0,2.036-.994Z" transform="translate(-22.706 -10.56)" fill="#383838"/>
        <path id="Path_2849" data-name="Path 2849" d="M542.921,360.206s-4.53-5.228-5.524-6.241-5.668-3.9-7.044-4.148-7.226.182-7.293.545a4.512,4.512,0,0,0,.774,2.342c.42.392.956.956,1.558,3.489s.583,4.836,2.485,5.945,2.724,1.692,5.094,1.912a12.426,12.426,0,0,1,5.276,1.912Z" transform="translate(-23.163 -11.695)" fill="#fec4ad"/>
        <path id="Path_2850" data-name="Path 2850" d="M509.772,362.984a10.516,10.516,0,0,1,1.1-.344c.4.64,1.625.162,2.179.44a14.642,14.642,0,0,1,1.3.784c.449.287,1.223.478,1.567.879a10.712,10.712,0,0,1,.87,1.615c.315.593.487,1.214.746,1.826a4.32,4.32,0,0,0,2.447,2.064c.841.373,2.256.306,2.686,1.2a4.215,4.215,0,0,1-.832,4.779c-.65.755-1.434.535-2.265.143s-1.778-.669-2.657-1.032a3.985,3.985,0,0,0-2.017-.105,10.94,10.94,0,0,1-2.734-.182c-1.778-.335-3.422-1.128-5.228-.9a18.158,18.158,0,0,1-5.878-.229,12.075,12.075,0,0,1-1.233-.468c-.516-.172-1.042-.182-.44-.64a4.78,4.78,0,0,1,2.724-.535,14.957,14.957,0,0,0,2.437-.268,4.2,4.2,0,0,0,1.988-.535c-1.032-.21-2.2-.105-3.24-.354a27.98,27.98,0,0,1-2.867-.956c-.5-.153-2.3-.64-2.475-1.223-.287-.956,1.806-.449,2.208-.373a16.751,16.751,0,0,0,3.565.487,11.747,11.747,0,0,0,3.183-.134c-1.491-.669-3.2-1.147-4.779-1.673a5.63,5.63,0,0,1-2.81-1.625c-.889-1.319,1.8-.382,2.237-.239a27.115,27.115,0,0,0,4.167,1.042c.583.1,2.275.659,2.772.268a6.806,6.806,0,0,0-1.749-1.72c-.774-.688-.4-.86.076-1.568.239-.354.191-.535.64-.631a3.718,3.718,0,0,1,1.128,0c.851.182.9.956,0,1.195.717.076,1.348.793,2.007,1.08.468.2,1.587.707,2.036.277-.153-.459-1.281-.7-1.682-.956s-1.309-.612-1.262-1.233Z" transform="translate(-22.052 -12.265)" fill="#fec4ad"/>
        <path id="Path_2851" data-name="Path 2851" d="M523.843,370.189a4.081,4.081,0,0,0-2.38-.669,42.563,42.563,0,0,1-2.753,9.4,2.5,2.5,0,0,1,1.835.86,26.761,26.761,0,0,0,3.336-10.1c.248,0,0,.172.134.335Z" transform="translate(-22.971 -12.569)" fill="#ecefca"/>
        <path id="Path_2852" data-name="Path 2852" d="M519.866,380.426a27.31,27.31,0,0,0,3.164-7.283,12.151,12.151,0,0,0,.583-1.453,6.26,6.26,0,0,0,.258-1.032,11.935,11.935,0,0,0,.22-2.045c1.453.669,3.02,1.367,5.811,2.4,3.135,1.156,8.449,4.779,11.144,5.085,2.4.3,4.435,1.912,7.111,1.568a2.007,2.007,0,0,1,3.393-.956c5.639-4.569,14.69-3.651,20.874-11.641h1.29c4.311-1.749,4.616,5.094,4.062,7.646-1.013,4.674-4.263,9.013-7.207,12.683-3.211,4-8.239,8.908-13.6,8.755-3.154-.076-5.1-1.386-7.99-2.514-6.394-2.475-13.065-4.6-19.651-6.442a59.813,59.813,0,0,1-9.558-3.661C519.78,381.239,519.827,380.809,519.866,380.426Z" transform="translate(-23.018 -12.36)" fill="#032442"/>
        <path id="Path_2853" data-name="Path 2853" d="M516.756,459.487c2.619,1.281,2.5,7.312.554,9.089-2.734,2.485-8.449,1.338-10.1-1.8-2.17-4.119,3.517-9.453,7.78-7.646Z" transform="translate(-22.441 -16.516)" fill="#ecefca"/>
        <path id="Path_2854" data-name="Path 2854" d="M548.914,493.9c3.383,1.529,1.252,8.9-.956,10.609-3.231,2.466-9.051,1.491-10.991-2.227-2.7-5.161,6.2-13.859,10.016-9.29Z" transform="translate(-23.756 -17.973)" fill="#ecefca"/>
        <path id="Path_2855" data-name="Path 2855" d="M584.832,413.637c-3.613-.411-7.971,1.08-11.565,1.568-3.326.44-6.815.6-10.15,1.061a31.7,31.7,0,0,0-8.917,2.313c-3.125,1.548-7.876,7.493-8.764,10.8-2.389,8.841-14.212,59.956-13.926,62.383.373,3.154,21.113,8.344,21.113,8.344,11.1-30.164,11.1-30.164,11.336-39.387.105-4.282-.564-12.014,2.571-14.69a25.521,25.521,0,0,1,3.823-1.529,6.69,6.69,0,0,1,3.718-.411,35.231,35.231,0,0,0,8.755-.382c9.032-1.759,15.531-7.713,12.913-17.988-1.615-6.289-6.337-10.255-11.584-12.129Z" transform="translate(-23.537 -14.517)" fill="#011928"/>
        <path id="Path_2856" data-name="Path 2856" d="M578.449,312c-5.735.2-9.921,3.823-10.685,9.252-.287,2.007,1.09,3.594-.325,5.352-1.061,1.329-3.192,1.778-1.663,3.6.229.268.688.5.841.755.43.793,0,.736-.105,1.348s-.354.487-.105,1.032c.162.392.688.411.86.86-1.2.832,0,1.166.373,1.787.621,1.128-.487,1.348-.507,2.418,0,1.7,3.45,1.8,4.836,2,2.237.315,4,.487,5.782,1.912,1.367,1.1,3.192,3.393,3.422,5.037.268-1.156,2.332-1.912,3.288-2.456,1.634-.956,3.269-1.759,4.893-2.7,1.3-.746,1.644-.66,1.224-2.055a13.7,13.7,0,0,1-.612-2.934,8.6,8.6,0,0,1,1.147-5.553,16.879,16.879,0,0,0,2.15-9.042,10.131,10.131,0,0,0-6.843-9.128c-1.577-.526-7.264-2.495-8.516-1.109Z" transform="translate(-25.029 -10.021)" fill="#fec4ad"/>
        <path id="Path_2857" data-name="Path 2857" d="M588.741,399.944a10.055,10.055,0,0,0,2.533-12.062,89.913,89.913,0,0,0-9.023-14,19.239,19.239,0,0,0-5.9-7.245c-.9-1.061-1.806-2.1-2.724-3.154,0-3.661.239-6.977,3.02-9.864a17.737,17.737,0,0,1,2.16-1.912c.115-.344.258-.688.4-1.032-.851.067-1.4-.545-1.653-1.462a54.477,54.477,0,0,0,13.534-12.138l.755-.583c1.2.784,1.568,3.336,2.762,4.349s3.317,1.357,4.731,2.466a29.811,29.811,0,0,1,4.139,4.349,49.4,49.4,0,0,1,9.185,15.417c2.418,7,4.683,13.562,5.285,21.084.564,7.063,3.919,16.334,1.577,23.321-1.567,4.664-10.447-.774-13.773-1.061-3.584-.315-7.2-.545-10.743-1.013-2.466-.315-5.9.2-8.229-.679a3.632,3.632,0,0,1-2.294-2.686A9.559,9.559,0,0,0,588.741,399.944Z" transform="translate(-25.4 -11.108)" fill="#ecefca"/>
        <path id="Path_2858" data-name="Path 2858" d="M569.184,317.193c-1.118.621-1.252-.879-1.214-1.73a5.3,5.3,0,0,1,1.586-3.154c2.007-2.456,4.33-1.6,6.69-2.791a12.589,12.589,0,0,1,5.152-1.491,5.659,5.659,0,0,1,2.571.229c.487.268.726.831,1.252,1.128,1.367.755,2.953.4,4.378,1.3a11.737,11.737,0,0,1,4.616,5.62,15.541,15.541,0,0,1-.21,11.823c-.746,1.539-3.288,5.907-5.075,6.155a12.761,12.761,0,0,0-2.017-4.616c-.793-.956-.64-.545-1.567,0-.507.315-2.083.956-2.38.172s.8-1.462,1.061-2.026a3.9,3.9,0,0,0,.306-2.561c-.659-1.548-2.609-.22-3.479.43-.105-.507,0-1.615-.545-1.654s-.851,1.376-1.912.956c0-.487.076-.956.076-1.481-1.615,0-1.07-.956-1.481-2.246-.468-1.4-.774-1.7-2.007-1.644-1.415.067-5.018-.86-5.735-2.227Z" transform="translate(-25.149 -9.847)" fill="#551800"/>
        <path id="Path_2859" data-name="Path 2859" d="M514.111,506.089c-.277-.793-.717.631-.6,1.032.21.659,1.29,1.013,1.912,1.319a24.733,24.733,0,0,0,5.9,2.437,52.569,52.569,0,0,0,12.645,1.806c1.74,0,3.422-.526,5.113-.679a4.6,4.6,0,0,1,2.131.057c.65.392.43,1.271.249,1.8a16.392,16.392,0,0,0,4.377.841c1.233.115,2.7.516,3.823.086.812-.306,1.08-2.074,1.156-3.02s0-1.023-.889-.956a28.354,28.354,0,0,1-4.291-.363c-2.963-.3-5.735-.832-8.669-.421-1.673.248-3.288.717-4.989.879a19.736,19.736,0,0,1-4.559-.143c-4.1-.449-7.723-2.6-11.565-4.033a8.688,8.688,0,0,1-1.673-.87c0,.2-.382-.143-.354.048Z" transform="translate(-22.74 -18.598)" fill="#773b00"/>
        <path id="Path_2860" data-name="Path 2860" d="M535.264,497.22a4.52,4.52,0,0,0-1.912,1.233c-.8.631-1.634,1.214-2.447,1.816a14.213,14.213,0,0,1-4.645,2.7,12.732,12.732,0,0,1-7.2-.162,5.218,5.218,0,0,0-3.45-.048c-.64.335-1.759,2.237-1.357,2.972.277.507,1.854.956,2.342,1.166.851.354,12.024,5.687,20.635,3.728,3.6-.832,7.14.315,10.81.832.812.115,2.437.22,2.982-.535.44-.593.411-2.542.459-3.336a16.076,16.076,0,0,0-1.042-6.69c-.554.048-1.29.774-1.835,1a10.744,10.744,0,0,1-2.581.707,16.164,16.164,0,0,1-4.014.258c-2.581-.239-3.25-2.552-4.779-4.406-.573-.707-1.52-1.462-2.37-1.118Z" transform="translate(-22.77 -18.217)" fill="#0c0500"/>
        <path id="Path_2861" data-name="Path 2861" d="M482.833,462.856c-.105-.822-.822.478-.793.908.076.659,1.07,1.223,1.615,1.634a24.62,24.62,0,0,0,5.314,3.489,52.442,52.442,0,0,0,12.148,4.119c1.7.325,3.46.134,5.161.3a4.683,4.683,0,0,1,2.093.468c.554.507.162,1.319-.124,1.8a16.64,16.64,0,0,0,4.148,1.663c1.195.334,2.571.956,3.756.793.86-.143,1.481-1.826,1.749-2.734s.191-.956-.688-1.109a30.145,30.145,0,0,1-4.158-1.157c-2.867-.851-5.524-1.912-8.468-2.036-1.692-.086-3.374.076-5.075-.086a19.712,19.712,0,0,1-4.463-1.013c-3.957-1.2-7.092-3.986-10.58-6.107a8.387,8.387,0,0,1-1.481-1.166c0,.21-.354-.22-.363,0Z" transform="translate(-21.349 -16.684)" fill="#ae690c"/>
        <path id="Path_2862" data-name="Path 2862" d="M505.384,458.37a4.511,4.511,0,0,0-2.1.841c-.956.459-1.854.879-2.772,1.309a14.49,14.49,0,0,1-5.123,1.778,13.027,13.027,0,0,1-7.054-1.52,5.238,5.238,0,0,0-3.393-.707c-.688.21-2.17,1.845-1.912,2.638.162.554,1.634,1.3,2.074,1.6.765.507,10.7,7.818,19.584,7.522,3.708-.124,6.968,1.644,10.514,2.867.784.268,2.361.669,3.049,0s.908-2.409,1.118-3.183a15.932,15.932,0,0,0,.306-6.69c-.554-.048-1.415.516-2.007.64a10.1,10.1,0,0,1-2.686.2,15.751,15.751,0,0,1-4-.507c-2.485-.717-2.7-3.1-3.823-5.2-.421-.784-1.214-1.711-2.112-1.529Z" transform="translate(-21.392 -16.499)" fill="#0c0500"/>
        <path id="Path_2863" data-name="Path 2863" d="M607.208,429.951c.124,3.183-6.69,7.417-9.109,9.042-4.674,3.211-12.8,6.872-18.408,5.4-7.159-1.911-10.676-9.347-14.977-14.48-3.775-4.511-6.528-9.644-10.9-13.734-1.768,3.145-5.821,5.457-7.809,8.554-5.19,8.076-20.367,40.095-20.367,40.095-6.413-.344-16.019-2.638-21.983-11.068,7.646-6.862,18.943-33.777,29.294-47.081,3.316-4.272,9.672-14.824,16.583-14.509a8.737,8.737,0,0,1,1.911.344c6.127-.143,11.747,5.18,16.5,8.019a91.817,91.817,0,0,1,10.819,7.56c1.414,1.128,3.441,3.183,5.324,3.594,2.045.44,4.205-1.262,6.1-1.309h-.956a3.525,3.525,0,0,1,.7-.574,16.8,16.8,0,0,1,3.909,2.867c1.577,1.481,2.992,3.173,4.473,4.779a60.558,60.558,0,0,1,5.563,6.69C604.79,425.459,607.208,428.25,607.208,429.951Z" transform="translate(-22.305 -13.571)" fill="#021f35"/>
        <path id="Path_2864" data-name="Path 2864" d="M593.829,412.644c-2.963,1.185-9.309,2.772-15.015-1.978-7.78-6.48-25.806-19.354-30.642-16.248s-28.157,33.127-34.819,53.839c0,0,2.141,7.77,12.425,11.154,0,0-6.174-.851-14.126-7.818,0,0,.076,11.584,14.012,13.276-6.413-.344-16.019-2.638-21.983-11.068,7.646-6.862,18.943-33.777,29.294-47.081,3.317-4.272,9.672-14.824,16.583-14.509a8.741,8.741,0,0,1,1.912.344c6.126-.143,11.746,5.18,16.5,8.019a91.807,91.807,0,0,1,10.819,7.56c1.414,1.128,3.441,3.183,5.324,3.594,2.045.44,4.205-1.262,6.1-1.309h-.956a3.525,3.525,0,0,1,.7-.573,16.8,16.8,0,0,1,3.88,2.8Z" transform="translate(-22.306 -13.572)" fill="#011928"/>
        <path id="Path_2865" data-name="Path 2865" d="M623.466,406.089a57.769,57.769,0,0,1-3.957,16.9c-1.72,4.406-10.007,21.983-16.248,19.574-1.7-.66-3.326-3.718-4.664-6.136h0c-.5-.889-.956-1.692-1.348-2.256-2.37-3.307-5.066-6.643-7.388-10.074-2.217-3.278-10.255-12.11-9.281-16.248.115-.5,2.007-1.692,2.456-2.064-1.061-.564-2.676-1.74-2.867-3.02-.21-1.806,1.4-1.252,1.854-2.867s-.621-1.386-.707-3.068c-.124-2.284.421-2.351,1.109-4.3.048-.134.086-.268.124-.4.669-2.37.268-5.735.172-9.061-3.154-7.77-6.834-15.35-9.261-23.35a22.339,22.339,0,0,1,2.867-6.633c1.654-2.294,4.3-3.5,6.69-4.97,1.988-1.214,3.919-2.523,5.84-3.823,1.109-.765,3.823-3.67,4.779-3.67l-.21.191c.956-.516,3.068,0,3.823.382,1.453.755,2.581,2.447,3.88,3.527,1.912,1.606,4.435,2.867,6.193,4.645,1.52,1.539,2.552,4,3.508,5.9,2.944,5.859,4.96,12.205,7.34,18.322s3.947,11.6,3.966,18.026C624.269,392.718,623.676,403.26,623.466,406.089Z" transform="translate(-25.393 -11.29)" fill="#002751"/>
        <path id="Path_2866" data-name="Path 2866" d="M612.764,438.638c-.65,1.4-1.606,2.724-2.1,4.138,1.692.583,3.823,0,5.228,1.51-1.625,3.536-6.69,3.9-10.036,4.33-3.823.5-5.735.64-8.545-2A50.189,50.189,0,0,1,584.674,429.1c-1.806-4.473-5.333-11.775-2.581-16.439,1.711-2.867,4.97-4.3,8.239-4.635,6.241-.64,10.571,1.606,14.251,6.585,4.578,6.2,7.1,15.493,7.646,22.939a4.57,4.57,0,0,1-1.252,0Z" transform="translate(-25.729 -14.267)" fill="#002751"/>
        <path id="Path_2867" data-name="Path 2867" d="M540.679,363.683c.65-.459,1.281-.86,1.911-1.233a9.921,9.921,0,0,1,3.536-.86,9.608,9.608,0,0,0,1.09.755,21.161,21.161,0,0,1-4.549,4.129c-3.383,2.409-6.566,3.728-7.111,2.963S537.305,366.092,540.679,363.683Z" transform="translate(-23.713 -12.218)" fill="#1688a3"/>
        <path id="Path_2868" data-name="Path 2868" d="M545.168,362.62c-.115-.612-.717-1.032-1.032-1.567a7.009,7.009,0,0,0-.774-1.453c-2,2.332-5.257,5.735-8.6,5.869.64.8,1.338,1.615,2.055,2.37A5.832,5.832,0,0,0,537.933,369a2.065,2.065,0,0,0,1.787-.277c1.606-.765,3.546-1.912,4.291-3.6.229-.516.468-.956.707-1.462s.421-1.262.43-1.2Z" transform="translate(-23.681 -12.13)" fill="#ecefca"/>
        <path id="Path_2869" data-name="Path 2869" d="M603.416,355.39l-.526.449C603.11,355.572,603.291,355.409,603.416,355.39Z" transform="translate(-26.694 -11.944)" fill="#002751"/>
        <path id="Path_2870" data-name="Path 2870" d="M599.315,355.928c.86-1.338.105-4.358-.478-5.543-.9-1.826-3.211-3.192-5.094-3.823a13.679,13.679,0,0,0-3.259-.765c-10.332-1.137-15.579,11.469-19.23,19.526a24.572,24.572,0,0,1-4.32,6.939c-2.552,2.743-4.014,1-6.958-1.023-4.072-2.8-8.2-5.515-11.966-8.6a7.023,7.023,0,0,0-1.434-1.73q-.43.344-.832.717a42.936,42.936,0,0,1-3.823,3.3c-1.615,1.128-4.435,3.469-6.461,3.383,1.912,3.479,4.731,6.2,7.532,9.156s5.821,5.735,8.726,8.6c2.093,2.055,4.033,4.3,6.184,6.327a25.6,25.6,0,0,0,3.747,3.47c.354.315.717.659,1.07.956,2.083,1.74,6.3,2.084,6.308-1.376,2.16,0,4.588-3.708,6.079-5.19,3.116-3.106,6.432-6.213,9.4-9.462,3.823-4.158,6.576-9.386,9.472-14.184.956-1.653,4.377-9.2,5.916-11.135ZM569,394.732a1.682,1.682,0,0,1,0,.507,4.9,4.9,0,0,0,0-.507Z" transform="translate(-23.712 -11.517)" fill="#002751"/>
        <path id="Path_2871" data-name="Path 2871" d="M590.93,345.757c-4.206,1.663-8.946,4.54-10.284,9.252-2.542,8.965-12.3,18.571-11.163,22.375s4.884,7.541,2.638,7.541,4.779-.956-25.93-23.34q.4-.373.832-.717a7.025,7.025,0,0,1,1.434,1.73c3.766,3.087,7.895,5.8,11.966,8.6,2.944,2.026,4.406,3.766,6.958,1.023a24.57,24.57,0,0,0,4.32-6.939C575.379,357.2,580.626,344.619,590.93,345.757Z" transform="translate(-24.186 -11.515)" fill="#022e56"/>
        <path id="Path_2872" data-name="Path 2872" d="M463.7,339.8s10.619,15.684,17.4,21.572L494.7,373.166l21.256-4.263L500.813,355.2l-9.558-13.008Z" transform="translate(-20.538 -11.255)" fill="#eff4f3"/>
        <line id="Line_96" data-name="Line 96" x2="19.612" y2="2.036" transform="translate(450.693 332.359)" fill="none" stroke="gray" stroke-miterlimit="10" stroke-width="0.74"/>
        <line id="Line_97" data-name="Line 97" x2="19.335" y2="1.309" transform="translate(453.704 335.943)" fill="none" stroke="gray" stroke-miterlimit="10" stroke-width="0.74"/>
        <line id="Line_98" data-name="Line 98" x1="19.192" y1="0.038" transform="translate(457.25 340.559)" fill="none" stroke="gray" stroke-miterlimit="10" stroke-width="0.74"/>
        <line id="Line_99" data-name="Line 99" y1="0.851" x2="18.8" transform="translate(459.859 343.513)" fill="none" stroke="gray" stroke-miterlimit="10" stroke-width="0.74"/>
        <line id="Line_100" data-name="Line 100" y1="1.214" x2="17.988" transform="translate(464.714 347.766)" fill="none" stroke="gray" stroke-miterlimit="10" stroke-width="0.74"/>
        <line id="Line_101" data-name="Line 101" y1="2.906" x2="17.577" transform="translate(469.379 349.993)" fill="none" stroke="gray" stroke-miterlimit="10" stroke-width="0.74"/>
        <line id="Line_102" data-name="Line 102" y1="3.221" x2="16.564" transform="translate(473.871 353.529)" fill="none" stroke="gray" stroke-miterlimit="10" stroke-width="0.74"/>
        <path id="Path_2873" data-name="Path 2873" d="M585.89,410.27c.344.593,11.364,19.4,13.037,28.52-.5-.889-.956-1.692-1.348-2.256-2.37-3.307-5.066-6.643-7.388-10.074-2.217-3.278-10.255-12.11-9.281-16.248.115-.5,2.007-1.692,2.456-2.064-1.061-.564-2.676-1.74-2.867-3.02-.21-1.806,1.4-1.252,1.854-2.867s-.621-1.386-.707-3.068c-.124-2.284.421-2.351,1.109-4.3.048-.134.086-.268.124-.4,4.674,6.088,11.976,13.515,20.654,15.063,0,0-6.824.315-19.613-7.952,0,0,9.892,12.951,26.915,15.407C610.883,416.96,595.7,416.884,585.89,410.27Z" transform="translate(-25.703 -13.674)" fill="#021f35"/>
        <path id="Path_2874" data-name="Path 2874" d="M398.475,458.076c-2.38,2.37-3.546,12.425-1.233,25.987,1.424,8.344,4.311,28.377,3.6,34.226-.8,6.69-2.064,11.116-4.043,21.9-.3,1.6,10-8.468,10.294-10.351.421-2.638,2.542-4.349,1.912-6.222-.736-2.3-1.749-3.823-1.329-8.029,1.023-10.15,5.085-18.3,5.467-31.961C413.557,469.364,408.214,448.433,398.475,458.076Z" transform="translate(-17.544 -16.377)" fill="#eacb93"/>
        <path id="Path_2875" data-name="Path 2875" d="M408.844,526.708c-.669-2.17-6.04-1.2-7.121,3.192,0,0-1.3,2.7-3.747,8.124a15.3,15.3,0,0,1-1.07,2c-2.275.2-4.779.583-4.827,1.835a4.014,4.014,0,0,0,1.625,3.517c1.453,1.061,5.381.956,8.812,0,.956-.277,1.042-2.733,2.4-6.69.612-1.806,2.571-3.632,3.928-5.247S409.857,529.92,408.844,526.708Z" transform="translate(-17.37 -19.472)"/>
        <path id="Path_2876" data-name="Path 2876" d="M410.041,532.439c-.812,1.778-1.692,6.8-1.415,13.323a4.21,4.21,0,0,1-1.434,0s.545-10.877-.268-12.234S410.041,532.439,410.041,532.439Z" transform="translate(-18.022 -19.774)"/>
        <path id="Path_2877" data-name="Path 2877" d="M374.054,460.526c-2.4,2.37-3.565,12.425-1.242,25.987,1.424,8.344,4.3,28.377,3.6,34.217-.812,6.69-2.064,11.125-4.052,21.906-.3,1.6,10.007-8.468,10.3-10.351.411-2.647,2.542-4.349,1.912-6.232-.736-2.294-1.749-3.823-1.329-8.019,1.023-10.15,5.085-18.3,5.467-31.971C389.127,471.766,383.784,450.882,374.054,460.526Z" transform="translate(-16.463 -16.485)" fill="#eacb93"/>
        <path id="Path_2878" data-name="Path 2878" d="M384.413,529.149c-.679-2.17-6.041-1.195-7.13,3.2,0,0-1.281,2.7-3.737,8.124a15.67,15.67,0,0,1-1.07,1.988c-2.275.21-4.779.583-4.836,1.845a4.014,4.014,0,0,0,1.634,3.517c1.453,1.051,5.381.956,8.8,0,.956-.277,1.051-2.734,2.409-6.69.6-1.8,2.571-3.622,3.928-5.257S385.417,532.37,384.413,529.149Z" transform="translate(-16.289 -19.58)"/>
        <path id="Path_2879" data-name="Path 2879" d="M385.61,534.9c-.812,1.768-1.692,6.786-1.424,13.314a4.547,4.547,0,0,1-1.434,0s.545-10.877-.268-12.234S385.61,534.9,385.61,534.9Z" transform="translate(-16.942 -19.882)"/>
        <path id="Path_2880" data-name="Path 2880" d="M362.83,411.815v1.912c.535,13.171,7.121,51.564,8.3,51.755,2.533.411,37.658-.87,38.843-1.1.172,0,.459-1.281.793-3.364,1.577-9.663,4.483-37.4,4.607-46.3.153-10.8-8.239-24.487-11.555-28.855s-32.745-2.5-32.745-2.5C367.647,388.733,362.992,401.015,362.83,411.815Z" transform="translate(-16.077 -13.164)" fill="#4d4d4d"/>
        <path id="Path_2881" data-name="Path 2881" d="M407.717,365.614c2.867,3.632,8.172,4.559,12.2,5.983a22.145,22.145,0,0,0,9.195.86c-4.177-.411-8.392-7.531-10.791-10.609-1.548-1.988-3.326-3.976-5.037-5.811-.774-.841-1.8-2.514-2.81-2.867-.726,2.418-1.166,4.865-1.663,7.331-.306,1.5-1.415,4.215-1.09,5.477Z" transform="translate(-18.06 -11.846)" fill="#db8a4d"/>
        <path id="Path_2882" data-name="Path 2882" d="M407.2,325.23c.86.621,2.208.344,3.2.3,1.711-.076,1.281-.134,2.112,1.07,1.1,1.587,2.867,1.912,3.957,3.747,1.252,2.112,1.778,4.9,2.724,7.2,1.529,3.718,2.762,7.6,4.6,11.154a79.794,79.794,0,0,0,6.432,10.38c1.74,2.389,4.425,5.61,3.336,8.936-3.2,9.73-13.935-3.106-16.927-6.365-2.647-2.867-5.448-5.61-7.512-9.013-2.275-3.756-1.6-8.793-1.6-13.094a47.911,47.911,0,0,0-.8-7.818c-.335-2.179,1.07-4.129.8-6.155Z" transform="translate(-18.016 -10.61)" fill="#f99e53"/>
        <path id="Path_2883" data-name="Path 2883" d="M354.84,382.217a54.275,54.275,0,0,0,13.476-8.545c1.816-1.6,3.183-2.686,3.326-5.3.153-2.867-1.271-6.021-2.084-8.764-.908-3.1-2.074-2.456-3.2,0-1.548,3.431-3.058,6.872-4.922,10.141-1.567,2.753-3.03,5.467-4.358,8.334A17.293,17.293,0,0,1,355,381.663Z" transform="translate(-15.724 -12.038)" fill="#db8a4d"/>
        <path id="Path_2884" data-name="Path 2884" d="M414.154,402.031c-7.7-16.506-11.785-35.87-4.158-52.8.248-.8.487-1.6.745-2.409,1.759-5.687,1.72-10.7,1.625-16.65a1.4,1.4,0,0,1,0-.2,46.145,46.145,0,0,0-5.132-3.517c-3.049-2.16-4.339-5.438-8-6.824a60.355,60.355,0,0,0-10.169-3.1,4.961,4.961,0,0,0-2.361-.239h0a12.424,12.424,0,0,0-3.966,1.262c-3.278,1.644-6.232,3.823-9.644,5.352-3.049,1.4-6.375,2.867-8.764,5.343v2.867c.1,4.138.249,8.258.4,12.377a11.37,11.37,0,0,1,.9,2.6c3.622,17.433,9.854,38.231-.832,53.428v2.485a11.049,11.049,0,0,0,.163,2.475c.535.956,2.4,1.348,3.45,1.768,3.431,1.357,7.015,2.867,10.628,3.364,6.843,1,13.314-.335,20.071-1.376,3.527-.554,7.465-.679,10.724-2.332a16.514,16.514,0,0,0,4.674-3.183A4.7,4.7,0,0,0,414.154,402.031Z" transform="translate(-16.143 -10.213)" fill="#f99e53"/>
        <path id="Path_2885" data-name="Path 2885" d="M405.729,324.338c-3.632-3.192-7.942-5.974-12.693-6.643a28.754,28.754,0,0,0-5.935-.535,22.5,22.5,0,0,0-4.3,1.08c.8-.879.564-2.485,1.348-3.307.64-.65,2.045-.6,2.925-.554a23.446,23.446,0,0,1,7.474,1.424,36.022,36.022,0,0,1,6.585,3.317c2.275,1.481,3.383,3.231,4.97,5.352Z" transform="translate(-16.96 -10.129)" fill="#f99e53"/>
        <path id="Path_2886" data-name="Path 2886" d="M406.676,294.65c2.934.7,1.634,8.717,1.615,10.733,0,2.313.8,4.549.277,6.8a40.147,40.147,0,0,1-1.615,5.209c-.468,1.233-.679,3-1.74,3.823-.659-1.434-3.058-1.959-3.718-3.336-.468-.956,1.032-3.46,1.09-4.913.057-1.806-.306-3.383-.258-5.18a5,5,0,0,1,.784-3.02c.487-.659,1.653-1.568,1.854-.143.5-.478.268-1.233.344-1.978a14.977,14.977,0,0,1,.841-3.059c.239-.774,1.5-4.607,0-4.511Z" transform="translate(-17.783 -9.258)" fill="#eacb93"/>
        <path id="Path_2887" data-name="Path 2887" d="M382.061,307.252a8.186,8.186,0,0,0-.287-.812c-1.711-.239.822,5.515,2.867,5.18.124-1.73-1.74-3.575-2.714-4.779Z" transform="translate(-16.89 -9.779)" fill="#eacb93"/>
        <path id="Path_2888" data-name="Path 2888" d="M380.391,293.1c1.042-4,5.926-8.3,9.682-9.128a18.848,18.848,0,0,1,10.953,1.271,12.654,12.654,0,0,1,3.651,2.017c1.74-.115,3.527,1.988,4.263,3.479s1.673,6.557.4,7.8c-.21-.65-.4-1.4-.631-2.074a2.3,2.3,0,0,1-1.109,2.38,1.424,1.424,0,0,1-.7.21c0,2.275-.344,4.884-2.284,5.878-.344-.535-.115-1.481-.9-1.711s-1.338.822-1.615,1.462a5.428,5.428,0,0,0-.315,3.02c.229.86,1.2,1.472,1.338,2.256.43,2.418-2.017,5.343-3.594,6.8-.688-.793-2.141-.956-3.106-1.348a34.186,34.186,0,0,0-4.2-1.567c-2.6-.593-5.3-.421-7.962-.573.956-2.724-1.711-5.257-2.628-7.723C380.315,302,379.426,296.831,380.391,293.1Z" transform="translate(-16.836 -8.772)" fill="#77311c"/>
        <path id="Path_2889" data-name="Path 2889" d="M383.031,285.37c.87-1.634,3.02-.5,3.575.86a4.664,4.664,0,0,1-1.319,5c-.7.688-3.9,1.491-4.138,2.217-.573,1.768,4.033,2.179,4.894,2.026,4.368-.765,7.474-6.451,4.827-10.58-1.128-1.759-5.888-4.253-6.69-.889Z" transform="translate(-16.885 -8.714)" fill="#7cc3d8"/>
        <path id="Path_2890" data-name="Path 2890" d="M385.23,282.421c-3.479-.7-6.748-2.466-9.758,1.07-3.594,4.205-1.615,9.72-4.32,14.279-1.415,2.409-2.552,3.871-2.552,6.882,0,3.479,2.934,5.018,4.961,7.35,1.644,1.912,3.049,4.158,2.523,6.882-.268,1.357-1.73,5.324-3.278,5.085,3.613.487,5.61-6.6,4.626-9.4-1.539-4.368-5.916-6.05-5.8-11.278.057-2.485,2.036-3.565,2.867-5.821s.765-5.161,2.4-7.14c3.192-3.823,5.314,1.663,8.6.449s2.2-10.513-1.118-8.516Z" transform="translate(-16.332 -8.67)" fill="#77311c"/>
        <path id="Path_2891" data-name="Path 2891" d="M387.206,288.845c.306,1.682-1.529,2.542-2.4,3.594A7.073,7.073,0,0,0,382.9,296.7c-.22,2.724.765,4.1,2.084,6.289a11.192,11.192,0,0,1,1.644,7.7c-.507,3.192-1.462,4.225.268,7.216,2.351,4.062,2.466,9.328,1.252,13.859a12.769,12.769,0,0,1-5.209,7.34c-3.087,2.237-2.982,6.738-1.8,10.093.382,1.08.812,2.122,1.1,3.23-2.514-.277-3.431-5.849-3.145-7.971.5-3.68,3.938-6.738,4.97-10.351,1.2-4.234.268-7.646-.956-11.746a34.273,34.273,0,0,1-1.806-8.057c-.076-1.6.535-4.4-.2-5.735-.86,2.437,2.342,7.092-.573,8.984-.277-1.1-.105-2.3-.306-3.4a30.079,30.079,0,0,0-1.156-3.584c-.956-3.25-.363-6.117-.5-9.386-2.791-1.548-2.5,10.064-2.561,11.4-3.135-.507-1.4-5.916-1.061-7.828a33.692,33.692,0,0,0,.086-8.774c-.268-3.068-.449-7,2.762-8.21a5.333,5.333,0,0,1,4.511.392c1.2.631,3.173,1,4.119,1.912Z" transform="translate(-16.578 -8.94)" fill="#77311c"/>
        <path id="Path_2892" data-name="Path 2892" d="M380.614,295.31c-.124,3.479.21,5.983-1.09,9.281-.812,2.064-1.644,4.215-3.231,5.735-1.73,1.692-6.356,4.205-2.561,6.451,3.383,2,6.977,4.483,4.521,9.109-1.109,2.093-2.141,4.54-1.281,7.054.65,1.912,2.647,2.342,3.441,4.091a6.2,6.2,0,0,1-.956,5.735,19.582,19.582,0,0,0,1.778-7.082c.115-2.619-.507-4.827-.774-7.35s.956-2.925,1.912-4.693a7.741,7.741,0,0,0,.4-5.209c-.573-2.389-1.252-4.052-.64-6.595.554-2.294,1.357-4.2,1.481-6.624.2-4.091-1.577-7.331-3.364-10.772Z" transform="translate(-16.495 -9.249)" fill="#77311c"/>
        <path id="Path_2893" data-name="Path 2893" d="M364.7,327.91c-2.17.956-2.542.2-2.714,2.734a55.324,55.324,0,0,1-1.4,6.843,190.348,190.348,0,0,1-5.811,22.7c-1.118,3.374-2.323,6.69-3.641,10-.851,2.093-1.558,4.177-.8,6.4.554,1.644,2.151,5.19,4.272,4.635s4.779-5.056,5.735-6.977c1.912-3.823,3.364-8.076,5.113-12.014a27.932,27.932,0,0,0,2.915-11.632c0-4.951.258-10.179-.679-15.034a13.3,13.3,0,0,0-1.558-4.712c-.5-.812-1.51-1.625-1.118-2.6Z" transform="translate(-15.51 -10.729)" fill="#f99e53"/>
        <path id="Path_2894" data-name="Path 2894" d="M368.106,359.2a180.649,180.649,0,0,1-1,22.059c-.64,5.3-4.272,24.1-4.272,24.1,2.781,1.768,7.35,4.234,11.708,5.008a27.69,27.69,0,0,1-3.565-9.109c-.3-2.456.956-5,1.415-7.388a55.806,55.806,0,0,0,.354-16.716c-.526-3.823-.717-7.646-1.711-11.326a43.892,43.892,0,0,0-2.925-7Z" transform="translate(-16.077 -12.096)" fill="#db8a4d"/>
        <path id="Path_2895" data-name="Path 2895" d="M362.87,415.14c.535,13.171,7.121,51.564,8.3,51.755,2.533.411,37.658-.87,38.843-1.1.172,0,.459-1.281.793-3.364l-37.161-15.751c28.339,1.845,34.58-17.538,34.58-17.538C389.756,434.122,372.179,422.805,362.87,415.14Z" transform="translate(-16.079 -14.587)" fill="#333"/>
        <text id="_" data-name="?" transform="matrix(0.781, -0.624, 0.624, 0.781, 123.725, 147.959)" fill="#3ea3ff" font-size="69" font-family="Helvetica"><tspan x="0" y="0">?</tspan></text>
        <text id="_2" data-name="?" transform="matrix(0.781, -0.624, 0.624, 0.781, 568.036, 182.09)" fill="#fff" font-size="69" font-family="Helvetica"><tspan x="0" y="0">?</tspan></text>
        <text id="_3" data-name="!" transform="matrix(0.998, 0.066, -0.066, 0.998, 340.567, 72.843)" fill="#fff" font-size="68" font-family="Helvetica"><tspan x="0" y="0">!</tspan></text>
        <circle id="Ellipse_89" data-name="Ellipse 89" cx="7.933" cy="7.933" r="7.933" transform="translate(214.548 95.117) rotate(-45)" fill="#ffba01"/>
        <path id="Path_2896" data-name="Path 2896" d="M236.009,90.19l1.539,3.125,3.45.5L238.5,96.25l.593,3.441-3.087-1.625-3.087,1.625.583-3.441-2.495-2.437,3.45-.5Z" transform="translate(-10.247 -0.216)" fill="#fff"/>
        <circle id="Ellipse_90" data-name="Ellipse 90" cx="7.933" cy="7.933" r="7.933" transform="translate(585.047 294.53) rotate(-45)" fill="#ffba01"/>
        <path id="Path_2897" data-name="Path 2897" d="M623.659,298.83l1.539,3.125,3.46.507-2.5,2.428.592,3.441-3.087-1.625-3.087,1.625.593-3.441-2.495-2.428,3.45-.507Z" transform="translate(-27.392 -9.443)" fill="#fff"/>
        <circle id="Ellipse_91" data-name="Ellipse 91" cx="7.933" cy="7.933" r="7.933" transform="translate(119.746 247.758) rotate(-45)" fill="#ffba01"/>
        <path id="Path_2898" data-name="Path 2898" d="M136.829,249.9l1.539,3.125,3.45.507-2.495,2.428.593,3.441-3.087-1.625-3.087,1.625.593-3.441-2.5-2.428,3.45-.507Z" transform="translate(-5.861 -7.279)" fill="#fff"/>
        <path id="Path_2899" data-name="Path 2899" d="M316.073,149.862a4.722,4.722,0,1,1-4.722-4.722,4.722,4.722,0,0,1,4.722,4.722Z" transform="translate(-13.592 -2.646)" fill="#ffba01"/>
        <path id="Path_2900" data-name="Path 2900" d="M311.432,146.88l.918,1.854,2.055.3-1.481,1.453.344,2.045-1.835-.965-1.835.965.354-2.045-1.491-1.453,2.055-.3Z" transform="translate(-13.673 -2.723)" fill="#fff"/>
        <path id="Path_2901" data-name="Path 2901" d="M557.3,99.911a4.722,4.722,0,1,1-1.38-3.345A4.722,4.722,0,0,1,557.3,99.911Z" transform="translate(-24.26 -0.436)" fill="#ffba01"/>
        <path id="Path_2902" data-name="Path 2902" d="M552.662,96.92l.918,1.864,2.055.3-1.491,1.453.354,2.045-1.835-.965-1.835.965.344-2.045L549.69,99.08l2.055-.3Z" transform="translate(-24.341 -0.513)" fill="#fff"/>
        <path id="Path_2903" data-name="Path 2903" d="M232.174,364.261l1.491-.956a1.147,1.147,0,0,0,.344-.335,32.154,32.154,0,0,1,2.37-3.2c1.338-.86,1.912-.64,1.912-.64.277.105.344.43.163.516s-1.434.956-1.2,1.577a10.645,10.645,0,0,0,1.806-.115l.64-.191a1.2,1.2,0,0,1,1.491.669c.143.344.287.717.373.956.134.5.363,1.912.5,2.81a1.176,1.176,0,0,1-.411,1.1c-.889.736-2.657,2.16-3.355,2.256s-3.078.344-4,.43a1.214,1.214,0,0,1-.726-.153l-1.567-.956a1.2,1.2,0,0,1-.593-1.176l.191-1.768a1.233,1.233,0,0,1,.583-.822Z" transform="translate(-10.264 -12.109)" fill="#efc2b9"/>
        <path id="Path_2904" data-name="Path 2904" d="M241.923,370.073l9.921-10.772a.631.631,0,0,0-.162-.956l-5.61-3.049a.621.621,0,0,0-.726.086l-10.514,9.835a.621.621,0,0,0,.086.956l6.2,4a.621.621,0,0,0,.8-.1Z" transform="translate(-10.408 -11.937)" fill="#f5f5f8"/>
        <path id="Path_2905" data-name="Path 2905" d="M235.811,365.111l9.424-8.87a.6.6,0,0,1,.726-.1l4.138,2.265a.621.621,0,0,1,.162.956l-8.726,9.491a.621.621,0,0,1-.774.105l-4.836-2.867a.631.631,0,0,1-.115-.984Z" transform="translate(-10.451 -11.974)" fill="#aaaae2"/>
        <path id="Path_2906" data-name="Path 2906" d="M246.242,357.03l3.651,1.959-.717.755-3.747-1.969Z" transform="translate(-10.885 -12.017)" fill="#fff"/>
        <path id="Path_2907" data-name="Path 2907" d="M244.942,358.3l3.641,1.959-.717.755-3.737-1.969Z" transform="translate(-10.828 -12.073)" fill="#fff"/>
        <ellipse id="Ellipse_92" data-name="Ellipse 92" cx="1.835" cy="1.357" rx="1.835" ry="1.357" transform="translate(229.632 350.184)" fill="#fff"/>
        <path id="Path_2908" data-name="Path 2908" d="M234.666,369.141l1.491-.956a1.051,1.051,0,0,0,.344-.335,33.635,33.635,0,0,1,2.37-3.211c1.338-.851,1.959-.631,1.959-.631.277.105.344.43.162.516s-1.424.956-1.2,1.577a9.992,9.992,0,0,0,1.806-.124,6.209,6.209,0,0,0,.64-.182,1.2,1.2,0,0,1,1.491.669,9.565,9.565,0,0,1,.373.956c.143.5.373,1.912.5,2.8a1.185,1.185,0,0,1-.411,1.109c-.879.736-2.657,2.15-3.345,2.246s-3.078.344-4.014.44a1.146,1.146,0,0,1-.726-.162l-1.567-.956a1.2,1.2,0,0,1-.593-1.176l.191-1.759a1.233,1.233,0,0,1,.535-.822Z" transform="translate(-10.376 -12.324)" fill="#f9ccc0"/>
        <path id="Path_2909" data-name="Path 2909" d="M201.1,331.578c-2.753,1.845-6.776,8.162-6.776,8.162l-4.607-4.091s-8.535-4.846-5.419-7.971,9.95-11.938,10.7-14.738C195.022,312.94,203.873,329.733,201.1,331.578Z" transform="translate(-8.151 -10.067)" fill="#f9ccc0"/>
        <path id="Path_2910" data-name="Path 2910" d="M208.319,303.849c5.849,2.284,7.742,5.553,5.553,14.709-.143.573-1.262,1.567-1.434,2.122a1.836,1.836,0,0,1-.105.354c-.1,2.466,0,6.289-.306,6.834s-1.548.507-2.638.229c-.7,1.271-1.4,2.275-1.969,3.192-1.481,2.351-2.026,2.867-2.867,2.724-2.992-.6-5.859-2.743-8.7-4.569-3.89-2.5-1.816-8.841-.736-13.591C196.9,308.026,200.816,300.934,208.319,303.849Z" transform="translate(-8.592 -9.635)" fill="#f9ccc0"/>
        <path id="Path_2911" data-name="Path 2911" d="M214.628,311.717c1.567-.7,1.654-2.485.64-4.922-.86-2.045-4.081-4.091-4.081-4.091l2.351,3.106a16.248,16.248,0,0,0-4.148-4.244c-.249-.163,1.09,1.606,1.09,1.606a14.623,14.623,0,0,0-9.768-5.037c-4.4-.507-5.735,1.166-5.735,1.166s-9.462,1.969-8.4,16.124c0,0,.755,4.559-1.6,5.61,1.548,1.912,7.895,1.654,7.895,1.654s2-3,1.912-4.712c-.21-3.661,3.7-5.161,4.11-3.7.153.507-.889,2.533-.449,3.078s1.577,3.422,1.644,2.867a11.9,11.9,0,0,1,7.694-9.414c1.854-.593-3.737-5.285-5.324-6.222s2.925.841,6.193,5.4C209.333,310.943,214.628,311.717,214.628,311.717Z" transform="translate(-8.212 -9.408)" fill="#5e2313"/>
        <path id="Path_2912" data-name="Path 2912" d="M231.759,363.532c1.673.573,2.2,3.947,2.237,5.276,0,.411.64,3.011.363,3.336s-2.772.8-3.364,1.032c.659-2.3.593-8.1-2.284-9.338a6.117,6.117,0,0,0,2.762-.478Z" transform="translate(-10.146 -12.297)" fill="#e0f7f7"/>
        <path id="Path_2913" data-name="Path 2913" d="M193.1,372.232c1.166,1.625,2.313,3.183,3.527,4.779,1.08,1.4,6.69,2.533,8.6,2.437,5.735-.3,22.8-6.767,24.219-8.43s-.487-6.365-1.29-8.956c-3.2-.335-15.942,2.647-19.536,2.867.1-.306-1.72-.306-2.81.115.172-1.606-2.15-3.68-3.154-4.913-1.3-1.6-1.386-7.235-2.112-9.137-1.529-3.976-2.38-7.694-4.884-11.211-2.619-3.68-6.27-8.4-10.886-7.321-3.823.9-9.08,2.934-8.411,8.115C176.568,342.288,190.083,368.008,193.1,372.232Z" transform="translate(-7.828 -10.923)" fill="#029971"/>
        <path id="Path_2914" data-name="Path 2914" d="M260.478,404.733c-1.281,1.462.315,5.19,1.959,5.8,2.294.851,5.505-1.338,5.735-3.718.287-3.116-4.549-4.98-6.69-2.781Z" transform="translate(-11.53 -14.053)" fill="#caecef"/>
        <path id="Path_2915" data-name="Path 2915" d="M200.5,395.249a3.24,3.24,0,0,1,1.338-2.093c2.237-1.644,8.9-9.491,10.4-11.527,2.189-2.982,4.291-7.732,8.076-9.223a5.955,5.955,0,0,1,1.1-.707c4.148-1.969,10.714,2.963,13.821,4.779,9.7,5.63,23.416,19.488,29.839,21.792h0a18.494,18.494,0,0,1-9.013,11.641,3.192,3.192,0,0,1-3.2,0c-4.932-2.867-20.626-11.823-26.991-15.684-1.424-.86-2.237,1.912-3.183,3.231-4.425,6.356-17.08,17.854-20.406,20.406C199.672,419.9,199.49,401.815,200.5,395.249Z" transform="translate(-8.873 -12.645)" fill="#110f59"/>
        <path id="Path_2916" data-name="Path 2916" d="M285.975,395.984c-.153-.669.784.076.879.411.134.545-.468,1.319-.774,1.835a23.149,23.149,0,0,1-3.116,4.578,49.647,49.647,0,0,1-8.191,7.484c-1.242.851-2.657,1.348-3.928,2.084-.354.21-1.271.66-1.481,1.1-.287.583.258,1.07.612,1.338a15.455,15.455,0,0,1-2.734,2.743,8.5,8.5,0,0,1-2.676,1.959c-.717.2-1.673-.87-2.141-1.472s-.449-.688.21-1.09a28.022,28.022,0,0,0,2.867-2.38,33.081,33.081,0,0,1,5.964-4.588c1.29-.669,2.638-1.147,3.919-1.912a18.654,18.654,0,0,0,3.164-2.361c2.724-2.342,4.339-5.591,6.432-8.478a7.426,7.426,0,0,0,.812-1.415c.057.163.21-.3.277-.143Z" transform="translate(-11.622 -13.725)" fill="#773b00"/>
        <path id="Path_2917" data-name="Path 2917" d="M267.1,400.721a3.823,3.823,0,0,1,1.912-.115h2.523a10.342,10.342,0,0,0,9.51-4.167,4.951,4.951,0,0,1,2.428-1.749c.593-.086,2.217.64,2.256,1.338,0,.487-.889,1.587-1.147,1.912-.449.659-6.04,9.816-13,12.769-2.925,1.233-4.932,3.756-7.3,5.935-.526.478-1.634,1.357-2.351,1.118-.573-.182-1.4-1.52-1.787-2.036a12.349,12.349,0,0,1-2.179-5.037c.411-.249,1.252-.115,1.74-.229a9.558,9.558,0,0,0,2.141-.8,15.185,15.185,0,0,0,2.953-1.826c1.73-1.443,1.195-3.336,1.453-5.343.1-.755.44-1.749,1.185-1.912Z" transform="translate(-11.439 -13.682)" fill="#381b02"/>
        <path id="Path_2918" data-name="Path 2918" d="M279.736,421.486c.583,3.145,6.69,2.676,8.478,1.061,2.514-2.294,2.81-7.417.258-9.739-3.546-3.211-11.966,2.772-9.089,6.834Z" transform="translate(-12.361 -14.443)" fill="#caecef"/>
        <path id="Path_2919" data-name="Path 2919" d="M298.239,395.044c-.507-.459.679-.4.956-.182.43.363.392,1.348.44,1.912a23.393,23.393,0,0,1,.134,5.534,48.992,48.992,0,0,1-2.3,10.858c-.507,1.415-1.367,2.638-1.978,3.976a4.331,4.331,0,0,0-.564,1.759c.115.65.832.726,1.281.736a15.655,15.655,0,0,1-.631,3.823,8.408,8.408,0,0,1-1.032,3.154c-.459.573-1.864.268-2.59.048s-.765-.306-.468-1.013a27.852,27.852,0,0,0,.956-3.613,32.787,32.787,0,0,1,2.17-7.207c.66-1.29,1.481-2.475,2.084-3.823a18.416,18.416,0,0,0,1.2-3.766c.841-3.489.268-7.073.3-10.638a8.37,8.37,0,0,0-.172-1.625c.143.1,0-.363.143-.277Z" transform="translate(-12.914 -13.682)" fill="#773b00"/>
        <path id="Path_2920" data-name="Path 2920" d="M285.484,409.8a3.75,3.75,0,0,1,1.462-1.176c.707-.468,1.386-.956,2.064-1.462a11.735,11.735,0,0,0,3.364-3,11.927,11.927,0,0,0,1.912-5.926,4.865,4.865,0,0,1,.956-2.867c.43-.421,2.179-.774,2.609-.229.315.373.2,1.806.21,2.256,0,.8.812,11.469-3.125,17.959-1.663,2.7-1.816,5.916-2.485,9.07-.143.7-.535,2.055-1.252,2.275-.573.191-2.026-.411-2.638-.612a12.13,12.13,0,0,1-4.712-2.867c.2-.43.956-.812,1.281-1.195a9.231,9.231,0,0,0,1.271-1.912,15.542,15.542,0,0,0,1.415-3.135c.554-2.179-.956-3.412-1.912-5.19-.363-.669-.659-1.673-.153-2.256Z" transform="translate(-12.584 -13.69)" fill="#472303"/>
        <path id="Path_2921" data-name="Path 2921" d="M175.236,397.37c1.309-.793,52.319-.287,54.049-.076s51.726,10.877,51.984,11.861c.688,2.657-.736,16.1-.736,16.1-9.414-.335-48.525-11.584-51.019-10.313-4.483,2.275-50.9,20.482-57.595,5.945C166.6,409.174,175.236,397.37,175.236,397.37Z" transform="translate(-7.557 -13.782)" fill="#1b1464"/>
        <path id="Path_2922" data-name="Path 2922" d="M195.79,337.73c.3,1.214,2.026,1.568,2.217,2.762.124.774-1.214,2.867-2.227,2.82-1.912-.134-.707-4.655-.478-5.563Z" transform="translate(-8.642 -11.163)" fill="#1b1464"/>
        <path id="Path_2923" data-name="Path 2923" d="M195.036,341.748c.239-.65-.115-1.3-.268-2.017-.22-.956,2.456-2.6,1.854-2.867-5.008-2.485-13.591-8.812-13.61-8.774a34.035,34.035,0,0,1-3.823,5.582C178.645,334.14,196.5,347.9,195.036,341.748Zm-14.117-6.757a3.609,3.609,0,0,1,.535-.076,13.057,13.057,0,0,1,3.9.363,22.665,22.665,0,0,0-4.311-.3Z" transform="translate(-7.955 -10.737)" fill="#caecef"/>
        <path id="Path_2924" data-name="Path 2924" d="M196.837,340.995c.956.487,1.625,2.753,2.141,3.718,1.013,1.912,2.265,3.613,3.231,5.524,1.137,2.284,2.275,4.062,2.093,6.595-.153,2.055-.2,4.119-.249,6.184,0,1.156-1.912,7.646-1.51,8.726-.43-.067-.134-3-.573-3.068.076-1.032-4.588,1.233-5.572.287.3-1.912,3.087-8.382,2.944-10.447-.22-3,.048-4.693-1.147-7.436-.956-2.084-1.376-4.884-2.428-6.91-.449-.86-.7-1.185-.335-1.854s.956-.86,1.156-1.434Z" transform="translate(-8.666 -11.303)" fill="#1b1464"/>
        <path id="Path_2925" data-name="Path 2925" d="M158.071,392.878a48.744,48.744,0,0,0,5.362,14.652c2.064,3.756,11.622,18.59,17.328,15.8,1.558-.755,2.82-3.641,3.823-5.935h0c.392-.841.745-1.606,1.07-2.141,1.912-3.192,4.205-6.432,6.088-9.73,1.806-3.145,9.156-7.044,7.837-10.628-.153-.44.354,1.8-1.09-1.587.956-.612.707-3.536.726-4.693,0-1.634-1.759-4.052-2.342-5.457s.468-1.3.392-2.81c-.105-2.045-.631-2.045-1.462-3.718a2.789,2.789,0,0,1-.162-.344c-.86-2.045-.8-5.113-1.023-8.057,2.275-7.245,1.663-11.374,3.221-18.752-.841-1.969-4.358-11.3-6.786-12.358-2.017-.879-3.976-1.854-5.935-2.867-1.128-.573-3.966-2.867-4.922-2.791a16.181,16.181,0,0,0-3.412.879c-1.319.822-2.227,2.447-3.364,3.536-1.72,1.625-3.957,3-5.467,4.779-1.3,1.52-2.055,3.823-2.791,5.61-2.246,5.515-3.565,11.374-5.257,17.061s-2.628,10.7-2.036,16.439C156.044,381.045,157.6,390.374,158.071,392.878Z" transform="translate(-6.974 -10.886)" fill="#01b289"/>
        <path id="Path_2926" data-name="Path 2926" d="M196.259,393.967c1.5,3.747-10.246,17.2-10.982,25.491.392-.841.745-1.606,1.07-2.141,1.912-3.192,4.205-6.432,6.088-9.73,1.806-3.145,9.29-6.69,7.962-10.255-.153-.43-.755-2.447-1.214-2.734.956-.612.707-2.762.726-3.919,0-1.634-1.759-4.052-2.342-5.457s.468-1.3.392-2.81c-.105-2.045-.631-2.045-1.462-3.718a2.787,2.787,0,0,1-.162-.344c-3.88,5.9-10.131,13.257-18.265,15.512,0,0,6.538-.411,17.949-9.07a43.306,43.306,0,0,1-24.2,16.449S187.533,400.849,196.259,393.967Z" transform="translate(-7.63 -12.96)" fill="#029971"/>
        <path id="Path_2927" data-name="Path 2927" d="M233.859,368.512c1.673.573,2.2,3.947,2.237,5.285a6.69,6.69,0,0,1-.6,2.37c-.315.363-2.772.812-3.355,1.042.65-2.313,1.548-7.159-1.329-8.382a6.213,6.213,0,0,0,2.753-.487Z" transform="translate(-10.238 -12.517)" fill="#e0f7f7"/>
        <path id="Path_2928" data-name="Path 2928" d="M195.162,377.228c1.156,1.615,2.3,3.173,3.527,4.779,1.07,1.386,6.69,2.523,8.6,2.428,5.735-.287,22.786-6.757,24.21-8.42s-.478-6.375-1.281-8.956c-3.211-.335-15.942,2.638-19.536,2.867.1-.306-1.72-.306-2.81.124.162-1.606-2.16-3.689-3.164-4.913-1.3-1.606-1.376-7.235-2.112-9.147-1.52-3.976-2.37-7.646-4.884-11.211-2.609-3.67-6.155-6.948-10.877-7.321s-9.08,2.944-8.42,8.115C178.618,347.284,192.142,373,195.162,377.228Z" transform="translate(-7.918 -11.15)" fill="#01b289"/>
      </g>
    </g>
  </g>
</svg>
