<svg xmlns="http://www.w3.org/2000/svg" xmlns:xlink="http://www.w3.org/1999/xlink" width="358.025" height="358.025" viewBox="0 0 358.025 358.025">
  <defs>
    <filter id="Ellipse_2" x="0" y="0" width="358.025" height="358.025" filterUnits="userSpaceOnUse">
      <feOffset dx="19" dy="21" input="SourceAlpha"/>
      <feGaussianBlur stdDeviation="10" result="blur"/>
      <feFlood flood-color="#2b3139" flood-opacity="0.161"/>
      <feComposite operator="in" in2="blur"/>
      <feComposite in="SourceGraphic"/>
    </filter>
  </defs>
  <g id="Group_185" data-name="Group 185" transform="translate(-1271 -1035)">
    <g transform="matrix(1, 0, 0, 1, 1271, 1035)" filter="url(#Ellipse_2)">
      <circle id="Ellipse_2-2" data-name="Ellipse 2" cx="111.142" cy="111.142" r="111.142" transform="matrix(0.9, -0.45, 0.45, 0.9, 11, 108.01)" fill="#fff"/>
    </g>
    <g id="iconfinder_OUTLINE_Bussiness_and_Media-02_4041193" transform="translate(1280.6 935)">
      <path id="Path_617" data-name="Path 617" d="M241.4,251.968,217.105,198,190.77,209.823l1.762,3.941a38.536,38.536,0,0,1-18.036,1.205,38.713,38.713,0,0,0-12.24,0,37.919,37.919,0,0,0-9.412,2.828,31.55,31.55,0,0,0-4.08,2.179l-11.73,5.749a43.263,43.263,0,0,0-5.425-.649,39.352,39.352,0,0,1-17.618-4.868l2.5-3.431L92.988,199.9,58.4,247.934l23.414,16.877,2.5-3.431a38.641,38.641,0,0,1,10.2,15.161c.185.51.371.974.6,1.484l-2.967,4.08A9.206,9.206,0,0,0,98.6,296.663c0,.464.046.927.093,1.391a9.473,9.473,0,0,0,3.709,6.027,9.1,9.1,0,0,0,5.378,1.762,4.5,4.5,0,0,0,.788-.046,9.078,9.078,0,0,0,3.57,5.286,9.314,9.314,0,0,0,5.378,1.762,8.683,8.683,0,0,0,2.875-.464A8.993,8.993,0,0,0,123.356,316a9.1,9.1,0,0,0,5.378,1.762,7.675,7.675,0,0,0,1.484-.139,9.246,9.246,0,0,0,6.027-3.709l1.855-2.6,8.856,5.1a9.912,9.912,0,0,0,5.007,1.345,9.515,9.515,0,0,0,7.233-3.245,10.047,10.047,0,0,0,2.133-4.126,11.96,11.96,0,0,0,13.4-4.4,11.989,11.989,0,0,0,2.179-5.749,10.769,10.769,0,0,0-.046-2.736,11.78,11.78,0,0,0,11.22-11.823,7.566,7.566,0,0,0,2.04-.139,9.518,9.518,0,0,0,6.259-3.895,12.591,12.591,0,0,0,2.272-5.981.789.789,0,0,1,.046-.325c.649-.835,1.252-1.715,1.808-2.6a38.623,38.623,0,0,1,12.843-12.7l1.715,3.755Zm-8.577-3.245-14.466,6.491-18.963-42.145,14.466-6.491ZM94.471,208.988l12.889,9.273L81.953,253.5,80.33,255.77,67.441,246.5Zm2.967,76.918,4.034-5.61.232-.325a2.649,2.649,0,0,1,.325-.371h0c.139-.093.232-.232.371-.278a.045.045,0,0,0,.046-.046c.139-.093.278-.139.417-.232h.046c.139-.046.325-.093.51-.139h.046c.093,0,.232-.046.325-.046h.093a.789.789,0,0,1,.325.046h.139c.093,0,.185.046.278.046.046,0,.046,0,.093.046.093.046.232.093.325.139.046,0,.046.046.093.046.093.046.232.139.325.185a2.659,2.659,0,0,1,1.113,2.133v.371c0,.139-.046.278-.046.371a3.346,3.346,0,0,1-.417.927l-4.266,5.935a2.722,2.722,0,0,1-4.4-3.2Zm8.809,12.889a2.779,2.779,0,0,1-1.113-1.762,2.652,2.652,0,0,1,.464-2.04l9.551-13.26a2.779,2.779,0,0,1,1.762-1.113c.139,0,.278-.046.417-.046h.046a1.02,1.02,0,0,1,.371.046h.046a.86.86,0,0,1,.325.093h.046a2.263,2.263,0,0,1,.325.139c.046,0,.046.046.093.046.093.046.232.139.325.185a2.779,2.779,0,0,1,1.113,1.762,1.991,1.991,0,0,1,0,.742,1.427,1.427,0,0,1-.139.6c0,.046,0,.093-.046.093-.046.046-.046.139-.093.185,0,.046-.046.093-.046.139a.352.352,0,0,0-.093.185c-.046.046-.046.093-.093.139h0l-9.551,13.26a2.779,2.779,0,0,1-1.762,1.113A2.509,2.509,0,0,1,106.248,298.8Zm9.69,7a2.779,2.779,0,0,1-1.113-1.762,2.652,2.652,0,0,1,.464-2.04l9.551-13.26h0a2.32,2.32,0,0,1,.325-.371l.093-.093a2.571,2.571,0,0,1,.371-.278c.046,0,.046-.046.093-.046a2.748,2.748,0,0,1,.371-.185c.046,0,.046,0,.093-.046.139-.046.278-.093.464-.139a.17.17,0,0,0,.139-.046h.371a.9.9,0,0,1,.371.046h.046a1.092,1.092,0,0,1,.371.093h.046c.139.046.232.093.371.139a.045.045,0,0,1,.046.046c.093.046.232.139.325.185a2.656,2.656,0,0,1,.51.51,2.6,2.6,0,0,1,.6,1.623v.371l-.139.7h0c0,.046-.046.046-.046.093l-.278.556-9.551,13.26A2.827,2.827,0,0,1,115.938,305.8Zm13.26,5.378a2.652,2.652,0,0,1-2.04-.464,2.779,2.779,0,0,1-1.113-1.762,2.652,2.652,0,0,1,.464-2.04l4.266-5.935h0c.046-.093.139-.139.185-.185l.185-.185c.046-.046.139-.093.232-.185.046-.046.139-.093.185-.139l.278-.139c.046-.046.139-.046.185-.093.185-.046.325-.093.51-.139.139,0,.278-.046.417-.046h.093a1.02,1.02,0,0,1,.371.046h.093a.86.86,0,0,1,.325.093h.046c.093.046.232.093.325.139.046,0,.046.046.093.046.093.046.232.139.325.185a2.75,2.75,0,0,1,1.113,2.5,3,3,0,0,1-.51,1.345l-4.266,5.935A2.734,2.734,0,0,1,129.2,311.175Zm63.009-36.164a5.714,5.714,0,0,1-1.066,2.828,3.086,3.086,0,0,1-2.04,1.252,2.935,2.935,0,0,1-2.318-.556l-3.616-2.6h0l-7.094-5.1a3.255,3.255,0,0,0-3.8,5.286l7.094,5.1h0a5.662,5.662,0,0,1,2.225,3.709,5.5,5.5,0,0,1-1.205,4.173,5.68,5.68,0,0,1-7.6.788l-.7-.51-.046-.046h0l-8.763-6.306a3.255,3.255,0,1,0-3.8,5.286l8.763,6.306h0a5.491,5.491,0,0,1,2.179,4.961,5.068,5.068,0,0,1-.974,2.6,5.382,5.382,0,0,1-3.524,2.179,5.219,5.219,0,0,1-4.034-.974l-4.266-3.06a.045.045,0,0,1-.046-.046l-8.3-5.981a3.255,3.255,0,1,0-3.8,5.286l8.3,5.981h0a2.956,2.956,0,0,1,1.252,2.179,3.38,3.38,0,0,1-.742,2.457,3.266,3.266,0,0,1-4.126.51l-8.485-4.868h0c.046-.139.093-.232.139-.371,0-.046.046-.139.046-.185a1.354,1.354,0,0,0,.093-.417c0-.046.046-.093.046-.139.046-.139.046-.325.093-.464a.17.17,0,0,1,.046-.139c.046-.185.046-.417.093-.6a9.271,9.271,0,0,0-3.8-8.438,6.045,6.045,0,0,0-.7-.464c-.093-.046-.139-.093-.232-.139-.185-.093-.325-.185-.51-.278l-.278-.139a2.259,2.259,0,0,0-.51-.185.659.659,0,0,0-.278-.093c-.046,0-.139-.046-.185-.046V293.7c.046-.093.093-.232.139-.325s.046-.139.093-.232a1.091,1.091,0,0,0,.093-.371c0-.093.046-.139.046-.232.046-.139.046-.278.093-.417,0-.046.046-.139.046-.185.046-.185.046-.417.093-.6h0a9.271,9.271,0,0,0-3.8-8.438,6.49,6.49,0,0,0-.742-.464c-.093-.046-.139-.093-.232-.139l-.556-.278c-.093-.046-.139-.046-.232-.093-.185-.093-.371-.139-.6-.232-.093-.046-.139-.046-.232-.093-.232-.046-.417-.139-.649-.185-.046,0-.139-.046-.185-.046l-.7-.139h-.139a3.989,3.989,0,0,0-.742-.046h-1.066c0-.046-.046-.093-.046-.139l-.139-.556c0-.093-.046-.139-.093-.232a2.836,2.836,0,0,0-.232-.556c0-.046-.046-.093-.046-.139a4.24,4.24,0,0,0-.325-.649c-.046-.046-.046-.093-.093-.185-.093-.139-.185-.325-.278-.464-.046-.046-.093-.139-.139-.185a4.855,4.855,0,0,0-.371-.51l-.046-.046c-.139-.185-.325-.371-.464-.556l-.139-.139a3,3,0,0,0-.417-.371.64.64,0,0,0-.185-.139,6.814,6.814,0,0,0-.6-.464,9.075,9.075,0,0,0-6.862-1.623,3.927,3.927,0,0,0-.788.185c-.046,0-.139.046-.185.046a4.081,4.081,0,0,0-.7.232c-.046,0-.046,0-.093.046a5.156,5.156,0,0,0-.742.325c-.046.046-.139.046-.185.093-.185.093-.417.232-.6.325a.17.17,0,0,1-.139.046,5.625,5.625,0,0,0-.649.464l-.139.139c-.093.046-.139.139-.232.185h0l-.417-.556-.139-.139a2.65,2.65,0,0,0-.325-.371l-.185-.185a2.323,2.323,0,0,0-.371-.325.64.64,0,0,0-.185-.139l-.556-.417a5.522,5.522,0,0,0-.7-.417c-.046-.046-.139-.093-.185-.139l-.556-.278c-.046-.046-.139-.046-.185-.093-.232-.093-.417-.185-.649-.278a.86.86,0,0,0-.325-.093,1.091,1.091,0,0,0-.371-.093c-.185-.046-.417-.093-.6-.139a1.022,1.022,0,0,0-.371-.046c-.139,0-.278-.046-.417-.046a.789.789,0,0,1-.325-.046h-1.066a1.021,1.021,0,0,0-.371.046c-.185,0-.371.046-.51.046h-.185a.17.17,0,0,0-.139.046c-.185.046-.371.093-.6.139-.093.046-.232.046-.325.093a1.662,1.662,0,0,0-.51.185l-.417.139a2.256,2.256,0,0,1-.325.139A44.458,44.458,0,0,0,88.166,256.28l22.023-30.554a42.815,42.815,0,0,0,14.419,5.332l-2.782,27.4a7.493,7.493,0,0,0,6.676,8.206,14.4,14.4,0,0,0,15.764-12.843l.742-7.187a22.817,22.817,0,0,0,10.664-3.153L190.028,270c.232.185.371.325.51.417l.046.046.185.185.093.093c.046.046.046.093.093.093l.093.093.139.139.278.417a1.887,1.887,0,0,1,.278.51l.046.093c.046.093.093.139.093.232a.659.659,0,0,1,.093.278c.046.093.046.185.093.278l.093.278c.046.232.093.464.139.649v.093a.588.588,0,0,0,.046.278v.046h0v.232h0c-.093.093-.093.324-.139.556Zm4.219-7.789-.046-.093h0a4.482,4.482,0,0,0-.325-.417.045.045,0,0,0-.046-.046.64.64,0,0,1-.139-.185l-.093-.093c-.093-.093-.139-.185-.232-.278a4.372,4.372,0,0,0-.464-.464h0l-.139-.139-.093-.093-.093-.093c-.232-.185-.464-.417-.788-.649l-38.2-29.488-1.994,1.484a16.307,16.307,0,0,1-11.452,3.2l-3.246-.325-1.345,13.4a8.054,8.054,0,0,1-2.875,5.332,7.719,7.719,0,0,1-5.8,1.715.981.981,0,0,1-.881-1.066l2.318-22.765,16.6-8.16h0l4.59-2.272.278-.139a28.805,28.805,0,0,1,3.524-1.855,31.422,31.422,0,0,1,7.789-2.365,31.093,31.093,0,0,1,10.154,0,45.064,45.064,0,0,0,21.745-1.623L210.614,254.1A44.387,44.387,0,0,0,196.427,267.222Z" fill="#0080ff" opacity="0.9"/>
      <path id="Path_619" data-name="Path 619" d="M406.09,300.918c.185,0,.325.046.51.046a4.692,4.692,0,0,0,3.014-1.066,4.941,4.941,0,0,0,1.762-3.245,4.6,4.6,0,0,0-1.066-3.524,4.941,4.941,0,0,0-3.246-1.762,4.6,4.6,0,0,0-3.524,1.066,4.941,4.941,0,0,0-1.762,3.246A4.827,4.827,0,0,0,406.09,300.918ZM405.024,296a1.609,1.609,0,0,1,.556-1.066,1.5,1.5,0,0,1,.974-.371h.139a1.609,1.609,0,0,1,1.066.556,1.494,1.494,0,0,1,.325,1.159h0a1.609,1.609,0,0,1-.556,1.066,1.494,1.494,0,0,1-1.159.325A1.552,1.552,0,0,1,405.024,296Z" transform="translate(-184.163 -50.063)" fill="#0080ff"/>
      <path id="Path_620" data-name="Path 620" d="M99.167,294.852h0a4.832,4.832,0,0,0-4.312-5.286,4.6,4.6,0,0,0-3.524,1.066,4.941,4.941,0,0,0-1.762,3.246,4.832,4.832,0,0,0,4.312,5.286c.185,0,.325.046.51.046A4.862,4.862,0,0,0,99.167,294.852Zm-6.306-.649a1.609,1.609,0,0,1,.556-1.066,1.5,1.5,0,0,1,.974-.371h.139a1.562,1.562,0,0,1-.325,3.106A1.462,1.462,0,0,1,92.861,294.2Z" transform="translate(-16.704 -49.097)" fill="#0080ff"/>
    </g>
  </g>
</svg>
