<svg xmlns="http://www.w3.org/2000/svg" xmlns:xlink="http://www.w3.org/1999/xlink" width="1991.564" height="940.104" viewBox="0 0 1991.564 940.104">
  <defs>
    <linearGradient id="linear-gradient" x1="0.011" y1="1.026" x2="1.039" y2="0.024" gradientUnits="objectBoundingBox">
      <stop offset="0" stop-color="#0080ff"/>
      <stop offset="1" stop-color="#87c7ff"/>
    </linearGradient>
    <filter id="Path_2" x="1064.48" y="258.571" width="915.038" height="681.533" filterUnits="userSpaceOnUse">
      <feOffset dy="3" input="SourceAlpha"/>
      <feGaussianBlur stdDeviation="10" result="blur"/>
      <feFlood flood-color="#2d343d" flood-opacity="0.161"/>
      <feComposite operator="in" in2="blur"/>
      <feComposite in="SourceGraphic"/>
    </filter>
    <filter id="Path_3" x="1399.842" y="438.158" width="591.722" height="500.501" filterUnits="userSpaceOnUse">
      <feOffset dx="-3" dy="-14" input="SourceAlpha"/>
      <feGaussianBlur stdDeviation="15" result="blur-2"/>
      <feFlood flood-color="#3e596d" flood-opacity="0.161"/>
      <feComposite operator="in" in2="blur-2"/>
      <feComposite in="SourceGraphic"/>
    </filter>
    <linearGradient id="linear-gradient-2" x1="0.637" y1="0.099" x2="-0.085" y2="1.701" gradientUnits="objectBoundingBox">
      <stop offset="0" stop-color="#0080ff"/>
      <stop offset="1" stop-color="#fff"/>
    </linearGradient>
    <filter id="Path_17" x="0" y="709.191" width="392.162" height="220.699" filterUnits="userSpaceOnUse">
      <feOffset dx="1" dy="-9" input="SourceAlpha"/>
      <feGaussianBlur stdDeviation="10" result="blur-3"/>
      <feFlood flood-color="#2f3941" flood-opacity="0.161"/>
      <feComposite operator="in" in2="blur-3"/>
      <feComposite in="SourceGraphic"/>
    </filter>
  </defs>
  <g id="Group_184" data-name="Group 184" transform="translate(29.238 -907.094)">
    <g id="Testimonial" transform="translate(-0.352 -2801)">
      <path id="Path_534" data-name="Path 534" d="M-6.648,4014s101.663-260,846.293-66,1073.707,16,1073.707,16v820h-1920Z" transform="translate(7 -168)" fill="#0080ff"/>
      <path id="Path_614" data-name="Path 614" d="M68,0" transform="translate(726.401 4280.5)" fill="#0080ff" stroke="#fff" stroke-width="3"/>
    </g>
    <g transform="matrix(1, 0, 0, 1, -29.24, 907.09)" filter="url(#Path_2)">
      <path id="Path_2-2" data-name="Path 2" d="M1102.323,304.3c-97.561,101.251-245.148,191.443-451.088,213.145C417.092,542.121,258.883,706.764,247.489,922.436c-.433,8.2,853.84-1.168,854.835,0S1100.219,305.353,1102.323,304.3Z" transform="translate(846.99 -18.73)" fill="url(#linear-gradient)"/>
    </g>
    <g transform="matrix(1, 0, 0, 1, -29.24, 907.09)" filter="url(#Path_3)">
      <path id="Path_3-2" data-name="Path 3" d="M654.614,292.214c-167.7,2.478-456.492,142.922-479.084,409.55-3.79,1.253,501.348,1.253,501.7,0-1.9,1.253-1.9-406.266,0-407.083A88.481,88.481,0,0,0,654.614,292.214Z" transform="translate(1272.33 204.96)" fill="#0080ff"/>
    </g>
    <g transform="matrix(1, 0, 0, 1, -29.24, 907.09)" filter="url(#Path_17)">
      <path id="Path_17-2" data-name="Path 17" d="M221.657,0C321.917,0,403.672,68.325,431.125,159.91c.813,1.667-331.563.21-331.983,0,.21-.419-.489-119.405,0-123A220.626,220.626,0,0,1,221.657,0Z" transform="translate(-69.96 748.19)" fill="url(#linear-gradient-2)"/>
    </g>
  </g>
</svg>
