<svg xmlns="http://www.w3.org/2000/svg" width="753.188" height="562.491" viewBox="0 0 753.188 562.491">
  <g id="Group_184" data-name="Group 184" transform="translate(-908.911 -371.509)">
    <g id="Group_127" data-name="Group 127" transform="translate(458.582 -215.162)">
      <path id="Path_2730" data-name="Path 2730" d="M141.116,126.7h647.16a14.909,14.909,0,0,1,14.909,14.909V548.114a2.11,2.11,0,0,1-2.11,2.11H128.33a2.109,2.109,0,0,1-2.11-2.109V141.6a14.909,14.909,0,0,1,14.9-14.9Z" transform="translate(362.689 460.786)" fill="#f5f5f8" stroke="#dddeea" stroke-miterlimit="10" stroke-width="1.63"/>
      <path id="Path_2731" data-name="Path 2731" d="M144,148.94H775V520.981a2.109,2.109,0,0,1-2.109,2.11H146.135a2.11,2.11,0,0,1-2.11-2.11V148.94Z" transform="translate(367.919 467.328)" fill="#fff"/>
      <path id="Path_2732" data-name="Path 2732" d="M96.9,449.19H849.317s6.316,25.068-66.392,25.068H127.456S104.277,472.33,96.9,449.19Z" transform="translate(354.063 555.659)" fill="#edeef4"/>
      <path id="Path_2733" data-name="Path 2733" d="M462.464,456.75H335.957c-6.574,0-11.907-3.248-11.907-7.26H474.344C474.344,453.5,469.025,456.75,462.464,456.75Z" transform="translate(420.888 555.747)" fill="#c8cbd6"/>
      <path id="Path_2734" data-name="Path 2734" d="M810.4,468.989H135.093c-19.154,0-35.021-8.5-38.1-19.659H96.41v4.232c0,13.02,17.316,23.593,38.683,23.593H810.4c21.367,0,38.7-10.574,38.7-23.593V449.33h-.582C845.436,460.551,829.569,468.989,810.4,468.989Z" transform="translate(353.919 555.7)" fill="#dfe1e8"/>
    </g>
    <ellipse id="Ellipse_70" data-name="Ellipse 70" cx="350.5" cy="6.5" rx="350.5" ry="6.5" transform="translate(935 903)" fill="#3279b7" opacity="0.24"/>
    <g id="Logo" transform="translate(814.764 617)">
      <g id="Text" transform="translate(326.185 -51.243)">
        <path id="Management" d="M70.752,755.729h6.389l6.7,24.291h.18l13.314-24.291h6.389L99.3,787.824H95.016l3.613-26.376h-.09l-14.3,26.376H81.385l-7.058-26.376h-.09l-3.615,26.376H66.329Zm38.127,13.205a13.609,13.609,0,0,1,4.317-2.366,14.6,14.6,0,0,1,4.63-.791,11.778,11.778,0,0,1,3.977.589,6.553,6.553,0,0,1,2.575,1.583,4.988,4.988,0,0,1,1.266,2.283,7.286,7.286,0,0,1,.133,2.69l-1.535,10.946c-.12.753-.212,1.448-.272,2.071s-.09,1.236-.09,1.809h-3.618c.03-.543.069-1.086.113-1.629s.115-1.084.2-1.627h-.09a9.878,9.878,0,0,1-3.638,2.939,10.877,10.877,0,0,1-4.4.861,9.17,9.17,0,0,1-2.778-.407,5.853,5.853,0,0,1-2.191-1.222,4.884,4.884,0,0,1-1.335-2.011,5.8,5.8,0,0,1-.2-2.782,6.848,6.848,0,0,1,1.4-3.482,8.618,8.618,0,0,1,2.861-2.274,14.026,14.026,0,0,1,3.931-1.268,26.915,26.915,0,0,1,4.633-.385h2.98l.136-.9a3.964,3.964,0,0,0-.067-1.627,3.683,3.683,0,0,0-.746-1.471,3.753,3.753,0,0,0-1.445-1.04,5.676,5.676,0,0,0-2.214-.384,8.808,8.808,0,0,0-2.1.23,9.38,9.38,0,0,0-1.673.564,9.027,9.027,0,0,0-1.4.792c-.437.3-.868.589-1.289.858Zm10.3,8.51a28.969,28.969,0,0,0-2.98.159,12.726,12.726,0,0,0-2.847.61,6.392,6.392,0,0,0-2.214,1.268,3.337,3.337,0,0,0-1.084,2.071,2.56,2.56,0,0,0,.858,2.667,5.532,5.532,0,0,0,3.252.815,6.972,6.972,0,0,0,2.914-.566,6.652,6.652,0,0,0,2.1-1.468,6.758,6.758,0,0,0,1.332-2.014,8.058,8.058,0,0,0,.61-2.193l.23-1.358Zm13.472-11.129h4.067l-.46,3.3h.092a7.594,7.594,0,0,1,3.082-2.777,9.6,9.6,0,0,1,4.52-1.063,8.652,8.652,0,0,1,2.891.476,5.557,5.557,0,0,1,2.281,1.468,5.836,5.836,0,0,1,1.335,2.557,9.324,9.324,0,0,1,.09,3.682l-1.91,13.8h-4.06l1.763-12.658a7.455,7.455,0,0,0-.067-2.557,3.944,3.944,0,0,0-.815-1.717,3.2,3.2,0,0,0-1.422-.95,5.567,5.567,0,0,0-1.807-.295,7.2,7.2,0,0,0-2.419.407,5.836,5.836,0,0,0-2.071,1.289,7.312,7.312,0,0,0-1.558,2.239,11.6,11.6,0,0,0-.9,3.222l-1.535,11.035H129.67Zm24.9,2.623a13.611,13.611,0,0,1,4.315-2.375,14.6,14.6,0,0,1,4.63-.792,11.781,11.781,0,0,1,3.977.589,6.558,6.558,0,0,1,2.575,1.583,4.965,4.965,0,0,1,1.263,2.283,7.238,7.238,0,0,1,.136,2.691l-1.535,10.945c-.122.753-.212,1.448-.272,2.071s-.09,1.236-.09,1.809h-3.615c.03-.543.069-1.086.113-1.63s.113-1.084.2-1.627h-.092a9.858,9.858,0,0,1-3.636,2.939,10.877,10.877,0,0,1-4.4.861,9.155,9.155,0,0,1-2.778-.407,5.879,5.879,0,0,1-2.193-1.222,4.9,4.9,0,0,1-1.332-2.011,5.8,5.8,0,0,1-.2-2.782,6.829,6.829,0,0,1,1.4-3.482,8.614,8.614,0,0,1,2.868-2.283,13.993,13.993,0,0,1,3.931-1.268,26.852,26.852,0,0,1,4.63-.384h2.992l.136-.9a4.007,4.007,0,0,0-.067-1.627,3.679,3.679,0,0,0-.746-1.47,3.743,3.743,0,0,0-1.448-1.04,5.662,5.662,0,0,0-2.214-.384,8.8,8.8,0,0,0-2.1.23,9.348,9.348,0,0,0-1.673.564,8.942,8.942,0,0,0-1.4.792c-.437.3-.868.589-1.289.858Zm10.3,8.5a29.053,29.053,0,0,0-2.992.159,12.672,12.672,0,0,0-2.845.61,6.36,6.36,0,0,0-2.214,1.268,3.351,3.351,0,0,0-1.086,2.071,2.566,2.566,0,0,0,.858,2.667,5.531,5.531,0,0,0,3.254.815,6.97,6.97,0,0,0,2.914-.566,6.673,6.673,0,0,0,2.1-1.468,6.764,6.764,0,0,0,1.332-2.014,8.058,8.058,0,0,0,.61-2.193l.23-1.358Zm31.95,9.9a13.151,13.151,0,0,1-1.457,4.456,12.224,12.224,0,0,1-2.847,3.482,12.865,12.865,0,0,1-4.021,2.285,14.474,14.474,0,0,1-4.9.815,16.518,16.518,0,0,1-5.512-.861,11.1,11.1,0,0,1-4.428-2.992l3.208-3.436a9.305,9.305,0,0,0,3.082,2.617,8.938,8.938,0,0,0,4.087.881,10.022,10.022,0,0,0,3.841-.656,7.727,7.727,0,0,0,2.6-1.7,7.3,7.3,0,0,0,1.558-2.375,12.724,12.724,0,0,0,.769-2.69l.405-3.165h-.14a8.743,8.743,0,0,1-3.567,2.87,10.735,10.735,0,0,1-4.338.921,10.42,10.42,0,0,1-4.246-.836,8.574,8.574,0,0,1-3.141-2.3,8.873,8.873,0,0,1-1.784-3.482,10.531,10.531,0,0,1-.182-4.372,13.453,13.453,0,0,1,1.381-4.41,13.3,13.3,0,0,1,2.688-3.595,11.838,11.838,0,0,1,3.772-2.4,12.352,12.352,0,0,1,4.633-.858,9.1,9.1,0,0,1,4.094.948,6.446,6.446,0,0,1,2.87,2.67h.09l.405-3.072h4.066Zm-8.591-17.759a7.834,7.834,0,0,0-2.992.566,8.183,8.183,0,0,0-2.44,1.537,7.885,7.885,0,0,0-1.74,2.352,9.813,9.813,0,0,0-.9,3.008,6.34,6.34,0,0,0,1.13,5.222,5.966,5.966,0,0,0,4.879,1.968,7.77,7.77,0,0,0,5.422-1.968,8.525,8.525,0,0,0,2.665-5.222,8.643,8.643,0,0,0-.069-3.008,5.464,5.464,0,0,0-1.084-2.352,5.552,5.552,0,0,0-2.009-1.537,6.706,6.706,0,0,0-2.861-.566Zm19.125,8.476a5.117,5.117,0,0,0,.272,2.554,5.256,5.256,0,0,0,1.332,1.968,6.235,6.235,0,0,0,2.124,1.266,7.67,7.67,0,0,0,2.642.46,6.673,6.673,0,0,0,3.413-.881,13.665,13.665,0,0,0,2.914-2.331l2.711,2.352a13.006,13.006,0,0,1-10.076,4.389,10.8,10.8,0,0,1-4.451-.861,8.3,8.3,0,0,1-3.139-2.375,8.935,8.935,0,0,1-1.717-3.572,11.519,11.519,0,0,1-.136-4.455,12.618,12.618,0,0,1,1.445-4.453,13.394,13.394,0,0,1,2.824-3.574,12.91,12.91,0,0,1,3.841-2.373,12.094,12.094,0,0,1,4.541-.861,9.725,9.725,0,0,1,4.676,1,7.731,7.731,0,0,1,2.87,2.594,8.746,8.746,0,0,1,1.312,3.62,15.615,15.615,0,0,1,0,4.092l-.23,1.448Zm13.284-2.78a8.479,8.479,0,0,0-.09-2.488,4.776,4.776,0,0,0-.858-1.965,4.2,4.2,0,0,0-1.717-1.312,6.492,6.492,0,0,0-2.621-.476,6.979,6.979,0,0,0-2.8.566,8.571,8.571,0,0,0-2.327,1.47,8.065,8.065,0,0,0-1.65,2.011,5.9,5.9,0,0,0-.766,2.193Zm10.536-8.957h3.795l-.46,3.346h.092a5.219,5.219,0,0,1,.858-1.13,7.783,7.783,0,0,1,1.625-1.289,11.4,11.4,0,0,1,2.237-1.04,8.193,8.193,0,0,1,2.688-.43q4.653,0,6.1,3.981a8.676,8.676,0,0,1,3.39-2.992,9.02,9.02,0,0,1,3.975-1,8.165,8.165,0,0,1,3.954.815,5.22,5.22,0,0,1,2.168,2.15,7.514,7.514,0,0,1,.815,3.028,16.2,16.2,0,0,1-.159,3.505l-1.717,12.483h-4.06l1.673-11.939a14.108,14.108,0,0,0,.156-2.352,5.351,5.351,0,0,0-.384-1.99,2.948,2.948,0,0,0-1.2-1.382,4.4,4.4,0,0,0-2.327-.52,5.479,5.479,0,0,0-4.451,1.809,9.052,9.052,0,0,0-1.919,4.658l-1.627,11.714h-4.064l1.535-11.217a22.53,22.53,0,0,0,.249-2.8,6.063,6.063,0,0,0-.315-2.193,2.824,2.824,0,0,0-1.151-1.448,4.275,4.275,0,0,0-2.3-.52,5.846,5.846,0,0,0-2.179.435,5.934,5.934,0,0,0-1.965,1.289,7.51,7.51,0,0,0-1.512,2.193,11.249,11.249,0,0,0-.9,3.153l-1.535,11.125h-4.071Zm39.906,11.737a5.092,5.092,0,0,0,.269,2.554,5.254,5.254,0,0,0,1.332,1.968,6.235,6.235,0,0,0,2.124,1.266,7.674,7.674,0,0,0,2.644.46,6.672,6.672,0,0,0,3.411-.881,13.667,13.667,0,0,0,2.914-2.331l2.711,2.352a13.006,13.006,0,0,1-10.075,4.389,10.821,10.821,0,0,1-4.451-.861,8.3,8.3,0,0,1-3.139-2.375,8.974,8.974,0,0,1-1.717-3.572,11.519,11.519,0,0,1-.136-4.455,12.617,12.617,0,0,1,1.445-4.453,13.441,13.441,0,0,1,2.824-3.574,12.911,12.911,0,0,1,3.841-2.373,12.1,12.1,0,0,1,4.541-.861,9.725,9.725,0,0,1,4.676,1,7.728,7.728,0,0,1,2.868,2.6,8.747,8.747,0,0,1,1.312,3.62,15.613,15.613,0,0,1,0,4.092l-.23,1.447Zm13.281-2.78a8.4,8.4,0,0,0-.09-2.488,4.746,4.746,0,0,0-.858-1.965,4.2,4.2,0,0,0-1.717-1.312,6.492,6.492,0,0,0-2.621-.476,6.978,6.978,0,0,0-2.8.566,8.647,8.647,0,0,0-2.327,1.47,8,8,0,0,0-1.648,2.011,5.867,5.867,0,0,0-.769,2.193Zm10.531-8.957h4.067l-.46,3.3h.092a7.594,7.594,0,0,1,3.07-2.782,9.605,9.605,0,0,1,4.52-1.063,8.649,8.649,0,0,1,2.891.476,5.558,5.558,0,0,1,2.281,1.468,5.835,5.835,0,0,1,1.335,2.557,9.324,9.324,0,0,1,.09,3.682l-1.883,13.8h-4.067l1.763-12.658a7.452,7.452,0,0,0-.067-2.557,3.945,3.945,0,0,0-.815-1.717,3.2,3.2,0,0,0-1.422-.95,5.567,5.567,0,0,0-1.807-.295,7.2,7.2,0,0,0-2.419.407,5.836,5.836,0,0,0-2.071,1.289,7.307,7.307,0,0,0-1.558,2.239,11.6,11.6,0,0,0-.9,3.222l-1.535,11.035h-4.067Zm36.15,3.052H328.2l-1.356,9.723c-.09.6-.159,1.2-.2,1.786a4.784,4.784,0,0,0,.113,1.583,2,2,0,0,0,.746,1.13,2.832,2.832,0,0,0,1.738.43,9.035,9.035,0,0,0,1.514-.136,4.791,4.791,0,0,0,1.468-.5l-.543,3.708a3.828,3.828,0,0,1-.921.361,8.249,8.249,0,0,1-1.038.2c-.348.044-.69.083-.994.113s-.58.046-.792.046a7.576,7.576,0,0,1-3.546-.656,3.7,3.7,0,0,1-1.671-1.7,4.89,4.89,0,0,1-.407-2.329q.069-1.291.249-2.6l1.581-11.171h-4.7l.493-3.512h4.7l.858-6.016h4.067l-.858,6.016h5.827Z" transform="translate(-66.329 -744.305)" fill="#0080ff" fill-rule="evenodd"/>
        <path id="TM" d="M1887.917,703.786h-3.287V702.06h8.478v1.726h-3.286v8.992h-1.91Zm6.606-1.726h2.907l2.865,7.512,2.892-7.509h2.877V712.78h-1.816v-8.9h-.032l-3.256,8.9h-1.332l-3.258-8.9h-.041v8.9h-1.816Z" transform="translate(-1497.581 -702.06)" fill="#f63" fill-rule="evenodd"/>
        <g id="FITT" transform="translate(278.198 5.24)">
          <path id="Path" d="M1306.935,521.4h25.872v5.645h-18.614v10.662h18.614v5.958h-18.614v15.366h-7.259Z" transform="translate(-1306.935 -521.399)" fill="#f63" fill-rule="evenodd"/>
          <path id="Path_415" data-name="Path 415" d="M1452.2,521.4h7.572v37.632H1452.2Z" transform="translate(-1421.278 -521.399)" fill="#f63" fill-rule="evenodd"/>
          <path id="Path_416" data-name="Path 416" d="M1524.635,527.357H1512.96V521.4h30.606v5.958h-11.675v31.674h-7.257Z" transform="translate(-1469.105 -521.399)" fill="#f63" fill-rule="evenodd"/>
          <path id="Path_417" data-name="Path 417" d="M1686.2,527.357h-11.673V521.4h30.6v5.958H1693.46v31.674H1686.2Z" transform="translate(-1596.281 -521.399)" fill="#f63" fill-rule="evenodd"/>
        </g>
      </g>
      <g id="shape" transform="translate(206.083 -75.121)">
        <g id="Combined-Shape" transform="translate(12.156 9.957)">
          <path id="Path_418" data-name="Path 418" d="M894.339,264.28a40.683,40.683,0,0,0-33.681-10.287c-21.633,3.526-36.219,24.257-32.629,46.281s24.013,37.052,45.639,33.52c21.553-3.519,28.1-17.244,30.261-23.414.014.078,0-.078,0,0-.732,5.523-8.761,22.4-31.032,26.029s-43.358-12.2-47.125-35.3,11.2-44.808,33.473-48.44C876.929,249.786,890.084,257.731,894.339,264.28Z" transform="translate(-825.192 -252.06)" fill="#0080ff"/>
        </g>
        <g id="Combined-Shape-2" data-name="Combined-Shape" transform="translate(4.013)">
          <path id="Path_419" data-name="Path 419" d="M808.983,298.133a48.816,48.816,0,0,0,56.809.384c21.921-15.649,26.735-46.424,10.817-68.745S830,202,808.076,217.636c-21.845,15.59-26.7,46.216-10.966,68.519-.057-.076-.113-.154-.168-.23-16.717-23.428-12.009-55.479,10.563-71.589s54.414-10.126,71.129,13.288,12.011,55.477-10.561,71.587C850.15,312,826.382,310.869,808.983,298.133Z" transform="translate(-786.937 -205.285)" fill="#f63"/>
        </g>
        <path id="Line" d="M1002.415,399.907q7.167-8.593,13.981-11.986a33.036,33.036,0,0,1,15.815-3.153l.417.011a20.576,20.576,0,0,0-4.939,3.818,15.478,15.478,0,0,0-2.66,3.959,42.087,42.087,0,0,0-12.175,2.108,33.871,33.871,0,0,0-10.269,5.415l-.893.69Z" transform="translate(-951.966 -346.551)" fill="#0080ff"/>
        <path id="Oval" d="M1135.652,322.427a6.478,6.478,0,0,0,0-12.957c-3.609,0-6.188,3.411-7.22,6.478q-1.032,3.068-2.407,6.478Z" transform="translate(-1049.833 -287.293)" fill="#0080ff" fill-rule="evenodd"/>
        <path id="Line-2" d="M1005.121,410.2q-5.7,5-24.314,14.356l-.122-.207q9.334-6.11,12.117-9.532a66.376,66.376,0,0,0,8.158-12.591c.773-1.574,1.422-3.072,2-4.559.23-.575.426-1.132.633-1.717l.244-.7c.014-.044.164-.479.2-.594,2.782-8.055,5.548-13.348,8.322-16.6a14.451,14.451,0,0,1,3.045-2.762c.566-.377,1.968-1.13,1.961-1.125,1.655-1.017,4.568-1.443,8.784-1.489,1.3-.016,2.479,0,4.476.051a37.108,37.108,0,0,0,4.764-.014,43.49,43.49,0,0,0,8.6-2.264l.295-.1-.147.272q-4.525,8.3-17.454,7.595a20.941,20.941,0,0,0-11.985,12.2l20.319.23a.605.605,0,0,1,.6.605c-.019,1.314-1.6,3.636-4.736,7.008a114.7,114.7,0,0,1-10.211,9.808l-.368.308,4.483-11.277H1012.2A21.718,21.718,0,0,1,1005.121,410.2Z" transform="translate(-935.431 -335.214)" fill="#f63"/>
        <path id="Path_420" data-name="Path 420" d="M788.092,490.127q6.674-8.037,13.012-11.212a30.57,30.57,0,0,1,14.729-2.948h.387a19.255,19.255,0,0,0-4.6,3.569,14.514,14.514,0,0,0-2.474,3.7,39.027,39.027,0,0,0-11.334,1.972,31.444,31.444,0,0,0-9.558,5.063l-.833.651Z" transform="translate(-783.303 -418.336)" fill="#f63"/>
        <ellipse id="Ellipse_13" data-name="Ellipse 13" cx="6.17" cy="5.961" rx="6.17" ry="5.961" transform="translate(31.54 41.946)" fill="#f63"/>
        <path id="Path_421" data-name="Path 421" d="M790.875,498.852q-5.316,4.681-22.675,13.44l-.113-.193q8.7-5.721,11.3-8.925a62.086,62.086,0,0,0,7.608-11.788c.72-1.473,1.328-2.877,1.862-4.269.207-.538.4-1.059.591-1.611.072-.209.143-.412.23-.658l.191-.555c2.594-7.535,5.174-12.5,7.76-15.544a13.534,13.534,0,0,1,2.833-2.578c.529-.352,1.841-1.056,1.83-1.052,1.544-.953,4.262-1.351,8.193-1.395,1.209-.014,2.313,0,4.175.048a34.118,34.118,0,0,0,4.442-.014,40.649,40.649,0,0,0,8.016-2.12l.276-.094-.138.253q-4.218,7.774-16.275,7.109a19.584,19.584,0,0,0-11.18,11.41l18.95.219a.559.559,0,0,1,.559.566c-.014,1.229-1.484,3.4-4.414,6.561a107.188,107.188,0,0,1-9.523,9.182l-.331.29,4.179-10.554H797.482A20.362,20.362,0,0,1,790.875,498.852Z" transform="translate(-768.086 -406.998)" fill="#0080ff"/>
      </g>
    </g>
  </g>
</svg>
