<svg xmlns="http://www.w3.org/2000/svg" width="52.843" height="51.117" viewBox="0 0 52.843 51.117">
  <g id="Logo" transform="translate(-206.083 75.121)">
    <g id="shape" transform="translate(206.083 -75.121)">
      <g id="Combined-Shape" transform="translate(5.901 4.834)">
        <path id="Path_418" data-name="Path 418" d="M858.761,257.992A19.75,19.75,0,0,0,842.41,253a19.63,19.63,0,0,0,6.316,38.741c10.463-1.708,13.643-8.372,14.691-11.367.007.038,0-.038,0,0-.355,2.681-4.253,10.873-15.065,12.636s-21.049-5.921-22.878-17.138,5.439-21.753,16.25-23.516C850.309,250.956,856.695,254.813,858.761,257.992Z" transform="translate(-825.191 -252.06)" fill="#0080ff"/>
      </g>
      <g id="Combined-Shape-2" data-name="Combined-Shape" transform="translate(1.948)">
        <path id="Path_419" data-name="Path 419" d="M797.64,250.36a24.2,24.2,0,1,0-5.764-5.815c-.028-.037-.055-.075-.082-.112-8.116-11.374-5.83-26.934,5.128-34.754s26.416-4.916,34.531,6.451,5.831,26.932-5.127,34.753A24.463,24.463,0,0,1,797.64,250.36Z" transform="translate(-786.937 -205.285)" fill="#f63"/>
      </g>
      <path id="Line" d="M1002.043,392.11a22.143,22.143,0,0,1,6.787-5.819,16.038,16.038,0,0,1,7.678-1.531l.2.006a9.989,9.989,0,0,0-2.4,1.854,7.512,7.512,0,0,0-1.292,1.922,20.43,20.43,0,0,0-5.91,1.023,16.443,16.443,0,0,0-4.985,2.629l-.434.335Z" transform="translate(-977.551 -366.207)" fill="#0080ff"/>
      <path id="Oval" d="M1130.7,315.761a3.145,3.145,0,0,0,0-6.29c-1.752,0-3,1.656-3.505,3.145q-.5,1.489-1.168,3.145Z" transform="translate(-1089.036 -298.704)" fill="#0080ff" fill-rule="evenodd"/>
      <path id="Line-2" d="M992.548,389.7q-2.766,2.429-11.8,6.969l-.059-.1a28.443,28.443,0,0,0,5.882-4.628,32.232,32.232,0,0,0,3.961-6.113c.375-.764.69-1.492.97-2.213.112-.279.207-.55.307-.834l.118-.341c.007-.021.079-.232.1-.288,1.351-3.91,2.694-6.48,4.04-8.06a7.016,7.016,0,0,1,1.478-1.341c.275-.183.955-.549.952-.546a9.04,9.04,0,0,1,4.265-.723c.629-.008,1.2,0,2.173.025a18.021,18.021,0,0,0,2.313-.007,21.113,21.113,0,0,0,4.173-1.1l.143-.049-.072.132q-2.2,4.03-8.473,3.687a10.166,10.166,0,0,0-5.819,5.921l9.864.112a.294.294,0,0,1,.292.294c-.009.638-.774,1.765-2.3,3.4a55.666,55.666,0,0,1-4.957,4.762l-.179.15,2.176-5.475h-6.108A10.543,10.543,0,0,1,992.548,389.7Z" transform="translate(-958.715 -353.293)" fill="#f63"/>
      <path id="Path_420" data-name="Path 420" d="M787.745,482.833a20.69,20.69,0,0,1,6.317-5.443,14.841,14.841,0,0,1,7.151-1.431h.188a9.347,9.347,0,0,0-2.235,1.733,7.042,7.042,0,0,0-1.2,1.8,18.947,18.947,0,0,0-5.5.958,15.265,15.265,0,0,0-4.64,2.458l-.4.316Z" transform="translate(-785.42 -447.981)" fill="#f63"/>
      <ellipse id="Ellipse_13" data-name="Ellipse 13" cx="2.995" cy="2.894" rx="2.995" ry="2.894" transform="translate(15.312 20.364)" fill="#f63"/>
      <path id="Path_421" data-name="Path 421" d="M779.149,479.657q-2.581,2.272-11.008,6.525l-.055-.094a26.574,26.574,0,0,0,5.486-4.333,30.147,30.147,0,0,0,3.694-5.723c.35-.715.645-1.4.9-2.073.1-.261.193-.514.287-.782.035-.1.069-.2.112-.32l.093-.269a23.886,23.886,0,0,1,3.767-7.546,6.572,6.572,0,0,1,1.375-1.251c.257-.171.894-.513.888-.511a8.407,8.407,0,0,1,3.977-.677c.587-.007,1.123,0,2.027.023a16.555,16.555,0,0,0,2.156-.007,19.734,19.734,0,0,0,3.891-1.029l.134-.046-.067.123q-2.048,3.774-7.9,3.451a9.507,9.507,0,0,0-5.428,5.539l9.2.106a.271.271,0,0,1,.271.275c-.007.6-.721,1.652-2.143,3.185a52.059,52.059,0,0,1-4.623,4.458l-.161.141,2.029-5.124h-5.7A9.886,9.886,0,0,1,779.149,479.657Z" transform="translate(-768.086 -435.064)" fill="#0080ff"/>
    </g>
  </g>
</svg>
