<svg xmlns="http://www.w3.org/2000/svg" width="232.989" height="49.848" viewBox="0 0 232.989 49.848">
  <g id="Leanfitt_logo" data-name="Leanfitt logo" transform="translate(-417.047 -7.997)">
    <g id="Layer_3" data-name="Layer 3" transform="translate(417.046 7.997)">
      <g id="Combined-Shape" transform="translate(4.111 4.864)">
        <path id="Path_3556" data-name="Path 3556" d="M52.994,29.223A18.951,18.951,0,0,0,20.713,48.27,19,19,0,1,0,56.277,34.918l.04.105c3.973,10.49-.988,22.1-11.095,25.931s-21.517-1.586-25.49-12.076.988-22.1,11.09-25.931a19.657,19.657,0,0,1,22.171,6.271Z" transform="translate(-18.362 -21.718)" fill="#f15b36"/>
      </g>
      <g id="PERSON" transform="translate(5.105 7.701)">
        <path id="Line" d="M29.889,90.813A27.2,27.2,0,0,1,37.752,83.2a19.419,19.419,0,0,1,9.256-2.419h.246a12.223,12.223,0,0,0-2.793,2.441,9.274,9.274,0,0,0-1.438,2.448,24.839,24.839,0,0,0-7.137,1.673,20.086,20.086,0,0,0-5.892,3.583l-.5.448Z" transform="translate(-27.992 -70.39)" fill="#f15c38"/>
        <ellipse id="Oval" cx="3.908" cy="3.854" rx="3.908" ry="3.854" transform="matrix(0.998, -0.058, 0.058, 0.998, 17.709, 0.453)" fill="#f15c37"/>
        <path id="Line-2" d="M36.8,92.87q-3.207,3.2-13.921,9.446L22.8,102.2q5.326-3.989,6.855-6.136a39.733,39.733,0,0,0,4.4-7.838c.405-.97.739-1.892,1.026-2.8.112-.354.224-.692.316-1.05.04-.137.076-.271.121-.43,0-.027.081-.293.1-.363,1.368-4.927,2.826-8.2,4.358-10.244a8.6,8.6,0,0,1,1.709-1.765c.322-.244,1.12-.744,1.12-.741.945-.672,2.658-1.023,5.151-1.2.768-.054,1.471-.085,2.656-.123a21.894,21.894,0,0,0,2.826-.172,25.651,25.651,0,0,0,5.019-1.653l.172-.072-.078.168q-2.085,4.5-8.239,5.07A8.436,8.436,0,0,0,45.5,74.864a13.234,13.234,0,0,0-3.711,5.8l12.06-.56a.358.358,0,0,1,.376.334c.043.786-.811,2.24-2.562,4.374a68.433,68.433,0,0,1-5.718,6.235l-.206.2,2.266-6.913-7.469.432A13.068,13.068,0,0,1,36.8,92.87Z" transform="translate(-22.8 -60.169)" fill="#02b288"/>
      </g>
      <g id="Combined-Shape-2" data-name="Combined-Shape" transform="translate(0)">
        <path id="Path_3557" data-name="Path 3557" d="M14.968,46.638A23.389,23.389,0,0,0,41.675,41.4,23.576,23.576,0,0,0,40.19,8.1a23.573,23.573,0,0,0-33.324.84,23.57,23.57,0,0,0,1.386,33.21l-.1-.094C-1.927,32.647-2.775,17.157,6.283,7.442S30.86-2.506,40.942,6.9,51.869,31.8,42.81,41.509A24.138,24.138,0,0,1,14.968,46.638Z" transform="translate(-0.005 0.003)" fill="#02b288"/>
      </g>
    </g>
    <g id="Layer_6" data-name="Layer 6" transform="translate(475.047 17.436)">
      <path id="LeanFITT" d="M228.895,123.79h3.624l-3.273,23.218h12.262l-.452,3.381h-15.9Zm18.658,18.937a4.206,4.206,0,0,0,.226,2.121,4.334,4.334,0,0,0,1.113,1.637,5.237,5.237,0,0,0,1.771,1.054,6.5,6.5,0,0,0,2.21.373,5.565,5.565,0,0,0,2.848-.73,11.555,11.555,0,0,0,2.432-1.935l2.265,1.964a10.866,10.866,0,0,1-8.413,3.647,9.09,9.09,0,0,1-3.719-.714,7,7,0,0,1-2.619-1.964,7.454,7.454,0,0,1-1.434-2.969,9.524,9.524,0,0,1-.111-3.7,10.333,10.333,0,0,1,1.208-3.7,11.13,11.13,0,0,1,2.357-2.966,10.8,10.8,0,0,1,3.208-1.964,10.175,10.175,0,0,1,3.791-.714,8.152,8.152,0,0,1,3.905.828,6.449,6.449,0,0,1,2.4,2.16,7.17,7.17,0,0,1,1.093,3,12.841,12.841,0,0,1,0,3.4l-.187,1.2Zm11.09-2.707a6.894,6.894,0,0,0-.075-2.065,3.9,3.9,0,0,0-.717-1.637,3.476,3.476,0,0,0-1.434-1.09,5.473,5.473,0,0,0-2.187-.4,5.852,5.852,0,0,0-2.34.471,7.2,7.2,0,0,0-1.944,1.221,6.633,6.633,0,0,0-1.375,1.673,4.851,4.851,0,0,0-.655,1.82Zm8.58-5.26a11.382,11.382,0,0,1,3.6-1.964,12.219,12.219,0,0,1,3.866-.655,9.891,9.891,0,0,1,3.319.488,5.512,5.512,0,0,1,2.151,1.309,4.125,4.125,0,0,1,1.057,1.9,6.044,6.044,0,0,1,.115,2.232l-1.283,9.094q-.151.94-.226,1.728c-.052.527-.075,1.028-.075,1.5h-3.018c.023-.452.056-.9.092-1.352s.095-.9.17-1.352h-.075a8.128,8.128,0,0,1-3.038,2.442,9.167,9.167,0,0,1-3.679.714,7.673,7.673,0,0,1-2.318-.327,4.835,4.835,0,0,1-1.83-1.015,4,4,0,0,1-1.113-1.669,4.749,4.749,0,0,1-.17-2.311,5.66,5.66,0,0,1,1.169-2.894,7.2,7.2,0,0,1,2.4-1.9,11.64,11.64,0,0,1,3.273-1.054,22.459,22.459,0,0,1,3.866-.327h2.491l.111-.753a3.2,3.2,0,0,0-.056-1.352,3.031,3.031,0,0,0-.622-1.221,3.1,3.1,0,0,0-1.208-.864,4.752,4.752,0,0,0-1.849-.327,7.527,7.527,0,0,0-1.755.19,8,8,0,0,0-1.395.468,7.8,7.8,0,0,0-1.169.655c-.367.252-.723.488-1.077.714Zm8.6,7.064c-.805,0-1.637.046-2.491.131a10.805,10.805,0,0,0-2.377.507,5.342,5.342,0,0,0-1.849,1.054,2.756,2.756,0,0,0-.9,1.728,2.121,2.121,0,0,0,.717,2.216,4.572,4.572,0,0,0,2.714.674,5.837,5.837,0,0,0,2.435-.468,5.565,5.565,0,0,0,2.867-2.894,6.779,6.779,0,0,0,.511-1.823l.187-1.126Zm11.257-9.241h3.395l-.38,2.733h.075A6.32,6.32,0,0,1,292.74,133a8.046,8.046,0,0,1,3.771-.884,7.221,7.221,0,0,1,2.416.4,4.609,4.609,0,0,1,1.905,1.221,4.8,4.8,0,0,1,1.113,2.121,7.655,7.655,0,0,1,.088,3.057l-1.584,11.457h-3.408l1.47-10.521a6.13,6.13,0,0,0-.056-2.121,3.274,3.274,0,0,0-.678-1.427,2.671,2.671,0,0,0-1.192-.789,4.614,4.614,0,0,0-1.509-.246,6.1,6.1,0,0,0-2.016.327,4.8,4.8,0,0,0-1.735,1.074,5.992,5.992,0,0,0-1.309,1.859,9.469,9.469,0,0,0-.756,2.668l-1.283,9.166h-3.388Z" transform="translate(-225.16 -120.451)" fill="#00b188" fill-rule="evenodd"/>
      <g id="FITT" transform="translate(82.988 3.339)">
        <path id="Path" d="M478.68,123.79h18.138v3.958H483.767v7.476h13.051V139.4H483.767v10.773H478.68Z" transform="translate(-478.68 -123.79)" fill="#f15b38" fill-rule="evenodd"/>
        <path id="Path_3558" data-name="Path 3558" d="M544.9,123.79h5.306v26.384H544.9Z" transform="translate(-523.224 -123.79)" fill="#f15b38" fill-rule="evenodd"/>
        <path id="Path_3559" data-name="Path 3559" d="M580.783,127.967H572.6V123.79h21.454v4.177H585.87v22.207h-5.087Z" transform="translate(-541.856 -123.79)" fill="#f15b38" fill-rule="evenodd"/>
        <path id="Path_3560" data-name="Path 3560" d="M654.433,127.967H646.25V123.79H667.7v4.177H659.52v22.207h-5.087Z" transform="translate(-591.397 -123.79)" fill="#f15b38" fill-rule="evenodd"/>
      </g>
      <path id="TM" d="M716.161,114.8H713.87V113.59H719.8V114.8h-2.291v6.3h-1.339Zm4.632-1.211h2.039l2.007,5.264,2.029-5.264h2.016V121.1h-1.273v-6.239h-.023L725.3,121.1h-.91l-2.291-6.239h-.023V121.1h-1.286Z" transform="translate(-553.895 -113.59)" fill="#f15b38" fill-rule="evenodd"/>
    </g>
  </g>
</svg>
