<svg id="LeanStore" xmlns="http://www.w3.org/2000/svg" width="324.233" height="76.798" viewBox="0 0 324.233 76.798">
  <g id="_Layer_" data-name="&lt;Layer&gt;">
    <path id="Path_3561" data-name="Path 3561" d="M21.313,49.192a36.258,36.258,0,0,0,4.632-.18,16.365,16.365,0,0,0,3.505-.631,8.092,8.092,0,0,0,2.581-1.33A7.889,7.889,0,0,0,33.9,44.8a15.576,15.576,0,0,0,1.33-3.314,40.936,40.936,0,0,0,1-4.632H38.6L37.858,51.5H0v-2.31H6.762V11.83H0V9.52H20.129v2.31H13.367V49.192Z" transform="translate(0 1.21)" fill="#1c3d9b"/>
    <path id="Path_3562" data-name="Path 3562" d="M63.54,40.815a12.522,12.522,0,0,1-4.508,7.3,13.8,13.8,0,0,1-8.622,2.536,16.906,16.906,0,0,1-6.481-1.127,14.584,14.584,0,0,1-4.835-3.167,13.8,13.8,0,0,1-2.975-4.734,15.587,15.587,0,0,1-1.048-5.714,15.858,15.858,0,0,1,1.048-5.872A14.2,14.2,0,0,1,39.2,25.228a15.08,15.08,0,0,1,4.813-3.212,15.677,15.677,0,0,1,6.255-1.206A14.934,14.934,0,0,1,55.9,21.836a12.172,12.172,0,0,1,4.283,2.84,12.555,12.555,0,0,1,2.727,4.362,16.906,16.906,0,0,1,1.1,5.511H42.283v.958a26.114,26.114,0,0,0,.6,6.368,9.851,9.851,0,0,0,1.769,3.8,5.635,5.635,0,0,0,2.739,1.86,11.586,11.586,0,0,0,3.381.541,12.7,12.7,0,0,0,3.381-.417,8.363,8.363,0,0,0,2.829-1.375,8.938,8.938,0,0,0,2.254-2.434,13.187,13.187,0,0,0,1.5-3.663,10.932,10.932,0,0,1,1.443.225A13.334,13.334,0,0,1,63.54,40.815Zm-6.762-8.78a18.033,18.033,0,0,0-.631-4.429,6.965,6.965,0,0,0-1.386-2.649,4.4,4.4,0,0,0-2.04-1.3,8.8,8.8,0,0,0-2.615-.383,9.456,9.456,0,0,0-2.761.394,5.5,5.5,0,0,0-2.254,1.386,7.6,7.6,0,0,0-1.713,2.727,16.163,16.163,0,0,0-.913,4.283Z" transform="translate(4.456 2.644)" fill="#1c3d9b"/>
    <path id="Path_3563" data-name="Path 3563" d="M62.483,15.945a5.8,5.8,0,0,1-2.063,3.381,6.39,6.39,0,0,1-3.979,1.127,7.8,7.8,0,0,1-2.975-.507,6.627,6.627,0,0,1-2.254-1.465,6.075,6.075,0,0,1-1.4-2.164,7.055,7.055,0,0,1-.485-2.626,7.528,7.528,0,0,1,.5-2.7,6.638,6.638,0,0,1,1.42-2.254,6.9,6.9,0,0,1,2.254-1.5,7.439,7.439,0,0,1,2.885-.552,6.9,6.9,0,0,1,2.626.473,5.635,5.635,0,0,1,1.995,1.352,5.726,5.726,0,0,1,1.262,2.017,7.765,7.765,0,0,1,.473,2.558H52.722v.44a12.138,12.138,0,0,0,.293,2.919,4.418,4.418,0,0,0,.811,1.747,2.615,2.615,0,0,0,1.251.857,5.139,5.139,0,0,0,1.6.225,6.233,6.233,0,0,0,1.544-.192,4.08,4.08,0,0,0,1.3-.631,4.136,4.136,0,0,0,1.026-1.127,6.221,6.221,0,0,0,.71-1.657l.665.1ZM59.338,11.9a8.385,8.385,0,0,0-.237-2.04,3.1,3.1,0,0,0-.642-1.217,1.939,1.939,0,0,0-.935-.6,3.956,3.956,0,0,0-1.183-.169,4.193,4.193,0,0,0-1.274.192,2.513,2.513,0,0,0-1.059.631,3.528,3.528,0,0,0-.766,1.228,7.472,7.472,0,0,0-.428,1.972Z" transform="translate(6.268 0.849)" fill="#1c3d9b"/>
    <path id="Path_3564" data-name="Path 3564" d="M102.043,47.6h4.835v2.727H90.22V47.6h5.387V24.405H90.22V21.723h11.823v4.869h.147a10.628,10.628,0,0,1,3.933-4.272,12.15,12.15,0,0,1,6.39-1.5q4.925,0,7.315,2.367a9.016,9.016,0,0,1,2.4,6.762V47.6h5.184v2.727H110.924V47.6h4.835V29a5.184,5.184,0,0,0-1.319-3.911,5.241,5.241,0,0,0-3.731-1.251,8.059,8.059,0,0,0-3.381.721,7.224,7.224,0,0,0-2.739,2.254,11.53,11.53,0,0,0-1.837,3.866,19.7,19.7,0,0,0-.687,5.556Z" transform="translate(11.463 2.644)" fill="#1c3d9b"/>
    <path id="Path_3565" data-name="Path 3565" d="M147.824,21.54V30.7h-1.307a15.305,15.305,0,0,0-1.623-3.6,8.531,8.531,0,0,0-2.074-2.254,7.359,7.359,0,0,0-2.592-1.183,13.266,13.266,0,0,0-3.156-.349,9.107,9.107,0,0,0-2.457.3,7.3,7.3,0,0,0-1.871.789,4.057,4.057,0,0,0-1.183,1.026,2.254,2.254,0,0,0-.428,1.274,4.507,4.507,0,0,0,.259,1.533,3.381,3.381,0,0,0,.936,1.307,8.7,8.7,0,0,0,1.86,1.228,26.97,26.97,0,0,0,2.942,1.42l5.568,2.1q7.743,2.885,7.743,7.675a6.041,6.041,0,0,1-.992,3.381,8.847,8.847,0,0,1-2.649,2.558,14.19,14.19,0,0,1-3.753,1.646,15.778,15.778,0,0,1-4.272.6,31.377,31.377,0,0,1-3.471-.2,33.676,33.676,0,0,1-3.866-.676l-1.127-.225a5.76,5.76,0,0,0-.913-.079,1.567,1.567,0,0,0-1.364.744h-1.251V40.024h1.251a10.774,10.774,0,0,0,1.589,3.618,10.391,10.391,0,0,0,5.635,4.136,11.778,11.778,0,0,0,3.55.53A8.825,8.825,0,0,0,141.2,48a6.424,6.424,0,0,0,1.882-.857,4.271,4.271,0,0,0,1.251-1.3,2.942,2.942,0,0,0,.451-1.578,4.159,4.159,0,0,0-.394-1.815,4.767,4.767,0,0,0-1.42-1.578,17.211,17.211,0,0,0-2.818-1.6c-1.195-.552-2.75-1.195-4.643-1.927A40.065,40.065,0,0,1,131,35.392a13.051,13.051,0,0,1-2.739-1.848,4.733,4.733,0,0,1-1.33-1.927,7.11,7.11,0,0,1-.338-2.254,6.334,6.334,0,0,1,.766-3.088,7.439,7.439,0,0,1,2.186-2.468,10.741,10.741,0,0,1,3.381-1.645,14.539,14.539,0,0,1,4.272-.6,13.525,13.525,0,0,1,1.871.18c.766.113,1.533.248,2.254.394l2.13.394a9.354,9.354,0,0,0,1.307.169,1.8,1.8,0,0,0,.947-.192,3.224,3.224,0,0,0,.766-.947Z" transform="translate(16.084 2.737)" fill="#0b9445"/>
    <path id="Path_3566" data-name="Path 3566" d="M158.4,13.25l.361,10.144h7.01v2.13h-7.01V43.557a9.7,9.7,0,0,0,.225,2.254,3.483,3.483,0,0,0,.631,1.409,2.254,2.254,0,0,0,.958.7,4.328,4.328,0,0,0,1.183.2c4.948.44,4.587-9.118,4.948-9.941h2.074c.056,0,.225,9.805-4.148,12.465a12.1,12.1,0,0,1-5.523,1.014,5.41,5.41,0,0,1-4.17-1.679q-1.578-1.668-1.567-5.748V25.49H148.56V24.5a12.4,12.4,0,0,0,5.027-3.381c1.488-1.612,2.739-5.748,2.739-7.822Z" transform="translate(18.875 1.683)" fill="#0b9445"/>
    <path id="Path_3567" data-name="Path 3567" d="M28.356,0l.2,5.635h3.888V6.762H28.559v10.02a5.027,5.027,0,0,0,.09,1.307,1.848,1.848,0,0,0,.349.778,1.364,1.364,0,0,0,.53.394,2.93,2.93,0,0,0,.654.113c2.75.237,2.558-5.072,2.75-5.534h1.127s.124,5.455-2.31,6.931a6.762,6.762,0,0,1-3.066.564A3.043,3.043,0,0,1,26.4,20.4a4.666,4.666,0,0,1-.868-3.2V6.762H22.89V6.2a6.977,6.977,0,0,0,2.8-1.893A8.408,8.408,0,0,0,27.207,0Z" transform="translate(2.908)" fill="#1c3d9b"/>
    <path id="Path_3568" data-name="Path 3568" d="M200.575,35.133a15.655,15.655,0,0,1-1.127,5.737,13.186,13.186,0,0,1-3.1,4.767,14.426,14.426,0,0,1-5.3,3.381,19.487,19.487,0,0,1-6.762,1.127,17.515,17.515,0,0,1-5.906-.992,15.43,15.43,0,0,1-4.858-2.975,13.773,13.773,0,0,1-3.381-4.587,13.942,13.942,0,0,1-1.274-6.064,13.75,13.75,0,0,1,4.441-10.583,18.382,18.382,0,0,1,22.936-.214A13.2,13.2,0,0,1,200.575,35.133Zm-6.83,0a21.775,21.775,0,0,0-.5-4.441,12.926,12.926,0,0,0-1.488-3.956,8.261,8.261,0,0,0-2.784-2.8,7.889,7.889,0,0,0-4.193-1.048,8.07,8.07,0,0,0-7.281,3.979,11.8,11.8,0,0,0-1.488,3.9A22.213,22.213,0,0,0,175.588,35a22.913,22.913,0,0,0,.507,4.97,13.03,13.03,0,0,0,1.645,4.08,8.453,8.453,0,0,0,2.829,2.818,8.081,8.081,0,0,0,4.215,1.014,7.608,7.608,0,0,0,6.537-3.381q2.491-3.347,2.491-9.309Z" transform="translate(21.455 2.645)" fill="#0b9445"/>
    <path id="Path_3569" data-name="Path 3569" d="M215.271,50.633H196.9V47.951h5.635V24.711H196.9V22.017h12.4v5.207h.113a11.272,11.272,0,0,1,1.668-2.4,11.573,11.573,0,0,1,2.186-1.893,10.143,10.143,0,0,1,2.558-1.251,9.016,9.016,0,0,1,2.727-.428,5.737,5.737,0,0,1,3.719,1.127,3.956,3.956,0,0,1,1.454,3.257,3.719,3.719,0,0,1-1.127,2.874,4.215,4.215,0,0,1-2.93,1.026,3.9,3.9,0,0,1-2.863-.981,3.257,3.257,0,0,1-.992-2.446,4.79,4.79,0,0,1,.338-1.679,8.509,8.509,0,0,0-2.727,1.488,10,10,0,0,0-2.187,2.57,13.052,13.052,0,0,0-1.465,3.584,18.1,18.1,0,0,0-.518,4.508V47.849h6Z" transform="translate(25.017 2.699)" fill="#0b9445"/>
    <path id="Path_3570" data-name="Path 3570" d="M92.906,39.349S94.8,52.592,85.016,49.955a5.534,5.534,0,0,1-1.893-.755,3.11,3.11,0,0,1-1.014-1.285,5.635,5.635,0,0,1-.383-1.679h-.169a12.465,12.465,0,0,1-2.1,2.175,10.414,10.414,0,0,1-2.344,1.42,11.384,11.384,0,0,1-2.5.755,14.157,14.157,0,0,1-2.57.237,12.048,12.048,0,0,1-3.809-.552,7.98,7.98,0,0,1-2.84-1.533,6.413,6.413,0,0,1-1.747-2.356,7.529,7.529,0,0,1-.6-3.021c0-3.054,1.6-5.387,4.779-6.988s7.765-2.5,13.761-2.615V28.743c0-1.995-.44-3.381-1.307-4.2a5.962,5.962,0,0,0-4.148-1.206,12.747,12.747,0,0,0-3.381.394,7.619,7.619,0,0,0-2.434,1.059,5.173,5.173,0,0,1,1.24,1.6,3.821,3.821,0,0,1,.451,1.668,3.1,3.1,0,0,1-.947,2.31,3.573,3.573,0,0,1-2.592.924,4.7,4.7,0,0,1-1.364-.2,3.009,3.009,0,0,1-1.127-.631,3.19,3.19,0,0,1-.789-1.071,3.629,3.629,0,0,1-.293-1.5,4.88,4.88,0,0,1,.789-2.626,7.112,7.112,0,0,1,2.333-2.254,13.2,13.2,0,0,1,3.888-1.589,22.113,22.113,0,0,1,5.432-.6,19.611,19.611,0,0,1,4.508.462,8.464,8.464,0,0,1,3.291,1.533,6.7,6.7,0,0,1,2.029,2.863,12.51,12.51,0,0,1,.676,4.418c0,.44,0,1.127,0,2.164s0,2.108-.056,3.314,0,2.446,0,3.685v3.28c0,.935,0,1.781.068,2.434s0,1.285.349,1.544c2.919,2.254,2.919-7.168,2.919-7.168ZM81.635,36.238a40.349,40.349,0,0,0-6.244.564,10.876,10.876,0,0,0-3.64,1.262A4.125,4.125,0,0,0,70,40.025a7.112,7.112,0,0,0-.451,2.637,5.635,5.635,0,0,0,1.127,3.855,4,4,0,0,0,3.133,1.262,7.889,7.889,0,0,0,2.434-.428A7.517,7.517,0,0,0,80.756,43.4a8.735,8.735,0,0,0,.789-3.933Z" transform="translate(8.011 2.645)" fill="#1c3d9b"/>
    <path id="Path_3571" data-name="Path 3571" d="M39.623,20.084h2.66v1.127H33.12V20.084h2.953V1.127H33.12V0h6.5V10.752h.124a5.5,5.5,0,0,1,2.141-1.736,8.442,8.442,0,0,1,3.494-.62A6.514,6.514,0,0,1,49.44,9.422a3.539,3.539,0,0,1,1.3,2.975v7.709h2.851v1.127H44.515V20.107h2.671v-8.07a2.1,2.1,0,0,0-.676-1.781,3.471,3.471,0,0,0-2.1-.541,5.41,5.41,0,0,0-1.837.293,3.9,3.9,0,0,0-1.5.9,4.407,4.407,0,0,0-1.026,1.578,6.492,6.492,0,0,0-.372,2.333Z" transform="translate(4.208)" fill="#1c3d9b"/>
    <path id="Path_3572" data-name="Path 3572" d="M231.11,57.81h35.6a3.742,3.742,0,0,0,3.6-2.671l8.633-35.006a6.571,6.571,0,0,1,6.379-4.993h7.653" transform="translate(29.364 1.924)" fill="none" stroke="#0b974a" stroke-linecap="round" stroke-miterlimit="10" stroke-width="3.79"/>
    <circle id="Ellipse_112" data-name="Ellipse 112" cx="6.402" cy="6.402" r="6.402" transform="translate(258.333 63.994)" fill="#0b974a"/>
    <circle id="Ellipse_113" data-name="Ellipse 113" cx="6.402" cy="6.402" r="6.402" transform="translate(286.069 63.994)" fill="#0b974a"/>
    <path id="Path_3573" data-name="Path 3573" d="M245.735,24.923a6.886,6.886,0,0,0-2.761-1.127,4.4,4.4,0,0,0-2.389.3,8.667,8.667,0,0,0-2.254,1.4,9.151,9.151,0,0,0-1.86,2.074A5.535,5.535,0,0,0,235.6,30.1a7.552,7.552,0,0,0,.428,3.122,15.993,15.993,0,0,0,2.04,3.866l10.944-9.163A17.864,17.864,0,0,0,245.735,24.923Z" transform="translate(29.932 3.017)" fill="#0b974a"/>
    <path id="Path_3574" data-name="Path 3574" d="M273.061,17h-49.59a1.488,1.488,0,0,0-1.465,1.871L229.9,52.164a1.5,1.5,0,0,0,1.454,1.127h33.913a1.488,1.488,0,0,0,1.443-1.127l7.833-33.293A1.476,1.476,0,0,0,273.061,17ZM262.918,39.541a13.772,13.772,0,0,1-4.97,7.472,17.222,17.222,0,0,1-5.714,3.28,14.37,14.37,0,0,1-5.748.665,13.524,13.524,0,0,1-5.32-1.6,15.5,15.5,0,0,1-4.508-3.708,15.779,15.779,0,0,1-2.942-5.173,14.2,14.2,0,0,1-.721-5.635,14.752,14.752,0,0,1,1.589-5.556,15.508,15.508,0,0,1,4.012-4.937,15.113,15.113,0,0,1,5.015-2.885,12.567,12.567,0,0,1,5.117-.575,12.736,12.736,0,0,1,4.891,1.589,17.052,17.052,0,0,1,4.452,3.539l-16.692,14c.214.3.361.5.44.586l.135.169a25.528,25.528,0,0,0,4.508,4.429,9.647,9.647,0,0,0,3.787,1.781,5.635,5.635,0,0,0,3.268-.316,11.688,11.688,0,0,0,2.987-1.848,13.008,13.008,0,0,0,2.254-2.48,8.182,8.182,0,0,0,1.285-2.863,8.837,8.837,0,0,0,.135-3.291,13.266,13.266,0,0,0-1.127-3.742,11.439,11.439,0,0,1,1.274-.789,13.306,13.306,0,0,1,1.307-.586,12.544,12.544,0,0,1,1.3,8.475Z" transform="translate(28.201 2.16)" fill="#0b974a"/>
  </g>
</svg>
