<svg xmlns="http://www.w3.org/2000/svg" xmlns:xlink="http://www.w3.org/1999/xlink" width="115.017" height="57.95" viewBox="0 0 115.017 57.95">
  <defs>
    <linearGradient id="linear-gradient" y1="0.739" x2="0.576" y2="0.84" gradientUnits="objectBoundingBox">
      <stop offset="0" stop-color="#fff"/>
      <stop offset="1" stop-color="#0080ff"/>
    </linearGradient>
    <filter id="Path_151" x="0" y="35.203" width="65.611" height="22.747" filterUnits="userSpaceOnUse">
      <feOffset dy="3" input="SourceAlpha"/>
      <feGaussianBlur stdDeviation="1.5" result="blur"/>
      <feFlood flood-color="#37534a" flood-opacity="0.161"/>
      <feComposite operator="in" in2="blur"/>
      <feComposite in="SourceGraphic"/>
    </filter>
    <linearGradient id="linear-gradient-2" x1="0.037" y1="0.331" x2="0.738" y2="0.893" xlink:href="#linear-gradient"/>
    <filter id="Path_152" x="2.813" y="31.242" width="62.971" height="26.052" filterUnits="userSpaceOnUse">
      <feOffset dy="3" input="SourceAlpha"/>
      <feGaussianBlur stdDeviation="1.5" result="blur-2"/>
      <feFlood flood-color="#3e2e2e" flood-opacity="0.412"/>
      <feComposite operator="in" in2="blur-2"/>
      <feComposite in="SourceGraphic"/>
    </filter>
    <linearGradient id="linear-gradient-3" x1="0.071" y1="0.101" x2="0.736" y2="0.775" xlink:href="#linear-gradient"/>
    <filter id="Path_153" x="5.73" y="24.029" width="60.276" height="33.302" filterUnits="userSpaceOnUse">
      <feOffset dy="3" input="SourceAlpha"/>
      <feGaussianBlur stdDeviation="1.5" result="blur-3"/>
      <feFlood flood-color="#2d3b35" flood-opacity="0.431"/>
      <feComposite operator="in" in2="blur-3"/>
      <feComposite in="SourceGraphic"/>
    </filter>
    <linearGradient id="linear-gradient-4" x1="0" y1="-0.032" x2="0.886" y2="0.907" xlink:href="#linear-gradient"/>
    <filter id="Path_154" x="12.521" y="15.151" width="54.468" height="42.004" filterUnits="userSpaceOnUse">
      <feOffset dy="3" input="SourceAlpha"/>
      <feGaussianBlur stdDeviation="1.5" result="blur-4"/>
      <feFlood flood-color="#372a2a" flood-opacity="0.38"/>
      <feComposite operator="in" in2="blur-4"/>
      <feComposite in="SourceGraphic"/>
    </filter>
    <linearGradient id="linear-gradient-5" x1="0" y1="0" x2="0.865" y2="0.911" xlink:href="#linear-gradient"/>
    <filter id="Path_155" x="20.852" y="10.619" width="48.458" height="47.216" filterUnits="userSpaceOnUse">
      <feOffset dy="3" input="SourceAlpha"/>
      <feGaussianBlur stdDeviation="1.5" result="blur-5"/>
      <feFlood flood-color="#2d3e39" flood-opacity="0.4"/>
      <feComposite operator="in" in2="blur-5"/>
      <feComposite in="SourceGraphic"/>
    </filter>
    <linearGradient id="linear-gradient-6" x1="0" y1="-0.024" x2="0.796" y2="0.957" xlink:href="#linear-gradient"/>
    <filter id="Path_156" x="31.745" y="0" width="39.321" height="55.267" filterUnits="userSpaceOnUse">
      <feOffset input="SourceAlpha"/>
      <feGaussianBlur stdDeviation="1.5" result="blur-6"/>
      <feFlood flood-color="#3e352f" flood-opacity="0.388"/>
      <feComposite operator="in" in2="blur-6"/>
      <feComposite in="SourceGraphic"/>
    </filter>
  </defs>
  <g id="Learning" transform="translate(3.997 2.437)">
    <g id="Pages" transform="translate(0.503 2.063)">
      <g transform="matrix(1, 0, 0, 1, -4.5, -4.5)" filter="url(#Path_151)">
        <path id="Path_151-2" data-name="Path 151" d="M17.251,452.959a38.1,38.1,0,0,0,7.595,1.229c12.035.884,38.149,1.083,49.016-1.093L70.4,445.349l-36.21-4.282Z" transform="translate(-12.75 -404.36)" fill="url(#linear-gradient)"/>
      </g>
      <g transform="matrix(1, 0, 0, 1, -4.5, -4.5)" filter="url(#Path_152)">
        <path id="Path_152-2" data-name="Path 152" d="M48.067,401.83s30.391,9.135,53.971,7.388L99.555,401.1,64.15,392.388Z" transform="translate(-40.75 -359.65)" fill="url(#linear-gradient-2)"/>
      </g>
      <g transform="matrix(1, 0, 0, 1, -4.5, -4.5)" filter="url(#Path_153)">
        <path id="Path_153-2" data-name="Path 153" d="M79.293,321.11s27.845,15.223,51.276,18.392l-.751-8.453L96.981,315.2Z" transform="translate(-69.06 -289.67)" fill="url(#linear-gradient-3)"/>
      </g>
      <g transform="matrix(1, 0, 0, 1, -4.5, -4.5)" filter="url(#Path_154)">
        <path id="Path_154-2" data-name="Path 154" d="M151.973,220.714s22.23,22.648,43.734,32.479l1.734-8.308-26.825-24.7Z" transform="translate(-134.95 -203.54)" fill="url(#linear-gradient-4)"/>
      </g>
      <g transform="matrix(1, 0, 0, 1, -4.5, -4.5)" filter="url(#Path_155)">
        <path id="Path_155-2" data-name="Path 155" d="M241.124,171.683s17.509,25.289,36.435,38.216l3.022-7.65-21.563-28Z" transform="translate(-215.77 -159.56)" fill="url(#linear-gradient-5)"/>
      </g>
      <g transform="matrix(1, 0, 0, 1, -4.5, -4.5)" filter="url(#Path_156)">
        <path id="Path_156-2" data-name="Path 156" d="M353.855,78.6s10.456,28.928,25.442,46.267l4.879-6.622L370.5,85.655Z" transform="translate(-317.61 -74.1)" fill="url(#linear-gradient-6)"/>
      </g>
    </g>
    <g id="Body" transform="translate(0 0)">
      <path id="Path_157" data-name="Path 157" d="M700.479,562.6l33.756,1.013.238,1.378h8.952l.238-1.317h2.184s2.019,2.8-7.488,3.06-39.158,0-39.158,0a.638.638,0,0,1,.371-.82,1.549,1.549,0,0,0,.834-1.2A13.782,13.782,0,0,0,700.479,562.6Z" transform="translate(-635.008 -516.395)" fill="#007cf8"/>
      <path id="Path_158" data-name="Path 158" d="M53.564,69.649l17.018,40.979a.646.646,0,0,0,1.132.108l1.866-2.825a.645.645,0,0,1,1.14.122h0a.645.645,0,0,0,.592.411l39.987.6a.648.648,0,0,1,.337.1l6.943,4.409a.646.646,0,0,1-.361,1.192l-44.126-1.061a.647.647,0,0,0-.661.659,5,5,0,0,1-.374,2.461c-.43.5-.859.417-1,1a.641.641,0,0,1-.625.486H13.247a.651.651,0,0,1-.572-.969,5.347,5.347,0,0,0,.517-3.126s8.169,3.1,55.882,1a.647.647,0,0,0,.569-.894L50.982,69.731a.647.647,0,0,1-.045-.331c.08-.655.5-2.694,2.55.119A.7.7,0,0,1,53.564,69.649Z" transform="translate(-12.587 -68.072)" fill="#0080ff"/>
      <path id="Path_160" data-name="Path 160" d="M434.04,15.98l7.087,4.941,14.349,33.754L452.088,58.9Z" transform="translate(-393.124 -14.131)" fill="#fff"/>
      <circle id="Ellipse_6" data-name="Ellipse 6" cx="1.503" cy="1.503" r="1.503" transform="translate(61.147 46.209)" fill="#fff"/>
      <path id="Path_159" data-name="Path 159" d="M422.36,2.506l9.257,6.88,13.924,34" transform="translate(-382.618 -1.361)" fill="none" stroke="#017efc" stroke-miterlimit="10" stroke-width="2"/>
    </g>
    <g id="Switches" transform="translate(67.333 40.752)">
      <path id="Path_161" data-name="Path 161" d="M747.685,436.591l-.071,4.443,3.136.049-.452-4.451Z" transform="translate(-745.09 -436.552)" fill="#fff"/>
      <path id="Path_162" data-name="Path 162" d="M781.939,437.12l.626,4.454,3.049.048-1.149-4.463Z" transform="translate(-776.208 -437.032)" fill="#fff"/>
      <path id="Path_163" data-name="Path 163" d="M815.5,437.656l1.411,4.466,2.788.044-1.672-4.47Z" transform="translate(-806.632 -437.517)" fill="#fff"/>
      <path id="Path_164" data-name="Path 164" d="M850,438.2l1.846,4.473,2.962.047-2.368-4.482Z" transform="translate(-837.911 -438.009)" fill="#fff"/>
      <rect id="Rectangle_28" data-name="Rectangle 28" width="4.444" height="2.004" transform="matrix(0.016, -1, 1, 0.016, 0, 4.443)" fill="#fff"/>
      <path id="Path_165" data-name="Path 165" d="M881.7,438.7l2.282,4.481,3.31.052-3.24-4.5Z" transform="translate(-866.647 -438.466)" fill="#fff"/>
    </g>
    <g id="Poiner" transform="translate(93.459 41.901)">
      <path id="Path_166" data-name="Path 166" d="M1000.2,448.47l1.5,1.8,8.619.342-2.542-1.845Z" transform="translate(-1000.203 -448.47)" fill="#fff"/>
      <path id="Path_167" data-name="Path 167" d="M1084.6,451.831l2.543,1.845,1.48.059-2.456-1.842Z" transform="translate(-1076.717 -451.517)" fill="#fff"/>
    </g>
  </g>
</svg>
