<svg xmlns="http://www.w3.org/2000/svg" width="342.052" height="51.117" viewBox="0 0 342.052 51.117">
  <g id="Group_183" data-name="Group 183" transform="translate(-933 -667.342)">
    <g id="Logo" transform="translate(726.917 742.463)">
      <g id="shape" transform="translate(206.083 -75.121)">
        <g id="Combined-Shape" transform="translate(5.901 4.834)">
          <path id="Path_418" data-name="Path 418" d="M858.761,257.992A19.75,19.75,0,0,0,842.41,253a19.63,19.63,0,0,0,6.316,38.741c10.463-1.708,13.643-8.372,14.691-11.367.007.038,0-.038,0,0-.355,2.681-4.253,10.873-15.065,12.636s-21.049-5.921-22.878-17.138,5.439-21.753,16.25-23.516C850.309,250.956,856.695,254.813,858.761,257.992Z" transform="translate(-825.191 -252.06)" fill="#0080ff"/>
        </g>
        <g id="Combined-Shape-2" data-name="Combined-Shape" transform="translate(1.948)">
          <path id="Path_419" data-name="Path 419" d="M797.64,250.36a24.2,24.2,0,1,0-5.764-5.815c-.028-.037-.055-.075-.082-.112-8.116-11.374-5.83-26.934,5.128-34.754s26.416-4.916,34.531,6.451,5.831,26.932-5.127,34.753A24.463,24.463,0,0,1,797.64,250.36Z" transform="translate(-786.937 -205.285)" fill="#f63"/>
        </g>
        <path id="Line" d="M1002.043,392.11a22.143,22.143,0,0,1,6.787-5.819,16.038,16.038,0,0,1,7.678-1.531l.2.006a9.989,9.989,0,0,0-2.4,1.854,7.512,7.512,0,0,0-1.292,1.922,20.43,20.43,0,0,0-5.91,1.023,16.443,16.443,0,0,0-4.985,2.629l-.434.335Z" transform="translate(-977.551 -366.207)" fill="#0080ff"/>
        <path id="Oval" d="M1130.7,315.761a3.145,3.145,0,0,0,0-6.29c-1.752,0-3,1.656-3.505,3.145q-.5,1.489-1.168,3.145Z" transform="translate(-1089.036 -298.704)" fill="#0080ff" fill-rule="evenodd"/>
        <path id="Line-2" d="M992.548,389.7q-2.766,2.429-11.8,6.969l-.059-.1a28.443,28.443,0,0,0,5.882-4.628,32.232,32.232,0,0,0,3.961-6.113c.375-.764.69-1.492.97-2.213.112-.279.207-.55.307-.834l.118-.341c.007-.021.079-.232.1-.288,1.351-3.91,2.694-6.48,4.04-8.06a7.016,7.016,0,0,1,1.478-1.341c.275-.183.955-.549.952-.546a9.04,9.04,0,0,1,4.265-.723c.629-.008,1.2,0,2.173.025a18.021,18.021,0,0,0,2.313-.007,21.113,21.113,0,0,0,4.173-1.1l.143-.049-.072.132q-2.2,4.03-8.473,3.687a10.166,10.166,0,0,0-5.819,5.921l9.864.112a.294.294,0,0,1,.292.294c-.009.638-.774,1.765-2.3,3.4a55.666,55.666,0,0,1-4.957,4.762l-.179.15,2.176-5.475h-6.108A10.543,10.543,0,0,1,992.548,389.7Z" transform="translate(-958.715 -353.293)" fill="#f63"/>
        <path id="Path_420" data-name="Path 420" d="M787.745,482.833a20.69,20.69,0,0,1,6.317-5.443,14.841,14.841,0,0,1,7.151-1.431h.188a9.347,9.347,0,0,0-2.235,1.733,7.042,7.042,0,0,0-1.2,1.8,18.947,18.947,0,0,0-5.5.958,15.265,15.265,0,0,0-4.64,2.458l-.4.316Z" transform="translate(-785.42 -447.981)" fill="#f63"/>
        <ellipse id="Ellipse_13" data-name="Ellipse 13" cx="2.995" cy="2.894" rx="2.995" ry="2.894" transform="translate(15.312 20.364)" fill="#f63"/>
        <path id="Path_421" data-name="Path 421" d="M779.149,479.657q-2.581,2.272-11.008,6.525l-.055-.094a26.574,26.574,0,0,0,5.486-4.333,30.147,30.147,0,0,0,3.694-5.723c.35-.715.645-1.4.9-2.073.1-.261.193-.514.287-.782.035-.1.069-.2.112-.32l.093-.269a23.886,23.886,0,0,1,3.767-7.546,6.572,6.572,0,0,1,1.375-1.251c.257-.171.894-.513.888-.511a8.407,8.407,0,0,1,3.977-.677c.587-.007,1.123,0,2.027.023a16.555,16.555,0,0,0,2.156-.007,19.734,19.734,0,0,0,3.891-1.029l.134-.046-.067.123q-2.048,3.774-7.9,3.451a9.507,9.507,0,0,0-5.428,5.539l9.2.106a.271.271,0,0,1,.271.275c-.007.6-.721,1.652-2.143,3.185a52.059,52.059,0,0,1-4.623,4.458l-.161.141,2.029-5.124h-5.7A9.886,9.886,0,0,1,779.149,479.657Z" transform="translate(-768.086 -435.064)" fill="#0080ff"/>
      </g>
    </g>
    <g id="Text" transform="translate(993 673.813)">
      <path id="Management" d="M69.383,755.729h4.411L78.42,772.5h.124l9.193-16.773h4.411L89.094,777.89H86.137l2.495-18.212H88.57L78.7,777.89H76.725l-4.874-18.212h-.062l-2.5,18.212H66.329Zm26.326,9.118a9.4,9.4,0,0,1,2.981-1.634,10.074,10.074,0,0,1,3.2-.546,8.135,8.135,0,0,1,2.746.407,4.523,4.523,0,0,1,1.778,1.093,3.444,3.444,0,0,1,.874,1.576,5.03,5.03,0,0,1,.092,1.858l-1.06,7.558c-.083.52-.146,1-.188,1.43s-.062.853-.062,1.249h-2.5c.021-.375.048-.75.078-1.125s.079-.749.141-1.123h-.062a6.82,6.82,0,0,1-2.512,2.029,7.506,7.506,0,0,1-3.041.595,6.329,6.329,0,0,1-1.918-.281,4.045,4.045,0,0,1-1.513-.844,3.372,3.372,0,0,1-.922-1.389,4,4,0,0,1-.14-1.921,4.73,4.73,0,0,1,.968-2.4,5.95,5.95,0,0,1,1.975-1.57,9.679,9.679,0,0,1,2.714-.876,18.572,18.572,0,0,1,3.2-.265H104.6l.094-.624a2.738,2.738,0,0,0-.046-1.123,2.541,2.541,0,0,0-.515-1.015,2.588,2.588,0,0,0-1-.718,3.922,3.922,0,0,0-1.529-.265,6.08,6.08,0,0,0-1.451.159,6.468,6.468,0,0,0-1.155.389,6.223,6.223,0,0,0-.966.547c-.3.208-.6.407-.89.593Zm7.113,5.876a20,20,0,0,0-2.058.11,8.77,8.77,0,0,0-1.966.421,4.411,4.411,0,0,0-1.529.876,2.3,2.3,0,0,0-.748,1.43,1.768,1.768,0,0,0,.593,1.842,3.819,3.819,0,0,0,2.245.563,4.811,4.811,0,0,0,2.012-.391,4.591,4.591,0,0,0,1.451-1.014,4.664,4.664,0,0,0,.92-1.39,5.562,5.562,0,0,0,.421-1.514l.159-.938Zm9.3-7.685h2.808l-.318,2.28h.064a5.244,5.244,0,0,1,2.128-1.918,6.631,6.631,0,0,1,3.121-.734,5.97,5.97,0,0,1,2,.329,3.834,3.834,0,0,1,1.575,1.014,4.03,4.03,0,0,1,.922,1.765,6.439,6.439,0,0,1,.062,2.543l-1.319,9.526h-2.8l1.217-8.74a5.147,5.147,0,0,0-.046-1.765,2.723,2.723,0,0,0-.563-1.186,2.206,2.206,0,0,0-.982-.656,3.848,3.848,0,0,0-1.247-.2,4.977,4.977,0,0,0-1.67.281,4.024,4.024,0,0,0-1.43.89,5.046,5.046,0,0,0-1.076,1.546,8.013,8.013,0,0,0-.624,2.225l-1.06,7.62h-2.813Zm17.194,1.811a9.4,9.4,0,0,1,2.979-1.64,10.081,10.081,0,0,1,3.2-.546,8.131,8.131,0,0,1,2.746.406,4.526,4.526,0,0,1,1.778,1.093,3.428,3.428,0,0,1,.872,1.576,5,5,0,0,1,.094,1.858l-1.06,7.557c-.084.52-.146,1-.187,1.43s-.062.854-.062,1.249h-2.5c.021-.375.048-.75.078-1.125s.078-.748.141-1.123h-.064a6.807,6.807,0,0,1-2.511,2.029,7.512,7.512,0,0,1-3.041.594,6.327,6.327,0,0,1-1.918-.281,4.06,4.06,0,0,1-1.514-.844,3.385,3.385,0,0,1-.92-1.389,4,4,0,0,1-.14-1.921,4.714,4.714,0,0,1,.968-2.4,5.946,5.946,0,0,1,1.98-1.576,9.661,9.661,0,0,1,2.714-.876,18.542,18.542,0,0,1,3.2-.266h2.066l.094-.624a2.767,2.767,0,0,0-.046-1.124,2.544,2.544,0,0,0-.515-1.015,2.585,2.585,0,0,0-1-.718,3.913,3.913,0,0,0-1.529-.265,6.094,6.094,0,0,0-1.449.159,6.458,6.458,0,0,0-1.155.389,6.179,6.179,0,0,0-.966.547c-.3.208-.6.407-.89.593Zm7.113,5.87a20.011,20.011,0,0,0-2.066.11,8.748,8.748,0,0,0-1.964.421,4.39,4.39,0,0,0-1.529.876,2.313,2.313,0,0,0-.75,1.43,1.772,1.772,0,0,0,.593,1.842,3.819,3.819,0,0,0,2.247.562,4.811,4.811,0,0,0,2.012-.391,4.6,4.6,0,0,0,1.451-1.014,4.67,4.67,0,0,0,.92-1.39,5.564,5.564,0,0,0,.421-1.514l.159-.937Zm22.061,6.833a9.081,9.081,0,0,1-1.006,3.077,8.441,8.441,0,0,1-1.966,2.4,8.881,8.881,0,0,1-2.776,1.578,9.992,9.992,0,0,1-3.385.563,11.4,11.4,0,0,1-3.806-.594,7.659,7.659,0,0,1-3.057-2.066l2.215-2.373a6.422,6.422,0,0,0,2.128,1.807,6.174,6.174,0,0,0,2.822.609,6.918,6.918,0,0,0,2.652-.453,5.332,5.332,0,0,0,1.794-1.171,5.036,5.036,0,0,0,1.076-1.64,8.783,8.783,0,0,0,.531-1.858l.28-2.185h-.1a6.036,6.036,0,0,1-2.463,1.981,7.408,7.408,0,0,1-3,.636,7.2,7.2,0,0,1-2.932-.577,5.921,5.921,0,0,1-2.169-1.589,6.126,6.126,0,0,1-1.232-2.4,7.273,7.273,0,0,1-.126-3.019,9.289,9.289,0,0,1,.953-3.045,9.183,9.183,0,0,1,1.856-2.482,8.169,8.169,0,0,1,2.6-1.656,8.528,8.528,0,0,1,3.2-.593,6.282,6.282,0,0,1,2.827.655A4.451,4.451,0,0,1,157.4,765h.062l.28-2.121h2.808ZM152.56,765.29a5.41,5.41,0,0,0-2.066.391,5.653,5.653,0,0,0-1.684,1.061,5.441,5.441,0,0,0-1.2,1.624,6.773,6.773,0,0,0-.623,2.077,4.378,4.378,0,0,0,.78,3.606,4.119,4.119,0,0,0,3.369,1.359,5.365,5.365,0,0,0,3.744-1.359,5.886,5.886,0,0,0,1.84-3.606,5.966,5.966,0,0,0-.048-2.077,3.773,3.773,0,0,0-.748-1.624,3.834,3.834,0,0,0-1.387-1.061,4.631,4.631,0,0,0-1.975-.391Zm13.205,5.852a3.534,3.534,0,0,0,.187,1.764,3.628,3.628,0,0,0,.92,1.359,4.3,4.3,0,0,0,1.467.874,5.292,5.292,0,0,0,1.824.318,4.609,4.609,0,0,0,2.357-.608,9.44,9.44,0,0,0,2.012-1.61l1.872,1.624a8.98,8.98,0,0,1-6.957,3.03,7.455,7.455,0,0,1-3.073-.594,5.733,5.733,0,0,1-2.167-1.64,6.17,6.17,0,0,1-1.185-2.466,7.955,7.955,0,0,1-.094-3.076,8.711,8.711,0,0,1,1-3.075,9.248,9.248,0,0,1,1.95-2.468,8.914,8.914,0,0,1,2.652-1.638,8.349,8.349,0,0,1,3.135-.594,6.715,6.715,0,0,1,3.229.688,5.339,5.339,0,0,1,1.982,1.791,6.04,6.04,0,0,1,.906,2.5,10.781,10.781,0,0,1,0,2.825l-.159,1Zm9.172-1.92a5.854,5.854,0,0,0-.062-1.718,3.3,3.3,0,0,0-.593-1.357,2.894,2.894,0,0,0-1.185-.906,4.481,4.481,0,0,0-1.81-.329,4.821,4.821,0,0,0-1.934.391,5.921,5.921,0,0,0-1.607,1.016,5.566,5.566,0,0,0-1.139,1.389,4.075,4.075,0,0,0-.529,1.514Zm7.275-6.185h2.62l-.318,2.31h.064a3.605,3.605,0,0,1,.593-.78,5.376,5.376,0,0,1,1.122-.89,7.863,7.863,0,0,1,1.545-.718,5.659,5.659,0,0,1,1.856-.3,4.035,4.035,0,0,1,4.211,2.749,5.988,5.988,0,0,1,2.341-2.066,6.224,6.224,0,0,1,2.744-.688,5.639,5.639,0,0,1,2.73.562,3.606,3.606,0,0,1,1.5,1.484,5.189,5.189,0,0,1,.563,2.091,11.185,11.185,0,0,1-.11,2.42l-1.185,8.619h-2.8l1.155-8.244a9.735,9.735,0,0,0,.108-1.624,3.7,3.7,0,0,0-.265-1.374,2.036,2.036,0,0,0-.827-.954,3.037,3.037,0,0,0-1.606-.359,3.783,3.783,0,0,0-3.073,1.249,6.25,6.25,0,0,0-1.325,3.216l-1.123,8.088h-2.806l1.06-7.745a15.555,15.555,0,0,0,.172-1.935,4.187,4.187,0,0,0-.218-1.515,1.95,1.95,0,0,0-.795-1,2.952,2.952,0,0,0-1.589-.359,4.039,4.039,0,0,0-1.5.3,4.092,4.092,0,0,0-1.357.89,5.183,5.183,0,0,0-1.044,1.514,7.767,7.767,0,0,0-.618,2.177l-1.06,7.681h-2.811Zm27.554,8.1a3.517,3.517,0,0,0,.186,1.764,3.626,3.626,0,0,0,.92,1.359,4.3,4.3,0,0,0,1.467.874,5.293,5.293,0,0,0,1.826.318,4.606,4.606,0,0,0,2.355-.608,9.439,9.439,0,0,0,2.012-1.61l1.872,1.624a8.98,8.98,0,0,1-6.957,3.03,7.47,7.47,0,0,1-3.073-.594,5.733,5.733,0,0,1-2.167-1.64,6.2,6.2,0,0,1-1.186-2.466,7.954,7.954,0,0,1-.094-3.076,8.71,8.71,0,0,1,1-3.075,9.28,9.28,0,0,1,1.95-2.468,8.915,8.915,0,0,1,2.652-1.638,8.353,8.353,0,0,1,3.135-.594,6.715,6.715,0,0,1,3.229.688,5.339,5.339,0,0,1,1.98,1.794,6.039,6.039,0,0,1,.906,2.5,10.781,10.781,0,0,1,0,2.825l-.159,1Zm9.171-1.92a5.8,5.8,0,0,0-.062-1.718,3.276,3.276,0,0,0-.593-1.357,2.894,2.894,0,0,0-1.185-.906,4.481,4.481,0,0,0-1.81-.329,4.82,4.82,0,0,0-1.934.391,5.97,5.97,0,0,0-1.607,1.016,5.52,5.52,0,0,0-1.138,1.389,4.05,4.05,0,0,0-.531,1.514Zm7.272-6.185h2.808l-.318,2.28h.064a5.244,5.244,0,0,1,2.12-1.921,6.63,6.63,0,0,1,3.121-.734,5.965,5.965,0,0,1,2,.329,3.838,3.838,0,0,1,1.575,1.014,4.029,4.029,0,0,1,.922,1.766,6.439,6.439,0,0,1,.062,2.542l-1.3,9.53H234.45l1.217-8.74a5.145,5.145,0,0,0-.046-1.765,2.723,2.723,0,0,0-.563-1.186,2.206,2.206,0,0,0-.982-.656,3.848,3.848,0,0,0-1.247-.2,4.976,4.976,0,0,0-1.67.281,4.026,4.026,0,0,0-1.43.89,5.044,5.044,0,0,0-1.076,1.546,8.011,8.011,0,0,0-.625,2.225l-1.06,7.62H224.16Zm24.961,2.107h-4.024l-.936,6.714c-.062.416-.11.828-.14,1.233a3.3,3.3,0,0,0,.078,1.093,1.379,1.379,0,0,0,.515.78,1.956,1.956,0,0,0,1.2.3,6.23,6.23,0,0,0,1.046-.094,3.3,3.3,0,0,0,1.014-.343l-.375,2.56a2.639,2.639,0,0,1-.636.249,5.693,5.693,0,0,1-.717.142c-.24.03-.477.057-.686.078s-.4.032-.547.032a5.232,5.232,0,0,1-2.449-.453,2.554,2.554,0,0,1-1.154-1.171,3.375,3.375,0,0,1-.281-1.608q.048-.891.172-1.8l1.092-7.713H241.1l.34-2.425h3.245l.593-4.154h2.808l-.593,4.154h4.023Z" transform="translate(-66.329 -747.84)" fill="#0080ff" fill-rule="evenodd"/>
      <path id="TM" d="M1886.9,703.252h-2.269V702.06h5.854v1.192h-2.269v6.208H1886.9Zm4.562-1.192h2.008l1.978,5.187,2-5.185h1.987v7.4h-1.254v-6.148h-.022l-2.248,6.146h-.92l-2.25-6.146h-.028v6.146h-1.253Z" transform="translate(-1617.378 -702.06)" fill="#f63" fill-rule="evenodd"/>
      <g id="FITT" transform="translate(192.092 3.618)">
        <path id="Path" d="M1306.935,521.4H1324.8v3.9h-12.852v7.362H1324.8v4.114h-12.852v10.61h-5.012Z" transform="translate(-1306.935 -521.399)" fill="#f63" fill-rule="evenodd"/>
        <path id="Path_415" data-name="Path 415" d="M1452.2,521.4h5.228v25.985H1452.2Z" transform="translate(-1430.848 -521.399)" fill="#f63" fill-rule="evenodd"/>
        <path id="Path_416" data-name="Path 416" d="M1521.022,525.513h-8.061V521.4h21.133v4.114h-8.062v21.87h-5.01Z" transform="translate(-1482.679 -521.399)" fill="#f63" fill-rule="evenodd"/>
        <path id="Path_417" data-name="Path 417" d="M1682.588,525.513h-8.059V521.4h21.131v4.114h-8.06v21.87h-5.012Z" transform="translate(-1620.5 -521.399)" fill="#f63" fill-rule="evenodd"/>
      </g>
    </g>
  </g>
</svg>
