<svg xmlns="http://www.w3.org/2000/svg" xmlns:xlink="http://www.w3.org/1999/xlink" width="91.824" height="85.43" viewBox="0 0 91.824 85.43">
  <defs>
    <linearGradient id="linear-gradient" x1="-0.195" y1="-0.194" x2="1" y2="1" gradientUnits="objectBoundingBox">
      <stop offset="0" stop-color="#fff"/>
      <stop offset="1" stop-color="#0080ff"/>
    </linearGradient>
    <filter id="Shape" x="55.426" y="1.36" width="31.066" height="38.869" filterUnits="userSpaceOnUse">
      <feOffset dy="3" input="SourceAlpha"/>
      <feGaussianBlur stdDeviation="1.5" result="blur"/>
      <feFlood flood-color="#943708" flood-opacity="0.2"/>
      <feComposite operator="in" in2="blur"/>
      <feComposite in="SourceGraphic"/>
    </filter>
    <filter id="Path_174" x="0" y="41.88" width="91.824" height="43.55" filterUnits="userSpaceOnUse">
      <feOffset dy="3" input="SourceAlpha"/>
      <feGaussianBlur stdDeviation="1.5" result="blur-2"/>
      <feFlood flood-color="#34404d" flood-opacity="0.239"/>
      <feComposite operator="in" in2="blur-2"/>
      <feComposite in="SourceGraphic"/>
    </filter>
    <linearGradient id="linear-gradient-2" x1="-0.15" y1="-0.168" x2="0.936" y2="0.976" xlink:href="#linear-gradient"/>
    <filter id="Shape-2" x="29.612" y="0" width="44.539" height="55.586" filterUnits="userSpaceOnUse">
      <feOffset dy="3" input="SourceAlpha"/>
      <feGaussianBlur stdDeviation="1.5" result="blur-3"/>
      <feFlood flood-color="#364e4b" flood-opacity="0.302"/>
      <feComposite operator="in" in2="blur-3"/>
      <feComposite in="SourceGraphic"/>
    </filter>
    <filter id="Path_178" x="19.189" y="5.422" width="44.539" height="55.586" filterUnits="userSpaceOnUse">
      <feOffset dy="3" input="SourceAlpha"/>
      <feGaussianBlur stdDeviation="1.5" result="blur-4"/>
      <feFlood flood-color="#363e4a" flood-opacity="0.278"/>
      <feComposite operator="in" in2="blur-4"/>
      <feComposite in="SourceGraphic"/>
    </filter>
    <linearGradient id="linear-gradient-3" y1="-0.132" x2="1.178" y2="1.386" gradientUnits="objectBoundingBox">
      <stop offset="0" stop-color="#017efc"/>
      <stop offset="1" stop-color="#fff"/>
    </linearGradient>
    <linearGradient id="linear-gradient-4" x1="0.187" y1="0" x2="1.197" y2="1.292" xlink:href="#linear-gradient-3"/>
    <linearGradient id="linear-gradient-5" x2="1.426" y2="2.408" gradientUnits="objectBoundingBox">
      <stop offset="0" stop-color="#0080ff"/>
      <stop offset="1" stop-color="#fff"/>
    </linearGradient>
  </defs>
  <g id="Group_7" data-name="Group 7" transform="translate(4.5 1.5)">
    <g transform="matrix(1, 0, 0, 1, -4.5, -1.5)" filter="url(#Shape)">
      <path id="Shape-3" data-name="Shape" d="M316.943,19.385l-20-11.554c-.56-.324-1.008-.062-1.021.586l-.05,15.7a2.213,2.213,0,0,0,1.009,1.745L310.613,33.8l6.255,3.616c.56.324,1.009.062,1.021-.573l.05-15.705A2.19,2.19,0,0,0,316.943,19.385Z" transform="translate(-235.95 -4.83)" opacity="0.82" fill="url(#linear-gradient)"/>
    </g>
    <g id="Mobile" transform="translate(0 26.814)">
      <g transform="matrix(1, 0, 0, 1, -4.5, -28.31)" filter="url(#Path_174)">
        <path id="Path_174-2" data-name="Path 174" d="M83.35,63.623h0v-.181a.408.408,0,0,0-.017-.132V63.2a1.889,1.889,0,0,0-.082-.379c0-.033-.017-.049-.033-.1,0-.016-.016-.033-.016-.049s0-.016-.017-.033v-.016l-.017-.049v-.016c-.017-.033-.033-.082-.049-.115a.234.234,0,0,1-.033-.1.775.775,0,0,0-.049-.115v-.016a.016.016,0,0,0-.016-.016c-.017-.016-.017-.049-.033-.066-.05-.082-.082-.148-.1-.181v-.016c-.017-.016-.017-.033-.033-.049s-.017-.033-.033-.049l-.033-.066-.017-.016c-.033-.049-.066-.082-.1-.132a1.783,1.783,0,0,1-.148-.181.016.016,0,0,0-.016-.016V61.4a1.834,1.834,0,0,0-.165-.181,1.067,1.067,0,0,1-.148-.132l-.033-.033a.223.223,0,0,0-.066-.049h-.016a.915.915,0,0,0-.148-.115.058.058,0,0,0-.033-.016c-.049-.033-.115-.082-.164-.115a.229.229,0,0,0-.066-.049.016.016,0,0,1,.016.016l-.016-.016h-.017l-.066-.049a.825.825,0,0,1-.2-.132,2.322,2.322,0,0,1,.263.165c-.082-.049-.181-.115-.263-.165h0c-.017,0-.017-.016-.033-.016h.017c-.017,0-.017-.016-.033-.016h-.132c-.017,0-.033.016-.049.016a1.732,1.732,0,0,1,.181.115,3.464,3.464,0,0,1,.362.263.825.825,0,0,1,.132.115,2.087,2.087,0,0,1,.444.494,2.452,2.452,0,0,1,.411,1.235,2.2,2.2,0,0,1-.707,1.482l-.017.016a.355.355,0,0,1-.082.066,4.622,4.622,0,0,1-.592.445c-.033.016-.082.049-.115.066L34.544,91.977c-.1.049-.2.115-.313.165a8.885,8.885,0,0,1-1.053.412,8.745,8.745,0,0,1-2.8.313,9.151,9.151,0,0,1-2.731-.609,5.241,5.241,0,0,1-.526-.264L2.615,77.833c-1.464-.856-1.892-2.075-1.267-3.145.016-.016.016-.033.033-.049s.016-.033.033-.049a3.134,3.134,0,0,1,.724-.758,4.553,4.553,0,0,1,.461-.313H2.484a.057.057,0,0,0-.033.017.735.735,0,0,1-.115.066c-.033.016-.066.049-.1.066-.016.016-.049.033-.066.05H2.155c-.049.033-.115.082-.164.115a.894.894,0,0,1-.132.1.7.7,0,0,1-.115.083l-.214.2a3.664,3.664,0,0,0-.3.329h0c-.066.082-.132.181-.2.263a1.122,1.122,0,0,1-.1.148c0,.017-.016.017-.016.033L.9,75c-.033.05-.049.1-.082.148v.033a2.6,2.6,0,0,0-.148.379v.033c0,.017,0,.017-.016.033,0,.033-.016.049-.016.066h0c-.016.033-.016.066-.033.082v.033c-.033.1-.033.165-.049.2v.049c0,.05-.016.082-.016.132v.033c0,.05-.016.083-.016.115v.478a2.1,2.1,0,0,0,.016.329v.016c.016.115.033.231.049.313h0a.728.728,0,0,1,.033.165c0,.016.016.033.016.05a.929.929,0,0,0,.066.2.125.125,0,0,0,.033.066,3.109,3.109,0,0,0,.181.412.974.974,0,0,1,.066.132.726.726,0,0,1,.066.115c.033.05.049.082.082.132,0,.016.016.016.016.033a4.04,4.04,0,0,0,.461.527,2.4,2.4,0,0,0,.313.263c.082.066.181.132.28.2s.2.132.28.181c-.016-.017-.033-.017-.049-.033.016.016.033.033.049.033l2.451,1.416,2.451,1.416,2.451,1.416L12.288,85.6l2.451,1.416,2.451,1.416,2.451,1.416,2.451,1.416,2.451,1.416L26.994,94.1a.365.365,0,0,1,.082.05c.033.017.049.033.082.049h.016a.957.957,0,0,1,.132.066c.017.016.033.016.05.033l.049.017c.082.033.148.066.23.1l.066.033a1.181,1.181,0,0,0,.132.049c.066.033.132.05.2.082.017,0,.033.017.049.017l.033.017c.115.033.23.066.329.1h.017c.017,0,.049.017.066.017a1.972,1.972,0,0,1,.28.082h.082a8.813,8.813,0,0,0,3.668.082c.181-.033.345-.066.461-.1a3,3,0,0,0,.411-.115h.017c.115-.033.247-.082.362-.115l.362-.132a1.7,1.7,0,0,1,.165-.066c.049-.033.115-.049.164-.082.017-.016.05-.016.066-.033a3.329,3.329,0,0,0,.329-.181l4.655-2.717L44.2,88.634l4.655-2.717L53.51,83.2l4.655-2.717,4.655-2.717,4.655-2.717,4.655-2.717,4.655-2.717L81.442,66.9c.132-.082.247-.148.345-.214a.016.016,0,0,0,.017-.016c.082-.066.164-.115.247-.181a2.081,2.081,0,0,0,.2-.165l.017-.016.181-.181.016-.016.017-.016c.049-.049.1-.115.148-.165l.017-.016h0a2.734,2.734,0,0,0,.2-.263c.017-.033.049-.082.082-.148l.033-.049c.017-.033.033-.049.049-.082h0c0-.016.017-.033.017-.049a.016.016,0,0,1-.017.016l.05-.1a.016.016,0,0,1,.017-.016V65.2c.016-.049.049-.1.066-.165v-.016l.016-.033c.017-.066.05-.132.066-.2v-.033a.508.508,0,0,0,.033-.132v-.033a1.476,1.476,0,0,1,.049-.2.711.711,0,0,1,.017-.082l.017-.066a.06.06,0,0,1-.017.049v-.016l.017-.066V64.2c0-.049.017-.1.017-.148V63.87h0v-.247ZM35.021,93.508v0ZM2.171,79.347a.551.551,0,0,0,.049.247A.551.551,0,0,1,2.171,79.347ZM26.665,93.393a.879.879,0,0,0,.164.593A.879.879,0,0,1,26.665,93.393Zm.181.609.017.017A.016.016,0,0,1,26.846,94Z" transform="translate(3.97 -17.12)" fill="#0374e6"/>
      </g>
      <path id="Path_175" data-name="Path 175" d="M82.558,15.313c2.056,1.185,2.056,3.112.017,4.3C67.045,28.65,51.04,37.936,35.511,46.959a7.821,7.821,0,0,1-7.238-.247Q16.01,39.623,3.764,32.552c-2.056-1.186-2.073-3.112-.033-4.3,15.528-9.039,31.37-18.079,46.914-27.1a8.182,8.182,0,0,1,7.419,0Q70.3,8.216,82.558,15.313Z" transform="translate(-1.79 -0.263)" fill="#fff"/>
      <path id="Path_176" data-name="Path 176" d="M109.233,22.778,89.79,11.549a9.227,9.227,0,0,0-8.357,0l-35.416,20.6c-2.3,1.334-2.286,3.507.033,4.841L65.494,48.217a9.226,9.226,0,0,0,8.356,0l35.4-20.6C111.553,26.3,111.553,24.128,109.233,22.778Z" transform="translate(-33.351 -7.976)" fill="#0080ff"/>
      <path id="Path_177" data-name="Path 177" d="M65.871,143.13,60.442,140a1.322,1.322,0,0,0-1.168,0,.36.36,0,0,0,0,.675L64.7,143.8a1.322,1.322,0,0,0,1.168,0C66.2,143.607,66.183,143.311,65.871,143.13Z" transform="translate(-44.404 -104.947)" fill="#017efc"/>
    </g>
    <g id="Shape-4" data-name="Shape" transform="translate(60.07 7.785)" opacity="0.95">
      <path id="Path_183" data-name="Path 183" d="M12.484,6.953.58.21C.331.073.132.185.132.46a.968.968,0,0,0,.436.76l11.9,6.743c.249.137.448.025.448-.249A.94.94,0,0,0,12.484,6.953Z" transform="translate(-0.132 -0.152)" fill="#fff"/>
      <path id="Path_184" data-name="Path 184" d="M12.484,31.7.58,24.961c-.249-.137-.448-.025-.448.249a.968.968,0,0,0,.436.76l11.9,6.743c.249.137.448.025.448-.249A.94.94,0,0,0,12.484,31.7Z" transform="translate(-0.132 -20.216)" fill="#fff"/>
      <path id="Path_185" data-name="Path 185" d="M12.484,56.521.58,49.778c-.249-.137-.448-.025-.448.249a.968.968,0,0,0,.436.76l11.9,6.743c.249.137.448.025.448-.249A.906.906,0,0,0,12.484,56.521Z" transform="translate(-0.132 -40.334)" fill="#fff"/>
    </g>
    <g transform="matrix(1, 0, 0, 1, -4.5, -1.5)" filter="url(#Shape-2)">
      <path id="Shape-5" data-name="Shape" d="M194.062,18.934,162.67.786a2.03,2.03,0,0,0-3.051,1.757L159.544,26.9a2.027,2.027,0,0,0,1.021,1.77l31.393,18.148a2.03,2.03,0,0,0,3.051-1.758l.075-24.355A2.027,2.027,0,0,0,194.062,18.934Z" transform="translate(-125.43 0.99)" opacity="0.79" fill="url(#linear-gradient-2)"/>
    </g>
    <g id="Shape-6" data-name="Shape" transform="translate(15.715 0.006)" opacity="0.9">
      <g transform="matrix(1, 0, 0, 1, -20.22, -1.51)" filter="url(#Path_178)">
        <path id="Path_178-2" data-name="Path 178" d="M52.866,47.556,21.474,29.42a2.03,2.03,0,0,0-3.051,1.757l-.075,24.355a2.027,2.027,0,0,0,1.021,1.77L50.762,75.451a2.03,2.03,0,0,0,3.051-1.758l.075-24.355A2.089,2.089,0,0,0,52.866,47.556Z" transform="translate(5.34 -22.22)" fill="#fff"/>
      </g>
      <path id="Path_179" data-name="Path 179" d="M4.172,2.618.735.637C.336.412.012.587.012,1.048L0,5A1.62,1.62,0,0,0,.71,6.246L4.147,8.227c.4.224.722.05.722-.411l.012-3.951A1.62,1.62,0,0,0,4.172,2.618Z" transform="translate(0 -0.539)" opacity="0.8" fill="url(#linear-gradient-3)"/>
      <path id="Path_180" data-name="Path 180" d="M37.448,22.366l-3.437-1.982c-.4-.224-.722-.05-.722.411l-.012,3.951a1.62,1.62,0,0,0,.71,1.246l3.449,1.982c.4.224.722.05.722-.411l.012-3.951A1.6,1.6,0,0,0,37.448,22.366Z" transform="translate(-26.976 -16.548)" opacity="0.8" fill="url(#linear-gradient-4)"/>
      <path id="Path_181" data-name="Path 181" d="M7.621,12.027l.623-.361c.174-.1.174-.424,0-.723a.868.868,0,0,0-.311-.324.32.32,0,0,0-.311-.037L7,10.943,6.376,9.859a.868.868,0,0,0-.311-.324A.32.32,0,0,0,5.754,9.5c-.174.1-.174.424,0,.723L6.376,11.3l-.623.361c-.174.1-.174.424,0,.723a.868.868,0,0,0,.311.324.357.357,0,0,0,.311.037L7,12.389l.623,1.084a.868.868,0,0,0,.311.324.357.357,0,0,0,.311.037c.174-.1.174-.424,0-.723Z" transform="translate(-4.558 -7.78)" fill="#fff"/>
      <path id="Path_182" data-name="Path 182" d="M40.325,43.065l-2.391-1.384c-.249-.137-.448-.025-.448.249a.968.968,0,0,0,.436.76l2.4,1.4c.249.137.448.025.448-.249A.989.989,0,0,0,40.325,43.065Z" transform="translate(-30.388 -33.844)" fill="#fff"/>
      <path id="Shape-7" data-name="Shape" d="M232.685,116.242a1.981,1.981,0,0,0-.66-.7l-8.256-4.774a.57.57,0,0,0-.934.536l-.025,9.5a1.84,1.84,0,0,0,.274.922,1.981,1.981,0,0,0,.66.7L232,127.2a.57.57,0,0,0,.934-.536l.025-9.5A1.914,1.914,0,0,0,232.685,116.242Zm-.635,9.921c0,.025,0,.025-.013.037H232l-8.256-4.774-.037-.037a.093.093,0,0,1-.013-.05l.025-9.5a.045.045,0,0,1,.013-.037.023.023,0,0,1,.037,0l8.256,4.774.037.037a.094.094,0,0,1,.012.05Z" transform="translate(-196.934 -89.795)" opacity="0.66" fill="url(#linear-gradient-5)"/>
      <path id="Shape-8" data-name="Shape" d="M134.6,131.523a1.875,1.875,0,0,0-.66-.7h0L117.428,121.3h0a.648.648,0,0,0-.66-.062.658.658,0,0,0-.274.611l-.025,6.918a1.84,1.84,0,0,0,.274.922,1.877,1.877,0,0,0,.66.7h0l16.512,9.523h0a.648.648,0,0,0,.66.062.658.658,0,0,0,.274-.611l.025-6.918A1.839,1.839,0,0,0,134.6,131.523Zm-.635,7.329c0,.025,0,.025-.012.037h-.037L117.4,129.367l-.037-.037a.1.1,0,0,1-.012-.05l.025-6.917c0-.025,0-.025.012-.038h.037l16.512,9.523.037.037a.1.1,0,0,1,.012.05Z" transform="translate(-110.728 -98.333)" opacity="0.66" fill="url(#linear-gradient-5)"/>
      <path id="Shape-9" data-name="Shape" d="M131.781,78.046l-11.9-6.743c-.249-.137-.448-.025-.448.249a.968.968,0,0,0,.436.76l11.9,6.743c.249.137.448.025.448-.249A.94.94,0,0,0,131.781,78.046Z" transform="translate(-113.127 -57.857)" opacity="0.66" fill="url(#linear-gradient-5)"/>
      <path id="Shape-10" data-name="Shape" d="M158.481,119.912l-11.9-6.743c-.249-.137-.448-.025-.448.249a.968.968,0,0,0,.436.76l11.9,6.743c.249.137.448.025.448-.249A.988.988,0,0,0,158.481,119.912Z" transform="translate(-134.771 -91.795)" opacity="0.66" fill="url(#linear-gradient-5)"/>
    </g>
  </g>
</svg>
