<svg xmlns="http://www.w3.org/2000/svg" xmlns:xlink="http://www.w3.org/1999/xlink" viewBox="0 0 687.1 516.65"><defs><style>.cls-1{isolation:isolate;}.cls-17,.cls-2{fill:#517793;}.cls-2{opacity:0.15;}.cls-10,.cls-105,.cls-13,.cls-14,.cls-15,.cls-17,.cls-2,.cls-29,.cls-34,.cls-58,.cls-62,.cls-91{mix-blend-mode:multiply;}.cls-3{fill:url(#linear-gradient);}.cls-15,.cls-4{fill:#005600;}.cls-14,.cls-5{fill:#007500;}.cls-6{fill:#3bd33b;}.cls-7{fill:#048c04;}.cls-8{fill:#2a992f;}.cls-9{fill:#37bc37;}.cls-10{fill:#138913;}.cls-10,.cls-15,.cls-29{opacity:0.4;}.cls-11,.cls-13{fill:#007200;}.cls-12{fill:#44c644;}.cls-13,.cls-17,.cls-58{opacity:0.5;}.cls-14{opacity:0.3;}.cls-16{fill:#5e3601;}.cls-18{fill:#f5f5f8;stroke:#dddeea;stroke-width:1.34px;}.cls-18,.cls-25,.cls-45,.cls-81{stroke-miterlimit:10;}.cls-19,.cls-49,.cls-84{fill:#fff;}.cls-20{fill:#3fa9f5;}.cls-21{fill:#f065a6;}.cls-22{fill:#52e6c6;}.cls-23{fill:#f63;}.cls-24{fill:#e9f2f4;}.cls-25,.cls-45,.cls-81{fill:none;}.cls-25{stroke:#e9f2f4;stroke-width:5.89px;}.cls-26{fill:#421b01;}.cls-27{fill:#e0ac9b;}.cls-28{fill:#364469;}.cls-29{fill:url(#linear-gradient-2);}.cls-30{fill:#f2f2f2;}.cls-31{fill:#068762;}.cls-32{fill:#ccc;}.cls-33{fill:#cc9483;}.cls-34{fill:url(#linear-gradient-3);}.cls-35{fill:#51240b;}.cls-36{fill:#01b289;}.cls-37{fill:#1b1464;}.cls-38{fill:#2c2c7a;}.cls-39{fill:#e6e6e6;}.cls-40{fill:#5b250e;}.cls-41{fill:#873f26;}.cls-42{fill:#edeef4;}.cls-43{fill:#c8cbd6;}.cls-44{fill:#dfe1e8;}.cls-45{stroke:#3fa9f5;stroke-width:1.23px;}.cls-46{fill:#700000;}.cls-47{fill:#d4d5d6;}.cls-48{fill:#900;}.cls-49{opacity:0.42;}.cls-50{fill:url(#linear-gradient-4);}.cls-51{fill:#0d2263;}.cls-52{fill:url(#linear-gradient-5);}.cls-53{fill:url(#linear-gradient-6);}.cls-54{fill:#4a75dd;}.cls-55{fill:url(#linear-gradient-7);}.cls-56{fill:#1f3e93;}.cls-57{fill:#a380b7;}.cls-58{fill:url(#linear-gradient-8);}.cls-59{fill:#cae8ff;}.cls-60{fill:#d19780;}.cls-61{fill:#f9c8bb;}.cls-62{fill:url(#linear-gradient-9);}.cls-63{fill:#e34932;}.cls-64{fill:#7aa7d6;}.cls-65{fill:#96c3f2;}.cls-66{fill:#26282d;}.cls-67{fill:#493e38;}.cls-68{fill:#5b524d;}.cls-69{fill:#42210b;}.cls-70{fill:#8c6239;}.cls-71{fill:#badce8;}.cls-72{fill:#eacb93;}.cls-73{fill:#14121b;}.cls-74{fill:#59e7c8;}.cls-75{fill:#28afa7;}.cls-76{fill:#2a637a;}.cls-77{fill:#004f5b;}.cls-78{fill:#7aacad;}.cls-79{fill:#095259;}.cls-80{fill:url(#linear-gradient-10);}.cls-81{stroke:#a24602;stroke-width:2.81px;}.cls-82{fill:url(#linear-gradient-11);}.cls-83{fill:url(#linear-gradient-12);}.cls-84{opacity:0.57;}.cls-85{fill:#045d6e;}.cls-86{fill:#00788f;}.cls-87{fill:url(#linear-gradient-13);}.cls-88{fill:url(#linear-gradient-14);}.cls-89{fill:url(#linear-gradient-15);}.cls-90{fill:#bdd8d7;}.cls-91,.cls-97{fill:#e0f7f7;}.cls-92{fill:#dbad6b;}.cls-93{fill:#471500;}.cls-94{fill:#eac386;}.cls-95{fill:#551800;}.cls-96{fill:#6b1900;}.cls-98{fill:#5ebc78;}.cls-99{fill:#50a56a;}.cls-100{fill:#eae3d6;}.cls-101{fill:#102f41;}.cls-102{fill:#dac18e;}.cls-103{fill:#001b2c;}.cls-104{fill:#00364c;}.cls-106{fill:#5202b5;}.cls-107{fill:url(#linear-gradient-16);}.cls-108{fill:url(#linear-gradient-17);}.cls-109{fill:url(#linear-gradient-18);}.cls-110{fill:url(#linear-gradient-19);}</style><linearGradient id="linear-gradient" x1="38.35" y1="187.15" x2="687.1" y2="187.15" gradientUnits="userSpaceOnUse"><stop offset="0" stop-color="#0080ff"/><stop offset="0.28" stop-color="#017dfb"/><stop offset="0.55" stop-color="#0373f0"/><stop offset="0.8" stop-color="#0663dd"/><stop offset="1" stop-color="#0a52c9"/></linearGradient><linearGradient id="linear-gradient-2" x1="774.12" y1="-172.48" x2="747.12" y2="-170.73" gradientTransform="matrix(-0.68, 0.44, 0.42, 0.66, 857.85, -9.77)" gradientUnits="userSpaceOnUse"><stop offset="0.21" stop-color="#fff"/><stop offset="0.22" stop-color="#fbfbfb"/><stop offset="0.31" stop-color="#bababa"/><stop offset="0.39" stop-color="#818181"/><stop offset="0.48" stop-color="#535353"/><stop offset="0.56" stop-color="#2f2f2f"/><stop offset="0.63" stop-color="#151515"/><stop offset="0.69" stop-color="#050505"/><stop offset="0.75"/></linearGradient><linearGradient id="linear-gradient-3" x1="194.74" y1="185.37" x2="227.84" y2="162.52" gradientUnits="userSpaceOnUse"><stop offset="0" stop-color="#fff"/><stop offset="0.52" stop-color="#c6c0b9"/></linearGradient><linearGradient id="linear-gradient-4" x1="-90.51" y1="492.62" x2="24.8" y2="492.62" gradientTransform="matrix(-1, 0, 0, 1, 164.32, 0)" gradientUnits="userSpaceOnUse"><stop offset="0" stop-color="#d4d5d6"/><stop offset="0.03" stop-color="#dadbdc"/><stop offset="0.14" stop-color="#ebebeb"/><stop offset="0.28" stop-color="#f6f7f7"/><stop offset="0.47" stop-color="#fdfdfd"/><stop offset="1" stop-color="#fff"/></linearGradient><linearGradient id="linear-gradient-5" x1="-98.7" y1="477.79" x2="16.61" y2="477.79" xlink:href="#linear-gradient-4"/><linearGradient id="linear-gradient-6" x1="-84.21" y1="467.95" x2="31.1" y2="467.95" xlink:href="#linear-gradient-4"/><linearGradient id="linear-gradient-7" x1="-91.14" y1="458.11" x2="24.17" y2="458.11" gradientTransform="matrix(-1, 0, 0, 1, 164.32, 0)" gradientUnits="userSpaceOnUse"><stop offset="0" stop-color="#d4d5d6"/><stop offset="0.16" stop-color="#e6e7e8"/><stop offset="0.35" stop-color="#f4f5f5"/><stop offset="0.59" stop-color="#fdfdfd"/><stop offset="1" stop-color="#fff"/></linearGradient><linearGradient id="linear-gradient-8" x1="-27.7" y1="484.2" x2="66" y2="447.72" gradientTransform="matrix(-1, 0, 0, 1, 164.32, 0)" gradientUnits="userSpaceOnUse"><stop offset="0.1" stop-color="#fff"/><stop offset="0.2" stop-color="#fafafa"/><stop offset="0.31" stop-color="#ebebeb"/><stop offset="0.43" stop-color="#d3d3d3"/><stop offset="0.55" stop-color="#b1b1b1"/><stop offset="0.69" stop-color="#858585"/><stop offset="0.82" stop-color="#505050"/><stop offset="0.96" stop-color="#121212"/><stop offset="1"/></linearGradient><linearGradient id="linear-gradient-9" x1="214.32" y1="331.32" x2="217.25" y2="311.45" gradientTransform="translate(51.92 -20.52) rotate(7.09)" gradientUnits="userSpaceOnUse"><stop offset="0" stop-color="#fff"/><stop offset="0.13" stop-color="#fbfafa"/><stop offset="0.29" stop-color="#eeebea"/><stop offset="0.47" stop-color="#d9d2d0"/><stop offset="0.66" stop-color="#bcb0ac"/><stop offset="0.71" stop-color="#b3a6a1"/></linearGradient><linearGradient id="linear-gradient-10" x1="93.99" y1="152.6" x2="125.66" y2="86.31" gradientTransform="translate(-12.15 22.51) rotate(-23.01)" gradientUnits="userSpaceOnUse"><stop offset="0" stop-color="#fd9c00"/><stop offset="0.55" stop-color="#fdc600"/><stop offset="1" stop-color="#fde400"/></linearGradient><linearGradient id="linear-gradient-11" x1="87.03" y1="165.68" x2="115.39" y2="108.64" gradientTransform="translate(-12.15 22.51) rotate(-23.01)" gradientUnits="userSpaceOnUse"><stop offset="0" stop-color="#d37512"/><stop offset="1" stop-color="#d37512" stop-opacity="0"/></linearGradient><linearGradient id="linear-gradient-12" x1="106.8" y1="191.07" x2="78.11" y2="223.89" gradientTransform="translate(222.78 -150.2) rotate(42.24)" gradientUnits="userSpaceOnUse"><stop offset="0" stop-color="#fff"/><stop offset="1" stop-color="#fff" stop-opacity="0"/></linearGradient><linearGradient id="linear-gradient-13" x1="97.46" y1="157.68" x2="133.24" y2="157.68" gradientTransform="translate(40.31 -35.12)" gradientUnits="userSpaceOnUse"><stop offset="0" stop-color="#46cee0"/><stop offset="1" stop-color="#c9e8fb"/></linearGradient><linearGradient id="linear-gradient-14" x1="99.2" y1="167.24" x2="131.5" y2="167.24" gradientTransform="translate(44.05 -35.88)" xlink:href="#linear-gradient-13"/><linearGradient id="linear-gradient-15" x1="105.67" y1="176.95" x2="125.57" y2="176.95" gradientTransform="translate(-12.15 22.51) rotate(-23.01)" xlink:href="#linear-gradient-13"/><linearGradient id="linear-gradient-16" x1="13.25" y1="202.77" x2="42.27" y2="202.77" xlink:href="#linear-gradient"/><linearGradient id="linear-gradient-17" x1="549.47" y1="42.54" x2="578.49" y2="42.54" xlink:href="#linear-gradient"/><linearGradient id="linear-gradient-18" x1="0" y1="171.82" x2="17.88" y2="171.82" xlink:href="#linear-gradient"/><linearGradient id="linear-gradient-19" x1="582.04" y1="14.08" x2="599.92" y2="14.08" xlink:href="#linear-gradient"/></defs><title>workflow-p2</title><g class="cls-1"><g id="Layer_2" data-name="Layer 2"><g id="Isolation_Mode" data-name="Isolation Mode"><ellipse class="cls-2" cx="344.18" cy="386.47" rx="299.35" ry="18.17"/><path class="cls-2" d="M35.89,469.39s-67.12,1.69-9.22,16.17C36.58,488,46.49,493,69.61,508.68c33.75,22.91,163.14-10.84,163.14-10.84Z"/><ellipse class="cls-2" cx="618.76" cy="433.95" rx="41.29" ry="7.84"/><ellipse class="cls-2" cx="268.21" cy="502.08" rx="37.57" ry="6.61"/><ellipse class="cls-2" cx="451.95" cy="502.08" rx="85.06" ry="12.39"/><path class="cls-3" d="M143.8,374.3S42.46,334.4,40.25,266.71c-2-61.86,49.15-57,60.51-82C120.94,140.3,53,125.51,40.25,85.84,28.76,50.17,70.16-5.53,147.16.44c78,6.06,142.55,83.38,187.6,90.11S440.33,15.24,527.07,46.84c55.42,20.19,87.29,84.25,43.31,174.59S683.74,327.9,687.1,373Z"/><ellipse class="cls-2" cx="106.84" cy="375.25" rx="34.75" ry="5.1"/><path class="cls-4" d="M79.31,300.24l.47.18a6.62,6.62,0,0,1-1,.35A.6.6,0,0,1,79.31,300.24Z"/><path class="cls-4" d="M62,301.57c2.83,1.42,4.52,1.57,7.58,1.72,2.55.11,5.47.26,7.33,2.2,1.47,1.52,1.67,4.09,3.42,5.32,1.13.78,3.59.88,4.71,2.06a12.4,12.4,0,0,0,.56,1.7,2.07,2.07,0,0,0-.56-1.7c-1.15-4-2.89-12.22-4.9-12.35l-.32-.1A29.62,29.62,0,0,1,84,298.57c-1.89,3,2.32,9.69,2.93,12.95,1,5,.33,10.1-3.15,13.84-6.2,6.65-14.82,2.67-21.31-1.59-3.68-2.42-5.17-5-7.92-8.07-1.12-1.25-2.55-2-3.68-3.32-.84-1-1.54-2.86-2.59-3.58-2.26-1.59-4.21,1-6.62.57a5.54,5.54,0,0,1-3.38-2.53v-10.6C46.42,295.5,54.64,297.87,62,301.57Z"/><path class="cls-4" d="M85,312.87a2.07,2.07,0,0,1,.56,1.7A12.4,12.4,0,0,1,85,312.87Z"/><path class="cls-5" d="M99.18,309c1.48-3.36,4-6,5.59-9.25,1-2.19,1-4.9,2.14-7,1.36-2.54,5.07-3.73,7.08-5.83s4.87-6.57,8-6.31c3.8.3,7.77,5.16,9.9,8.07,1.91,2.67,6.13,7.49,5.78,11.07-2.75-.37-5.57-4.59-8.21-5.87a26.69,26.69,0,0,0-5.08-2.17c-2.55-.64-3.82,3.83-4.28,6.41-.69,3.93-.37,7.91-2.09,11.44-1.06,2.17-2.55,3.7-3.83,5.74-1.08,1.76-2.42,2.71-3.24,4.66-1.39,3.39-1.3,7.34-2.66,10.77A32.77,32.77,0,0,1,101.8,341a14.06,14.06,0,0,0-2.68,3.65H91.86c-1-3.09-.57-7.11-.43-10.13C91.83,325.83,95.71,316.86,99.18,309Z"/><path class="cls-6" d="M97.5,276.93c1.39.9,2.15,2.32,3.69,2.9.85.31,3.66.73,3.43,1.93h-.52c-.28-1.39-1.91-.43-2.68-.13-1,.38-2.33.34-3.27.91.16-1.71-1.28-3.26-2.13-4.49C94.7,276.13,96,275.93,97.5,276.93Z"/><path class="cls-7" d="M51.35,242.44l-.26-.41c1.15-.2,1.63.76,2.36,1.53A25.64,25.64,0,0,0,57,246.17a59.93,59.93,0,0,1,8.58,6.63c4.7,4.66,8.19,10.41,13.07,14.86,2,1.8,2.5,4.64,3.9,6.81s3.06,3.81,4.53,5.75a10.09,10.09,0,0,1,2.49,5.68c.18,2.54-1.22,3.64-2.76,5.24-1,1.05-1.64,3.87-3.17,3.87-2,0-3.23-4.91-4.05-6.46-3.08-5.8-5.14-12.21-8.74-17.68A174.5,174.5,0,0,0,59,254.71c-1.57-1.86-3-3.88-4.51-5.78-1-1.27-2.42-2.19-3.4-3.46a4.23,4.23,0,0,1-1-2.07C50.21,242.73,50.92,241.79,51.35,242.44Z"/><path class="cls-8" d="M96.84,276.79a2.32,2.32,0,0,1,.71.25Z"/><path class="cls-9" d="M86.56,288c.32-2,.34-3.84,1.17-5.76,1-2.27,2.59-4.84,5.06-5.54,1.4-.4,3.69-.68,4.84.41l-.08,0a2.32,2.32,0,0,0-.71-.25,2.32,2.32,0,0,1,.71.25c1,.57,1.86,1.95,3,2.35s3.42.27,4,1.53c.32.69-.28.87-.28,1.28,0,.95.23.81.64,1.52a9.79,9.79,0,0,1,1.32,3.94c.56,4.94.44,9.85-2.51,14-.86,1.21-1.81,2.5-1.15,4.1s2.14,2.56,2.69,4.42c1.28,4.22,1.22,13.24-3.62,15.17-4,1.59-5-5-8.87-4.41-2.77.43-5.32,5.74-6.83.41-.67-2.37.66-4.41.5-6.63-.07-1.16-.89-2.21-1.31-3.31a26,26,0,0,1-1.06-4c-1-4.77-1.19-9.18.53-13.83A31.25,31.25,0,0,0,86.56,288Z"/><path class="cls-10" d="M98.3,282.7c0-.13,0-.23,0-.34a.11.11,0,0,0,0-.05Z"/><path class="cls-10" d="M89.33,279.55c1.11-1.6,3.78-3.71,5.79-3.16,1,.26,1.41,2,2,3a6.41,6.41,0,0,1,1.15,2.93c-1.88,3.17-2.79,8.29-3.11,12-.4,4.72-.7,9.4-.7,14.13,0,4.08-.39,9.52,1.08,13.24-1.71-1.53-4.68-.52-6.21.78-.84.69-1.45,1.69-2.65.94s-1.19-2.5-1.08-3.64c.14-1.42,1.18-2.52,1.18-4s-1-3.08-1.51-4.56a30.31,30.31,0,0,1-1.74-9.79c0-5.44,3.42-9.59,3.69-14.91A11.61,11.61,0,0,1,89.33,279.55Z"/><path class="cls-11" d="M51,242.73a5.48,5.48,0,0,0,1.84,3,41.36,41.36,0,0,1,2.74,3.65c1.35,1.72,3.18,3,4.59,4.69a124.74,124.74,0,0,1,10.06,14.6c2.9,4.63,4.85,10,7,15,.91,2.18,1.46,4.55,2.66,6.63s2.69,3.78,4,5.65l.39-1c.1.13.2.09.23.24-1.12,2.28-2.58,4.94-5.24,5.59-4.73,1.15-9.35-2.59-11.87-6.34a15.26,15.26,0,0,1-2.11-8c0-3.36-1.39-5.26-2.93-8.1a11.92,11.92,0,0,1-1.83-4.06c-.15-1.24.33-2.49.12-3.75-.37-2.26-2.76-3.81-2.89-6,0-.83.5-1.59.25-2.45a13.83,13.83,0,0,0-1.39-2.32c-1-1.92-1.63-4.26-2.79-6.09-1.32-2-2.88-3.74-3.58-6.18C49.8,246.32,49.33,243.24,51,242.73Z"/><path class="cls-9" d="M56.33,247.82c1.21,1.27,1.62,3.11,2.76,4.41,2.54,2.89,5.21,5.44,7.42,8.67a66.47,66.47,0,0,1,7,12.47,126.32,126.32,0,0,0,5.24,12.09c.84,1.54,1.68,3,2.66,4.44s1.57,3,2.61,1a24.33,24.33,0,0,0,1.89-5.35c.33-1.43.63-3.41,2.09-4.12.09,1.51-.64,3.35-.75,4.93a15.25,15.25,0,0,1-1,4.51c-.74,2-1.13,4.33-2.3,6.13a11.23,11.23,0,0,1-4.26,3.87c-1.44.68-5.24.55-6.18-1,2.21-.4,4.09.64,6.32-.72,2-1.25,2.12-3,1.2-5-2.16-4.75-4.79-9-6.44-14a76.77,76.77,0,0,0-12.4-22.35c-2.25-2.91-4.68-5.53-6.77-8.55-.73-1.06-4.77-4.58-3.89-6.22C52.8,245,54.72,246.14,56.33,247.82Z"/><path class="cls-12" d="M51.53,243l-.18-.27h.39A1.09,1.09,0,0,0,51.53,243Z"/><path class="cls-11" d="M54.53,294.75a13.33,13.33,0,0,0,3.93,2.74c2.77,1.41,3.76,2.95,4.39,6,.67,3.27,1.28,5.65,3.44,8.21C69,315,71.94,318,74.44,321.5a64.84,64.84,0,0,1,3.8,7c.94,1.75,2.59,2.94,3.61,4.58.75,1.24,2.73,5.06,1,6.22-.1,0-.11-.05-.11-.09A1.5,1.5,0,0,1,83,339h-.27c.06.07,0,.14,0,.19-.64.53-1,1.35-1.73,1.84a4.47,4.47,0,0,1-4.47.32c-2.47-1.1-3.28-2.93-4.19-5.29-1-2.62-3.59-3.59-5.33-5.61a48.6,48.6,0,0,1-5.4-8.53c-1.32-2.41-2.79-5.2-3.17-8-.25-1.9-.21-3.9-.39-5.79a27.63,27.63,0,0,0-.66-4.73c-.57-2-1.68-2.37-3.13-3.6s-4.52-7.17-2.41-8.71C52.9,292,53.52,293.69,54.53,294.75Z"/><path class="cls-11" d="M83,339a1.5,1.5,0,0,0-.25.19s0-.12,0-.19Z"/><path class="cls-8" d="M53.26,286.79l-.6-.75C52.82,286.08,53,286.38,53.26,286.79Z"/><path class="cls-9" d="M50.94,280.35c.34-.24.71-.46,1-.65a10.25,10.25,0,0,0-.1,4.27c.27,1,1.35,1.88,1.45,2.9l-.06-.08c-.23-.41-.44-.71-.6-.75l.6.75a18.07,18.07,0,0,0,.9,1.59,20.27,20.27,0,0,0,3.27,3.34A24.1,24.1,0,0,1,61.5,296c1,1.47,1.49,3.17,2.53,4.59,1.87,2.59,4.62,4.27,6.6,6.77,1.24,1.55,2.19,3.38,3.78,4.55a12.36,12.36,0,0,0,4,1.43,15.25,15.25,0,0,1,5.35,2.94c2.82,2.37,3.6,6,5.69,8.86,2,2.67,4,7.58,3,11A6.5,6.5,0,0,1,88,340.24c-2.76.56-5.26-1.9-6.94-3.86-2.15-2.54-3.73-5.51-5.91-8-1.61-1.84-4-2.58-5.54-4.44a15.1,15.1,0,0,1-3-7.85c-.29-2.18-.47-3.82-2.6-4.51-2.63-.85-1.43-.92-2.11-3.32-.41-1.41-2.16-1-2.52-2.82-.31-1.6.51-3.21-.09-4.82-.86-2.32-3.07-2.59-4.92-3.69A9.59,9.59,0,0,1,50,292.28c-.55-1.49-.88-3.11-1.39-4.59A7.27,7.27,0,0,1,50.94,280.35Z"/><path class="cls-11" d="M90,284a11.93,11.93,0,0,0,.36,1.81A6.52,6.52,0,0,1,90,284Z"/><path class="cls-11" d="M90,283.32a5.1,5.1,0,0,0,0,.67A3.14,3.14,0,0,1,90,283.32Z"/><path class="cls-11" d="M98.15,282.18a.83.83,0,0,1-.13.34s0,0,0-.07Z"/><path class="cls-11" d="M93.78,318.46c.12-1.88-.17-3.77-.08-5.66.11-2.13-.65-2.26-2-3.86a21.36,21.36,0,0,1-3.52-6.2,16.78,16.78,0,0,1-1.58-5.8c.13,2.63,2.57,5.66,3.8,7.69,1.07,1.8,2.13,4.09,3.68,5.41.25-2.49-.26-5.44-.38-8-1.66-.31-3.06-4.39-3.68-5.82-.85-2-2-4.31-1.84-6.58.87,4.18,3.26,7.69,5.5,11,.26-1.45,0-2.92.19-4.38a28.62,28.62,0,0,0,.75-3c-1.53,0-3.43-4.38-4.22-7.44A17.52,17.52,0,0,0,95,292.24c0-1,0-2.06.14-3.06.13-.8,1-2.16.9-2.89-.08-1.14-1.87-3.14-2.24-4.53-.27-1-.82-3.36-.13-4.13.61,2.85,1.25,5.72,3.19,7.95a4.42,4.42,0,0,1,.16-1.86c.24-.52.76-.71,1-1.2-.08,2.08-1.44,4.41-2,6.42a31.4,31.4,0,0,0-.93,6.9c-.11,3.27-.52,6.45-.52,9.79,0,5.08-.48,10.62.27,15.55-.08-1.59-1.94-1.24-2.79-2-.43-.42-.43-1-.67-1.53a8.37,8.37,0,0,0-1.73-2.35,21,21,0,0,1-4.54-8.41c1.75,2.44,3.5,5,5.09,7.56C91.24,316,92.08,317.6,93.78,318.46Z"/><path class="cls-11" d="M86.56,296.43a4.34,4.34,0,0,0,0,.51A4.34,4.34,0,0,1,86.56,296.43Z"/><path class="cls-13" d="M73.62,311.16a2.82,2.82,0,0,0,1.46,1,22.57,22.57,0,0,0,3,1c2.31.74,5.17,1.9,6.88,3.83,3.57,4,7.28,10.77,7.81,16.29a6.21,6.21,0,0,1-6.33,6.6,7.88,7.88,0,0,1-2.77-.44c-1.52-.58-.74-.79-1.5.43-1.57,2.51-3.65,2.25-6.29,1.38.74-2.21,5.63-.93,3.25-4.53-1.08-1.63-4.49-4.88-4-7,1.12.59,2.14,2.49,3.17,3.41,1.42,1.27,1.42,1.34,2.34,0,2.41-3.32,2-7.84.14-11.44-1.7-3.45-5.3-4.16-7.22-7.17-.43-.68-.58-3.7-1-5C73.1,309.84,73.19,310.61,73.62,311.16Z"/><path class="cls-13" d="M72.54,309.5a1.14,1.14,0,0,0-.37-.15l-.13-.41C72.25,308.87,72.4,309.1,72.54,309.5Z"/><path class="cls-13" d="M69.27,291.43A8,8,0,0,0,76.92,293c4.07-1.57,3.83-7.49,3.83-11.17a48.15,48.15,0,0,0-.78-8.8c-.22-1.13-.58-4.12-1.46-4.83l-.26-.4c2.46.64,3.25,4.4,4.31,6.5a21,21,0,0,0,4.37,5.53c1.49,1.5.67,4.35.39,6.31a72,72,0,0,1-1.55,7c-1.2,4.81-5.44,8.83-10.32,7.14-4.15-1.46-11.52-7.23-8.94-12.66C67.56,288.66,68.12,290.39,69.27,291.43Z"/><path class="cls-13" d="M88.25,282.45c-.21,0,0-.16-.11-.27l-.26-.7h.05A3.2,3.2,0,0,1,88.25,282.45Z"/><path class="cls-13" d="M80.92,298.84c2.34-1.85.18-3.1.51-5.48.5.55,1,1.68,2,1.37s.46-1,.65-1.79a21.26,21.26,0,0,1,1.06-2.22c.26-.69.38-1.48.68-2.23a7,7,0,0,0,.4-5.05,25,25,0,0,1-1.07-4.69c.92,0,2.23,1.52,2.81,2.73h-.05l.26.7c.08.11-.1.23.11.27a3.2,3.2,0,0,0-.32-1,1.16,1.16,0,0,1,.32,0c.45,1.52-.3,2.38-.64,3.73-.28,1.09.14,2.35-.13,3.42s-1.16,2.21-1.45,3.44a26.15,26.15,0,0,1-1,3.6c-.73,1.95-2.06,4-4,4.73-1.7.64-6,1.16-7.37-.47C76.33,299.93,78.57,300.69,80.92,298.84Z"/><path class="cls-9" d="M65.24,228.6c1.83.08,2.63,1.49,3.86,2.54a23,23,0,0,1,3.66,3.16c.5.62.9,1.48,1.44,2s1.31.69,1.72,1.12c.67.76.47,1.8.91,2.56.34.57,1,.74,1.42,1.29.64.85.52,1.91,1,2.75s1.21.83,1.65,1.47a29.77,29.77,0,0,1,1.92,3.83c.8,1.64,1.88,3,2.66,4.6.9,1.91.84,3.29,2.11,5a22.84,22.84,0,0,1,2.94,6.62c1.46,4.67,1.3,8.25.22,12.88l.35-.91a2.36,2.36,0,0,0,.46,0,17.46,17.46,0,0,0-2.26,3.88c-.4,1.21-.42,3.44-1.9,4-2.85,1.1-6.94-4.28-8.27-6.22-5.2-7.53-7.11-17.28-10.24-25.89-.77-2.09-1.68-3.93-2.55-5.94-.76-1.76-.72-3.76-1.39-5.52-.89-2.3-2-3-2.17-5.57a20.38,20.38,0,0,0-.39-3.48c-.12-.5-.92-1.73-.85-2.18C61.73,229.35,64.16,228.53,65.24,228.6Z"/><path class="cls-14" d="M64.88,230.8l-1.23-.73a1.49,1.49,0,0,1,1.11.36A2,2,0,0,1,64.88,230.8Z"/><path class="cls-14" d="M64.76,230.43a1.49,1.49,0,0,0-1.11-.36l1.23.73a2,2,0,0,0-.12-.37c1.87,1.28,4.27,5.54,5,6.77a87.26,87.26,0,0,1,5.31,10.48,142,142,0,0,1,6.45,17.52c1.11,4.15,2.55,8.17,3.6,12.34.63,2.43,2.21,5.38,1.88,7.87-3.23.75-7.62-6.93-9.16-9.34-2.46-3.87-3.79-8.32-5.2-12.71a77.68,77.68,0,0,0-3.21-9c-.75-1.69-1-3.45-1.7-5.15a26.08,26.08,0,0,1-1.59-4.1c-.33-1.75-.26-2.56-1.15-4.15a9.81,9.81,0,0,1-1.53-4.08,19.92,19.92,0,0,0-.85-4.24C62.12,230.79,64.1,228.75,64.76,230.43Z"/><path class="cls-13" d="M101,326.48c1.59-1.61,3.31-1.93,4.75-3.88a10.87,10.87,0,0,0,2.3-6.35c.07-2.3-1.44-5.08-1.07-7.19.43-2.33,3.47-3.73,4.25-6.06s0-4.65,1.25-6.88,3.53-3.75,5.13-5.8,3.34-4.06,6-4.14c3.67-.13,14.91,9.38,13.18,12.7v-.29c-1,.79-8.15-5.57-10.3-6.55-5.77-2.64-5.67,3.32-6.3,7.72-.66,4.66-1.62,10.48-4.29,14.51s-5.47,5.8-6.22,11.09c-.79,5.55-2,9.67-6.06,13.51a20.2,20.2,0,0,0-4.3,5,6.53,6.53,0,0,0-.33.85H95.86a30.43,30.43,0,0,1,1.3-10.49C97.92,331.75,99.2,328.29,101,326.48Z"/><path class="cls-15" d="M56.36,303l-.27-.26c0,1.88-.36,5.48-.27,8.06.1,2.29,1.08,4.34,1.07,6.48-.58-1.62-2.36-2.57-3-4-.71-1.61-.17-1.86.31-3.94.4-1.65,1.3-8.93-1.54-8.22-.45,2.3.3,5.77-1.59,7.36-.12-2.19,1.09-8-.46-9.53C53.91,299.6,57.13,300.72,56.36,303Z"/><path class="cls-15" d="M45,298.05c.79.22,3.12.43,5.45.88-3.13,3.07-1.55,7.72-6.15,10.11,2.08-2.05,3.41-6.63,3-9.58-3.63-.27-5.41,6.94-5.3,9.81-1.79-4.26,1.27-7,1.6-10.92-3.71,1.09-5.5,5.15-4.48,9a6.1,6.1,0,0,1-.94-2V302.4a20.15,20.15,0,0,0,.94-4.58,3.53,3.53,0,0,0-.94.16v-.56A20.49,20.49,0,0,1,45,298.05Z"/><path class="cls-15" d="M50.66,299l-.18,0a.55.55,0,0,0,.07-.09A1.31,1.31,0,0,0,50.66,299Z"/><path class="cls-13" d="M97.78,282.27a46.29,46.29,0,0,1,6.32-.79c-.92,2.37.59,3.32,1.52,5.27a11.25,11.25,0,0,1,.79,6c-.88-3.15-1.57-6.94-5.49-7.36-4.1-.44-4.19,3.58-5.47,6.33a36.22,36.22,0,0,0-.84-6.61c-.59-1.89-3.59-3.32-3.44-5.24C91.56,274.79,99.75,278.09,97.78,282.27Z"/><path class="cls-9" d="M114.65,314.88c2-3.05,3.41-5.51,6.91-6.84,5.93-2.25,13.63-5.67,20-5.32a11.26,11.26,0,0,0,4.22-.48c1.09-.27,4.41-1.68,4.23.78-.11,1.14-5.26,3.53-6.33,4.41-2.83,2.32-3.78,4.54-4,8.2-.25,4.9.25,11.68-6.07,11.66-2.14,0-4.29-1.91-6.34-1.38s-4.12,4.16-5.27,6c-2.68,4.26-5.25,8.89-8.55,12.78H94.88c1-5,4.38-10,6.77-14C105.3,324.54,110.83,320.65,114.65,314.88Z"/><path class="cls-13" d="M149.73,303.29h-.06c0-.05.08-.08.1-.12Z"/><path class="cls-13" d="M111.47,328.61a31,31,0,0,1,8.44-9.94A75.06,75.06,0,0,1,135,309.08c4.48-2.1,9.52-6.23,14.69-5.79-1,.8-2.63.88-3.92,1.37-1.77.67-3.45,1.8-5.26,2.71-4.26,2.13-8.47,3.38-12.33,6.46a151.8,151.8,0,0,0-11.41,10.42c-4.55,4.49-4.18,10.28-7.44,15.49-.61,1-2.33,3-3.68,4.95H100.9c1.95-2.61,4.54-4.72,6.62-7.2C109.76,334.85,109.93,331.69,111.47,328.61Z"/><path class="cls-13" d="M149.77,303.17l.75-1.54A2.29,2.29,0,0,1,149.77,303.17Z"/><path class="cls-13" d="M114.38,315.7l.27-.56c-1.84,4.15-4.76,11.14-1.58,15.4,1.72,2.32,6.13,4,8.74,2.65-2.64,3.74-5.26,7.95-8.34,11.5H94.8c1.91-6.68,8.09-15.62,9.77-17.95C107.54,322.6,111,319.53,114.38,315.7Z"/><path class="cls-16" d="M71.38,338.88h48.75a1.45,1.45,0,1,1,0,2.87h-.71v7.53c0,11.37-5.27,21.2-13,26.08H84.49c-7.71-4.88-13-14.71-13-26.08v-7.53h-.12a1.45,1.45,0,1,1,0-2.87Z"/><path class="cls-17" d="M119.83,338.88h-8.67c-2,10.35-10,17.36-19.94,20.59a100.55,100.55,0,0,1-16.53,3.58h-.11a27.39,27.39,0,0,0,10.19,12.3H106.7c7.72-4.88,13-14.71,13-26.08v-7.53h.12a1.45,1.45,0,1,0,0-2.87Z"/><path class="cls-17" d="M70.6,340.32h49.75a.75.75,0,0,1,0,1.5H70.6a.75.75,0,0,1,0-1.5Z"/><ellipse class="cls-2" cx="631.99" cy="375.25" rx="34.75" ry="5.1"/><path class="cls-4" d="M634.59,300.24l-.47.18a6.62,6.62,0,0,0,1,.35A.6.6,0,0,0,634.59,300.24Z"/><path class="cls-4" d="M651.94,301.57c-2.83,1.42-4.52,1.57-7.58,1.72-2.55.11-5.47.26-7.33,2.2-1.47,1.52-1.68,4.09-3.42,5.32-1.13.78-3.59.88-4.71,2.06a12.4,12.4,0,0,1-.56,1.7,2,2,0,0,1,.56-1.7c1.15-4,2.89-12.22,4.9-12.35l.32-.1a29.62,29.62,0,0,0-4.17-1.85c1.89,3-2.33,9.69-2.94,12.95-1,5-.32,10.1,3.16,13.84,6.2,6.65,14.81,2.67,21.31-1.59,3.68-2.42,5.17-5,7.92-8.07,1.12-1.25,2.54-2,3.67-3.32.85-1,1.55-2.86,2.6-3.58,2.26-1.59,4.21,1,6.62.57a5.6,5.6,0,0,0,3.38-2.53v-10.6C667.48,295.5,659.26,297.87,651.94,301.57Z"/><path class="cls-4" d="M628.9,312.87a2,2,0,0,0-.56,1.7A12.4,12.4,0,0,0,628.9,312.87Z"/><path class="cls-5" d="M614.71,309c-1.47-3.36-4-6-5.58-9.25-1-2.19-1-4.9-2.14-7-1.37-2.54-5.07-3.73-7.08-5.83s-4.87-6.57-8-6.31c-3.8.3-7.77,5.16-9.9,8.07-1.92,2.67-6.13,7.49-5.78,11.07,2.75-.37,5.57-4.59,8.21-5.87a26.88,26.88,0,0,1,5.07-2.17c2.55-.64,3.83,3.83,4.28,6.41.7,3.93.38,7.91,2.1,11.44,1.06,2.17,2.55,3.7,3.83,5.74,1.08,1.76,2.41,2.71,3.23,4.66,1.4,3.39,1.31,7.34,2.66,10.77A33,33,0,0,0,612.1,341a14.29,14.29,0,0,1,2.68,3.65H622c1.05-3.09.56-7.11.43-10.13C622.07,325.83,618.18,316.86,614.71,309Z"/><path class="cls-6" d="M616.4,276.93c-1.39.9-2.15,2.32-3.7,2.9-.84.31-3.65.73-3.42,1.93h.52c.28-1.39,1.9-.43,2.68-.13,1,.38,2.33.34,3.27.91-.17-1.71,1.28-3.26,2.13-4.49C619.2,276.13,617.93,275.93,616.4,276.93Z"/><path class="cls-7" d="M662.55,242.44l.26-.41c-1.15-.2-1.63.76-2.36,1.53a26.25,26.25,0,0,1-3.56,2.61,59.93,59.93,0,0,0-8.58,6.63c-4.7,4.66-8.19,10.41-13.07,14.86-2,1.8-2.5,4.64-3.9,6.81s-3.07,3.81-4.53,5.75a10,10,0,0,0-2.49,5.68c-.19,2.54,1.22,3.64,2.76,5.24,1,1.05,1.64,3.87,3.17,3.87,2,0,3.23-4.91,4-6.46,3.08-5.8,5.13-12.21,8.74-17.68a172.69,172.69,0,0,1,11.85-16.16c1.57-1.86,3-3.88,4.51-5.78,1-1.27,2.42-2.19,3.4-3.46a4.23,4.23,0,0,0,1-2.07C663.69,242.73,663,241.79,662.55,242.44Z"/><path class="cls-8" d="M617.06,276.79a2.32,2.32,0,0,0-.71.25Z"/><path class="cls-9" d="M627.34,288c-.32-2-.34-3.84-1.17-5.76-1-2.27-2.59-4.84-5.06-5.54-1.4-.4-3.69-.68-4.85.41l.09,0a2.32,2.32,0,0,1,.71-.25,2.32,2.32,0,0,0-.71.25c-1,.57-1.86,1.95-3,2.35s-3.42.27-4,1.53c-.31.69.29.87.29,1.28,0,.95-.23.81-.64,1.52a9.79,9.79,0,0,0-1.32,3.94c-.56,4.94-.44,9.85,2.51,14,.86,1.21,1.81,2.5,1.15,4.1s-2.14,2.56-2.69,4.42c-1.29,4.22-1.23,13.24,3.62,15.17,4,1.59,5-5,8.87-4.41,2.77.43,5.32,5.74,6.83.41.67-2.37-.66-4.41-.51-6.63.08-1.16.9-2.21,1.32-3.31a27.21,27.21,0,0,0,1.06-4c1-4.77,1.19-9.18-.53-13.83A31.25,31.25,0,0,1,627.34,288Z"/><path class="cls-10" d="M615.6,282.7a3.31,3.31,0,0,1,0-.34.11.11,0,0,1,0-.05Z"/><path class="cls-10" d="M624.57,279.55c-1.11-1.6-3.78-3.71-5.8-3.16-1,.26-1.4,2-2,3a6.19,6.19,0,0,0-1.15,2.93c1.88,3.17,2.79,8.29,3.11,12,.4,4.72.7,9.4.7,14.13,0,4.08.39,9.52-1.08,13.24,1.7-1.53,4.68-.52,6.21.78.84.69,1.45,1.69,2.64.94s1.19-2.5,1.09-3.64c-.14-1.42-1.18-2.52-1.18-4s1-3.08,1.51-4.56a30.31,30.31,0,0,0,1.74-9.79c0-5.44-3.42-9.59-3.7-14.91C626.54,283.74,626.22,281.93,624.57,279.55Z"/><path class="cls-11" d="M662.93,242.73a5.48,5.48,0,0,1-1.84,3,41.36,41.36,0,0,0-2.74,3.65c-1.35,1.72-3.18,3-4.59,4.69a123.54,123.54,0,0,0-10.06,14.6c-2.9,4.63-4.85,10-7,15-.91,2.18-1.46,4.55-2.66,6.63s-2.69,3.78-4,5.65l-.39-1c-.1.13-.2.09-.24.24,1.12,2.28,2.59,4.94,5.25,5.59,4.73,1.15,9.35-2.59,11.87-6.34a15.16,15.16,0,0,0,2.1-8c0-3.36,1.4-5.26,2.94-8.1a11.92,11.92,0,0,0,1.83-4.06c.15-1.24-.34-2.49-.12-3.75.37-2.26,2.76-3.81,2.89-6,0-.83-.51-1.59-.25-2.45a13.83,13.83,0,0,1,1.39-2.32c1-1.92,1.62-4.26,2.79-6.09,1.31-2,2.88-3.74,3.58-6.18C664.1,246.32,664.56,243.24,662.93,242.73Z"/><path class="cls-9" d="M657.57,247.82c-1.21,1.27-1.62,3.11-2.77,4.41-2.54,2.89-5.2,5.44-7.42,8.67a67,67,0,0,0-7,12.47,123.91,123.91,0,0,1-5.25,12.09,49.53,49.53,0,0,1-2.65,4.44c-.85,1.32-1.57,3-2.62,1a24.82,24.82,0,0,1-1.88-5.35c-.33-1.43-.63-3.41-2.09-4.12-.09,1.51.63,3.35.75,4.93a15.25,15.25,0,0,0,1,4.51c.74,2,1.13,4.33,2.3,6.13a11.23,11.23,0,0,0,4.26,3.87c1.44.68,5.24.55,6.18-1-2.21-.4-4.1.64-6.32-.72-2.06-1.25-2.12-3-1.2-5,2.15-4.75,4.79-9,6.43-14a77,77,0,0,1,12.41-22.35c2.25-2.91,4.68-5.53,6.77-8.55.72-1.06,4.77-4.58,3.89-6.22C661.1,245,659.18,246.14,657.57,247.82Z"/><path class="cls-12" d="M662.37,243c.06-.09.12-.17.18-.27h-.39A1.09,1.09,0,0,1,662.37,243Z"/><path class="cls-11" d="M659.37,294.75a13.33,13.33,0,0,1-3.93,2.74c-2.77,1.41-3.76,2.95-4.4,6-.66,3.27-1.27,5.65-3.43,8.21-2.73,3.27-5.65,6.27-8.15,9.77a64.84,64.84,0,0,0-3.8,7c-.94,1.75-2.59,2.94-3.61,4.58-.75,1.24-2.73,5.06-1,6.22.1,0,.11-.05.11-.09a1.5,1.5,0,0,0-.25-.19h.27c-.06.07,0,.14,0,.19.64.53,1,1.35,1.72,1.84a4.49,4.49,0,0,0,4.48.32c2.47-1.1,3.28-2.93,4.19-5.29,1-2.62,3.59-3.59,5.33-5.61a48,48,0,0,0,5.39-8.53c1.33-2.41,2.8-5.2,3.18-8,.25-1.9.21-3.9.39-5.79a27.63,27.63,0,0,1,.66-4.73c.57-2,1.68-2.37,3.13-3.6s4.52-7.17,2.41-8.71C661,292,660.38,293.69,659.37,294.75Z"/><path class="cls-11" d="M630.9,339a1.5,1.5,0,0,1,.25.19s0-.12,0-.19Z"/><path class="cls-8" d="M660.64,286.79l.6-.75C661.08,286.08,660.87,286.38,660.64,286.79Z"/><path class="cls-9" d="M663,280.35c-.33-.24-.7-.46-1-.65A10.25,10.25,0,0,1,662,284c-.27,1-1.35,1.88-1.45,2.9l.06-.08c.23-.41.44-.71.6-.75l-.6.75a18.07,18.07,0,0,1-.9,1.59,19.94,19.94,0,0,1-3.28,3.34,24.47,24.47,0,0,0-4.07,4.25c-1,1.47-1.48,3.17-2.52,4.59-1.87,2.59-4.62,4.27-6.6,6.77-1.24,1.55-2.19,3.38-3.78,4.55a12.33,12.33,0,0,1-4,1.43,15.3,15.3,0,0,0-5.34,2.94c-2.82,2.37-3.61,6-5.69,8.86-2,2.67-4,7.58-3,11a6.51,6.51,0,0,0,4.5,4.11c2.77.56,5.27-1.9,6.94-3.86,2.15-2.54,3.74-5.51,5.92-8,1.61-1.84,4-2.58,5.54-4.44a15.1,15.1,0,0,0,3-7.85c.29-2.18.47-3.82,2.6-4.51,2.63-.85,1.43-.92,2.11-3.32.41-1.41,2.16-1,2.52-2.82.31-1.6-.51-3.21.09-4.82.85-2.32,3.07-2.59,4.92-3.69a9.59,9.59,0,0,0,4.38-4.66c.55-1.49.88-3.11,1.38-4.59A7.25,7.25,0,0,0,663,280.35Z"/><path class="cls-11" d="M623.9,284a11.93,11.93,0,0,1-.36,1.81A6.52,6.52,0,0,0,623.9,284Z"/><path class="cls-11" d="M623.92,283.32a5.1,5.1,0,0,1,0,.67A3.14,3.14,0,0,0,623.92,283.32Z"/><path class="cls-11" d="M615.75,282.18a.83.83,0,0,0,.13.34s0,0,0-.07Z"/><path class="cls-11" d="M620.12,318.46c-.13-1.88.17-3.77.07-5.66-.1-2.13.66-2.26,2-3.86a21.6,21.6,0,0,0,3.52-6.2,16.78,16.78,0,0,0,1.58-5.8c-.13,2.63-2.57,5.66-3.8,7.69-1.07,1.8-2.13,4.09-3.69,5.41-.25-2.49.27-5.44.39-8,1.66-.31,3.06-4.39,3.68-5.82.85-2,2-4.31,1.84-6.58-.88,4.18-3.26,7.69-5.51,11-.25-1.45,0-2.92-.19-4.38a28.51,28.51,0,0,1-.74-3c1.53,0,3.43-4.38,4.22-7.44a17.52,17.52,0,0,1-4.62,6.44,28.25,28.25,0,0,0-.15-3.06c-.12-.8-.95-2.16-.89-2.89.08-1.14,1.87-3.14,2.24-4.53.27-1,.82-3.36.12-4.13-.6,2.85-1.25,5.72-3.18,7.95a4.42,4.42,0,0,0-.16-1.86c-.25-.52-.76-.71-1-1.2.08,2.08,1.43,4.41,2,6.42a31.4,31.4,0,0,1,.93,6.9c.11,3.27.52,6.45.52,9.79,0,5.08.48,10.62-.27,15.55.08-1.59,1.94-1.24,2.79-2,.43-.42.43-1,.67-1.53a8.37,8.37,0,0,1,1.73-2.35,20.87,20.87,0,0,0,4.53-8.41c-1.74,2.44-3.49,5-5.09,7.56C622.66,316,621.82,317.6,620.12,318.46Z"/><path class="cls-11" d="M627.34,296.43a4.34,4.34,0,0,1,0,.51A4.34,4.34,0,0,0,627.34,296.43Z"/><path class="cls-13" d="M640.28,311.16a2.82,2.82,0,0,1-1.46,1,23,23,0,0,1-3,1c-2.31.74-5.17,1.9-6.88,3.83-3.57,4-7.28,10.77-7.81,16.29a6.21,6.21,0,0,0,6.33,6.6,7.88,7.88,0,0,0,2.77-.44c1.52-.58.74-.79,1.5.43,1.57,2.51,3.65,2.25,6.29,1.38-.74-2.21-5.63-.93-3.25-4.53,1.08-1.63,4.49-4.88,4-7-1.12.59-2.14,2.49-3.18,3.41-1.41,1.27-1.41,1.34-2.33,0-2.41-3.32-1.95-7.84-.14-11.44,1.7-3.45,5.3-4.16,7.22-7.17.43-.68.58-3.7,1-5C640.8,309.84,640.71,310.61,640.28,311.16Z"/><path class="cls-13" d="M641.36,309.5a1.14,1.14,0,0,1,.37-.15l.13-.41C641.64,308.87,641.5,309.1,641.36,309.5Z"/><path class="cls-13" d="M644.63,291.43A8,8,0,0,1,637,293c-4.08-1.57-3.83-7.49-3.83-11.17a48.15,48.15,0,0,1,.78-8.8c.21-1.13.58-4.12,1.46-4.83l.26-.4c-2.46.64-3.25,4.4-4.31,6.5a21.2,21.2,0,0,1-4.37,5.53c-1.49,1.5-.67,4.35-.39,6.31a72,72,0,0,0,1.55,7c1.2,4.81,5.44,8.83,10.32,7.14,4.15-1.46,11.52-7.23,8.94-12.66C646.34,288.66,645.77,290.39,644.63,291.43Z"/><path class="cls-13" d="M625.65,282.45c.21,0,0-.16.11-.27l.26-.7h0A3.2,3.2,0,0,0,625.65,282.45Z"/><path class="cls-13" d="M633,298.84c-2.34-1.85-.18-3.1-.51-5.48-.5.55-1,1.68-2,1.37s-.46-1-.65-1.79a21.26,21.26,0,0,0-1.06-2.22c-.26-.69-.39-1.48-.68-2.23a6.93,6.93,0,0,1-.4-5.05,25,25,0,0,0,1.07-4.69c-.92,0-2.23,1.52-2.81,2.73h0l-.26.7c-.09.11.1.23-.11.27a3.2,3.2,0,0,1,.32-1,1.16,1.16,0,0,0-.32,0c-.45,1.52.3,2.38.64,3.73.28,1.09-.14,2.35.12,3.42s1.17,2.21,1.45,3.44a27.7,27.7,0,0,0,1,3.6c.73,1.95,2.06,4,4,4.73,1.7.64,6,1.16,7.37-.47C637.56,299.93,635.33,300.69,633,298.84Z"/><path class="cls-9" d="M648.66,228.6c-1.83.08-2.63,1.49-3.86,2.54a23,23,0,0,0-3.66,3.16c-.5.62-.91,1.48-1.45,2s-1.3.69-1.71,1.12c-.68.76-.47,1.8-.91,2.56-.34.57-1,.74-1.42,1.29-.64.85-.52,1.91-1,2.75s-1.21.83-1.65,1.47a29.83,29.83,0,0,0-1.93,3.83c-.79,1.64-1.87,3-2.65,4.6-.9,1.91-.84,3.29-2.11,5a22.84,22.84,0,0,0-2.94,6.62c-1.46,4.67-1.3,8.25-.22,12.88l-.35-.91a2.36,2.36,0,0,1-.46,0,17.46,17.46,0,0,1,2.26,3.88c.39,1.21.42,3.44,1.9,4,2.84,1.1,6.94-4.28,8.27-6.22,5.2-7.53,7.11-17.28,10.24-25.89.76-2.09,1.68-3.93,2.55-5.94.76-1.76.72-3.76,1.39-5.52.89-2.3,2-3,2.16-5.57a21.45,21.45,0,0,1,.4-3.48c.12-.5.92-1.73.85-2.18C652.17,229.35,649.74,228.53,648.66,228.6Z"/><path class="cls-14" d="M649,230.8l1.23-.73a1.51,1.51,0,0,0-1.12.36A2.07,2.07,0,0,0,649,230.8Z"/><path class="cls-14" d="M649.13,230.43a1.51,1.51,0,0,1,1.12-.36l-1.23.73a2.07,2.07,0,0,1,.11-.37c-1.87,1.28-4.26,5.54-5,6.77a85.82,85.82,0,0,0-5.31,10.48,140.35,140.35,0,0,0-6.45,17.52c-1.11,4.15-2.55,8.17-3.61,12.34-.62,2.43-2.2,5.38-1.87,7.87,3.23.75,7.61-6.93,9.15-9.34,2.46-3.87,3.79-8.32,5.21-12.71a77.68,77.68,0,0,1,3.21-9c.75-1.69,1-3.45,1.7-5.15a26.08,26.08,0,0,0,1.59-4.1c.33-1.75.26-2.56,1.15-4.15a9.81,9.81,0,0,0,1.53-4.08,19.92,19.92,0,0,1,.85-4.24C651.78,230.79,649.79,228.75,649.13,230.43Z"/><path class="cls-13" d="M612.9,326.48c-1.58-1.61-3.3-1.93-4.74-3.88a10.87,10.87,0,0,1-2.3-6.35c-.07-2.3,1.44-5.08,1.07-7.19-.43-2.33-3.47-3.73-4.25-6.06s0-4.65-1.25-6.88-3.53-3.75-5.13-5.8-3.34-4.06-6-4.14c-3.67-.13-14.91,9.38-13.18,12.7v-.29c1,.79,8.14-5.57,10.29-6.55,5.78-2.64,5.67,3.32,6.31,7.72.66,4.66,1.62,10.48,4.29,14.51s5.47,5.8,6.22,11.09c.79,5.55,2,9.67,6.06,13.51a20,20,0,0,1,4.29,5,5.38,5.38,0,0,1,.34.85H618a30.43,30.43,0,0,0-1.3-10.49C616,331.75,614.7,328.29,612.9,326.48Z"/><path class="cls-15" d="M657.53,303l.28-.26c0,1.88.36,5.48.26,8.06-.09,2.29-1.07,4.34-1.06,6.48.58-1.62,2.36-2.57,3-4,.71-1.61.17-1.86-.31-3.94-.4-1.65-1.3-8.93,1.54-8.22.45,2.3-.3,5.77,1.59,7.36.12-2.19-1.09-8,.46-9.53C660,299.6,656.77,300.72,657.53,303Z"/><path class="cls-15" d="M668.87,298.05c-.79.22-3.12.43-5.45.88,3.13,3.07,1.55,7.72,6.15,10.11-2.08-2.05-3.41-6.63-3-9.58,3.63-.27,5.41,6.94,5.29,9.81,1.8-4.26-1.27-7-1.6-10.92,3.72,1.09,5.51,5.15,4.49,9a6.31,6.31,0,0,0,.94-2V302.4a20.15,20.15,0,0,1-.94-4.58,3.53,3.53,0,0,1,.94.16v-.56A20.49,20.49,0,0,0,668.87,298.05Z"/><path class="cls-15" d="M663.24,299l.18,0a.55.55,0,0,1-.07-.09Z"/><path class="cls-13" d="M616.11,282.27a46.16,46.16,0,0,0-6.31-.79c.92,2.37-.59,3.32-1.52,5.27a11.25,11.25,0,0,0-.79,6c.87-3.15,1.57-6.94,5.49-7.36,4.1-.44,4.19,3.58,5.47,6.33a36.22,36.22,0,0,1,.84-6.61c.59-1.89,3.59-3.32,3.44-5.24C622.34,274.79,614.15,278.09,616.11,282.27Z"/><path class="cls-9" d="M599.25,314.88c-2-3.05-3.41-5.51-6.91-6.84-5.93-2.25-13.64-5.67-20-5.32a11.26,11.26,0,0,1-4.22-.48c-1.09-.27-4.41-1.68-4.23.78.1,1.14,5.26,3.53,6.32,4.41,2.84,2.32,3.79,4.54,4,8.2.25,4.9-.25,11.68,6.07,11.66,2.14,0,4.29-1.91,6.33-1.38s4.13,4.16,5.28,6c2.68,4.26,5.25,8.89,8.55,12.78H619c-1-5-4.38-10-6.77-14C608.6,324.54,603.07,320.65,599.25,314.88Z"/><path class="cls-13" d="M564.17,303.29h.06a.9.9,0,0,1-.1-.12Z"/><path class="cls-13" d="M602.43,328.61a31.07,31.07,0,0,0-8.44-9.94,75.35,75.35,0,0,0-15.07-9.59c-4.48-2.1-9.52-6.23-14.69-5.79,1,.8,2.63.88,3.91,1.37a58.63,58.63,0,0,1,5.27,2.71c4.26,2.13,8.47,3.38,12.33,6.46a149.73,149.73,0,0,1,11.4,10.42c4.55,4.49,4.19,10.28,7.45,15.49.61,1,2.33,3,3.68,4.95H613c-2-2.61-4.54-4.72-6.63-7.2C604.14,334.85,604,331.69,602.43,328.61Z"/><path class="cls-13" d="M564.13,303.17l-.75-1.54A2.29,2.29,0,0,0,564.13,303.17Z"/><path class="cls-13" d="M599.52,315.7l-.27-.56c1.83,4.15,4.76,11.14,1.57,15.4-1.71,2.32-6.12,4-8.73,2.65a141.45,141.45,0,0,0,8.34,11.5H619.1c-1.91-6.68-8.09-15.62-9.77-17.95C606.35,322.6,602.93,319.53,599.52,315.7Z"/><path class="cls-16" d="M596.52,338.88h48.75a1.45,1.45,0,1,1,0,2.87h-.7v7.53c0,11.37-5.28,21.2-13,26.08H609.64c-7.71-4.88-13-14.71-13-26.08v-7.53h-.13a1.45,1.45,0,1,1,0-2.87Z"/><path class="cls-17" d="M645,338.88H636.3c-2,10.35-10,17.36-19.93,20.59a100.78,100.78,0,0,1-16.53,3.58h-.11a27.39,27.39,0,0,0,10.19,12.3h21.92c7.72-4.88,13-14.71,13-26.08v-7.53H645a1.45,1.45,0,1,0,0-2.87Z"/><path class="cls-17" d="M595.75,340.32H645.5a.75.75,0,0,1,0,1.5H595.75a.75.75,0,0,1,0-1.5Z"/><path class="cls-18" d="M152,104.62H564.9a9.51,9.51,0,0,1,9.51,9.51V373.52a1.34,1.34,0,0,1-1.34,1.34H143.8a1.34,1.34,0,0,1-1.34-1.34V114.13A9.51,9.51,0,0,1,152,104.62Z"/><path class="cls-19" d="M157.37,132.24H560a0,0,0,0,1,0,0V369.64a1.34,1.34,0,0,1-1.34,1.34H158.71a1.34,1.34,0,0,1-1.34-1.34V132.24A0,0,0,0,1,157.37,132.24Z"/><rect class="cls-20" x="323.03" y="256.99" width="12.63" height="20.53" transform="translate(596.6 -62.08) rotate(90)"/><rect class="cls-20" x="323.03" y="277.5" width="12.62" height="20.53" transform="translate(617.1 -41.58) rotate(90)"/><rect class="cls-20" x="291.59" y="256.99" width="12.63" height="20.53" transform="translate(565.16 -30.64) rotate(90)"/><rect class="cls-21" x="291.59" y="277.5" width="12.62" height="20.53" transform="translate(585.66 -10.14) rotate(90)"/><rect class="cls-21" x="260.14" y="256.99" width="12.63" height="20.53" transform="translate(533.72 0.81) rotate(90)"/><rect class="cls-21" x="260.14" y="277.5" width="12.62" height="20.53" transform="translate(554.22 21.31) rotate(90)"/><rect class="cls-22" x="261.37" y="154.42" width="78.4" height="3.05" transform="translate(601.15 311.89) rotate(180)"/><rect class="cls-23" x="202.56" y="161.85" width="137.22" height="8.58" transform="translate(542.34 332.28) rotate(180)"/><rect class="cls-23" x="202.56" y="202.32" width="137.22" height="7.51" transform="translate(542.34 412.14) rotate(180)"/><rect class="cls-23" x="202.56" y="241.13" width="137.22" height="8.6" transform="translate(542.34 490.85) rotate(180)"/><rect class="cls-22" x="261.37" y="194.88" width="78.4" height="3.23" transform="translate(601.15 393) rotate(180)"/><rect class="cls-22" x="261.37" y="233.7" width="78.4" height="3.12" transform="translate(601.15 470.51) rotate(180)"/><rect class="cls-24" x="364.02" y="180.38" width="176.46" height="174.71"/><rect class="cls-19" x="458.99" y="206.91" width="61.8" height="124.83"/><rect class="cls-25" x="364.02" y="146.99" width="176.46" height="33.39"/><path d="M206.66,365.72c-.17-2.43,1.26-4,.18-16.45-.13-1.51,11.18-2,11.18-2-.5,6.13-2.12,10,3.82,17.34,1.29,1.61,5,4.58,6.35,5.89.93.93,2,5.22-3.56,5.22-7,0-12.4-2.12-14.18-5.45-.15-.27-.59-.17-.59-.17S207.11,372,206.66,365.72Z"/><path d="M187.79,356.48,177.15,355s-.15,1-1,4.71c-1.55,6.82-5.48,10.53-7.13,12.39a5.61,5.61,0,0,0-1.37,5.12l0,.82s.62,3.21,2.79,3.21,11.11-1.45,12.2-3a3.29,3.29,0,0,0,.59-1.93c0-.08.1-.16.13-.24s.93-3.72,2.17-3.41a5.33,5.33,0,0,0,.88-5.53C185.16,363.76,187.79,356.48,187.79,356.48Z"/><path class="cls-26" d="M223.8,239.51c0,1.12,2,5.35,2.07,6.41.32,11.5,0,16,0,19,0,3.31-.83,40.09-3.31,48.36s-2.89,38.85-1.24,41.33,1.24,8.88,1.24,8.88S205.41,365,205,368.26a102.88,102.88,0,0,1-1-10.75c-.81-14.32-.41-18.5.52-43.29.18-5-.73-32.76-.73-37.71,0-3.7-7,35.12-10.33,46.7,0,0-5.46,24.47-4.08,35.13,1.24,9.61-1.7,12.09-1.7,12.09s-10.34-5.32-16.12-2a32.59,32.59,0,0,1,.15-9.66c.93-7.43,2.22-24.77,3.15-35.24,1.1-12.35,4.76-42.46,5.58-57.34s5.33-22,7-25S223.8,239.51,223.8,239.51Z"/><path class="cls-27" d="M270,206.15a4.07,4.07,0,0,0-2.13.08,5.25,5.25,0,0,1,1.29-.84,3,3,0,0,0,1.08-2.79c-.32-.77-1.67.64-2.2,1.07s-4.29,1.47-4.94,1.78-3.76,3.81-4.17,4.18-10.58,5.18-13.87,5.91c0,0,2.24,7.64,2.56,7.52s13.6-6.95,14.07-7.19,4-1,4.89-1.3a15.6,15.6,0,0,0,2.93-1.65S270.45,206.5,270,206.15Z"/><path class="cls-28" d="M264.77,217.24l15.07-42a.92.92,0,0,1,1.27-.51h0a.92.92,0,0,1,.45,1.13l-15.06,42a.92.92,0,0,1-1.28.51h0A.92.92,0,0,1,264.77,217.24Z"/><polygon class="cls-29" points="256.88 217.68 261.06 215.79 265.72 214.74 268.25 213.39 268.78 212.47 269.26 207.88 267.6 206.03 255.44 213.67 256.88 217.68"/><path class="cls-27" d="M267.3,213.47l-1.85-.2a1.31,1.31,0,0,1-1.22-.81c-.15-.36.62-.77,1.15-.76.18,0,1.81,0,1.81,0a3.38,3.38,0,0,1-1.09-.22c-1-.4-1.85-.83-1.5-1.61s2.1.07,2.81-.07c-.6-.16-2.36-1-2.08-1.6s2.46-.44,2.64-.45a5.21,5.21,0,0,0,1-.39,9,9,0,0,1-1.75-.37.8.8,0,0,1-.08-1.08c.29-.49,2-.58,2.32-.59s1.61-.75,2.09-.77.62,1.43.69,1.78-.79.6-.79,1,.25,1.35-.1,1.77-1,1-1,1a5.44,5.44,0,0,1-.29,1.54c-.28.78-.88.68-.88,1.15S267.3,213.47,267.3,213.47Z"/><polygon class="cls-30" points="254.18 210.38 257.48 209.14 261 220.5 256.86 223.81 254.18 210.38"/><path class="cls-31" d="M230.21,189.91c.93.32,3.41,2.17,3.72,4s8.26,16.44,8.88,18.29,1.76,1.55,3.31,1.24,10.13-4.33,10.13-4.33,1.85,13,4.65,15.18c-11.48,4.65-18.91,7.13-21.08,6.51S228,218.74,227.73,215.64,230.21,189.91,230.21,189.91Z"/><path class="cls-27" d="M146.16,240.75a36.63,36.63,0,0,1-4.89.57c-1.21,0-2.79,1.37-4.9,1.6-.77.08-1.53.86-.69,1.24s2.16-.08,3.35.14c1.49.27-1.91,2.82-2.84,3.44s-5.06,4.41-4.58,4.92c.87.93,5.29-3.9,5.57-3.43s-5.45,4.67-4.79,5.13c1.4,1,5.06-3.35,6.1-3.15,0,0-1.05.94-2.19,1.92S134,254.7,134,255.07c0,2.56,5.94-4.25,6.38-3.19.35.84-3.62,3.49-2.71,4.09.45.29,4.72-3.51,4.72-3.51s6.71-4.1,8.75-6.09c1.22-1.2,6.09-3.14,6.09-3.14l-5.63-5S148.2,240.42,146.16,240.75Z"/><path class="cls-30" d="M148.45,238l-3.08,2.39s5.75,8.2,6.29,9.45l4.49-3.3Z"/><path class="cls-31" d="M175,189.29c3-4.23,5.55-2.88,7.44-.2,2.26,3.21,1.24,14.47-.41,19.63-1.5,4.68-2.07,15.09-5.79,22.73s-21.51,22.65-21.7,21.5c-.58-3.66-6.43-12.27-7.65-14.06,5.17-4.85,16.52-15,17.26-16.74C166.56,216.67,175,189.29,175,189.29Z"/><path class="cls-32" d="M197.42,180.54c.55-1.17,1-2.1,2.25-1.94s13.8,2.25,14.19,4.5-2.8,4.49-4.89,4.8S197.42,180.54,197.42,180.54Z"/><path class="cls-33" d="M212.81,177.28a13.67,13.67,0,0,0,.17,8.43c.94,2.51-3.14,6.38-4.66,6.27s-10.18-8.11-10.18-8.11,1.52-9.56,1.87-11.79S212.81,177.28,212.81,177.28Z"/><path class="cls-34" d="M213.36,178.44a23,23,0,0,0-.41,4c-1.42,1.76-11.22,8.61-13.64,8.41-2-.18-.31-3.75-1.47-5.22.43-2,2.17-13.69,2.21-14.17Z"/><path class="cls-30" d="M223.46,206.54l2.31-16.21-11.27-6.61c-.68.86-3.9,5.83-6,5.61s-1.11,3.59-1.11,3.59l1.18,47.74,13.68-.14s1.84-2.1,1.84-11C224.12,226.7,224.53,213.89,223.46,206.54Z"/><path class="cls-30" d="M210.22,227.87c-.22-14.37-1.42-37.46-3.59-38.54-1.86-.93-8.19-5.13-8.88-6.61l-.55-1c-6,2.16-12.17,3.82-14.52,3.82,0,0,3.19,16.5,3.71,21.85.64,6.48-.73,19.56-1.11,25.75-.22,3.5,1.81,7.42,1.81,7.42s16.95.76,22.36,0C211,240.42,210.37,236,210.22,227.87Z"/><path class="cls-31" d="M198.9,245.24a107.08,107.08,0,0,1-3,17.06s-1.65,1.95-7.28,2c-6.29.07-14.41-3.54-14.41-4,0-12.4,5-22.54,5.11-28.21.12-4.38.84-16.3.21-18.18s-2.41-19.11-1.54-23.3c.37-1.84-1.69-3.84.09-4.19,5.05-1,7.72-1,16.65-4.8,0,0-1.57,10.43-.05,13.48s1.77,16.28,2.82,19.43C198.2,216.39,199.64,234.35,198.9,245.24Z"/><path class="cls-35" d="M223.8,265.76c-.62,16.94-5.68,42.88-7.54,50.32s.62,4.65-.31,9-.62,26.35-.62,27.9-9,3.4-7.13,4.65,8.68-.93,8.68,0-5.27,2.78-5.27,2.78,10.54.63,11.16.31-.42-3-.83-6.3-2.89-25.62-.41-33.68,4.86-48.46,3.93-53.73S223.8,265.76,223.8,265.76Z"/><path class="cls-35" d="M204.48,271.44c-3.41,6.82-10.54,41.85-12.09,46.81A39.21,39.21,0,0,1,187,329.2c-1.24,1.55-8.22,26.35-7.29,30.69,3.1.31,6.2-.31,6.51,1.24s-8.06.93-8.06.93l10.54,5.58s.62-5.27.62-9.3.67-23,3.78-33,3.4-16.42,4.64-25.1S204.48,271.44,204.48,271.44Z"/><polygon class="cls-36" points="187.33 237.41 177.14 240.82 176.94 246.19 187.12 243.85 187.33 237.41"/><path class="cls-36" d="M198.59,223.24c.93,6.51.06,30.77-.47,35.18-.57,4.76-2.86,6.05-7.18,6.62-6.2.83-15-3.62-15-3.62s16.3,5.08,19.11.93C199.41,256,198.59,223.24,198.59,223.24Z"/><path class="cls-36" d="M231.14,233c-.93-7.44-1.86-24.49-.93-29.14s2.17-12.71,0-14c-.15-.08-6.12-2.42-14-6.2l.32,6.62c1.85,21,3.4,32.14,3.4,32.14l2.86,15.78c.72,7.95,1.4,14.63,1.79,16.14.93,3.73,2.48,7.59,5.89,7.75a29.32,29.32,0,0,0,6.2-.93S232.07,240.45,231.14,233Z"/><polygon class="cls-37" points="212.46 240.09 208.54 187.82 204.61 187.86 203.24 188.68 206.42 191.77 206.39 235.74 212.46 240.09"/><polygon class="cls-38" points="216.77 235.84 210.55 191.45 211.88 189.06 211.22 187.39 207.97 187.86 208.43 191.6 208.45 191.6 212.46 240.09 216.77 235.84"/><path class="cls-39" d="M213.11,181.85c.18,1.86-2.28,5.35-2.9,5.66.85.31,3.65,5.81,3.65,5.81l2.78-7.43S213,181.08,213.11,181.85Z"/><path class="cls-39" d="M198.2,179.14c-.08,1.4,5.45,7.16,9.76,8.72a39.05,39.05,0,0,0-7.61,5.78c-3.72-4-6.38-10.73-5.79-11.16A49.1,49.1,0,0,0,198.2,179.14Z"/><path class="cls-36" d="M197.61,180c0-.83-6.16,2.45-6.16,2.45l-1.71,4.86,4.21,1.18-5.78,3.28,10.21,27.47s-1.77-29.82-2.46-33.37C195.06,181.54,197.61,180,197.61,180Z"/><path class="cls-31" d="M213.65,182.19c.54.18,6.3,3.56,6.3,3.56l1.42,3.58-4.2.53,4.32,2.23-1.62,28.62s-4.51-30.49-4.6-34.1A6,6,0,0,0,213.65,182.19Z"/><polygon class="cls-31" points="227.72 237.34 233.62 239.82 234.24 246.64 228.04 242.92 227.72 237.34"/><path class="cls-40" d="M196.91,162.08c-.3,2,.68,9.42.57,9.79s-.41,1.75-.78,1.57,2.07,2.4,2.82,1.84,3.1-10,2.83-10.56S196.91,162.08,196.91,162.08Z"/><path class="cls-27" d="M217.53,173.09c1.32-3.58,2.52-9.09,1.32-13.19-.79-2.62-6.4-5.34-7.77-5.46-8.49-.73-9.33,4.59-9.88,10.11-1.82-1.3-2.8.51-2.83,2.71,0,1.69.67,3.67,1.74,4.32.24,4.81,3.11,8.67,9,9.82a4.71,4.71,0,0,0,2.89-.32,6.26,6.26,0,0,0,3.2-2.93A40.67,40.67,0,0,0,217.53,173.09Z"/><path class="cls-40" d="M201.4,153.32c.82-1.28,4.92-.36,4.72.68l2,.19c.23-2-2.4,3.09-2.34,3.54-4.91-.33-2.44,5.83-3,6.63a3,3,0,0,0-.66,2l-1.1-.63L200,163.84l-2.64,1.91S194.83,155.46,201.4,153.32Z"/><path class="cls-41" d="M218.55,155.3c-1.8-1.43-8.3-5.55-11.75-3.72s-1.9,2.36-1.9,2.36l.93,3.79c1.31-2.4,4.09.13,5.08,1.37,3.08,3.88,7.88,2.9,7.9,2.93.8,1.22,0,6.87,0,6.87l.95-.44a11.28,11.28,0,0,0,1.57-5.18,14.2,14.2,0,0,0-.27-1.81C222.5,159.66,220.34,156.75,218.55,155.3Z"/><path class="cls-41" d="M218.24,171.18c-.1,1.94-.91,6.67-2,8.4s-4.73,5.44-6.66,5.34c-.92-1.64.71-7.39.71-7.39a6.07,6.07,0,0,0,4.92-1.18A11.66,11.66,0,0,0,218.24,171.18Z"/><path class="cls-40" d="M201.6,162c.05,1.94,1,9.21,2.14,11.88,1.07,2.52,6,3.41,7,3.76a69.66,69.66,0,0,1-1.06,7.35,10.59,10.59,0,0,1-7.36-5.6c-1.34-2.67-2.31-5.41-2.18-6.78C200.35,170.29,201.6,162,201.6,162Z"/><path class="cls-42" d="M118.25,370.94H598.34s4,16-42.36,16H137.75S123,385.7,118.25,370.94Z"/><path class="cls-43" d="M394.13,375.81H313.42c-4.19,0-7.59-2.07-7.59-4.63h95.9C401.73,373.74,398.33,375.81,394.13,375.81Z"/><path class="cls-44" d="M573.42,383.59H142.53c-12.22,0-22.35-5.43-24.31-12.54h-.38v2.7c0,8.31,11.06,15.05,24.69,15.05H573.42c13.64,0,24.69-6.74,24.69-15.05v-2.7h-.37C595.77,378.16,585.65,383.59,573.42,383.59Z"/><line class="cls-45" x1="465.02" y1="216.44" x2="514.43" y2="216.44"/><line class="cls-45" x1="465.02" y1="222.53" x2="514.43" y2="222.53"/><line class="cls-45" x1="465.02" y1="228.62" x2="514.43" y2="228.62"/><line class="cls-45" x1="465.02" y1="235.66" x2="514.43" y2="235.66"/><line class="cls-45" x1="465.02" y1="241.61" x2="514.43" y2="241.61"/><line class="cls-45" x1="465.02" y1="258.56" x2="514.43" y2="258.56"/><line class="cls-45" x1="465.02" y1="264.65" x2="514.43" y2="264.65"/><line class="cls-45" x1="465.02" y1="270.73" x2="514.43" y2="270.73"/><line class="cls-45" x1="465.02" y1="277.78" x2="514.43" y2="277.78"/><line class="cls-45" x1="465.02" y1="283.73" x2="514.43" y2="283.73"/><line class="cls-45" x1="465.02" y1="299.02" x2="514.43" y2="299.02"/><line class="cls-45" x1="465.02" y1="305.11" x2="514.43" y2="305.11"/><line class="cls-45" x1="465.02" y1="311.2" x2="514.43" y2="311.2"/><line class="cls-45" x1="465.02" y1="318.24" x2="514.43" y2="318.24"/><line class="cls-45" x1="465.02" y1="324.19" x2="514.43" y2="324.19"/><path class="cls-46" d="M70.92,470.36a2,2,0,0,0,2,2h80.9a2,2,0,0,0,2-2l3.13-108.07c0-1.09-4-3.08-5.1-3.08H72.89a2,2,0,0,0-2,2Z"/><path class="cls-47" d="M72.92,468.12c0,1.07,3,4.1,4.1,4.1l77-1.1a1.93,1.93,0,0,0,1.93-1.93l2.21-105.57c0-1.07-3.07-3.21-4.14-3.21H74.8a1.92,1.92,0,0,0-1.93,1.91Z"/><path class="cls-48" d="M74.71,472.51a2,2,0,0,0,2,2h80.9a2,2,0,0,0,2-2V363.34a2,2,0,0,0-2-2H76.68a2,2,0,0,0-2,2Z"/><rect class="cls-49" x="92.31" y="396.41" width="51.02" height="4.92"/><rect class="cls-49" x="100.91" y="407.78" width="33.81" height="4.91"/><rect class="cls-50" x="139.52" y="487.55" width="115.31" height="10.14"/><polygon class="cls-47" points="139.52 497.69 119.98 481.16 119.98 470.64 139.74 484.18 139.52 497.69"/><polygon class="cls-51" points="254.83 487.55 225.85 470.64 119.98 470.64 139.52 487.55 254.83 487.55"/><rect class="cls-52" x="147.71" y="473.87" width="115.31" height="7.84"/><polygon class="cls-47" points="147.71 481.71 128.18 468.93 128.18 460.8 147.92 471.26 147.71 481.71"/><polygon class="cls-51" points="263.03 473.87 234.04 460.8 128.18 460.8 147.71 473.87 263.03 473.87"/><rect class="cls-53" x="133.22" y="464.03" width="115.31" height="7.85"/><polygon class="cls-47" points="133.22 471.88 113.69 459.09 113.69 450.97 133.43 461.42 133.22 471.88"/><polygon class="cls-54" points="248.53 464.03 219.55 450.97 113.69 450.97 133.22 464.03 248.53 464.03"/><rect class="cls-55" x="140.16" y="454.19" width="115.31" height="7.85"/><polygon class="cls-47" points="140.16 462.04 120.62 449.26 120.62 441.13 140.36 451.58 140.16 462.04"/><polygon class="cls-54" points="255.46 454.19 226.48 441.13 120.62 441.13 140.16 454.19 255.46 454.19"/><path class="cls-56" d="M140.53,436.82l6.26-.16,97.91,9,5.37-9.72c0-1.31.76-4.6,1.69-4.6l5.5-.64c.94,0,1.7,1.07,1.7,2.38v14.88c0,1.3-.76,2.37-1.7,2.37l-99.17-.18Z"/><polygon class="cls-19" points="158.8 448.91 257.84 448.91 257.63 431.71 158.59 431.71 158.8 448.91"/><polygon class="cls-47" points="158.8 448.91 143.06 437.29 143.42 419.52 158.71 425.99 158.8 448.91"/><polygon class="cls-56" points="257.63 431.71 257.82 431 232.39 419.01 141.47 419.01 158.59 431.71 257.63 431.71"/><path class="cls-57" d="M148.83,418l96.35,6.92,4.89,2V416c0-1.19.69-2.15,1.54-2.15h5c.86,0,1.55,1,1.55,2.15V427c0,1.19-.69,2.16-1.55,2.16h-5c-.1,0-.17-.13-.27-.16H165.67Z"/><polygon class="cls-19" points="166.21 427.96 257.04 427.96 256.88 414.67 166.04 414.67 166.21 427.96"/><polygon class="cls-47" points="166.21 427.96 150.88 418.26 150.75 404.9 166.17 410.26 166.21 427.96"/><polygon class="cls-57" points="256.88 414.67 257.21 414.18 231.71 404.25 148.99 404.25 166.04 414.67 256.88 414.67"/><polygon class="cls-58" points="124.81 395.1 180.2 428.06 175.91 500.22 50.34 491.98 124.81 395.1"/><polygon class="cls-59" points="35.06 475.45 107.77 485.31 120.43 391.94 47.73 382.08 35.06 475.45"/><path class="cls-19" d="M49.6,491.21a.76.76,0,0,0,.74.77h74.47a.76.76,0,0,0,.74-.77V395.86a.75.75,0,0,0-.74-.76H50.34a.75.75,0,0,0-.74.76Z"/><rect class="cls-59" x="59.76" y="412.74" width="55.38" height="1.57"/><rect class="cls-59" x="59.76" y="417.05" width="55.38" height="1.57"/><rect class="cls-59" x="59.76" y="421.37" width="55.38" height="1.58"/><rect class="cls-59" x="59.76" y="425.7" width="55.38" height="1.57"/><rect class="cls-59" x="59.76" y="430.01" width="55.38" height="1.58"/><rect class="cls-59" x="59.76" y="434.33" width="55.38" height="1.58"/><rect class="cls-59" x="59.76" y="438.66" width="55.38" height="1.58"/><rect class="cls-59" x="59.76" y="442.98" width="55.38" height="1.57"/><rect class="cls-59" x="59.76" y="447.3" width="55.38" height="1.57"/><rect class="cls-59" x="59.76" y="451.62" width="55.38" height="1.57"/><rect class="cls-59" x="59.76" y="455.94" width="55.38" height="1.57"/><path class="cls-60" d="M257,394.64c11.8.51,33.05,3,36.21,6.88,4.84,6,6.2,10.64,2.51,17.71-1.86,3.55-18,51.62-17.71,57.74.31,7.59,3.88,16.1,12.73,20.52-5.24,2.86-16.47,4-20-7.71-1.39-4.72-3-6.33-4.54-9-2.56-4.63,3.12-2.37,3.53-12.25s-.45-26.16,10.9-49c.95-1.89-36.71,3.21-46.76-12C232,404.54,257,394.64,257,394.64Z"/><path d="M266.75,476.24c-2,1.17-3.67,5.6-3,9.17s2.23,11.18,1.19,13.83c1.84.65,1.94.26,1.94.26s0-11.16-.18-11.9c-.38-1.83,3.69,8.59,6.46,12.39s8.7,4.9,15.66,3.8c1.29-.2,5.8-4.45,3.06-5.8a27.52,27.52,0,0,1-5-3.35s-10.53,2.48-13.19-2.34S266.75,476.24,266.75,476.24Z"/><path class="cls-61" d="M248.23,397.43c15.08,1,37,2.68,40,6.69,2.15,2.87,3.09,5.93-.77,15.26-1.54,3.7-27.26,51.55-27,57.66.32,7.6,1.82,17.08,10.67,21.49a14.31,14.31,0,0,1-18.89-6.06c-2.44-4.32-2.76-7.22-4.27-9.93-2.57-4.62,2.33-5.73,3.39-14,1.28-9.83-.19-32.57,12.78-48.93,1.33-1.67-14.45,3.67-28.25-7.2C233.09,410.27,248.23,397.43,248.23,397.43Z"/><path d="M247.49,477c-2,1.17-3.68,5.6-3,9.17s2.21,11.18,1.18,13.84c1.85.65,2,.25,2,.25s0-11.15-.19-11.89c-.37-1.84,3.69,8.59,6.47,12.38s8.7,4.91,15.66,3.81c1.27-.21,5.79-4.44,3.05-5.8a27.94,27.94,0,0,1-5-3.35S257,497.85,254.36,493,247.49,477,247.49,477Z"/><path class="cls-51" d="M202.36,383.76c-5.12,16.8-2.38,25.38,4.45,29.46,10,6,24.84.77,38,4.72,3.78,1.15,7.92,14.58,7.82,18.92-.16,7.11,11.33-21.43,32.56-30.8,2-.89-30-13.69-41.56-21.21C232.63,377.71,205.47,373.53,202.36,383.76Z"/><path class="cls-56" d="M250.56,384.65c1.29,3,4.09,7.81,6.47,7.69,29.56-1.46,33.78,3,37.27,7s3.22,7.05,3.54,7.66c.49.94-7.06-3.21-11.88-1s-11.2,6.08-12.19,7.5,1.27-11.87-8.72-13.07-37.19.69-41.79-5c-7.19-8.86-2.8-13.38-2.8-13.38Z"/><path class="cls-61" d="M238.87,342.11c-.25-3.15.48-7.85-2.49-12.77-.17-7.34,4.42-8.31,7.24-8.48,0,0-17.45-23.89-19.53-15.13-2.65,11.2-6.37,17.29-9.65,20.19-1.89.92-7.83,3.58-11.09,4.19C198.53,335.39,239.39,348.67,238.87,342.11Z"/><path class="cls-62" d="M242.2,318.75,216.85,344.2l-4.92-17.79a67,67,0,0,0,5.45-4.48c5.16-4.82,9.9-16.64,9.9-16.64A163.1,163.1,0,0,0,242.2,318.75Z"/><path class="cls-27" d="M263.39,384.43a19.16,19.16,0,0,1,12-.4c2,.82,5.38,3.75,6.12,4.46s-13.31,1.06-13.8.55S263.39,384.43,263.39,384.43Z"/><path class="cls-56" d="M242.25,333c4.41,3.4,9.21,36.71,11.26,40.66s10.45,7.14,12.88,8.26-8.69,8.4-10.85,8.55-13.39-27-14.3-36.52S242.25,333,242.25,333Z"/><path d="M240.36,292.54Z"/><path class="cls-19" d="M220,327c1.84,1.54,11.35,10,14,10.3,0,0,5.51-3.66,2.78-8.54-1-1.79,1.63,2.71,2.79,2.85s11.31,50.49,6.37,54-15.53-1-18.63-4.29-16.16-54.9-16.16-54.9Z"/><path class="cls-51" d="M215.89,321.64c1.72-1.26,8.09,14.79,16.5,37.84.51,1.38,3.24,8.55,1.74,22.19-.51,4.59,3.22,22.75-5.81,24.14-7.27,1.12-30.22,1.72-36.27-2.28-2.81-1.87,7.36-14.49,6.62-26.35s-3.87-17.63-5.46-23.69c-3-11.45,1-22.4,1-22.4C198.25,328,204.54,329.89,215.89,321.64Z"/><path class="cls-51" d="M236.79,328.75c1.76,1.85,2,1,4.39,2.63s6,20.56,5.94,25.75.85,13.28,2.9,17.22,7.68,7.86,8.73,9.62-3.47,3.69-6.9,3.69-8.73-3.1-8.84-5.57,2.56-15.83,1.88-23.71S236.79,328.75,236.79,328.75Z"/><path class="cls-19" d="M234.62,323c.45.75,6.9,12,7.91,13.11-2.22.06-3.06-2.79-4.45-.62a1,1,0,0,1-1.77.07s0-6.65-.42-7.91S234.62,323,234.62,323Z"/><path class="cls-19" d="M232.08,337.39c-3.7-2.22-12.86-2.08-15-.83,0,0-5.67-10.68-4.7-11.64.38-.37,5.76-6.43,5.76-6.43a18.78,18.78,0,0,0,3.6,8.5C225.14,331.33,224.71,331,232.08,337.39Z"/><polygon class="cls-63" points="220.48 392.2 258.54 398.73 285.74 387.64 246.72 384.39 220.48 392.2"/><polygon class="cls-19" points="229.08 390.73 259.26 395.23 277.77 388.35 246.68 386.3 229.08 390.73"/><path class="cls-19" d="M244.16,374.4a2,2,0,0,0-.42.82,1.36,1.36,0,0,0,.38,1,16.37,16.37,0,0,0,3.74,3.92c.16.08.25-.05.23-.18a2.62,2.62,0,0,0-.62-1.1,1.12,1.12,0,0,1-.56,0,22.59,22.59,0,0,1-2-2.83c-.07-.16.1-.25.24-.3A8.51,8.51,0,0,1,244.16,374.4Z"/><path d="M257.53,390.2s.1.43,0,.49-.48-.19-.48-.19Z"/><path class="cls-64" d="M257.54,390.2a11.29,11.29,0,0,0-1-2l-1.1.77a13.74,13.74,0,0,0,1.65,1.55Z"/><path class="cls-46" d="M256.58,388.24c-.3-.62-5.94-8.65-5.94-8.65l-1.86,1.28s6.18,7.67,6.7,8.13C256.15,388.57,256.47,388.33,256.58,388.24Z"/><path class="cls-65" d="M245,373.91h0l.88-.69c-.06-.08-.78-1.19-1.79-.52h0s0,0,0,0h0c-1,.69-.13,1.71-.07,1.78l1-.58h0Z"/><path class="cls-46" d="M249.52,380l.28-.15,0-.05.67-.49c0-.06-4.38-6-4.66-6.24a11.12,11.12,0,0,0-.93.62c-.21.13-.5.34-.94.65.15.33,4.61,6.12,4.65,6.18l.7-.36,0,.05Z"/><path class="cls-48" d="M250.64,379.59l-.89.61,6.28,8.42a6.34,6.34,0,0,0,.55-.38C256.28,387.62,250.64,379.59,250.64,379.59Z"/><path class="cls-48" d="M249.76,379.78l.67-.49c0-.06-4.39-6-4.67-6.27l-.89.63,4.7,6.31.23-.13Z"/><path class="cls-19" d="M244.15,372.68l.72,1,.88-.63A1.2,1.2,0,0,0,244.15,372.68Z"/><path class="cls-19" d="M250.78,379.56l-.33-.45s0,0-.06,0l-1,.65.38.52,1-.66A.07.07,0,0,0,250.78,379.56Z"/><path class="cls-61" d="M229.51,379.44c2,.66,7.71.32,9.78.52,3.55.35,10.26-.73,11.42-.24a24.62,24.62,0,0,1,4,1.95c1.49,1.06,1.31,2,.48,2.55a1.42,1.42,0,0,1-1.12,0s1.17,1,1.07,1.63c-.22,1.31-.9,1-1.93,1,1.13.69,1,2.28-.78,2.07,1,1.33.11,1.48-2.91,1.67-1.7.12-10.38-1.88-12.62-2.66s-8.78-1.34-8.78-1.34Z"/><polygon class="cls-19" points="237.47 377.7 241.23 379.53 237.1 391.58 230.77 389.46 237.47 377.7"/><path class="cls-56" d="M196.66,330.27c-4.93.66-7.36,7.41-6.83,13.22S191,374.19,195,378.6c5.42,6,39.29,16,39.29,16s3-15.24,4.41-15.89-26-7.48-27.26-10.92-3.26-27-5.91-31.28C203.72,333.58,203.19,329.41,196.66,330.27Z"/><path class="cls-27" d="M266,384.7c.37,1,2.89,2.07,4.89,1.9s3,.5,4.36.77c1,.22,2.56,0,1.33-.84a23.1,23.1,0,0,0-3.87-2s-3.65-1.63-6.07-.64Z"/><path class="cls-61" d="M224.89,301.15c3.07-11.71,8.38-17.89,18.09-15.57s11.8,10.86,8.76,22.55c-.45,1.73-3.83,14.58-12.6,19.49-2.1,1.18-3.38-.21-5.38-1.08C224.65,322.61,221.85,312.84,224.89,301.15Z"/><path class="cls-66" d="M246.67,299.91c3.86.48,5.47,4.11,5.57,8,6.4-9.22-1.55-20.92-8.73-22.16-5.44-.94-8.93-1.2-9,.57S246.67,299.91,246.67,299.91Z"/><path d="M248.66,300c-2.41.33-14.6-2.26-19.06,6.56,0,0-1.94-4.68-3.69-2.77-3.53,3.83-.19,7.93-.19,7.93l-2.67,5.47s-7.3-5.82-6.09-18.16c1.38-14,18-19,27.52-13.6C249.1,288,248.66,300,248.66,300Z"/><path d="M226,311.89c-1.34,3.25,1,14.22,1.58,15.28-4.73-.45-13-10.63-13.52-12.94s.5-19,6.39-23.63c4.12-3.27,1.1,7.1,1.11,10.82S226,311.89,226,311.89Z"/><path class="cls-67" d="M438.72,310.87c-4.17,0-10.67,2.16-14.61,3.49-4.25,1.45-5.75,4.87-9.3,7.13-3.12,2-6.65,3.06-8.24,6.61-1.89,4.24-.85,10.48-.39,14.93.89,8.89,4.73,17.41,6.56,26.13.53,2.53,1.86,6.54,1.12,9.08-.55,1.89-2.49,4.16-3.48,6a34.91,34.91,0,0,0-3.62,9c-.36,1.56-1.81,5.31-1.22,6.84.74,1.91,4.42,3.63,6.23,4.45,3.8,1.73,8.37,1.86,12.49,2.44,7.82,1.1,15.35,2.49,23.31,1.44a61.64,61.64,0,0,0,12.37-3.52c1.23-.44,3.4-.82,4-1.84a10,10,0,0,0,.18-2.59,63.94,63.94,0,0,0-.19-9.08c-.51-5.36-2.38-11.45-.8-16.65,1.79-5.91,2.16-12.08,2.87-18.17.74-6.25,1.16-12.44,2-18.64.59-4.42,1.3-8-1.16-12-2.62-4.25-7.73-6.22-12.3-8.09-4-1.62-7.41-3.88-11.22-5.6-2.41-1.08-6.78-2.37-8.87-.18Z"/><path class="cls-67" d="M408.84,325.33c-1.29-.1-2,1.19-3.25,1.32-.14.89.39,1.81.31,2.58-.09,1-.63,1.28-.88,2.25s.35,2,.16,2.73c-.26,1-1,1.31-1.54,2.23-1.36,2.25-1.49,5.63-2.51,8.17-1.7,4.21-3.32,8.56-4.64,12.91-1.93,6.36-5.21,15.28-3.22,22,.7,2.35,2.34,3.63,4.43,4.8,3.24,1.79,5.84.7,8.82-1.42,5-3.59,8.79-10.51,10.6-16.14,2.61-8.17,4.49-16.64,2.08-25-.7-2.43-6.58-16.81-10.56-15.35Z"/><path class="cls-67" d="M463.76,322.74c3.23-.21,5.11,7.08,5.78,9.2,1.81,5.74,3.16,11.59,5,17.3,1.49,4.64,2.3,9.5,3.65,14.19,1,3.53,2.16,7.31,2.31,11C480.8,381,471,383,465.83,382c-13-2.63-11.25-20.61-10.94-30,.23-7.09,3.53-14.22,5.17-21.11a18.43,18.43,0,0,1,3.6-7.88,1.11,1.11,0,0,0-.48,0Z"/><path class="cls-68" d="M409.22,345.13A63.35,63.35,0,0,0,412,364.7a36.71,36.71,0,0,1,2.26,11.51c0,3.78-2.54,7.09-4.19,10.38a45.81,45.81,0,0,0-4.14,11.07c-.9,4.51,6,7.39,10,7.2-1.49-3.19-5.19-7.53-2.53-11.27,1.15-1.63,2.93-2.58,3.9-4.44a10,10,0,0,0,1-5.22c0-4.48,1.42-8.67,1.79-13.12.57-6.7-.24-13.42-.24-20.12,0-3.43,2-16.53-5-15-3.36.73-5.59,5.75-5.4,8.71a5.33,5.33,0,0,0,.2,1.66Z"/><path class="cls-67" d="M407.87,399.88c-2.12.07-4.23,4.68-5,6.29-1.41,2.94-2.5,6.44-1.49,9.68,2.06,6.68,10,9.9,16.12,12.11a27.5,27.5,0,0,0,8.25,1.9c2.38.07,4.45-.89,6.76-1.11,4.21-.41,7.93,1.31,12,1.67,5.48.48,11.55-1.79,14.8-6.16,2.07-2.79,2.7-6.15,3.31-9.44s1.63-8.94.36-12.13c-1.46-.07-3.2.66-4.76.76a76.1,76.1,0,0,1-9.31,0c-6.63-.44-13.23-.54-19.85-1.17-5.15-.49-10.24-.75-15.37-1.06-2.33-.14-3.93-1-6-1.48Z"/><path class="cls-67" d="M401.71,416.17c.3,1.36.8,2.29.2,3.56-.85,1.77-2.13,2.06-2.14,4.34,0,4.9.59,9.87.59,14.81,0,10.73,2.42,21.35,2.5,32.05,0,3.7-.68,13-.68,13s3.38.91,5.65,1.72a15.12,15.12,0,0,0,9.1.36c2.44-.58,6.36-1.43,6.36-1.43s-.47-7.82-.21-10.73c.45-4.8.51-9.63,1-14.44.88-9.19,2.05-19.4,1-28.65-.16-1.39.14-1.14-1-1.83-.86-.54-2.49-.55-3.48-1-3-1.41-5.85-4-8.68-5.74-2.18-1.37-4.92-2-7.12-3.33-1.29-.81-1.82-2.39-3.46-2.36Z"/><path class="cls-30" d="M481.49,481.66c.52,3.53,1.54,7.46.82,11.1-.66,3.21-2.59,6.56,1.11,8.93s6.65-.62,9.43-2.41c3.21-2.07,6.4-1.15,9.88-2,.92-.23,3.8-1.14,4.06-2.22.32-1.34-1.83-1.74-2.94-2.09a36.48,36.48,0,0,1-8.14-3.27c-3.17-1.93-3.49-5-4.83-8-.92-2.07-1.4-1.05-3.62-.74-1.51.21-3.2.19-4.66.33-.29,0-.61,0-.92,0Z"/><path class="cls-67" d="M463.76,397.3c3.05.3,5.48,5.3,7.32,7.25,3.87,4.1,6.36,9.12,9.21,13.88,1.41,2.35,2.55,4.86,4,7.14a21.07,21.07,0,0,1,2.56,4.16c.66,1.87.46,4.06.91,6.09,1.7,7.92,3.11,15.57,4.14,23.64.51,4,1.3,8,1.68,12,.29,2.89,1.34,6.36.94,9.23-3.83.21-2.88,3-13.34,4.1,0,0-4.39-10.9-5.32-13.88A159.32,159.32,0,0,1,469.12,438c-.74.3-2,.75-2.52-.2s1-1.85,1.19-2.75c-.94-.13-1.73.34-2.65.31-.36-1.69-.43-2-2.2-2.56a35.16,35.16,0,0,1-5-2.22c-1.66-.86-3.15-1.8-4.76-2.78-2.81-1.7-1.49-1.69.48-4.19,2.17-2.76,4.85-5.83,5.5-9.31a31.94,31.94,0,0,1,2.45-8.34c1.07-2.18,3.6-7.06,2.32-9.45-.17.25-.64.71-.78,1Z"/><path class="cls-69" d="M509.05,491.61a8,8,0,0,0-3.48-.34c-1.13,0-2.3-.39-3.44-.33a4.3,4.3,0,0,0-2,.9l-.47-.19c0-.12-.08-.2-.38-.18a9.41,9.41,0,0,1-1-.53c1,3.22-4.86,5.36-7.55,5.52-3.33.19-6.28-3-9.84-1.91v-.13c0,.05,0,.1,0,.14l-.14,0c-.13.26,0,.26.07.3-.33,1.35-1.21,3.08-.62,4.88a9.21,9.21,0,0,0,3.77,4.31c3.39,1.62,6.33-1.19,8.89-2.86,3.68-2.4,7.53-1.44,11.33-3,1.16-.46,3.92-1.62,4.25-2.9C510,494.46,512.13,493.1,509.05,491.61Z"/><path class="cls-70" d="M510.1,492.3c.25,1.28-1.74,1.74-2.6,2.31-1,.7-1.5,1.81-2.62,2.41-2.43,1.3-5.57,1.43-8.25,2a20.22,20.22,0,0,0-6.56,2.59c-1.58,1.07-2.85,1.93-4.92,1.76-1-.07-2-.55-3-.63-.38,2.46,3.23,3,5,2.51,2.76-.84,4.61-3.09,7.28-4.08a45.43,45.43,0,0,1,7.23-1.62,19.34,19.34,0,0,0,6.93-3.11,5.86,5.86,0,0,0,2.27-2.23c.33-.79.05-2.26-1.14-2Z"/><path class="cls-30" d="M405.76,485.08a21.55,21.55,0,0,1-3.18,6.22c-2,2.6-4.88,4.17-7.14,6.46-1.09,1.1-4,5-1.16,5.45,3.54.61,7.57.8,10.5-1.38,2-1.52,3-3.05,5.81-3.33s5.5-.61,7.71-2.32c3.26-2.52-.44-7.31-.61-10.44-.93.7-2.12.59-3.26.64a17.46,17.46,0,0,1-4.15,0c-1-.2-2-.7-3-1a6.34,6.34,0,0,1-2.13-.74Z"/><path class="cls-69" d="M418.76,489a7.16,7.16,0,0,0-7,.65c-1.89,1.3-2.93,3.24-5.19,4.15a8.37,8.37,0,0,1-5.91.19c-1.08-.38-1.13-.23-2.11.57a25.51,25.51,0,0,0-2.34,1.93c-.82.83-.91,1.2-2.1,1.31-.76.07-.57-.15-1,.53-.29.43-.29.75-.7,1.13-.66.61-1.7.65-2.05,1.48a2.12,2.12,0,0,0,1.2,2.5c4.16,2.25,9.78,1.33,13.74-.83a58.17,58.17,0,0,1,5.8-3,12.17,12.17,0,0,1,3.46-1c.92-.08,1.89.1,2.81-.05,2.91-.5,3.3-3.25,3.27-5.65,0-.78-.62-4.63-2.12-3.63Z"/><path class="cls-70" d="M420.68,494.93c-1.92-2.36-5.63-.4-7.51.83-2.48,1.63-4.67,3.68-7.23,5.18-4,2.33-9.38,3.15-13.73,1.45-.9-.35-1.66-1.57-2.44-1.8-1.09-.34-2.43,1-1.79,2,.92,1.48,5.75,1.77,7.26,2a15.54,15.54,0,0,0,8.39-.87c3.06-1.15,5.52-3.23,8.5-4.44,1.79-.73,11,.62,8.42-4.13Z"/><path class="cls-71" d="M417.5,319.41c4.24-3.34,9.25-6.24,14.79-6.94a37.87,37.87,0,0,1,6.9-.56,30.49,30.49,0,0,1,5,1.12c-.93-.91-.64-2.59-1.57-3.45-.74-.68-2.37-.63-3.4-.58a30.09,30.09,0,0,0-8.7,1.5,41.9,41.9,0,0,0-7.65,3.47c-2.65,1.54-3.95,3.36-5.8,5.58Z"/><path class="cls-72" d="M417.37,289.3c-3.42.72-1.9,9.11-1.88,11.21,0,2.43-.94,4.75-.33,7.11a39.26,39.26,0,0,0,1.88,5.44c.56,1.29.79,3.14,2,4,.77-1.5,3.56-2.05,4.32-3.49.54-1-1.2-3.62-1.26-5.14-.08-1.88.35-3.53.29-5.4a4.82,4.82,0,0,0-.9-3.16c-.56-.7-1.93-1.65-2.16-.15-.58-.5-.32-1.29-.4-2.07a15.34,15.34,0,0,0-1-3.2c-.28-.8-1.74-4.81,0-4.71Z"/><path class="cls-72" d="M445,301.93c.1-.29.21-.58.33-.86,2-.25-.95,5.77-3.35,5.42-.14-1.81,2-3.74,3.17-5Z"/><path class="cls-73" d="M446.85,288.18c-1.21-4.17-6.89-8.67-11.27-9.54A24.29,24.29,0,0,0,422.85,280a15.63,15.63,0,0,0-4.25,2.11c-2-.12-4.11,2.09-5,3.64s-1.94,6.86-.45,8.15c.24-.68.45-1.46.73-2.17a2.31,2.31,0,0,0,1.29,2.49,2,2,0,0,0,.81.23c0,2.37.4,5.09,2.66,6.14.4-.57.14-1.56,1-1.79s1.56.86,1.88,1.53a5,5,0,0,1,.37,3.15c-.27.9-1.4,1.54-1.56,2.35-.5,2.54,2.35,5.59,4.19,7.1.79-.82,2.49-1,3.62-1.4a39.9,39.9,0,0,1,4.88-1.63c3-.62,6.17-.45,9.26-.61-1.12-2.84,2-5.49,3-8.06C446.94,297.49,448,292.08,446.85,288.18Z"/><path class="cls-74" d="M464.48,374.32c0,16.05-9,17.19-20.17,17.19s-20.18-1.14-20.18-17.19,11.55-37,20.18-37C453.54,337.29,464.48,358.28,464.48,374.32Z"/><path class="cls-75" d="M456.11,346.48a40.26,40.26,0,0,1-2,9.66,37.16,37.16,0,0,1-9.6,14.52A76.4,76.4,0,0,1,425.93,384c3.18,6.64,10.21,7.25,18.38,7.25,11.14,0,20.17-1.14,20.17-17.18C464.48,364.85,460.91,354.05,456.11,346.48Z"/><path class="cls-75" d="M456.76,368.64c0,8.34-5.86,15.08-13.11,15.08s-13.12-6.74-13.12-15.08,5.87-15.09,13.12-15.09S456.76,360.3,456.76,368.64Z"/><rect class="cls-76" x="438.81" y="378.28" width="9.56" height="53.72"/><path class="cls-77" d="M452.08,356.9c-1.74,9.1-8.43,17.55-17.06,22.93a12.17,12.17,0,0,0,8.63,3.72c7.25,0,13.11-6.76,13.11-15.08A16.08,16.08,0,0,0,452.08,356.9Z"/><path class="cls-77" d="M444.38,383.66h-.13c-.33,0-.65-.08-1-.11V432h5.09V382.77A9.47,9.47,0,0,1,444.38,383.66Z"/><path class="cls-78" d="M426.59,504.7a4.72,4.72,0,1,1-4.72-4.45A4.59,4.59,0,0,1,426.59,504.7Z"/><path class="cls-79" d="M424.09,504.7a2.23,2.23,0,1,1-2.22-2A2.12,2.12,0,0,1,424.09,504.7Z"/><path class="cls-77" d="M421.64,498.3a6.21,6.21,0,0,0-6,6.4h12A6.22,6.22,0,0,0,421.64,498.3Z"/><rect class="cls-77" x="440.82" y="427.73" width="6.58" height="61.06"/><rect class="cls-74" x="442.6" y="428.44" width="1.52" height="59.18"/><path class="cls-74" d="M440.15,487.62c0,.15,0,.3,0,.46v5.46c0,2.75,1.79,5,4,5s4-2.23,4-5v-5.46a3.46,3.46,0,0,0,0-.46Z"/><path class="cls-77" d="M442.06,497.06c-1.25,0-2.8.19-3.91-.34s-1.53-1.39-2.66-1.88c-3.11-1.34-9.73-2.27-12.9-.69-2.51,1.27-3.82,3.45-3.42,5.69.18,1,1.87,4.05,3.56,3.88.17-.84-.48-1.6-.3-2.44.28-1.3,2-1.8,3.59-2,3.38-.36,6.87.88,10,1.64,2.4.59,7.16,1.5,9.3,0s-2.11-5.07-3.43-3.74Z"/><path class="cls-77" d="M445.47,497.06c1.24,0,2.8.19,3.9-.34s1.54-1.39,2.66-1.88c3.12-1.34,9.73-2.27,12.9-.69,2.51,1.27,3.83,3.45,3.42,5.69-.18,1-1.86,4.05-3.56,3.88-.16-.84.47-1.6.3-2.44-.27-1.3-2-1.8-3.59-2-3.37-.36-6.87.88-10,1.64-2.4.59-7.16,1.5-9.29,0s2.1-5.07,3.43-3.74Z"/><path class="cls-78" d="M470.42,504.7a4.72,4.72,0,1,1-4.71-4.45A4.58,4.58,0,0,1,470.42,504.7Z"/><path class="cls-79" d="M467.92,504.7a2.22,2.22,0,1,1-2.21-2A2.11,2.11,0,0,1,467.92,504.7Z"/><path class="cls-77" d="M465.49,498.3a6.22,6.22,0,0,0-6,6.4h12A6.22,6.22,0,0,0,465.49,498.3Z"/><path class="cls-74" d="M472.8,421.25c0,5.56-12.89,10.07-28.79,10.07s-28.77-4.51-28.77-10.07,10.5-2.36,26.39-2.36S472.8,415.67,472.8,421.25Z"/><path class="cls-77" d="M474.83,428.2c0,2-1.95,3.69-4.35,3.69H416.65c-2.4,0-4.34-1.65-4.34-3.69h0c0-2,1.94-3.69,4.34-3.69h53.83c2.4,0,4.35,1.65,4.35,3.69Z"/><path class="cls-80" d="M167.45,62.13A34.2,34.2,0,0,0,104.5,88.86c3.12,7.37,10.9,13.56,15,16.62,16,11.82,18.91,13.39,23.76,22.89l25.63-10.88c-3.44-9.68-2.33-14.38,0-33C170.22,74.55,170.58,69.49,167.45,62.13Z"/><path class="cls-81" d="M149.6,122.42,139.16,97.89c-1.48-3.48-4-4.1-5.84-2.64-3.07,2.44-1.52,7.67,3.21,5.66l16.56-7c6.13-2.61,2.77-7.66-1.38-5.9s-1.1,7.28.44,10.87l8.1,19"/><path class="cls-82" d="M102.62,68.57a33.75,33.75,0,0,0,2,20.64c3.13,7.36,11.12,13.46,15.27,16.52,16,11.82,19,13.51,23.44,23.07L169,117.92c-3.43-9.68-2.33-14.37,0-33,.12-.92.23-1.79.32-2.63C146.79,114,111,96.66,102.62,68.57Z"/><ellipse class="cls-83" cx="147.02" cy="66.11" rx="17.58" ry="24.57" transform="translate(-9.09 106.31) rotate(-38.65)"/><ellipse class="cls-84" cx="158.77" cy="67.99" rx="5.94" ry="13.99" transform="translate(-12.85 48.58) rotate(-16.73)"/><path class="cls-19" d="M157.42,51.45a27.93,27.93,0,0,1,6.26,6.87,29.62,29.62,0,0,1,3.82,8.57,29.2,29.2,0,0,1,.92,9.34,28.89,28.89,0,0,1-2,9.07,53,53,0,0,0,.69-9.1,36.78,36.78,0,0,0-1.24-8.87A37.79,37.79,0,0,0,162.53,59,48.64,48.64,0,0,0,157.42,51.45Z"/><rect class="cls-85" x="143.68" y="123.12" width="27.33" height="7.09" transform="translate(-36.99 71.58) rotate(-23.01)"/><rect class="cls-86" x="143.84" y="125.89" width="27.33" height="2.3" transform="translate(-37.13 71.67) rotate(-23.01)"/><polygon class="cls-86" points="169.64 136.39 155.81 142.26 147.37 138.14 172.53 127.46 169.64 136.39"/><polygon class="cls-85" points="172.53 127.46 147.37 138.14 150.36 139.6 171.51 130.62 172.53 127.46"/><polygon class="cls-85" points="155.81 142.26 169.64 136.39 170.58 133.47 153.05 140.92 155.81 142.26"/><rect class="cls-87" x="137.77" y="119.93" width="35.78" height="5.25" rx="1.62" transform="translate(-35.52 70.6) rotate(-23.01)"/><rect class="cls-88" x="143.25" y="128.74" width="32.3" height="5.25" rx="1.62" transform="translate(-38.67 72.76) rotate(-23.01)"/><path class="cls-86" d="M158.33,144.23s2.7,2.48,7.32.52,4.56-5.57,4.56-5.57Z"/><path class="cls-89" d="M169.34,135.34l-13.49,5.72a2.44,2.44,0,0,0-1.57,3h0a2.44,2.44,0,0,0,3.26,1L171,139.33a2.42,2.42,0,0,0,1.57-3h0A2.42,2.42,0,0,0,169.34,135.34Z"/><path class="cls-72" d="M568.89,244.85c1.85.62,9,4.14,12.87,5.3a107.8,107.8,0,0,0,21.82,4.39c2.57.19,6,.23,7.91-1.26a3.65,3.65,0,0,0-.59-5.95l1.18.88c-2-5.2-11.05-6.06-17-6.92-5.77-.84-11.51-1.76-17.36-2.17a3.74,3.74,0,0,1-.67-.22,19,19,0,0,1-2.57-1.58c-2.11-1.8-3.59-4-5.48-5.95-2.28-2.29-5.16-4.27-7.61-6.47-2-1.8-4-3.59-5.82-5.47-.18-.18-2.12-3.05-2.4-3.57a2.39,2.39,0,0,1-.2-1.6c.12-1,1.06-2.23.87-3.21a22.75,22.75,0,0,1-.74-3.69c0-.42.24-2.65-.25-2.73s-1.44.74-1.69,1a3.35,3.35,0,0,0-.8,1.86c-.1.54.1,2.65-1.42,2.12-.73-.26-1.12-1.23-1.4-1.74s-.62-1.27-1-1.91q-1.16-2.11-2.48-4.19c-.29-.46-.94-1.65-1.53-.69-.48.76.09,1.91.38,2.63.47,1.2,1,2.4,1.44,3.62.13.38.8,1.91.41,2.2a12.33,12.33,0,0,1-3.35-3.18,17.38,17.38,0,0,0-2.22-3.28c-.28-.32-.83-1.06-1.37-1.19-.91-.21-.92.54-.79,1a30.91,30.91,0,0,0,1.57,3.67,25.08,25.08,0,0,0,1.76,3.13,7.71,7.71,0,0,1-2.48-3c-.33-1-.16-2.32-.76-3.22-1.25.28-1.16,2.44-1.13,3.19a6.53,6.53,0,0,0,1.05,2.53c-.22-.34-.38-.68-.58-1,0,.59-.28,1.18-.28,1.77s.33.81.63,1.22a6.62,6.62,0,0,1,.79,1.38c.16.44.17.84.6,1.19a20.6,20.6,0,0,0,3.07,1.71c1.2.65,2.38,1.27,3.63,1.85a11.15,11.15,0,0,1,1.4.61,2.85,2.85,0,0,1,.77,1c.56.88,2.8,4.14,3.24,4.74s.62,1,.77,1.3a52.39,52.39,0,0,0,6.08,8.93c2.11,2.62,4.63,5.12,7,7.59.68.7,1.08,1.63,1.79,2.28A7.87,7.87,0,0,0,568.89,244.85Z"/><polygon class="cls-90" points="557.48 220.28 549.66 223.96 547.16 220.9 554.99 217.23 557.48 220.28"/><path class="cls-90" d="M549.48,222.11c.43,2.51,2.42,5.32,3.54,7.71a61,61,0,0,0,5.25,9c.84,1.2,1.78,2.35,2.67,3.53a15.46,15.46,0,0,0,.94,1.64c.85.7,1.82,0,2.58.44.6.32,0,.94.46,1.39.59.65,1.45.34,2.3.58a5.09,5.09,0,0,1,1.67,1c2.14,1.47,5.46,1.74,7.94,3a81,81,0,0,0,19.59,6.78c4.91,1,13,.51,16.52-2.56,3.68-3.22.56-8.05-3-10.69-3.11-2.35-6.93-3.17-11.18-3.65-5.13-.57-10.1-1.63-15.24-2-1.55-.1-3.93.11-5.33-.42a9.47,9.47,0,0,1-2.49-2c-1.93-1.73-4.47-3.24-5.91-5.27a22.29,22.29,0,0,0-6.75-6,42.5,42.5,0,0,1-4-2.77c-.6-.46-1.66-1.74-2.46-2-1-.31-5.85,1.72-7,2.38Z"/><path class="cls-91" d="M549.57,222.79c.63,2.33,2.36,4.86,3.38,7a61,61,0,0,0,5.25,9c.84,1.2,1.78,2.35,2.66,3.53a17.39,17.39,0,0,0,.95,1.64c.85.7,1.82,0,2.58.44.6.32.05.94.46,1.39.59.65,1.45.34,2.3.58a5.09,5.09,0,0,1,1.67,1c2.14,1.47,5.46,1.75,7.94,3a81,81,0,0,0,19.59,6.78c4.91,1,13,.51,16.52-2.56a4.46,4.46,0,0,0,1.64-3.25C586.79,251.8,564.29,240.92,549.57,222.79Z"/><path class="cls-92" d="M632.86,424.43a13.07,13.07,0,0,0,.82-10.53,40.32,40.32,0,0,0-2.21-5.59,22.68,22.68,0,0,0-1.86-3.47,15.3,15.3,0,0,1,2.68-1.25,11.73,11.73,0,0,0,2.57-1.51c.63-.52.6-.4,1.29.15a21.82,21.82,0,0,0,2.38,1.58c1.05.62,2.11,1.26,3.15,1.85a7.19,7.19,0,0,1,1.77,1.1,3.57,3.57,0,0,1,.95,1.37A3.38,3.38,0,0,1,644,410c-.8,2.53-1.59,5.15-2.62,7.59-.85,2.08-1.25,4.19-2.53,6.08a4.2,4.2,0,0,1-3.87,1.73c-.71-.08-1.38-.66-2-.68Z"/><path class="cls-93" d="M647.68,409.89a5.18,5.18,0,0,0-1.65-2.21,8.44,8.44,0,0,0-2.63-1.57c-.56-.18-1.75-.71-2.28-.33l.16-.21c-.48.35-.76,1.44-1,2a21.82,21.82,0,0,0-1.15,3.45c-.51,2.39-.82,4.9-1.1,7.35-.16,1.47,0,3.42-.85,4.73a4.89,4.89,0,0,1-2.23,1.63c-.54.13-1-.17-1.47-.28s-.67.07-1,.52c-.52.72-1.54,1-2.2,1.57a5.26,5.26,0,0,0-1.59,2.67c-.16.67-.22.89.63,1.05a5.73,5.73,0,0,0,2.22-.14,20.11,20.11,0,0,0,4.81-1.8c1.27-.66,2.65-1.13,3.84-1.89,3.22-2.12,2.76-5.89,3.4-9.1a5.74,5.74,0,0,1,1.1-2.5c1.42-.57,5.24,5.17,5.79,5.94a13.38,13.38,0,0,0,1.22-.71c-1.09-1.66-2.87-3.41-3.05-5.3S648.55,411.41,647.68,409.89Z"/><path class="cls-92" d="M602.49,360.69a5.76,5.76,0,0,1-.64-.77,11.76,11.76,0,0,1-4.1,2.85l-.1.05c-2.1,1.28-4.34,2.42-6.68,3.61l-.35.16,0,.05c2.59,3.83,7.14,4.56,10.37,7.78,3.43,3.42,6.8,7,10.28,10.51,6.65,6.71,14.08,16.58,20.16,23.38a64.94,64.94,0,0,0,4.68-6.08c-2-1.38-6.67-12.44-7.92-14.67-2.2-3.91-4-8-6.7-11.67a52.36,52.36,0,0,0-8.61-9C609.78,364.26,605.27,363.25,602.49,360.69Z"/><path class="cls-92" d="M593.13,336.87c-.22,4.77-3.51,14.65-2.66,28.44.23,3.82,4.89,5.94,10,3.66,6-2.68,7.08-9.86,7.36-14.68.22-3.78.83-9.24-4.27-11-2.77-.95-6.26-2.41-8.25-4.18Z"/><path class="cls-94" d="M587.07,432.2a17.54,17.54,0,0,0,8.46-8.09,41.07,41.07,0,0,0,2.35-5.54,19.65,19.65,0,0,0,1.07-3.68,17,17,0,0,1,3.09.27,14.18,14.18,0,0,0,3.19,0c.88-.11.76,0,.92.74a13.94,13.94,0,0,0,.75,2.4c.38,1,.76,2,1.16,3a4.77,4.77,0,0,1,.61,1.73,2.92,2.92,0,0,1-.25,1.55,4.47,4.47,0,0,1-1.72,1.35c-2.51,1.67-5.09,3.4-7.73,4.87-2.22,1.26-4.1,2.78-6.54,3.69A4.7,4.7,0,0,1,588,434c-.51-.4-.62-1.19-1.13-1.51Z"/><path class="cls-93" d="M609.76,427.55a4.24,4.24,0,0,0,.3-2.56,5.74,5.74,0,0,0-.95-2.52c-.31-.41-.89-1.4-1.59-1.35l.29-.09a7.57,7.57,0,0,0-2.26,1.12,31,31,0,0,0-3.49,2.23c-2.18,1.68-4.29,3.55-6.32,5.39-1.22,1.11-2.57,2.73-4.19,3.4a6.25,6.25,0,0,1-3,.25c-.53-.15-.65-.59-1-.92s-.6-.26-1.2-.06c-1,.33-2,.05-2.93.21a7.84,7.84,0,0,0-3.26,1.4c-.62.47-.83.61-.26,1.14a4.67,4.67,0,0,0,1.89.94A21.33,21.33,0,0,0,587,437c1.5.08,3,.35,4.48.3,4.15-.17,6.58-3.42,9.47-5.7a8.41,8.41,0,0,1,2.73-1.48c1.57.21.4,6.64.26,7.53.5,0,1,0,1.52,0,.35-1.85.21-4.1,1.46-5.72S609.34,429.19,609.76,427.55Z"/><path class="cls-94" d="M595.88,365.6c-.74,4.32,2.38,7.07,2.59,11.2.23,4.39.31,8.86.49,13.35.39,8.56-.94,20.05-1.08,28.42,3.19-.87,5.28-1.59,8.27-2.67-.57-2,3.84-13.19,4.48-15.58,1.13-4.19,2.71-8.34,3.25-12.57a39.25,39.25,0,0,0-.25-11.36c-.6-3.6-3.48-6.56-3.82-9.95-.39-3.7,11.3-29.13,5.44-30.74-3.49-1-18.38-1.15-20.38,1.44-2.24,2.91,1.41,25.18,1,28.46Z"/><path class="cls-72" d="M605.84,205.56c-5.1-.89-12.34,3.62-11.76,8.2.13,1,.48,2-.31,3-.58.69-1.86.89-2.41,1.6-.9,1.18.19,1.24.9,2,1.1,1.18-.31,1.35-.26,2.43,0,.52.72.5.85,1s-.28,1.09-.24,1.45.45.59.41,1-.65.91-.83,1.37c-.69,1.82,4.54,2.4,6.33,2.92,2.52.73,1,3,1.47,5.12.29,1.19,1.3,5,2.94,3.13.77-.86.94-2.13,1.58-3.06,1-1.45,2.9-2.16,4.69-2.7,1.47-.45,2.14-.36,2.77-1.61.44-.86.57-1.85,1-2.7.55-1,1.5-1.45,2.41-2.24a10.19,10.19,0,0,0,2.51-3.51,14,14,0,0,0,.92-8.16c-.72-5-7.63-10.72-14-9.36Z"/><path class="cls-91" d="M599.59,235.23c-.29,2.36,1.28,4.85,1.54,7.15,1.22-.46,2.4-1.69,3.48-2.42a27.8,27.8,0,0,1,4.73-2.56A25.33,25.33,0,0,1,613,236c1.52-.39,1.94-.37,1.36-1.66,0-.08,0-.08,0,0-1.21,1.38-4.41,1.94-6.25,2.75-2.2,1-4.2,1.9-6.24,3-.93-1.32-2.11-3.41-2-4.94a.86.86,0,0,0-.59.22Z"/><path class="cls-95" d="M597,205.66c-1.85.89-5.29,3.29-3.84,5.4a1.74,1.74,0,0,0,1.06.71c.29.06.73-.16,1-.07s.3.46.54.59.82,0,1.18.08.41.3.71.42.74.08,1,.24.19.44.32.65a4.12,4.12,0,0,0,1,.93,4.83,4.83,0,0,0,2.33,1,24.63,24.63,0,0,0,3.25.58,3.58,3.58,0,0,1,3.35,3.36c.45-1.4,2.87-.84,3.05.44.14,1-1.23,2.29-2.33,2.49-.2,1.18.81,2.5,1.36,3.53a6.4,6.4,0,0,0,2.54,2.57c.49-.86,2.21-1.14,3.1-1.63a18.09,18.09,0,0,0,3.56-2.62,22.19,22.19,0,0,0,3.22-4,3.25,3.25,0,0,0,.72-2c.15-1-.11-5.62.1-6.66.33-1.55,1.15.23.36-1.11a13.15,13.15,0,0,0-4.4-4.34c-1.48-.87-2.27-2.83-4-3.37-1.16-.38-1.64-1.19-7.81-1.18Z"/><path class="cls-96" d="M617.19,203.51c-.51-1.23-2.75-2-4.14-2.33a18.08,18.08,0,0,0-8.34-.06c-3.18.68-6.72,1.85-9.07,3.83-1.12.94-2.5,2.41-2.74,3.75-.16.94-.31,2.51,1,2.87.92.25.81,0,.85-.71a4.69,4.69,0,0,1,1.86-3,12.67,12.67,0,0,1,5.56-2.41c.57-.12,4.71-.83,4.85-.08.08.4-1.26,1.33.16,1.13,1.12-.15,1.94-1,3-1.21.11.52-.59,1,.26,1.28s1.37-.25,2.08-.31c-.06,1.29,2.21,1.74,3.35,1.3a2.35,2.35,0,0,0,1.37-1.84c.09-.45.41-2.44-.45-2.42Z"/><path class="cls-95" d="M615.8,205c.39.1.92,1,1.17,1.28a14.26,14.26,0,0,1,1.37,2.13,23.56,23.56,0,0,1,1.66,4,12.53,12.53,0,0,1,.32,3.61c.21-.28,1.53.16,1.95.2a8.25,8.25,0,0,0,3.78-.74,6.69,6.69,0,0,0,4.14-7.22,4.77,4.77,0,0,0-.67-2.07A7.59,7.59,0,0,0,628,204.4a19.45,19.45,0,0,0-3.89-2.3,7.67,7.67,0,0,0-6.58.71,3.1,3.1,0,0,0-1.29,1.38c-.11.26-.26.79-.57.91Z"/><path class="cls-97" d="M599.57,234.88l.19,0h0Z"/><path class="cls-97" d="M623,267.06a40.67,40.67,0,0,0,2.3-10.49c.14-3.71-1.28-7.27-2.62-10.76-1.05-2.75-2.29-6-4.65-8.21-1.09-1-2.67-1.8-3.68-3-.7-.8-.64-2.76-1.35-2.86-1.52-.45-6.25,1.71-7.67,2-1.76.32-4.11.8-5.59,1.1-1,1-.58,2.87-.83,4.09-.07.31-.16.64-.23,1-.63.89-1.23,2.25-1.67,2.73-1.73,1.9-3.54,3.84-5.49,5.61-2.32,2.12-6.13,4.59-6.78,7.43a8,8,0,0,0,1.91,7.22c1.25,1.48,3.85,3,4.36,4.8-3.23.43-.89,3.3-.13,4.32,1.16,1.56-1.58,1.49-.19,3.42,1,1.46-2,11,1.62,11.13,2.93.53,23.29.35,28.26,1-.26-1.3-1.1-2.52-1.32-3.87a13.76,13.76,0,0,1,.41-5C620.52,274.75,621.84,270.9,623,267.06Z"/><rect class="cls-98" x="509.1" y="199.58" width="72.57" height="3.36" transform="translate(-30.71 279.13) rotate(-27.95)"/><rect class="cls-99" x="510.62" y="202.56" width="72.57" height="3.11" transform="translate(-31.88 280.14) rotate(-27.95)"/><rect class="cls-98" x="512.07" y="205.3" width="72.57" height="3.11" transform="translate(-32.99 281.15) rotate(-27.95)"/><rect class="cls-99" x="513.59" y="208.04" width="72.57" height="3.36" transform="translate(-34.16 282.16) rotate(-27.95)"/><path class="cls-100" d="M584.64,193.17c-1.47.78-3,.73-3.49-.12l-4.43-8.35c-.45-.84.39-2.17,1.86-2.95l9.89-5.25c1.47-.78,3-.72,3.49.12l4.42,8.35c.45.84-.38,2.17-1.85,2.95Z"/><rect class="cls-101" x="578.69" y="181.3" width="4.7" height="12.93" transform="translate(-20.23 294.21) rotate(-27.95)"/><path class="cls-98" d="M499,230.78c-.59.59-.93,1.1.49.78l5.77-1.32-1.89-3.56C501,228.89,499.19,230.59,499,230.78Z"/><path class="cls-102" d="M512.55,216.78a106.08,106.08,0,0,1-9.18,9.9l1.89,3.56a105,105,0,0,1,13.35-2Z"/><rect class="cls-103" x="577.8" y="182.63" width="1.45" height="12.93" transform="translate(-21.15 293.19) rotate(-27.95)"/><path class="cls-72" d="M572,240.83c1.84.62,9,4.19,12.83,5.37a107.05,107.05,0,0,0,21.77,4.52c2.56.21,6,.27,7.92-1.21a3.64,3.64,0,0,0-.54-5.95l1.18.89c-2-5.22-11-6.13-16.94-7-5.76-.87-11.5-1.83-17.33-2.27a3.28,3.28,0,0,1-.67-.22,17.72,17.72,0,0,1-2.55-1.6c-2.1-1.81-3.56-4.08-5.43-6-2.26-2.31-5.12-4.3-7.55-6.52-2-1.81-4-3.62-5.77-5.5-.18-.19-2.09-3.07-2.37-3.58a2.48,2.48,0,0,1-.18-1.61c.12-1,1.08-2.23.9-3.21a21.66,21.66,0,0,1-.7-3.69c0-.42.26-2.65-.23-2.73s-1.45.73-1.7,1a3.45,3.45,0,0,0-.82,1.86c-.1.54.08,2.65-1.44,2.1-.73-.26-1.11-1.23-1.39-1.74s-.6-1.28-.95-1.92c-.75-1.41-1.57-2.81-2.44-4.21-.28-.45-.91-1.65-1.52-.69-.48.76.08,1.91.36,2.63.45,1.2,1,2.41,1.4,3.62.13.39.78,1.93.4,2.21a11.9,11.9,0,0,1-3.33-3.21,17.54,17.54,0,0,0-2.18-3.29c-.29-.31-.83-1.06-1.36-1.19-.91-.22-.92.54-.8,1a29.13,29.13,0,0,0,1.54,3.67,24.16,24.16,0,0,0,1.72,3.14,7.8,7.8,0,0,1-2.45-3c-.32-1-.13-2.32-.72-3.23-1.26.28-1.19,2.44-1.17,3.18a6.76,6.76,0,0,0,1,2.54c-.2-.33-.37-.68-.56-1,0,.59-.29,1.18-.3,1.77s.32.81.62,1.22a6.58,6.58,0,0,1,.77,1.39c.16.44.17.83.6,1.19a20,20,0,0,0,3.05,1.73c1.19.65,2.37,1.28,3.61,1.87a9.28,9.28,0,0,1,1.39.62,2.8,2.8,0,0,1,.76,1c.56.89,2.77,4.17,3.2,4.76s.61,1,.75,1.31a52.64,52.64,0,0,0,6,9c2.08,2.63,4.58,5.15,6.95,7.63.67.7,1.07,1.64,1.77,2.29A7.94,7.94,0,0,0,572,240.83Z"/><path class="cls-104" d="M620,285.71c-8.55,1.5-18.21,1.47-29,.52-.63.74-.85,2.24-1.31,2.95-1.25,2-6.07,28.74-3.08,39.76,1.23,4.49,2.61,8.94,3.8,13.41.68.07,1.37.12,2.05.16,6.38.37,13.12,1,19.49.3,2-.22,4-.5,6-.76a8.51,8.51,0,0,1,.45-.91c8.42-14.71,12.41-33,6.08-47.65A64.7,64.7,0,0,0,620,285.71Z"/><g class="cls-105"><path class="cls-97" d="M596.41,243.29c-1.55,1.68-3.15,3.38-4.87,4.94-2.32,2.12-6.13,4.59-6.78,7.43a8,8,0,0,0,1.91,7.22c1.25,1.48,3.85,3,4.36,4.8-3.23.43-.89,3.3-.13,4.32,1.16,1.56-1.58,1.5-.19,3.42,1,1.47-2,11,1.62,11.13,2.93.53,14,1,14.72.94C596.87,275.24,594.63,258.28,596.41,243.29Z"/></g><polygon class="cls-97" points="560.86 216.19 553 219.81 550.54 216.74 558.4 213.12 560.86 216.19"/><path class="cls-97" d="M552.84,218c.41,2.51,2.37,5.33,3.47,7.73a60.7,60.7,0,0,0,5.17,9c.83,1.2,1.76,2.36,2.63,3.55a15.46,15.46,0,0,0,.93,1.64c.84.71,1.82,0,2.58.45.59.33,0,.94.44,1.4.59.66,1.45.35,2.3.6a4.91,4.91,0,0,1,1.66,1c2.12,1.48,5.44,1.77,7.91,3a80.53,80.53,0,0,0,19.52,6.9c4.9,1,13,.59,16.55-2.46,3.71-3.2.63-8-2.85-10.71-3.09-2.36-6.91-3.21-11.15-3.71-5.12-.61-10.09-1.7-15.22-2.05-1.55-.11-3.93.08-5.33-.46a9.21,9.21,0,0,1-2.46-2c-1.92-1.73-4.44-3.26-5.87-5.3a22,22,0,0,0-6.69-6.09,43.65,43.65,0,0,1-4-2.79c-.59-.46-1.63-1.75-2.43-2-1-.32-5.87,1.69-7,2.34Z"/><path class="cls-91" d="M552.93,218.65c.61,2.33,2.31,4.87,3.31,7a59.83,59.83,0,0,0,5.17,9c.83,1.2,1.76,2.36,2.63,3.55a15.46,15.46,0,0,0,.93,1.64c.84.71,1.82,0,2.58.45.59.33,0,.94.44,1.4.59.66,1.45.35,2.3.6a4.78,4.78,0,0,1,1.65,1c2.13,1.48,5.45,1.77,7.92,3a80.53,80.53,0,0,0,19.52,6.9c4.9,1,13,.59,16.54-2.46a4.48,4.48,0,0,0,1.68-3.24C589.87,247.89,567.48,236.87,552.93,218.65Z"/><path class="cls-106" d="M266.69,123H230.44a3.58,3.58,0,0,0-3.58,3.58v25.89a3.58,3.58,0,0,0,3.58,3.58h1.95v9l9-9h25.34a3.58,3.58,0,0,0,3.58-3.58V126.62A3.58,3.58,0,0,0,266.69,123Z"/><polygon class="cls-19" points="265.23 130.61 255.78 133.28 258.42 135.84 253.51 140.88 243.7 133.7 232.43 145.58 234.22 147.28 243.99 136.96 253.79 144.13 260.18 137.56 262.82 140.13 265.23 130.61"/><path class="cls-107" d="M42.27,202.77a14.51,14.51,0,1,1-14.51-14.51A14.51,14.51,0,0,1,42.27,202.77Z"/><path class="cls-108" d="M561.87,56.89a14.51,14.51,0,1,1,16.46-12.25A14.51,14.51,0,0,1,561.87,56.89Z"/><path class="cls-109" d="M17.88,171.82a8.94,8.94,0,1,1-8.94-8.93A8.94,8.94,0,0,1,17.88,171.82Z"/><path class="cls-110" d="M589.68,22.93a8.94,8.94,0,1,1,10.14-7.55A8.94,8.94,0,0,1,589.68,22.93Z"/></g></g></g></svg>