<svg xmlns="http://www.w3.org/2000/svg" xmlns:xlink="http://www.w3.org/1999/xlink" viewBox="0 0 772.49 502.51"><defs><linearGradient id="linear-gradient" x1="20.26" y1="227.18" x2="54.8" y2="227.18" gradientUnits="userSpaceOnUse"><stop offset="0" stop-color="#0080ff"/><stop offset="0.28" stop-color="#017dfb"/><stop offset="0.55" stop-color="#0373f0"/><stop offset="0.8" stop-color="#0663dd"/><stop offset="1" stop-color="#0a52c9"/></linearGradient><linearGradient id="linear-gradient-2" x1="384.72" y1="101.28" x2="419.27" y2="101.28" gradientTransform="matrix(0.91, 0.41, -0.41, 0.91, 43.38, -159.11)" xlink:href="#linear-gradient"/><linearGradient id="linear-gradient-3" x1="423.49" y1="67.41" x2="444.78" y2="67.41" gradientTransform="matrix(0.91, 0.41, -0.41, 0.91, 43.38, -159.11)" xlink:href="#linear-gradient"/><linearGradient id="linear-gradient-4" x1="0.15" y1="242.59" x2="772.49" y2="242.59" xlink:href="#linear-gradient"/><linearGradient id="linear-gradient-5" x1="613.28" y1="50.76" x2="606.76" y2="29.35" gradientTransform="matrix(-1, -0.02, -0.02, 1, 945.51, 26.42)" gradientUnits="userSpaceOnUse"><stop offset="0" stop-color="#fff"/><stop offset="0.25" stop-color="#c6c0b9"/></linearGradient><clipPath id="clip-path"><path d="M344.24,55c-1,1.29-6.37,5.39-9.36,5s-7.87-3.22-8.76-5.46c-.87.93-4.1,3.38-4.1,3.38l11,47.44,14.51-45.89Z" style="fill:none"/></clipPath></defs><title>Asset 1</title><g style="isolation:isolate"><g id="Layer_2" data-name="Layer 2"><g id="Isolation_Mode" data-name="Isolation Mode"><ellipse cx="364.24" cy="480.88" rx="356.38" ry="21.63" style="fill:#517793;opacity:0.15;mix-blend-mode:multiply"/><path d="M54.8,227.18a17.27,17.27,0,1,1-17.27-17.27A17.27,17.27,0,0,1,54.8,227.18Z" style="fill:url(#linear-gradient)"/><path d="M360,111.77a17.27,17.27,0,1,1,23.84-5.33A17.28,17.28,0,0,1,360,111.77Z" style="fill:url(#linear-gradient-2)"/><path d="M406.67,88.34a10.64,10.64,0,1,1,14.69-3.29A10.65,10.65,0,0,1,406.67,88.34Z" style="fill:url(#linear-gradient-3)"/><path d="M125.68,465.39S5,417.89,2.4,337.31C0,263.67,60.91,269.42,74.45,239.65c24-52.83-56.84-70.44-72-117.67C-11.27,79.51,38,13.2,129.68,20.31,222.54,27.52,299.39,119.58,353,127.58s125.68-89.66,229-52c66,24,103.92,100.3,51.56,207.85s135,126.76,139,180.39Z" style="fill:url(#linear-gradient-4)"/><ellipse cx="81.68" cy="467.52" rx="41.37" ry="6.07" style="fill:#517793;opacity:0.15;mix-blend-mode:multiply"/><path d="M48.9,378.23l.56.21a7.88,7.88,0,0,1-1.18.41A.69.69,0,0,1,48.9,378.23Z" style="fill:#005600"/><path d="M28.25,379.81c3.37,1.69,5.38,1.87,9,2.05,3,.13,6.51.3,8.71,2.61,1.76,1.82,2,4.88,4.08,6.34,1.35.92,4.28,1.05,5.61,2.45a14,14,0,0,0,.67,2,2.51,2.51,0,0,0-.67-2c-1.37-4.75-3.44-14.55-5.84-14.7l-.38-.12a35.18,35.18,0,0,1,5-2.2c-2.26,3.59,2.77,11.53,3.49,15.42,1.17,6,.39,12-3.76,16.47-7.38,7.92-17.63,3.18-25.36-1.9-4.39-2.88-6.16-6-9.43-9.59-1.34-1.5-3-2.35-4.38-4-1-1.18-1.83-3.41-3.08-4.26-2.69-1.9-5,1.19-7.89.68-1.85-.33-3-1.64-4-3V373.46C9.75,372.58,19.54,375.4,28.25,379.81Z" style="fill:#005600"/><path d="M55.68,393.26a2.51,2.51,0,0,1,.67,2A14,14,0,0,1,55.68,393.26Z" style="fill:#005600"/><path d="M72.57,388.7c1.75-4,4.76-7.17,6.64-11,1.25-2.61,1.17-5.83,2.55-8.37,1.63-3,6-4.44,8.43-6.94s5.8-7.82,9.52-7.52c4.52.37,9.24,6.15,11.78,9.62,2.28,3.17,7.3,8.91,6.88,13.17-3.28-.44-6.63-5.46-9.77-7a32.78,32.78,0,0,0-6-2.58c-3-.76-4.56,4.56-5.1,7.63-.82,4.68-.45,9.42-2.5,13.63-1.25,2.57-3,4.4-4.55,6.83-1.29,2.09-2.88,3.22-3.86,5.54-1.66,4-1.55,8.75-3.16,12.82a39.27,39.27,0,0,1-7.71,12.27,16.9,16.9,0,0,0-3.19,4.34H63.84c-1.25-3.67-.67-8.46-.51-12.06C63.81,408.69,68.43,398,72.57,388.7Z" style="fill:#007500"/><path d="M70.56,350.47c1.65,1.07,2.55,2.76,4.4,3.46,1,.37,4.35.87,4.07,2.3h-.61c-.34-1.66-2.27-.52-3.19-.16-1.24.45-2.77.4-3.89,1.08.19-2-1.53-3.87-2.54-5.35C67.23,349.53,68.73,349.28,70.56,350.47Z" style="fill:#3bd33b"/><path d="M15.62,309.42l-.31-.49c1.37-.25,1.94.9,2.81,1.81a30.09,30.09,0,0,0,4.23,3.11,72.37,72.37,0,0,1,10.22,7.89c5.6,5.56,9.75,12.4,15.56,17.7,2.37,2.14,3,5.52,4.64,8.1s3.65,4.55,5.4,6.85c1.56,2.05,2.8,4.05,3,6.77.22,3-1.45,4.33-3.29,6.23-1.22,1.26-2,4.61-3.77,4.61-2.33,0-3.85-5.85-4.83-7.69-3.66-6.91-6.1-14.53-10.4-21.05A206.85,206.85,0,0,0,24.74,324c-1.87-2.22-3.59-4.62-5.37-6.88-1.19-1.52-2.88-2.6-4.05-4.11a5.12,5.12,0,0,1-1.13-2.48C14.26,309.76,15.11,308.64,15.62,309.42Z" style="fill:#048c04"/><path d="M69.77,350.3a3.31,3.31,0,0,1,.85.3Z" style="fill:#2a992f"/><path d="M57.53,363.61c.38-2.37.41-4.57,1.4-6.87,1.18-2.7,3.09-5.76,6-6.59,1.66-.48,4.39-.81,5.76.5l-.1,0a3.31,3.31,0,0,0-.85-.3,3.31,3.31,0,0,1,.85.3c1.22.68,2.21,2.33,3.55,2.8s4.07.33,4.76,1.83c.38.82-.33,1-.33,1.51,0,1.13.27,1,.76,1.81a11.69,11.69,0,0,1,1.57,4.7c.67,5.88.52,11.72-3,16.68-1,1.44-2.16,3-1.37,4.88s2.55,3.05,3.21,5.26c1.52,5,1.45,15.76-4.31,18.06-4.72,1.9-5.91-6-10.57-5.25-3.29.51-6.33,6.83-8.12.48-.8-2.81.78-5.24.59-7.89-.08-1.37-1.06-2.62-1.56-3.94a30.57,30.57,0,0,1-1.26-4.71c-1.21-5.68-1.42-10.92.63-16.47C56,368.16,57.17,365.93,57.53,363.61Z" style="fill:#37bc37"/><path d="M71.51,357.34c0-.15,0-.27,0-.4a.33.33,0,0,0,0-.06Z" style="fill:#138913;opacity:0.4;mix-blend-mode:multiply"/><path d="M60.83,353.59c1.32-1.9,4.51-4.42,6.9-3.76,1.15.31,1.67,2.42,2.38,3.62a7.54,7.54,0,0,1,1.37,3.49c-2.24,3.77-3.33,9.87-3.71,14.28-.48,5.61-.83,11.18-.83,16.82,0,4.85-.46,11.33,1.28,15.76-2-1.83-5.56-.62-7.39.92-1,.83-1.73,2-3.15,1.12s-1.41-3-1.29-4.33c.17-1.69,1.41-3,1.41-4.71s-1.23-3.66-1.8-5.43a36.24,36.24,0,0,1-2.07-11.66c0-6.48,4.07-11.41,4.4-17.74C58.48,358.58,58.86,356.43,60.83,353.59Z" style="fill:#138913;opacity:0.4;mix-blend-mode:multiply"/><path d="M15.16,309.76a6.5,6.5,0,0,0,2.19,3.55,52,52,0,0,1,3.27,4.35c1.6,2.06,3.78,3.57,5.46,5.59,4.58,5.45,8.2,11.32,12,17.38,3.45,5.51,5.77,11.88,8.29,17.89,1.09,2.6,1.75,5.42,3.18,7.89s3.2,4.5,4.7,6.73L54.7,372c.12.16.24.1.28.28-1.33,2.72-3.08,5.89-6.24,6.66-5.63,1.37-11.13-3.08-14.14-7.55a18.14,18.14,0,0,1-2.5-9.53c0-4-1.66-6.25-3.49-9.63-.83-1.44-2-3.12-2.18-4.83-.18-1.49.4-3,.14-4.48-.44-2.69-3.29-4.53-3.44-7.1,0-1,.6-1.9.3-2.92a16.84,16.84,0,0,0-1.65-2.75c-1.25-2.29-1.94-5.08-3.33-7.26-1.57-2.44-3.43-4.45-4.26-7.35C13.77,314,13.22,310.37,15.16,309.76Z" style="fill:#007200"/><path d="M21.54,315.82c1.44,1.51,1.94,3.7,3.3,5.25,3,3.44,6.19,6.47,8.83,10.33A78.88,78.88,0,0,1,42,346.24c2,4.84,3.75,9.82,6.25,14.39a60,60,0,0,0,3.16,5.29c1,1.56,1.88,3.54,3.12,1.15a29.94,29.94,0,0,0,2.24-6.37c.39-1.7.75-4.06,2.48-4.91.11,1.81-.75,4-.88,5.87A18.14,18.14,0,0,1,57.17,367c-.88,2.35-1.35,5.15-2.74,7.29a13.28,13.28,0,0,1-5.07,4.61c-1.72.8-6.24.65-7.36-1.16,2.63-.48,4.87.75,7.53-.86,2.44-1.49,2.52-3.53,1.42-6-2.56-5.65-5.7-10.74-7.66-16.67a91.59,91.59,0,0,0-14.77-26.61c-2.68-3.46-5.57-6.58-8.06-10.18-.86-1.26-5.68-5.45-4.63-7.4C17.35,312.49,19.63,313.82,21.54,315.82Z" style="fill:#37bc37"/><path d="M15.83,310.07l-.21-.33h.46A1.31,1.31,0,0,0,15.83,310.07Z" style="fill:#44c644"/><path d="M19.41,371.69A15.69,15.69,0,0,0,24.08,375c3.3,1.68,4.47,3.51,5.23,7.19.8,3.88,1.53,6.71,4.09,9.77,3.26,3.88,6.73,7.46,9.7,11.62,1.88,2.65,3,5.52,4.53,8.33,1.12,2.09,3.08,3.51,4.29,5.47.9,1.47,3.26,6,1.21,7.4-.12,0-.13-.06-.13-.11a1.48,1.48,0,0,1,.29-.22H53c.06.08,0,.16,0,.22-.76.63-1.22,1.61-2,2.19a5.36,5.36,0,0,1-5.33.38c-2.94-1.31-3.9-3.49-5-6.29-1.24-3.13-4.27-4.28-6.34-6.68a57.76,57.76,0,0,1-6.43-10.16c-1.57-2.87-3.33-6.19-3.78-9.52-.29-2.26-.25-4.64-.47-6.89a32.2,32.2,0,0,0-.78-5.63c-.68-2.41-2-2.82-3.72-4.28s-5.38-8.54-2.87-10.37C17.47,368.46,18.2,370.43,19.41,371.69Z" style="fill:#007200"/><path d="M53.29,424.4a1.48,1.48,0,0,0-.29.22c0-.06,0-.14,0-.22Z" style="fill:#007200"/><path d="M17.89,362.21l-.71-.89C17.37,361.36,17.62,361.73,17.89,362.21Z" style="fill:#2a992f"/><path d="M15.14,354.55a11.73,11.73,0,0,1,1.22-.77,12.08,12.08,0,0,0-.12,5.08c.32,1.22,1.6,2.24,1.72,3.45l-.07-.1c-.27-.48-.52-.85-.71-.89l.71.89c.39.66.77,1.5,1.07,1.89a24.55,24.55,0,0,0,3.9,4,28.31,28.31,0,0,1,4.85,5.05c1.16,1.75,1.77,3.77,3,5.46,2.23,3.09,5.5,5.09,7.86,8.07,1.48,1.84,2.6,4,4.5,5.41,1.43,1,3.13,1.23,4.77,1.71a18.19,18.19,0,0,1,6.36,3.49c3.36,2.82,4.29,7.15,6.78,10.56,2.34,3.18,4.81,9,3.59,13.11a7.69,7.69,0,0,1-5.36,4.89c-3.3.68-6.27-2.25-8.26-4.59-2.56-3-4.45-6.55-7-9.51-1.93-2.19-4.78-3.07-6.6-5.29a17.88,17.88,0,0,1-3.52-9.34c-.35-2.6-.57-4.55-3.1-5.37-3.13-1-1.7-1.1-2.52-3.95-.49-1.68-2.57-1.18-3-3.36-.37-1.91.6-3.82-.11-5.74-1-2.77-3.65-3.09-5.85-4.4A11.3,11.3,0,0,1,14,368.75c-.65-1.78-1.05-3.7-1.65-5.47A8.62,8.62,0,0,1,15.14,354.55Z" style="fill:#37bc37"/><path d="M61.63,358.88a15,15,0,0,0,.43,2.15A7.59,7.59,0,0,1,61.63,358.88Z" style="fill:#007200"/><path d="M61.61,358.08a5.41,5.41,0,0,0,0,.8A3.69,3.69,0,0,1,61.61,358.08Z" style="fill:#007200"/><path d="M71.34,356.73a1.16,1.16,0,0,1-.16.4s0-.06,0-.08Z" style="fill:#007200"/><path d="M66.13,399.91c.15-2.23-.2-4.48-.09-6.73.12-2.54-.78-2.69-2.43-4.59a25.73,25.73,0,0,1-4.2-7.39,20.21,20.21,0,0,1-1.88-6.91c.16,3.13,3.06,6.74,4.52,9.16,1.28,2.14,2.54,4.87,4.4,6.44.29-3-.31-6.47-.46-9.49-2-.38-3.65-5.24-4.38-6.94-1-2.38-2.37-5.12-2.2-7.83,1.05,5,3.88,9.16,6.56,13.1.3-1.73,0-3.48.23-5.22.16-1.23.87-2.45.88-3.62-1.82.05-4.08-5.21-5-8.86a21,21,0,0,0,5.5,7.67,33.74,33.74,0,0,1,.17-3.64c.16-1,1.14-2.57,1.07-3.45-.1-1.34-2.23-3.74-2.67-5.38-.32-1.16-1-4-.15-4.92.72,3.39,1.49,6.8,3.79,9.46a5.47,5.47,0,0,1,.19-2.22c.3-.61.91-.84,1.22-1.42-.1,2.47-1.71,5.25-2.34,7.64a37.22,37.22,0,0,0-1.1,8.22c-.14,3.89-.62,7.67-.62,11.65,0,6.05-.57,12.64.32,18.52-.1-1.89-2.31-1.48-3.33-2.42-.51-.49-.51-1.18-.79-1.81a10,10,0,0,0-2.06-2.8,24.9,24.9,0,0,1-5.4-10c2.08,2.9,4.16,6,6.06,9C63.11,397,64.1,398.89,66.13,399.91Z" style="fill:#007200"/><path d="M57.53,373.68c0,.2,0,.42,0,.61C57.52,374.1,57.52,373.88,57.53,373.68Z" style="fill:#007200"/><path d="M42.13,391.23a3.39,3.39,0,0,0,1.74,1.14,26.76,26.76,0,0,0,3.58,1.17c2.75.88,6.15,2.27,8.2,4.57,4.24,4.78,8.66,12.82,9.29,19.39a7.4,7.4,0,0,1-7.54,7.86,9.38,9.38,0,0,1-3.29-.53c-1.81-.68-.89-.94-1.79.51-1.87,3-4.34,2.69-7.48,1.65.88-2.63,6.7-1.11,3.86-5.39-1.29-2-5.35-5.82-4.81-8.37,1.33.7,2.55,3,3.78,4.06,1.68,1.51,1.68,1.59,2.78,0,2.87-4,2.32-9.35.17-13.63-2-4.1-6.32-4.95-8.6-8.54-.51-.8-.68-4.4-1.17-5.91C41.51,389.65,41.62,390.58,42.13,391.23Z" style="fill:#007200;opacity:0.5;mix-blend-mode:multiply"/><path d="M40.85,389.25a1.35,1.35,0,0,0-.44-.17l-.16-.49C40.51,388.49,40.68,388.77,40.85,389.25Z" style="fill:#007200;opacity:0.5;mix-blend-mode:multiply"/><path d="M37,367.73c2.3,2,6.2,3.07,9.1,1.92,4.85-1.87,4.56-8.91,4.56-13.29a57.79,57.79,0,0,0-.93-10.49c-.26-1.34-.69-4.89-1.74-5.74l-.31-.48c2.93.76,3.88,5.24,5.13,7.75A25,25,0,0,0,58,354c1.77,1.79.8,5.18.46,7.51-.4,2.77-1.16,5.66-1.84,8.38-1.44,5.74-6.48,10.52-12.3,8.5-4.94-1.73-13.71-8.6-10.64-15.06C34.91,364.44,35.59,366.5,37,367.73Z" style="fill:#007200;opacity:0.5;mix-blend-mode:multiply"/><path d="M59.55,357c-.25,0,0-.19-.14-.31l-.3-.83h.06A4,4,0,0,1,59.55,357Z" style="fill:#007200;opacity:0.5;mix-blend-mode:multiply"/><path d="M50.82,376.55c2.78-2.19.21-3.68.61-6.52.59.65,1.19,2,2.34,1.64s.55-1.2.78-2.13a21.85,21.85,0,0,1,1.26-2.64c.31-.82.46-1.77.81-2.66a8.32,8.32,0,0,0,.48-6,29,29,0,0,1-1.28-5.59c1.09,0,2.65,1.81,3.35,3.26h-.06l.3.83c.11.12-.11.27.14.31a4,4,0,0,0-.38-1.14,2.48,2.48,0,0,1,.38,0c.53,1.82-.36,2.85-.76,4.45-.34,1.29.16,2.79-.15,4.07s-1.39,2.63-1.73,4.09a31.54,31.54,0,0,1-1.15,4.29c-.87,2.32-2.45,4.75-4.78,5.63-2,.76-7.16,1.38-8.78-.56C45.36,377.86,48,378.76,50.82,376.55Z" style="fill:#007200;opacity:0.5;mix-blend-mode:multiply"/><path d="M32.15,292.93c2.18.1,3.14,1.78,4.6,3s3,2.12,4.35,3.76c.6.74,1.08,1.76,1.73,2.42s1.55.82,2,1.34c.8.9.56,2.14,1.08,3,.4.67,1.22.89,1.69,1.54.76,1,.62,2.27,1.18,3.27s1.44,1,2,1.75a35.45,35.45,0,0,1,2.29,4.57c.94,1.94,2.23,3.52,3.15,5.46,1.08,2.28,1,3.93,2.52,6a27.05,27.05,0,0,1,3.5,7.88c1.74,5.56,1.55,9.83.26,15.34l.41-1.09a2.63,2.63,0,0,0,.56,0,20.48,20.48,0,0,0-2.69,4.61c-.48,1.45-.51,4.11-2.26,4.78-3.39,1.31-8.27-5.1-9.86-7.41-6.19-9-8.46-20.57-12.18-30.81-.91-2.5-2-4.69-3-7.08-.92-2.1-.86-4.48-1.66-6.57-1.06-2.73-2.36-3.53-2.58-6.63a25.36,25.36,0,0,0-.47-4.15c-.14-.59-1.1-2.06-1-2.59C28,293.83,30.86,292.86,32.15,292.93Z" style="fill:#37bc37"/><path d="M31.73,295.55l-1.46-.86a1.8,1.8,0,0,1,1.32.42C31.64,295.24,31.68,295.38,31.73,295.55Z" style="fill:#007500;opacity:0.30000000000000004;mix-blend-mode:multiply"/><path d="M31.59,295.11a1.8,1.8,0,0,0-1.32-.42l1.46.86c-.05-.17-.09-.31-.14-.44,2.23,1.52,5.07,6.6,6,8.06a100.19,100.19,0,0,1,6.33,12.49c2.83,6.77,5.77,13.74,7.68,20.85,1.32,4.94,3,9.73,4.29,14.69.75,2.9,2.63,6.41,2.23,9.37-3.85.89-9.06-8.25-10.9-11.12-2.93-4.61-4.51-9.9-6.2-15.14a92.21,92.21,0,0,0-3.81-10.71c-.9-2-1.25-4.1-2-6.13a31.36,31.36,0,0,1-1.9-4.88c-.39-2.08-.3-3-1.36-4.94a11.54,11.54,0,0,1-1.82-4.85,24,24,0,0,0-1-5.05C28.44,295.54,30.8,293.12,31.59,295.11Z" style="fill:#007500;opacity:0.30000000000000004;mix-blend-mode:multiply"/><path d="M74.72,409.46c1.88-1.91,3.93-2.3,5.65-4.61a12.92,12.92,0,0,0,2.74-7.57c.08-2.73-1.72-6-1.27-8.55.51-2.78,4.13-4.44,5-7.22s0-5.53,1.49-8.18,4.21-4.48,6.1-6.92,4-4.83,7.17-4.93c4.38-.14,17.76,11.18,15.7,15.13v-.34c-1.14.93-9.7-6.64-12.26-7.81-6.88-3.14-6.75,4-7.5,9.19-.79,5.56-1.93,12.48-5.12,17.28s-6.5,6.91-7.4,13.2c-.94,6.61-2.41,11.51-7.22,16.08-1.76,1.68-3.93,3.61-5.11,5.92a10.63,10.63,0,0,0-.4,1H68.61a36.13,36.13,0,0,1,1.55-12.49C71.06,415.74,72.59,411.62,74.72,409.46Z" style="fill:#007200;opacity:0.5;mix-blend-mode:multiply"/><path d="M21.59,381.51l-.33-.31c0,2.24-.43,6.53-.31,9.59.11,2.74,1.27,5.17,1.26,7.72-.68-1.92-2.8-3.05-3.51-4.75-.85-1.92-.2-2.21.37-4.68.47-2,1.55-10.64-1.84-9.8-.53,2.74.36,6.88-1.88,8.77-.15-2.61,1.29-9.52-.55-11.35C18.67,377.47,22.5,378.8,21.59,381.51Z" style="fill:#005600;opacity:0.4;mix-blend-mode:multiply"/><path d="M8.09,375.62c.95.26,3.72.51,6.49,1-3.72,3.67-1.84,9.2-7.32,12,2.48-2.44,4.06-7.89,3.59-11.4C6.53,377,4.42,385.56,4.55,389c-2.14-5.08,1.51-8.3,1.91-13-4.42,1.29-6.55,6.13-5.34,10.7A7.17,7.17,0,0,1,0,384.29V380.8a23.84,23.84,0,0,0,1.12-5.46,3.87,3.87,0,0,0-1.12.2v-.67A24,24,0,0,1,8.09,375.62Z" style="fill:#005600;opacity:0.4;mix-blend-mode:multiply"/><path d="M14.8,376.7a.93.93,0,0,1-.22,0,.23.23,0,0,0,.08-.11A1,1,0,0,0,14.8,376.7Z" style="fill:#005600;opacity:0.4;mix-blend-mode:multiply"/><path d="M70.9,356.83a51.56,51.56,0,0,1,7.52-.93c-1.1,2.81.7,3.94,1.8,6.26a13.45,13.45,0,0,1,1,7.1c-1-3.76-1.88-8.26-6.54-8.76-4.88-.53-5,4.26-6.51,7.53a43.9,43.9,0,0,0-1-7.87c-.7-2.25-4.28-4-4.1-6.23C63.49,347.92,73.24,351.85,70.9,356.83Z" style="fill:#007200;opacity:0.5;mix-blend-mode:multiply"/><path d="M91,395.65c2.37-3.63,4-6.55,8.22-8.14,7.06-2.68,16.24-6.75,23.81-6.34a13.26,13.26,0,0,0,5-.56c1.3-.33,5.25-2,5,.92-.12,1.36-6.26,4.21-7.53,5.25-3.37,2.77-4.5,5.41-4.72,9.77-.3,5.83.3,13.91-7.23,13.88-2.55,0-5.1-2.27-7.54-1.64-2.59.64-4.91,4.95-6.28,7.13-3.19,5.08-6.25,10.6-10.18,15.22H67.44c1.14-6,5.21-11.87,8.06-16.69C79.84,407.16,86.43,402.52,91,395.65Z" style="fill:#37bc37"/><path d="M132.74,381.86h-.07a.94.94,0,0,1,.12-.14Z" style="fill:#007200;opacity:0.5;mix-blend-mode:multiply"/><path d="M87.19,412a37.09,37.09,0,0,1,10-11.84,89.53,89.53,0,0,1,17.94-11.41c5.33-2.5,11.33-7.42,17.49-6.89-1.18.95-3.13,1.05-4.66,1.63a70.38,70.38,0,0,0-6.27,3.22c-5.07,2.54-10.09,4-14.68,7.7a176.72,176.72,0,0,0-13.58,12.4c-5.41,5.35-5,12.24-8.86,18.44-.73,1.14-2.77,3.52-4.38,5.89H74.61c2.32-3.1,5.4-5.62,7.89-8.56C85.16,419.43,85.35,415.66,87.19,412Z" style="fill:#007200;opacity:0.5;mix-blend-mode:multiply"/><path d="M132.79,381.72l.89-1.84A2.72,2.72,0,0,1,132.79,381.72Z" style="fill:#007200;opacity:0.5;mix-blend-mode:multiply"/><path d="M90.65,396.64,91,396c-2.19,4.94-5.67,13.26-1.88,18.34,2,2.75,7.3,4.75,10.4,3.15-3.14,4.46-6.26,9.47-9.93,13.69H67.34C69.62,423.19,77,412.55,79,409.77,82.52,404.85,86.59,401.19,90.65,396.64Z" style="fill:#007200;opacity:0.5;mix-blend-mode:multiply"/><path d="M39.46,424.23h58a1.73,1.73,0,1,1,0,3.41h-.84v9c0,13.54-6.28,25.25-15.47,31.06H55.08c-9.19-5.81-15.47-17.52-15.47-31.06v-9h-.15a1.73,1.73,0,1,1,0-3.41Z" style="fill:#5e3601"/><path d="M97.15,424.23H86.82c-2.38,12.32-11.88,20.66-23.73,24.51A119.36,119.36,0,0,1,43.41,453h-.13a32.54,32.54,0,0,0,12.13,14.65h26.1C90.7,461.85,97,450.14,97,436.6v-9h.15a1.73,1.73,0,1,0,0-3.41Z" style="fill:#517793;opacity:0.5;mix-blend-mode:multiply"/><path d="M38.54,425.94H97.77a.9.9,0,0,1,0,1.79H38.54a.9.9,0,0,1,0-1.79Z" style="fill:#517793;opacity:0.5;mix-blend-mode:multiply"/><ellipse cx="679.87" cy="467.52" rx="41.37" ry="6.07" style="fill:#517793;opacity:0.15;mix-blend-mode:multiply"/><path d="M683,378.23l-.56.21a7.51,7.51,0,0,0,1.18.41A.69.69,0,0,0,683,378.23Z" style="fill:#005600"/><path d="M703.63,379.81c-3.37,1.69-5.39,1.87-9,2.05-3,.13-6.51.3-8.72,2.61-1.75,1.82-2,4.88-4.07,6.34-1.35.92-4.28,1.05-5.61,2.45a15.38,15.38,0,0,1-.67,2,2.47,2.47,0,0,1,.67-2c1.37-4.75,3.44-14.55,5.83-14.7l.39-.12a35.18,35.18,0,0,0-5-2.2c2.25,3.59-2.77,11.53-3.5,15.42-1.16,6-.38,12,3.76,16.47,7.39,7.92,17.64,3.18,25.37-1.9,4.39-2.88,6.16-6,9.42-9.59,1.35-1.5,3-2.35,4.38-4,1-1.18,1.84-3.41,3.09-4.26,2.69-1.9,5,1.19,7.89.68,1.85-.33,2.95-1.64,4-3V373.46C722.13,372.58,712.34,375.4,703.63,379.81Z" style="fill:#005600"/><path d="M676.2,393.26a2.47,2.47,0,0,0-.67,2A15.38,15.38,0,0,0,676.2,393.26Z" style="fill:#005600"/><path d="M659.31,388.7c-1.75-4-4.77-7.17-6.64-11-1.25-2.61-1.17-5.83-2.55-8.37-1.63-3-6-4.44-8.43-6.94s-5.81-7.82-9.52-7.52c-4.52.37-9.24,6.15-11.79,9.62-2.27,3.17-7.29,8.91-6.87,13.17,3.27-.44,6.63-5.46,9.77-7a32.49,32.49,0,0,1,6-2.58c3-.76,4.56,4.56,5.1,7.63.82,4.68.44,9.42,2.49,13.63,1.26,2.57,3,4.4,4.56,6.83,1.28,2.09,2.88,3.22,3.85,5.54,1.66,4,1.56,8.75,3.17,12.82a39.42,39.42,0,0,0,7.7,12.27,16.72,16.72,0,0,1,3.2,4.34H668c1.26-3.67.67-8.46.51-12.06C668.07,408.69,663.44,398,659.31,388.7Z" style="fill:#007500"/><path d="M661.32,350.47c-1.65,1.07-2.56,2.76-4.4,3.46-1,.37-4.35.87-4.08,2.3h.62c.33-1.66,2.27-.52,3.19-.16,1.24.45,2.77.4,3.89,1.08-.19-2,1.52-3.87,2.54-5.35C664.65,349.53,663.14,349.28,661.32,350.47Z" style="fill:#3bd33b"/><path d="M716.26,309.42l.31-.49c-1.37-.25-1.94.9-2.81,1.81a30.09,30.09,0,0,1-4.23,3.11,71.8,71.8,0,0,0-10.22,7.89c-5.6,5.56-9.75,12.4-15.56,17.7-2.37,2.14-3,5.52-4.65,8.1s-3.65,4.55-5.39,6.85c-1.57,2.05-2.8,4.05-3,6.77-.21,3,1.46,4.33,3.3,6.23,1.22,1.26,2,4.61,3.76,4.61,2.33,0,3.85-5.85,4.83-7.69,3.67-6.91,6.11-14.53,10.4-21.05A208.78,208.78,0,0,1,707.14,324c1.87-2.22,3.59-4.62,5.36-6.88,1.2-1.52,2.89-2.6,4-4.11a5,5,0,0,0,1.13-2.48C717.62,309.76,716.77,308.64,716.26,309.42Z" style="fill:#048c04"/><path d="M662.1,350.3a3.25,3.25,0,0,0-.84.3Z" style="fill:#2a992f"/><path d="M674.34,363.61c-.37-2.37-.4-4.57-1.39-6.87-1.18-2.7-3.09-5.76-6-6.59-1.67-.48-4.39-.81-5.76.5l.1,0a3.25,3.25,0,0,1,.84-.3,3.25,3.25,0,0,0-.84.3c-1.22.68-2.21,2.33-3.55,2.8s-4.07.33-4.77,1.83c-.37.82.34,1,.34,1.51,0,1.13-.28,1-.76,1.81a11.69,11.69,0,0,0-1.57,4.7c-.67,5.88-.52,11.72,3,16.68,1,1.44,2.16,3,1.37,4.88s-2.55,3.05-3.2,5.26c-1.53,5-1.46,15.76,4.31,18.06,4.71,1.9,5.91-6,10.57-5.25,3.29.51,6.33,6.83,8.12.48.8-2.81-.78-5.24-.6-7.89.09-1.37,1.07-2.62,1.57-3.94a30.57,30.57,0,0,0,1.26-4.71c1.21-5.68,1.42-10.92-.63-16.47C675.89,368.16,674.71,365.93,674.34,363.61Z" style="fill:#37bc37"/><path d="M660.37,357.34c0-.15,0-.27,0-.4s0,0,0-.06Z" style="fill:#138913;opacity:0.4;mix-blend-mode:multiply"/><path d="M671.05,353.59c-1.33-1.9-4.51-4.42-6.9-3.76-1.15.31-1.68,2.42-2.38,3.62a7.54,7.54,0,0,0-1.37,3.49c2.24,3.77,3.32,9.87,3.71,14.28.47,5.61.82,11.18.82,16.82,0,4.85.47,11.33-1.28,15.76,2-1.83,5.57-.62,7.4.92,1,.83,1.72,2,3.14,1.12s1.42-3,1.29-4.33c-.16-1.69-1.4-3-1.4-4.71s1.22-3.66,1.8-5.43A36.24,36.24,0,0,0,678,379.71c0-6.48-4.07-11.41-4.4-17.74C673.39,358.58,673,356.43,671.05,353.59Z" style="fill:#138913;opacity:0.4;mix-blend-mode:multiply"/><path d="M716.71,309.76a6.48,6.48,0,0,1-2.18,3.55,48,48,0,0,0-3.27,4.35c-1.61,2.06-3.78,3.57-5.47,5.59-4.57,5.45-8.19,11.32-12,17.38-3.46,5.51-5.78,11.88-8.3,17.89-1.08,2.6-1.74,5.42-3.17,7.89s-3.2,4.5-4.71,6.73l-.46-1.14c-.12.16-.25.1-.28.28,1.33,2.72,3.07,5.89,6.24,6.66,5.63,1.37,11.13-3.08,14.13-7.55a18.15,18.15,0,0,0,2.51-9.53c0-4,1.66-6.25,3.49-9.63.82-1.44,2-3.12,2.18-4.83.18-1.49-.4-3-.15-4.48.44-2.69,3.29-4.53,3.45-7.1,0-1-.6-1.9-.3-2.92a16.16,16.16,0,0,1,1.65-2.75c1.24-2.29,1.94-5.08,3.33-7.26,1.56-2.44,3.43-4.45,4.25-7.35C718.11,314,718.66,310.37,716.71,309.76Z" style="fill:#007200"/><path d="M710.33,315.82c-1.44,1.51-1.93,3.7-3.29,5.25-3,3.44-6.19,6.47-8.83,10.33a78.92,78.92,0,0,0-8.32,14.84c-2,4.84-3.75,9.82-6.24,14.39-1,1.83-2,3.57-3.16,5.29-1,1.56-1.88,3.54-3.12,1.15a29.43,29.43,0,0,1-2.25-6.37c-.39-1.7-.75-4.06-2.48-4.91-.1,1.81.75,4,.89,5.87a18.14,18.14,0,0,0,1.18,5.38c.88,2.35,1.35,5.15,2.74,7.29a13.28,13.28,0,0,0,5.07,4.61c1.72.8,6.24.65,7.36-1.16-2.63-.48-4.88.75-7.53-.86-2.44-1.49-2.53-3.53-1.42-6,2.56-5.65,5.7-10.74,7.66-16.67a91.36,91.36,0,0,1,14.77-26.61c2.68-3.46,5.57-6.58,8-10.18.87-1.26,5.69-5.45,4.64-7.4C714.53,312.49,712.25,313.82,710.33,315.82Z" style="fill:#37bc37"/><path d="M716.05,310.07c.07-.11.14-.21.21-.33h-.47A1.35,1.35,0,0,1,716.05,310.07Z" style="fill:#44c644"/><path d="M712.47,371.69a15.86,15.86,0,0,1-4.68,3.26c-3.29,1.68-4.47,3.51-5.23,7.19-.79,3.88-1.52,6.71-4.08,9.77-3.26,3.88-6.74,7.46-9.71,11.62-1.87,2.65-3,5.52-4.52,8.33-1.12,2.09-3.09,3.51-4.3,5.47-.9,1.47-3.25,6-1.2,7.4.12,0,.13-.06.13-.11a1.54,1.54,0,0,0-.3-.22h.32c-.07.08,0,.16,0,.22.76.63,1.22,1.61,2,2.19a5.35,5.35,0,0,0,5.33.38c2.93-1.31,3.9-3.49,5-6.29,1.24-3.13,4.27-4.28,6.34-6.68A57.76,57.76,0,0,0,704,404.06c1.57-2.87,3.32-6.19,3.77-9.52.3-2.26.26-4.64.47-6.89A33.17,33.17,0,0,1,709,382c.68-2.41,2-2.82,3.73-4.28s5.38-8.54,2.87-10.37C714.41,368.46,713.67,370.43,712.47,371.69Z" style="fill:#007200"/><path d="M678.58,424.4a1.54,1.54,0,0,1,.3.22c0-.06,0-.14,0-.22Z" style="fill:#007200"/><path d="M714,362.21l.71-.89C714.51,361.36,714.25,361.73,714,362.21Z" style="fill:#2a992f"/><path d="M716.74,354.55a14.3,14.3,0,0,0-1.22-.77,12.08,12.08,0,0,1,.12,5.08c-.32,1.22-1.61,2.24-1.72,3.45l.07-.1c.26-.48.52-.85.71-.89l-.71.89c-.39.66-.77,1.5-1.08,1.89a24.08,24.08,0,0,1-3.89,4,28.31,28.31,0,0,0-4.85,5.05c-1.16,1.75-1.77,3.77-3,5.46-2.23,3.09-5.51,5.09-7.87,8.07-1.47,1.84-2.6,4-4.49,5.41-1.43,1-3.14,1.23-4.77,1.71a18.1,18.1,0,0,0-6.36,3.49c-3.36,2.82-4.3,7.15-6.78,10.56-2.35,3.18-4.81,9-3.59,13.11a7.69,7.69,0,0,0,5.36,4.89c3.29.68,6.26-2.25,8.26-4.59,2.56-3,4.45-6.55,7-9.51,1.92-2.19,4.77-3.07,6.6-5.29a18,18,0,0,0,3.52-9.34c.34-2.6.56-4.55,3.1-5.37,3.13-1,1.7-1.1,2.51-3.95.49-1.68,2.57-1.18,3-3.36.37-1.91-.61-3.82.11-5.74,1-2.77,3.65-3.09,5.85-4.4a11.34,11.34,0,0,0,5.22-5.54c.65-1.78,1-3.7,1.65-5.47A8.64,8.64,0,0,0,716.74,354.55Z" style="fill:#37bc37"/><path d="M670.24,358.88a14.8,14.8,0,0,1-.42,2.15A7.56,7.56,0,0,0,670.24,358.88Z" style="fill:#007200"/><path d="M670.27,358.08a5.45,5.45,0,0,1,0,.8A3.78,3.78,0,0,0,670.27,358.08Z" style="fill:#007200"/><path d="M660.54,356.73a1,1,0,0,0,.16.4s0-.06,0-.08Z" style="fill:#007200"/><path d="M665.75,399.91c-.15-2.23.2-4.48.09-6.73-.13-2.54.78-2.69,2.43-4.59a25.47,25.47,0,0,0,4.19-7.39,19.77,19.77,0,0,0,1.88-6.91c-.15,3.13-3.06,6.74-4.52,9.16-1.28,2.14-2.53,4.87-4.39,6.44-.3-3,.31-6.47.46-9.49,2-.38,3.64-5.24,4.38-6.94,1-2.38,2.37-5.12,2.19-7.83-1,5-3.88,9.16-6.55,13.1-.31-1.73,0-3.48-.23-5.22-.17-1.23-.88-2.45-.89-3.62,1.83.05,4.09-5.21,5-8.86a21,21,0,0,1-5.5,7.67c-.05-1.22,0-2.45-.17-3.64-.16-1-1.14-2.57-1.07-3.45.1-1.34,2.23-3.74,2.67-5.38.32-1.16,1-4,.15-4.92-.72,3.39-1.49,6.8-3.8,9.46a5.3,5.3,0,0,0-.19-2.22c-.29-.61-.9-.84-1.21-1.42.1,2.47,1.71,5.25,2.33,7.64a36.65,36.65,0,0,1,1.11,8.22c.13,3.89.62,7.67.62,11.65,0,6.05.57,12.64-.32,18.52.09-1.89,2.31-1.48,3.32-2.42.51-.49.51-1.18.8-1.81a9.81,9.81,0,0,1,2.06-2.8,25,25,0,0,0,5.39-10c-2.07,2.9-4.16,6-6.06,9C668.77,397,667.77,398.89,665.75,399.91Z" style="fill:#007200"/><path d="M674.34,373.68c0,.2,0,.42,0,.61C674.35,374.1,674.35,373.88,674.34,373.68Z" style="fill:#007200"/><path d="M689.74,391.23a3.35,3.35,0,0,1-1.74,1.14,26.16,26.16,0,0,1-3.57,1.17c-2.75.88-6.16,2.27-8.2,4.57-4.24,4.78-8.66,12.82-9.29,19.39a7.39,7.39,0,0,0,7.53,7.86,9.44,9.44,0,0,0,3.3-.53c1.81-.68.89-.94,1.78.51,1.88,3,4.35,2.69,7.49,1.65-.88-2.63-6.7-1.11-3.86-5.39,1.28-2,5.35-5.82,4.81-8.37-1.34.7-2.56,3-3.78,4.06-1.69,1.51-1.69,1.59-2.78,0-2.87-4-2.33-9.35-.17-13.63,2-4.1,6.31-4.95,8.59-8.54.51-.8.69-4.4,1.18-5.91C690.37,389.65,690.26,390.58,689.74,391.23Z" style="fill:#007200;opacity:0.5;mix-blend-mode:multiply"/><path d="M691,389.25a1.26,1.26,0,0,1,.44-.17l.16-.49C691.37,388.49,691.2,388.77,691,389.25Z" style="fill:#007200;opacity:0.5;mix-blend-mode:multiply"/><path d="M694.92,367.73c-2.3,2-6.21,3.07-9.1,1.92-4.85-1.87-4.56-8.91-4.56-13.29a57.79,57.79,0,0,1,.93-10.49c.25-1.34.69-4.89,1.73-5.74l.32-.48c-2.93.76-3.88,5.24-5.14,7.75a25,25,0,0,1-5.2,6.57c-1.77,1.79-.8,5.18-.46,7.51.4,2.77,1.16,5.66,1.84,8.38,1.43,5.74,6.48,10.52,12.29,8.5,4.94-1.73,13.72-8.6,10.65-15.06C697,364.44,696.29,366.5,694.92,367.73Z" style="fill:#007200;opacity:0.5;mix-blend-mode:multiply"/><path d="M672.33,357c.25,0,0-.19.13-.31l.31-.83h-.06A3.69,3.69,0,0,0,672.33,357Z" style="fill:#007200;opacity:0.5;mix-blend-mode:multiply"/><path d="M681.06,376.55c-2.79-2.19-.22-3.68-.61-6.52-.6.65-1.19,2-2.35,1.64s-.54-1.2-.77-2.13a25.35,25.35,0,0,0-1.26-2.64c-.32-.82-.46-1.77-.81-2.66a8.26,8.26,0,0,1-.48-6,28.22,28.22,0,0,0,1.27-5.59c-1.09,0-2.64,1.81-3.34,3.26h.06l-.31.83c-.1.12.12.27-.13.31a3.69,3.69,0,0,1,.38-1.14,2.42,2.42,0,0,0-.38,0c-.54,1.82.36,2.85.76,4.45.34,1.29-.17,2.79.15,4.07s1.38,2.63,1.73,4.09a31.54,31.54,0,0,0,1.15,4.29c.87,2.32,2.45,4.75,4.78,5.63,2,.76,7.16,1.38,8.78-.56C686.51,377.86,683.86,378.76,681.06,376.55Z" style="fill:#007200;opacity:0.5;mix-blend-mode:multiply"/><path d="M699.73,292.93c-2.18.1-3.14,1.78-4.6,3s-3,2.12-4.36,3.76c-.59.74-1.08,1.76-1.72,2.42s-1.55.82-2,1.34c-.81.9-.56,2.14-1.08,3-.41.67-1.22.89-1.69,1.54-.77,1-.63,2.27-1.19,3.27s-1.44,1-2,1.75a35.45,35.45,0,0,0-2.29,4.57c-.94,1.94-2.23,3.52-3.16,5.46-1.07,2.28-1,3.93-2.51,6a27.05,27.05,0,0,0-3.5,7.88c-1.74,5.56-1.55,9.83-.26,15.34L669,351.2a2.53,2.53,0,0,1-.55,0,20.48,20.48,0,0,1,2.69,4.61c.47,1.45.5,4.11,2.26,4.78,3.39,1.31,8.26-5.1,9.85-7.41,6.19-9,8.46-20.57,12.19-30.81.91-2.5,2-4.69,3-7.08.92-2.1.86-4.48,1.66-6.57,1.06-2.73,2.36-3.53,2.58-6.63a25.34,25.34,0,0,1,.46-4.15c.15-.59,1.1-2.06,1-2.59C703.9,293.83,701,292.86,699.73,292.93Z" style="fill:#37bc37"/><path d="M700.15,295.55l1.46-.86a1.8,1.8,0,0,0-1.32.42A2.28,2.28,0,0,0,700.15,295.55Z" style="fill:#007500;opacity:0.30000000000000004;mix-blend-mode:multiply"/><path d="M700.29,295.11a1.8,1.8,0,0,1,1.32-.42l-1.46.86a2.28,2.28,0,0,1,.14-.44c-2.23,1.52-5.08,6.6-6,8.06A101.52,101.52,0,0,0,688,315.66a166.38,166.38,0,0,0-7.68,20.85c-1.32,4.94-3,9.73-4.29,14.69-.75,2.9-2.63,6.41-2.23,9.37,3.84.89,9.06-8.25,10.89-11.12,2.93-4.61,4.52-9.9,6.2-15.14a94.17,94.17,0,0,1,3.82-10.71c.9-2,1.25-4.1,2-6.13a30.34,30.34,0,0,0,1.89-4.88c.39-2.08.31-3,1.36-4.94a11.55,11.55,0,0,0,1.83-4.85,23.42,23.42,0,0,1,1-5.05C703.43,295.54,701.07,293.12,700.29,295.11Z" style="fill:#007500;opacity:0.30000000000000004;mix-blend-mode:multiply"/><path d="M657.16,409.46c-1.89-1.91-3.93-2.3-5.65-4.61a12.92,12.92,0,0,1-2.74-7.57c-.09-2.73,1.72-6,1.27-8.55-.51-2.78-4.13-4.44-5.06-7.22s0-5.53-1.49-8.18-4.2-4.48-6.1-6.92-4-4.83-7.17-4.93c-4.37-.14-17.75,11.18-15.69,15.13v-.34c1.14.93,9.7-6.64,12.26-7.81,6.87-3.14,6.75,4,7.5,9.19.79,5.56,1.93,12.48,5.11,17.28s6.51,6.91,7.41,13.2c.93,6.61,2.41,11.51,7.21,16.08,1.76,1.68,3.94,3.61,5.11,5.92a7.08,7.08,0,0,1,.4,1h3.74a36.37,36.37,0,0,0-1.55-12.49C660.81,415.74,659.29,411.62,657.16,409.46Z" style="fill:#007200;opacity:0.5;mix-blend-mode:multiply"/><path d="M710.29,381.51l.33-.31c0,2.24.42,6.53.31,9.59-.11,2.74-1.28,5.17-1.26,7.72.68-1.92,2.8-3.05,3.51-4.75.84-1.92.2-2.21-.37-4.68-.48-2-1.55-10.64,1.83-9.8.54,2.74-.35,6.88,1.89,8.77.15-2.61-1.29-9.52.55-11.35C713.21,377.47,709.38,378.8,710.29,381.51Z" style="fill:#005600;opacity:0.4;mix-blend-mode:multiply"/><path d="M723.79,375.62c-.95.26-3.72.51-6.49,1,3.72,3.67,1.84,9.2,7.32,12-2.48-2.44-4.06-7.89-3.6-11.4,4.32-.32,6.44,8.26,6.31,11.68,2.13-5.08-1.52-8.3-1.91-13,4.42,1.29,6.55,6.13,5.34,10.7a7.38,7.38,0,0,0,1.12-2.39V380.8a23.84,23.84,0,0,1-1.12-5.46,3.94,3.94,0,0,1,1.12.2v-.67A24,24,0,0,0,723.79,375.62Z" style="fill:#005600;opacity:0.4;mix-blend-mode:multiply"/><path d="M717.08,376.7a1,1,0,0,0,.22,0,.33.33,0,0,1-.09-.11A1,1,0,0,1,717.08,376.7Z" style="fill:#005600;opacity:0.4;mix-blend-mode:multiply"/><path d="M661,356.83a51.56,51.56,0,0,0-7.52-.93c1.09,2.81-.71,3.94-1.81,6.26a13.45,13.45,0,0,0-.94,7.1c1-3.76,1.87-8.26,6.54-8.76,4.88-.53,5,4.26,6.51,7.53a42.16,42.16,0,0,1,1-7.87c.7-2.25,4.28-4,4.09-6.23C668.39,347.92,658.64,351.85,661,356.83Z" style="fill:#007200;opacity:0.5;mix-blend-mode:multiply"/><path d="M640.9,395.65c-2.37-3.63-4.06-6.55-8.22-8.14-7.07-2.68-16.24-6.75-23.81-6.34a13.26,13.26,0,0,1-5-.56c-1.3-.33-5.25-2-5,.92.12,1.36,6.26,4.21,7.53,5.25,3.37,2.77,4.5,5.41,4.72,9.77.29,5.83-.3,13.91,7.23,13.88,2.54,0,5.1-2.27,7.53-1.64,2.59.64,4.92,4.95,6.28,7.13,3.19,5.08,6.26,10.6,10.18,15.22h22.15c-1.14-6-5.22-11.87-8.06-16.69C652,407.16,645.44,402.52,640.9,395.65Z" style="fill:#37bc37"/><path d="M599.14,381.86h.07a.6.6,0,0,0-.13-.14Z" style="fill:#007200;opacity:0.5;mix-blend-mode:multiply"/><path d="M644.68,412a36.84,36.84,0,0,0-10-11.84,89.18,89.18,0,0,0-17.93-11.41c-5.34-2.5-11.34-7.42-17.49-6.89,1.18.95,3.13,1.05,4.66,1.63,2.11.8,4.11,2.14,6.27,3.22,5.07,2.54,10.08,4,14.67,7.7a174.88,174.88,0,0,1,13.58,12.4c5.42,5.35,5,12.24,8.87,18.44.73,1.14,2.77,3.52,4.38,5.89h5.63c-2.32-3.1-5.41-5.62-7.89-8.56C646.72,419.43,646.52,415.66,644.68,412Z" style="fill:#007200;opacity:0.5;mix-blend-mode:multiply"/><path d="M599.08,381.72l-.89-1.84A2.8,2.8,0,0,0,599.08,381.72Z" style="fill:#007200;opacity:0.5;mix-blend-mode:multiply"/><path d="M641.22,396.64l-.32-.68c2.18,4.94,5.66,13.26,1.87,18.34-2,2.75-7.29,4.75-10.39,3.15,3.13,4.46,6.26,9.47,9.92,13.69h22.23c-2.27-7.95-9.63-18.59-11.63-21.37C649.36,404.85,645.28,401.19,641.22,396.64Z" style="fill:#007200;opacity:0.5;mix-blend-mode:multiply"/><path d="M637.65,424.23h58a1.73,1.73,0,1,1,0,3.41h-.84v9c0,13.54-6.28,25.25-15.46,31.06H653.27c-9.18-5.81-15.47-17.52-15.47-31.06v-9h-.15a1.73,1.73,0,1,1,0-3.41Z" style="fill:#5e3601"/><path d="M695.34,424.23H685c-2.38,12.32-11.87,20.66-23.73,24.51A119.36,119.36,0,0,1,641.6,453h-.13a32.67,32.67,0,0,0,12.13,14.65h26.1c9.19-5.81,15.49-17.52,15.49-31.06v-9h.15a1.73,1.73,0,1,0,0-3.41Z" style="fill:#517793;opacity:0.5;mix-blend-mode:multiply"/><path d="M636.73,425.94H696a.9.9,0,0,1,0,1.79H636.73a.9.9,0,0,1,0-1.79Z" style="fill:#517793;opacity:0.5;mix-blend-mode:multiply"/><path d="M240.63,369.06h0Z"/><ellipse cx="205.73" cy="490.5" rx="22.5" ry="2.5" style="fill:#517793;opacity:0.15;mix-blend-mode:multiply"/><ellipse cx="585.23" cy="487" rx="28" ry="3" style="fill:#517793;opacity:0.15;mix-blend-mode:multiply"/><circle cx="506.19" cy="340.02" r="123.95" transform="translate(-92.17 457.52) rotate(-45)" style="fill:#039"/><circle cx="506.19" cy="340.02" r="111.99" transform="translate(163.17 844.18) rotate(-89.66)" style="fill:#81acef"/><rect x="505.96" y="243.2" width="4.35" height="17.4" style="fill:#039"/><rect x="505.96" y="420.8" width="4.35" height="17.4" style="fill:#039"/><rect x="410.63" y="338.53" width="17.4" height="4.35" style="fill:#039"/><rect x="588.24" y="338.53" width="17.4" height="4.35" style="fill:#039"/><rect x="506.14" y="276.55" width="4.35" height="66.69" style="fill:#039"/><rect x="506.87" y="341.06" width="65.24" height="4.35" style="fill:#039"/><path d="M519.24,343.24a9.47,9.47,0,1,1-9.47-9.47A9.47,9.47,0,0,1,519.24,343.24Z" style="fill:#fff"/><ellipse cx="352.73" cy="465.5" rx="124.5" ry="10.5" style="fill:#517793;opacity:0.15;mix-blend-mode:multiply"/><path d="M255,228c12.68-1.88,15.75-18.34,11.57-31.52s-15.94-19.87-27-21.7c-29.06-4.83-52.06,23.32-48.11,58.14,5,44.49,38.72,66.45,71.11,78.59,15.92,6,47.7,8.94,46.84,36-.54,17.1-15.94,20.59-27.36,20.47-7.66-.09-18-3.92-17.1-15.83.83-11.48,15.49-14.93,10.75-1.82l12.08,1.93c-.13-.9-.26-1.8-.4-2.69-1.5-10.06-14.26-5.84-12.77,4.19.14.9.27,1.8.41,2.7.95,6.38,9.84,8.12,12.08,1.93,3.7-10.22,5.6-24.79-4-31.51-9-6.34-21.81.32-27.27,9.8-6.48,11.25-4.86,26.66,2.64,36.58,9.28,12.27,24.77,12,37.32,8.87,13.05-3.21,23.43-11.27,26.15-27.73,2.52-15.26-2.3-30.26-12.57-39.55-12.23-11.06-29-13.36-43.27-18.69-19.37-7.23-40.54-17.12-52.48-38-11-19.28-15.55-51.15,5.05-64.27,6.93-4.42,15.76-4.94,23.23-2.41,3.44,1.17,7.34,2.93,9.82,6.21,1.16,1.53,5.17,14.12,3.27,14.41-8.34,1.24-8.49,17.16-.05,15.9Z" style="fill:#f7aa00"/><path d="M448.41,154.15,366,153.93l-26.33-.07-82.43-.23c-4.87,0-8.83,4.73-8.85,10.58s3.92,10.62,8.79,10.63h1c-.05,20.11,6,39.67,17.39,54.39,7.51,9.7,17.64,19.68,30.81,26.6,17.95,9.45,29.89,30.28,29.83,53.85v1.52c0,15.41-5.17,30.18-14.26,41.06l-10.31,12.31a31.62,31.62,0,0,0-7,20.1l34.42.09,26.33.07,34.42.09a31.62,31.62,0,0,0-6.87-20.13l-10.24-12.37c-9-10.92-14.09-25.72-14.05-41.14v-1.51c.06-23.58,12.11-44.34,30.12-53.69,13.2-6.85,23.39-16.78,30.95-26.44,11.46-14.66,17.62-34.18,17.68-54.29h1c4.87,0,8.83-4.72,8.85-10.58S453.28,154.16,448.41,154.15Z" style="fill:#f7aa00"/><path d="M340.11,266.81c-4.91-9.74-17.58-27.77-23.24-37.47-7.67-13.12-12.13-30.08-13-47.86-.1-2.16,145-3.95,145-6.13L303.75,175H303c-3.68,0-6.65-4.76-6.64-10.62s3-10.59,6.7-10.58l-45.86-.13c-4.87,0-8.83,4.73-8.85,10.58s3.92,10.62,8.79,10.63h1c-.05,20.11,6,39.67,17.39,54.39,7.51,9.7,17.64,19.68,30.81,26.6,17.95,9.45,29.89,30.28,29.83,53.85v1.52c0,15.41-5.17,30.18-14.26,41.06l-10.31,12.31a31.62,31.62,0,0,0-7,20.1l34.15.09c0-7.55,3-20.61,5.33-33.56C344.08,351.2,348.24,282.92,340.11,266.81Z" style="fill:#d88d00"/><path d="M450.26,228.48c-12.67-2-15.65-18.43-11.39-31.59s16-19.78,27.08-21.55c29.09-4.67,51.93,23.6,47.8,58.39-5.28,44.47-39.08,66.24-71.54,78.21-15.94,5.88-47.74,8.69-47,35.77.45,17.11,15.83,20.68,27.25,20.62,7.67-.05,18-3.82,17.19-15.74-.77-11.49-15.42-15-10.74-1.88l-12.1,1.87.42-2.69c1.55-10.05,14.29-5.76,12.74,4.26-.14.9-.27,1.79-.41,2.69-1,6.39-9.89,8.07-12.1,1.87-3.64-10.24-5.46-24.81,4.14-31.49,9.05-6.29,21.81.44,27.22,9.95,6.42,11.28,4.72,26.68-2.84,36.57-9.34,12.22-24.83,11.83-37.37,8.67-13-3.28-23.36-11.41-26-27.88-2.44-15.27,2.46-30.24,12.78-39.48,12.3-11,29.08-13.2,43.38-18.45,19.4-7.13,40.63-16.91,52.68-37.75,11.11-19.21,15.82-51.05-4.7-64.29-6.91-4.45-15.73-5-23.22-2.53-3.44,1.15-7.35,2.89-9.85,6.15-1.17,1.53-5.25,14.1-3.35,14.39,8.33,1.29,8.4,17.21,0,15.91Z" style="fill:#f7aa00"/><path d="M340.73,192.36a7.91,7.91,0,0,0-1.42-6.53,8.15,8.15,0,0,0-3.25-2.83,3.63,3.63,0,0,0-1.88-.26.93.93,0,0,0-.19,0l-.1,0h0c-2.05.61-11.4,5-13.52,10.81a3.55,3.55,0,0,0-2.28.15l-.24.1c-1.07.53-8,6.89-8.07,13.08a3.41,3.41,0,0,0-1.48.6,3.92,3.92,0,0,0-.46.37c-1.11,1.08-4.63,8.64-2.45,14.29a3.47,3.47,0,0,0-1.11,1.2,1.57,1.57,0,0,0-.14.29l-.06.14h0c-.83,2.45-.42,9.86,3.46,14.1a3.68,3.68,0,0,0-.44,1,2.25,2.25,0,0,0-.06.4,2.88,2.88,0,0,0,0,.59h0c.28,3.29,4.25,10,9.35,12.56a3.2,3.2,0,0,0-.07.63,2.67,2.67,0,0,0,0,.48,3.64,3.64,0,0,0,.26,1l.07,0c1.85,3.79,10.1,9.19,15.5,9.72a12.07,12.07,0,0,0,1.45.08,9.83,9.83,0,0,0,9.27-5.45,10.42,10.42,0,0,0,1.53-1.48c2.44-2.82,3.1-6.12,1.8-9.09s-4.46-5.71-7-7.65l-.22-.17a3.54,3.54,0,0,0-1.87-.93,2.58,2.58,0,0,0-.39,0,21.36,21.36,0,0,0-3-6.62,3.51,3.51,0,0,0-1.49-1.54,19.25,19.25,0,0,0-.2-6.56,3.51,3.51,0,0,0-.69-1.88,20.84,20.84,0,0,0,2.39-6.12,3.54,3.54,0,0,0,.1-2.09,26.7,26.7,0,0,0,5-5.3,3.56,3.56,0,0,0,1-2.16,34.26,34.26,0,0,0,7.46-3.8l.35-.22a3.53,3.53,0,0,0,2-2.78,3.57,3.57,0,0,0-.52-2.28A10.48,10.48,0,0,0,340.73,192.36ZM398,239.21a3.44,3.44,0,0,0-.43-1c3.91-4.24,4.35-11.62,3.54-14.08h0l-.06-.14a2.64,2.64,0,0,0-.14-.29,3.43,3.43,0,0,0-1.12-1.21c2.21-5.66-1.26-13.22-2.36-14.3a3.44,3.44,0,0,0-.46-.38,3.51,3.51,0,0,0-1.48-.61c0-6.27-6.86-12.54-8-13.1l-.2-.09a3.45,3.45,0,0,0-2.36-.19c-2.17-5.83-11.41-10.26-13.44-10.88h0l-.09,0-.2,0a3.66,3.66,0,0,0-2,.27,8.28,8.28,0,0,0-3.19,2.77,8,8,0,0,0-1.47,6.55,10.49,10.49,0,0,0-8.41,5.79,3.55,3.55,0,0,0,1.42,5.08l.35.22a35.1,35.1,0,0,0,7.43,3.84,3.59,3.59,0,0,0,1.11,2.33l0,0a25.82,25.82,0,0,0,4.83,5.14,3.54,3.54,0,0,0,1.32,3.74,3.35,3.35,0,0,1-1.2-1.53,20.32,20.32,0,0,0,2.33,6,3.51,3.51,0,0,0-.71,2.12.49.49,0,0,0,0-.12,19,19,0,0,0-.22,6.44,3.52,3.52,0,0,0-1.56,1.68h0a21.19,21.19,0,0,0-2.95,6.46l-.39,0a3.56,3.56,0,0,0-1.87.92l-.23.17c-2.53,1.92-5.61,4.53-7,7.64-1.31,2.94-.67,6.25,1.76,9.08a10.39,10.39,0,0,0,1.52,1.48,9.84,9.84,0,0,0,9.23,5.51,14.16,14.16,0,0,0,1.44-.07c5.42-.51,13.7-5.87,15.57-9.65l.07,0a3.47,3.47,0,0,0,.26-1,2.81,2.81,0,0,0,.05-.49,2.7,2.7,0,0,0-.07-.63c5.12-2.58,9.12-9.23,9.42-12.5h0a3,3,0,0,0,0-.6A2.28,2.28,0,0,0,398,239.21ZM373.35,219a3,3,0,0,1-.36-.19,2,2,0,0,0,.36.18Zm1.06,9a3.92,3.92,0,0,1-.46-.45,3.27,3.27,0,0,0,.47.44Z" style="fill:#d88d00"/><path d="M317.55,224.52c0-.09-5.68,1.39-8.28-2.49-2.8-4.05.89-11.71,1.06-11.59A34.46,34.46,0,0,0,317.55,224.52Z" style="fill:#ffb11f"/><path d="M317.51,214.56c1.36,3.76-.1,9.88,0,10a34.46,34.46,0,0,1-7.22-14.08C310.4,210.37,316,210.67,317.51,214.56Z" style="fill:#ffc343"/><path d="M318.4,224.53c0,.08,5.52.95,8.47-1.6s3.47-7.24,3.61-7.3A37.75,37.75,0,0,0,318.4,224.53Z" style="fill:#ffc343"/><path d="M321.78,215.46c-4,2.45-3.56,9.15-3.38,9.07a37.75,37.75,0,0,1,12.08-8.9C330.48,215.72,325.59,213.13,321.78,215.46Z" style="fill:#ffb11f"/><path d="M320.25,212.37c.07-.07-6-.08-6.82-4.43-1-4.57,5.87-11.06,6-10.9A29.1,29.1,0,0,0,320.25,212.37Z" style="fill:#ffb11f"/><path d="M324.45,202.79c-.38,4-4.3,9.47-4.2,9.58a29.1,29.1,0,0,1-.81-15.33C319.54,197,324.77,198.67,324.45,202.79Z" style="fill:#ffc343"/><path d="M321.05,212.59c0,.09,4.84,2.28,8.7.56,3.68-1.64,6.41-6.1,6.58-6.13A46.63,46.63,0,0,0,321.05,212.59Z" style="fill:#ffc343"/><path d="M328.12,204.71c-4.93,1.39-7.28,7.92-7.07,7.88A46.63,46.63,0,0,1,336.33,207C336.29,207.11,332.78,203.4,328.12,204.71Z" style="fill:#ffb11f"/><path d="M328,201.35c.11-.06-5.67-1.54-4.49-6,1.08-4.66,11-9.31,11.14-9.13A30.89,30.89,0,0,0,328,201.35Z" style="fill:#ffb11f"/><path d="M336.65,193.07c-2.41,3.78-8.68,8.15-8.62,8.28a30.89,30.89,0,0,1,6.65-15.11C334.82,186.21,339.06,189.13,336.65,193.07Z" style="fill:#ffc343"/><path d="M328.7,201.76a10.11,10.11,0,0,0,8.06,2.68c4.25-.68,9.15-4.37,9.36-4.35A55.21,55.21,0,0,0,328.7,201.76Z" style="fill:#ffc343"/><path d="M339.26,195.84c-5.55.15-10.81,5.91-10.56,5.92a55.21,55.21,0,0,1,17.42-1.67A7.25,7.25,0,0,0,339.26,195.84Z" style="fill:#ffb11f"/><path d="M340,256.86c-.07-.08-1.35,4.56-7.43,3.92-6.45-.64-13-7.58-12.7-7.59A68.78,68.78,0,0,0,340,256.86Z" style="fill:#ffb11f"/><path d="M328.35,250.92c4.84,1.31,11.41,6,11.65,5.94a68.78,68.78,0,0,1-20.13-3.67A8.71,8.71,0,0,1,328.35,250.92Z" style="fill:#ffc343"/><path d="M340.46,256.31c.13,0,4.09-3,2.56-6.52s-6.44-6.59-6.41-6.7A23.14,23.14,0,0,0,340.46,256.31Z" style="fill:#ffc343"/><path d="M331.68,248.66c.46,4.06,8.71,7.81,8.78,7.65a23.14,23.14,0,0,1-3.85-13.22C336.71,243.14,331.17,244.81,331.68,248.66Z" style="fill:#ffb11f"/><path d="M327.42,247.85a8.12,8.12,0,0,1-8.58,1.87c-5.52-2-8.54-9.93-8.29-9.89A55.59,55.59,0,0,0,327.42,247.85Z" style="fill:#ffb11f"/><path d="M319.46,239.75c4,2.37,7.75,8.09,8,8.1a55.59,55.59,0,0,1-16.87-8C310.54,239.74,315.27,237.32,319.46,239.75Z" style="fill:#ffc343"/><path d="M328.1,247.46c.1.06,5.14-1.83,5.4-5.33s-2.95-7.52-2.88-7.63A23.57,23.57,0,0,0,328.1,247.46Z" style="fill:#ffc343"/><path d="M323.56,238.46c-1.32,3.85,4.44,9.14,4.54,9a23.57,23.57,0,0,1,2.52-13C330.69,234.58,324.78,234.8,323.56,238.46Z" style="fill:#ffb11f"/><path d="M319.94,236.71c0-.09-4.81,2.73-8.87-.33-4.3-3.18-3.91-11.32-3.7-11.24A44,44,0,0,0,319.94,236.71Z" style="fill:#ffb11f"/><path d="M315.85,227.25c2.81,3.21,3.92,9.41,4.09,9.46a44,44,0,0,1-12.57-11.57C307.4,225.06,312.87,224,315.85,227.25Z" style="fill:#ffc343"/><path d="M320.75,236.51c.06.07,5.62-.46,7.37-3.63s.35-7.72.46-7.81A29.1,29.1,0,0,0,320.75,236.51Z" style="fill:#ffc343"/><path d="M320.26,227.05c-2.81,3.3.35,9.57.49,9.46a29.1,29.1,0,0,1,7.83-11.44C328.61,225.16,322.92,223.92,320.26,227.05Z" style="fill:#ffb11f"/><path d="M387.68,224.71c0-.09,5.67,1.42,8.3-2.45,2.82-4-.83-11.71-1-11.59A34.37,34.37,0,0,1,387.68,224.71Z" style="fill:#ffb11f"/><path d="M387.77,214.75c-1.38,3.75.05,9.87-.09,10a34.37,34.37,0,0,0,7.3-14C394.91,210.6,389.26,210.87,387.77,214.75Z" style="fill:#ffc343"/><path d="M386.84,224.71c0,.09-5.53.93-8.47-1.65s-3.43-7.25-3.57-7.31A37.82,37.82,0,0,1,386.84,224.71Z" style="fill:#ffc343"/><path d="M383.5,215.63c4,2.47,3.51,9.17,3.34,9.08a37.82,37.82,0,0,0-12-9C374.8,215.84,379.71,213.28,383.5,215.63Z" style="fill:#ffb11f"/><path d="M385.05,212.55c-.07-.08,6-.05,6.85-4.4,1-4.56-5.82-11.09-6-10.93A29,29,0,0,1,385.05,212.55Z" style="fill:#ffb11f"/><path d="M380.9,202.94c.36,4,4.25,9.5,4.15,9.61a29,29,0,0,0,.89-15.33C385.84,197.16,380.6,198.82,380.9,202.94Z" style="fill:#ffc343"/><path d="M384.25,212.76c0,.09-4.85,2.25-8.7.52-3.68-1.67-6.38-6.14-6.55-6.17A46.9,46.9,0,0,1,384.25,212.76Z" style="fill:#ffc343"/><path d="M377.22,204.85c4.93,1.41,7.24,8,7,7.91A46.9,46.9,0,0,0,369,207.11C369,207.2,372.57,203.51,377.22,204.85Z" style="fill:#ffb11f"/><path d="M377.33,201.48c-.11,0,5.67-1.51,4.52-5.95-1.06-4.67-11-9.37-11.09-9.19A31,31,0,0,1,377.33,201.48Z" style="fill:#ffb11f"/><path d="M368.75,193.16c2.39,3.79,8.64,8.19,8.58,8.32a31,31,0,0,0-6.57-15.14C370.62,186.31,366.36,189.21,368.75,193.16Z" style="fill:#ffc343"/><path d="M376.66,201.88a10.11,10.11,0,0,1-8.08,2.65c-4.24-.71-9.12-4.42-9.33-4.41A55.55,55.55,0,0,1,376.66,201.88Z" style="fill:#ffc343"/><path d="M366.13,195.91c5.54.18,10.77,6,10.53,6a55.55,55.55,0,0,0-17.41-1.76A7.25,7.25,0,0,1,366.13,195.91Z" style="fill:#ffb11f"/><path d="M365.06,256.93c.07-.08,1.32,4.56,7.41,4,6.45-.6,13-7.51,12.74-7.53A68.41,68.41,0,0,1,365.06,256.93Z" style="fill:#ffb11f"/><path d="M376.74,251.05c-4.85,1.29-11.43,5.92-11.68,5.88a68.41,68.41,0,0,0,20.15-3.57A8.76,8.76,0,0,0,376.74,251.05Z" style="fill:#ffc343"/><path d="M364.6,256.38c-.13,0-4.07-3.06-2.52-6.54s6.48-6.56,6.45-6.67A23.2,23.2,0,0,1,364.6,256.38Z" style="fill:#ffc343"/><path d="M373.43,248.77c-.49,4.06-8.76,7.77-8.83,7.61a23.2,23.2,0,0,0,3.93-13.21C368.42,243.23,374,244.92,373.43,248.77Z" style="fill:#ffb11f"/><path d="M377.69,248a8.13,8.13,0,0,0,8.57,1.92c5.53-2,8.59-9.89,8.34-9.86A55.45,55.45,0,0,1,377.69,248Z" style="fill:#ffb11f"/><path d="M385.69,239.93c-4,2.34-7.8,8-8,8.06a55.45,55.45,0,0,0,16.91-7.94C394.61,240,389.89,237.52,385.69,239.93Z" style="fill:#ffc343"/><path d="M377,247.59c-.09.06-5.13-1.86-5.37-5.36s3-7.5,2.92-7.61A23.6,23.6,0,0,1,377,247.59Z" style="fill:#ffc343"/><path d="M381.6,238.62c1.3,3.86-4.49,9.11-4.59,9a23.6,23.6,0,0,0-2.45-13C374.49,234.7,380.4,235,381.6,238.62Z" style="fill:#ffb11f"/><path d="M385.23,236.88c0-.09,4.8,2.76,8.87-.27,4.32-3.16,4-11.31,3.76-11.22A44,44,0,0,1,385.23,236.88Z" style="fill:#ffb11f"/><path d="M389.37,227.45c-2.83,3.19-4,9.38-4.14,9.43a44,44,0,0,0,12.63-11.49C397.83,225.3,392.36,224.17,389.37,227.45Z" style="fill:#ffc343"/><path d="M384.42,236.68c-.06.07-5.61-.49-7.35-3.67s-.31-7.72-.42-7.81A29.26,29.26,0,0,1,384.42,236.68Z" style="fill:#ffc343"/><path d="M385,227.23c2.8,3.31-.4,9.57-.54,9.45a29.26,29.26,0,0,0-7.77-11.48C376.62,225.29,382.31,224.08,385,227.23Z" style="fill:#ffb11f"/><rect x="257.94" y="379.14" width="188.44" height="31.25" transform="translate(1.06 -0.95) rotate(0.15)" style="fill:#8c6c5c"/><rect x="234.27" y="395.75" width="235.59" height="69.15" transform="translate(702.97 861.6) rotate(-179.85)" style="fill:#8c6c5c"/><rect x="273.51" y="408.64" width="157.12" height="37.68" transform="translate(702.99 855.9) rotate(-179.85)" style="fill:#ffc343"/><path d="M392.81,11.28A11.73,11.73,0,0,0,393.27,8a7.75,7.75,0,0,1-.1-2l0,0c0-.15,0-.26,0-.26V5.55a3.24,3.24,0,0,0-.93-2.32c-.11-1.07-1.05-2.9-2.21-2.34l-.42,0c-.35-.23-.64-.73-1.09-.84a1.37,1.37,0,0,0-1,.26l-.15,0,0,0a.93.93,0,0,0-1,0c-.34.15-.65.48-1,.66s-.9.47-1.34.7c-.67.36-2.05.56-2.44,1.28a2,2,0,0,0,.33,1.88l0,0h0c-.8-.36-1.62.43-1.88,1.15l-.08.24A6.35,6.35,0,0,0,380.24,8c.35,1.31.3,2.82,1,4a6.55,6.55,0,0,0,2,1.81l.06.05-.06,0a4.89,4.89,0,0,1,.62,2.44,21.41,21.41,0,0,1-.31,3.91c-.18,1.49-.25,7.52-.51,9l8.25-.26c-.08-.49-.46-10.11-.49-10.6a5.94,5.94,0,0,1,.08-2.34h0l0-.14A11.94,11.94,0,0,0,392.81,11.28Z" style="fill:#f6b292"/><path d="M393.27,8a7.75,7.75,0,0,1-.1-2l0,0c0-.15,0-.26,0-.26V5.55c0-.16,0-.34-.06-.53,0,0,0,0,0,0A1.16,1.16,0,0,1,392,5.6c-.45-.1-1.27.31-2.36,1.13a4.73,4.73,0,0,1-2.85.65l0,.06a5.51,5.51,0,0,1-2.3-1.34,1.23,1.23,0,0,1,.38-.74l.93-.34a11.66,11.66,0,0,1,2-.62,14.14,14.14,0,0,0,2.4-.89,6.25,6.25,0,0,1,1.2-.41.86.86,0,0,1,.78,0A3.32,3.32,0,0,0,391,.94c.17.47-.77,2-2.07,2.74a16.55,16.55,0,0,1-4,1.13c-1,.26-1,.91-1,1a1.64,1.64,0,0,1-.52-.77c.22-1.33,1.94-1.72,3.23-2.21A14,14,0,0,0,389.67.9l0,0h-.09c-.28-.19-.53-.55-.85-.74A3.84,3.84,0,0,1,387,2.31a20.58,20.58,0,0,1-3.12,1.23c-.88.34-1.12.81-1.18,1a2.49,2.49,0,0,1-.47-.73h-.09c0-.6,1-1.33.64-1.1l-.13.11a7.4,7.4,0,0,0-.74.9.84.84,0,0,1-.33-.46l-.08.06a2.58,2.58,0,0,0,.47,1.39l0,0h0a.58.58,0,0,0-.17-.06,1.83,1.83,0,0,0,.35.19c.55.24,1.2,1.27,1.82,1.65a4.1,4.1,0,0,1,1,.82l0,.17a.61.61,0,0,1,0,.14c-.13.82-1.43.78-2.12.55A13.83,13.83,0,0,1,380.61,7l.21.48c0,.14-.31.14-.31.14a1.1,1.1,0,0,0,.21.31,3.36,3.36,0,0,1,.89.61c.31.35,0,1.41,0,1.41a8.77,8.77,0,0,1,2-.86s2.68.34,3.16.82.51,2,.51,2a8.25,8.25,0,0,1,1-2.3,1.12,1.12,0,0,1,1-.14c-.2-.27,0-.79,0-.79a4.26,4.26,0,0,0,1.33-.1c-.3-.1-.61-.65-.61-.65a4,4,0,0,0,.79-.51,4.82,4.82,0,0,0,1,0,6,6,0,0,1,0,3.81c-.58,2.16-2.16,4.42-3.39,4s-1.75-2.71-1.75-2.71a3.81,3.81,0,0,1-3.12.86A6.13,6.13,0,0,1,380.82,11v0a4.38,4.38,0,0,0,.41,1,6.55,6.55,0,0,0,2,1.81l.06.05-.06,0a1.45,1.45,0,0,1,.22.36,8.08,8.08,0,0,1,2.48.82,5,5,0,0,0,3,1.44c.58.07,1.81,1.24,1.81,1.24h0a4.36,4.36,0,0,1,.13-1.69h0l0-.14a11.94,11.94,0,0,0,2-4.61A11.73,11.73,0,0,0,393.27,8Z" style="fill:#e38b69;opacity:0.39"/><path d="M381.38,21.89V18.53s8.42,1.68,10.11,0v3.36S384.75,23.58,381.38,21.89Z" style="fill:#fff"/><path d="M275.64,11.28A11.73,11.73,0,0,1,275.17,8a7.33,7.33,0,0,0,.11-2l0,0a2.18,2.18,0,0,1,0-.26V5.55a3.16,3.16,0,0,1,.93-2.32c.11-1.07,1.05-2.9,2.2-2.34l.43,0c.34-.23.64-.73,1.09-.84a1.38,1.38,0,0,1,1,.26l.14,0,0,0a.93.93,0,0,1,1,0c.33.15.64.48,1,.66s.9.47,1.33.7c.67.36,2.06.56,2.45,1.28a1.93,1.93,0,0,1-.34,1.88l0,0h0c.8-.36,1.62.43,1.88,1.15l.07.24A6.34,6.34,0,0,1,288.21,8c-.35,1.31-.3,2.82-1,4a6.59,6.59,0,0,1-2,1.81l-.06.05.06,0a5,5,0,0,0-.61,2.44,22.32,22.32,0,0,0,.3,3.91c.18,1.49.26,7.52.52,9L277.2,29c.08-.49.47-10.11.49-10.6a6.14,6.14,0,0,0-.07-2.34h0c0-.09,0-.14,0-.14A11.8,11.8,0,0,1,275.64,11.28Z" style="fill:#f6b292"/><path d="M275.17,8a7.33,7.33,0,0,0,.11-2l0,0a2.18,2.18,0,0,1,0-.26V5.55a3.49,3.49,0,0,1,.05-.53s0,0,0,0a1.18,1.18,0,0,0,1.07.58c.44-.1,1.26.31,2.36,1.13a4.73,4.73,0,0,0,2.85.65l0,.06a5.58,5.58,0,0,0,2.3-1.34,1.21,1.21,0,0,0-.39-.74L282.59,5a11.66,11.66,0,0,0-2-.62,14.14,14.14,0,0,1-2.4-.89A6.25,6.25,0,0,0,277,3.1a.85.85,0,0,0-.78,0A3.35,3.35,0,0,1,277.46.94c-.17.47.78,2,2.08,2.74a16.42,16.42,0,0,0,4,1.13c1,.26,1,.91,1,1A1.81,1.81,0,0,0,285.1,5c-.23-1.33-1.94-1.72-3.23-2.21A14,14,0,0,1,278.78.9l0,0h.1c.28-.19.52-.55.85-.74a3.8,3.8,0,0,0,1.8,2.19,20.18,20.18,0,0,0,3.12,1.23c.88.34,1.11.81,1.18,1a2.49,2.49,0,0,0,.47-.73h.08c0-.6-1-1.33-.63-1.1l.13.11a7.4,7.4,0,0,1,.74.9.84.84,0,0,0,.33-.46l.07.06a2.58,2.58,0,0,1-.47,1.39l0,0h0a.52.52,0,0,1,.16-.06,2.06,2.06,0,0,1-.34.19c-.55.24-1.2,1.27-1.82,1.65a3.85,3.85,0,0,0-1,.82l0,.17a.61.61,0,0,0,0,.14c.13.82,1.43.78,2.11.55A13.83,13.83,0,0,0,287.83,7l-.2.48c0,.14.31.14.31.14a1.1,1.1,0,0,1-.21.31,3.36,3.36,0,0,0-.89.61c-.31.35,0,1.41,0,1.41a9,9,0,0,0-2-.86s-2.68.34-3.16.82-.51,2-.51,2a8.25,8.25,0,0,0-1-2.3,1.14,1.14,0,0,0-1-.14c.21-.27,0-.79,0-.79a4.33,4.33,0,0,1-1.34-.1c.31-.1.62-.65.62-.65a4,4,0,0,1-.79-.51,4.87,4.87,0,0,1-1,0,5.8,5.8,0,0,0,.05,3.81c.58,2.16,2.16,4.42,3.39,4s1.75-2.71,1.75-2.71a3.81,3.81,0,0,0,3.12.86A6.13,6.13,0,0,0,287.63,11v0a4,4,0,0,1-.4,1,6.59,6.59,0,0,1-2,1.81l-.06.05.06,0a1.79,1.79,0,0,0-.21.36,8.17,8.17,0,0,0-2.49.82,5,5,0,0,1-3,1.44c-.58.07-1.82,1.24-1.82,1.24h0a4.18,4.18,0,0,0-.12-1.69h0c0-.09,0-.14,0-.14a11.8,11.8,0,0,1-2-4.61A11.73,11.73,0,0,1,275.17,8Z" style="fill:#e38b69;opacity:0.39"/><path d="M287.07,21.89V18.53s-8.43,1.68-10.11,0v5S283.7,23.58,287.07,21.89Z" style="fill:#fff"/><path d="M311.24,134s26.35-2.63,44.46,1.7l-25.5,16Z" style="fill:#25274e"/><path d="M335,70.32,323.6,65.53s3.88-17,3.95-18.65l7.75-.54h.07l7.54.52c-.07,1.69,2.12,16.6,2.12,16.6l-10,6.86Z" style="fill:#f6b292"/><path d="M335.05,46.33h.1l6.58.49c0,.55,1.52,4.24,1.71,6.5-1.74,2.54-12.81,10.1-16.05,10.07-2.68,0-1.77,2.38-3.4.47.46-2.81,3.63-16.61,3.66-17.25Z" style="mix-blend-mode:multiply;fill:url(#linear-gradient-5)"/><path d="M344.05,55.6c-1,1.29-6.57,9.09-9.56,8.73s-7.68-6.95-8.59-9.18c-.85.92-4.09,3.38-4.09,3.38l12,32.49,13.5-30.92Z" style="fill:#d8d8d8"/><path d="M326,55.2c.91,2.24,5.66,7.93,8.64,8.29.09,0-3.08,39-3.08,39l-9.65-43.92S325.1,56.12,326,55.2Z" style="fill:#fff"/><g style="clip-path:url(#clip-path)"><polygon points="332.52 68.34 334.72 68.37 334.95 62.39 330.61 62.33 330.46 64.9 332.52 68.34" style="fill:#700000"/><polygon points="332.29 67.42 326.91 105.62 332.85 110.71 333 110.58 334.87 67.49 332.29 67.42" style="fill:#700000"/><polygon points="336.39 68.39 334.58 68.36 334.8 62.38 339.25 62.45 339.11 65.01 336.39 68.39" style="fill:#900"/><polygon points="336.73 67.47 339.18 105.67 332.85 110.71 334.61 67.45 336.73 67.47" style="fill:#900"/><polygon points="332.16 68.28 336.76 68.33 336.78 67.9 332.23 67.84 332.16 68.28" style="fill:#900"/></g><path d="M334.82,137.25s-32.59,1.86-34.42,1.18c.75-6.44,4.27-12.28,4.65-17.2.48-6.51,1.87-23.22,1.12-26s-7.4-31.28.76-32.81C314,61.11,315.5,63,323.45,58c0,0,1.78,14.22,3.71,18.63s4,24.52,6,27C335.1,107.08,334.82,137.25,334.82,137.25Z" style="fill:#23215e"/><path d="M333.71,137.31l-.52-33.69s7.17-22.27,12.14-40.94L345.21,58c11.81,8.73,10.91,2.59,17.64,4.28C366.2,63.93,364.49,76,364.49,76s-3.26,19-4.19,21.67-.61,18.7-.64,25.14c0,3.23,2,5.11,2.46,13.44Z" style="fill:#2e2e5e"/><polygon points="333.55 62.35 327.7 68.64 324.53 60.83 323.69 57.38 325.72 55.19 333.55 62.35" style="fill:#fff"/><polygon points="336.67 62.55 341.45 68.65 346.42 58.2 343.83 55.15 336.67 62.55" style="fill:#fff"/><path d="M325.4,55c0-.34-5.7,4.93-5.7,4.93l-1.43,10.53,6-.7-6.39,5.93,15.32,28.7s-5.86-35-7.32-39.86C324.05,58.5,325.4,55,325.4,55Z" style="fill:#2e2e5e"/><path d="M345.06,55.23c0-.33,5.28,5.06,5.28,5.06l.61,10.5L345.07,70l2.73,4.13L333,105.33s8.47-36.89,10.68-41.56A14.66,14.66,0,0,0,345.06,55.23Z" style="fill:#23215e"/><path d="M336.31,16.29a.11.11,0,0,0-.07,0v0c-11.93-.2-13.61,8.17-14.18,18.39-.7,12.66,4,20.7,11.58,21.42a2.92,2.92,0,0,0,.5,0,1.71,1.71,0,0,0,.32,0c.14,0,.26,0,.4,0v0c10-.25,12.11-6.26,13.05-18.93C348.72,26.52,349,16.57,336.31,16.29Z" style="fill:#f6b292"/><path d="M323.64,36.92c.11-2.43,1.27-4.65.48-6.42a6.9,6.9,0,0,1-.2-5.43c1.48-4.58,6.7-6.44,8.21-6.85s.33-2.83.33-2.83a6.74,6.74,0,0,0-4.95.78,13.76,13.76,0,0,0-6.28,6.65c-2.11,4.14-1.56,6.4-.39,9.76a8.68,8.68,0,0,1,0,5l1.49-1.05Z"/><path d="M343.2,24.12c3.87.75,3.95,2.71,3.85,5.56s.54,9,.54,9l1.66-.45s-1.62-1.52.24-6c1.68-4.08,1.26-11-2.68-13.3-2.57-1.52-3.14-3.37-9.49-2.85C334.76,16.27,341.61,23.8,343.2,24.12Z" style="fill:#36373a"/><path d="M347.64,37.49c.63-.86,2.37-3.19,2.71-.7a9.25,9.25,0,0,1-2.18,6.54c-1,1-1.59-.42-1.84.46C346.19,44.22,347.64,37.49,347.64,37.49Z" style="fill:#f6b292"/><path d="M323.6,38c-.45-2.88-2.77-4-3.31-1.54s.59,6.19,1.55,7.25,2.38,1.37,2.4.93S323.6,38,323.6,38Z" style="fill:#f6b292"/><path d="M325.25,26.66c7,3.8,16.68-2.1,18.91-2.47s.54-1.77-1-5.76c-1.14-2.92-5.26-2.48-8.74-3.72-3.73-1.31-7.51-1-6.52-.63,1.65.61.24,1.85-.26,2.12-1.66.88-4.71.75-5.75,4.36-1.26,4.31-.66,13.76.32,14.26,1.65.82,1.52.18,1.47-1.25C323.27,24.56,325.25,26.66,325.25,26.66Z" style="fill:#1c1c1c"/><path d="M340.17,25.77c-1.72.32,1.18-5.26-3.33-8.87a31.13,31.13,0,0,0-7-3.52c.28-.1,3.55.82,7.51,2.67,2.41,1.14,5.52,7.16,5.45,8.92S340.17,25.77,340.17,25.77Z" style="fill:#26282d"/><path d="M340.46,25.51c-1.58.14-1.95-5.43-3.72-7.62-3.69-4.53-5.38-4.47-5.38-4.47s4.59,3.27,5,5.91-1.07,8.16,1.83,8.06C339.76,27.34,340.46,25.51,340.46,25.51Z" style="fill:#26282d"/><path d="M336.26,27c-1.56.13-4.5-1-4.68-5s.95-6.59-.63-7.68c-2-1.39-2.84-.23-2.84-.23,2.93-1.22,2.66,1.37,1.91,7-.63,4.75,1.74,6.75,4.33,6.92C336.33,28,336.26,27,336.26,27Z" style="fill:#26282d"/><path d="M333.91,27.31c-1.56.14-7.54,2-5.85-3.78,1.21-4.12,1.27-10-.17-9.45-.37.15,1-.23.14,3.8-.47,2.14-3,8.89-.43,10A6.82,6.82,0,0,0,333.91,27.31Z" style="fill:#26282d"/><path d="M343.27,24.55c-1.6-2.94-.08-7.22-5.68-9-4.61-1.48-5.46-.24-4.94-.57s7.18-1.84,10.81,2,3.59,5.16,2.6,6.29A4.58,4.58,0,0,1,343.27,24.55Z" style="fill:#26282d"/><g id="_3" data-name="3"><path d="M276,59.77c-1.15-2.05-.77-37-.19-37.26.76-.32,8.12-1.14,11.06-.55.81.16,3.73,27.42,3.73,27.42.35,3.47,12.44,11.82,20,14.62,6.75,2.49-3.29,35.29-3.36,35.37S280,66.85,276,59.77Z" style="fill:#23215e"/></g><g id="_3-2" data-name="3"><path d="M393.08,59.23c1.09-2.09-.47-37-1.05-37.25-.78-.29-8.16-.86-11.08-.18-.8.19-2.81,27.53-2.81,27.53-.23,3.49-15.29,11.3-22,14.67-6.44,3.22,3.29,35.29,3.37,35.37S389.34,66.44,393.08,59.23Z" style="fill:#2e2e5e"/></g><path d="M302.48,207.19c-2.14,3.22-4.61,6.25-7,9.28a3.36,3.36,0,0,0,.39,3.73l.56.66a8.52,8.52,0,0,0,6.31,3l4.22.1a8.54,8.54,0,0,0,5.43-1.8l1.4-1.09a8.4,8.4,0,0,0,3.25-7.32c-.42-5.14-1.25-10.19-1.69-15.32a5.13,5.13,0,0,0-5.63-4.63h0a2.59,2.59,0,0,0-1.13.29,2.78,2.78,0,0,0-1,1.85A34.86,34.86,0,0,1,302.48,207.19Z" style="fill:#3a1b0a"/><path d="M299.77,135.33s2.86-11.45,14.32-5.73,17.18,17.19,20,17.19v8.59H320L317,206.71l-15.86,1.54S294,146.79,299.77,135.33Z" style="fill:#23215e"/><path d="M365.33,207.44c2.14,3.17,4.61,6.15,7,9.14a3.26,3.26,0,0,1-.4,3.67l-.55.66a8.58,8.58,0,0,1-6.32,3l-4.21.1a8.61,8.61,0,0,1-5.43-1.77L354,221.15a8.29,8.29,0,0,1-3.25-7.22c.43-5.06,1.25-10,1.69-15.09a5.1,5.1,0,0,1,5.62-4.56h0a2.69,2.69,0,0,1,1.13.28,2.76,2.76,0,0,1,1,1.83A34.34,34.34,0,0,0,365.33,207.44Z" style="fill:#3a1b0a"/><path d="M368.08,135.33s-2.87-11.45-14.32-5.73-17.19,17.19-20.05,17.19v8.59H347.8l1.55,51.33,17.4,1.54S373.8,146.79,368.08,135.33Z" style="fill:#2e2e5e"/><path d="M569.93,294.72c4.76-1.41,1.09-11-.94-15.61s-9.29-17.39-9.29-17.39l-5.1,1.94A136.26,136.26,0,0,0,561.34,290C561.85,291.3,565.08,296.15,569.93,294.72Z" style="fill:#b8d1ff"/><path d="M559.12,266.06s-.39-2.77,0-3.72,1.11-4.41.47-6a12.81,12.81,0,0,1-.32-5.15c.11-.52-.94-.46-1.49.41s.12,4.38-.41,4.57-4.27-8.9-5-8.82c-1.09.13,1.7,6.33,1.33,6.55-.79.48-3.29-6.07-4.16-5.86-1.12.27,2.4,6.87,2,7s-4.22-5.08-5-4.6c-.93.61,3.65,5.45,3.18,5.81-.29.22-3.5-2.26-3.88-1.64-.22.37,3.12,3.2,3.62,3.73S553.2,264,554,264s2.33,2.38,2.33,2.38Z" style="fill:#ffbd95"/><path d="M595.37,308.25c-1.8,4.24-5.84,4-9.89,2s-22.6-16.77-22.9-18.2,3.06-7.15,5.16-7,19.77,10.28,22.81,12.54S597.48,303.28,595.37,308.25Z" style="fill:#b8d1ff"/><polygon points="552.79 264.53 555.23 269.58 562.98 266.22 560.92 260.84 552.79 264.53" style="fill:#e0f2ff"/><path d="M537.31,224.48c10.75-1,23.43,8.94,30.12,24.46s5.19,31.51-2.89,38.67a14.9,14.9,0,0,1-3.86,2.51l8.52-3.68c11.53-5,14.65-23.45,7-41.27s-23.27-28.24-34.81-23.27l-8.71,3.75A15,15,0,0,1,537.31,224.48Z" style="fill:#ffc51b"/><path d="M541.21,250.76a8.34,8.34,0,0,0,2.43,4.42c.09-.65.17-1.3.26-2a7.22,7.22,0,0,1-1.14-2.85c-.22-1.25-.44-4.46,1-5.61C540.66,244.46,541,249.19,541.21,250.76Z" style="fill:#ffab00"/><path d="M545.5,241.4l.09-.76a6.61,6.61,0,0,0-.89-.15,4.31,4.31,0,0,0-2.5.36,3.43,3.43,0,0,1,1,0A12.58,12.58,0,0,1,545.5,241.4Z" style="fill:#ffab00"/><path d="M542.76,250.38a7.22,7.22,0,0,0,1.14,2.85l1.1-8.12c-.21-.07-.42-.17-.63-.22a2.43,2.43,0,0,0-.6-.1C542.32,245.92,542.54,249.13,542.76,250.38Z" style="fill:#fe9103"/><path d="M547,257.92c3.73,2.84,7.68,5.93,7.17,11.16-.3,3.07-1.71,5.91-4.23,6.93,3.49-.33,5.41-3.65,5.77-7.31.51-5.23-3.44-8.33-7.17-11.17.41-3.09.84-6.21,1.27-9.33-.44-.41-.9-.77-1.35-1.13Q547.68,252.52,547,257.92Z" style="fill:#ffab00"/><path d="M564,250.41a41.11,41.11,0,0,0-9.49-13.79c-6.24-5.83-13.57-8.26-19.58-5.67-9.64,4.16-12.23,19.6-5.79,34.5a40.6,40.6,0,0,0,10.41,14.63c6,5.21,12.93,7.28,18.65,4.81C567.82,280.74,570.43,265.3,564,250.41Zm-19.75,28.31-.27.12-2.55-1.66-.71-.45c.14-1.07.28-2.1.43-3.16a39.16,39.16,0,0,1-3.34-3.1l.4-4.56v-.17a.61.61,0,0,1,.18.09l1.15-.49.22-.11c.21.17.46.4.61.55l1.59,1.63c.34-2.62.71-5.24,1.06-7.84-3.19-2.73-5.56-5.73-5.67-10.5-.09-3.24,1-8,4.83-8.22a4.39,4.39,0,0,1,2.5-.36,5.55,5.55,0,0,1,.89.16c.1-.67.19-1.36.28-2l0-.06s0,0,0,0l0,0,1.42-.51.11-.05,3.35,2.27-.32,2.38a29.59,29.59,0,0,1,5.25,4.28l-.41,4.76-1.45.63-.11,0c-.23-.31-.53-.57-.71-.8q-1.57-1.76-3.32-3.34c-.43,3.12-.85,6.25-1.27,9.34,3.73,2.84,7.68,5.94,7.17,11.17-.36,3.66-2.28,7-5.77,7.3v0a6,6,0,0,1-3.43.27l-.48-.12c-.07.48-.12,1-.19,1.47a.75.75,0,0,1-.19.51Z" style="fill:#fe9103"/><path d="M548.91,271.92a4.59,4.59,0,0,1-2.28-.65c.35-2.66.72-5.3,1.06-8-.36-.34-.79-.67-1.24-1a.3.3,0,0,1-.08-.08c-.41,3.14-.85,6.29-1.27,9.43A3.86,3.86,0,0,0,548.91,271.92Z" style="fill:#ffab00"/><path d="M549.28,240.63c-.1.79-.21,1.6-.31,2.37a29.89,29.89,0,0,1,5.24,4.28l-.2,3.2-.11,1.8,1.45-.63.41-4.76a29.59,29.59,0,0,0-5.25-4.28l.32-2.38L547.48,238l-.11,0-1.42.51,1.32.84Z" style="fill:#ffab00"/><path d="M548.91,271.92c1.12-.63,1.77-2,1.46-4a7.31,7.31,0,0,0-2.67-4.62c-.34,2.66-.71,5.3-1.06,8A4.67,4.67,0,0,0,548.91,271.92Z" style="fill:#fe9103"/><path d="M567.43,248.94c-6.69-15.52-19.36-25.42-30.12-24.46a14.93,14.93,0,0,0-4.65,1.17c-11.54,5-14.63,23.44-6.94,41.28S549,295.16,560.5,290.19l.18-.08a14.7,14.7,0,0,0,3.87-2.51C572.63,280.45,574.12,264.44,567.43,248.94Zm-27.87,31.14a40.6,40.6,0,0,1-10.41-14.63c-6.44-14.9-3.85-30.35,5.79-34.5,6-2.59,13.35-.15,19.58,5.67A41.11,41.11,0,0,1,564,250.41c6.42,14.88,3.82,30.32-5.8,34.48C552.48,287.36,545.57,285.29,539.56,280.08Z" style="fill:#ffab00"/><path d="M544.32,277.44c.07-.58.17-1.17.23-1.76a10,10,0,0,0,1.43.49l.47.12a6,6,0,0,0,3.43-.27l0,0c2.52-1,3.93-3.85,4.23-6.92.51-5.24-3.44-8.33-7.17-11.16q.7-5.4,1.45-10.85c.46.37.92.73,1.35,1.13a45.49,45.49,0,0,1,3.32,3.34c.19.23.49.48.71.79l.11-.05.11-1.79.2-3.2A29.89,29.89,0,0,0,549,243c.09-.78.2-1.59.32-2.38l-2-1.27-1.33-.83,0,0s0,0,0,.05l0,0c-.09.69-.18,1.37-.28,2,0,.26-.06.5-.09.76a11.75,11.75,0,0,0-2.33-.54,3.86,3.86,0,0,0-1,0c-3.82.22-4.92,5-4.83,8.22.11,4.77,2.48,7.77,5.67,10.5-.35,2.62-.72,5.22-1.06,7.84-.08.56-.15,1.13-.23,1.67-.79-.73-1.54-1.51-2.27-2.26l-.63-.65a2.19,2.19,0,0,0-.46-.34,1,1,0,0,0-.17-.1v.18l-.41,4.56a41,41,0,0,0,3.35,3.1c-.15,1.05-.29,2.09-.43,3.16l.71.45,2.55,1.65.27-.11c0-.22,0-.51,0-.71S544.29,277.63,544.32,277.44Zm2.14-15.16c.45.35.88.68,1.24,1a7.31,7.31,0,0,1,2.67,4.62c.31,2-.34,3.37-1.46,4a3.83,3.83,0,0,1-3.81-.28c.42-3.14.86-6.29,1.27-9.43l.09.07Zm-2.68-17.51a2.53,2.53,0,0,1,.6.11c.2.06.41.16.63.22l-1.1,8.11c-.1.65-.17,1.31-.26,2a8.41,8.41,0,0,1-2.43-4.43c-.27-1.55-.56-6.28,2.56-6Z" style="fill:#ffc51b"/><path d="M545.79,277.63c.07-.48.11-1,.19-1.46a10,10,0,0,1-1.43-.49c-.06.59-.16,1.18-.23,1.76,0,.19,0,.39-.08.58s0,.47,0,.7l1.34-.57A.81.81,0,0,0,545.79,277.63Z" style="fill:#ffab00"/><path d="M539.48,266.82c.73.75,1.48,1.53,2.27,2.27.09-.55.15-1.13.23-1.68l-1.58-1.63c-.15-.15-.41-.38-.61-.55l-.24.1-1.15.49a1.7,1.7,0,0,1,.45.35C539.05,266.39,539.27,266.59,539.48,266.82Z" style="fill:#ffab00"/><path d="M555.26,291.12s-2-2.49-2.18-3.68-1.56-5-3.15-6.18a14.67,14.67,0,0,1-3.4-4.86c-.21-.58-1.2.11-1.22,1.3s2.74,4.22,2.34,4.73-9.53-6.16-10.19-5.65c-1,.78,5.46,5.18,5.24,5.62-.5,1-6.88-4-7.61-3.25-.93,1,6.48,5.3,6.19,5.69s-7.19-2.45-7.63-1.52c-.55,1.15,6.85,3.15,6.6,3.78-.15.39-4.79-.12-4.78.72,0,.49,5,1.26,5.78,1.48s6.94,3.29,7.75,2.9,3.71.94,3.71.94Z" style="fill:#ffbd95"/><path d="M602.67,271.31s.78,15.7,1.7,16.46c2.85,2.35,13.18,4.28,15.13,8.39,2.37,5-10.31,27.48-11.94,34.9s1.91,18.88,3.08,26.14S589,373.41,588.16,373.41s-8.24-6.83-9.66-9.19-.15-21-.18-25.77-1.23-21.4-1.46-22.49a33,33,0,0,1,.64-14.56c.27-1.54.17-4.11.94-5.1,1.52-2,10-4.6,10.19-5.58s1.21-14.62,1.21-14.62Z" style="fill:#ffbd95"/><path d="M604.37,287.77l-13.73,8.31-2-5.36s-9,3.62-10.19,5.58-1.7,6.21-2.08,7.79-.55,8.86.1,15.16c.39,3.69.32,8.57.93,14.85.51,5.38,0,18.78,0,18.78s5.14.18,13.1-.26c9.22-.5,19.53-.56,19.94-.9,1.77-1.46-1.79-17.15-1.48-18.73s11.47-29,11.63-32.59a7.29,7.29,0,0,0-4.41-7.27C613.45,291.8,604.37,287.77,604.37,287.77Z" style="fill:#d5e4ff"/><path d="M615,293.94a9.58,9.58,0,0,0-10.07,3.37c-9.32,11-15.38,22.06-20.32,24.74-6.6,3.58-.16,15.32,11.72,15.6,11.48.27,2.64,14.58,2.64,14.58l10.74-.12c3.7.71-.67-19.24.71-23.08s7.94-23.13,8-26S615,293.94,615,293.94Z" style="fill:#c1d7ff"/><polygon points="589.37 282.01 603.27 276.92 603.66 285.16 599.38 287.8 589.37 282.01" style="fill:#ffa47c"/><path d="M589.35,255.18c3.88-2.74,14.49-4.35,18.65,3s1.11,13.74-2.13,17.5a17.07,17.07,0,0,1-9.12,5.77c-.88.26-8.57.6-10-.1-1-.48-.82-8.08-1.12-8.09s-1.09-.56-1-1.18c0-.89,1.69-6.16,1.55-6.76S584.9,258.33,589.35,255.18Z" style="fill:#ffbd95"/><path d="M586.84,258.26s6.14-2.5,12.45,4.92c1.36,1.6-2.3,7.18-2,7.76s6.22-3.64,5.93-3c-3,6.63-1.18,10.72-.55,10.84,1.89.37,9-8.6,7.1-16.84s-10.24-10.1-12.31-9.94S589.26,251.84,586.84,258.26Z" style="fill:#8d3b26"/><path d="M599.69,269.06c-1,2.11-1.65,5-.5,5.53s2.84-.8,3.79-2.91.8-4.22-.35-4.73S600.64,267,599.69,269.06Z" style="fill:#ffbd95"/><rect x="589.58" y="484.82" width="8.92" height="1.66" transform="translate(1188.08 971.31) rotate(180)" style="fill:#191919"/><path d="M598.15,473.1a15.43,15.43,0,0,1,2.07,6.26c.14,1.76-.91,5.46-2.06,5.46a85.55,85.55,0,0,0-10.88.61c-3.48.47-4.78,2.47-13.67,2.45-2.59,0-7.31-.17-7.17-1.23s8.53-3,11.24-5.46c6.84-6.31,11.41-7.84,11.41-7.84S597.91,472.77,598.15,473.1Z" style="fill:#0f0d0d"/><path d="M605.21,359.88s.58,3.62,1.13,8.79-4.46,21.74-6.23,34.77-2.87,15.66-2.42,18.73S602,437.72,601.5,446s-2.16,30-2.16,30a23.08,23.08,0,0,1-6.72,1.52c-4.27.41-7.23-3.26-7.23-3.26s-3.44-48.45-4-53.56c-.35-3.3-3.06-26.13-3.89-44.73-.26-6,.42-19.83.41-22.3C577.93,351.92,605.21,359.88,605.21,359.88Z" style="fill:#00233f"/><polygon points="660.53 455.73 665.71 448.47 664.31 447.47 659.13 454.73 660.53 455.73" style="fill:#191919"/><path d="M654.24,440.75a16.55,16.55,0,0,1,6.47,2.05c1.56.94,4.07,4,3.4,4.95a81.66,81.66,0,0,0-5.8,9.22c-1.63,3.11-.7,5.36-5.87,12.59-1.52,2.11-4.39,5.86-5.2,5.11s2.45-8.72,1.92-12.41c-1.34-9.35,0-14,0-14S653.81,440.75,654.24,440.75Z" style="fill:#191919"/><path d="M610.78,352.38s3.68,7.43,4.2,13.82c.43,5.2-.15,14.85-.66,28-.19,5-.17,9.86,0,14.12,4.58,2.2,14.39,6.51,19.54,11.22,6.13,5.6,20.6,20.24,20.6,20.24a13.14,13.14,0,0,1-2.25,7,10.55,10.55,0,0,1-5.36,4.39S606,424.46,601.07,423l-.49-.18a12.73,12.73,0,0,1-7.59-9.12c-2.23-10.44-4.27-24.72-6.75-35.5-1.48-6.49-6.87-22.53-6.87-22.53Z" style="fill:#002d56"/><polygon points="591.23 292.81 590.63 296.08 597.87 291.74 591.23 292.81" style="fill:#b8d1ff"/><polygon points="590.63 296.08 589.47 292.03 587.73 293.41 590.63 296.08" style="fill:#b8d1ff"/><polygon points="606.27 288.6 603.66 285.16 591.23 292.81 593.23 297.25 606.27 288.6" style="fill:#e0f2ff"/><polygon points="589.47 292.03 586.52 295.44 586.04 291.82 588.51 289.43 589.47 292.03" style="fill:#e0f2ff"/><path d="M619.73,296.86c2.6,4.79-.58,8.37-5.45,10.62s-32.15,8.6-33.7,7.83-4.38-8.09-2.68-9.92,24.06-10.75,28.39-11.91S616.68,291.26,619.73,296.86Z" style="fill:#dde9ff"/><path d="M610.88,351.26s-9.21.62-18.33,1-14.64.6-14.64.6l0,3.62s9.37.21,19-.37,14.94-1.42,14.94-1.42Z" style="fill:#3b1b1d"/><rect x="577.97" y="353" width="4.24" height="3" rx="0.95" transform="translate(1160.17 709) rotate(180)" style="fill:#722c1d"/><path d="M581.65,314.17c-3.23,5-12.92-2.57-17.47-6.49s-15.69-15.88-15.69-15.88l4.38-5.73a172.08,172.08,0,0,1,26.3,16.62C580.51,303.73,584.93,309.12,581.65,314.17Z" style="fill:#dde9ff"/><rect x="548.85" y="285.58" width="5.98" height="9.06" transform="translate(824.04 851) rotate(-143.62)" style="fill:#e0f2ff"/><path d="M213.21,484.85A15.25,15.25,0,0,1,207,474.22a46.26,46.26,0,0,1-.52-7,26,26,0,0,1,.18-4.59,18.16,18.16,0,0,0-3.45.05,13.39,13.39,0,0,1-3.47-.28c-.91-.22-.82-.11-1.27.82a25.71,25.71,0,0,1-1.69,2.87c-.79,1.18-1.57,2.39-2.37,3.54a8.3,8.3,0,0,0-1.29,2.06,4.09,4.09,0,0,0-.3,1.91c.16.81.85,1.25,1.38,1.81,2.12,2.25,4.28,4.6,6.61,6.64,1.94,1.74,3.43,3.75,5.74,5.08a4.87,4.87,0,0,0,4.94-.15c.7-.45,1.11-1.4,1.79-1.75Z" style="fill:#dbad6b"/><path d="M190.27,477.14a5.88,5.88,0,0,1,.61-3.15,9.65,9.65,0,0,1,2-3c.49-.48,1.48-1.64,2.23-1.51l-.29-.14c.69.12,1.55,1.12,2,1.58a24.26,24.26,0,0,1,3,3,85.87,85.87,0,0,1,4.89,7.15c.92,1.46,1.8,3.56,3.31,4.52a5.53,5.53,0,0,0,3.16.58c.64-.14.93-.66,1.4-1s.75-.26,1.32,0c.91.49,2.11.24,3.1.52a6.09,6.09,0,0,1,3,2c.5.62.68.82-.13,1.42a6.55,6.55,0,0,1-2.4,1,23.29,23.29,0,0,1-6,.56c-1.66,0-3.34.17-5,0-4.45-.58-5.89-4.77-8.2-7.81a6.7,6.7,0,0,0-2.42-2.06c-1.78.12-2.87,8.08-3.05,9.17a15.08,15.08,0,0,1-1.65-.13c.3-2.29,1.28-5,.51-7.11C191,480.82,190.13,479.17,190.27,477.14Z" style="fill:#471500"/><path d="M99.41,425.38a15.26,15.26,0,0,1,9.42-7.94,46.8,46.8,0,0,1,6.79-1.69,25.11,25.11,0,0,1,4.55-.6,17.23,17.23,0,0,0-.63-3.39,13.59,13.59,0,0,1-.31-3.47c.06-.94,0-.83-1-1.11a24.45,24.45,0,0,1-3.12-1.19c-1.3-.57-2.62-1.14-3.89-1.72a8.23,8.23,0,0,0-2.25-.93,4.19,4.19,0,0,0-1.93,0c-.77.29-1.09,1-1.55,1.66-1.86,2.48-3.81,5-5.42,7.64-1.39,2.22-3.12,4-4,6.53A4.89,4.89,0,0,0,97,424c.56.61,1.57.86,2,1.47Z" style="fill:#dbad6b"/><path d="M103.12,401.46a5.94,5.94,0,0,1,3.21.07A9.52,9.52,0,0,1,109.6,403c.56.4,1.87,1.18,1.87,1.94l.09-.31c0,.7-.85,1.71-1.21,2.29a25.94,25.94,0,0,1-2.48,3.44c-1.92,2.11-4.09,4.11-6.22,6-1.28,1.16-3.2,2.37-3.9,4a5.59,5.59,0,0,0,0,3.22c.24.6.81.8,1.26,1.2s.39.69.19,1.31c-.33,1,.12,2.12,0,3.14a6.08,6.08,0,0,1-1.46,3.33c-.53.6-.69.81-1.42.11a6.52,6.52,0,0,1-1.37-2.19,23.69,23.69,0,0,1-1.56-5.79,49.49,49.49,0,0,1-.82-4.92c-.18-4.48,3.71-6.61,6.31-9.4a6.73,6.73,0,0,0,1.61-2.74c-.42-1.74-8.44-1.45-9.55-1.45a13.14,13.14,0,0,1-.15-1.65c2.31-.09,5.17.41,7.09-.7C99.62,402.8,101.09,401.66,103.12,401.46Z" style="fill:#471500"/><path d="M170.42,276.61c2.69,1.48,5,2.68,6.94,3.64,7.22,3.57,9.76,4,9.76,4,.2.29-1.27,5.56,2.35,11.48A42.24,42.24,0,0,1,170.42,276.61Z" style="fill:#cca692"/><path d="M192.24,278.41c.57,0,.91.66.87,1.23a16.5,16.5,0,0,0-.31,1.68,15.23,15.23,0,0,0,.43,1.74,3.15,3.15,0,0,1-1.88,3.12,8,8,0,0,1-3.82.58c-4.95-.11-10.09-1.15-13.95-4.25-3.49-2.81-5.56-7-7.35-11.1a22.12,22.12,0,0,1-2.24-7.9,11.32,11.32,0,0,1,.17-2.4c1.33-7.27,8.34-10.19,15-9.78a13.68,13.68,0,0,1,12.42,12.33c.05.75-.11,1.5,0,2.25.22,1.6,1.52,2.74,2.58,3.85.69.72,2.76,2.75,1.64,3.79-.59.55-1.44.42-1.9,1.23a3.4,3.4,0,0,0-.2,2.39.78.78,0,0,1,0,.37C193.64,277.83,192.52,278.34,192.24,278.41Z" style="fill:#e2bba1"/><path d="M169.3,299.1c.52-1,1-1.94,1.45-3a19.24,19.24,0,0,0,1.6-6.63,34.34,34.34,0,0,0-2-13l.1.06a42.24,42.24,0,0,0,19.05,19.1c.16.25.32.5.49.75,3.33,3.16,6.17,5.52,4,8.08-1.77,2.06-10.81,1.55-14.32,1.27l-1.39-.12c-.63-.07-2-2.12-2.47-2.59a9,9,0,0,0-2.37-2,3.36,3.36,0,0,0-2-.22c-.69.09-2.09.79-2.71.61C167.63,301.21,168.88,299.9,169.3,299.1Z" style="fill:#d8ad95"/><path d="M176.33,269.34a6,6,0,0,0-.69-.9,3.46,3.46,0,0,0-3.3-1.15c-1.66.45-2.42,2.53-2,4.2a10.16,10.16,0,0,0,2.74,4.31q-.45,3.26-.88,6.52c-.8.23-3.46-2-4.1-2.47a26.85,26.85,0,0,1-8.56-10.53,1.55,1.55,0,0,0-.59-.76c-.6-.3-1.24.27-1.86.5a2.57,2.57,0,0,1-3-1.69,7.19,7.19,0,0,1,0-3.77c.52-2.86.36-6.59,2.14-9.05,2.17-3,7.07-.41,9.89,1.07-.57-1.42.77-2.86,2-3.71,4.59-3.07,9-3.38,14.1-1.23a20,20,0,0,1,5.36,3.51c2,1.68,4.74,2.72,4.42,5.72-.22,2-1.81,5.45-4.18,5.31A4.94,4.94,0,0,1,184.3,263a2.7,2.7,0,0,0,4.08-3,2,2,0,0,0-.66-1.05c-2.95-2.32-6.38,4.5-7.48,6.16-.74,1.11-3.39,5.11-2.82,6.5A15.4,15.4,0,0,0,176.33,269.34Z" style="fill:#701d0f"/><path d="M220.88,417.5c-1,11.52-14.15,50.72-14.15,50.72l-.84-.05-10.19-.66,2.75-49.13-14.92-33.75c-1.27,7.31-1,15.53-1.28,22.93v.24c-.05,1.24-.11,2.46-.2,3.64h0c-.61,7.8-2.35,14.22-8.06,16.89-13.77,6.45-59.2-11.74-59.2-11.74l2.4-10.78s37.34,4.13,38.61,3.94-1.45-5.3-4.69-22.39c-.78-4.1.07-9.15,1.37-13.73A79.55,79.55,0,0,1,157.32,361l38.93,2.53,7.82.51S222.69,396.75,220.88,417.5Z" style="fill:#d3ce24"/><path d="M218.07,407c0,8-9.25,48.58-12.18,61.19l-10.19-.66,2.75-49.13-14.92-33.75-1.28,22.93v.24c-.05,1.24-.11,2.46-.2,3.64h0c-.61,7.8-2.35,14.22-8.06,16.89-13.77,6.45-59.2-11.74-59.2-11.74s46.52,7.59,47.27,4.54-5.45-9.75-5.45-9.75-1.28-2.77,11.71,5.29S177,383.47,177,383.47s-14.88-14.5-20.39-8.93c-1.36,1.37-2.89.77-4.11-.9A79.55,79.55,0,0,1,157.32,361l38.93,2.53C203.9,376,218,400,218.07,407Z" style="fill:#c6bd1a"/><path d="M178.62,301.48s9.11,6.88,11.92,1.68,13.62,29.69,13.62,29.69L192.8,350.73l3.45,12.81-21.43-1.39Z" style="fill:#f2f2f2"/><path d="M159.4,386.11c3.68,1.27,6.7.88,9.14-.54,7.15-4.14,9.46-17,9.18-23-.37-8,1.24-13.77,6.66-22.45a.86.86,0,0,0,.1-.16c2.19-3.47,2-9.54.87-15.68a114.68,114.68,0,0,0-3.95-15.05s0-.07,0-.11c-.07-.21-.15-.41-.21-.62-.73-2.19-1.26-3.68-1.34-4-.39-1.62-7.38-16.58-7.38-16.58l-4.57,2-2.75,1.16c-3.64,1.53-8.13,3.33-12.23,4.8a9.9,9.9,0,0,0-4.33,2.8c-3.27,3.82-1.39,9.05-1.39,9.05-.57,10.13,6.09,18.3,7.2,20.92s-.38,7.71,1.59,10.61,2.42,9.67,2.42,9.67-13.12,22.86-14.23,24.71S145,381.18,159.4,386.11Z" style="fill:#4e1e7c"/><path d="M168.78,295.58c4.7,4.34,16.49,28.86,16.49,28.86a.91.91,0,0,1,.08-.12,114.68,114.68,0,0,0-3.95-15.05s0-.07,0-.11c-.07-.21-.15-.41-.21-.62-.73-2.19-1.26-3.68-1.34-4-.39-1.62-7.38-16.58-7.38-16.58l-4.57,2A4.29,4.29,0,0,0,168.78,295.58Z" style="fill:#5b3489"/><path d="M227.15,285.94s1.85-4.32,3.54-5.13,2.07,3.58,2.07,3.58,2.61.69,2,3.93-.19,21.84-.19,21.84l-8.6-.65S225.19,287.76,227.15,285.94Z" style="fill:#ddb192"/><path d="M237.16,306c-.2.76-.48,1.81-.76,3a48.06,48.06,0,0,0-1.39,7.81c-.17,3.56-4.15,17.76-9.5,18.28s-20.16-3.5-20.16-3.5,0,1,.07,2.7c.15,6,.49,20.13.37,21.46-.17,1.7,3.52,17.85,4.76,19.61a3.68,3.68,0,0,1,.5,3c-.58,2-3.41,3.91-12.08,2.38l-8.27-29.95,10.21-17.18.17-.27.17-.29-6.84-23.2s-6.12-16.43-6.15-16.79l3.4,2s3.44,3.87,5,4.22a8.69,8.69,0,0,1,4.63,2.45c2.52,2.82,15.25,20.82,20.72,20.13,0,0,2.74-5.84,2.29-8.84-1.23-8.14-.56-8.52-.56-8.52s1.87.31,4.38.54a37.92,37.92,0,0,0,8.18,0A.81.81,0,0,1,237.16,306Z" style="fill:#3e1968"/><ellipse cx="263.68" cy="256.19" rx="4.52" ry="4.99" transform="translate(-58.62 79.32) rotate(-15.42)" style="fill:#fc763f"/><path d="M215.74,275.67h0a5.57,5.57,0,0,1-6.85-3.89l-.19-.69a5.57,5.57,0,0,1,3.62-6.77h0a83.08,83.08,0,0,0,26.11-14.22l18.1-14.58,11,40-23.39-2.29a78.19,78.19,0,0,0-28.44,2.44Z" style="fill:#fc763f"/><rect x="260.11" y="232.16" width="3.92" height="47.21" rx="1.96" transform="translate(-58.57 78.88) rotate(-15.42)" style="fill:#4f5869"/><rect x="214.59" y="258.07" width="14.22" height="18.33" rx="3.01" transform="translate(-63.07 68.56) rotate(-15.42)" style="fill:#4f5869"/><rect x="215.07" y="259.75" width="10.41" height="3.52" transform="translate(-61.6 67.98) rotate(-15.42)" style="fill:#697485"/><rect x="216.52" y="265.54" width="10.41" height="3.52" transform="translate(-63.09 68.57) rotate(-15.42)" style="fill:#697485"/><rect x="217.96" y="271.34" width="10.41" height="3.52" transform="translate(-64.58 69.16) rotate(-15.42)" style="fill:#697485"/><rect x="219.07" y="274.67" width="10.41" height="2.68" transform="translate(-65.31 69.56) rotate(-15.42)" style="fill:#fc763f"/><rect x="224.05" y="276.23" width="6.3" height="21.55" transform="matrix(0.96, -0.27, 0.27, 0.96, -68.13, 70.74)" style="fill:#fc763f"/><line x1="272.85" y1="227.41" x2="288.06" y2="209.84" style="fill:none;stroke:#333;stroke-miterlimit:10;stroke-width:0.655037761738283px"/><line x1="282.12" y1="266.93" x2="303.41" y2="272.75" style="fill:none;stroke:#333;stroke-miterlimit:10;stroke-width:0.655037761738283px"/><line x1="284.83" y1="234.37" x2="300.79" y2="223.33" style="fill:none;stroke:#333;stroke-miterlimit:10;stroke-width:0.655037761738283px"/><line x1="292.01" y1="254.82" x2="309.15" y2="256.5" style="fill:none;stroke:#333;stroke-miterlimit:10;stroke-width:0.655037761738283px"/><path d="M206.68,307.14s6.33-5.75,7.15-7.68a65.87,65.87,0,0,1,4.54-7.79c1.25-1.86,2.06-7.55,2.06-7.55s4.2-3.56,4.32-2.74,0,4.56-.58,4.46,2.33-3,2.33-3l5.85-2.7s1.83,2-2.4,3.43l-4.33,4.55s2.94-2.67,11.29-5.46c0,0,1.17,2.19-4.34,4.42s6.18-.52,6.18-.52,1.5,2.56-5.49,4.17l-4.63,3.49s-.15.85,3.39.32,8.6-1.16,5.73,1.08-9.36,2.53-9.36,2.53-4.4,5.94-8.48,6.56l-6,9S205.57,314.55,206.68,307.14Z" style="fill:#f9c7a2"/><path d="M223.71,304.45s10.92,1.54,13.77.13L236.4,309s-9.18,2-12.7-.36l-1.31-.72S221.16,303.05,223.71,304.45Z" style="fill:#4e1e7c"/><path d="M173.53,354.19c-3,.18-8.25-3.83-14.37,2.21s2.4,6.18,4.46,6.89-8.5,0-9.53,1.44-5.4,19.69,14.45,20.83c-2.45,1.42-5.46,1.82-9.14.56C145,381.18,143,375.49,144.16,373.65S158.4,349,158.4,349s-.45-6.78-2.43-9.67-.5-8-1.6-10.61-7.76-10.79-7.2-20.92c0,0-1.87-5.23,1.4-9.05-.73,2.95-1.54,7.18-.42,8.18,1.77,1.57-.4,9.28,4.64,16.88s2.31,10.79,3.29,12.17,5.18,12.59,13.16,14.73S176.57,354,173.53,354.19Z" style="fill:#5b3489"/><path d="M217.13,314.57h0c-.13.1-1.83,1.41-4,3.08-3.4,2.67-7.88,6.27-8.81,7.33-1.55,1.77-10.21,14.49-13.52,14.71-2.92.19-27.79-6.73-36.52-15.4a11.31,11.31,0,0,1-2.55-3.59c-3.59-8.81-5.11-17.39-1.89-21.52a3.86,3.86,0,0,1,4-1.31c2.89.76,8.61,3.12,15.21,10.42,0,0,13.26,9.47,17.47,15.24,0,0,7.84-6.2,9.84-9.56a55.85,55.85,0,0,1,8.28-9.73c1.26-1.12,2.27-1.77,2.69-1.54,1.36.76,2.77,8.27,9.49,11.74l.08,0Z" style="fill:#4e1e7c"/><path d="M217.13,314.57h0l-3.39,3.57-.56-.49c-.26-.22-.58-.52-1-.87-2.5-2.34-7.25-7.2-7.53-10.56l-.29-1.58.32-.4c.83-1,3-3.28,3.46-.8,0,0,5.57,9.19,8.72,11l.08,0Z" style="fill:#5b3489"/><path d="M213.17,317.66c-3.4,2.67-7.88,6.27-8.81,7.33-1.55,1.77-10.21,14.49-13.52,14.71-2.92.19-27.79-6.73-36.52-15.4,10.05,4.64,32.94,14.6,36.78,10.67s13.78-13.53,21.11-18.18Z" style="fill:#3e1968"/></g></g></g></svg>