<svg xmlns="http://www.w3.org/2000/svg" xmlns:xlink="http://www.w3.org/1999/xlink" viewBox="0 0 818.18 568.41"><defs><style>.cls-1,.cls-36{fill:none;}.cls-2{isolation:isolate;}.cls-20,.cls-3{fill:#517793;}.cls-3{opacity:0.15;}.cls-13,.cls-16,.cls-17,.cls-18,.cls-20,.cls-3,.cls-41,.cls-44{mix-blend-mode:multiply;}.cls-4{fill:#ae690c;}.cls-5{fill:#01131e;}.cls-6{fill:url(#linear-gradient);}.cls-18,.cls-7{fill:#005600;}.cls-17,.cls-8{fill:#007500;}.cls-9{fill:#3bd33b;}.cls-10{fill:#048c04;}.cls-11{fill:#2a992f;}.cls-12{fill:#37bc37;}.cls-13{fill:#138913;}.cls-13,.cls-18{opacity:0.4;}.cls-14,.cls-16{fill:#007200;}.cls-15{fill:#44c644;}.cls-16,.cls-20{opacity:0.5;}.cls-17{opacity:0.3;}.cls-19{fill:#5e3601;}.cls-21{fill:#f5f5f8;stroke:#dddeea;stroke-width:1.63px;}.cls-21,.cls-36{stroke-miterlimit:10;}.cls-22{fill:#fff;}.cls-23{fill:#edeef4;}.cls-24{fill:#c8cbd6;}.cls-25{fill:#dfe1e8;}.cls-26{fill:#00beb9;}.cls-27{fill:#2cb1f4;}.cls-28{fill:#00a49f;}.cls-29{fill:#f065a6;}.cls-30{fill:#e34932;}.cls-31{fill:#353537;}.cls-32{fill:#0080ff;}.cls-33{fill:#f63;}.cls-34{fill:#52e6c6;}.cls-35{fill:#039;}.cls-36{stroke:#dae8ea;stroke-width:1.12px;}.cls-37{fill:#e9f2f4;}.cls-38{fill:#81acef;}.cls-39{clip-path:url(#clip-path);}.cls-40{fill:#f2f2f2;}.cls-41{fill:#b69b76;}.cls-41,.cls-44{opacity:0.55;}.cls-42{fill:#f95e11;}.cls-43{fill:#4f4f4f;}.cls-44{fill:#bfa787;}.cls-45{fill:#364469;}.cls-46{fill:#fec4ad;}.cls-47{fill:#133a50;}.cls-48{fill:#97a3cc;}.cls-49{fill:url(#linear-gradient-2);}.cls-50{fill:#7b2b1a;}.cls-51{fill:#001435;}.cls-52{fill:#0f2a51;}.cls-53{fill:#cc9483;}.cls-54{fill:#5b250e;}.cls-55{fill:#873f26;}.cls-56{fill:#26282d;}.cls-57{fill:#1f4c60;}.cls-58{fill:#9b7d00;}.cls-59{fill:url(#linear-gradient-3);}.cls-60{fill:url(#linear-gradient-4);}.cls-61{fill:url(#linear-gradient-5);}</style><linearGradient id="linear-gradient" x1="0.15" y1="226.63" x2="785.76" y2="226.63" gradientUnits="userSpaceOnUse"><stop offset="0" stop-color="#0080ff"/><stop offset="0.28" stop-color="#017dfb"/><stop offset="0.55" stop-color="#0373f0"/><stop offset="0.8" stop-color="#0663dd"/><stop offset="1" stop-color="#0a52c9"/></linearGradient><clipPath id="clip-path"><circle class="cls-1" cx="418.19" cy="230.18" r="29.47" transform="translate(-57.42 189.43) rotate(-23.93)"/></clipPath><linearGradient id="linear-gradient-2" x1="-824.73" y1="-190.85" x2="-779.73" y2="-191.32" gradientTransform="matrix(0.92, -0.32, 0.45, 0.93, 1425.98, 216.37)" gradientUnits="userSpaceOnUse"><stop offset="0" stop-color="#eef4fb"/><stop offset="0.31" stop-color="#e3edf8"/><stop offset="1" stop-color="#cfe1f3"/></linearGradient><linearGradient id="linear-gradient-3" x1="344" y1="85.5" x2="394" y2="85.5" xlink:href="#linear-gradient"/><linearGradient id="linear-gradient-4" x1="310" y1="72.5" x2="325" y2="72.5" xlink:href="#linear-gradient"/><linearGradient id="linear-gradient-5" x1="25" y1="207.5" x2="71" y2="207.5" xlink:href="#linear-gradient"/></defs><title>workflow-p1</title><g class="cls-2"><g id="Layer_2" data-name="Layer 2"><g id="Isolation_Mode" data-name="Isolation Mode"><path class="cls-3" d="M785.76,451.64s153.75,24.72-208.45,49.67c-319.19,22,55.37,44,39.9,48.85C557.72,569,125.4,581.1,159.6,546.09c38.14-39.06,31.75-36.64-120.52-74.91S635.12,453.27,785.76,451.64Z"/><ellipse class="cls-3" cx="662.81" cy="530.62" rx="52.11" ry="7.33"/><ellipse class="cls-3" cx="273.59" cy="550.16" rx="51.3" ry="9.77"/><ellipse class="cls-3" cx="369.27" cy="555.86" rx="36.23" ry="9.77"/><path class="cls-4" d="M649.8,531.24c-.41-.68-.53.75-.33,1.11.33.56,1.4.66,2,.81a23.2,23.2,0,0,0,6,1A49.1,49.1,0,0,0,669.52,533c1.6-.38,3-1.24,4.57-1.76a4.23,4.23,0,0,1,2-.42c.68.23.67,1.1.61,1.64a15.62,15.62,0,0,0,4.22-.18c1.16-.16,2.61-.12,3.55-.77.69-.47.57-2.19.44-3.08s-.22-1-1-.71a27.35,27.35,0,0,1-4,.61c-2.8.38-5.51.5-8.1,1.53-1.5.6-2.88,1.4-4.42,1.92a17.75,17.75,0,0,1-4.24.87c-3.89.49-7.68-.73-11.53-1.22a8,8,0,0,1-1.73-.44c.08.18-.39-.06-.32.12Z"/><path class="cls-5" d="M667.54,518.63c-.66.26-1.07,1-1.49,1.57-.61.77-1.25,1.5-1.88,2.24a13.57,13.57,0,0,1-3.73,3.56,12.1,12.1,0,0,1-6.67,1.44,4.9,4.9,0,0,0-3.2.71c-.52.46-1.16,2.47-.64,3.08.37.42,1.93.49,2.42.58.86.14,12.3,2.67,19.84-1.07,3.16-1.57,6.66-1.29,10.15-1.61.78-.08,2.3-.34,2.65-1.17.28-.66-.16-2.47-.28-3.23a15.66,15.66,0,0,0-2.36-6c-.51.18-1,1-1.48,1.36a10.37,10.37,0,0,1-2.24,1.23,15.05,15.05,0,0,1-3.66,1.12c-2.43.35-3.54-1.66-5.31-3.07-.68-.53-1.72-1-2.43-.52Z"/><path class="cls-4" d="M616.41,531.24c-.41-.68-.52.75-.32,1.11.32.56,1.4.66,2,.81a23.28,23.28,0,0,0,6,1A49,49,0,0,0,636.13,533c1.6-.38,3-1.24,4.58-1.76a4.23,4.23,0,0,1,2-.42c.68.23.66,1.1.6,1.64a15.7,15.7,0,0,0,4.23-.18c1.16-.16,2.61-.12,3.55-.77.69-.47.56-2.19.44-3.08s-.23-1-1-.71a27.48,27.48,0,0,1-4,.61c-2.8.38-5.51.5-8.1,1.53-1.49.6-2.88,1.4-4.41,1.92a17.83,17.83,0,0,1-4.25.87c-3.89.49-7.68-.73-11.52-1.22a8.07,8.07,0,0,1-1.74-.44c.09.18-.38-.06-.31.12Z"/><path class="cls-5" d="M634.15,518.63c-.65.26-1.06,1-1.49,1.57-.61.77-1.25,1.5-1.87,2.24a13.71,13.71,0,0,1-3.73,3.56,12.16,12.16,0,0,1-6.68,1.44,4.9,4.9,0,0,0-3.2.71c-.52.46-1.16,2.47-.63,3.08.37.42,1.92.49,2.41.58.86.14,12.3,2.67,19.84-1.07,3.16-1.57,6.67-1.29,10.16-1.61.78-.08,2.3-.34,2.64-1.17.29-.66-.16-2.47-.28-3.23a15.35,15.35,0,0,0-2.36-6c-.5.18-1,1-1.48,1.36a10.37,10.37,0,0,1-2.24,1.23,14.92,14.92,0,0,1-3.66,1.12c-2.42.35-3.53-1.66-5.31-3.07-.67-.53-1.71-1-2.42-.52Z"/><path class="cls-6" d="M127.84,453.27S5.12,405,2.44,323C0,248.07,62,253.93,75.73,223.64,100.15,169.9,17.91,152,2.44,104-11.47,60.75,38.67-6.7,131.91.54c94.45,7.33,172.62,101,227.18,109.11S486.93,18.45,592,56.72c67.11,24.45,105.71,102,52.45,211.42s137.27,128.94,141.34,183.5Z"/><ellipse class="cls-3" cx="83.08" cy="454.42" rx="42.08" ry="6.18"/><path class="cls-7" d="M49.74,363.58l.57.22a6.67,6.67,0,0,1-1.21.42A.73.73,0,0,1,49.74,363.58Z"/><path class="cls-7" d="M28.74,365.2c3.42,1.71,5.47,1.9,9.18,2.08,3.08.13,6.62.31,8.86,2.66,1.79,1.85,2,5,4.15,6.44,1.37.94,4.35,1.07,5.71,2.5a12.55,12.55,0,0,0,.68,2.06,2.52,2.52,0,0,0-.68-2.06c-1.4-4.84-3.5-14.8-5.94-14.95l-.39-.13a37.57,37.57,0,0,1,5-2.24c-2.29,3.65,2.82,11.74,3.56,15.68,1.18,6.09.39,12.23-3.83,16.76-7.51,8.05-17.93,3.24-25.8-1.93-4.46-2.93-6.26-6.06-9.58-9.76-1.37-1.52-3.09-2.39-4.46-4-1-1.21-1.87-3.47-3.14-4.34-2.74-1.93-5.1,1.21-8,.69-1.88-.33-3-1.67-4.09-3.06V358.73C9.91,357.84,19.87,360.71,28.74,365.2Z"/><path class="cls-7" d="M56.64,378.88a2.52,2.52,0,0,1,.68,2.06A12.55,12.55,0,0,1,56.64,378.88Z"/><path class="cls-8" d="M73.81,374.24c1.79-4.07,4.85-7.29,6.76-11.2,1.27-2.66,1.19-5.93,2.59-8.52,1.66-3.08,6.15-4.51,8.58-7s5.9-8,9.68-7.65c4.6.37,9.4,6.26,12,9.78,2.31,3.23,7.42,9.06,7,13.4-3.34-.45-6.75-5.56-10-7.11a32.63,32.63,0,0,0-6.14-2.63c-3.09-.77-4.64,4.64-5.19,7.77-.83,4.76-.45,9.57-2.53,13.86-1.28,2.61-3.09,4.47-4.64,6.94C90.66,384,89,385.11,88,387.47c-1.69,4.11-1.58,8.9-3.22,13A40,40,0,0,1,77,413a17.67,17.67,0,0,0-3.25,4.41H64.94c-1.27-3.73-.68-8.6-.52-12.26C64.91,394.57,69.61,383.71,73.81,374.24Z"/><path class="cls-9" d="M71.77,335.36c1.68,1.08,2.6,2.8,4.48,3.51,1,.38,4.42.89,4.14,2.34h-.62c-.35-1.69-2.31-.52-3.25-.16-1.26.46-2.82.41-4,1.1.2-2.07-1.55-3.94-2.58-5.44C68.38,334.39,69.91,334.14,71.77,335.36Z"/><path class="cls-10" d="M15.89,293.59l-.32-.49c1.4-.25,2,.91,2.86,1.84a29.82,29.82,0,0,0,4.31,3.16,73.52,73.52,0,0,1,10.39,8c5.69,5.65,9.92,12.61,15.83,18,2.4,2.17,3,5.62,4.72,8.25,1.58,2.47,3.71,4.61,5.49,7,1.59,2.09,2.85,4.12,3,6.88.22,3.08-1.49,4.41-3.36,6.34-1.24,1.28-2,4.69-3.83,4.69-2.37,0-3.91-5.95-4.91-7.82-3.73-7-6.21-14.78-10.58-21.41a209.55,209.55,0,0,0-14.35-19.57c-1.9-2.26-3.65-4.7-5.45-7-1.22-1.53-2.94-2.64-4.12-4.18a5,5,0,0,1-1.15-2.51C14.51,293.94,15.37,292.8,15.89,293.59Z"/><path class="cls-11" d="M71,335.18a3.06,3.06,0,0,1,.86.31Z"/><path class="cls-12" d="M58.52,348.72c.39-2.42.42-4.66,1.42-7,1.2-2.75,3.14-5.86,6.13-6.71,1.7-.48,4.47-.81,5.87.51l-.11,0a3.06,3.06,0,0,0-.86-.31,3.06,3.06,0,0,1,.86.31c1.25.69,2.25,2.36,3.62,2.85s4.13.32,4.84,1.85c.38.84-.34,1.05-.34,1.54,0,1.15.28,1,.77,1.84a11.83,11.83,0,0,1,1.6,4.78c.68,6,.53,11.92-3,17-1,1.47-2.19,3-1.39,5s2.59,3.11,3.26,5.35c1.55,5.11,1.48,16-4.39,18.37-4.79,1.93-6-6.08-10.74-5.34-3.36.52-6.44,6.95-8.27.49-.81-2.86.8-5.33.61-8-.09-1.4-1.09-2.67-1.59-4a30.6,30.6,0,0,1-1.28-4.8c-1.24-5.77-1.45-11.11.64-16.75C57,353.35,58.15,351.07,58.52,348.72Z"/><path class="cls-13" d="M72.74,342.34c0-.15,0-.27,0-.4l0-.07Z"/><path class="cls-13" d="M61.88,338.52c1.34-1.93,4.58-4.49,7-3.82,1.16.31,1.7,2.46,2.41,3.69a7.61,7.61,0,0,1,1.4,3.55c-2.28,3.83-3.39,10-3.78,14.51-.48,5.71-.84,11.38-.84,17.12,0,4.93-.47,11.52,1.31,16-2.07-1.86-5.67-.64-7.52.93-1,.84-1.76,2.05-3.2,1.14s-1.45-3-1.32-4.4c.17-1.72,1.43-3.06,1.43-4.8S57.54,378.75,57,377a36.88,36.88,0,0,1-2.1-11.86c0-6.59,4.13-11.6,4.47-18C59.49,343.6,59.88,341.41,61.88,338.52Z"/><path class="cls-14" d="M15.42,293.94a6.69,6.69,0,0,0,2.23,3.62A50,50,0,0,1,21,302c1.64,2.09,3.85,3.63,5.56,5.68,4.66,5.55,8.34,11.52,12.18,17.69,3.52,5.6,5.88,12.08,8.44,18.19,1.1,2.64,1.77,5.51,3.23,8s3.25,4.57,4.79,6.84l.47-1.16c.12.16.25.1.29.29-1.36,2.76-3.14,6-6.36,6.77-5.72,1.39-11.31-3.14-14.37-7.68a18.44,18.44,0,0,1-2.55-9.69c0-4.06-1.69-6.36-3.55-9.8-.84-1.47-2-3.18-2.22-4.92-.18-1.51.41-3,.15-4.55-.45-2.73-3.35-4.61-3.51-7.23,0-1,.62-1.92.31-3a16.36,16.36,0,0,0-1.68-2.8c-1.26-2.33-2-5.16-3.39-7.38-1.58-2.48-3.48-4.53-4.32-7.48C14,298.29,13.45,294.56,15.42,293.94Z"/><path class="cls-12" d="M21.91,300.1c1.47,1.54,2,3.77,3.35,5.35,3.08,3.49,6.3,6.58,9,10.5a80.22,80.22,0,0,1,8.46,15.1c2,4.93,3.81,10,6.35,14.63,1,1.87,2,3.64,3.21,5.39,1,1.59,1.91,3.6,3.17,1.17a29.91,29.91,0,0,0,2.29-6.48c.39-1.73.76-4.13,2.52-5,.11,1.84-.76,4.07-.9,6a18.36,18.36,0,0,1-1.2,5.46c-.89,2.4-1.37,5.24-2.79,7.42a13.48,13.48,0,0,1-5.15,4.69c-1.75.82-6.35.67-7.49-1.18,2.67-.49,5,.76,7.66-.88,2.48-1.51,2.57-3.59,1.45-6.08-2.61-5.76-5.8-10.93-7.79-17a93.56,93.56,0,0,0-15-27.07c-2.73-3.52-5.67-6.69-8.2-10.35-.87-1.28-5.78-5.54-4.71-7.52C17.64,296.72,20,298.07,21.91,300.1Z"/><path class="cls-15" d="M16.1,294.26c-.07-.12-.14-.21-.21-.34h.47A1.23,1.23,0,0,0,16.1,294.26Z"/><path class="cls-14" d="M19.74,356.94a16.07,16.07,0,0,0,4.76,3.31c3.35,1.71,4.55,3.58,5.32,7.31.81,4,1.55,6.83,4.15,9.94,3.32,3.95,6.85,7.59,9.87,11.82,1.91,2.7,3.06,5.61,4.61,8.48,1.13,2.12,3.13,3.57,4.37,5.56.91,1.49,3.31,6.12,1.22,7.53-.12,0-.13-.07-.13-.11a1.26,1.26,0,0,1,.3-.23h-.32c.06.08,0,.17,0,.23-.77.64-1.24,1.63-2.09,2.22a5.45,5.45,0,0,1-5.42.39c-3-1.34-4-3.55-5.07-6.4-1.27-3.18-4.35-4.36-6.45-6.79a58.62,58.62,0,0,1-6.54-10.34c-1.6-2.92-3.38-6.29-3.84-9.68-.31-2.3-.26-4.72-.48-7a34.36,34.36,0,0,0-.79-5.73c-.7-2.45-2-2.86-3.8-4.35S14,354.4,16.52,352.54C17.77,353.65,18.52,355.65,19.74,356.94Z"/><path class="cls-14" d="M54.21,410.55a1.26,1.26,0,0,0-.3.23c0-.06,0-.15,0-.23Z"/><path class="cls-11" d="M18.19,347.29l-.72-.9C17.67,346.43,17.92,346.8,18.19,347.29Z"/><path class="cls-12" d="M15.4,339.5a13.43,13.43,0,0,1,1.24-.79,12.34,12.34,0,0,0-.12,5.17c.32,1.25,1.63,2.28,1.75,3.51l-.08-.1c-.27-.49-.52-.86-.72-.9l.72.9c.4.68.79,1.53,1.1,1.93a24.49,24.49,0,0,0,4,4,28.93,28.93,0,0,1,4.93,5.14c1.19,1.78,1.81,3.84,3.06,5.56,2.27,3.14,5.6,5.17,8,8.2,1.5,1.87,2.64,4.09,4.57,5.5,1.45,1.06,3.19,1.25,4.85,1.74A18.5,18.5,0,0,1,55.13,383c3.42,2.87,4.37,7.27,6.9,10.74,2.38,3.23,4.89,9.17,3.65,13.33a7.87,7.87,0,0,1-5.45,5c-3.36.69-6.38-2.29-8.41-4.67-2.6-3.08-4.52-6.67-7.16-9.68-1.95-2.22-4.86-3.12-6.71-5.37a18.26,18.26,0,0,1-3.58-9.51c-.35-2.64-.58-4.63-3.15-5.46-3.19-1-1.73-1.12-2.56-4-.5-1.7-2.62-1.2-3.05-3.42-.37-1.93.62-3.88-.11-5.84-1-2.81-3.72-3.14-5.95-4.47a11.56,11.56,0,0,1-5.31-5.64c-.66-1.8-1.06-3.76-1.68-5.55A8.79,8.79,0,0,1,15.4,339.5Z"/><path class="cls-14" d="M62.69,343.9a14.06,14.06,0,0,0,.44,2.19A7.81,7.81,0,0,1,62.69,343.9Z"/><path class="cls-14" d="M62.66,343.1a7.31,7.31,0,0,0,0,.8A4.62,4.62,0,0,1,62.66,343.1Z"/><path class="cls-14" d="M72.56,341.72a1.1,1.1,0,0,1-.16.41s0-.06,0-.09Z"/><path class="cls-14" d="M67.27,385.64c.15-2.27-.21-4.55-.09-6.85.12-2.58-.8-2.73-2.48-4.67a26.2,26.2,0,0,1-4.27-7.51,20.62,20.62,0,0,1-1.91-7c.16,3.19,3.11,6.86,4.6,9.32,1.3,2.18,2.58,5,4.47,6.55.3-3-.32-6.58-.47-9.66-2-.38-3.71-5.32-4.46-7.05-1-2.42-2.4-5.22-2.23-8,1.07,5.06,3.95,9.32,6.67,13.32.31-1.75,0-3.54.23-5.31.17-1.24.89-2.49.91-3.67-1.86,0-4.16-5.3-5.11-9a21.34,21.34,0,0,0,5.59,7.81,32.69,32.69,0,0,1,.18-3.71c.15-1,1.15-2.61,1.08-3.51-.1-1.36-2.27-3.8-2.71-5.47-.33-1.18-1-4.08-.15-5,.73,3.44,1.51,6.91,3.85,9.62a5.67,5.67,0,0,1,.19-2.26c.3-.63.92-.85,1.24-1.44-.1,2.51-1.74,5.34-2.37,7.77a37.22,37.22,0,0,0-1.12,8.35c-.15,4-.64,7.81-.64,11.86,0,6.15-.58,12.86.33,18.84-.1-1.93-2.35-1.51-3.38-2.46-.52-.5-.52-1.21-.81-1.84a10.22,10.22,0,0,0-2.1-2.86,25.39,25.39,0,0,1-5.49-10.17c2.12,2.94,4.23,6.07,6.17,9.15C64.2,382.69,65.2,384.6,67.27,385.64Z"/><path class="cls-14" d="M58.52,359c0,.2,0,.43,0,.62C58.51,359.39,58.51,359.16,58.52,359Z"/><path class="cls-16" d="M42.86,376.81c.66.81.93.77,1.77,1.16a28.21,28.21,0,0,0,3.64,1.2c2.79.89,6.25,2.3,8.33,4.64,4.32,4.86,8.81,13,9.46,19.73a7.53,7.53,0,0,1-7.67,8A9.49,9.49,0,0,1,55,411c-1.85-.69-.9-1-1.82.52-1.9,3-4.42,2.73-7.61,1.67.89-2.67,6.81-1.12,3.93-5.48-1.31-2-5.44-5.92-4.9-8.51,1.36.71,2.6,3,3.85,4.13,1.71,1.53,1.71,1.61,2.83,0,2.92-4,2.36-9.51.17-13.86-2.06-4.18-6.42-5-8.74-8.69-.52-.82-.7-4.47-1.2-6C42.22,375.2,42.33,376.15,42.86,376.81Z"/><path class="cls-16" d="M41.55,374.79a1.32,1.32,0,0,0-.45-.17l-.16-.5C41.2,374,41.38,374.31,41.55,374.79Z"/><path class="cls-16" d="M37.59,352.91c2.34,2.06,6.32,3.12,9.26,1.95,4.94-1.9,4.64-9.07,4.64-13.52a58,58,0,0,0-1-10.67c-.26-1.36-.7-5-1.76-5.84l-.32-.49c3,.78,3.94,5.33,5.22,7.88A25.52,25.52,0,0,0,59,338.91c1.8,1.82.82,5.27.47,7.64a83.74,83.74,0,0,1-1.87,8.53c-1.46,5.83-6.59,10.69-12.5,8.64C40,362,31.12,355,34.24,348.4,35.51,349.56,36.2,351.66,37.59,352.91Z"/><path class="cls-16" d="M60.57,342c-.25-.05,0-.2-.14-.32l-.31-.85h.07A3.83,3.83,0,0,1,60.57,342Z"/><path class="cls-16" d="M51.69,361.88c2.83-2.23.22-3.74.63-6.63.6.66,1.2,2,2.38,1.66s.55-1.22.79-2.16a22.65,22.65,0,0,1,1.28-2.69c.32-.84.46-1.79.82-2.71a8.43,8.43,0,0,0,.49-6.11,29.16,29.16,0,0,1-1.3-5.68c1.11-.05,2.7,1.84,3.41,3.31h-.07l.31.85c.11.12-.11.27.14.32a3.83,3.83,0,0,0-.38-1.17,1.67,1.67,0,0,1,.38,0c.54,1.85-.36,2.89-.77,4.52-.35,1.32.17,2.84-.16,4.14s-1.4,2.68-1.75,4.16a34.76,34.76,0,0,1-1.17,4.37c-.89,2.36-2.49,4.82-4.87,5.72-2.05.78-7.28,1.4-8.92-.56C46.14,363.21,48.85,364.13,51.69,361.88Z"/><path class="cls-12" d="M32.7,276.83c2.22.1,3.19,1.8,4.68,3.07s3.09,2.16,4.43,3.83c.61.75,1.1,1.79,1.75,2.46s1.58.84,2.08,1.36c.82.91.57,2.18,1.1,3.09.41.69,1.24.91,1.72,1.57.78,1,.63,2.31,1.2,3.33s1.47,1,2,1.77A35.42,35.42,0,0,1,54,302c1,2,2.27,3.58,3.21,5.56,1.09,2.32,1,4,2.56,6.06a27.68,27.68,0,0,1,3.56,8c1.77,5.67,1.58,10,.26,15.61l.42-1.11a2.7,2.7,0,0,0,.57,0,20.6,20.6,0,0,0-2.74,4.69c-.48,1.47-.51,4.18-2.3,4.87-3.45,1.32-8.4-5.19-10-7.54-6.3-9.11-8.61-20.93-12.39-31.35-.93-2.54-2-4.76-3.09-7.2-.93-2.13-.87-4.55-1.68-6.68-1.08-2.78-2.4-3.58-2.63-6.74a26.08,26.08,0,0,0-.47-4.22c-.15-.61-1.12-2.09-1-2.64C28.46,277.73,31.39,276.75,32.7,276.83Z"/><path class="cls-17" d="M32.27,279.49l-1.48-.88a1.85,1.85,0,0,1,1.34.43A2.18,2.18,0,0,1,32.27,279.49Z"/><path class="cls-17" d="M32.13,279a1.85,1.85,0,0,0-1.34-.43l1.48.88a2.18,2.18,0,0,0-.14-.45c2.27,1.55,5.16,6.71,6.07,8.2a103.55,103.55,0,0,1,6.43,12.7c2.89,6.89,5.87,14,7.82,21.21,1.34,5,3.08,9.9,4.36,14.94.76,3,2.67,6.52,2.27,9.54-3.91.9-9.22-8.39-11.09-11.32-3-4.68-4.59-10.07-6.3-15.39A93,93,0,0,0,37.8,308c-.91-2-1.26-4.17-2.06-6.24a31,31,0,0,1-1.92-5c-.4-2.11-.31-3.09-1.39-5a11.82,11.82,0,0,1-1.85-4.94,24.68,24.68,0,0,0-1-5.13C28.93,279.48,31.33,277,32.13,279Z"/><path class="cls-16" d="M76,395.36c1.92-1.95,4-2.34,5.75-4.7A13.1,13.1,0,0,0,84.54,383c.08-2.78-1.75-6.15-1.3-8.71.52-2.82,4.21-4.51,5.15-7.34s0-5.62,1.51-8.32,4.28-4.55,6.21-7,4-4.92,7.29-5c4.45-.15,18.06,11.37,16,15.39v-.35c-1.16,1-9.86-6.75-12.46-7.94-7-3.2-6.87,4-7.64,9.35-.8,5.65-2,12.69-5.2,17.57s-6.61,7-7.53,13.43c-1,6.72-2.45,11.71-7.34,16.36-1.79,1.71-4,3.67-5.2,6a9.41,9.41,0,0,0-.4,1H69.78a37,37,0,0,1,1.58-12.69C72.29,401.74,73.84,397.55,76,395.36Z"/><path class="cls-18" d="M22,366.92l-.33-.31c0,2.28-.44,6.64-.32,9.76.11,2.78,1.3,5.25,1.28,7.84-.69-1.95-2.85-3.1-3.57-4.83-.86-1.94-.21-2.24.37-4.76.49-2,1.58-10.82-1.86-10-.55,2.78.36,7-1.92,8.92-.15-2.66,1.31-9.69-.56-11.55C19,362.81,22.89,364.17,22,366.92Z"/><path class="cls-18" d="M8.23,360.94c1,.26,3.78.51,6.6,1.06-3.78,3.72-1.87,9.35-7.45,12.24,2.52-2.48,4.13-8,3.66-11.6-4.39-.33-6.55,8.4-6.41,11.88-2.17-5.16,1.54-8.44,1.94-13.22-4.5,1.31-6.67,6.23-5.43,10.88A7.22,7.22,0,0,1,0,369.75V366.2a25.19,25.19,0,0,0,1.14-5.55,4,4,0,0,0-1.14.2v-.68A24.35,24.35,0,0,1,8.23,360.94Z"/><path class="cls-18" d="M15.05,362l-.22,0a.54.54,0,0,0,.09-.12A.67.67,0,0,0,15.05,362Z"/><path class="cls-16" d="M72.12,341.82a54.88,54.88,0,0,1,7.65-.95c-1.12,2.86.71,4,1.83,6.37a13.7,13.7,0,0,1,1,7.22c-1.07-3.82-1.91-8.4-6.66-8.9-5-.54-5.07,4.33-6.62,7.65a43.46,43.46,0,0,0-1-8c-.71-2.29-4.35-4-4.16-6.34C64.58,332.76,74.49,336.76,72.12,341.82Z"/><path class="cls-12" d="M92.54,381.31c2.41-3.69,4.13-6.67,8.36-8.28,7.19-2.73,16.52-6.87,24.22-6.45a13.53,13.53,0,0,0,5.11-.57c1.32-.34,5.34-2,5.11.94-.12,1.38-6.36,4.27-7.65,5.34-3.43,2.81-4.58,5.5-4.81,9.93-.29,5.93.31,14.15-7.35,14.12-2.59,0-5.19-2.31-7.66-1.67-2.64.65-5,5-6.39,7.26-3.25,5.17-6.36,10.78-10.36,15.47H68.6c1.16-6.07,5.3-12.07,8.2-17C81.21,393,87.92,388.3,92.54,381.31Z"/><path class="cls-16" d="M135,367.28H135c0-.07.09-.1.12-.15Z"/><path class="cls-16" d="M88.69,397.94a37.63,37.63,0,0,1,10.22-12,90.73,90.73,0,0,1,18.25-11.61c5.43-2.54,11.53-7.55,17.79-7-1.2,1-3.19,1.06-4.74,1.66-2.15.81-4.19,2.18-6.38,3.27-5.16,2.58-10.26,4.1-14.93,7.83a178.93,178.93,0,0,0-13.81,12.62c-5.51,5.44-5.07,12.45-9,18.76-.74,1.16-2.82,3.58-4.46,6H75.89c2.36-3.15,5.5-5.71,8-8.7C86.62,405.5,86.82,401.66,88.69,397.94Z"/><path class="cls-16" d="M135.07,367.13l.91-1.86A2.76,2.76,0,0,1,135.07,367.13Z"/><path class="cls-16" d="M92.21,382.31l.33-.69c-2.22,5-5.76,13.49-1.91,18.66,2.08,2.8,7.42,4.83,10.58,3.2C98,408,94.84,413.12,91.11,417.4H68.5c2.32-8.08,9.8-18.91,11.84-21.73C83.94,390.66,88.08,386.94,92.21,382.31Z"/><path class="cls-19" d="M40.14,410.38h59a1.75,1.75,0,1,1,0,3.46h-.85V423c0,13.78-6.39,25.69-15.73,31.59H56c-9.34-5.9-15.73-17.81-15.73-31.59v-9.12h-.15a1.75,1.75,0,1,1,0-3.46Z"/><path class="cls-20" d="M98.82,410.38H88.31c-2.42,12.53-12.08,21-24.14,24.93a121.3,121.3,0,0,1-20,4.33l-.14,0a33.15,33.15,0,0,0,12.34,14.89H82.91c9.35-5.9,15.76-17.81,15.76-31.59v-9.12h.15a1.75,1.75,0,1,0,0-3.46Z"/><path class="cls-20" d="M39.2,412.12H99.45a.91.91,0,0,1,0,1.81H39.2a.91.91,0,0,1,0-1.81Z"/><ellipse class="cls-3" cx="719.02" cy="454.42" rx="42.08" ry="6.18"/><path class="cls-7" d="M722.18,363.58l-.57.22a6.85,6.85,0,0,0,1.2.42A.71.71,0,0,0,722.18,363.58Z"/><path class="cls-7" d="M743.18,365.2c-3.42,1.71-5.47,1.9-9.18,2.08-3.08.13-6.62.31-8.87,2.66-1.78,1.85-2,5-4.14,6.44-1.37.94-4.35,1.07-5.71,2.5a12.55,12.55,0,0,1-.68,2.06,2.52,2.52,0,0,1,.68-2.06c1.4-4.84,3.5-14.8,5.94-14.95l.39-.13a38.14,38.14,0,0,0-5.05-2.24c2.29,3.65-2.82,11.74-3.56,15.68-1.18,6.09-.39,12.23,3.83,16.76,7.5,8.05,17.93,3.24,25.8-1.93,4.46-2.93,6.26-6.06,9.58-9.76,1.37-1.52,3.09-2.39,4.46-4,1-1.21,1.86-3.47,3.14-4.34,2.73-1.93,5.1,1.21,8,.69,1.88-.33,3-1.67,4.09-3.06V358.73C762,357.84,752.05,360.71,743.18,365.2Z"/><path class="cls-7" d="M715.28,378.88a2.52,2.52,0,0,0-.68,2.06A12.55,12.55,0,0,0,715.28,378.88Z"/><path class="cls-8" d="M698.11,374.24c-1.79-4.07-4.85-7.29-6.76-11.2-1.27-2.66-1.19-5.93-2.6-8.52-1.65-3.08-6.14-4.51-8.57-7s-5.9-8-9.68-7.65c-4.6.37-9.4,6.26-12,9.78-2.31,3.23-7.42,9.06-7,13.4,3.34-.45,6.75-5.56,10-7.11a32.63,32.63,0,0,1,6.14-2.63c3.09-.77,4.63,4.64,5.18,7.77.84,4.76.46,9.57,2.54,13.86,1.28,2.61,3.09,4.47,4.64,6.94,1.3,2.13,2.92,3.28,3.92,5.64,1.69,4.11,1.58,8.9,3.22,13A39.93,39.93,0,0,0,694.93,413a17.19,17.19,0,0,1,3.25,4.41H707c1.27-3.73.68-8.6.52-12.26C707,394.57,702.31,383.71,698.11,374.24Z"/><path class="cls-9" d="M700.15,335.36c-1.68,1.08-2.6,2.8-4.48,3.51-1,.38-4.42.89-4.14,2.34h.62c.34-1.69,2.31-.52,3.25-.16,1.26.46,2.82.41,4,1.1-.2-2.07,1.55-3.94,2.58-5.44C703.54,334.39,702,334.14,700.15,335.36Z"/><path class="cls-10" d="M756,293.59l.32-.49c-1.4-.25-2,.91-2.86,1.84a29.82,29.82,0,0,1-4.31,3.16,73.52,73.52,0,0,0-10.39,8c-5.7,5.65-9.92,12.61-15.83,18-2.4,2.17-3,5.62-4.72,8.25-1.58,2.47-3.71,4.61-5.49,7-1.59,2.09-2.85,4.12-3,6.88-.22,3.08,1.48,4.41,3.35,6.34,1.25,1.28,2,4.69,3.84,4.69,2.37,0,3.91-5.95,4.91-7.82,3.73-7,6.21-14.78,10.58-21.41a209.55,209.55,0,0,1,14.35-19.57c1.9-2.26,3.65-4.7,5.45-7,1.22-1.53,2.94-2.64,4.12-4.18a5,5,0,0,0,1.15-2.51C757.41,293.94,756.55,292.8,756,293.59Z"/><path class="cls-11" d="M701,335.18a3.24,3.24,0,0,0-.87.31Z"/><path class="cls-12" d="M713.4,348.72c-.39-2.42-.42-4.66-1.42-7-1.2-2.75-3.14-5.86-6.13-6.71-1.7-.48-4.47-.81-5.87.51l.1,0a3.24,3.24,0,0,1,.87-.31,3.24,3.24,0,0,0-.87.31c-1.24.69-2.24,2.36-3.61,2.85s-4.13.32-4.84,1.85c-.38.84.34,1.05.34,1.54,0,1.15-.28,1-.78,1.84a12,12,0,0,0-1.59,4.78c-.68,6-.53,11.92,3,17,1,1.47,2.19,3,1.39,5s-2.59,3.11-3.26,5.35c-1.55,5.11-1.48,16,4.38,18.37,4.8,1.93,6-6.08,10.75-5.34,3.35.52,6.44,6.95,8.27.49.81-2.86-.8-5.33-.61-8,.09-1.4,1.09-2.67,1.59-4a30.6,30.6,0,0,0,1.28-4.8c1.24-5.77,1.44-11.11-.64-16.75C715,353.35,713.77,351.07,713.4,348.72Z"/><path class="cls-13" d="M699.18,342.34c0-.15,0-.27,0-.4l0-.07Z"/><path class="cls-13" d="M710,338.52c-1.34-1.93-4.58-4.49-7-3.82-1.16.31-1.7,2.46-2.41,3.69a7.51,7.51,0,0,0-1.4,3.55c2.28,3.83,3.39,10,3.77,14.51.49,5.71.84,11.38.84,17.12,0,4.93.48,11.52-1.3,16,2.06-1.86,5.66-.64,7.52.93,1,.84,1.76,2.05,3.2,1.14s1.45-3,1.32-4.4c-.17-1.72-1.43-3.06-1.44-4.8s1.25-3.72,1.84-5.52a36.88,36.88,0,0,0,2.1-11.86c0-6.59-4.13-11.6-4.47-18C712.43,343.6,712,341.41,710,338.52Z"/><path class="cls-14" d="M756.49,293.94a6.61,6.61,0,0,1-2.22,3.62A50,50,0,0,0,751,302c-1.64,2.09-3.85,3.63-5.56,5.68-4.66,5.55-8.34,11.52-12.18,17.69-3.52,5.6-5.88,12.08-8.44,18.19-1.11,2.64-1.78,5.51-3.23,8s-3.26,4.57-4.79,6.84l-.47-1.16c-.12.16-.25.1-.29.29,1.36,2.76,3.13,6,6.36,6.77,5.72,1.39,11.31-3.14,14.37-7.68a18.44,18.44,0,0,0,2.55-9.69c0-4.06,1.69-6.36,3.55-9.8.84-1.47,2-3.18,2.22-4.92.18-1.51-.41-3-.15-4.55.45-2.73,3.35-4.61,3.5-7.23,0-1-.61-1.92-.31-3a16.42,16.42,0,0,1,1.69-2.8c1.26-2.33,2-5.16,3.39-7.38,1.58-2.48,3.48-4.53,4.32-7.48C757.92,298.29,758.47,294.56,756.49,293.94Z"/><path class="cls-12" d="M750,300.1c-1.47,1.54-2,3.77-3.36,5.35-3.07,3.49-6.29,6.58-9,10.5a80.22,80.22,0,0,0-8.46,15.1c-2.05,4.93-3.81,10-6.35,14.63-1,1.87-2,3.64-3.21,5.39-1,1.59-1.91,3.6-3.17,1.17a29.91,29.91,0,0,1-2.29-6.48c-.4-1.73-.76-4.13-2.52-5-.11,1.84.76,4.07.9,6a18.36,18.36,0,0,0,1.2,5.46c.89,2.4,1.37,5.24,2.79,7.42a13.48,13.48,0,0,0,5.15,4.69c1.75.82,6.35.67,7.49-1.18-2.67-.49-5,.76-7.66-.88-2.48-1.51-2.57-3.59-1.45-6.08,2.61-5.76,5.8-10.93,7.79-17a93.56,93.56,0,0,1,15-27.07c2.72-3.52,5.66-6.69,8.19-10.35.88-1.28,5.78-5.54,4.72-7.52C754.28,296.72,752,298.07,750,300.1Z"/><path class="cls-15" d="M755.82,294.26c.07-.12.14-.21.21-.34h-.47A1.23,1.23,0,0,1,755.82,294.26Z"/><path class="cls-14" d="M752.18,356.94a16.07,16.07,0,0,1-4.76,3.31c-3.35,1.71-4.55,3.58-5.32,7.31-.81,4-1.55,6.83-4.16,9.94-3.31,3.95-6.85,7.59-9.87,11.82-1.9,2.7-3.05,5.61-4.6,8.48-1.13,2.12-3.14,3.57-4.37,5.56-.91,1.49-3.31,6.12-1.23,7.53.13,0,.14-.07.14-.11a1.26,1.26,0,0,0-.3-.23H718c-.07.08,0,.17,0,.23.77.64,1.24,1.63,2.09,2.22a5.45,5.45,0,0,0,5.42.39c3-1.34,4-3.55,5.07-6.4,1.27-3.18,4.35-4.36,6.45-6.79a58.62,58.62,0,0,0,6.54-10.34c1.6-2.92,3.38-6.29,3.84-9.68.3-2.3.26-4.72.48-7a32.39,32.39,0,0,1,.79-5.73c.7-2.45,2-2.86,3.79-4.35s5.47-8.69,2.92-10.55C754.15,353.65,753.4,355.65,752.18,356.94Z"/><path class="cls-14" d="M717.71,410.55a1.26,1.26,0,0,1,.3.23c0-.06,0-.15,0-.23Z"/><path class="cls-11" d="M753.72,347.29l.72-.9C754.25,346.43,754,346.8,753.72,347.29Z"/><path class="cls-12" d="M756.52,339.5a13.43,13.43,0,0,0-1.24-.79,12.34,12.34,0,0,1,.12,5.17c-.32,1.25-1.63,2.28-1.75,3.51l.07-.1c.27-.49.53-.86.72-.9l-.72.9c-.39.68-.78,1.53-1.09,1.93a24.16,24.16,0,0,1-4,4,29.23,29.23,0,0,0-4.92,5.14c-1.19,1.78-1.81,3.84-3.06,5.56-2.27,3.14-5.6,5.17-8,8.2-1.5,1.87-2.64,4.09-4.57,5.5-1.45,1.06-3.19,1.25-4.85,1.74a18.5,18.5,0,0,0-6.47,3.56c-3.42,2.87-4.37,7.27-6.9,10.74-2.38,3.23-4.89,9.17-3.65,13.33a7.83,7.83,0,0,0,5.45,5c3.36.69,6.38-2.29,8.41-4.67,2.6-3.08,4.52-6.67,7.16-9.68,2-2.22,4.85-3.12,6.71-5.37a18.26,18.26,0,0,0,3.58-9.51c.35-2.64.57-4.63,3.15-5.46,3.19-1,1.73-1.12,2.56-4,.5-1.7,2.62-1.2,3-3.42.38-1.93-.61-3.88.12-5.84,1-2.81,3.71-3.14,6-4.47a11.56,11.56,0,0,0,5.31-5.64c.66-1.8,1.06-3.76,1.68-5.55A8.79,8.79,0,0,0,756.52,339.5Z"/><path class="cls-14" d="M709.23,343.9a15.34,15.34,0,0,1-.44,2.19A7.81,7.81,0,0,0,709.23,343.9Z"/><path class="cls-14" d="M709.25,343.1a5.41,5.41,0,0,1,0,.8A3.7,3.7,0,0,0,709.25,343.1Z"/><path class="cls-14" d="M699.36,341.72a1.27,1.27,0,0,0,.15.41s0-.06,0-.09Z"/><path class="cls-14" d="M704.65,385.64c-.15-2.27.2-4.55.09-6.85-.12-2.58.8-2.73,2.47-4.67a25.73,25.73,0,0,0,4.27-7.51,20.41,20.41,0,0,0,1.92-7c-.16,3.19-3.12,6.86-4.6,9.32-1.3,2.18-2.58,5-4.47,6.55-.3-3,.32-6.58.47-9.66,2-.38,3.7-5.32,4.45-7.05,1-2.42,2.41-5.22,2.23-8-1.06,5.06-3.94,9.32-6.66,13.32-.31-1.75,0-3.54-.24-5.31-.17-1.24-.89-2.49-.9-3.67,1.86,0,4.16-5.3,5.11-9a21.34,21.34,0,0,1-5.59,7.81,35.18,35.18,0,0,0-.18-3.71c-.15-1-1.16-2.61-1.08-3.51.1-1.36,2.27-3.8,2.71-5.47.33-1.18,1-4.08.15-5-.73,3.44-1.51,6.91-3.85,9.62a5.49,5.49,0,0,0-.2-2.26c-.29-.63-.91-.85-1.24-1.44.11,2.51,1.74,5.34,2.38,7.77a37.22,37.22,0,0,1,1.12,8.35c.14,4,.64,7.81.64,11.86,0,6.15.58,12.86-.33,18.84.1-1.93,2.35-1.51,3.38-2.46.52-.5.52-1.21.81-1.84a10.38,10.38,0,0,1,2.09-2.86,25.28,25.28,0,0,0,5.5-10.17c-2.12,2.94-4.23,6.07-6.17,9.15C707.72,382.69,706.71,384.6,704.65,385.64Z"/><path class="cls-14" d="M713.4,359c0,.2,0,.43,0,.62C713.41,359.39,713.41,359.16,713.4,359Z"/><path class="cls-16" d="M729.06,376.81c-.66.81-.93.77-1.77,1.16a28.21,28.21,0,0,1-3.64,1.2c-2.79.89-6.26,2.3-8.33,4.64-4.32,4.86-8.81,13-9.46,19.73a7.53,7.53,0,0,0,7.67,8,9.49,9.49,0,0,0,3.35-.54c1.84-.69.9-1,1.82.52,1.9,3,4.42,2.73,7.61,1.67-.89-2.67-6.81-1.12-3.93-5.48,1.31-2,5.44-5.92,4.9-8.51-1.36.71-2.6,3-3.85,4.13-1.71,1.53-1.71,1.61-2.83,0-2.92-4-2.36-9.51-.17-13.86,2.06-4.18,6.42-5,8.74-8.69.52-.82.7-4.47,1.2-6C729.7,375.2,729.59,376.15,729.06,376.81Z"/><path class="cls-16" d="M730.37,374.79a1.32,1.32,0,0,1,.45-.17l.16-.5C730.72,374,730.54,374.31,730.37,374.79Z"/><path class="cls-16" d="M734.33,352.91C732,355,728,356,725.07,354.86c-4.94-1.9-4.64-9.07-4.64-13.52a58,58,0,0,1,1-10.67c.26-1.36.7-5,1.76-5.84l.32-.49c-3,.78-3.94,5.33-5.22,7.88a25.55,25.55,0,0,1-5.3,6.69c-1.79,1.82-.81,5.27-.46,7.64a83.74,83.74,0,0,0,1.87,8.53c1.46,5.83,6.59,10.69,12.5,8.64,5-1.76,13.95-8.75,10.83-15.32C736.41,349.56,735.72,351.66,734.33,352.91Z"/><path class="cls-16" d="M711.35,342c.25-.05,0-.2.13-.32l.32-.85h-.07A3.83,3.83,0,0,0,711.35,342Z"/><path class="cls-16" d="M720.23,361.88c-2.84-2.23-.22-3.74-.63-6.63-.6.66-1.2,2-2.38,1.66s-.55-1.22-.79-2.16a22.65,22.65,0,0,0-1.28-2.69c-.32-.84-.46-1.79-.82-2.71a8.37,8.37,0,0,1-.49-6.11,28.42,28.42,0,0,0,1.29-5.68c-1.1-.05-2.69,1.84-3.4,3.31h.07l-.32.85c-.1.12.12.27-.13.32a3.83,3.83,0,0,1,.38-1.17,1.63,1.63,0,0,0-.38,0c-.55,1.85.36,2.89.77,4.52.35,1.32-.17,2.84.15,4.14s1.41,2.68,1.76,4.16a34.76,34.76,0,0,0,1.17,4.37c.89,2.36,2.49,4.82,4.86,5.72,2.06.78,7.29,1.4,8.93-.56C725.78,363.21,723.07,364.13,720.23,361.88Z"/><path class="cls-12" d="M739.22,276.83c-2.22.1-3.2,1.8-4.68,3.07s-3.09,2.16-4.43,3.83c-.61.75-1.1,1.79-1.75,2.46s-1.58.84-2.08,1.36c-.82.91-.57,2.18-1.1,3.09-.41.69-1.24.91-1.72,1.57-.78,1-.63,2.31-1.2,3.33s-1.47,1-2,1.77a35.42,35.42,0,0,0-2.33,4.65c-1,2-2.27,3.58-3.21,5.56-1.09,2.32-1,4-2.56,6.06a27.68,27.68,0,0,0-3.56,8c-1.77,5.67-1.58,10-.26,15.61l-.43-1.11a2.63,2.63,0,0,1-.56,0,20.6,20.6,0,0,1,2.74,4.69c.48,1.47.51,4.18,2.3,4.87,3.44,1.32,8.4-5.19,10-7.54,6.3-9.11,8.61-20.93,12.39-31.35.93-2.54,2-4.76,3.09-7.2.93-2.13.87-4.55,1.68-6.68,1.08-2.78,2.4-3.58,2.63-6.74a25,25,0,0,1,.47-4.22c.15-.61,1.12-2.09,1-2.64C743.46,277.73,740.52,276.75,739.22,276.83Z"/><path class="cls-17" d="M739.65,279.49l1.48-.88a1.85,1.85,0,0,0-1.34.43A2.18,2.18,0,0,0,739.65,279.49Z"/><path class="cls-17" d="M739.79,279a1.85,1.85,0,0,1,1.34-.43l-1.48.88a2.18,2.18,0,0,1,.14-.45c-2.27,1.55-5.16,6.71-6.07,8.2a102.16,102.16,0,0,0-6.43,12.7c-2.89,6.89-5.87,14-7.82,21.21-1.34,5-3.08,9.9-4.36,14.94-.76,3-2.67,6.52-2.27,9.54,3.91.9,9.22-8.39,11.08-11.32,3-4.68,4.59-10.07,6.31-15.39a94.85,94.85,0,0,1,3.88-10.9c.92-2,1.27-4.17,2.07-6.24a31,31,0,0,0,1.92-5c.4-2.11.31-3.09,1.39-5a11.82,11.82,0,0,0,1.85-4.94,24.68,24.68,0,0,1,1-5.13C743,279.48,740.59,277,739.79,279Z"/><path class="cls-16" d="M695.91,395.36c-1.91-1.95-4-2.34-5.74-4.7a13.1,13.1,0,0,1-2.79-7.69c-.08-2.78,1.75-6.15,1.3-8.71-.52-2.82-4.21-4.51-5.15-7.34s0-5.62-1.51-8.32-4.28-4.55-6.21-7-4-4.92-7.29-5c-4.45-.15-18.06,11.37-16,15.39v-.35c1.16,1,9.86-6.75,12.46-7.94,7-3.2,6.87,4,7.63,9.35.81,5.65,2,12.69,5.2,17.57s6.62,7,7.54,13.43c1,6.72,2.45,11.71,7.34,16.36,1.79,1.71,4,3.67,5.2,6a9.41,9.41,0,0,1,.4,1h3.8a36.8,36.8,0,0,0-1.57-12.69C699.63,401.74,698.08,397.55,695.91,395.36Z"/><path class="cls-18" d="M750,366.92l.33-.31c0,2.28.44,6.64.32,9.76-.11,2.78-1.3,5.25-1.28,7.84.69-1.95,2.85-3.1,3.57-4.83.86-1.94.2-2.24-.38-4.76-.48-2-1.57-10.82,1.87-10,.55,2.78-.36,7,1.92,8.92.15-2.66-1.31-9.69.56-11.55C752.93,362.81,749,364.17,750,366.92Z"/><path class="cls-18" d="M763.69,360.94c-1,.26-3.78.51-6.6,1.06,3.78,3.72,1.87,9.35,7.44,12.24-2.51-2.48-4.13-8-3.65-11.6,4.39-.33,6.54,8.4,6.41,11.88,2.17-5.16-1.54-8.44-1.94-13.22,4.5,1.31,6.66,6.23,5.43,10.88a7.22,7.22,0,0,0,1.14-2.43V366.2a24.09,24.09,0,0,1-1.14-5.55,4,4,0,0,1,1.14.2v-.68A24.35,24.35,0,0,0,763.69,360.94Z"/><path class="cls-18" d="M756.87,362l.22,0a.54.54,0,0,1-.09-.12A.67.67,0,0,1,756.87,362Z"/><path class="cls-16" d="M699.8,341.82a55.07,55.07,0,0,0-7.65-.95c1.12,2.86-.71,4-1.83,6.37a13.7,13.7,0,0,0-1,7.22c1.07-3.82,1.91-8.4,6.65-8.9,5-.54,5.08,4.33,6.63,7.65a43.46,43.46,0,0,1,1-8c.71-2.29,4.35-4,4.16-6.34C707.34,332.76,697.42,336.76,699.8,341.82Z"/><path class="cls-12" d="M679.38,381.31c-2.41-3.69-4.13-6.67-8.36-8.28-7.19-2.73-16.52-6.87-24.22-6.45a13.53,13.53,0,0,1-5.11-.57c-1.32-.34-5.34-2-5.12.94.13,1.38,6.37,4.27,7.66,5.34,3.43,2.81,4.58,5.5,4.81,9.93.29,5.93-.31,14.15,7.35,14.12,2.59,0,5.18-2.31,7.66-1.67,2.64.65,5,5,6.39,7.26,3.25,5.17,6.36,10.78,10.36,15.47h22.52c-1.16-6.07-5.3-12.07-8.2-17C690.7,393,684,388.3,679.38,381.31Z"/><path class="cls-16" d="M636.9,367.28H637a1,1,0,0,0-.13-.15Z"/><path class="cls-16" d="M683.23,397.94a37.54,37.54,0,0,0-10.23-12,90.66,90.66,0,0,0-18.24-11.61c-5.43-2.54-11.53-7.55-17.79-7,1.2,1,3.19,1.06,4.74,1.66,2.15.81,4.19,2.18,6.38,3.27,5.16,2.58,10.26,4.1,14.93,7.83a178.93,178.93,0,0,1,13.81,12.62c5.51,5.44,5.07,12.45,9,18.76.74,1.16,2.81,3.58,4.45,6H696c-2.36-3.15-5.5-5.71-8-8.7C685.3,405.5,685.1,401.66,683.23,397.94Z"/><path class="cls-16" d="M636.84,367.13l-.9-1.86A2.8,2.8,0,0,0,636.84,367.13Z"/><path class="cls-16" d="M679.71,382.31l-.33-.69c2.22,5,5.76,13.49,1.91,18.66-2.08,2.8-7.42,4.83-10.58,3.2,3.19,4.53,6.37,9.64,10.1,13.92h22.61c-2.32-8.08-9.8-18.91-11.84-21.73C688,390.66,683.84,386.94,679.71,382.31Z"/><path class="cls-19" d="M676.07,410.38h59a1.75,1.75,0,1,1,0,3.46h-.85V423c0,13.78-6.39,25.69-15.73,31.59H692c-9.34-5.9-15.73-17.81-15.73-31.59v-9.12h-.16a1.75,1.75,0,1,1,0-3.46Z"/><path class="cls-20" d="M734.75,410.38h-10.5c-2.42,12.53-12.08,21-24.14,24.93a121.19,121.19,0,0,1-20,4.33l-.13,0a33.15,33.15,0,0,0,12.34,14.89h26.55c9.34-5.9,15.76-17.81,15.76-31.59v-9.12h.14a1.75,1.75,0,1,0,0-3.46Z"/><path class="cls-20" d="M675.14,412.12h60.25a.89.89,0,0,1,.86.91.88.88,0,0,1-.86.9H675.14a.91.91,0,0,1,0-1.81Z"/><path class="cls-21" d="M137.73,126.7H637.78a11.52,11.52,0,0,1,11.52,11.52v314.1a1.63,1.63,0,0,1-1.63,1.63H127.85a1.63,1.63,0,0,1-1.63-1.63V138.21A11.52,11.52,0,0,1,137.73,126.7Z"/><path class="cls-22" d="M144,148.94H631.56a0,0,0,0,1,0,0V436.41a1.63,1.63,0,0,1-1.63,1.63H145.65a1.63,1.63,0,0,1-1.63-1.63V148.94A0,0,0,0,1,144,148.94Z"/><path class="cls-23" d="M96.9,449.19H678.28s4.88,19.37-51.3,19.37H120.51S102.6,467.07,96.9,449.19Z"/><path class="cls-24" d="M431,455.1H333.25c-5.08,0-9.2-2.51-9.2-5.61H440.18C440.18,452.59,436.07,455.1,431,455.1Z"/><path class="cls-25" d="M648.1,464.52H126.3c-14.8,0-27.06-6.57-29.44-15.19h-.45v3.27c0,10.06,13.38,18.23,29.89,18.23H648.1c16.51,0,29.9-8.17,29.9-18.23v-3.27h-.45C675.17,458,662.91,464.52,648.1,464.52Z"/><rect class="cls-26" x="170.99" y="175.9" width="201.12" height="124.29"/><rect class="cls-22" x="179.41" y="183.48" width="184.29" height="109.13"/><polygon class="cls-27" points="348.49 278 348.49 226.55 338.32 226.55 338.32 278 331.8 278 331.8 240.56 321.63 240.56 321.63 278 315.1 278 315.1 223.58 304.94 223.58 304.94 278 298.41 278 298.41 215.65 288.25 215.65 288.25 278 281.72 278 281.72 240.56 271.56 240.56 271.56 278 263.68 278 263.68 207.77 261.45 207.77 261.45 280.24 355.97 280.24 355.97 278 348.49 278"/><rect class="cls-26" x="189.59" y="200.83" width="57.32" height="3.47"/><rect class="cls-26" x="189.59" y="210.74" width="57.32" height="3.47"/><rect class="cls-26" x="189.59" y="220.66" width="28.16" height="3.47"/><polygon class="cls-26" points="226.6 263.92 226.6 273.84 221.47 278.89 211.64 278.89 211.64 263.92 226.6 263.92"/><polygon class="cls-28" points="226.6 273.84 221.47 278.89 221.47 273.84 226.6 273.84"/><rect class="cls-29" x="190.16" y="263.92" width="14.97" height="14.97"/><polygon class="cls-26" points="343.41 212.61 334.78 214.78 337.1 217.17 326.64 227.31 290.92 199.49 273.13 212.83 274.47 214.62 290.89 202.3 326.79 230.26 338.65 218.77 340.97 221.17 343.41 212.61"/><circle class="cls-30" cx="224.6" cy="244.71" r="10.08"/><path class="cls-22" d="M230.54,243.34h-1.25a5,5,0,0,0-.41-1l.89-.88a.64.64,0,0,0,0-.89l-1.05-1.05a.63.63,0,0,0-.88,0l-.89.89a5,5,0,0,0-1-.41v-1.25a.62.62,0,0,0-.62-.62h-1.49a.62.62,0,0,0-.62.62V240a4.5,4.5,0,0,0-1,.41l-.89-.89a.63.63,0,0,0-.88,0l-1.05,1.05a.62.62,0,0,0,0,.89l.88.88a4.92,4.92,0,0,0-.4,1h-1.25a.63.63,0,0,0-.63.63v1.48a.63.63,0,0,0,.63.63h1.25a4.92,4.92,0,0,0,.4,1l-.88.88a.61.61,0,0,0,0,.88l1.05,1.05a.61.61,0,0,0,.88,0l.89-.88a4.48,4.48,0,0,0,1,.4v1.26a.62.62,0,0,0,.62.62h1.49a.62.62,0,0,0,.62-.62v-1.26a4.92,4.92,0,0,0,1-.4l.89.88a.61.61,0,0,0,.88,0l1.05-1.05a.63.63,0,0,0,0-.88l-.89-.88a5,5,0,0,0,.41-1h1.25a.63.63,0,0,0,.63-.63V244A.63.63,0,0,0,230.54,243.34Zm-5.94,4a2.62,2.62,0,1,1,2.62-2.62A2.63,2.63,0,0,1,224.6,247.33Z"/><rect class="cls-31" x="189.92" y="236.18" width="4.2" height="4.2"/><rect class="cls-31" x="196.74" y="236.18" width="4.2" height="4.2"/><rect class="cls-31" x="189.92" y="242.61" width="4.2" height="4.2"/><rect class="cls-29" x="196.74" y="242.61" width="4.2" height="4.2"/><rect class="cls-29" x="189.92" y="249.04" width="4.2" height="4.2"/><rect class="cls-29" x="196.74" y="249.04" width="4.2" height="4.2"/><rect class="cls-32" x="471.3" y="206.11" width="20.3" height="42.7"/><rect class="cls-33" x="501.04" y="222.12" width="20.31" height="26.69"/><rect class="cls-34" x="530.79" y="209.46" width="20.31" height="39.35"/><rect class="cls-35" x="560.53" y="179.19" width="20.31" height="69.63"/><polyline class="cls-36" points="451.47 264.89 600.92 264.89 600.92 173.91"/><path class="cls-34" d="M194,366.49a11.35,11.35,0,1,1-11.35-11.35A11.35,11.35,0,0,1,194,366.49Z"/><path class="cls-34" d="M194,327.46a11.35,11.35,0,1,1-11.35-11.36A11.35,11.35,0,0,1,194,327.46Z"/><polygon class="cls-22" points="181.71 332.82 176.46 326.06 181.22 328.05 192.16 318.48 181.71 332.82"/><path class="cls-34" d="M194,406.28a11.35,11.35,0,1,1-11.35-11.35A11.35,11.35,0,0,1,194,406.28Z"/><polygon class="cls-22" points="181.71 370.96 176.46 364.2 181.22 366.19 192.16 356.62 181.71 370.96"/><polygon class="cls-22" points="181.71 411.19 176.46 404.43 181.22 406.42 192.16 396.85 181.71 411.19"/><rect class="cls-34" x="200.67" y="319.68" width="97.96" height="6.26"/><rect class="cls-37" x="200.67" y="328.59" width="171.44" height="17.47"/><rect class="cls-37" x="200.67" y="367.46" width="171.44" height="17.47"/><rect class="cls-37" x="200.67" y="406.81" width="171.44" height="17.47"/><rect class="cls-34" x="200.67" y="358.97" width="97.96" height="6.26"/><rect class="cls-34" x="200.67" y="397.95" width="97.96" height="6.26"/><circle class="cls-35" cx="119.55" cy="91.35" r="57.62" transform="translate(-26.21 54.06) rotate(-23.03)"/><circle class="cls-38" cx="119.55" cy="91.35" r="52.06" transform="translate(27.49 210.36) rotate(-89.66)"/><rect class="cls-35" x="119.45" y="46.35" width="2.02" height="8.09"/><rect class="cls-35" x="119.45" y="128.91" width="2.02" height="8.09"/><rect class="cls-35" x="75.14" y="90.66" width="8.09" height="2.02"/><rect class="cls-35" x="157.69" y="90.66" width="8.09" height="2.02"/><rect class="cls-35" x="119.53" y="61.85" width="2.02" height="31"/><rect class="cls-35" x="119.87" y="91.84" width="30.33" height="2.02"/><path class="cls-22" d="M125.62,92.85a4.4,4.4,0,1,1-4.4-4.4A4.4,4.4,0,0,1,125.62,92.85Z"/><g class="cls-39"><circle class="cls-35" cx="418.19" cy="230.18" r="29.47" transform="translate(-57.42 189.43) rotate(-23.93)"/><polygon class="cls-33" points="428.08 199.31 418.19 230.18 389.82 202.92 430.01 193.88 428.08 199.31"/><polygon class="cls-34" points="428.08 199.31 418.19 230.18 456.55 233.51 442.96 202.76 428.08 199.31"/><polygon class="cls-32" points="418.19 259.65 418.19 230.18 451.17 230.18 454.43 244.51 425.13 263.7 418.19 259.65"/></g><circle class="cls-22" cx="418.19" cy="230.18" r="16.71" transform="translate(97.81 584.05) rotate(-76.67)"/><rect class="cls-35" x="499.26" y="272.5" width="103.29" height="140.93"/><rect class="cls-40" x="505.12" y="280.49" width="91.57" height="124.94"/><rect class="cls-32" x="512.15" y="323.03" width="47.29" height="8.88"/><rect class="cls-32" x="512.15" y="339.44" width="47.29" height="8.89"/><rect class="cls-32" x="512.15" y="290.03" width="47.29" height="8.88"/><rect class="cls-32" x="512.15" y="306.44" width="47.29" height="8.89"/><rect class="cls-32" x="512.15" y="355.84" width="47.29" height="8.89"/><rect class="cls-32" x="512.15" y="372.25" width="47.29" height="8.88"/><rect class="cls-32" x="512.15" y="388.66" width="47.29" height="8.88"/><path class="cls-34" d="M588.71,356.71a8.83,8.83,0,1,1-8.82-8.83A8.82,8.82,0,0,1,588.71,356.71Z"/><path class="cls-34" d="M588.71,326.37a8.83,8.83,0,1,1-8.82-8.83A8.82,8.82,0,0,1,588.71,326.37Z"/><polygon class="cls-22" points="579.19 330.54 575.11 325.28 578.8 326.83 587.31 319.39 579.19 330.54"/><path class="cls-34" d="M588.71,298.37a8.83,8.83,0,1,1-8.82-8.83A8.82,8.82,0,0,1,588.71,298.37Z"/><polygon class="cls-22" points="579.19 302.54 575.11 297.28 578.8 298.83 587.31 291.39 579.19 302.54"/><path class="cls-34" d="M588.71,387.64a8.83,8.83,0,1,1-8.82-8.83A8.82,8.82,0,0,1,588.71,387.64Z"/><polygon class="cls-22" points="579.19 360.18 575.11 354.93 578.8 356.47 587.31 349.03 579.19 360.18"/><polygon class="cls-22" points="579.19 391.45 575.11 386.2 578.8 387.75 587.31 380.31 579.19 391.45"/><path class="cls-41" d="M491.53,348.69v64.74h18.55a35.14,35.14,0,0,0-18.55-64.74Z"/><path class="cls-42" d="M514.89,382.91a37.48,37.48,0,1,1-37.48-37.48A37.48,37.48,0,0,1,514.89,382.91Z"/><path class="cls-22" d="M507.28,382.91A29.87,29.87,0,1,1,477.41,353,29.87,29.87,0,0,1,507.28,382.91Z"/><path class="cls-42" d="M499.11,382.91a21.7,21.7,0,1,1-21.7-21.7A21.69,21.69,0,0,1,499.11,382.91Z"/><path class="cls-22" d="M491.36,382.91a13.95,13.95,0,1,1-13.95-14A13.94,13.94,0,0,1,491.36,382.91Z"/><path class="cls-42" d="M484.18,382.91a6.77,6.77,0,1,1-6.77-6.77A6.77,6.77,0,0,1,484.18,382.91Z"/><polygon class="cls-43" points="477.41 383.24 472.32 365.97 468.94 369.19 449.99 351.13 449.46 343.59 444.05 339.38 444.45 345.86 441.29 342.84 441.42 337.91 435.68 333.57 436.77 340.97 428.78 340.58 432.61 346.19 438.87 345.65 442.3 349.05 434.61 348.97 439.01 355.1 447.41 354.4 465.09 372.88 461.67 376.14 477.41 383.24"/><path class="cls-44" d="M505.65,407.53l-28.24-24.29,17.34,32.87A37.5,37.5,0,0,0,505.65,407.53Z"/><path class="cls-45" d="M613.62,248.59l-9,20.82,2.3,1,9-20.84a.47.47,0,0,0-.25-.62l-1.45-.61A.47.47,0,0,0,613.62,248.59Z"/><path class="cls-45" d="M613.68,253.68l-1.5-.65,2.52-5.84a.82.82,0,0,1,1.08-.43h0a.81.81,0,0,1,.42,1.07Z"/><path class="cls-46" d="M637.23,298s-8.83,24.26-12,24.14c-2.41-.08-18.56-22.15-21.15-26s-7.64-12.8-7.64-12.8l6.57-2s11.3,13.62,14.2,16.06,4.13,3.36,4.13,3.36l3.36-9.18Z"/><path class="cls-45" d="M632.35,272.76c-3.56.95-4.79,4.11-6.31,10.64a130.13,130.13,0,0,1-3.75,12.7L634,301.55s2.11-11.61,2.89-18.95S635.45,271.94,632.35,272.76Z"/><path class="cls-47" d="M676.76,349.31s3,27.31,3.11,56.65S684,522.48,684,522.48H664.44s-6.78-84.24-11.22-103.11-16-69.7-16-69.7Z"/><path class="cls-46" d="M658.55,250.13s.77,6,1.39,9a24.53,24.53,0,0,0,1.62,5.57c1,2.06,7.33,8.32,7.33,8.32s-19.64,10.37-25.42,10.37-3.75-11.58-3.75-11.58,6.3-5,7.24-7.49,1.46-9.8,1.46-9.8Z"/><path class="cls-47" d="M651,379.28s-2.22,44.71-2.67,53.51,2.26,90.5,2.26,90.5-19.54.82-19.54-.81c0-7-4.29-85.29-5.64-107s-.56-47.4-2.36-50.4,4.86-15.64,4.86-15.64l15.71,4.19Z"/><path class="cls-37" d="M664.89,267.19l20.2,8.72s-4,16.34-4.22,22.84-2.55,57.82-2.55,57.82-6.2,9.6-36,5.78c-11.51-1.48-17.16-7.08-17.16-7.08s3.22-56.52,4.11-63,3.11-19.49,3.11-19.49l9.73-3,4,5.92Z"/><polygon class="cls-45" points="663.99 263.67 646.05 275.69 650.98 281.36 664.89 267.19 663.99 263.67"/><polygon class="cls-45" points="646.05 275.69 641.15 279.62 642.08 269.77 643.91 267.19 646.05 275.69"/><path class="cls-48" d="M627.14,310.92l-17.25,5a4,4,0,0,1-4.6-2L588.5,278a2.67,2.67,0,0,1,1.78-3.83l17.09-5c3.12-.31,4.67.3,5.46,1.95l16.83,35.61C630.46,308.33,630.16,309.49,627.14,310.92Z"/><path class="cls-49" d="M626.17,311.28l-17.33,5a4.05,4.05,0,0,1-4.63-2l-16.86-36.05a2.7,2.7,0,0,1,1.8-3.85l17.18-5.06a4.17,4.17,0,0,1,4.8,2l17,35.94A2.81,2.81,0,0,1,626.17,311.28Z"/><path class="cls-46" d="M676.22,301.62s-16,26.62-18.17,27.54-29.8-17.1-35-20.46-9.54-6.67-10.19-7.2-2.2-6-2.14-5.94a8.11,8.11,0,0,0,.73-1l.68.37-.36-2.16.65-1.22.63.21.21-2.18,1-1.64s2.73,3.08,4.41,4.91a24.36,24.36,0,0,0,3.67,3.21,25.26,25.26,0,0,1,0-3.51A10.08,10.08,0,0,0,622,290l2.68,1.61s2.36,7.45,2.82,8a13.58,13.58,0,0,0,8.1,7.61c11.49,4.38,17.87,6,17.87,6-.46-.07,10.46-19.89,10.46-19.89Z"/><path class="cls-45" d="M685.84,286C684.32,293.21,673.7,309,673.7,309l-13-9.75s5.1-10.19,8-15.53c3.15-5.91,6.08-13.09,11.65-11C685.66,274.78,687.06,280.16,685.84,286Z"/><path class="cls-46" d="M635.73,234.84c-1.39,1.26-3.7,3.79-3.51,5.27a56.58,56.58,0,0,0,1.23,8.3c.73,2.44,2.17,8.86,3.21,11.68s2.26,6.68,3.12,7,8.47-1,9.9-2,9-9.39,7.4-15.55c0,0,2,.26,3.21-5.84.32-1.59-6.14-6.1-7.14-7.68-2.44-3.83-11.35-.82-13.9-.62S635.73,234.84,635.73,234.84Z"/><path class="cls-50" d="M632.22,240.11s.5-2.16,2.47-1.7a21.66,21.66,0,0,0,8.81-.61,22.17,22.17,0,0,0,5.48-2.53s.79,3.84,1.79,4.72a9.06,9.06,0,0,1,2,3.89,2.79,2.79,0,0,0,1.93,1.58s.72-3.43,2.25-3.67c3-.48,2.68,3.63,1.43,5a26.34,26.34,0,0,1-2.57,2.37,15.79,15.79,0,0,0,1,3.05,14.77,14.77,0,0,0,2.5,3.06s.81-8.18,2.74-11.93,1.82-10.65-3.77-12.11c0,0-1.28-6.23-8.62-5.92s-13.21,3.25-16.45,2.94-4.2-1-4.2-1-1.61,5.31.49,8.13A18.46,18.46,0,0,1,632.22,240.11Z"/><path d="M230.75,543.35c-.73,4-4,8-.73,10.55s6.55,2.55,10.56,1.45,5.45-3.28,7.63-5.1,8-2.9,9.83-5.45,4.18-7.66.9-8.28c-4.54-.84-8.53,2.79-20.42.08Z"/><path class="cls-51" d="M273.18,367.21c2.51,11.68-2.88,25.07-3.72,31.75s-8.34,55.34-8.65,58.34a85.36,85.36,0,0,1-4.18,20.48c-2.5,7.53-4.17,59.68-3.34,65.52S227,552.9,227,552.9s-.28-53,8.29-83.16c2.38-30.05,1.49-50.18,3.26-58.51.59-2.78-2.73-25.88,7.09-39.74C253.37,360.56,273.18,367.21,273.18,367.21Z"/><path class="cls-52" d="M268.59,397c-1.29,11.69-5.2,65.83-6.92,68.86s-2.28,4-5,12-1.09,58.79-.65,60.52-8.87,7.39-8.87,7.39-1.47-42.55,5.46-68.18c1.32-4.89,6.21-17,7.07-23.1S268.59,397,268.59,397Z"/><path d="M270.09,542.63c-1.84,5.75-3.43,8.8-1.66,12.45s10.41,2.29,15.41-.1c3-1.42,4.15-3.58,7.6-3.68,7.38-.21,13.74-12.21,7.68-12.71s-10,2-12.74-.29S270.09,542.63,270.09,542.63Z"/><path class="cls-53" d="M258.84,259.67c.93,3,.86,14.26-.32,19s-6.83,11.11-6.83,11.11l26.45,5s-2.3-17.89,2.62-21.29C283.81,271.36,258.84,259.67,258.84,259.67Z"/><path class="cls-53" d="M284.49,250.58c1.48,4.89-.21,5.27.58,7.25,2,4.91,2.34,16.59-1,18.63-1.51,1-4.47,3.08-7.64,2.37-5.5-1.25-12.46-7.08-15.63-12.13-5-8-3.86-18.37,4.61-22C274.66,240.68,281.74,241.6,284.49,250.58Z"/><path class="cls-54" d="M285.58,250.59c1.68-8.39-20.29-19.23-30.57-9.05-1.08,1.07-.77.4-1.59,1.35s-2.27,1.21-3.06,1.84c-4.93,4-3.45,17.86-.41,22.76,3.84,6.19,5.57,8.07,5.07,9.77-.83,2.75,18.78,0,18.78,0l2.47-9.87,3-2.41,1.76-5.09,1.71-2a34.32,34.32,0,0,1-1-7.15C281.87,247.24,285.58,250.59,285.58,250.59Z"/><path class="cls-51" d="M255.48,280.21c-4.19,2.36-7.95,5.8-16.6,12,0,0-3.24.16-3.79,1.49-7.39,17.71,1.28,22.93,2.46,29.85,2.36,13.64,3.59,25.35,1.84,35.17-2.95,16.55-6.49,38.7-5.87,41,.24.94,26.32,7.37,42.18,5,14.26-2.13,24.89-4.86,25.78-5.59-1.43-12.82-5.47-35.5-5.91-44.19-.67-13,1.87-21,2.45-26.83s-1.54-13.88-.88-15.09c1.77-3.26-.27-20.34-.27-20.34S289.5,289,279,283.06c-2.57-1.45-9,.64-9,.64Z"/><path class="cls-51" d="M254.76,278.06l-4,5.16a133.92,133.92,0,0,1,14.14.08c8.24.77,16.84,1.84,16.84,1.84l-1.86-5.22s-3.35-1.43-15.38-2.18A92.75,92.75,0,0,0,254.76,278.06Z"/><path class="cls-52" d="M295.58,291.42a13.79,13.79,0,0,0-5,4s-1.45-5.58-16.85-7.29c-25.5-2.85-34.86,4.09-34.86,4.09s10.65-9.35,13.22-9.35,16.37-1.94,28.82,1.44c2.49.68,10,4.83,11.12,5.48Z"/><path class="cls-55" d="M258.06,241c2-1.35,8.17-.33,9.36,2.48,1.32,3.13-.34-2.48-.34-2.48a4.85,4.85,0,0,1,2.46,4.53c3.07-2.05.93-3.67.93-3.67l2.06,3.74,2.38-1.7s5.44,2.56,3.06,5.62c6.64-3.24,1.7-6.47,1.7-6.47s5.11,2.38,6.24,7.88c2.39-4.42-.79-10-7.94-13-5.62-2.38-7.5-1.19-7.5-1.19s-8.84-1-14.47,4.09a15.84,15.84,0,0,0-3,3.54Z"/><path class="cls-53" d="M279.67,257.18c-2.72-.35-4.76,1.7-2.72,6.13s3.74,5.1,5.44,3.74S279.67,257.18,279.67,257.18Z"/><path class="cls-51" d="M293.29,372.69a139,139,0,0,1,2.59,31.19c-.43,12.55-2.71,55.34-3,58.32-.83,7.93-1,9.82-3.46,17.33s-.56,61.79.28,67.63-26.6,6.5-26.6,6.5-4.55-41.49,3-81.55c.46-39.32-2-60.23-1.19-73.58S293.29,372.69,293.29,372.69Z"/><path class="cls-52" d="M256.7,376.62c0,2.37-5.31,25.88-5.31,25.88l3.25-.29Z"/><path class="cls-52" d="M294.17,303c-4.14,3.84-4.28,41.7-3.68,52s5.38,39.1,6,41.76-16.47,6-16.47,6,19.13-1.84,21.49-3.61-3.09-26.39-3.9-31.05-2.73-13.81-1.85-18.24-.15-15.48,1-22.27Z"/><path class="cls-51" d="M293.49,291.59c6-3.43,10,8.44,12.88,19.65a97.48,97.48,0,0,0,5.15,15.13c7.72,16.47,5.45,23.32,2.28,25.18-12,7.08-19.84-15.93-22.07-25.13C287.59,309.28,293.49,291.59,293.49,291.59Z"/><path class="cls-52" d="M302,298.67c-.43,6-5.08,12.73-4.67,12.68,1.76-.24,6.6-5.26,6.6-5.26a9.7,9.7,0,0,1,0,3.2c-.16,1.55-1,6.61-2.31,8.07s3.93-4.3,3.93-6.44S302,298.67,302,298.67Z"/><path class="cls-52" d="M287.26,370.64c-.89,4.73-1.19,8.28.58,8.28s11.24-1.77,11.24-1.77l.43,1.42s-10.49,3-12.25,1.83-1.49-4.43-1.49-6.8S287.26,370.64,287.26,370.64Z"/><path class="cls-51" d="M287.26,370.64c2.65-.58,10.05-2.4,11.15-.85s1.1,4.6,1.68,6.77c.4,1.51-11.7,2.34-11.7,2.34Z"/><path class="cls-46" d="M396.1,321.19a38.66,38.66,0,0,0-.71-5.15c-.41-1.3,1.11-4.93.69-7.27-.16-.87.45-1.93,1.13-1.15s1,3.3,1,4.67c0,.72,1.92-2.9,2.3-4.11.32-1,3.42-5.86,4.11-5.5.52.27-2.78,5.94-2.18,6.09s3.21-7.21,4-6.81c1.54.76-2,6.54-1.47,7.6,0,0,.69-1.44,1.38-3s1-2.4,1.47-2.43c2-.17-2.79,7.13-1.51,7.27,1,.11,2-4.85,3-4.06.46.4-1.72,6-1.72,6s-3.31,7.71-4.82,10.54c-.9,1.7-1.2,8-1.2,8l-6.4-4.05S396.39,323.52,396.1,321.19Z"/><path class="cls-56" d="M394.49,325.11c8.55,2.3,9.13,6.35,9.13,6.35s3.71,16.87.81,20.63-11.16-15.74-11.57-18.26S394.49,325.11,394.49,325.11Z"/><path class="cls-46" d="M375,448.1c-3.08,3.06-4.58,16-1.59,33.46,1.83,10.73,5.54,36.52,4.63,44-1,8.64-2.65,14.31-5.21,28.2-.38,2.05,12.87-10.9,13.26-13.33.54-3.4,3.27-5.6,2.47-8-.95-3-2.26-4.87-1.71-10.33,1.32-13.06,6.55-23.56,7-41.14C394.36,462.57,387.49,435.69,375,448.1Z"/><path d="M388.52,532.45c-.87-2.79-7.78-1.54-9.17,4.12,0,0-1.66,3.47-4.81,10.46a20.84,20.84,0,0,1-1.38,2.57c-2.93.25-6.16.74-6.22,2.36a5.15,5.15,0,0,0,2.1,4.53c1.86,1.36,6.92,1.27,11.33,0,1.23-.37,1.34-3.53,3.09-8.63.79-2.32,3.32-4.67,5.06-6.76S389.82,536.59,388.52,532.45Z"/><path d="M389.23,539.45c-1.05,2.28-2.19,8.74-1.84,17.14a5.4,5.4,0,0,1-1.83,0s.69-14-.36-15.74S389.23,539.45,389.23,539.45Z"/><path class="cls-46" d="M348.38,450c-3.09,3.05-4.58,16-1.59,33.45,1.82,10.74,5.54,36.53,4.63,44-1,8.65-2.65,14.32-5.21,28.2-.38,2.05,12.87-10.9,13.26-13.33.53-3.4,3.27-5.6,2.47-8-.95-3-2.26-4.87-1.71-10.33,1.32-13.07,6.55-23.56,7-41.15C367.78,464.43,360.91,437.55,348.38,450Z"/><path d="M361.94,534.31c-.87-2.8-7.78-1.54-9.18,4.11,0,0-1.65,3.48-4.81,10.46a18.21,18.21,0,0,1-1.38,2.56c-2.92.27-6.15.75-6.22,2.37a5.17,5.17,0,0,0,2.11,4.54c1.86,1.35,6.92,1.27,11.33,0,1.23-.36,1.34-3.52,3.09-8.63.79-2.31,3.32-4.66,5.06-6.76S363.23,538.45,361.94,534.31Z"/><path d="M362.65,541.31c-1,2.28-2.19,8.74-1.84,17.14a5.47,5.47,0,0,1-1.84,0s.7-14-.35-15.74S362.65,541.31,362.65,541.31Z"/><path class="cls-47" d="M345.71,357.47c-3.71,6.95-8.66,22.87-8.66,36.78s5.26,44.19,4.33,52.54a116.87,116.87,0,0,1-2.78,15.3l3.7.23c1.07.07,3.28-2.17,4.64-1.93,2.78.48,2.18,3,3.53,3.09,4.2.23,7.49-.08,11.15-.16,1.87,0,4.6-2,5.87-2,5.3-.15,5,1.59,5.72,1.55,3.92-.19,8.61-1.47,13.44-2.38,1.48-.27,1.65-2,2.94-2.33,1.1-.28,3.64,1.57,4.52,1.27,2.81-.94,4.12-2.71,3.37-3.82-.43-.62-5.11-7.42-5.11-15.77s2.48-28.89,2.48-42.8-9.43-31.38-13.14-36.94S345.71,357.47,345.71,357.47Z"/><path class="cls-57" d="M386.5,422.06c-.61,7.42,3.1,32.77,7.42,37.4-3.86-1.54-3.92-1.59-6.7.89S386.5,422.06,386.5,422.06Z"/><path class="cls-57" d="M344.47,421.44c1.85,8.66-.31,38.33-2.17,40.8,3.48.08,3.71-2.94,7.88,1.24C351.3,464.59,344.47,421.44,344.47,421.44Z"/><path class="cls-57" d="M373.21,462.86c-3.09-2.47-11.28.46-11.28.46S367,447.71,365,431C365,431,366.88,458.22,373.21,462.86Z"/><path class="cls-47" d="M392.3,302.2c-4-2.9-4.74-3.58-14.93-9.23l-24.18-2.54c-11.19,10.16-14,8.06-18.61,9.86-6.34,2.47-4.48,11.43-4.48,11.43s3.68,7.94,7.17,12.16c-1.16,5.33-1.18,11.71,4.26,17.2.15,3.37.6,14,.31,16.93-.58,5.94-5.1,13.6-7.19,26.19-.09.6,12.91-.07,27.43-.16,26.28-.15,32.59-4.26,32.54-4.48-3.1-14.07-7.81-21.48-7.65-24.1.28-4.95.42-23.06,1.38-24.27,1.24-1.54-7.56-.59,5.88,21.17,9,14.53,11.43-4.48,11.43-4.48S396.29,305.08,392.3,302.2Z"/><path class="cls-46" d="M314.33,412.28c.08-1,1.12-6.79,1.25-7.4a16.34,16.34,0,0,0-1,2.48c-.39,1.36-.49,1.86-.71,2.62-.38,1.4-1.38,2.24-1.16.33a28.76,28.76,0,0,1,.32-3.55,24.87,24.87,0,0,1,2-4.1c.37-.6,4.41-6.63,5.17-8.44,1.14-2.6,5.7-30.53,5.44-31.75-.38-1.67,11.29-6.32,11.58-1.72.72,10.94-10,34.56-10,34.61-.61,7.29-3.26,8.68-4.58,10.41-1.82,2.39-1.39,1.94-1.89,3.29-1,2.78-1.09,3.32-1.6,3.32s-.14-1.86,0-3.59,1.5-3.72,1-3.28-2,5.64-2.32,6.56-1.61,2.86-1.68,1.67,1-7.53,1.16-8.42-1.86,7.6-2.11,8.16S314.2,413.71,314.33,412.28Z"/><path class="cls-58" d="M342.07,308.86c1.38.95,6.07,6.22,7.54,6.84.65-1.86,2.38-7.94,2.2-7.18a54.09,54.09,0,0,0-1.51,7.76c.48.15,4.22,2.43,4.7,2.57l0,0,2.67-8.42-.77,8.88.2.05c.59-2.34,1.91-7.46,3.24-11.6,0,1.66-1.39,9.28-1.85,11.81a28.44,28.44,0,0,0,3.18.28c1-5.86,1.38-26.94,1.77-15.42a90.59,90.59,0,0,1-.56,15.44,45.36,45.36,0,0,0,10.62-1.34c-.46-4.24-1.77-16.47-1.4-13.89.42,3,2.86,12.59,3.09,13.46.67-.18,1.31-.37,2-.56-.22-1.5-.92-6.4-1.05-7.34a45.21,45.21,0,0,0,2.75,6.79l.26-.09c-.13-1.22-.41-3.56-.68-5.74a18.16,18.16,0,0,1-.78-4.29c0-1.56.39,1.17.78,4.29.62,2.26,1.45,4.52,1.75,5.35.67-.23,1.32-.48,1.95-.73l.18-2,.63,1.71,1.92-.82c-.47-1.78-2.23-8.48-1.66-7.33s2.53,4.92,3.37,6.56c1.33-.63,2.42-1.19,3.29-1.65-.42-2-1.34-6.28-2.15-9.87a36,36,0,0,1-1.4-5.48c0-.64.64,2.08,1.4,5.48a42.15,42.15,0,0,0,2.77,7.08,44.33,44.33,0,0,0,1.7-6.64s-4.17-5.41-7.11-30.6c-2.1-18-8.35-22.41-8.35-22.41-5.32-4.33-11.41-1.58-13.75-2.16-8.65-2.16-15.24,7.71-15.95,15.51-1.33,14.66-2,33.17-11.55,35a20.68,20.68,0,0,0,2.05,2.51c4.74,1.86,8.39,1.42,9.84-2.31C347.4,302.78,342.67,306.91,342.07,308.86Z"/><path class="cls-57" d="M334.65,384.2c.55,1,10.64.3,22.26.23,12.52,1.39,31,.69,38-5.17-.61-2.17-.46-.63-.46-.63s-11.2,5.11-29,4.65C351.27,382.9,334.65,384.2,334.65,384.2Z"/><path class="cls-47" d="M330.56,305.54c-2.47,16.69-3.71,43-3.4,44.51s-2,8.34-2.78,11.73c-.21.91-7.11,32.78-7.11,32.78s11.28,4.71,13.44,4.71c3.71-8.35,9.13-38.1,9.74-40.26s2.47-19.16,2.55-28.36C343.11,318,330.69,304.63,330.56,305.54Z"/><ellipse class="cls-59" cx="369" cy="85.5" rx="25" ry="12.5"/><circle class="cls-60" cx="317.5" cy="72.5" r="7.5"/><ellipse class="cls-61" cx="48" cy="207.5" rx="23" ry="20.5"/></g></g></g></svg>