<svg xmlns="http://www.w3.org/2000/svg" xmlns:xlink="http://www.w3.org/1999/xlink" viewBox="0 0 803.55 595.76"><defs><style>.cls-1{isolation:isolate;}.cls-2,.cls-20{fill:#517793;}.cls-2{opacity:0.15;}.cls-13,.cls-16,.cls-17,.cls-18,.cls-2,.cls-20,.cls-23,.cls-32,.cls-45{mix-blend-mode:multiply;}.cls-3{fill:url(#linear-gradient);}.cls-4{fill:url(#linear-gradient-2);}.cls-5{fill:url(#linear-gradient-3);}.cls-6{fill:url(#linear-gradient-4);}.cls-18,.cls-7{fill:#005600;}.cls-17,.cls-8{fill:#007500;}.cls-9{fill:#3bd33b;}.cls-10{fill:#048c04;}.cls-11{fill:#2a992f;}.cls-12{fill:#37bc37;}.cls-13{fill:#138913;}.cls-13,.cls-18{opacity:0.4;}.cls-14,.cls-16{fill:#007200;}.cls-15{fill:#44c644;}.cls-16,.cls-20{opacity:0.5;}.cls-17{opacity:0.3;}.cls-19{fill:#5e3601;}.cls-21{fill:#d9d7cc;}.cls-22{fill:#f2f0f1;}.cls-24{fill:#ff6a3f;}.cls-25{fill:none;stroke:#ff6a3f;stroke-miterlimit:10;stroke-width:2px;}.cls-26{fill:#8fd8f2;}.cls-27{fill:#383838;}.cls-28{fill:#f26876;}.cls-29{fill:#da1c5c;}.cls-30{fill:#eacb93;}.cls-31,.cls-32{fill:#e8cade;}.cls-33{fill:#231f20;opacity:0.14;}.cls-34{fill:#01b289;}.cls-35{fill:#6d6e71;}.cls-36{fill:#992c44;}.cls-37{fill:#ad3b4e;}.cls-38{fill:#be1e2d;}.cls-39{fill:#f15a29;}.cls-40{fill:#d7df23;}.cls-41{fill:#f4ac1e;}.cls-42{fill:#dbad6b;}.cls-43{fill:#471500;}.cls-44{fill:#eac386;}.cls-45,.cls-48{fill:#e0f7f7;}.cls-46{fill:#551800;}.cls-47{fill:#6b1900;}.cls-49{fill:#f4dfec;}.cls-50{fill:#4c200a;}.cls-51{fill:#632b0b;}.cls-52{fill:#3f1908;}.cls-53{fill:#414042;}.cls-54{fill:#fbb040;}.cls-55,.cls-58{fill:#9ce8ef;}.cls-55,.cls-56{opacity:0.69;}.cls-57{fill:#fff;}.cls-58{opacity:0.85;}.cls-59{fill:#001435;}.cls-60{fill:#97a3cc;}.cls-61{fill:#edf1f2;}.cls-62{fill:#fec4ad;}.cls-63{fill:#133a50;}.cls-64{fill:#5b250e;}.cls-65{fill:#3f1709;}.cls-66{fill:#682c17;}.cls-67{fill:#0f2a51;}.cls-68{fill:#26282d;}.cls-69{fill:#303030;}.cls-70{fill:#f8bfa4;}.cls-71{fill:#e7aa8e;}.cls-72{fill:#ffcab1;}.cls-73{fill:#f7aa00;}.cls-74{fill:#d88d00;}.cls-75{fill:#ffb11f;}.cls-76{fill:#ffc343;}.cls-77{fill:#8c6c5c;}.cls-78{fill:#00c1b0;}.cls-79{fill:#00ddc6;}.cls-80{fill:#00ab99;}.cls-81{fill:#2f2daa;}.cls-82{fill:#1b1464;}.cls-83{fill:#3a1b04;}.cls-84{fill:#ed1c24;}.cls-85{fill:#fcee21;}.cls-86{fill:#3fa9f5;}.cls-87{fill:#ff0;}.cls-88{fill:#f15a24;}</style><linearGradient id="linear-gradient" x1="51.32" y1="238.95" x2="85.87" y2="238.95" gradientUnits="userSpaceOnUse"><stop offset="0" stop-color="#0080ff"/><stop offset="0.28" stop-color="#017dfb"/><stop offset="0.55" stop-color="#0373f0"/><stop offset="0.8" stop-color="#0663dd"/><stop offset="1" stop-color="#0a52c9"/></linearGradient><linearGradient id="linear-gradient-2" x1="392.27" y1="114.64" x2="426.82" y2="114.64" gradientTransform="matrix(0.91, 0.41, -0.41, 0.91, 73, -162.63)" xlink:href="#linear-gradient"/><linearGradient id="linear-gradient-3" x1="431.04" y1="80.77" x2="452.33" y2="80.77" gradientTransform="matrix(0.91, 0.41, -0.41, 0.91, 73, -162.63)" xlink:href="#linear-gradient"/><linearGradient id="linear-gradient-4" x1="31.21" y1="254.35" x2="803.55" y2="254.35" xlink:href="#linear-gradient"/></defs><title>workflow-3</title><g class="cls-1"><g id="Layer_2" data-name="Layer 2"><g id="Isolation_Mode" data-name="Isolation Mode"><ellipse class="cls-2" cx="395.31" cy="492.64" rx="356.38" ry="21.63"/><ellipse class="cls-2" cx="594.19" cy="572.17" rx="49.16" ry="9.34"/><path class="cls-3" d="M85.87,239A17.28,17.28,0,1,1,68.6,221.67,17.27,17.27,0,0,1,85.87,239Z"/><path class="cls-4" d="M391,123.53a17.27,17.27,0,1,1,23.84-5.33A17.27,17.27,0,0,1,391,123.53Z"/><path class="cls-5" d="M437.74,100.1a10.64,10.64,0,1,1,14.68-3.29A10.64,10.64,0,0,1,437.74,100.1Z"/><path class="cls-6" d="M156.74,477.16S36.09,429.66,33.47,349.08c-2.41-73.65,58.51-67.89,72-97.66,24-52.84-56.83-70.45-72-117.68C19.79,91.28,69.08,25,160.75,32.08c92.85,7.2,169.7,99.26,223.34,107.27S509.77,49.69,613,87.31c66,24,103.93,100.31,51.56,207.85s135,126.76,139,180.4Z"/><ellipse class="cls-2" cx="112.74" cy="479.29" rx="41.37" ry="6.07"/><path class="cls-7" d="M80,390l.56.22a8,8,0,0,1-1.19.41A.7.7,0,0,1,80,390Z"/><path class="cls-7" d="M59.31,391.58c3.37,1.68,5.39,1.87,9,2,3,.13,6.51.31,8.72,2.62,1.75,1.82,2,4.87,4.07,6.33,1.35.93,4.28,1.06,5.62,2.46a13.6,13.6,0,0,0,.66,2,2.44,2.44,0,0,0-.66-2c-1.38-4.76-3.44-14.55-5.84-14.7l-.38-.12a34.63,34.63,0,0,1,5-2.21c-2.25,3.59,2.77,11.54,3.5,15.42,1.16,6,.39,12-3.76,16.47-7.38,7.92-17.64,3.19-25.37-1.89-4.38-2.88-6.16-6-9.42-9.6-1.34-1.5-3-2.35-4.38-3.95-1-1.19-1.84-3.42-3.09-4.27-2.69-1.89-5,1.19-7.88.68-1.85-.32-3-1.64-4-3V385.22C40.81,384.34,50.6,387.17,59.31,391.58Z"/><path class="cls-7" d="M86.75,405a2.44,2.44,0,0,1,.66,2A13.6,13.6,0,0,1,86.75,405Z"/><path class="cls-8" d="M103.63,400.46c1.76-4,4.77-7.16,6.65-11,1.24-2.61,1.16-5.84,2.54-8.38,1.63-3,6.05-4.44,8.43-6.93s5.81-7.83,9.52-7.52c4.52.36,9.25,6.15,11.79,9.61,2.27,3.18,7.29,8.91,6.88,13.17-3.28-.43-6.64-5.46-9.78-7a31.2,31.2,0,0,0-6-2.58c-3-.76-4.55,4.55-5.1,7.63-.82,4.68-.44,9.41-2.49,13.62-1.26,2.58-3,4.4-4.56,6.83-1.28,2.1-2.88,3.22-3.85,5.55-1.66,4-1.56,8.74-3.17,12.82a39.24,39.24,0,0,1-7.7,12.27,16.91,16.91,0,0,0-3.2,4.33H94.91c-1.25-3.67-.67-8.45-.51-12C94.88,420.45,99.5,409.77,103.63,400.46Z"/><path class="cls-9" d="M101.62,362.24c1.66,1.07,2.56,2.76,4.4,3.46,1,.37,4.35.87,4.08,2.29h-.62c-.33-1.65-2.27-.51-3.19-.15-1.24.45-2.77.4-3.89,1.08.19-2-1.52-3.88-2.54-5.35C98.29,361.29,99.8,361.05,101.62,362.24Z"/><path class="cls-10" d="M46.68,321.18l-.31-.49c1.38-.24,2,.91,2.81,1.82a29.62,29.62,0,0,0,4.24,3.11,71,71,0,0,1,10.21,7.89c5.6,5.55,9.76,12.4,15.57,17.7,2.36,2.13,3,5.52,4.64,8.1s3.65,4.54,5.39,6.85c1.57,2,2.8,4,3,6.76.22,3-1.46,4.33-3.3,6.24-1.22,1.25-1.94,4.61-3.76,4.61-2.33,0-3.85-5.86-4.83-7.7-3.67-6.91-6.11-14.53-10.4-21A208.92,208.92,0,0,0,55.8,335.78c-1.87-2.21-3.59-4.61-5.36-6.88-1.2-1.51-2.89-2.6-4-4.11a5,5,0,0,1-1.13-2.47C45.33,321.52,46.17,320.41,46.68,321.18Z"/><path class="cls-11" d="M100.84,362.07a2.79,2.79,0,0,1,.85.3Z"/><path class="cls-12" d="M88.6,375.38c.38-2.38.4-4.58,1.4-6.87,1.18-2.7,3.08-5.76,6-6.6,1.67-.47,4.39-.8,5.77.5l-.1,0a2.79,2.79,0,0,0-.85-.3,2.79,2.79,0,0,1,.85.3c1.22.68,2.21,2.32,3.55,2.8s4.06.32,4.76,1.82c.37.83-.34,1-.34,1.52,0,1.13.28,1,.77,1.81A11.73,11.73,0,0,1,112,375c.67,5.89.52,11.72-3,16.68-1,1.44-2.16,3-1.37,4.88s2.55,3.06,3.2,5.26c1.53,5,1.46,15.76-4.31,18.07-4.71,1.89-5.91-6-10.56-5.26-3.3.52-6.33,6.84-8.13.49-.8-2.82.78-5.24.6-7.89-.09-1.38-1.07-2.63-1.57-3.94a30.39,30.39,0,0,1-1.26-4.72c-1.21-5.68-1.41-10.92.64-16.46C87.05,379.93,88.23,377.69,88.6,375.38Z"/><path class="cls-13" d="M102.57,369.11c0-.15,0-.27,0-.4a.09.09,0,0,0,0-.06Z"/><path class="cls-13" d="M91.9,365.35c1.32-1.9,4.5-4.41,6.9-3.75,1.14.3,1.67,2.41,2.37,3.62a7.39,7.39,0,0,1,1.37,3.49c-2.24,3.76-3.32,9.86-3.71,14.27-.47,5.62-.82,11.19-.82,16.83,0,4.85-.47,11.33,1.28,15.76-2-1.83-5.57-.63-7.39.92-1,.82-1.73,2-3.15,1.11s-1.42-3-1.29-4.33c.17-1.68,1.4-3,1.41-4.71s-1.23-3.66-1.8-5.43A35.91,35.91,0,0,1,85,391.48c0-6.48,4.06-11.41,4.39-17.75C89.55,370.35,89.93,368.19,91.9,365.35Z"/><path class="cls-14" d="M46.23,321.52a6.47,6.47,0,0,0,2.19,3.56,48.32,48.32,0,0,1,3.26,4.35c1.61,2.05,3.79,3.57,5.47,5.59,4.57,5.44,8.2,11.31,12,17.38,3.46,5.51,5.78,11.88,8.3,17.89,1.08,2.59,1.74,5.41,3.17,7.89s3.2,4.5,4.71,6.73l.46-1.14c.12.15.25.1.29.28-1.34,2.71-3.08,5.88-6.25,6.66-5.63,1.36-11.13-3.09-14.13-7.55a18.18,18.18,0,0,1-2.51-9.53c0-4-1.66-6.26-3.49-9.63-.82-1.45-2-3.13-2.18-4.84-.18-1.48.4-3,.15-4.47-.44-2.69-3.29-4.54-3.45-7.11,0-1,.61-1.89.31-2.92a17.33,17.33,0,0,0-1.66-2.75c-1.24-2.29-1.94-5.07-3.33-7.26-1.56-2.43-3.43-4.45-4.25-7.35C44.83,325.8,44.28,322.13,46.23,321.52Z"/><path class="cls-12" d="M52.61,327.58c1.44,1.51,1.93,3.7,3.29,5.26,3,3.43,6.19,6.47,8.84,10.32A79.19,79.19,0,0,1,73.05,358c2,4.85,3.75,9.82,6.25,14.39,1,1.83,2,3.58,3.15,5.3,1,1.56,1.88,3.53,3.12,1.15a29.62,29.62,0,0,0,2.25-6.37c.39-1.71.75-4.07,2.48-4.91.11,1.8-.75,4-.89,5.87a18.07,18.07,0,0,1-1.18,5.37c-.88,2.36-1.35,5.15-2.74,7.29a13.35,13.35,0,0,1-5.06,4.62c-1.73.8-6.25.65-7.36-1.17,2.62-.48,4.87.76,7.52-.86,2.44-1.49,2.53-3.53,1.43-6C79.45,377,76.32,372,74.36,366a92,92,0,0,0-14.77-26.61c-2.68-3.46-5.58-6.58-8.06-10.18-.87-1.26-5.68-5.45-4.64-7.39C48.41,324.25,50.69,325.58,52.61,327.58Z"/><path class="cls-15" d="M46.89,321.84c-.06-.12-.14-.21-.21-.33h.47A1.19,1.19,0,0,0,46.89,321.84Z"/><path class="cls-14" d="M50.47,383.46a15.83,15.83,0,0,0,4.68,3.25c3.29,1.69,4.47,3.52,5.23,7.19.8,3.89,1.52,6.72,4.08,9.77,3.26,3.89,6.74,7.46,9.71,11.63,1.88,2.65,3,5.51,4.52,8.33,1.12,2.09,3.09,3.51,4.3,5.46.9,1.47,3.26,6,1.21,7.4-.12,0-.14-.06-.14-.1a2.17,2.17,0,0,1,.3-.23H84c.07.09,0,.17,0,.23-.75.63-1.21,1.61-2,2.19a5.38,5.38,0,0,1-5.33.37c-2.93-1.31-3.9-3.49-5-6.29-1.24-3.13-4.27-4.28-6.34-6.68a56.78,56.78,0,0,1-6.42-10.16c-1.58-2.87-3.33-6.18-3.78-9.51-.3-2.26-.25-4.64-.47-6.89a32.07,32.07,0,0,0-.78-5.63c-.68-2.42-2-2.82-3.73-4.29S44.79,381,47.3,379.14C48.53,380.23,49.27,382.19,50.47,383.46Z"/><path class="cls-14" d="M84.36,436.16a2.17,2.17,0,0,0-.3.23c0-.06,0-.14,0-.23Z"/><path class="cls-11" d="M49,374l-.71-.89C48.43,373.13,48.69,373.49,49,374Z"/><path class="cls-12" d="M46.2,366.31a14.3,14.3,0,0,1,1.22-.77,12.42,12.42,0,0,0-.12,5.08c.32,1.23,1.61,2.24,1.73,3.45L49,374c-.26-.49-.52-.85-.71-.89L49,374c.39.66.77,1.5,1.08,1.89a23.69,23.69,0,0,0,3.9,4,29,29,0,0,1,4.84,5.06c1.16,1.75,1.77,3.77,3,5.46,2.24,3.09,5.51,5.09,7.87,8.06,1.48,1.84,2.6,4,4.49,5.41,1.43,1,3.14,1.23,4.77,1.71a18.42,18.42,0,0,1,6.37,3.5c3.35,2.82,4.29,7.15,6.77,10.55,2.35,3.18,4.81,9,3.59,13.11a7.71,7.71,0,0,1-5.36,4.9C87,438.28,84,435.35,82,433c-2.56-3-4.45-6.56-7-9.52-1.92-2.19-4.77-3.07-6.6-5.28a18,18,0,0,1-3.52-9.34c-.34-2.61-.56-4.56-3.09-5.38-3.14-1-1.7-1.09-2.52-3.94-.49-1.68-2.57-1.19-3-3.37-.37-1.9.6-3.82-.11-5.74-1-2.76-3.66-3.08-5.86-4.39a11.34,11.34,0,0,1-5.21-5.55c-.66-1.77-1-3.69-1.66-5.46A8.68,8.68,0,0,1,46.2,366.31Z"/><path class="cls-14" d="M92.7,370.64a13.61,13.61,0,0,0,.43,2.16A7.26,7.26,0,0,1,92.7,370.64Z"/><path class="cls-14" d="M92.67,369.85a5.27,5.27,0,0,0,0,.79A3.7,3.7,0,0,1,92.67,369.85Z"/><path class="cls-14" d="M102.4,368.49a1.27,1.27,0,0,1-.15.41s0-.06,0-.09Z"/><path class="cls-14" d="M97.19,411.68c.15-2.24-.19-4.48-.08-6.74.12-2.53-.78-2.69-2.43-4.59a25.44,25.44,0,0,1-4.2-7.38,20,20,0,0,1-1.88-6.91c.15,3.13,3.06,6.74,4.52,9.15,1.28,2.15,2.54,4.87,4.39,6.45.3-3-.31-6.47-.46-9.5-2-.37-3.64-5.23-4.38-6.93-1-2.38-2.36-5.13-2.19-7.84,1,5,3.88,9.16,6.55,13.1.31-1.72,0-3.48.23-5.22.17-1.22.88-2.44.89-3.61-1.82,0-4.09-5.21-5-8.86a20.83,20.83,0,0,0,5.49,7.67,33.74,33.74,0,0,1,.18-3.64c.15-1,1.14-2.57,1.06-3.45-.1-1.35-2.23-3.74-2.67-5.39-.32-1.16-1-4-.14-4.91.72,3.39,1.49,6.8,3.79,9.46a5.28,5.28,0,0,1,.19-2.22c.29-.62.9-.84,1.22-1.42-.1,2.47-1.72,5.25-2.34,7.64a36.55,36.55,0,0,0-1.1,8.21c-.14,3.9-.63,7.68-.63,11.66,0,6-.57,12.64.32,18.51-.09-1.89-2.31-1.47-3.32-2.41-.51-.49-.51-1.19-.8-1.81a10.16,10.16,0,0,0-2-2.81,24.86,24.86,0,0,1-5.4-10c2.07,2.9,4.16,6,6.06,9C94.18,408.78,95.17,410.65,97.19,411.68Z"/><path class="cls-14" d="M88.6,385.45c0,.19,0,.42,0,.61C88.59,385.87,88.59,385.64,88.6,385.45Z"/><path class="cls-16" d="M73.2,403c.65.8.91.76,1.74,1.15a27.26,27.26,0,0,0,3.58,1.17c2.74.88,6.15,2.26,8.19,4.56,4.24,4.78,8.66,12.83,9.29,19.4a7.4,7.4,0,0,1-7.53,7.86,9.22,9.22,0,0,1-3.3-.54c-1.81-.68-.88-.94-1.78.52-1.87,3-4.35,2.69-7.49,1.64.88-2.63,6.7-1.1,3.87-5.39-1.29-1.94-5.35-5.81-4.82-8.36,1.34.7,2.56,3,3.79,4.05,1.68,1.51,1.68,1.59,2.78,0,2.86-4,2.32-9.34.16-13.62-2-4.11-6.31-5-8.59-8.54-.51-.81-.69-4.4-1.18-5.92C72.57,401.42,72.68,402.34,73.2,403Z"/><path class="cls-16" d="M71.91,401a1.26,1.26,0,0,0-.44-.17l-.15-.49C71.57,400.26,71.74,400.54,71.91,401Z"/><path class="cls-16" d="M68,379.5c2.3,2,6.21,3.06,9.1,1.92,4.86-1.87,4.56-8.92,4.56-13.3a56.73,56.73,0,0,0-.93-10.48c-.25-1.34-.68-4.9-1.73-5.75l-.32-.48c2.93.77,3.88,5.24,5.14,7.75a25.42,25.42,0,0,0,5.2,6.58c1.77,1.78.8,5.18.46,7.51a84.13,84.13,0,0,1-1.84,8.38c-1.43,5.73-6.48,10.51-12.29,8.5-4.94-1.73-13.71-8.61-10.64-15.06C66,376.2,66.65,378.27,68,379.5Z"/><path class="cls-16" d="M90.61,368.81c-.25-.05,0-.2-.13-.32l-.31-.83h.06A3.65,3.65,0,0,1,90.61,368.81Z"/><path class="cls-16" d="M81.88,388.32c2.79-2.2.22-3.68.62-6.52.59.65,1.18,2,2.34,1.63s.54-1.2.77-2.13a26.35,26.35,0,0,1,1.26-2.64c.32-.82.46-1.76.81-2.66a8.21,8.21,0,0,0,.48-6,28.84,28.84,0,0,1-1.27-5.58c1.09-.05,2.65,1.81,3.34,3.25h-.06l.31.83c.1.12-.12.27.13.32a3.65,3.65,0,0,0-.38-1.15,1.63,1.63,0,0,1,.38,0c.54,1.82-.35,2.84-.76,4.44-.34,1.3.17,2.8-.15,4.07s-1.38,2.64-1.73,4.09a30.65,30.65,0,0,1-1.15,4.3c-.87,2.32-2.45,4.74-4.78,5.63-2,.76-7.16,1.37-8.77-.56C76.43,389.63,79.09,390.53,81.88,388.32Z"/><path class="cls-12" d="M63.21,304.7c2.19.1,3.14,1.77,4.61,3s3,2.12,4.35,3.77c.6.74,1.08,1.76,1.72,2.41s1.55.83,2,1.34c.81.9.56,2.14,1.08,3,.41.68,1.22.89,1.69,1.54.77,1,.63,2.27,1.19,3.28s1.44,1,2,1.74a35.45,35.45,0,0,1,2.29,4.57c.94,1.94,2.23,3.52,3.16,5.47,1.07,2.28,1,3.92,2.51,5.95a26.91,26.91,0,0,1,3.5,7.88c1.74,5.57,1.55,9.83.26,15.34L94,363a2.51,2.51,0,0,0,.55,0,20.32,20.32,0,0,0-2.69,4.62c-.47,1.44-.5,4.1-2.26,4.78-3.39,1.3-8.26-5.1-9.85-7.41-6.19-9-8.46-20.58-12.18-30.82-.92-2.5-2-4.68-3-7.08-.91-2.09-.86-4.47-1.66-6.56-1-2.74-2.35-3.53-2.58-6.63a25.1,25.1,0,0,0-.46-4.15c-.15-.6-1.1-2.06-1-2.59C59,305.59,61.93,304.62,63.21,304.7Z"/><path class="cls-17" d="M62.79,307.32l-1.46-.87a1.81,1.81,0,0,1,1.32.43A1.9,1.9,0,0,1,62.79,307.32Z"/><path class="cls-17" d="M62.65,306.88a1.81,1.81,0,0,0-1.32-.43l1.46.87a1.9,1.9,0,0,0-.14-.44c2.23,1.52,5.08,6.59,6,8.06a100,100,0,0,1,6.32,12.48,167.1,167.1,0,0,1,7.68,20.86c1.32,4.94,3,9.72,4.3,14.69.74,2.89,2.62,6.4,2.22,9.37-3.84.88-9.06-8.25-10.89-11.12-2.93-4.61-4.51-9.91-6.2-15.14a91,91,0,0,0-3.82-10.71c-.9-2-1.24-4.1-2-6.14a30.93,30.93,0,0,1-1.89-4.88c-.39-2.07-.3-3-1.36-4.93a11.58,11.58,0,0,1-1.82-4.86,23.82,23.82,0,0,0-1-5C59.51,307.31,61.87,304.88,62.65,306.88Z"/><path class="cls-16" d="M105.79,421.23c1.88-1.92,3.93-2.3,5.64-4.62a12.91,12.91,0,0,0,2.74-7.56c.09-2.73-1.72-6.05-1.27-8.56.51-2.77,4.13-4.43,5.06-7.22s0-5.53,1.49-8.18,4.2-4.47,6.1-6.91,4-4.84,7.17-4.93c4.37-.15,17.75,11.17,15.69,15.12V388c-1.14.93-9.7-6.63-12.25-7.8-6.88-3.15-6.76,3.95-7.51,9.18-.79,5.56-1.93,12.48-5.11,17.28s-6.51,6.91-7.4,13.2c-.94,6.61-2.42,11.52-7.22,16.09-1.76,1.68-3.94,3.61-5.11,5.91a8.16,8.16,0,0,0-.4,1H99.67a36.34,36.34,0,0,1,1.55-12.48C102.13,427.5,103.65,423.38,105.79,421.23Z"/><path class="cls-18" d="M52.65,393.27l-.32-.3c0,2.24-.43,6.52-.32,9.59.12,2.73,1.28,5.16,1.26,7.71-.68-1.92-2.8-3-3.51-4.75-.84-1.91-.2-2.2.37-4.68.48-2,1.55-10.63-1.83-9.79-.54,2.74.35,6.87-1.89,8.77-.15-2.61,1.29-9.52-.55-11.35C49.73,389.23,53.57,390.57,52.65,393.27Z"/><path class="cls-18" d="M39.16,387.39c.94.26,3.71.5,6.49,1-3.73,3.66-1.85,9.19-7.33,12,2.48-2.43,4.06-7.89,3.6-11.4-4.32-.32-6.44,8.26-6.3,11.68-2.14-5.07,1.51-8.3,1.9-13-4.42,1.29-6.55,6.13-5.34,10.7a7.38,7.38,0,0,1-1.12-2.39v-3.49a23.86,23.86,0,0,0,1.12-5.45,3.62,3.62,0,0,0-1.12.2v-.67A24.06,24.06,0,0,1,39.16,387.39Z"/><path class="cls-18" d="M45.86,388.47l-.21,0,.08-.11Z"/><path class="cls-16" d="M102,368.59a54.48,54.48,0,0,1,7.52-.93c-1.09,2.81.71,3.94,1.81,6.27a13.53,13.53,0,0,1,.95,7.1c-1-3.76-1.88-8.26-6.54-8.76-4.89-.53-5,4.26-6.52,7.53a42,42,0,0,0-1-7.87c-.7-2.25-4.27-4-4.09-6.23C94.55,359.69,104.3,363.62,102,368.59Z"/><path class="cls-12" d="M122.05,407.42c2.36-3.63,4-6.56,8.21-8.15,7.07-2.68,16.24-6.74,23.81-6.33a13.25,13.25,0,0,0,5-.57c1.3-.32,5.26-2,5,.93-.12,1.35-6.25,4.2-7.52,5.25-3.38,2.76-4.51,5.4-4.73,9.77-.29,5.82.3,13.9-7.22,13.87-2.55,0-5.11-2.26-7.54-1.63-2.59.63-4.91,4.94-6.28,7.13-3.19,5.08-6.25,10.59-10.18,15.21H98.5c1.14-6,5.22-11.87,8.07-16.69C110.91,418.92,117.5,414.29,122.05,407.42Z"/><path class="cls-16" d="M163.8,393.62h-.07a.89.89,0,0,1,.13-.14Z"/><path class="cls-16" d="M118.26,423.77a36.74,36.74,0,0,1,10-11.84,89.23,89.23,0,0,1,17.93-11.42c5.34-2.49,11.34-7.42,17.49-6.89-1.18.95-3.13,1.05-4.66,1.63-2.11.81-4.11,2.15-6.27,3.23-5.07,2.53-10.08,4-14.67,7.69a175,175,0,0,0-13.58,12.41c-5.42,5.34-5,12.24-8.87,18.44-.72,1.14-2.77,3.52-4.38,5.88h-5.63c2.32-3.1,5.41-5.61,7.89-8.56C116.22,431.19,116.42,427.43,118.26,423.77Z"/><path class="cls-16" d="M163.86,393.48l.89-1.83A2.8,2.8,0,0,1,163.86,393.48Z"/><path class="cls-16" d="M121.72,408.4l.33-.68c-2.19,4.94-5.67,13.27-1.88,18.35,2,2.75,7.29,4.75,10.39,3.14-3.13,4.46-6.26,9.48-9.92,13.69H98.41C100.68,435,108,424.31,110,421.54,113.58,416.61,117.66,413,121.72,408.4Z"/><path class="cls-19" d="M70.52,436h58a1.72,1.72,0,1,1,0,3.4h-.83v9c0,13.54-6.28,25.25-15.47,31.05H86.14c-9.18-5.8-15.47-17.51-15.47-31.05v-9h-.15a1.72,1.72,0,1,1,0-3.4Z"/><path class="cls-20" d="M128.21,436H117.89c-2.38,12.32-11.88,20.66-23.74,24.5a119.16,119.16,0,0,1-19.68,4.27h-.13a32.6,32.6,0,0,0,12.14,14.64h26.1c9.18-5.8,15.49-17.51,15.49-31.05v-9h.14a1.72,1.72,0,1,0,0-3.4Z"/><path class="cls-20" d="M69.6,437.71h59.23a.89.89,0,0,1,0,1.78H69.6a.89.89,0,0,1,0-1.78Z"/><ellipse class="cls-2" cx="710.94" cy="479.29" rx="41.37" ry="6.07"/><path class="cls-7" d="M714,390l-.56.22a7.62,7.62,0,0,0,1.19.41A.72.72,0,0,0,714,390Z"/><path class="cls-7" d="M734.69,391.58c-3.37,1.68-5.38,1.87-9,2-3,.13-6.51.31-8.71,2.62-1.76,1.82-2,4.87-4.08,6.33-1.34.93-4.27,1.06-5.61,2.46a12.33,12.33,0,0,1-.67,2,2.47,2.47,0,0,1,.67-2c1.37-4.76,3.44-14.55,5.84-14.7l.38-.12a35.24,35.24,0,0,0-5-2.21c2.26,3.59-2.77,11.54-3.49,15.42-1.16,6-.39,12,3.76,16.47,7.38,7.92,17.63,3.19,25.36-1.89,4.39-2.88,6.16-6,9.43-9.6,1.34-1.5,3-2.35,4.38-3.95,1-1.19,1.83-3.42,3.08-4.27,2.7-1.89,5,1.19,7.89.68,1.85-.32,3-1.64,4-3V385.22C753.19,384.34,743.4,387.17,734.69,391.58Z"/><path class="cls-7" d="M707.26,405a2.47,2.47,0,0,0-.67,2A12.33,12.33,0,0,0,707.26,405Z"/><path class="cls-8" d="M690.38,400.46c-1.76-4-4.77-7.16-6.65-11-1.25-2.61-1.17-5.84-2.55-8.38-1.62-3-6-4.44-8.43-6.93s-5.8-7.83-9.52-7.52c-4.51.36-9.24,6.15-11.78,9.61-2.28,3.18-7.29,8.91-6.88,13.17,3.28-.43,6.64-5.46,9.78-7a30.94,30.94,0,0,1,6-2.58c3-.76,4.55,4.55,5.09,7.63.83,4.68.45,9.41,2.5,13.62,1.26,2.58,3,4.4,4.55,6.83,1.29,2.1,2.88,3.22,3.86,5.55,1.66,4,1.55,8.74,3.17,12.82a39.24,39.24,0,0,0,7.7,12.27,16.86,16.86,0,0,1,3.19,4.33h8.65c1.25-3.67.67-8.45.51-12C699.13,420.45,694.51,409.77,690.38,400.46Z"/><path class="cls-9" d="M692.39,362.24c-1.66,1.07-2.56,2.76-4.41,3.46-1,.37-4.34.87-4.07,2.29h.61c.34-1.65,2.27-.51,3.19-.15,1.24.45,2.78.4,3.9,1.08-.2-2,1.52-3.88,2.53-5.35C695.72,361.29,694.21,361.05,692.39,362.24Z"/><path class="cls-10" d="M747.32,321.18l.31-.49c-1.37-.24-1.94.91-2.81,1.82a30.09,30.09,0,0,1-4.23,3.11,71.63,71.63,0,0,0-10.22,7.89c-5.6,5.55-9.75,12.4-15.56,17.7-2.36,2.13-3,5.52-4.64,8.1s-3.65,4.54-5.39,6.85c-1.57,2-2.81,4-3,6.76-.22,3,1.45,4.33,3.29,6.24,1.23,1.25,1.95,4.61,3.77,4.61,2.33,0,3.85-5.86,4.83-7.7,3.66-6.91,6.11-14.53,10.4-21a207,207,0,0,1,14.1-19.25c1.88-2.21,3.59-4.61,5.37-6.88,1.2-1.51,2.88-2.6,4-4.11a5,5,0,0,0,1.13-2.47C748.68,321.52,747.83,320.41,747.32,321.18Z"/><path class="cls-11" d="M693.17,362.07a2.7,2.7,0,0,0-.85.3Z"/><path class="cls-12" d="M705.41,375.38c-.38-2.38-.41-4.58-1.4-6.87-1.18-2.7-3.08-5.76-6-6.6-1.67-.47-4.4-.8-5.77.5l.1,0a2.7,2.7,0,0,1,.85-.3,2.7,2.7,0,0,0-.85.3c-1.22.68-2.21,2.32-3.55,2.8s-4.06.32-4.76,1.82c-.37.83.33,1,.33,1.52,0,1.13-.27,1-.76,1.81A11.75,11.75,0,0,0,682,375c-.67,5.89-.52,11.72,3,16.68,1,1.44,2.16,3,1.37,4.88s-2.55,3.06-3.2,5.26c-1.53,5-1.46,15.76,4.3,18.07,4.72,1.89,5.91-6,10.57-5.26,3.3.52,6.33,6.84,8.13.49.79-2.82-.79-5.24-.6-7.89.09-1.38,1.07-2.63,1.56-3.94a30.39,30.39,0,0,0,1.26-4.72c1.21-5.68,1.42-10.92-.63-16.46C707,379.93,705.77,377.69,705.41,375.38Z"/><path class="cls-13" d="M691.43,369.11c0-.15,0-.27,0-.4l0-.06Z"/><path class="cls-13" d="M702.11,365.35c-1.32-1.9-4.51-4.41-6.9-3.75-1.15.3-1.67,2.41-2.37,3.62a7.41,7.41,0,0,0-1.38,3.49c2.24,3.76,3.33,9.86,3.71,14.27.48,5.62.83,11.19.83,16.83,0,4.85.46,11.33-1.28,15.76,2-1.83,5.56-.63,7.39.92,1,.82,1.73,2,3.15,1.11s1.42-3,1.29-4.33c-.17-1.68-1.4-3-1.41-4.71s1.23-3.66,1.8-5.43A35.91,35.91,0,0,0,709,391.48c0-6.48-4.06-11.41-4.4-17.75C704.46,370.35,704.08,368.19,702.11,365.35Z"/><path class="cls-14" d="M747.78,321.52a6.52,6.52,0,0,1-2.19,3.56,50.41,50.41,0,0,0-3.27,4.35c-1.6,2.05-3.78,3.57-5.46,5.59-4.58,5.44-8.2,11.31-12,17.38-3.45,5.51-5.77,11.88-8.29,17.89-1.09,2.59-1.75,5.41-3.18,7.89s-3.2,4.5-4.7,6.73l-.47-1.14c-.11.15-.24.1-.28.28,1.33,2.71,3.08,5.88,6.25,6.66,5.62,1.36,11.12-3.09,14.13-7.55a18.17,18.17,0,0,0,2.5-9.53c0-4,1.66-6.26,3.49-9.63.83-1.45,2-3.13,2.18-4.84.18-1.48-.39-3-.14-4.47.44-2.69,3.29-4.54,3.45-7.11,0-1-.61-1.89-.31-2.92a17.33,17.33,0,0,1,1.66-2.75c1.24-2.29,1.93-5.07,3.33-7.26,1.56-2.43,3.42-4.45,4.25-7.35C749.17,325.8,749.72,322.13,747.78,321.52Z"/><path class="cls-12" d="M741.4,327.58c-1.44,1.51-1.93,3.7-3.3,5.26-3,3.43-6.19,6.47-8.83,10.32A79.19,79.19,0,0,0,721,358c-2,4.85-3.75,9.82-6.25,14.39a60.21,60.21,0,0,1-3.16,5.3c-1,1.56-1.87,3.53-3.11,1.15a29.62,29.62,0,0,1-2.25-6.37c-.39-1.71-.75-4.07-2.48-4.91-.11,1.8.75,4,.88,5.87a18.72,18.72,0,0,0,1.18,5.37c.88,2.36,1.35,5.15,2.74,7.29a13.38,13.38,0,0,0,5.07,4.62c1.72.8,6.24.65,7.36-1.17-2.62-.48-4.87.76-7.53-.86-2.44-1.49-2.52-3.53-1.42-6,2.57-5.66,5.7-10.74,7.66-16.68a92,92,0,0,1,14.77-26.61c2.68-3.46,5.57-6.58,8.06-10.18.86-1.26,5.68-5.45,4.63-7.39C745.6,324.25,743.32,325.58,741.4,327.58Z"/><path class="cls-15" d="M747.11,321.84c.07-.12.14-.21.21-.33h-.46A1.15,1.15,0,0,1,747.11,321.84Z"/><path class="cls-14" d="M743.54,383.46a15.83,15.83,0,0,1-4.68,3.25c-3.3,1.69-4.47,3.52-5.23,7.19-.8,3.89-1.52,6.72-4.09,9.77-3.25,3.89-6.73,7.46-9.7,11.63-1.88,2.65-3,5.51-4.53,8.33-1.11,2.09-3.08,3.51-4.29,5.46-.9,1.47-3.26,6-1.21,7.4.12,0,.13-.06.13-.1a2.09,2.09,0,0,0-.29-.23H710c-.06.09,0,.17,0,.23.76.63,1.22,1.61,2.06,2.19a5.36,5.36,0,0,0,5.32.37c2.94-1.31,3.9-3.49,5-6.29,1.25-3.13,4.27-4.28,6.35-6.68a57.92,57.92,0,0,0,6.42-10.16c1.57-2.87,3.33-6.18,3.78-9.51.3-2.26.25-4.64.47-6.89a32.07,32.07,0,0,1,.78-5.63c.68-2.42,2-2.82,3.73-4.29s5.37-8.54,2.86-10.36C745.47,380.23,744.74,382.19,743.54,383.46Z"/><path class="cls-14" d="M709.65,436.16a2.09,2.09,0,0,1,.29.23c0-.06,0-.14,0-.23Z"/><path class="cls-11" d="M745.05,374l.71-.89C745.57,373.13,745.32,373.49,745.05,374Z"/><path class="cls-12" d="M747.81,366.31a13,13,0,0,0-1.23-.77,12.08,12.08,0,0,1,.12,5.08c-.32,1.23-1.6,2.24-1.72,3.45l.07-.09c.27-.49.52-.85.71-.89l-.71.89c-.38.66-.77,1.5-1.07,1.89a24.08,24.08,0,0,1-3.9,4,28.3,28.3,0,0,0-4.84,5.06c-1.17,1.75-1.78,3.77-3,5.46-2.23,3.09-5.5,5.09-7.86,8.06-1.48,1.84-2.6,4-4.5,5.41-1.43,1-3.13,1.23-4.77,1.71a18.37,18.37,0,0,0-6.36,3.5c-3.36,2.82-4.29,7.15-6.78,10.55-2.34,3.18-4.81,9-3.59,13.11a7.73,7.73,0,0,0,5.36,4.9c3.3.67,6.27-2.26,8.27-4.59,2.56-3,4.44-6.56,7-9.52,1.92-2.19,4.77-3.07,6.59-5.28a17.91,17.91,0,0,0,3.52-9.34c.35-2.61.57-4.56,3.1-5.38,3.13-1,1.7-1.09,2.52-3.94.49-1.68,2.57-1.19,3-3.37.37-1.9-.6-3.82.11-5.74,1-2.76,3.66-3.08,5.85-4.39a11.36,11.36,0,0,0,5.22-5.55c.66-1.77,1-3.69,1.65-5.46A8.65,8.65,0,0,0,747.81,366.31Z"/><path class="cls-14" d="M701.31,370.64a14.84,14.84,0,0,1-.43,2.16A7.26,7.26,0,0,0,701.31,370.64Z"/><path class="cls-14" d="M701.34,369.85a7,7,0,0,1,0,.79A4.51,4.51,0,0,0,701.34,369.85Z"/><path class="cls-14" d="M691.61,368.49a1.07,1.07,0,0,0,.15.41s0-.06,0-.09Z"/><path class="cls-14" d="M696.81,411.68c-.15-2.24.2-4.48.09-6.74-.12-2.53.78-2.69,2.43-4.59a25.67,25.67,0,0,0,4.2-7.38,20.21,20.21,0,0,0,1.88-6.91c-.16,3.13-3.06,6.74-4.52,9.15-1.28,2.15-2.54,4.87-4.39,6.45-.3-3,.31-6.47.46-9.5,2-.37,3.64-5.23,4.38-6.93,1-2.38,2.36-5.13,2.19-7.84-1,5-3.88,9.16-6.56,13.1-.3-1.72,0-3.48-.22-5.22-.17-1.22-.88-2.44-.89-3.61,1.82,0,4.09-5.21,5-8.86a21,21,0,0,1-5.5,7.67,33.74,33.74,0,0,0-.17-3.64c-.15-1-1.14-2.57-1.07-3.45.1-1.35,2.23-3.74,2.67-5.39.32-1.16,1-4,.15-4.91-.72,3.39-1.49,6.8-3.79,9.46a5.45,5.45,0,0,0-.19-2.22c-.29-.62-.9-.84-1.22-1.42.1,2.47,1.71,5.25,2.34,7.64a37.13,37.13,0,0,1,1.1,8.21c.14,3.9.63,7.68.63,11.66,0,6,.57,12.64-.33,18.51.1-1.89,2.31-1.47,3.33-2.41.51-.49.51-1.19.79-1.81a10.19,10.19,0,0,1,2.06-2.81,24.86,24.86,0,0,0,5.4-10c-2.08,2.9-4.16,6-6.06,9C699.83,408.78,698.84,410.65,696.81,411.68Z"/><path class="cls-14" d="M705.41,385.45c0,.19,0,.42,0,.61C705.42,385.87,705.42,385.64,705.41,385.45Z"/><path class="cls-16" d="M720.81,403c-.65.8-.92.76-1.74,1.15a27.76,27.76,0,0,1-3.58,1.17c-2.75.88-6.15,2.26-8.19,4.56-4.25,4.78-8.67,12.83-9.3,19.4a7.42,7.42,0,0,0,7.54,7.86,9.17,9.17,0,0,0,3.29-.54c1.82-.68.89-.94,1.79.52,1.87,3,4.34,2.69,7.49,1.64-.88-2.63-6.71-1.1-3.87-5.39,1.29-1.94,5.35-5.81,4.81-8.36-1.33.7-2.55,3-3.78,4.05-1.68,1.51-1.68,1.59-2.78,0-2.87-4-2.32-9.34-.17-13.62,2-4.11,6.32-5,8.6-8.54.51-.81.69-4.4,1.17-5.92C721.43,401.42,721.32,402.34,720.81,403Z"/><path class="cls-16" d="M722.09,401a1.32,1.32,0,0,1,.45-.17l.15-.49C722.44,400.26,722.26,400.54,722.09,401Z"/><path class="cls-16" d="M726,379.5c-2.31,2-6.21,3.06-9.11,1.92-4.85-1.87-4.56-8.92-4.56-13.3a57.6,57.6,0,0,1,.93-10.48c.26-1.34.69-4.9,1.74-5.75l.31-.48c-2.93.77-3.87,5.24-5.13,7.75a25.24,25.24,0,0,1-5.21,6.58c-1.76,1.78-.79,5.18-.46,7.51.4,2.77,1.16,5.65,1.84,8.38,1.44,5.73,6.48,10.51,12.3,8.5,4.94-1.73,13.71-8.61,10.64-15.06C728,376.2,727.35,378.27,726,379.5Z"/><path class="cls-16" d="M703.4,368.81c.25-.05,0-.2.13-.32l.3-.83h-.06A3.6,3.6,0,0,0,703.4,368.81Z"/><path class="cls-16" d="M712.12,388.32c-2.78-2.2-.21-3.68-.61-6.52-.59.65-1.19,2-2.34,1.63s-.55-1.2-.78-2.13a22.59,22.59,0,0,0-1.26-2.64c-.31-.82-.45-1.76-.8-2.66a8.27,8.27,0,0,1-.49-6,28.87,28.87,0,0,0,1.28-5.58c-1.09-.05-2.65,1.81-3.35,3.25h.06l-.3.83c-.11.12.12.27-.13.32a3.6,3.6,0,0,1,.37-1.15,1.58,1.58,0,0,0-.37,0c-.54,1.82.35,2.84.75,4.44.34,1.3-.16,2.8.15,4.07s1.39,2.64,1.73,4.09a33.65,33.65,0,0,0,1.15,4.3c.87,2.32,2.45,4.74,4.78,5.63,2,.76,7.16,1.37,8.78-.56C717.58,389.63,714.92,390.53,712.12,388.32Z"/><path class="cls-12" d="M730.79,304.7c-2.18.1-3.14,1.77-4.6,3s-3,2.12-4.35,3.77c-.6.74-1.08,1.76-1.72,2.41s-1.56.83-2,1.34c-.8.9-.56,2.14-1.08,3-.4.68-1.22.89-1.69,1.54-.76,1-.62,2.27-1.18,3.28s-1.44,1-2,1.74a35.45,35.45,0,0,0-2.29,4.57c-.94,1.94-2.23,3.52-3.15,5.47-1.08,2.28-1,3.92-2.52,5.95a27.17,27.17,0,0,0-3.5,7.88c-1.74,5.57-1.55,9.83-.26,15.34L700,363a2.63,2.63,0,0,1-.56,0,20.74,20.74,0,0,1,2.7,4.62c.47,1.44.5,4.1,2.26,4.78,3.38,1.3,8.26-5.1,9.85-7.41,6.19-9,8.46-20.58,12.18-30.82.92-2.5,2-4.68,3-7.08.91-2.09.85-4.47,1.65-6.56,1.06-2.74,2.36-3.53,2.58-6.63a26.24,26.24,0,0,1,.47-4.15c.14-.6,1.1-2.06,1-2.59C735,305.59,732.08,304.62,730.79,304.7Z"/><path class="cls-17" d="M731.21,307.32l1.47-.87a1.82,1.82,0,0,0-1.33.43A3.88,3.88,0,0,0,731.21,307.32Z"/><path class="cls-17" d="M731.35,306.88a1.82,1.82,0,0,1,1.33-.43l-1.47.87a3.88,3.88,0,0,1,.14-.44c-2.22,1.52-5.07,6.59-6,8.06a100.07,100.07,0,0,0-6.33,12.48c-2.83,6.78-5.77,13.75-7.68,20.86-1.32,4.94-3,9.72-4.29,14.69-.75,2.89-2.62,6.4-2.23,9.37,3.85.88,9.06-8.25,10.9-11.12,2.93-4.61,4.51-9.91,6.2-15.14a91,91,0,0,1,3.82-10.71c.89-2,1.24-4.1,2-6.14a31,31,0,0,0,1.9-4.88c.39-2.07.3-3,1.36-4.93a11.58,11.58,0,0,0,1.82-4.86,23.82,23.82,0,0,1,1-5C734.5,307.31,732.14,304.88,731.35,306.88Z"/><path class="cls-16" d="M688.22,421.23c-1.88-1.92-3.93-2.3-5.65-4.62a13,13,0,0,1-2.74-7.56c-.08-2.73,1.72-6.05,1.28-8.56-.51-2.77-4.14-4.43-5.06-7.22s0-5.53-1.49-8.18-4.2-4.47-6.1-6.91-4-4.84-7.17-4.93c-4.37-.15-17.75,11.17-15.7,15.12V388c1.15.93,9.7-6.63,12.26-7.8,6.88-3.15,6.75,3.95,7.5,9.18.8,5.56,1.93,12.48,5.12,17.28s6.5,6.91,7.4,13.2c.94,6.61,2.42,11.52,7.22,16.09,1.76,1.68,3.93,3.61,5.11,5.91a10.11,10.11,0,0,1,.4,1h3.74a36.34,36.34,0,0,0-1.55-12.48C691.88,427.5,690.35,423.38,688.22,421.23Z"/><path class="cls-18" d="M741.35,393.27l.33-.3c0,2.24.43,6.52.32,9.59-.12,2.73-1.28,5.16-1.27,7.71.69-1.92,2.81-3,3.52-4.75.84-1.91.2-2.2-.38-4.68-.47-2-1.55-10.63,1.84-9.79.54,2.74-.36,6.87,1.89,8.77.15-2.61-1.29-9.52.54-11.35C744.27,389.23,740.44,390.57,741.35,393.27Z"/><path class="cls-18" d="M754.85,387.39c-1,.26-3.72.5-6.49,1,3.72,3.66,1.84,9.19,7.32,12-2.47-2.43-4.06-7.89-3.59-11.4,4.32-.32,6.43,8.26,6.3,11.68,2.14-5.07-1.51-8.3-1.91-13,4.42,1.29,6.56,6.13,5.34,10.7a7.17,7.17,0,0,0,1.12-2.39v-3.49a24.41,24.41,0,0,1-1.12-5.45,3.51,3.51,0,0,1,1.12.2v-.67A24,24,0,0,0,754.85,387.39Z"/><path class="cls-18" d="M748.14,388.47l.22,0a.28.28,0,0,1-.08-.11C748.23,388.37,748.19,388.43,748.14,388.47Z"/><path class="cls-16" d="M692,368.59a54.48,54.48,0,0,0-7.52-.93c1.1,2.81-.7,3.94-1.8,6.27a13.43,13.43,0,0,0-1,7.1c1.05-3.76,1.88-8.26,6.54-8.76,4.89-.53,5,4.26,6.51,7.53a42.8,42.8,0,0,1,1-7.87c.69-2.25,4.27-4,4.09-6.23C699.45,359.69,689.71,363.62,692,368.59Z"/><path class="cls-12" d="M672,407.42c-2.37-3.63-4.05-6.56-8.22-8.15-7.06-2.68-16.23-6.74-23.8-6.33a13.32,13.32,0,0,1-5-.57c-1.29-.32-5.25-2-5,.93.13,1.35,6.26,4.2,7.53,5.25,3.37,2.76,4.5,5.4,4.72,9.77.3,5.82-.3,13.9,7.23,13.87,2.55,0,5.1-2.26,7.54-1.63,2.59.63,4.91,4.94,6.28,7.13,3.19,5.08,6.25,10.59,10.18,15.21H695.5c-1.14-6-5.21-11.87-8.06-16.69C683.1,418.92,676.51,414.29,672,407.42Z"/><path class="cls-16" d="M630.2,393.62h.08l-.13-.14Z"/><path class="cls-16" d="M675.75,423.77a37,37,0,0,0-10-11.84,89.51,89.51,0,0,0-17.93-11.42c-5.34-2.49-11.34-7.42-17.49-6.89,1.18.95,3.13,1.05,4.65,1.63,2.12.81,4.12,2.15,6.27,3.23,5.08,2.53,10.09,4,14.68,7.69a175,175,0,0,1,13.58,12.41c5.42,5.34,5,12.24,8.87,18.44.72,1.14,2.76,3.52,4.38,5.88h5.62c-2.32-3.1-5.4-5.61-7.88-8.56C677.78,431.19,677.59,427.43,675.75,423.77Z"/><path class="cls-16" d="M630.15,393.48l-.89-1.83A2.76,2.76,0,0,0,630.15,393.48Z"/><path class="cls-16" d="M672.29,408.4l-.33-.68c2.19,4.94,5.67,13.27,1.88,18.35-2,2.75-7.29,4.75-10.4,3.14,3.14,4.46,6.26,9.48,9.93,13.69H695.6C693.32,435,686,424.31,684,421.54,680.42,416.61,676.35,413,672.29,408.4Z"/><path class="cls-19" d="M668.72,436h58a1.72,1.72,0,1,1,0,3.4h-.84v9c0,13.54-6.28,25.25-15.47,31.05H684.33c-9.18-5.8-15.46-17.51-15.46-31.05v-9h-.15a1.72,1.72,0,1,1,0-3.4Z"/><path class="cls-20" d="M726.4,436H716.08c-2.38,12.32-11.88,20.66-23.74,24.5a119.26,119.26,0,0,1-19.67,4.27h-.14a32.6,32.6,0,0,0,12.14,14.64h26.1c9.19-5.8,15.49-17.51,15.49-31.05v-9h.14a1.72,1.72,0,1,0,0-3.4Z"/><path class="cls-20" d="M667.8,437.71H727a.89.89,0,0,1,0,1.78H667.8a.89.89,0,0,1,0-1.78Z"/><path d="M271.7,380.82h0Z"/><path class="cls-21" d="M640.7,208.34V440.81a36.32,36.32,0,0,1-4.7,17.92,34,34,0,0,1-3,4.51A36.47,36.47,0,0,1,609.61,477a34.31,34.31,0,0,1-4.35.38h-.33c-.26,0-.53,0-.8,0H225.39a36.58,36.58,0,0,1-36.58-36.58V208.34a36.58,36.58,0,0,1,36.58-36.58H604.13A36.58,36.58,0,0,1,640.7,208.34Z"/><path class="cls-22" d="M616.18,208.34V440.81a36.57,36.57,0,0,1-36.56,36.58H200.87a36.57,36.57,0,0,1-36.57-36.58V208.34a36.57,36.57,0,0,1,36.57-36.58H579.62A36.57,36.57,0,0,1,616.18,208.34Z"/><g class="cls-23"><path class="cls-24" d="M640.7,208.34v19.4H164.3v-19.4a36.57,36.57,0,0,1,36.57-36.58H604.13A36.58,36.58,0,0,1,640.7,208.34Z"/></g><path class="cls-24" d="M621.71,227.74l.6,223.7c0,7.25-2.35,13.15-7,17.52-5.89,5.56-14.39,7.65-20.69,8.43h6.9l.27-.08h0a33,33,0,0,0,14.34-7.45c4.89-4.62,7.37-10.81,7.37-18.42l-.6-223.7Z"/><path class="cls-24" d="M628.31,227.74l.6,223.7c0,7.25-2.36,13.15-7,17.52-5.7,5.37-13.85,7.52-20.09,8.35h0l-.58.08h2.9c.27,0,.54,0,.8,0h.33l4.35-.38a32.1,32.1,0,0,0,13.14-7.12c4.89-4.62,7.38-10.81,7.38-18.42l-.6-223.7Z"/><path class="cls-24" d="M636.27,227.74l.6,223.7a28.85,28.85,0,0,1-.87,7.29,34,34,0,0,1-3,4.51,25.43,25.43,0,0,0,2.65-11.8l-.6-223.7Z"/><line class="cls-25" x1="215.3" y1="285.26" x2="573.3" y2="285.26"/><line class="cls-25" x1="215.3" y1="330.26" x2="573.3" y2="330.26"/><line class="cls-25" x1="215.3" y1="377.26" x2="573.3" y2="377.26"/><line class="cls-25" x1="215.3" y1="422.26" x2="573.3" y2="422.26"/><line class="cls-25" x1="215.3" y1="467.26" x2="573.3" y2="467.26"/><line class="cls-25" x1="214.8" y1="238.76" x2="214.8" y2="467.76"/><line class="cls-25" x1="265.8" y1="238.76" x2="265.8" y2="467.76"/><line class="cls-25" x1="316.8" y1="238.76" x2="316.8" y2="467.76"/><line class="cls-25" x1="367.8" y1="238.76" x2="367.8" y2="467.76"/><line class="cls-25" x1="418.8" y1="238.76" x2="418.8" y2="467.76"/><line class="cls-25" x1="469.8" y1="238.76" x2="469.8" y2="467.76"/><line class="cls-25" x1="520.8" y1="238.76" x2="520.8" y2="467.76"/><line class="cls-25" x1="572.8" y1="238.76" x2="572.8" y2="467.76"/><line class="cls-25" x1="214.8" y1="239.26" x2="572.8" y2="239.26"/><path class="cls-26" d="M359,259.43H331.37a1.56,1.56,0,0,1-1.64-1.47h0a1.56,1.56,0,0,1,1.64-1.47H359a1.57,1.57,0,0,1,1.64,1.47h0A1.57,1.57,0,0,1,359,259.43Z"/><path class="cls-26" d="M359,265.78H331.37a1.56,1.56,0,0,1-1.64-1.47h0a1.56,1.56,0,0,1,1.64-1.47H359a1.57,1.57,0,0,1,1.64,1.47h0A1.57,1.57,0,0,1,359,265.78Z"/><path class="cls-26" d="M359,272.13H331.37a1.56,1.56,0,0,1-1.64-1.47h0a1.57,1.57,0,0,1,1.64-1.48H359a1.57,1.57,0,0,1,1.64,1.48h0A1.57,1.57,0,0,1,359,272.13Z"/><path class="cls-27" d="M272.87,243.65a.88.88,0,0,0,1-.65h.6v5.14h-.9v-3.92h-.69Z"/><path class="cls-27" d="M327.13,243.68c-.28,0-.46.14-.46.5v.55h-.85v-.49a1.34,1.34,0,0,1,2.68,0,2.72,2.72,0,0,1-1.11,2c-.53.51-.68.75-.68,1a.37.37,0,0,0,0,.11h1.7v.74h-2.6v-.63a2.14,2.14,0,0,1,.9-1.64c.68-.65.88-1.06.88-1.6S327.42,243.68,327.13,243.68Z"/><path class="cls-27" d="M378.12,244.27c0-.47-.18-.59-.47-.59s-.46.14-.46.5v.33h-.85v-.27a1.34,1.34,0,0,1,2.67,0v.13a1,1,0,0,1-.62,1h0a1,1,0,0,1,.62,1.07v.4a1.34,1.34,0,0,1-2.67,0v-.42h.85V247c0,.36.18.5.46.5s.47-.12.47-.58v-.4c0-.48-.18-.65-.59-.65h-.3v-.74h.35c.33,0,.54-.13.54-.54Z"/><path class="cls-27" d="M425.38,246.47,427,243h1v3.47h.43v.73H428v.94h-.9v-.94h-1.71Zm1.71,0v-1.9h0l-.88,1.9Z"/><path class="cls-27" d="M475.6,246.48V247c0,.36.18.49.47.49s.47-.13.47-.49v-1.13c0-.37-.18-.51-.47-.51s-.47.14-.47.51V246h-.84l.16-3h2.37v.74h-1.57l-.07,1.22h0a.89.89,0,0,1,.78-.37c.66,0,1,.42,1,1.17v1.14a1.34,1.34,0,0,1-2.67,0v-.42Z"/><path class="cls-27" d="M273.6,295.14a1.22,1.22,0,0,1-1.4-1.29v-.4a1.08,1.08,0,0,1,.55-1.06v0a1,1,0,0,1-.55-1v-.16c0-.83.5-1.29,1.4-1.29s1.41.46,1.41,1.29v.16a1,1,0,0,1-.56,1v0a1.09,1.09,0,0,1,.56,1.06v.4C275,294.67,274.51,295.14,273.6,295.14Zm-.5-3.64c0,.41.21.54.5.54s.51-.13.51-.54v-.29c0-.46-.22-.58-.51-.58s-.5.12-.5.58Zm.5,2.91c.29,0,.5-.12.51-.58v-.47c0-.41-.19-.58-.51-.58s-.5.17-.5.58v.47C273.1,294.29,273.32,294.41,273.6,294.41Z"/><path class="cls-27" d="M328.46,293.81a1.2,1.2,0,0,1-1.38,1.33,1.18,1.18,0,0,1-1.34-1.29v-.13h.85v.18c0,.37.18.51.47.51s.5-.14.5-.63v-.93h0a.83.83,0,0,1-.81.45c-.67,0-1-.42-1-1.18v-.93a1.37,1.37,0,0,1,2.73,0Zm-.9-1.75v-.93c0-.36-.18-.49-.47-.49s-.46.13-.46.49v.93c0,.36.18.5.46.5S327.56,292.42,327.56,292.06Z"/><path class="cls-27" d="M376.94,290.6a.88.88,0,0,0,1-.65h.6v5.14h-.9v-3.92h-.69Z"/><path class="cls-27" d="M379.54,291.19a1.37,1.37,0,0,1,2.73,0v2.66a1.37,1.37,0,0,1-2.73,0Zm.9,2.71c0,.37.18.51.47.51s.46-.14.46-.51v-2.77c0-.36-.18-.5-.46-.5s-.47.14-.47.5Z"/><path class="cls-27" d="M426.15,290.6a.86.86,0,0,0,1-.65h.61v5.14h-.9v-3.92h-.69Z"/><path class="cls-27" d="M429.38,290.6a.88.88,0,0,0,1-.65h.6v5.14h-.9v-3.92h-.69Z"/><path class="cls-27" d="M475.35,290.6a.87.87,0,0,0,1-.65h.6v5.14h-.89v-3.92h-.7Z"/><path class="cls-27" d="M479.34,290.63c-.28,0-.46.14-.46.5v.55H478v-.49a1.34,1.34,0,0,1,2.68,0,2.72,2.72,0,0,1-1.11,2c-.53.51-.68.75-.68,1a.37.37,0,0,0,0,.11h1.7v.74H478v-.64a2.13,2.13,0,0,1,.9-1.63,2.1,2.1,0,0,0,.88-1.61C479.81,290.75,479.63,290.63,479.34,290.63Z"/><path class="cls-27" d="M272.87,337.55a.88.88,0,0,0,1-.65h.6V342h-.9v-3.91h-.69Z"/><path class="cls-27" d="M276.35,340.38v.47c0,.37.18.5.47.5s.46-.13.46-.5v-1.12c0-.37-.17-.51-.46-.51s-.47.14-.47.51v.15h-.85l.17-3H278v.74h-1.57l-.08,1.22h0a.87.87,0,0,1,.78-.37c.66,0,1,.41,1,1.17v1.14a1.34,1.34,0,0,1-2.68,0v-.42Z"/><path class="cls-27" d="M326.37,337.55a.87.87,0,0,0,1-.65H328V342h-.9v-3.91h-.7Z"/><path class="cls-27" d="M329,338.18a1.21,1.21,0,0,1,1.38-1.34,1.18,1.18,0,0,1,1.34,1.29v.14h-.85v-.19c0-.36-.18-.5-.47-.5s-.5.14-.5.63v.93h0a.85.85,0,0,1,.82-.45c.66,0,1,.42,1,1.17v.94a1.37,1.37,0,0,1-2.73,0Zm.9,1.75v.92c0,.37.18.5.47.5s.46-.13.46-.5v-.92c0-.37-.18-.51-.46-.51S329.89,339.56,329.89,339.93Z"/><path class="cls-27" d="M376.94,337.55a.88.88,0,0,0,1-.65h.6V342h-.9v-3.91h-.69Z"/><path class="cls-27" d="M382.26,336.9v.71L380.93,342H380l1.32-4.39h-1.79v-.74Z"/><path class="cls-27" d="M426.15,337.55a.86.86,0,0,0,1-.65h.61V342h-.9v-3.91h-.69Z"/><path class="cls-27" d="M430.11,342.09a1.22,1.22,0,0,1-1.4-1.29v-.4a1.07,1.07,0,0,1,.55-1.06v0a1,1,0,0,1-.55-1v-.17a1.22,1.22,0,0,1,1.4-1.29c.91,0,1.41.47,1.41,1.29v.17a1,1,0,0,1-.56,1v0a1.06,1.06,0,0,1,.56,1.06v.4C431.52,341.62,431,342.09,430.11,342.09Zm-.5-3.64c0,.41.21.54.5.54s.51-.13.51-.54v-.29c0-.46-.22-.58-.51-.58s-.5.12-.5.58Zm.5,2.91c.29,0,.5-.12.51-.58v-.48c0-.4-.19-.57-.51-.57s-.5.17-.5.57v.48C429.61,341.24,429.83,341.36,430.11,341.36Z"/><path class="cls-27" d="M475.35,337.55a.87.87,0,0,0,1-.65h.6V342h-.89v-3.91h-.7Z"/><path class="cls-27" d="M480.67,340.76a1.2,1.2,0,0,1-1.38,1.33A1.18,1.18,0,0,1,478,340.8v-.13h.84v.18c0,.37.18.51.47.51s.5-.14.5-.63v-.93h0a.83.83,0,0,1-.81.45c-.67,0-1-.42-1-1.18v-.94a1.37,1.37,0,0,1,2.73,0Zm-.9-1.75v-.93c0-.36-.18-.49-.47-.49s-.46.13-.46.49V339c0,.36.18.5.46.5S479.77,339.37,479.77,339Z"/><path class="cls-27" d="M273.63,384.53c-.29,0-.47.14-.47.5v.55h-.85v-.5a1.34,1.34,0,0,1,2.68,0,2.69,2.69,0,0,1-1.11,2c-.53.52-.68.76-.68,1a.41.41,0,0,0,0,.11h1.7V389h-2.6v-.63a2.13,2.13,0,0,1,.9-1.63,2.06,2.06,0,0,0,.88-1.61C274.09,384.65,273.91,384.53,273.63,384.53Z"/><path class="cls-27" d="M276.86,384.53c-.29,0-.47.14-.47.5v.55h-.84v-.5a1.34,1.34,0,0,1,2.67,0,2.66,2.66,0,0,1-1.11,2c-.53.52-.67.76-.67,1v.11h1.7V389h-2.59v-.63a2.12,2.12,0,0,1,.89-1.63c.69-.65.89-1.06.89-1.61S277.15,384.53,276.86,384.53Z"/><path class="cls-27" d="M327.13,384.53c-.28,0-.46.14-.46.5v.55h-.85v-.5a1.34,1.34,0,0,1,2.68,0,2.69,2.69,0,0,1-1.11,2c-.53.52-.68.76-.68,1a.41.41,0,0,0,0,.11h1.7V389h-2.6v-.63a2.13,2.13,0,0,1,.9-1.63,2.1,2.1,0,0,0,.88-1.61C327.6,384.65,327.42,384.53,327.13,384.53Z"/><path class="cls-27" d="M330.78,385.11c0-.46-.18-.58-.46-.58s-.47.14-.47.5v.33H329v-.28a1.34,1.34,0,0,1,2.68,0v.14a1,1,0,0,1-.63,1v0a1,1,0,0,1,.63,1.07v.4a1.34,1.34,0,0,1-2.68,0v-.42h.85v.47c0,.37.18.51.47.51s.46-.12.46-.58v-.4c0-.48-.18-.66-.58-.66h-.31v-.73h.35c.34,0,.54-.13.54-.54Z"/><path class="cls-27" d="M377.7,384.53c-.29,0-.47.14-.47.5v.55h-.84v-.5a1.34,1.34,0,0,1,2.67,0,2.66,2.66,0,0,1-1.11,2c-.53.52-.67.76-.67,1v.11H379V389h-2.59v-.63a2.12,2.12,0,0,1,.89-1.63c.69-.65.89-1.06.89-1.61S378,384.53,377.7,384.53Z"/><path class="cls-27" d="M379.41,387.32l1.63-3.47h1v3.47h.42v.73H382V389h-.9v-.93h-1.71Zm1.71,0v-1.9h0l-.87,1.9Z"/><path class="cls-27" d="M426.91,384.53c-.29,0-.47.14-.47.5v.55h-.85v-.5a1.34,1.34,0,0,1,2.68,0,2.69,2.69,0,0,1-1.11,2c-.53.52-.68.76-.68,1a.41.41,0,0,0,0,.11h1.7V389h-2.6v-.63a2.13,2.13,0,0,1,.9-1.63,2.1,2.1,0,0,0,.88-1.61C427.37,384.65,427.19,384.53,426.91,384.53Z"/><path class="cls-27" d="M429.63,387.33v.47c0,.37.18.5.47.5s.46-.13.46-.5v-1.13c0-.36-.18-.5-.46-.5s-.47.14-.47.5v.16h-.85l.17-3h2.36v.74h-1.56l-.08,1.22h0a.87.87,0,0,1,.77-.37c.67,0,1,.41,1,1.17v1.14a1.34,1.34,0,0,1-2.68,0v-.42Z"/><path class="cls-27" d="M476.11,384.53c-.28,0-.46.14-.46.5v.55h-.85v-.5a1.34,1.34,0,0,1,2.67,0,2.66,2.66,0,0,1-1.11,2c-.53.52-.67.76-.67,1v.11h1.7V389H474.8v-.63a2.12,2.12,0,0,1,.89-1.63c.69-.65.89-1.06.89-1.61S476.4,384.53,476.11,384.53Z"/><path class="cls-27" d="M478,385.13a1.2,1.2,0,0,1,1.37-1.34,1.18,1.18,0,0,1,1.34,1.29v.14h-.85V385c0-.36-.18-.5-.46-.5s-.5.14-.5.63v.93h0a.83.83,0,0,1,.81-.45c.66,0,1,.42,1,1.17v.94a1.37,1.37,0,0,1-2.73,0Zm.9,1.75v.92c0,.37.18.5.47.5s.46-.13.46-.5v-.92c0-.37-.18-.51-.46-.51S478.87,386.51,478.87,386.88Z"/><path class="cls-27" d="M273.63,431.48c-.29,0-.47.14-.47.5v.55h-.85V432a1.34,1.34,0,0,1,2.68,0,2.71,2.71,0,0,1-1.11,2c-.53.52-.68.76-.68,1a.41.41,0,0,0,0,.11h1.7v.73h-2.6v-.63a2.13,2.13,0,0,1,.9-1.63,2.06,2.06,0,0,0,.88-1.61C274.09,431.6,273.91,431.48,273.63,431.48Z"/><path class="cls-27" d="M278.18,434.66a1.2,1.2,0,0,1-1.37,1.33,1.18,1.18,0,0,1-1.34-1.29v-.13h.85v.18c0,.37.18.51.47.51s.49-.14.49-.63v-.93h0a.85.85,0,0,1-.82.44c-.66,0-1-.41-1-1.17V432a1.36,1.36,0,0,1,2.72,0Zm-.9-1.75V432c0-.36-.17-.5-.46-.5s-.47.14-.47.5v.93c0,.36.18.5.47.5S277.28,433.27,277.28,432.91Z"/><path class="cls-27" d="M222.7,290v.71l-1.33,4.43h-.89l1.31-4.4H220V290Z"/><path class="cls-27" d="M220.61,337.55a.87.87,0,0,0,1-.65h.61V342h-.9v-3.91h-.7Z"/><path class="cls-27" d="M223.08,340.37l1.63-3.47h1v3.47h.43v.73h-.43V342h-.9v-.93h-1.71Zm1.71,0v-1.9h0l-.88,1.9Z"/><path class="cls-27" d="M221.37,384.53c-.28,0-.46.14-.46.5v.55h-.85v-.5a1.34,1.34,0,0,1,2.68,0,2.69,2.69,0,0,1-1.11,2c-.53.52-.68.76-.68,1a.41.41,0,0,0,0,.11h1.7V389h-2.6v-.63a2.13,2.13,0,0,1,.9-1.63,2.1,2.1,0,0,0,.88-1.61C221.84,384.65,221.66,384.53,221.37,384.53Z"/><path class="cls-27" d="M223.85,384.5a.88.88,0,0,0,1-.65h.6V389h-.9v-3.91h-.69Z"/><path class="cls-27" d="M221.37,431.48c-.28,0-.46.14-.46.5v.55h-.85V432a1.34,1.34,0,0,1,2.68,0,2.71,2.71,0,0,1-1.11,2c-.53.52-.68.76-.68,1a.41.41,0,0,0,0,.11h1.7v.73h-2.6v-.63a2.13,2.13,0,0,1,.9-1.63,2.1,2.1,0,0,0,.88-1.61C221.84,431.6,221.66,431.48,221.37,431.48Z"/><path class="cls-27" d="M224.58,436a1.22,1.22,0,0,1-1.4-1.29v-.4a1.07,1.07,0,0,1,.55-1.06v0a1,1,0,0,1-.55-1V432a1.22,1.22,0,0,1,1.4-1.29c.91,0,1.41.47,1.41,1.29v.16a1,1,0,0,1-.56,1v0a1.08,1.08,0,0,1,.56,1.06v.4C226,435.52,225.49,436,224.58,436Zm-.5-3.64c0,.41.21.54.5.54s.51-.13.51-.54v-.29c0-.46-.22-.58-.51-.58s-.5.12-.5.58Zm.5,2.91c.29,0,.5-.13.51-.58v-.48c0-.4-.19-.58-.51-.58s-.5.18-.5.58v.48C224.08,435.13,224.3,435.26,224.58,435.26Z"/><path class="cls-27" d="M327.55,432.06c0-.46-.18-.58-.47-.58s-.46.14-.46.5v.33h-.85V432a1.34,1.34,0,0,1,2.68,0v.14a1,1,0,0,1-.63,1v0a1,1,0,0,1,.63,1.07v.4a1.34,1.34,0,0,1-2.68,0v-.42h.85v.47c0,.37.18.51.46.51s.47-.13.47-.58v-.4c0-.48-.18-.66-.59-.66h-.3v-.73H327c.34,0,.54-.13.54-.54Z"/><path class="cls-27" d="M329,432a1.37,1.37,0,0,1,2.73,0v2.67a1.37,1.37,0,0,1-2.73,0Zm.9,2.72c0,.37.18.51.46.51s.47-.14.47-.51V432c0-.36-.18-.5-.47-.5s-.46.14-.46.5Z"/><path class="cls-27" d="M378.12,432.06c0-.46-.18-.58-.47-.58s-.46.14-.46.5v.33h-.85V432a1.34,1.34,0,0,1,2.67,0v.14a1,1,0,0,1-.62,1v0a1,1,0,0,1,.62,1.07v.4a1.34,1.34,0,0,1-2.67,0v-.42h.85v.47c0,.37.18.51.46.51s.47-.13.47-.58v-.4c0-.48-.18-.66-.59-.66h-.3v-.73h.35c.33,0,.54-.13.54-.54Z"/><path class="cls-27" d="M380.17,431.45a.87.87,0,0,0,1-.65h.61v5.13h-.9V432h-.7Z"/><path class="cls-28" d="M530,337.58c-.29,0-.47.14-.47.5v.55h-.85v-.5a1.34,1.34,0,0,1,2.68,0,2.72,2.72,0,0,1-1.11,2c-.53.51-.68.75-.68,1a.41.41,0,0,0,0,.11h1.7V342h-2.6v-.63a2.13,2.13,0,0,1,.9-1.63,2.06,2.06,0,0,0,.88-1.61C530.47,337.7,530.29,337.58,530,337.58Z"/><path class="cls-28" d="M531.85,338.13a1.37,1.37,0,0,1,2.73,0v2.67a1.37,1.37,0,0,1-2.73,0Zm.9,2.72c0,.37.18.51.47.51s.46-.14.46-.51v-2.77c0-.36-.18-.5-.46-.5s-.47.14-.47.5Z"/><path class="cls-28" d="M529.25,291.27a.88.88,0,0,0,1-.64h.6v5.13h-.9v-3.92h-.69Z"/><path class="cls-28" d="M533.66,291.89c0-.47-.18-.59-.47-.59s-.46.14-.46.51v.33h-.85v-.28a1.34,1.34,0,0,1,2.68,0V292a1,1,0,0,1-.63,1.05h0a1,1,0,0,1,.63,1.07v.41a1.34,1.34,0,0,1-2.68,0v-.43h.85v.48c0,.36.18.5.46.5s.47-.12.47-.58v-.4c0-.48-.18-.65-.59-.65h-.3v-.74h.35c.33,0,.54-.13.54-.54Z"/><path class="cls-28" d="M528.64,244.62a1.2,1.2,0,0,1,1.37-1.33,1.18,1.18,0,0,1,1.34,1.29v.13h-.85v-.18c0-.37-.18-.51-.47-.51s-.5.14-.5.63v.93h0a.85.85,0,0,1,.82-.44c.66,0,1,.41,1,1.17v.94a1.36,1.36,0,0,1-2.72,0Zm.89,1.75v.93c0,.36.18.5.47.5s.47-.14.47-.5v-.93c0-.36-.18-.5-.47-.5S529.53,246,529.53,246.37Z"/><path class="cls-28" d="M530,383c-.29,0-.47.14-.47.51v.55h-.85v-.5a1.34,1.34,0,0,1,2.68,0,2.72,2.72,0,0,1-1.11,2c-.53.51-.68.75-.68,1a.37.37,0,0,0,0,.11h1.7v.74h-2.6v-.63a2.14,2.14,0,0,1,.9-1.64c.69-.65.88-1.05.88-1.6S530.29,383,530,383Z"/><path class="cls-28" d="M534.56,382.34v.7l-1.32,4.43h-.9l1.32-4.4h-1.79v-.73Z"/><path class="cls-29" d="M345.8,435.34l3.14,5.7a1.86,1.86,0,0,0,1.41.92l7,.92a1.64,1.64,0,0,1,1,2.87l-5.08,4.44a1.6,1.6,0,0,0-.54,1.49L354,458a1.84,1.84,0,0,1-2.72,1.78l-6.28-3a2,2,0,0,0-1.74,0l-6.28,3a1.84,1.84,0,0,1-2.72-1.78l1.2-6.27a1.6,1.6,0,0,0-.54-1.49l-5.08-4.44a1.65,1.65,0,0,1,1-2.87l7-.92a1.86,1.86,0,0,0,1.41-.92l3.14-5.7A2,2,0,0,1,345.8,435.34Z"/><path class="cls-30" d="M536.55,348.05c2.2.73,10.75,4.92,15.32,6.3a127.48,127.48,0,0,0,26,5.23c3.06.23,7.14.28,9.42-1.5a4.35,4.35,0,0,0-.71-7.09l1.42,1.06c-2.38-6.19-13.17-7.22-20.25-8.24-6.86-1-13.7-2.1-20.66-2.58a5.31,5.31,0,0,1-.8-.26,23,23,0,0,1-3.06-1.89c-2.51-2.14-4.27-4.82-6.52-7.08-2.72-2.72-6.14-5.08-9.06-7.7-2.39-2.15-4.75-4.28-6.93-6.51-.22-.22-2.53-3.64-2.87-4.25a3,3,0,0,1-.23-1.92c.14-1.24,1.26-2.65,1-3.82a25.86,25.86,0,0,1-.88-4.39c0-.5.28-3.15-.3-3.24s-1.72.88-2,1.19a4,4,0,0,0-1,2.21c-.11.65.13,3.16-1.69,2.52-.87-.3-1.34-1.45-1.67-2.06s-.74-1.52-1.15-2.28q-1.38-2.52-3-5c-.34-.54-1.11-2-1.82-.82-.56.91.12,2.28.46,3.13.56,1.43,1.21,2.86,1.71,4.3.16.46.95,2.29.5,2.62-1.44-1.06-3.23-2.38-4-3.78a20.83,20.83,0,0,0-2.64-3.91c-.34-.37-1-1.26-1.63-1.41-1.09-.25-1.09.65-.94,1.16a35.31,35.31,0,0,0,1.87,4.36,30.09,30.09,0,0,0,2.09,3.73c-1.25-1.16-2.47-2.16-2.95-3.61-.39-1.18-.18-2.77-.9-3.84-1.49.33-1.39,2.9-1.34,3.79a7.6,7.6,0,0,0,1.24,3c-.26-.4-.45-.82-.68-1.2,0,.71-.34,1.41-.34,2.12s.39,1,.74,1.45a7.41,7.41,0,0,1,.95,1.64c.18.53.2,1,.72,1.42a24.11,24.11,0,0,0,3.65,2c1.42.76,2.83,1.5,4.32,2.2a10.92,10.92,0,0,1,1.66.72,3.38,3.38,0,0,1,.92,1.18c.67,1.05,3.34,4.93,3.86,5.65.35.61.74,1.21.91,1.55a62.8,62.8,0,0,0,7.25,10.62c2.51,3.12,5.51,6.1,8.36,9,.81.83,1.29,1.94,2.13,2.72S535.33,347.64,536.55,348.05Z"/><polygon class="cls-31" points="522.96 318.8 513.65 323.17 510.68 319.54 519.99 315.17 522.96 318.8"/><path class="cls-31" d="M513.43,321c.52,3,2.89,6.33,4.22,9.17a71.85,71.85,0,0,0,6.25,10.68c1,1.43,2.12,2.8,3.18,4.21A16.56,16.56,0,0,0,528.2,347c1,.84,2.17,0,3.07.53.71.39.06,1.12.55,1.65.7.78,1.73.41,2.74.7a6.06,6.06,0,0,1,2,1.23c2.54,1.74,6.5,2.07,9.45,3.51a95.82,95.82,0,0,0,23.32,8.08c5.85,1.19,15.49.61,19.66-3.05,4.39-3.83.67-9.58-3.5-12.73-3.71-2.79-8.26-3.77-13.31-4.34-6.11-.68-12-1.94-18.15-2.33-1.85-.12-4.68.13-6.35-.51a11.3,11.3,0,0,1-3-2.32c-2.3-2-5.32-3.86-7-6.27a26.33,26.33,0,0,0-8-7.2,51,51,0,0,1-4.78-3.3c-.71-.55-2-2.07-2.92-2.35-1.25-.37-7,2.06-8.31,2.83Z"/><path class="cls-32" d="M513.55,321.78c.74,2.77,2.8,5.79,4,8.37a72.29,72.29,0,0,0,6.24,10.68c1,1.43,2.13,2.8,3.18,4.21a16.56,16.56,0,0,0,1.13,1.94c1,.85,2.16,0,3.07.53.71.39.06,1.12.54,1.65.71.78,1.73.41,2.74.7a6.06,6.06,0,0,1,2,1.23c2.55,1.74,6.5,2.07,9.46,3.51a95.89,95.89,0,0,0,23.31,8.08c5.85,1.19,15.49.61,19.67-3.05a5.29,5.29,0,0,0,2-3.86C557.85,356.32,531.07,343.37,513.55,321.78Z"/><path class="cls-33" d="M481.61,250.8s-9.35,40.92,9.27,67.89c0,0,42.44,3.81,65.23-9.09Z"/><path class="cls-34" d="M481.61,250.8s36.94.67,61-.91c0,0-6.35,35.06,13.48,59.71,0,0-30.05,8.55-59.43,7.11C496.68,316.71,474,282.18,481.61,250.8Z"/><path class="cls-35" d="M515.94,255.58l-3.91.72a.87.87,0,0,0,.24,1.46h3.83Z"/><path class="cls-36" d="M520.41,256.52a2.84,2.84,0,1,1-2.82-3.14A3,3,0,0,1,520.41,256.52Z"/><path class="cls-37" d="M522.07,256.3a2,2,0,1,1-2-2.24A2.13,2.13,0,0,1,522.07,256.3Z"/><path class="cls-33" d="M487.68,385s-15.56,39.37-1.27,68.39c0,0,41.45,9,66-.91Z"/><path class="cls-34" d="M487.68,385s36.48,5.25,60.58,6.66c0,0-11.7,34,4.15,60.82,0,0-31.08,4.74-60-.33C492.45,452.14,475.28,415.12,487.68,385Z"/><path class="cls-35" d="M495,390.51l-4,.22a.88.88,0,0,0,0,1.49l3.8.47Z"/><path class="cls-36" d="M499.26,392a3.09,3.09,0,0,1-3.27,2.76,2.89,2.89,0,0,1-2.31-3.45,3.12,3.12,0,0,1,3.28-2.77A2.89,2.89,0,0,1,499.26,392Z"/><path class="cls-37" d="M500.94,392a2.2,2.2,0,0,1-2.32,2,2.06,2.06,0,0,1-1.64-2.46,2.2,2.2,0,0,1,2.33-2A2.05,2.05,0,0,1,500.94,392Z"/><path class="cls-38" d="M448.21,401.59a3.54,3.54,0,1,1-3.52-3.16A3.35,3.35,0,0,1,448.21,401.59Z"/><path class="cls-38" d="M448.21,262.21a3.54,3.54,0,1,1-3.52-3.16A3.36,3.36,0,0,1,448.21,262.21Z"/><path class="cls-39" d="M288.75,260.56l-3.87-3.29a2.05,2.05,0,0,1-.09-3.12h0a2.66,2.66,0,0,1,3.48-.09l.3.26a2.66,2.66,0,0,0,3.47-.09l5.16-4.87a2.67,2.67,0,0,1,3.48-.08h0a2.06,2.06,0,0,1,.09,3.12l-8.54,8.08A2.67,2.67,0,0,1,288.75,260.56Z"/><path class="cls-39" d="M288.75,273.05l-3.87-3.29a2.05,2.05,0,0,1-.09-3.12h0a2.66,2.66,0,0,1,3.48-.08l.3.25a2.66,2.66,0,0,0,3.47-.08l5.16-4.88a2.67,2.67,0,0,1,3.48-.08h0a2.07,2.07,0,0,1,.09,3.13L292.23,273A2.67,2.67,0,0,1,288.75,273.05Z"/><path class="cls-40" d="M436.88,317.65l-10.5-8.82a2.61,2.61,0,0,1-.12-4h0a3.38,3.38,0,0,1,4.41-.1l6,5a3.37,3.37,0,0,0,4.41-.1l17.48-16a3.37,3.37,0,0,1,4.4-.11h0a2.61,2.61,0,0,1,.12,4l-21.77,20.06A3.37,3.37,0,0,1,436.88,317.65Z"/><rect class="cls-41" x="327.61" y="351.65" width="8.09" height="18.78"/><rect class="cls-39" x="339.2" y="348.49" width="8.09" height="21.94"/><rect class="cls-37" x="350.8" y="342.18" width="8.09" height="28.25"/><path class="cls-39" d="M254.19,443.66H226.53a1.56,1.56,0,0,1-1.64-1.47h0a1.56,1.56,0,0,1,1.64-1.47h27.66a1.57,1.57,0,0,1,1.64,1.47h0A1.57,1.57,0,0,1,254.19,443.66Z"/><path class="cls-39" d="M254.19,450H226.53a1.56,1.56,0,0,1-1.64-1.47h0a1.56,1.56,0,0,1,1.64-1.47h27.66a1.57,1.57,0,0,1,1.64,1.47h0A1.57,1.57,0,0,1,254.19,450Z"/><path class="cls-39" d="M254.19,456.36H226.53a1.56,1.56,0,0,1-1.64-1.47h0a1.57,1.57,0,0,1,1.64-1.48h27.66a1.57,1.57,0,0,1,1.64,1.48h0A1.57,1.57,0,0,1,254.19,456.36Z"/><path class="cls-37" d="M447.8,341.84c-9.44,2.11-19.15,5.23-25.26,12.43-4.24,5-7.93,15.25,1.63,17.28,5,1.05,10.49.9,15.54.56a79.07,79.07,0,0,0,16-2.71c8.64-2.41,17.86-7.29,19.42-16,.65-3.6-.29-7.54-3.64-9.83-3.55-2.44-8.58-3-12.9-3.28-9.74-.62-20.83,1.6-28.26,7.57a17.93,17.93,0,0,0-6.59,10.06c-.66,3.2-.14,7.05,3,9.11a14.68,14.68,0,0,0,6.38,1.82,54.61,54.61,0,0,0,23.12-2.14c3.94-1.26,8.16-2.95,10.41-6.3a10.65,10.65,0,0,0,.64-10.38c-3.49-7.56-13.8-9.76-21.87-7.66a31.4,31.4,0,0,0-6.72,2.67c-.51.28-.05,1,.47.72,7.46-3.87,17.67-5.06,24.34.82a10.69,10.69,0,0,1,3.65,10.3c-.85,3.8-4,6.21-7.73,7.79a52.36,52.36,0,0,1-27,3.34c-2-.28-4.21-.7-5.76-2a7.26,7.26,0,0,1-2.35-5.61c0-3.85,2-7.6,4.85-10.41,5.91-5.88,15.4-8.48,24-8.9,8-.39,21,.38,21.39,9.76.39,8.45-7.91,14.27-15.84,17a76.32,76.32,0,0,1-26.93,3.9c-4.6-.13-11.58,0-12.92-5.08-1.06-4,1.2-8.55,3.78-11.75,6-7.36,15.85-10.63,25.26-13,.06,0,0-.09,0-.08Z"/><path class="cls-42" d="M617.7,561.84a15.58,15.58,0,0,0,1-12.54,47.12,47.12,0,0,0-2.63-6.65,26.06,26.06,0,0,0-2.22-4.13A19,19,0,0,1,617,537a14.22,14.22,0,0,0,3.07-1.8c.74-.61.7-.47,1.53.18a24.8,24.8,0,0,0,2.83,1.88c1.26.74,2.52,1.5,3.76,2.2a8.53,8.53,0,0,1,2.1,1.32,4.21,4.21,0,0,1,1.13,1.62,3.93,3.93,0,0,1-.46,2.27c-1,3-1.88,6.13-3.11,9-1,2.47-1.49,5-3,7.23a4.94,4.94,0,0,1-4.6,2.06c-.84-.09-1.65-.79-2.42-.8Z"/><path class="cls-43" d="M635.34,544.53a6.09,6.09,0,0,0-2-2.63,10.14,10.14,0,0,0-3.13-1.87c-.66-.22-2.09-.84-2.72-.39l.2-.26c-.58.42-.91,1.72-1.18,2.36a26.12,26.12,0,0,0-1.38,4.11c-.6,2.85-1,5.84-1.3,8.75-.2,1.75-.06,4.07-1,5.63a5.71,5.71,0,0,1-2.65,1.94c-.64.16-1.14-.2-1.74-.33-.79-.17-.81.09-1.2.62-.62.86-1.83,1.16-2.62,1.87a6.17,6.17,0,0,0-1.89,3.18c-.19.8-.26,1.06.75,1.25a6.71,6.71,0,0,0,2.64-.17,23.75,23.75,0,0,0,5.73-2.15,49.65,49.65,0,0,0,4.57-2.25c3.83-2.51,3.28-7,4-10.82a6.89,6.89,0,0,1,1.31-3c1.69-.68,6.23,6.15,6.88,7.07a13.93,13.93,0,0,0,1.46-.85c-1.29-2-3.42-4.05-3.63-6.31C636.31,548.23,636.38,546.33,635.34,544.53Z"/><path class="cls-42" d="M581.54,486a5.3,5.3,0,0,1-.75-.92,14,14,0,0,1-4.89,3.41l-.12.05c-2.5,1.53-5.17,2.89-7.95,4.3l-.42.19a.15.15,0,0,1,.05.06c3.09,4.55,8.5,5.43,12.34,9.26,4.1,4.08,8.11,8.32,12.24,12.51,7.92,8,16.77,19.75,24,27.84a78.57,78.57,0,0,0,5.57-7.24c-2.35-1.64-7.94-14.81-9.43-17.47-2.62-4.65-4.76-9.53-8-13.88A61.87,61.87,0,0,0,594,493.31C590.23,490.21,584.86,489,581.54,486Z"/><path class="cls-42" d="M570.41,457.59c-.27,5.68-4.19,17.45-3.18,33.87.28,4.55,5.83,7.07,11.86,4.35,7.1-3.19,8.43-11.74,8.76-17.48.27-4.49,1-11-5.08-13.07-3.3-1.14-7.45-2.88-9.83-5Z"/><path class="cls-44" d="M563.18,571.09a20.87,20.87,0,0,0,10.08-9.63,48,48,0,0,0,2.79-6.6,23.16,23.16,0,0,0,1.28-4.38,20.71,20.71,0,0,1,3.68.32,16.56,16.56,0,0,0,3.79,0c1.06-.13.92,0,1.1.88a17.62,17.62,0,0,0,.89,2.86c.46,1.2.91,2.41,1.39,3.56a6,6,0,0,1,.72,2.06,3.55,3.55,0,0,1-.3,1.85,5.67,5.67,0,0,1-2,1.61c-3,2-6.06,4-9.21,5.79-2.64,1.51-4.88,3.31-7.78,4.39a5.56,5.56,0,0,1-5.22-.53c-.61-.48-.74-1.42-1.36-1.8Z"/><path class="cls-43" d="M590.2,565.55a5,5,0,0,0,.36-3,6.75,6.75,0,0,0-1.14-3c-.36-.49-1-1.67-1.89-1.61l.35-.11a8.92,8.92,0,0,0-2.69,1.34,36.75,36.75,0,0,0-4.16,2.65c-2.6,2-5.1,4.23-7.52,6.42-1.46,1.31-3.06,3.24-5,4a7.48,7.48,0,0,1-3.57.31c-.63-.19-.77-.71-1.16-1.1s-.71-.31-1.42-.07c-1.13.39-2.34.06-3.49.25a9.2,9.2,0,0,0-3.88,1.66c-.74.56-1,.73-.32,1.36a5.61,5.61,0,0,0,2.25,1.12,25.59,25.59,0,0,0,6.2,1c1.79.09,3.52.42,5.35.36,4.94-.2,7.83-4.08,11.27-6.79a9.94,9.94,0,0,1,3.25-1.76c1.87.25.47,7.91.31,9,.6,0,1.22,0,1.81,0,.42-2.21.24-4.89,1.74-6.81C588.24,569,589.7,567.5,590.2,565.55Z"/><path class="cls-44" d="M573.68,491.8c-.89,5.14,2.82,8.42,3.08,13.33.27,5.23.36,10.55.59,15.89.45,10.21-1.12,23.88-1.3,33.84,3.8-1,6.29-1.89,9.85-3.18-.68-2.43,4.57-15.7,5.34-18.54,1.34-5,3.23-9.94,3.86-15a47.13,47.13,0,0,0-.29-13.53c-.71-4.28-4.14-7.8-4.55-11.84-.46-4.41,13.46-34.67,6.48-36.6-4.16-1.16-21.89-1.36-24.27,1.72-2.67,3.47,1.68,30,1.21,33.88Z"/><path class="cls-30" d="M585.53,301.27c-6.07-1-14.69,4.32-14,9.76.15,1.22.57,2.43-.37,3.55-.69.83-2.21,1.06-2.86,1.91-1.08,1.41.23,1.47,1.07,2.37,1.3,1.4-.37,1.61-.32,2.89,0,.62.87.59,1,1.13.1.39-.33,1.3-.29,1.73s.53.7.5,1.18-.79,1.09-1,1.64c-.82,2.16,5.4,2.86,7.54,3.47,3,.87,1.14,3.52,1.75,6.1.35,1.42,1.54,5.95,3.5,3.73.91-1,1.11-2.54,1.88-3.65,1.2-1.73,3.45-2.56,5.59-3.22,1.74-.53,2.54-.43,3.29-1.91.53-1,.68-2.2,1.23-3.22.65-1.2,1.79-1.72,2.87-2.66a12.25,12.25,0,0,0,3-4.18,16.62,16.62,0,0,0,1.09-9.71c-.86-5.91-9.08-12.77-16.6-11.15Z"/><path class="cls-45" d="M578.09,336.6c-.35,2.8,1.53,5.77,1.84,8.5,1.45-.54,2.86-2,4.13-2.87a33.16,33.16,0,0,1,5.64-3.06,30.13,30.13,0,0,1,4.34-1.71c1.8-.47,2.31-.45,1.62-2,0-.1,0-.1,0,0-1.43,1.64-5.24,2.3-7.43,3.27-2.62,1.16-5,2.26-7.43,3.59-1.11-1.57-2.52-4.05-2.38-5.87a.94.94,0,0,0-.7.26Z"/><path class="cls-46" d="M575.05,301.4c-2.19,1.05-6.29,3.91-4.56,6.41a2.05,2.05,0,0,0,1.26.86c.34.06.87-.19,1.15-.09s.35.56.64.7c.47.23,1,0,1.41.1s.48.35.84.5.89.1,1.15.29.23.51.37.77a4.8,4.8,0,0,0,1.26,1.1,5.8,5.8,0,0,0,2.78,1.22,26.82,26.82,0,0,0,3.87.69,4.27,4.27,0,0,1,4,4c.54-1.66,3.41-1,3.63.53.16,1.14-1.46,2.72-2.77,3-.24,1.4,1,3,1.62,4.21a7.63,7.63,0,0,0,3,3.05c.59-1,2.64-1.35,3.69-1.94a21.5,21.5,0,0,0,4.24-3.12,26.17,26.17,0,0,0,3.83-4.78,3.89,3.89,0,0,0,.86-2.4c.18-1.25-.13-6.69.12-7.93.39-1.85,1.37.28.42-1.32a15.68,15.68,0,0,0-5.23-5.17c-1.76-1-2.71-3.36-4.73-4-1.38-.44-1.95-1.41-9.3-1.4Z"/><path class="cls-47" d="M599.05,298.84c-.61-1.47-3.27-2.35-4.94-2.78a21.73,21.73,0,0,0-9.92-.08c-3.79.82-8,2.21-10.8,4.56-1.33,1.12-3,2.88-3.26,4.47-.19,1.12-.37,3,1.21,3.42,1.1.3,1-.07,1-.85a5.58,5.58,0,0,1,2.22-3.52,14.93,14.93,0,0,1,6.61-2.87c.69-.14,5.62-1,5.79-.1.08.48-1.51,1.59.18,1.35,1.34-.18,2.31-1.18,3.55-1.44.13.62-.7,1.24.31,1.52s1.63-.3,2.48-.37c-.08,1.53,2.63,2.08,4,1.55a2.76,2.76,0,0,0,1.63-2.19c.11-.54.5-2.9-.53-2.88Z"/><path class="cls-46" d="M597.39,300.58c.46.12,1.1,1.15,1.4,1.53a16.66,16.66,0,0,1,1.62,2.53,27.31,27.31,0,0,1,2,4.77,14.53,14.53,0,0,1,.38,4.31c.25-.34,1.82.18,2.32.24a10.06,10.06,0,0,0,4.51-.89,8,8,0,0,0,4.92-8.59,5.56,5.56,0,0,0-.79-2.47,9.17,9.17,0,0,0-1.78-2.12,23,23,0,0,0-4.63-2.73,9.1,9.1,0,0,0-7.84.84,3.75,3.75,0,0,0-1.53,1.64c-.14.31-.31.95-.68,1.09Z"/><path class="cls-48" d="M578.07,336.17a1,1,0,0,0,.23,0h0Z"/><path class="cls-49" d="M606,374.49c1.29-4.13,2.58-8.24,2.73-12.49.18-4.41-1.52-8.65-3.12-12.81-1.24-3.27-2.72-7.09-5.53-9.77-1.29-1.24-3.18-2.15-4.39-3.54-.83-1-.75-3.28-1.6-3.4-1.81-.54-7.44,2-9.13,2.34-2.09.39-4.89.95-6.65,1.31-1.16,1.22-.69,3.42-1,4.87-.08.37-.19.76-.28,1.14-.74,1.06-1.47,2.68-2,3.26-2.06,2.26-4.21,4.56-6.53,6.67-2.77,2.52-7.3,5.46-8.07,8.85a9.51,9.51,0,0,0,2.27,8.59c1.49,1.77,4.58,3.61,5.19,5.71-3.84.52-1.06,3.94-.16,5.15,1.39,1.86-1.88,1.78-.22,4.08,1.25,1.74-2.43,13.05,1.93,13.24,3.49.63,27.73.41,33.64,1.15-.3-1.54-1.31-3-1.57-4.6a16.52,16.52,0,0,1,.49-6C603,383.65,604.58,379.06,606,374.49Z"/><path class="cls-30" d="M529.73,312.9c-.22-.22-2.5-3.65-2.83-4.26a2.88,2.88,0,0,1-.21-1.92c.14-1.24,1.28-2.65,1.07-3.82a25.79,25.79,0,0,1-.84-4.39c0-.51.31-3.15-.27-3.25s-1.72.87-2,1.18a4,4,0,0,0-1,2.21c-.13.64.09,3.15-1.72,2.51-.87-.31-1.33-1.47-1.65-2.08s-.73-1.52-1.13-2.28c-.9-1.69-1.88-3.36-2.91-5-.34-.55-1.09-2-1.82-.83-.57.9.1,2.28.43,3.13.54,1.44,1.18,2.87,1.67,4.32.16.45.93,2.29.47,2.62-1.42-1.07-3.2-2.41-4-3.81a20.72,20.72,0,0,0-2.61-3.92c-.33-.38-1-1.27-1.62-1.42-1.08-.26-1.09.64-.95,1.15a36.07,36.07,0,0,0,1.83,4.37,30,30,0,0,0,2.06,3.75c-1.24-1.17-2.46-2.18-2.92-3.64-.38-1.18-.16-2.77-.86-3.84-1.5.32-1.42,2.9-1.38,3.78a7.64,7.64,0,0,0,1.21,3c-.25-.4-.44-.82-.67-1.2,0,.71-.35,1.41-.36,2.12s.38,1,.73,1.45a7.16,7.16,0,0,1,.93,1.65,2.57,2.57,0,0,0,.71,1.42,24.45,24.45,0,0,0,3.63,2.06c1.42.77,2.82,1.52,4.3,2.22a11.42,11.42,0,0,1,1.66.74,3.32,3.32,0,0,1,.9,1.18c.66,1.06,3.29,5,3.81,5.67C523.8,318.41,531.88,315.15,529.73,312.9Z"/><path class="cls-50" d="M604.91,453.81a90.68,90.68,0,0,1-4.45,8.87c-.2.36-.38.73-.54,1.09-2.35.3-4.69.63-7.08.89-7.59.82-15.61.09-23.21-.35-.81-.05-1.63-.11-2.45-.19-1.41-5.32-3-10.62-4.51-16s-1.37-13.48-.69-21.63c.43-5.08,1.09-10.12,1.79-14.39,1-6,2-10.49,2.56-11.31s.82-2.63,1.56-3.51c12.81,1.13,24.31,1.16,34.49-.62a88.09,88.09,0,0,1,4.84,8.21q.25.53.48,1.05C614,420.54,611.71,438.18,604.91,453.81Z"/><path class="cls-31" d="M573.3,346.19c-1.83,2-3.74,4-5.79,5.88-2.77,2.52-7.3,5.47-8.07,8.85a9.51,9.51,0,0,0,2.27,8.59c1.49,1.77,4.58,3.61,5.19,5.71-3.84.52-1.06,3.94-.16,5.15,1.39,1.86-1.88,1.78-.22,4.08,1.25,1.74-2.43,13.05,1.93,13.24,3.49.63,16.65.15,17.52.12C573.86,383.23,571.19,364,573.3,346.19Z"/><polygon class="cls-48" points="531.99 313.93 522.63 318.24 519.7 314.59 529.06 310.28 531.99 313.93"/><path class="cls-49" d="M522.44,316.05c.49,3,2.82,6.35,4.13,9.2A72,72,0,0,0,532.72,336c1,1.44,2.09,2.82,3.13,4.23a16.73,16.73,0,0,0,1.11,1.95c1,.85,2.16,0,3.07.54.71.4.05,1.12.53,1.66.7.79,1.72.43,2.73.72a6,6,0,0,1,2,1.23c2.53,1.77,6.48,2.12,9.42,3.58a95.3,95.3,0,0,0,23.24,8.21c5.83,1.23,15.48.71,19.69-2.92,4.42-3.81.76-9.58-3.38-12.75-3.68-2.82-8.23-3.82-13.27-4.42-6.11-.73-12-2-18.13-2.45-1.84-.13-4.68.1-6.34-.54a10.92,10.92,0,0,1-2.93-2.34c-2.29-2.07-5.29-3.89-7-6.31a26.19,26.19,0,0,0-8-7.25,50.73,50.73,0,0,1-4.75-3.33c-.7-.55-2-2.08-2.9-2.37-1.24-.38-7,2-8.34,2.78Z"/><path class="cls-31" d="M522.54,316.85c.73,2.78,2.75,5.8,3.94,8.4A72.84,72.84,0,0,0,532.63,336c1,1.44,2.1,2.82,3.14,4.23a16.73,16.73,0,0,0,1.11,1.95c1,.85,2.16,0,3.06.54.71.4,0,1.12.53,1.66.7.79,1.73.43,2.74.72a6,6,0,0,1,2,1.23c2.53,1.77,6.48,2.12,9.42,3.58a95.3,95.3,0,0,0,23.24,8.21c5.84,1.23,15.49.71,19.7-2.92a5.34,5.34,0,0,0,2-3.86C566.53,351.66,539.86,338.54,522.54,316.85Z"/><path class="cls-51" d="M604.91,453.81c-15.6,5.17-43.38-12.56-27.61-15.05,25.29-4,29.76-22.15,29.92-33.86q.25.53.48,1.05C614,420.54,611.71,438.18,604.91,453.81Z"/><path class="cls-52" d="M567.3,423.76c3,1,3,1-1,3a4.85,4.85,0,0,1-4.32-.24c.43-5.08,1.09-10.12,1.79-14.39a13.63,13.63,0,0,0,3.53,4.63c3,2,5,2,1,4S564.3,422.76,567.3,423.76Z"/><path class="cls-53" d="M410.86,362.07l21-30.3a2.71,2.71,0,0,0-.67-3.75h0a2.7,2.7,0,0,0-3.77.68l-21,30.3a2.7,2.7,0,0,0,.67,3.74h0A2.7,2.7,0,0,0,410.86,362.07Z"/><rect class="cls-54" x="423.09" y="325.47" width="12.9" height="7.62" rx="3.19" transform="translate(-82.74 503.94) rotate(-56.3)"/><circle class="cls-55" cx="445.79" cy="305.98" r="20.57" transform="translate(-81.81 187.72) rotate(-21.83)"/><g class="cls-56"><path class="cls-57" d="M437.78,323.3c3.76.13,7.74.22,11.22-1.45a18.26,18.26,0,0,0,6.84-5.34,16.9,16.9,0,0,0,2.52-14.58,16.06,16.06,0,0,0-1.44-3.31c-.24-.42-.73-1-1-1.55-.39-.72-.33-1.81.62-2,1.49-.34,2.53,1.84,3.11,2.91a16.82,16.82,0,0,1,1.44,3.74,17.75,17.75,0,0,1-3.25,15.37,15.94,15.94,0,0,1-6.82,5.16,27.35,27.35,0,0,1-10.15,1.49,21.42,21.42,0,0,1-3.08-.38s0,0,0,0Z"/></g><g class="cls-56"><path class="cls-57" d="M452.48,292.21a1.46,1.46,0,0,1,2.72,1,1.46,1.46,0,0,1-2.72-1Z"/></g><g class="cls-56"><path class="cls-57" d="M450.18,290.52a.4.4,0,0,1,.5-.23.42.42,0,0,1,.23.51.39.39,0,0,1-.73-.28Z"/></g><path class="cls-58" d="M457.2,288.86c.55.37,1.08.76,1.58,1.17a20.57,20.57,0,0,0-22.72,34.07c-.57-.31-1.13-.65-1.68-1a20.57,20.57,0,0,1,22.82-34.23Z"/><path class="cls-53" d="M458.59,283.41a26.31,26.31,0,1,1-36.48,7.29A26.3,26.3,0,0,1,458.59,283.41Zm-26,39a20.57,20.57,0,1,0-5.7-28.52A20.58,20.58,0,0,0,432.58,322.4Z"/><path class="cls-27" d="M432.58,322.4a20.57,20.57,0,0,1,19.61-36,20.57,20.57,0,0,0-14.6,38.41A20.19,20.19,0,0,1,432.58,322.4Z"/><path class="cls-59" d="M285.3,338.76s-17.62,34.13-19.48,39.51S277,422,277,422s7.41-.32,9.26-2.53l-4.08-35.78s13.36-7.6,18.18-21.85S285.3,338.76,285.3,338.76Z"/><path class="cls-60" d="M268,399.54l46.49.65c2.09.07,3.67,1.17,3.53,2.45l-3.26,28.26c-.13,1.27-1.91,2.25-4,2.19l-46.38-.57c-3.34-.52-4.58-1.29-4.45-2.6L263,401.84C263.1,400.52,264.07,399.8,268,399.54Z"/><path class="cls-61" d="M269.15,399.52l46.6.65c2.1.07,3.69,1.17,3.56,2.46L316,431c-.13,1.27-1.92,2.26-4,2.19l-46.48-.58c-2.19-.06-3.86-1.18-3.73-2.5l3.11-28.33C265,400.46,267,399.45,269.15,399.52Z"/><path class="cls-62" d="M400.51,355.29s5-4.66,6.12-5.55,6-3.24,7.38-3.33,7.11.95,7.13,1.32a4.49,4.49,0,0,1-1,2.22c-.46.34-1,.83-1.91,3.27s-1.1,4.7-3.09,5.59-2.87,1.38-5.22,1.3a12.33,12.33,0,0,0-5.4,1.27Z"/><polygon class="cls-22" points="397.3 356.76 401.3 353.76 408.3 364.76 402.3 367.76 397.3 356.76"/><path class="cls-63" d="M287.75,571.7v8.06h18.16s-.69-2.91-9.3-4.26l-1.26-3.8Z"/><path class="cls-62" d="M333.17,290c2.64,1.48,3.69,5.55,3.69,5.55s1,4.62,1.6,8.13,3.86,6.28,3.45,7.2-2.64.93-2.64,2.22-.61,5-.61,7.59-2.85,2.94-5.49,3.13-6.1.74-6.71,1.85,0,7,0,7L305.73,331a33.14,33.14,0,0,0,2-10.59c-.15-4.94-.35-10.85-.35-10.85s1.22-10.72,8.53-15S333.17,290,333.17,290Z"/><path class="cls-64" d="M336.86,295.52c-2.8,0-7.12-.19-9,0h0l.1.11.19.24.31.41c.9,1.21,2.5,3.65,2.65,5.93a59.68,59.68,0,0,1-.4,8.29l-2.24-.19a21.08,21.08,0,0,1-2.44-4.07c-.61-1.66-5.7-3.33-7,.18s3.73,7,3.73,7a3.16,3.16,0,0,1-.18.27c-1.5,2.3-4.63,6.58-7.95,6.74a66.45,66.45,0,0,1-7,0s-2.18-7.18-5-10.86c-2.06-2.66-3.28-4.49-3.62-7.4a17.81,17.81,0,0,1,0-3.69c.35-4.56,5.86-7.24,7.48-7.94l.45-.18c3.86-7.57,15-7.57,20.94-5.17s9,0,9,0,.12.23.33.6a42.9,42.9,0,0,0,2.89,4.57C341.51,292.2,339.68,295.52,336.86,295.52Z"/><path class="cls-65" d="M336.86,295.52c-2.8,0-7.12-.19-9,0l-.6-.76a83.76,83.76,0,0,0,10-2c2-.68.86-4.54-.11-7a42.9,42.9,0,0,0,2.89,4.57C341.51,292.2,339.68,295.52,336.86,295.52Z"/><path class="cls-66" d="M307.3,290.76a17,17,0,0,1,15-4c9,2,11,1,14,0,0,0-6.76,1.42-11,0C319.3,284.76,311.3,284.76,307.3,290.76Z"/><path class="cls-65" d="M313.71,317.42c2.59-.47,6.63-1.51,8.92-3.7-1.5,2.3-4.63,6.58-7.95,6.74a66.45,66.45,0,0,1-7,0s-2.18-7.18-5-10.86c-2.06-2.66-3.28-4.49-3.62-7.4,2.4,2.89,7.13,7.28,13.24,6.6a21.8,21.8,0,0,1-6,1s7,2,11,0c-.12.24-2.21,4-9,4,0,0,7,2,10,0A7.94,7.94,0,0,1,313.71,317.42Z"/><path class="cls-66" d="M307.3,291.76s-3,5,0,8c0,0-2-4,1-7,0,0,2-1,6,1,0,0-3-3-5-3,0,0,4-3,13-1C322.3,289.76,311.3,285.76,307.3,291.76Z"/><path class="cls-66" d="M307.3,290.76s-7,2-7,9c0,0,2-7,7-8,0,0,1-4,13-4C320.3,287.76,310.3,286.76,307.3,290.76Z"/><path class="cls-59" d="M304.78,326c-4.19,2.36-7.95,5.8-16.6,12,0,0-3.25.15-3.79,1.48-7.4,17.72,1.27,22.93,2.46,29.85,2.36,13.65,3.59,25.36,1.84,35.17-2.95,16.55-6.49,38.71-5.88,41,.25.93,26.32,7.36,42.19,5,14.26-2.12,24.89-4.86,25.78-5.59-1.43-12.82-5.47-35.5-5.91-44.18-.68-13,1.87-21,2.45-26.84s-1.54-13.87-.88-15.08c1.77-3.27-.27-20.34-.27-20.34s-7.37-3.76-17.88-9.67c-2.57-1.45-9,.65-9,.65Z"/><path class="cls-59" d="M304.05,323.82l-4,5.16a137.09,137.09,0,0,1,14.15.08c8.24.78,16.83,1.85,16.83,1.85l-1.85-5.22s-3.35-1.43-15.38-2.18A94,94,0,0,0,304.05,323.82Z"/><path class="cls-67" d="M344.87,337.19a13.73,13.73,0,0,0-5,4s-1.45-5.57-16.86-7.28c-25.5-2.85-34.85,4.09-34.85,4.09s10.65-9.36,13.22-9.36,16.37-1.93,28.82,1.45c2.49.68,10,4.83,11.12,5.48Z"/><path class="cls-67" d="M306,422.39c0,2.36-5.32,25.88-5.32,25.88l3.26-.29Z"/><path class="cls-67" d="M343.47,348.77c-4.14,3.84-4.28,41.7-3.69,52s5.39,39.09,6,41.75-16.47,6-16.47,6,19.13-1.85,21.49-3.62-3.09-26.39-3.91-31-2.73-13.82-1.84-18.25-.16-15.47,1-22.27Z"/><path class="cls-59" d="M339.75,337.07c5.18-4.59,11.49,6.2,16.65,16.57a98.49,98.49,0,0,0,8.16,13.75c10.95,14.53,10.14,21.69,7.42,24.17-10.26,9.39-22.7-11.51-26.77-20C337.62,355.59,339.75,337.07,339.75,337.07Z"/><path class="cls-67" d="M349.56,342.24c.82,6-2.35,13.5-2,13.37,1.67-.6,5.38-6.51,5.38-6.51a10,10,0,0,1,.66,3.14c.16,1.54.42,6.66-.6,8.37s2.95-5,2.51-7.11S349.56,342.24,349.56,342.24Z"/><path class="cls-67" d="M336.55,416.41c-.88,4.73-1.18,8.28.59,8.28s11.23-1.78,11.23-1.78l.43,1.42s-10.48,3-12.25,1.83-1.48-4.43-1.48-6.79S336.55,416.41,336.55,416.41Z"/><path class="cls-59" d="M336.55,416.41c2.66-.59,10.06-2.41,11.16-.86s1.09,4.6,1.67,6.78c.41,1.51-11.69,2.34-11.69,2.34Z"/><path class="cls-59" d="M370.3,392.76l36-25s-6.1-9.65-7-13l-30,19S367.32,394.94,370.3,392.76Z"/><polygon class="cls-62" points="278.84 432.41 281.24 429.29 286.66 429.29 286.58 433.21 283.44 433.7 278.08 433.7 278.84 432.41"/><path d="M280.05,577.12c-.73,4-4,8-.73,10.55s6.55,2.54,10.56,1.45,5.45-3.28,7.63-5.1,8-2.9,9.83-5.45,4.18-7.66.9-8.28c-4.54-.84-8.54,2.78-20.42.07Z"/><path class="cls-59" d="M322.48,401c2.5,11.68-2.88,25.08-3.72,31.76s-8.34,55.34-8.66,58.33a85,85,0,0,1-4.17,20.49c-2.51,7.52-4.17,59.68-3.34,65.52s-26.29,9.6-26.29,9.6-.28-53,8.29-83.16c2.38-30.05,1.49-50.19,3.26-58.51.58-2.79-2.73-25.89,7.09-39.75C302.67,394.33,322.48,401,322.48,401Z"/><path class="cls-67" d="M317.89,430.71c-1.3,11.7-5.2,65.84-6.92,68.87s-2.28,4-5,12-1.09,58.78-.65,60.51-8.87,7.39-8.87,7.39-1.47-42.55,5.46-68.18c1.32-4.89,6.21-17,7.07-23.1S317.89,430.71,317.89,430.71Z"/><path d="M319.39,576.4c-1.84,5.75-3.43,8.8-1.67,12.45s10.41,2.29,15.42-.11c3-1.41,4.14-3.58,7.6-3.68,7.38-.2,13.73-12.2,7.68-12.7s-10,2-12.74-.3S319.39,576.4,319.39,576.4Z"/><path class="cls-59" d="M342.59,406.45a139,139,0,0,1,2.59,31.19c-.43,12.56-2.71,55.34-3,58.33-.83,7.93-1,9.82-3.46,17.33s-.56,61.78.28,67.63-26.6,6.5-26.6,6.5-4.55-41.5,3-81.56c.46-39.31-2-60.22-1.19-73.58S342.59,406.45,342.59,406.45Z"/><ellipse class="cls-2" cx="316.3" cy="583.8" rx="65" ry="11.97"/></g><g id="OBJECTS"><path class="cls-68" d="M182.14,311.46a9.66,9.66,0,0,1-2.5,1.92c-1.1.46-4.69-.53-7-2.36s-6.82-9.6-6.69-14.42,2.2-6.48,2.13-8-.37-3.76-.37-3.76,1.35-3.49,2.46-3.35S182.14,311.46,182.14,311.46Z"/><path d="M186.86,289.59c-2,2.56-3,10.63-3.46,13.61s.38,7.45-2.25,8.69-4.69-.39-7-3.16-8.28-10.62-5.7-15.8,2-8.39,1.62-10.48,9.51-8.31,8.87-6-2.85,3.79-1.69,6.07,3.79.76,6.15,2A6.36,6.36,0,0,1,186.86,289.59Z"/><path class="cls-68" d="M137.7,368.46a9.86,9.86,0,0,0,2.5,1.92c1.11.46,4.7-.53,7-2.36s6.83-9.6,6.69-14.42-2.19-6.48-2.13-8,.37-3.76.37-3.76-1.35-3.49-2.45-3.35S137.7,368.46,137.7,368.46Z"/><path d="M133,346.59c2,2.56,3,10.63,3.46,13.61s-.37,7.45,2.25,8.69,4.69-.39,7-3.16,8.28-10.62,5.7-15.8-2-8.39-1.61-10.48-9.52-8.31-8.88-6,2.85,3.79,1.69,6.07-3.78.76-6.14,2A6.38,6.38,0,0,0,133,346.59Z"/><path class="cls-69" d="M206,111.94s4.82-8.61,10.84-4.92c9.79,6,6.66,19.5,6.66,19.5l-2.25-6s3,9.5-1.75,16l.5-6.25s-3.75,9-10.5,10-7.75,1-8.5,5,4.74,6.66,3,6.38c-6.12-1-5.5-8.75-5.5-8.75l-1,5.62s-7.75-15-7.25-22A25.85,25.85,0,0,1,194,114.77l-4,1.5S202,97.19,206,111.94Z"/><path class="cls-70" d="M211.86,132.79c3.21-5.8,8.09-12.27-3.32-18.27-1.84-1-6.19-.22-7.92-.29-1.2,0-1.34,1.22-2.42,1.38A20.25,20.25,0,0,0,185.86,123S193.09,134,171.61,148c-2.51,1.64,15.41,29.71,17.18,19.31C194.79,132,209.93,136.27,211.86,132.79Z"/><path class="cls-71" d="M185.4,134.26c.85,8.2-3.78,26.25-4.88,30.39l.44.52,9.26-4.84c4.22-17.5,11-22.6,15.91-24.78-1.86-.86-3.77-1.76-5.68-2.7C189,127.19,185.86,123,185.86,123S188.76,127.43,185.4,134.26Z"/><path class="cls-70" d="M212,131.1s2.42.59.59,3.09-7.5,2.58-6.09-.59S212,131.1,212,131.1Z"/><path class="cls-72" d="M199.27,117.15l-.79-.74s.35-.89,2.47-.08a5.57,5.57,0,0,0,3.57.32l-3.88,2.81Z"/><path class="cls-71" d="M197.27,117.46l1.21-1a.88.88,0,0,1,1.41.43l.75,2.62A6.22,6.22,0,0,0,197.27,117.46Z"/><path class="cls-71" d="M211.45,132.21s.38,2.31-2.87,2.31c0,0,1.56-.69,1.25-1.31s-1.19-.56-1.19-.56,1.63-.13,1.75.25a2.2,2.2,0,0,1,.06.87Z"/><path class="cls-69" d="M207.33,130.52s5-.62,5.5-4.12a9.75,9.75,0,0,0,3.54-2.13c1.55-1.47-2.67,8.13-2.67,8.13s-1-1.75-5.5.25Z"/><path class="cls-73" d="M215.14,14c1.27,2.46,4.85,2,7.26.18a7.07,7.07,0,0,0,2.58-7c-1-6.29-8.39-9-15.25-5.83-8.76,4.12-10.93,12.54-11.17,20-.12,3.68,1.47,10.39-4.14,12.09-3.54,1.08-5.32-1.84-6.09-4.18-.51-1.58-.44-4,2.06-4.6s4.13,2.14,1.12,2.07c.15.87.29,1.74.44,2.61l.52-.27c2-1,.21-3.32-1.74-2.32l-.52.27a1.37,1.37,0,0,0,.44,2.61c2.35.05,5.46-.57,6.18-3s-1.58-4.45-3.9-4.91a7.46,7.46,0,0,0-7.31,3.08c-1.87,2.75-.74,5.9.77,8.26a7,7,0,0,0,7.49,3.44,9.42,9.42,0,0,0,7.23-5.32c1.42-3.27.73-6.87.83-10.16.14-4.47.7-9.5,4.16-13.39,3.19-3.59,9.4-6.73,13.52-3.42a5.94,5.94,0,0,1,2.1,4.59,4.34,4.34,0,0,1-.59,2.45c-.23.34-2.54,2-2.73,1.66-.83-1.62-4.1-.55-3.26,1.1Z"/><path class="cls-73" d="M243.67,48.55,238,31.65l-1.81-5.41-5.66-16.9a2.33,2.33,0,0,0-4.35,1.46l.06.2h0a19.21,19.21,0,0,0-9.93,7.33A20.81,20.81,0,0,0,213,26.49c-.69,4.33-4.13,8.22-9,9.84l-.31.1a14,14,0,0,1-9.4-.07l-3.24-1.26a6.84,6.84,0,0,0-4.6,0l2.37,7.06,1.81,5.4L193,54.58a6.83,6.83,0,0,0,3.65-2.81l1.83-3a14,14,0,0,1,7.45-5.73l.31-.1c4.84-1.62,9.93-.59,13.09,2.45A20.83,20.83,0,0,0,226.9,50a19.29,19.29,0,0,0,12.35-.14h0l.07.2a2.33,2.33,0,0,0,4.35-1.46Z"/><path class="cls-74" d="M213.08,34.17c1.66-1.68,4.47-5.53,6.07-7.36a22.85,22.85,0,0,1,8.91-6c.43-.18,10.85,29.43,11.3,29.28l-10-29.77,0-.15c-.25-.75.51-1.69,1.72-2.09s2.38-.12,2.63.63l-3.15-9.4a2.33,2.33,0,0,0-4.35,1.46l.06.2h0a19.21,19.21,0,0,0-9.93,7.33A20.81,20.81,0,0,0,213,26.49c-.69,4.33-4.13,8.22-9,9.84l-.31.1a14,14,0,0,1-9.4-.07l-3.24-1.26a6.84,6.84,0,0,0-4.6,0l2.35,7a57.21,57.21,0,0,1,7.24-1.23S210.34,37,213.08,34.17Z"/><path class="cls-73" d="M228.57,54.08c-.48-2.73,2.69-4.48,5.68-4.52a7,7,0,0,1,6.29,4c3,5.64-1.23,12.28-8.65,13.84-9.48,2-16.28-3.41-21-9.23-2.31-2.86-5.09-9.18-10.59-7.16-3.47,1.28-3.14,4.68-2.34,7,.54,1.57,2,3.42,4.42,2.43s2-4.2-.36-2.33l-1.22-2.35.58-.1c2.17-.38,2.17,2.53,0,2.91l-.58.1a1.37,1.37,0,0,1-1.22-2.35c1.85-1.46,4.7-2.84,6.74-1.33s1.42,4.49-.16,6.26a7.44,7.44,0,0,1-7.68,1.95c-3.16-1.06-4.15-4.26-4.37-7A7,7,0,0,1,198.05,49a9.45,9.45,0,0,1,9-.12c3.1,1.76,4.72,5.05,6.78,7.61,2.81,3.48,6.28,7.16,11.39,8.18,4.7.95,11.56-.3,12.84-5.42A5.9,5.9,0,0,0,237,54.27,4.24,4.24,0,0,0,235,52.68c-.39-.14-3.25-.1-3.18.31.31,1.79-2.94,2.91-3.26,1.09Z"/><path class="cls-74" d="M228.38,29.14a1.74,1.74,0,0,0,1.24-.75,1.82,1.82,0,0,0,.35-.86.77.77,0,0,0-.07-.4l0,0v0h0c-.27-.38-1.81-2-3.15-2a.83.83,0,0,0-.19-.46l0,0a4.36,4.36,0,0,0-3.23-.74,1,1,0,0,0-.23-.27l-.11-.06a3.79,3.79,0,0,0-3.1.48.71.71,0,0,0-.32-.14h-.1a3.76,3.76,0,0,0-2.65,1.69.65.65,0,0,0-.24,0h-.09l-.12,0h0a4.28,4.28,0,0,0-1.92,2.79.35.35,0,0,0-.14,0l-.09,0a.57.57,0,0,0-.18.12h0a5.36,5.36,0,0,0-.92,3.85,2.81,2.81,0,0,0,.08.31,2.15,2.15,0,0,0,1.76,1.52,3.09,3.09,0,0,0,.41.21,1.84,1.84,0,0,0,2-.26,4.8,4.8,0,0,0,1.08-2l0-.06a.69.69,0,0,0,.06-.45s0-.05,0-.08a4.79,4.79,0,0,0,1.14-1.07.78.78,0,0,0,.22-.42,4.23,4.23,0,0,0,1.33-.49.79.79,0,0,0,.33-.27,4.47,4.47,0,0,0,1.42.06.77.77,0,0,0,.44-.12,5.6,5.6,0,0,0,1.43.65.75.75,0,0,0,.51,0,7.44,7.44,0,0,0,1.29,1.27l.07,0a.77.77,0,0,0,1.14,0A2.28,2.28,0,0,0,228.38,29.14Zm-5.63,15a.93.93,0,0,0,.18-.16,3.82,3.82,0,0,0,3.13-.25h0l0,0,0,0a.76.76,0,0,0,.17-.32,3.77,3.77,0,0,0,2.76-1.47.61.61,0,0,0,.05-.12.7.7,0,0,0,0-.35,4.23,4.23,0,0,0,2.13-2.54.06.06,0,0,0,0,0,.75.75,0,0,0-.13-.5c1-.85,1.32-3.05,1.3-3.51h0v0a.85.85,0,0,0-.19-.38,1.76,1.76,0,0,0-.79-.46,1.7,1.7,0,0,0-1.45.15,2.24,2.24,0,0,0-1.77-1.32.73.73,0,0,0-.5.05.76.76,0,0,0-.44.59l0,.09a7.28,7.28,0,0,0-.27,1.79.74.74,0,0,0-.4.38h0a5.8,5.8,0,0,0-.72,1.35.76.76,0,0,0-.67.52.8.8,0,0,1,.23-.35,4.48,4.48,0,0,0-1.07.9.72.72,0,0,0-.48,0h0a4,4,0,0,0-1.33.4.74.74,0,0,0-.46-.2h0a4.6,4.6,0,0,0-1.52-.16l0-.07a.76.76,0,0,0-.32-.32l-.05,0a5,5,0,0,0-2-.91,1.84,1.84,0,0,0-1.74,1,2.62,2.62,0,0,0-.2.42,2.14,2.14,0,0,0-.49,2.27c0,.1.07.19.12.29a5.35,5.35,0,0,0,3,2.52v0a.78.78,0,0,0,.22,0l.1,0a.31.31,0,0,0,.13-.06,4.29,4.29,0,0,0,3.21,1.07h0l.12,0Zm2.44-6.47a.19.19,0,0,1,0-.08.19.19,0,0,0,0,.08Zm-1.77.84.06-.12a.61.61,0,0,0,0,.12Z"/><path class="cls-75" d="M220.18,26.62s-.68-1.07-.06-1.87,2.46-.63,2.45-.59A7.48,7.48,0,0,0,220.18,26.62Z"/><path class="cls-76" d="M222.22,25.92a5.6,5.6,0,0,1-2,.7,7.48,7.48,0,0,1,2.39-2.46S222.92,25.35,222.22,25.92Z"/><path class="cls-76" d="M220.24,26.79a2.47,2.47,0,0,0,.91,1.62,3.38,3.38,0,0,0,1.75.24A8.12,8.12,0,0,0,220.24,26.79Z"/><path class="cls-75" d="M222.33,26.85a2.17,2.17,0,0,0-2.09-.06,8.12,8.12,0,0,1,2.66,1.86A2.25,2.25,0,0,0,222.33,26.85Z"/><path class="cls-75" d="M222.86,26.33s-.4-1.23.43-1.71,2.68.44,2.65.48A6.16,6.16,0,0,0,222.86,26.33Z"/><path class="cls-76" d="M225.11,26.52a6.64,6.64,0,0,1-2.25-.19,6.16,6.16,0,0,1,3.08-1.23S226,26.3,225.11,26.52Z"/><path class="cls-76" d="M222.87,26.51a2.5,2.5,0,0,0,.49,1.82,4.33,4.33,0,0,0,1.71.92A10.06,10.06,0,0,0,222.87,26.51Z"/><path class="cls-75" d="M225,27.41a2.63,2.63,0,0,0-2.1-.9,10.06,10.06,0,0,1,2.2,2.74A2,2,0,0,0,225,27.41Z"/><path class="cls-75" d="M225.66,27.16s-.08-1.27.91-1.34,2.67,1.62,2.64,1.65A6.68,6.68,0,0,0,225.66,27.16Z"/><path class="cls-76" d="M228,28.35a10.21,10.21,0,0,1-2.29-1.19,6.68,6.68,0,0,1,3.55.31A1.09,1.09,0,0,1,228,28.35Z"/><path class="cls-76" d="M225.62,27.32a2.19,2.19,0,0,0,0,1.84,6.82,6.82,0,0,0,1.54,1.62A12,12,0,0,0,225.62,27.32Z"/><path class="cls-75" d="M227.56,29.08a3.65,3.65,0,0,0-1.94-1.76,12,12,0,0,1,1.55,3.46A1.56,1.56,0,0,0,227.56,29.08Z"/><path class="cls-75" d="M215.11,33.46a1.42,1.42,0,0,1-1.32-1.26,5.06,5.06,0,0,1,.68-3.12A14.78,14.78,0,0,0,215.11,33.46Z"/><path class="cls-76" d="M215.52,30.66a12.51,12.51,0,0,1-.41,2.8,14.78,14.78,0,0,1-.64-4.38A1.88,1.88,0,0,1,215.52,30.66Z"/><path class="cls-76" d="M215.26,33.51s.9.63,1.51.08a5.29,5.29,0,0,0,.93-1.78A5,5,0,0,0,215.26,33.51Z"/><path class="cls-75" d="M216.22,31.18c-.8.38-1,2.33-1,2.33a5,5,0,0,1,2.44-1.7S217,30.81,216.22,31.18Z"/><path class="cls-75" d="M216.09,30.25a1.73,1.73,0,0,1-1-1.62,3.66,3.66,0,0,1,1.45-2.39A12,12,0,0,0,216.09,30.25Z"/><path class="cls-76" d="M217.19,28.06a8.53,8.53,0,0,1-1.1,2.19,12,12,0,0,1,.47-4A2.09,2.09,0,0,1,217.19,28.06Z"/><path class="cls-76" d="M216.21,30.37s.74.92,1.47.73S219,30,219,30A5.16,5.16,0,0,0,216.21,30.37Z"/><path class="cls-75" d="M217.74,28.81c-.88,0-1.56,1.54-1.53,1.56A5.16,5.16,0,0,1,219,30S218.58,28.81,217.74,28.81Z"/><path class="cls-75" d="M217.85,28a1.94,1.94,0,0,1-.55-1.84c.36-1.1,2-1.59,2-1.54A9.48,9.48,0,0,0,217.85,28Z"/><path class="cls-76" d="M219.5,26.46A6.15,6.15,0,0,1,217.85,28a9.48,9.48,0,0,1,1.5-3.38A2.07,2.07,0,0,1,219.5,26.46Z"/><path class="cls-76" d="M218,28.1s.48,1.12,1.25,1.26a2.9,2.9,0,0,0,1.63-.45A6.28,6.28,0,0,0,218,28.1Z"/><path class="cls-75" d="M219.85,27.35c-.87-.35-1.94.73-1.9.75a6.28,6.28,0,0,1,2.88.81S220.68,27.67,219.85,27.35Z"/><path class="cls-75" d="M225,41s.11,1.26,1.08,1.53,2.34-1,2.31-1A7.4,7.4,0,0,1,225,41Z"/><path class="cls-76" d="M227.05,40.33A5.42,5.42,0,0,0,225,41a7.4,7.4,0,0,0,3.39.52S228,40.36,227.05,40.33Z"/><path class="cls-76" d="M224.94,40.83A2.52,2.52,0,0,1,224.7,39,3.19,3.19,0,0,1,226,37.74,8.2,8.2,0,0,1,224.94,40.83Z"/><path class="cls-75" d="M226.57,39.51c-.22,1-1.63,1.36-1.63,1.32a8.2,8.2,0,0,0,1-3.09A2.23,2.23,0,0,1,226.57,39.51Z"/><path class="cls-75" d="M227.31,39.62s.43,1.21,1.38,1.09,1.87-2,1.83-2A6.41,6.41,0,0,1,227.31,39.62Z"/><path class="cls-76" d="M229,38.1a6.59,6.59,0,0,0-1.68,1.52,6.41,6.41,0,0,0,3.21-.88S229.82,37.75,229,38.1Z"/><path class="cls-76" d="M227.21,39.47a2.56,2.56,0,0,1-.7-1.75,4.27,4.27,0,0,1,.81-1.77A10.21,10.21,0,0,1,227.21,39.47Z"/><path class="cls-75" d="M228.35,37.48a2.67,2.67,0,0,1-1.14,2,10.21,10.21,0,0,0,.11-3.52A2,2,0,0,1,228.35,37.48Z"/><path class="cls-75" d="M229.05,37.27s.7,1.06,1.53.51,1.16-2.9,1.11-2.91A6.65,6.65,0,0,1,229.05,37.27Z"/><path class="cls-76" d="M230.16,34.93a10.49,10.49,0,0,0-1.11,2.34,6.65,6.65,0,0,0,2.64-2.4A1.09,1.09,0,0,0,230.16,34.93Z"/><path class="cls-76" d="M228.92,37.16a2.18,2.18,0,0,1-1.1-1.47,6.75,6.75,0,0,1,.25-2.22A11.79,11.79,0,0,1,228.92,37.16Z"/><path class="cls-75" d="M229.41,34.59a3.68,3.68,0,0,1-.49,2.57,11.79,11.79,0,0,0-.85-3.69A1.56,1.56,0,0,1,229.41,34.59Z"/><path class="cls-75" d="M216.83,38.6a1.4,1.4,0,0,0-.29,1.79A5,5,0,0,0,219,42.48,15.07,15.07,0,0,1,216.83,38.6Z"/><path class="cls-76" d="M218.85,40.58a12.79,12.79,0,0,0-2-2A15.07,15.07,0,0,0,219,42.48,1.9,1.9,0,0,0,218.85,40.58Z"/><path class="cls-76" d="M216.92,38.46s.34-1,1.16-1a5.2,5.2,0,0,1,1.81.86A5,5,0,0,1,216.92,38.46Z"/><path class="cls-75" d="M219.09,39.74c-.87.19-2.2-1.25-2.17-1.28a5,5,0,0,0,3-.11S219.91,39.59,219.09,39.74Z"/><path class="cls-75" d="M219.54,40.56a1.78,1.78,0,0,0,.2,1.89,3.64,3.64,0,0,0,2.6,1A12.11,12.11,0,0,1,219.54,40.56Z"/><path class="cls-76" d="M221.75,41.64a8.71,8.71,0,0,0-2.21-1.08,12.11,12.11,0,0,0,2.8,2.92A2.11,2.11,0,0,0,221.75,41.64Z"/><path class="cls-76" d="M219.58,40.4s0-1.18.72-1.48a3.46,3.46,0,0,1,1.76.08A5.07,5.07,0,0,1,219.58,40.4Z"/><path class="cls-75" d="M221.73,40.72c-.7.53-2.18-.29-2.15-.32a5.07,5.07,0,0,0,2.48-1.4S222.4,40.22,221.73,40.72Z"/><path class="cls-75" d="M222.34,41.34a1.93,1.93,0,0,0,.67,1.8,3,3,0,0,0,2.56,0A9.54,9.54,0,0,1,222.34,41.34Z"/><path class="cls-76" d="M224.56,41.53a6.17,6.17,0,0,0-2.22-.19,9.54,9.54,0,0,0,3.23,1.79A2,2,0,0,0,224.56,41.53Z"/><path class="cls-76" d="M222.33,41.16a2.18,2.18,0,0,1,.24-1.76,3,3,0,0,1,1.57-.63A6.36,6.36,0,0,1,222.33,41.16Z"/><path class="cls-75" d="M224.3,40.61c-.49.81-2,.59-2,.55a6.36,6.36,0,0,0,1.81-2.39S224.76,39.85,224.3,40.61Z"/><rect class="cls-77" x="167.32" y="42.12" width="40.76" height="6.76" transform="translate(171.18 -146.92) rotate(71.47)"/><rect class="cls-77" x="154.93" y="40.47" width="50.96" height="14.96" transform="translate(192.28 234.24) rotate(-108.53)"/><rect class="cls-76" x="164" y="43.68" width="33.99" height="8.15" transform="translate(193.24 234.54) rotate(-108.53)"/><path class="cls-78" d="M232.26,188.35a13.08,13.08,0,0,1-7.65-4.8l-6.49,9.14-6-25.34c-1.79-7.14-9.6-12.8-17.14-16.74-16.9,5-16.34-10.33-16-13.34-3.27-19.76,11.21-36.57,23.87-52.38L188.62,80c-53.9,49.2-58.88,131-58.88,131l65.37,9.7c-10.16-12.17,1.34-18.84-4.48-19.51-1.23-.15,1.77-2.55,2-3.66s-1.05-1.92-.74-2.86a25,25,0,0,1,7.24-11.31C199.5,215,219.45,222,219.45,222Z"/><path class="cls-79" d="M183.26,159.14a1.21,1.21,0,0,0-1.57.57c-.16.52.28,1.13,1,1.34a1.2,1.2,0,0,0,1.57-.56C184.4,160,184,159.36,183.26,159.14Zm-3.08,8.35c.16-.53-.28-1.13-1-1.35a1.21,1.21,0,0,0-1.57.57,1.39,1.39,0,0,0,2.55.78Zm-.65,8.73c-.74,0-1.34.45-1.34,1s.6,1,1.34,1,1.33-.44,1.33-1S180.26,176.22,179.53,176.22Zm-1,8.06a1.38,1.38,0,1,0,1.42.87A1.19,1.19,0,0,0,178.56,184.28Zm-6.14,6.62a1,1,0,1,0-1,1.73,1,1,0,1,0,1-1.73Z"/><path class="cls-80" d="M171.67,200.5l-.24-1c2.12-.53,2.25-5,2.12-6.73l0-.19,2.7-3.5.11-.05c.06,0,6-2.74,7.43-3.71.33-.38-.59-3-1.27-4.84-1.15-3.22-2.59-7.23-2.45-10.52a12,12,0,0,1,5.11-9.15l-1.54-3.36.51-.18a18.63,18.63,0,0,0,3.86-1.93.43.43,0,0,0,.19-.34c0-.53-.8-1.32-1.19-1.62l.61-.79c.16.12,1.57,1.25,1.58,2.4a1.43,1.43,0,0,1-.57,1.14A16.83,16.83,0,0,1,185,158l1.46,3.17-.38.23a11.29,11.29,0,0,0-5,8.6c-.13,3.09,1.27,7,2.4,10.14,1.18,3.31,1.9,5.32.88,6-1.42.95-6.6,3.34-7.46,3.74l-2.31,3C174.62,194.07,174.76,199.73,171.67,200.5Z"/><path class="cls-80" d="M226,188l-13,24.5C199.45,194.27,200.2,177,200.2,177c-6,29.25,18.75,43.75,18.75,43.75l10.75-29.5Z"/><path class="cls-80" d="M134.79,208.69c.33,4,4.33-1.67,4.33-1.67s.67-16.33.33-18.33S134.79,208.69,134.79,208.69Z"/><path class="cls-80" d="M189.79,200.69c-.4-3.58-68.34-36.17,1.5-101.5,0,0-16.13,5.19-15.84,1.33a23,23,0,0,1,3.79-11.09c-11.33,12.43-33.26,48.09-27,77.84,6.92,33.08,27.09,33.58,27.09,33.58a28.6,28.6,0,0,1-17.84-23.5S168.12,193.35,189.79,200.69Z"/><path class="cls-80" d="M183.58,155.27c1,.34-3.31-3.44-3.88-5.37a5.93,5.93,0,0,1,.28-4.1,18.28,18.28,0,0,1-1.11-7.14c-2.38,2.62-9.92,11.49-9.92,18.86,0,0,4.38-12.37,8.88-13.37C177.83,144.15,175.83,152.65,183.58,155.27Z"/><path class="cls-80" d="M197.2,177c-7.5,10.5-18.75,3-18.75,3l12.25,14.5s3.25-9.75,8.25-14.25l3.75-10S198.78,174.82,197.2,177Z"/><polygon class="cls-80" points="210.45 193.77 217.45 190.52 207.95 192.77 209.95 202.02 210.45 193.77"/><path class="cls-80" d="M187.58,150.15l.62-1.25,3.38-1.5,4.19,1.56,2.68,4s-7.56.19-9.62-.81S187.58,150.15,187.58,150.15Z"/><polygon class="cls-79" points="185.45 150.85 191.12 147.85 193.2 155.77 200.58 153.52 200.2 147.77 191.29 146.69 185.45 150.85"/><path class="cls-81" d="M189.58,150.77s16.5,19.38,35.12,8.13c0,0-7.62,10.12-16.5,8.25s-18-10.5-19.37-15.25Z"/><path class="cls-82" d="M187.62,149.35s12.33,37.34,45.33,7c0,0,2.32-3.55,1.9-14.09a.74.74,0,0,0-1.12-.61l-10.11,6s-4.18,23.17-20.33,17C192,160.35,187.62,149.35,187.62,149.35Z"/><path class="cls-82" d="M183.7,149.6s3-2.33,4.67-1.33a10.7,10.7,0,0,1,2.92,2.92l-2,1.91A7.5,7.5,0,0,1,183.7,149.6Z"/><path class="cls-81" d="M182.12,144.85a6.45,6.45,0,0,0,3.33,5.25s2.59,1.42,1.17,1.67-3.67-1.42-4.67-4.08S182.12,144.85,182.12,144.85Z"/><path class="cls-79" d="M183.54,150.27l3.08-5.67L180,136.52l-1,.5S178,147.6,183.54,150.27Z"/><path class="cls-70" d="M188.62,80l14.2,4.87h0a210.7,210.7,0,0,1,14.67-16.43l6.1-.94,2.33-2.71,1.71,0s1-.8.79-1.5c-.75-2.25-2.28-1.44-2.87-2.62-1.11-2.22-2.33-4.7-2.75-5.71-.65-1.56-.61-3.76-2.84-3.5-12.75,1.5-7.5,10-10.63,12.92a135.46,135.46,0,0,0-23.17,17.89C187,81.55,187.79,80.78,188.62,80Z"/><path class="cls-70" d="M234,163h-9.34a3.51,3.51,0,0,0-2.76,1.35l-1.6,2.06a2.62,2.62,0,0,0-.17,3,2.88,2.88,0,0,0,1.82,1.32c1,.22,1.57-.46,1.88-1.28.44,3.06,3.85,6.91,5,8.13l-4.21,5.93a13.08,13.08,0,0,0,7.65,4.8l3.69-9.72c1.66-3.9,1.45-9.5,1.12-12.82A3.09,3.09,0,0,0,234,163Z"/><path class="cls-83" d="M129.84,206.3c2.75-2.56,20.38-16.66,61.83-1.68a1.63,1.63,0,0,1,1,1c.65,1.64,2.42,5.71,4.55,6.86,10.57,5.72,36,21.36,47.19,44.68a7.58,7.58,0,0,1-3.67,10.21L193.3,286.76c-.61.28-6.32,4.7-6.81,4.25l-13.62-12.77c-.79-.74,9.5-5.9,10.43-6.48l23.43-17a1.65,1.65,0,0,0,.4-2.46c-4-4.8-18.3-19.3-40.91-14.71a1.68,1.68,0,0,0-1.05.71c-3.31,5-26.51,42.6-16.11,96.3.14.71.86,1.84.24,2.18l-17,10c-.94.52-1.71-5-2-6-3.11-11.14-16.55-64.52-1-133.6A1.66,1.66,0,0,1,129.84,206.3Z"/><path class="cls-79" d="M191.79,74.35s7.66-9.33,15,7.34L200.45,91s-7-11.67-17.33-8.33Z"/><path class="cls-79" d="M223.16,182.19s5.43,6.16,11.46,5.5l-5.13,14s-8.75.16-12.37-12.5Z"/><path class="cls-84" d="M97.28,31.82c-2-2-3.56-3.73-3.65-6.7-.07-2.58.58-5.13.62-7.71a1.28,1.28,0,0,0-2.55,0c-.06,3.34-1.14,6.8-.35,10.11.6,2.53,2.33,4.32,4.13,6.11A1.28,1.28,0,0,0,97.28,31.82Z"/><path class="cls-85" d="M104.79,76.62c-.34.87-1.56,1.57-2.29,2.06-.91.61-1.86,1.15-2.79,1.72-1.41.85-.12,3.06,1.28,2.2,2.22-1.34,5.27-2.73,6.26-5.3C107.84,75.77,105.38,75.11,104.79,76.62Z"/><path class="cls-85" d="M56.11,65.57c-1,1.22-1.67,2.76-.87,4.25s2.15,1.41,3.57,1.51c-.14,1.32-1.11,2.71-1.25,4a3.58,3.58,0,0,0,1.06,3.11c1.13,1.2,2.93-.61,1.8-1.8-1-1,.36-3,.67-4a5.42,5.42,0,0,0,.17-2.71,1.28,1.28,0,0,0-.9-.9c-1.16-.24-3.27.29-2.42-1.59.48-1.08,2.92-3.1,4.08-2s3-.68,1.8-1.81C61.23,61.14,58,63.21,56.11,65.57Z"/><path class="cls-84" d="M258.26,34.36l.55.16a1.1,1.1,0,0,0,.78,0l.13.07c.12.09.14.1,0,0a1,1,0,0,1,.18.17,1.28,1.28,0,1,0,1.81-1.8,3.51,3.51,0,0,0-3.49-1.06A1.29,1.29,0,0,0,258.26,34.36Z"/><path class="cls-85" d="M262.13,67.84a34.4,34.4,0,0,1-6,2.13,14.48,14.48,0,0,1,5.6-3.69,1.28,1.28,0,0,0-.68-2.46c-2,.51-3.46,1.91-5.11,3.14a10.2,10.2,0,0,0-3.43,3.6,1.29,1.29,0,0,0,.76,1.87c2.05.53,4.32-.11,6.44-.91a15,15,0,0,0-1.9,2.16,10,10,0,0,0-1.66,5c.06,1.64,2.61,1.65,2.55,0-.16-4.11,5.09-5.82,5-9.59A1.29,1.29,0,0,0,262.13,67.84Z"/><path class="cls-85" d="M281.4,115.53v-6.24a1.28,1.28,0,0,0-2.55,0v6.24A1.28,1.28,0,0,0,281.4,115.53Z"/><path class="cls-78" d="M289.77,136.37a2.66,2.66,0,0,0-2,.94,1.31,1.31,0,0,0,0,1.8,1.29,1.29,0,0,0,1.81,0l.16-.18h.07a1.28,1.28,0,0,0,0-2.55Z"/><path class="cls-86" d="M52,155.2a2.83,2.83,0,0,0-1.42-1.39,9.45,9.45,0,0,0-2.24-.5,18.61,18.61,0,0,0-3-.5,1.28,1.28,0,0,0,0,2.56,22.3,22.3,0,0,1,3,.52c.69.1,1.53.06,1.4,1-.16,1.09,1.23,2.36,2.13,1.24a10.63,10.63,0,0,0,.8-1.1A1.19,1.19,0,0,0,52,155.2Z"/><path class="cls-57" d="M96.61,125.4l-1.13,1.13a1.28,1.28,0,1,0,1.8,1.81l1.14-1.14a1.28,1.28,0,0,0-1.81-1.8Z"/><path class="cls-84" d="M323.46,29.23c-2.78,1-6,2.79-6.91,5.86s2.23,4.56,4.64,5.11c1.6.36,2.28-2.1.68-2.47a6.16,6.16,0,0,1-2.21-.79c-1-.65-.7-1.28-.09-2.16a9.28,9.28,0,0,1,4.57-3.09C325.66,31.12,325,28.65,323.46,29.23Z"/><path class="cls-84" d="M330.11,60a1.28,1.28,0,0,0-1.74.46l-.57,1.13a1.3,1.3,0,0,0,.46,1.75,1.28,1.28,0,0,0,1.74-.46l.57-1.13A1.31,1.31,0,0,0,330.11,60Z"/><path class="cls-78" d="M319.26,136.37a1.28,1.28,0,0,0,0,2.55A1.28,1.28,0,0,0,319.26,136.37Z"/><path class="cls-87" d="M306.69,189.48c-.19,1.06-.25,2.14-.4,3.21s-.23,2.36-1,3c-1.23,1.1.58,2.9,1.81,1.81,1.93-1.72,1.61-5.05,2-7.37C309.43,188.55,307,187.86,306.69,189.48Z"/><path class="cls-78" d="M257.34,176.52l0,0,0,0Z"/><path class="cls-88" d="M258.75,177c-.39-.11-.78-.25-1.18-.34a1.11,1.11,0,0,1-.19-.09c.2.2-.6.18,0,0a1,1,0,0,0-.22-.13l.23.12a11.47,11.47,0,0,0,1.13-.82,12.28,12.28,0,0,1,1.31-.65c1.5-.64.21-2.84-1.29-2.2-1.71.73-4.94,2.58-3.54,4.88a4.36,4.36,0,0,0,2.73,1.61c.93.26,2,.25,1.88,1.42-.21,1.62,2.34,1.6,2.55,0C262.41,178.48,260.65,177.49,258.75,177Z"/><path class="cls-78" d="M79.6,218.41c-.69.63-2.22.21-3.07.19a1.28,1.28,0,0,0,0,2.55c1.73,0,3.48.34,4.87-.94C82.62,219.1,80.81,217.3,79.6,218.41Z"/><path class="cls-57" d="M139.71,108.06a1.26,1.26,0,0,0,.55,2.46l.05,0,0,0h0l.1,0a2.14,2.14,0,0,1,.53.36c.37.31.71.66,1.08,1a1.32,1.32,0,0,0,1.81,0,1.29,1.29,0,0,0,0-1.8C142.57,109.1,141.46,107.7,139.71,108.06Z"/><path class="cls-84" d="M154.81,16a1.3,1.3,0,0,0-1.23-.94,5.59,5.59,0,0,0-3.4,1.24,1.33,1.33,0,0,0-.46,1.75,1.3,1.3,0,0,0,1.75.46,5.12,5.12,0,0,1,1.15-.68l.16-.06a1.4,1.4,0,0,0,1.22.3,1.31,1.31,0,0,0,.89-1.57Z"/><path class="cls-86" d="M11.88,29.75c-1.6-.06-3.06.61-4.67.59-1.82,0-3.61.12-5.27-.76-1.23-.66-2.65,1-1.54,2l.37.35a1.24,1.24,0,0,0,1,.34,11.91,11.91,0,0,0,4,.6,21.08,21.08,0,0,0,3.18,0,16.79,16.79,0,0,1,2.9-.52C13.52,32.36,13.52,29.81,11.88,29.75Z"/><path class="cls-86" d="M6.7,113.86c-2,1.37-4.69,2.32-5.69,4.73a1.28,1.28,0,0,0,.89,1.57,1.31,1.31,0,0,0,1.57-.89c.31-.75,1.4-1.31,2-1.71.82-.51,1.68-1,2.48-1.5C9.34,115.14,8.06,112.93,6.7,113.86Z"/><path class="cls-84" d="M21.86,205.6c-1.68-.23-3.13-1.39-4.88-1.18a1.32,1.32,0,0,0-1.27,1.28A1.27,1.27,0,0,0,17,207c1.46-.17,2.78.9,4.2,1.09a1.31,1.31,0,0,0,1.57-.89A1.29,1.29,0,0,0,21.86,205.6Z"/><path class="cls-57" d="M283.53,240.72c-1.86.25-2.83,1.67-4,2.94a11.53,11.53,0,0,0-2.71,4c-1.37.45-.68,2.7.86,2.41l.46-.09a1.24,1.24,0,0,0,.89-.89,7.56,7.56,0,0,1,2.06-3.34c.58-.6,1.62-2.32,2.49-2.44C285.13,243.06,285.16,240.5,283.53,240.72Z"/><path class="cls-78" d="M289.85,282.86l-2.27-1.13a1.31,1.31,0,0,0-1.75.45,1.29,1.29,0,0,0,.46,1.75l2.27,1.13a1.28,1.28,0,0,0,1.29-2.2Z"/><path class="cls-57" d="M321.56,233.41a38.2,38.2,0,0,1-3.77,4.85c-1.05,1.25.75,3.06,1.8,1.8a40.74,40.74,0,0,0,4.17-5.36A1.28,1.28,0,0,0,321.56,233.41Z"/><path class="cls-78" d="M350.12,123.13c-1.34,1.33-1,3.18-.95,4.87a1.28,1.28,0,0,0,2.56,0c0-.82-.46-2.42.19-3.06A1.28,1.28,0,0,0,350.12,123.13Z"/><path class="cls-84" d="M19.82,277.58h-5.1a1.28,1.28,0,0,0,0,2.55h5.1A1.28,1.28,0,0,0,19.82,277.58Z"/><path class="cls-85" d="M57.67,273.75c0,4.4.85,9-1.52,13a1.28,1.28,0,0,0,2.2,1.29c2.64-4.41,1.9-9.35,1.88-14.26A1.28,1.28,0,0,0,57.67,273.75Z"/><path class="cls-85" d="M53.85,316.71a1.28,1.28,0,0,0,0,2.55A1.28,1.28,0,0,0,53.85,316.71Z"/></g></g></g></svg>